G04 #@! TF.FileFunction,Legend,Top*
%FSLAX46Y46*%
G04 Gerber Fmt 4.6, Leading zero omitted, Abs format (unit mm)*
G04 Created by KiCad (PCBNEW 4.0.5+dfsg1-4) date Tue Oct  2 15:16:33 2018*
%MOMM*%
%LPD*%
G01*
G04 APERTURE LIST*
%ADD10C,0.100000*%
%ADD11C,0.300000*%
%ADD12C,0.127000*%
%ADD13C,0.200000*%
%ADD14C,0.150000*%
%ADD15C,0.050000*%
G04 APERTURE END LIST*
D10*
D11*
X132582627Y-124260000D02*
G75*
G03X132582627Y-124260000I-172627J0D01*
G01*
X172698494Y-106660000D02*
G75*
G03X172698494Y-106660000I-198494J0D01*
G01*
D12*
X157100000Y-101900000D02*
X154500000Y-101900000D01*
D13*
X156110000Y-105910000D02*
X155460000Y-105910000D01*
X155460000Y-105910000D02*
X155460000Y-105260000D01*
X155460000Y-105260000D02*
X156110000Y-105260000D01*
X156110000Y-105260000D02*
X156110000Y-105760000D01*
X156110000Y-105760000D02*
X155610000Y-105760000D01*
X155610000Y-105760000D02*
X155610000Y-105360000D01*
X155610000Y-105360000D02*
X155960000Y-105360000D01*
X155960000Y-105360000D02*
X155960000Y-105610000D01*
X155960000Y-105610000D02*
X155710000Y-105610000D01*
X155710000Y-105610000D02*
X155710000Y-105460000D01*
X155710000Y-105460000D02*
X155860000Y-105460000D01*
X155310000Y-106060000D02*
X155310000Y-105110000D01*
X155310000Y-105110000D02*
X156260000Y-105110000D01*
X156260000Y-105110000D02*
X156260000Y-106010000D01*
X171310000Y-106060000D02*
X171310000Y-107160000D01*
X155310000Y-106060000D02*
X155310000Y-107160000D01*
X155310000Y-106060000D02*
X171310000Y-106060000D01*
X171310000Y-123060000D02*
X155310000Y-123060000D01*
D14*
X124240000Y-121880000D02*
X124240000Y-121730000D01*
X124240000Y-121730000D02*
X125540000Y-121730000D01*
X125540000Y-121730000D02*
X125540000Y-127330000D01*
X125540000Y-127330000D02*
X121190000Y-127330000D01*
X121190000Y-127330000D02*
X121190000Y-121730000D01*
X121190000Y-121730000D02*
X122490000Y-121730000D01*
X122490000Y-121730000D02*
X122490000Y-121880000D01*
X124990000Y-125230000D02*
X121740000Y-125230000D01*
X124990000Y-123730000D02*
X121740000Y-123730000D01*
X124990000Y-127330000D02*
X124990000Y-121730000D01*
X121740000Y-127330000D02*
X121740000Y-121730000D01*
X123990000Y-125230000D02*
X124140000Y-125230000D01*
X124140000Y-125230000D02*
X124140000Y-126692500D01*
X124140000Y-126692500D02*
X123990000Y-126730000D01*
X123990000Y-126730000D02*
X123840000Y-126692500D01*
X123840000Y-126692500D02*
X123840000Y-125230000D01*
X123840000Y-125230000D02*
X123990000Y-125230000D01*
X122740000Y-125230000D02*
X122890000Y-125230000D01*
X122890000Y-125230000D02*
X122890000Y-126692500D01*
X122890000Y-126692500D02*
X122740000Y-126730000D01*
X122740000Y-126730000D02*
X122590000Y-126692500D01*
X122590000Y-126692500D02*
X122590000Y-125230000D01*
X122590000Y-125230000D02*
X122740000Y-125230000D01*
X123740000Y-121880000D02*
X123740000Y-121730000D01*
X123740000Y-121730000D02*
X122990000Y-121730000D01*
X122990000Y-121730000D02*
X122990000Y-121880000D01*
X123990000Y-121230000D02*
X124290000Y-120630000D01*
X124290000Y-120630000D02*
X123690000Y-120630000D01*
X123690000Y-120630000D02*
X123990000Y-121230000D01*
X127545000Y-121740000D02*
X127545000Y-122240000D01*
X128495000Y-122240000D02*
X128495000Y-121740000D01*
X135195000Y-121140000D02*
X135195000Y-121640000D01*
X136145000Y-121640000D02*
X136145000Y-121140000D01*
X150425000Y-118550000D02*
X150425000Y-119050000D01*
X151375000Y-119050000D02*
X151375000Y-118550000D01*
X146075000Y-121450000D02*
X146075000Y-120950000D01*
X145125000Y-120950000D02*
X145125000Y-121450000D01*
X139625000Y-121150000D02*
X139625000Y-121650000D01*
X140575000Y-121650000D02*
X140575000Y-121150000D01*
X140250000Y-119775000D02*
X140750000Y-119775000D01*
X140750000Y-118825000D02*
X140250000Y-118825000D01*
X129270000Y-116005000D02*
X129770000Y-116005000D01*
X129770000Y-115055000D02*
X129270000Y-115055000D01*
X133170000Y-126390000D02*
X135070000Y-126390000D01*
X133170000Y-125290000D02*
X135070000Y-125290000D01*
X134070000Y-125840000D02*
X134520000Y-125840000D01*
X134020000Y-125590000D02*
X134020000Y-126090000D01*
X134020000Y-125840000D02*
X134270000Y-125590000D01*
X134270000Y-125590000D02*
X134270000Y-126090000D01*
X134270000Y-126090000D02*
X134020000Y-125840000D01*
X132270000Y-125290000D02*
X130370000Y-125290000D01*
X132270000Y-126390000D02*
X130370000Y-126390000D01*
X131370000Y-125840000D02*
X130920000Y-125840000D01*
X131420000Y-126090000D02*
X131420000Y-125590000D01*
X131420000Y-125840000D02*
X131170000Y-126090000D01*
X131170000Y-126090000D02*
X131170000Y-125590000D01*
X131170000Y-125590000D02*
X131420000Y-125840000D01*
X135260000Y-124615000D02*
X134060000Y-124615000D01*
X134060000Y-122865000D02*
X135260000Y-122865000D01*
X148200000Y-120600000D02*
X148200000Y-122400000D01*
X148200000Y-122400000D02*
X148600000Y-122400000D01*
X148600000Y-122400000D02*
X148600000Y-120600000D01*
X148600000Y-120600000D02*
X148200000Y-120600000D01*
X148300000Y-118000000D02*
X148300000Y-119800000D01*
X148300000Y-119800000D02*
X148700000Y-119800000D01*
X148700000Y-119800000D02*
X148700000Y-118000000D01*
X148700000Y-118000000D02*
X148300000Y-118000000D01*
X126870000Y-118015000D02*
X126370000Y-118015000D01*
X126370000Y-119065000D02*
X126870000Y-119065000D01*
X129170000Y-119065000D02*
X129670000Y-119065000D01*
X129670000Y-118015000D02*
X129170000Y-118015000D01*
X136720000Y-126265000D02*
X137220000Y-126265000D01*
X137220000Y-125215000D02*
X136720000Y-125215000D01*
X128720000Y-125215000D02*
X128220000Y-125215000D01*
X128220000Y-126265000D02*
X128720000Y-126265000D01*
X142650000Y-119825000D02*
X143150000Y-119825000D01*
X143150000Y-118775000D02*
X142650000Y-118775000D01*
X187250000Y-119310000D02*
X187250000Y-126930000D01*
X189790000Y-119310000D02*
X189790000Y-126930000D01*
X190070000Y-116490000D02*
X190070000Y-118040000D01*
X187250000Y-126930000D02*
X189790000Y-126930000D01*
X189790000Y-119310000D02*
X187250000Y-119310000D01*
X186970000Y-118040000D02*
X186970000Y-116490000D01*
X186970000Y-116490000D02*
X190070000Y-116490000D01*
D10*
X131870000Y-123940000D02*
X131870000Y-124040000D01*
X131870000Y-124040000D02*
X131570000Y-124040000D01*
X131570000Y-124040000D02*
X131570000Y-123940000D01*
X131870000Y-123840000D02*
X131870000Y-123940000D01*
X131870000Y-123940000D02*
X131570000Y-123940000D01*
X131570000Y-123940000D02*
X131570000Y-123840000D01*
X131870000Y-120840000D02*
X129870000Y-120840000D01*
X131870000Y-123840000D02*
X129870000Y-123840000D01*
D14*
X150425000Y-121250000D02*
X150425000Y-121750000D01*
X151375000Y-121750000D02*
X151375000Y-121250000D01*
X143500000Y-121200000D02*
X141700000Y-121200000D01*
X141700000Y-121200000D02*
X141700000Y-121600000D01*
X141700000Y-121600000D02*
X143500000Y-121600000D01*
X143500000Y-121600000D02*
X143500000Y-121200000D01*
X144950000Y-119825000D02*
X145450000Y-119825000D01*
X145450000Y-118775000D02*
X144950000Y-118775000D01*
D15*
X154600207Y-99737113D02*
X155077673Y-99737113D01*
X154504713Y-100023593D02*
X154838940Y-99020913D01*
X155173167Y-100023593D01*
X155507393Y-99498380D02*
X155841620Y-99498380D01*
X155984860Y-100023593D02*
X155507393Y-100023593D01*
X155507393Y-99020913D01*
X155984860Y-99020913D01*
X156366834Y-99116407D02*
X156414580Y-99068660D01*
X156510074Y-99020913D01*
X156748807Y-99020913D01*
X156844300Y-99068660D01*
X156892047Y-99116407D01*
X156939794Y-99211900D01*
X156939794Y-99307393D01*
X156892047Y-99450633D01*
X156319087Y-100023593D01*
X156939794Y-100023593D01*
D14*
X164048095Y-104902381D02*
X164048095Y-105711905D01*
X164095714Y-105807143D01*
X164143333Y-105854762D01*
X164238571Y-105902381D01*
X164429048Y-105902381D01*
X164524286Y-105854762D01*
X164571905Y-105807143D01*
X164619524Y-105711905D01*
X164619524Y-104902381D01*
X165524286Y-105235714D02*
X165524286Y-105902381D01*
X165286190Y-104854762D02*
X165048095Y-105569048D01*
X165667143Y-105569048D01*
X126278571Y-125675714D02*
X126326190Y-125532857D01*
X126373810Y-125485238D01*
X126469048Y-125437619D01*
X126611905Y-125437619D01*
X126707143Y-125485238D01*
X126754762Y-125532857D01*
X126802381Y-125628095D01*
X126802381Y-126009048D01*
X125802381Y-126009048D01*
X125802381Y-125675714D01*
X125850000Y-125580476D01*
X125897619Y-125532857D01*
X125992857Y-125485238D01*
X126088095Y-125485238D01*
X126183333Y-125532857D01*
X126230952Y-125580476D01*
X126278571Y-125675714D01*
X126278571Y-126009048D01*
X125802381Y-125151905D02*
X125802381Y-124580476D01*
X126802381Y-124866191D02*
X125802381Y-124866191D01*
X126802381Y-123723333D02*
X126802381Y-124294762D01*
X126802381Y-124009048D02*
X125802381Y-124009048D01*
X125945238Y-124104286D01*
X126040476Y-124199524D01*
X126088095Y-124294762D01*
X127187143Y-122156666D02*
X127234762Y-122204285D01*
X127282381Y-122347142D01*
X127282381Y-122442380D01*
X127234762Y-122585238D01*
X127139524Y-122680476D01*
X127044286Y-122728095D01*
X126853810Y-122775714D01*
X126710952Y-122775714D01*
X126520476Y-122728095D01*
X126425238Y-122680476D01*
X126330000Y-122585238D01*
X126282381Y-122442380D01*
X126282381Y-122347142D01*
X126330000Y-122204285D01*
X126377619Y-122156666D01*
X127282381Y-121680476D02*
X127282381Y-121490000D01*
X127234762Y-121394761D01*
X127187143Y-121347142D01*
X127044286Y-121251904D01*
X126853810Y-121204285D01*
X126472857Y-121204285D01*
X126377619Y-121251904D01*
X126330000Y-121299523D01*
X126282381Y-121394761D01*
X126282381Y-121585238D01*
X126330000Y-121680476D01*
X126377619Y-121728095D01*
X126472857Y-121775714D01*
X126710952Y-121775714D01*
X126806190Y-121728095D01*
X126853810Y-121680476D01*
X126901429Y-121585238D01*
X126901429Y-121394761D01*
X126853810Y-121299523D01*
X126806190Y-121251904D01*
X126710952Y-121204285D01*
X134687143Y-121992857D02*
X134734762Y-122040476D01*
X134782381Y-122183333D01*
X134782381Y-122278571D01*
X134734762Y-122421429D01*
X134639524Y-122516667D01*
X134544286Y-122564286D01*
X134353810Y-122611905D01*
X134210952Y-122611905D01*
X134020476Y-122564286D01*
X133925238Y-122516667D01*
X133830000Y-122421429D01*
X133782381Y-122278571D01*
X133782381Y-122183333D01*
X133830000Y-122040476D01*
X133877619Y-121992857D01*
X134782381Y-121040476D02*
X134782381Y-121611905D01*
X134782381Y-121326191D02*
X133782381Y-121326191D01*
X133925238Y-121421429D01*
X134020476Y-121516667D01*
X134068095Y-121611905D01*
X133782381Y-120421429D02*
X133782381Y-120326190D01*
X133830000Y-120230952D01*
X133877619Y-120183333D01*
X133972857Y-120135714D01*
X134163333Y-120088095D01*
X134401429Y-120088095D01*
X134591905Y-120135714D01*
X134687143Y-120183333D01*
X134734762Y-120230952D01*
X134782381Y-120326190D01*
X134782381Y-120421429D01*
X134734762Y-120516667D01*
X134687143Y-120564286D01*
X134591905Y-120611905D01*
X134401429Y-120659524D01*
X134163333Y-120659524D01*
X133972857Y-120611905D01*
X133877619Y-120564286D01*
X133830000Y-120516667D01*
X133782381Y-120421429D01*
X150337143Y-117397143D02*
X150289524Y-117444762D01*
X150146667Y-117492381D01*
X150051429Y-117492381D01*
X149908571Y-117444762D01*
X149813333Y-117349524D01*
X149765714Y-117254286D01*
X149718095Y-117063810D01*
X149718095Y-116920952D01*
X149765714Y-116730476D01*
X149813333Y-116635238D01*
X149908571Y-116540000D01*
X150051429Y-116492381D01*
X150146667Y-116492381D01*
X150289524Y-116540000D01*
X150337143Y-116587619D01*
X151289524Y-117492381D02*
X150718095Y-117492381D01*
X151003809Y-117492381D02*
X151003809Y-116492381D01*
X150908571Y-116635238D01*
X150813333Y-116730476D01*
X150718095Y-116778095D01*
X151860952Y-116920952D02*
X151765714Y-116873333D01*
X151718095Y-116825714D01*
X151670476Y-116730476D01*
X151670476Y-116682857D01*
X151718095Y-116587619D01*
X151765714Y-116540000D01*
X151860952Y-116492381D01*
X152051429Y-116492381D01*
X152146667Y-116540000D01*
X152194286Y-116587619D01*
X152241905Y-116682857D01*
X152241905Y-116730476D01*
X152194286Y-116825714D01*
X152146667Y-116873333D01*
X152051429Y-116920952D01*
X151860952Y-116920952D01*
X151765714Y-116968571D01*
X151718095Y-117016190D01*
X151670476Y-117111429D01*
X151670476Y-117301905D01*
X151718095Y-117397143D01*
X151765714Y-117444762D01*
X151860952Y-117492381D01*
X152051429Y-117492381D01*
X152146667Y-117444762D01*
X152194286Y-117397143D01*
X152241905Y-117301905D01*
X152241905Y-117111429D01*
X152194286Y-117016190D01*
X152146667Y-116968571D01*
X152051429Y-116920952D01*
X147177143Y-121782857D02*
X147224762Y-121830476D01*
X147272381Y-121973333D01*
X147272381Y-122068571D01*
X147224762Y-122211429D01*
X147129524Y-122306667D01*
X147034286Y-122354286D01*
X146843810Y-122401905D01*
X146700952Y-122401905D01*
X146510476Y-122354286D01*
X146415238Y-122306667D01*
X146320000Y-122211429D01*
X146272381Y-122068571D01*
X146272381Y-121973333D01*
X146320000Y-121830476D01*
X146367619Y-121782857D01*
X147272381Y-120830476D02*
X147272381Y-121401905D01*
X147272381Y-121116191D02*
X146272381Y-121116191D01*
X146415238Y-121211429D01*
X146510476Y-121306667D01*
X146558095Y-121401905D01*
X147272381Y-120354286D02*
X147272381Y-120163810D01*
X147224762Y-120068571D01*
X147177143Y-120020952D01*
X147034286Y-119925714D01*
X146843810Y-119878095D01*
X146462857Y-119878095D01*
X146367619Y-119925714D01*
X146320000Y-119973333D01*
X146272381Y-120068571D01*
X146272381Y-120259048D01*
X146320000Y-120354286D01*
X146367619Y-120401905D01*
X146462857Y-120449524D01*
X146700952Y-120449524D01*
X146796190Y-120401905D01*
X146843810Y-120354286D01*
X146891429Y-120259048D01*
X146891429Y-120068571D01*
X146843810Y-119973333D01*
X146796190Y-119925714D01*
X146700952Y-119878095D01*
X139027143Y-121582857D02*
X139074762Y-121630476D01*
X139122381Y-121773333D01*
X139122381Y-121868571D01*
X139074762Y-122011429D01*
X138979524Y-122106667D01*
X138884286Y-122154286D01*
X138693810Y-122201905D01*
X138550952Y-122201905D01*
X138360476Y-122154286D01*
X138265238Y-122106667D01*
X138170000Y-122011429D01*
X138122381Y-121868571D01*
X138122381Y-121773333D01*
X138170000Y-121630476D01*
X138217619Y-121582857D01*
X138217619Y-121201905D02*
X138170000Y-121154286D01*
X138122381Y-121059048D01*
X138122381Y-120820952D01*
X138170000Y-120725714D01*
X138217619Y-120678095D01*
X138312857Y-120630476D01*
X138408095Y-120630476D01*
X138550952Y-120678095D01*
X139122381Y-121249524D01*
X139122381Y-120630476D01*
X138122381Y-120011429D02*
X138122381Y-119916190D01*
X138170000Y-119820952D01*
X138217619Y-119773333D01*
X138312857Y-119725714D01*
X138503333Y-119678095D01*
X138741429Y-119678095D01*
X138931905Y-119725714D01*
X139027143Y-119773333D01*
X139074762Y-119820952D01*
X139122381Y-119916190D01*
X139122381Y-120011429D01*
X139074762Y-120106667D01*
X139027143Y-120154286D01*
X138931905Y-120201905D01*
X138741429Y-120249524D01*
X138503333Y-120249524D01*
X138312857Y-120201905D01*
X138217619Y-120154286D01*
X138170000Y-120106667D01*
X138122381Y-120011429D01*
X139187143Y-118227143D02*
X139139524Y-118274762D01*
X138996667Y-118322381D01*
X138901429Y-118322381D01*
X138758571Y-118274762D01*
X138663333Y-118179524D01*
X138615714Y-118084286D01*
X138568095Y-117893810D01*
X138568095Y-117750952D01*
X138615714Y-117560476D01*
X138663333Y-117465238D01*
X138758571Y-117370000D01*
X138901429Y-117322381D01*
X138996667Y-117322381D01*
X139139524Y-117370000D01*
X139187143Y-117417619D01*
X139568095Y-117417619D02*
X139615714Y-117370000D01*
X139710952Y-117322381D01*
X139949048Y-117322381D01*
X140044286Y-117370000D01*
X140091905Y-117417619D01*
X140139524Y-117512857D01*
X140139524Y-117608095D01*
X140091905Y-117750952D01*
X139520476Y-118322381D01*
X140139524Y-118322381D01*
X141091905Y-118322381D02*
X140520476Y-118322381D01*
X140806190Y-118322381D02*
X140806190Y-117322381D01*
X140710952Y-117465238D01*
X140615714Y-117560476D01*
X140520476Y-117608095D01*
X128787143Y-114497143D02*
X128739524Y-114544762D01*
X128596667Y-114592381D01*
X128501429Y-114592381D01*
X128358571Y-114544762D01*
X128263333Y-114449524D01*
X128215714Y-114354286D01*
X128168095Y-114163810D01*
X128168095Y-114020952D01*
X128215714Y-113830476D01*
X128263333Y-113735238D01*
X128358571Y-113640000D01*
X128501429Y-113592381D01*
X128596667Y-113592381D01*
X128739524Y-113640000D01*
X128787143Y-113687619D01*
X129168095Y-113687619D02*
X129215714Y-113640000D01*
X129310952Y-113592381D01*
X129549048Y-113592381D01*
X129644286Y-113640000D01*
X129691905Y-113687619D01*
X129739524Y-113782857D01*
X129739524Y-113878095D01*
X129691905Y-114020952D01*
X129120476Y-114592381D01*
X129739524Y-114592381D01*
X130120476Y-113687619D02*
X130168095Y-113640000D01*
X130263333Y-113592381D01*
X130501429Y-113592381D01*
X130596667Y-113640000D01*
X130644286Y-113687619D01*
X130691905Y-113782857D01*
X130691905Y-113878095D01*
X130644286Y-114020952D01*
X130072857Y-114592381D01*
X130691905Y-114592381D01*
X133611905Y-127732381D02*
X133611905Y-126732381D01*
X133850000Y-126732381D01*
X133992858Y-126780000D01*
X134088096Y-126875238D01*
X134135715Y-126970476D01*
X134183334Y-127160952D01*
X134183334Y-127303810D01*
X134135715Y-127494286D01*
X134088096Y-127589524D01*
X133992858Y-127684762D01*
X133850000Y-127732381D01*
X133611905Y-127732381D01*
X135135715Y-127732381D02*
X134564286Y-127732381D01*
X134850000Y-127732381D02*
X134850000Y-126732381D01*
X134754762Y-126875238D01*
X134659524Y-126970476D01*
X134564286Y-127018095D01*
X130571905Y-127722381D02*
X130571905Y-126722381D01*
X130810000Y-126722381D01*
X130952858Y-126770000D01*
X131048096Y-126865238D01*
X131095715Y-126960476D01*
X131143334Y-127150952D01*
X131143334Y-127293810D01*
X131095715Y-127484286D01*
X131048096Y-127579524D01*
X130952858Y-127674762D01*
X130810000Y-127722381D01*
X130571905Y-127722381D01*
X131524286Y-126817619D02*
X131571905Y-126770000D01*
X131667143Y-126722381D01*
X131905239Y-126722381D01*
X132000477Y-126770000D01*
X132048096Y-126817619D01*
X132095715Y-126912857D01*
X132095715Y-127008095D01*
X132048096Y-127150952D01*
X131476667Y-127722381D01*
X132095715Y-127722381D01*
X137752381Y-123746666D02*
X137752381Y-124222857D01*
X136752381Y-124222857D01*
X137752381Y-122889523D02*
X137752381Y-123460952D01*
X137752381Y-123175238D02*
X136752381Y-123175238D01*
X136895238Y-123270476D01*
X136990476Y-123365714D01*
X137038095Y-123460952D01*
X148403810Y-123758095D02*
X148327619Y-123720000D01*
X148251429Y-123643810D01*
X148137143Y-123529524D01*
X148060952Y-123491429D01*
X147984762Y-123491429D01*
X148022857Y-123681905D02*
X147946667Y-123643810D01*
X147870476Y-123567619D01*
X147832381Y-123415238D01*
X147832381Y-123148571D01*
X147870476Y-122996190D01*
X147946667Y-122920000D01*
X148022857Y-122881905D01*
X148175238Y-122881905D01*
X148251429Y-122920000D01*
X148327619Y-122996190D01*
X148365714Y-123148571D01*
X148365714Y-123415238D01*
X148327619Y-123567619D01*
X148251429Y-123643810D01*
X148175238Y-123681905D01*
X148022857Y-123681905D01*
X149127619Y-123681905D02*
X148670476Y-123681905D01*
X148899047Y-123681905D02*
X148899047Y-122881905D01*
X148822857Y-122996190D01*
X148746666Y-123072381D01*
X148670476Y-123110476D01*
X148453810Y-117568095D02*
X148377619Y-117530000D01*
X148301429Y-117453810D01*
X148187143Y-117339524D01*
X148110952Y-117301429D01*
X148034762Y-117301429D01*
X148072857Y-117491905D02*
X147996667Y-117453810D01*
X147920476Y-117377619D01*
X147882381Y-117225238D01*
X147882381Y-116958571D01*
X147920476Y-116806190D01*
X147996667Y-116730000D01*
X148072857Y-116691905D01*
X148225238Y-116691905D01*
X148301429Y-116730000D01*
X148377619Y-116806190D01*
X148415714Y-116958571D01*
X148415714Y-117225238D01*
X148377619Y-117377619D01*
X148301429Y-117453810D01*
X148225238Y-117491905D01*
X148072857Y-117491905D01*
X148720476Y-116768095D02*
X148758571Y-116730000D01*
X148834762Y-116691905D01*
X149025238Y-116691905D01*
X149101428Y-116730000D01*
X149139524Y-116768095D01*
X149177619Y-116844286D01*
X149177619Y-116920476D01*
X149139524Y-117034762D01*
X148682381Y-117491905D01*
X149177619Y-117491905D01*
X126513334Y-117562381D02*
X126180000Y-117086190D01*
X125941905Y-117562381D02*
X125941905Y-116562381D01*
X126322858Y-116562381D01*
X126418096Y-116610000D01*
X126465715Y-116657619D01*
X126513334Y-116752857D01*
X126513334Y-116895714D01*
X126465715Y-116990952D01*
X126418096Y-117038571D01*
X126322858Y-117086190D01*
X125941905Y-117086190D01*
X127465715Y-117562381D02*
X126894286Y-117562381D01*
X127180000Y-117562381D02*
X127180000Y-116562381D01*
X127084762Y-116705238D01*
X126989524Y-116800476D01*
X126894286Y-116848095D01*
X129243334Y-117582381D02*
X128910000Y-117106190D01*
X128671905Y-117582381D02*
X128671905Y-116582381D01*
X129052858Y-116582381D01*
X129148096Y-116630000D01*
X129195715Y-116677619D01*
X129243334Y-116772857D01*
X129243334Y-116915714D01*
X129195715Y-117010952D01*
X129148096Y-117058571D01*
X129052858Y-117106190D01*
X128671905Y-117106190D01*
X129624286Y-116677619D02*
X129671905Y-116630000D01*
X129767143Y-116582381D01*
X130005239Y-116582381D01*
X130100477Y-116630000D01*
X130148096Y-116677619D01*
X130195715Y-116772857D01*
X130195715Y-116868095D01*
X130148096Y-117010952D01*
X129576667Y-117582381D01*
X130195715Y-117582381D01*
X136853334Y-127692381D02*
X136520000Y-127216190D01*
X136281905Y-127692381D02*
X136281905Y-126692381D01*
X136662858Y-126692381D01*
X136758096Y-126740000D01*
X136805715Y-126787619D01*
X136853334Y-126882857D01*
X136853334Y-127025714D01*
X136805715Y-127120952D01*
X136758096Y-127168571D01*
X136662858Y-127216190D01*
X136281905Y-127216190D01*
X137758096Y-126692381D02*
X137281905Y-126692381D01*
X137234286Y-127168571D01*
X137281905Y-127120952D01*
X137377143Y-127073333D01*
X137615239Y-127073333D01*
X137710477Y-127120952D01*
X137758096Y-127168571D01*
X137805715Y-127263810D01*
X137805715Y-127501905D01*
X137758096Y-127597143D01*
X137710477Y-127644762D01*
X137615239Y-127692381D01*
X137377143Y-127692381D01*
X137281905Y-127644762D01*
X137234286Y-127597143D01*
X128293334Y-127722381D02*
X127960000Y-127246190D01*
X127721905Y-127722381D02*
X127721905Y-126722381D01*
X128102858Y-126722381D01*
X128198096Y-126770000D01*
X128245715Y-126817619D01*
X128293334Y-126912857D01*
X128293334Y-127055714D01*
X128245715Y-127150952D01*
X128198096Y-127198571D01*
X128102858Y-127246190D01*
X127721905Y-127246190D01*
X129150477Y-126722381D02*
X128960000Y-126722381D01*
X128864762Y-126770000D01*
X128817143Y-126817619D01*
X128721905Y-126960476D01*
X128674286Y-127150952D01*
X128674286Y-127531905D01*
X128721905Y-127627143D01*
X128769524Y-127674762D01*
X128864762Y-127722381D01*
X129055239Y-127722381D01*
X129150477Y-127674762D01*
X129198096Y-127627143D01*
X129245715Y-127531905D01*
X129245715Y-127293810D01*
X129198096Y-127198571D01*
X129150477Y-127150952D01*
X129055239Y-127103333D01*
X128864762Y-127103333D01*
X128769524Y-127150952D01*
X128721905Y-127198571D01*
X128674286Y-127293810D01*
X142137143Y-118282381D02*
X141803809Y-117806190D01*
X141565714Y-118282381D02*
X141565714Y-117282381D01*
X141946667Y-117282381D01*
X142041905Y-117330000D01*
X142089524Y-117377619D01*
X142137143Y-117472857D01*
X142137143Y-117615714D01*
X142089524Y-117710952D01*
X142041905Y-117758571D01*
X141946667Y-117806190D01*
X141565714Y-117806190D01*
X143089524Y-118282381D02*
X142518095Y-118282381D01*
X142803809Y-118282381D02*
X142803809Y-117282381D01*
X142708571Y-117425238D01*
X142613333Y-117520476D01*
X142518095Y-117568095D01*
X143470476Y-117377619D02*
X143518095Y-117330000D01*
X143613333Y-117282381D01*
X143851429Y-117282381D01*
X143946667Y-117330000D01*
X143994286Y-117377619D01*
X144041905Y-117472857D01*
X144041905Y-117568095D01*
X143994286Y-117710952D01*
X143422857Y-118282381D01*
X144041905Y-118282381D01*
X186681905Y-116072381D02*
X186681905Y-115072381D01*
X187062858Y-115072381D01*
X187158096Y-115120000D01*
X187205715Y-115167619D01*
X187253334Y-115262857D01*
X187253334Y-115405714D01*
X187205715Y-115500952D01*
X187158096Y-115548571D01*
X187062858Y-115596190D01*
X186681905Y-115596190D01*
X188205715Y-116072381D02*
X187634286Y-116072381D01*
X187920000Y-116072381D02*
X187920000Y-115072381D01*
X187824762Y-115215238D01*
X187729524Y-115310476D01*
X187634286Y-115358095D01*
X130168095Y-119482381D02*
X130168095Y-120291905D01*
X130215714Y-120387143D01*
X130263333Y-120434762D01*
X130358571Y-120482381D01*
X130549048Y-120482381D01*
X130644286Y-120434762D01*
X130691905Y-120387143D01*
X130739524Y-120291905D01*
X130739524Y-119482381D01*
X131739524Y-120482381D02*
X131168095Y-120482381D01*
X131453809Y-120482381D02*
X131453809Y-119482381D01*
X131358571Y-119625238D01*
X131263333Y-119720476D01*
X131168095Y-119768095D01*
X150677143Y-123727143D02*
X150629524Y-123774762D01*
X150486667Y-123822381D01*
X150391429Y-123822381D01*
X150248571Y-123774762D01*
X150153333Y-123679524D01*
X150105714Y-123584286D01*
X150058095Y-123393810D01*
X150058095Y-123250952D01*
X150105714Y-123060476D01*
X150153333Y-122965238D01*
X150248571Y-122870000D01*
X150391429Y-122822381D01*
X150486667Y-122822381D01*
X150629524Y-122870000D01*
X150677143Y-122917619D01*
X151058095Y-122917619D02*
X151105714Y-122870000D01*
X151200952Y-122822381D01*
X151439048Y-122822381D01*
X151534286Y-122870000D01*
X151581905Y-122917619D01*
X151629524Y-123012857D01*
X151629524Y-123108095D01*
X151581905Y-123250952D01*
X151010476Y-123822381D01*
X151629524Y-123822381D01*
X151962857Y-122822381D02*
X152629524Y-122822381D01*
X152200952Y-123822381D01*
X144848095Y-121576190D02*
X144810000Y-121652381D01*
X144733810Y-121728571D01*
X144619524Y-121842857D01*
X144581429Y-121919048D01*
X144581429Y-121995238D01*
X144771905Y-121957143D02*
X144733810Y-122033333D01*
X144657619Y-122109524D01*
X144505238Y-122147619D01*
X144238571Y-122147619D01*
X144086190Y-122109524D01*
X144010000Y-122033333D01*
X143971905Y-121957143D01*
X143971905Y-121804762D01*
X144010000Y-121728571D01*
X144086190Y-121652381D01*
X144238571Y-121614286D01*
X144505238Y-121614286D01*
X144657619Y-121652381D01*
X144733810Y-121728571D01*
X144771905Y-121804762D01*
X144771905Y-121957143D01*
X143971905Y-121347619D02*
X143971905Y-120852381D01*
X144276667Y-121119048D01*
X144276667Y-121004762D01*
X144314762Y-120928572D01*
X144352857Y-120890476D01*
X144429048Y-120852381D01*
X144619524Y-120852381D01*
X144695714Y-120890476D01*
X144733810Y-120928572D01*
X144771905Y-121004762D01*
X144771905Y-121233334D01*
X144733810Y-121309524D01*
X144695714Y-121347619D01*
X145097143Y-118332381D02*
X144763809Y-117856190D01*
X144525714Y-118332381D02*
X144525714Y-117332381D01*
X144906667Y-117332381D01*
X145001905Y-117380000D01*
X145049524Y-117427619D01*
X145097143Y-117522857D01*
X145097143Y-117665714D01*
X145049524Y-117760952D01*
X145001905Y-117808571D01*
X144906667Y-117856190D01*
X144525714Y-117856190D01*
X146049524Y-118332381D02*
X145478095Y-118332381D01*
X145763809Y-118332381D02*
X145763809Y-117332381D01*
X145668571Y-117475238D01*
X145573333Y-117570476D01*
X145478095Y-117618095D01*
X147001905Y-118332381D02*
X146430476Y-118332381D01*
X146716190Y-118332381D02*
X146716190Y-117332381D01*
X146620952Y-117475238D01*
X146525714Y-117570476D01*
X146430476Y-117618095D01*
M02*
