G04 #@! TF.FileFunction,Legend,Bot*
%FSLAX46Y46*%
G04 Gerber Fmt 4.6, Leading zero omitted, Abs format (unit mm)*
G04 Created by KiCad (PCBNEW 4.0.5+dfsg1-4) date Tue Oct  2 15:16:33 2018*
%MOMM*%
%LPD*%
G01*
G04 APERTURE LIST*
%ADD10C,0.100000*%
%ADD11C,0.300000*%
%ADD12C,0.200000*%
%ADD13C,0.127000*%
%ADD14C,0.150000*%
%ADD15C,0.120000*%
%ADD16C,0.050000*%
G04 APERTURE END LIST*
D10*
D11*
X154046023Y-113310000D02*
G75*
G03X154046023Y-113310000I-86023J0D01*
G01*
D12*
X153271327Y-117900000D02*
G75*
G03X153271327Y-117900000I-151327J0D01*
G01*
D11*
X150944008Y-126570000D02*
G75*
G03X150944008Y-126570000I-264008J0D01*
G01*
D12*
X166540000Y-121740000D02*
G75*
G03X166540000Y-121740000I-120000J0D01*
G01*
D13*
X140600000Y-105700000D02*
X143200000Y-105700000D01*
D14*
X153875000Y-117425000D02*
X153875000Y-117325000D01*
X158525000Y-117425000D02*
X158525000Y-117225000D01*
X158525000Y-114175000D02*
X158525000Y-114375000D01*
X153875000Y-114175000D02*
X153875000Y-114375000D01*
X153875000Y-117425000D02*
X158525000Y-117425000D01*
X153875000Y-114175000D02*
X158525000Y-114175000D01*
X153875000Y-117325000D02*
X152525000Y-117325000D01*
D12*
X139880000Y-116900000D02*
X139880000Y-116500000D01*
X139880000Y-116500000D02*
X139530000Y-116500000D01*
X139530000Y-116500000D02*
X139530000Y-116800000D01*
X139530000Y-116800000D02*
X139730000Y-116800000D01*
X139730000Y-116800000D02*
X139730000Y-116600000D01*
X139730000Y-116600000D02*
X139630000Y-116600000D01*
X140030000Y-116350000D02*
X139380000Y-116350000D01*
X139380000Y-116350000D02*
X139380000Y-116950000D01*
X139380000Y-116950000D02*
X140030000Y-116950000D01*
X150130000Y-126050000D02*
X150130000Y-116350000D01*
X140030000Y-124400000D02*
X140030000Y-116350000D01*
X140030000Y-126050000D02*
X140030000Y-124400000D01*
D14*
X166350000Y-112275000D02*
X165850000Y-112275000D01*
X165850000Y-111325000D02*
X166350000Y-111325000D01*
X162050000Y-122025000D02*
X162550000Y-122025000D01*
X162550000Y-122975000D02*
X162050000Y-122975000D01*
X171750000Y-116375000D02*
X171250000Y-116375000D01*
X171250000Y-115425000D02*
X171750000Y-115425000D01*
X171750000Y-114975000D02*
X171250000Y-114975000D01*
X171250000Y-114025000D02*
X171750000Y-114025000D01*
X169150000Y-114975000D02*
X168650000Y-114975000D01*
X168650000Y-114025000D02*
X169150000Y-114025000D01*
X169150000Y-116375000D02*
X168650000Y-116375000D01*
X168650000Y-115425000D02*
X169150000Y-115425000D01*
X167950000Y-108425000D02*
X168450000Y-108425000D01*
X168450000Y-109375000D02*
X167950000Y-109375000D01*
X170550000Y-108425000D02*
X171050000Y-108425000D01*
X171050000Y-109375000D02*
X170550000Y-109375000D01*
X152150000Y-111025000D02*
X152650000Y-111025000D01*
X152650000Y-111975000D02*
X152150000Y-111975000D01*
X158650000Y-111025000D02*
X159150000Y-111025000D01*
X159150000Y-111975000D02*
X158650000Y-111975000D01*
X158650000Y-109525000D02*
X159150000Y-109525000D01*
X159150000Y-110475000D02*
X158650000Y-110475000D01*
X152150000Y-109525000D02*
X152650000Y-109525000D01*
X152650000Y-110475000D02*
X152150000Y-110475000D01*
X159450000Y-122075000D02*
X159950000Y-122075000D01*
X159950000Y-123125000D02*
X159450000Y-123125000D01*
X158950000Y-112675000D02*
X159450000Y-112675000D01*
X159450000Y-113725000D02*
X158950000Y-113725000D01*
X152850000Y-113625000D02*
X152350000Y-113625000D01*
X152350000Y-112575000D02*
X152850000Y-112575000D01*
X132000000Y-125450000D02*
X134800000Y-125450000D01*
X134800000Y-125450000D02*
X134800000Y-124050000D01*
X134800000Y-124050000D02*
X132000000Y-124050000D01*
X132000000Y-124050000D02*
X132000000Y-125450000D01*
X136400000Y-126500000D02*
X136400000Y-125850000D01*
X136400000Y-123000000D02*
X136400000Y-123650000D01*
X130400000Y-123650000D02*
X130400000Y-123000000D01*
X130400000Y-126500000D02*
X130400000Y-125850000D01*
X136400000Y-126500000D02*
X130400000Y-126500000D01*
X130400000Y-123000000D02*
X136400000Y-123000000D01*
X166625000Y-115875000D02*
X166100000Y-115875000D01*
X161375000Y-121125000D02*
X161900000Y-121125000D01*
X161375000Y-115875000D02*
X161900000Y-115875000D01*
X166625000Y-121125000D02*
X166625000Y-120600000D01*
X161375000Y-121125000D02*
X161375000Y-120600000D01*
X161375000Y-115875000D02*
X161375000Y-116400000D01*
X166625000Y-115875000D02*
X166625000Y-116400000D01*
D15*
X156700000Y-113250000D02*
X154500000Y-113250000D01*
X156500000Y-110950000D02*
X154900000Y-110950000D01*
D14*
X169200000Y-110300000D02*
X170200000Y-110300000D01*
X169200000Y-112100000D02*
X170200000Y-112100000D01*
X166350000Y-110875000D02*
X165850000Y-110875000D01*
X165850000Y-109925000D02*
X166350000Y-109925000D01*
X169150000Y-117775000D02*
X168650000Y-117775000D01*
X168650000Y-116825000D02*
X169150000Y-116825000D01*
X142090000Y-112225000D02*
X142590000Y-112225000D01*
X142590000Y-113175000D02*
X142090000Y-113175000D01*
X144575000Y-114600000D02*
X144575000Y-114100000D01*
X145625000Y-114100000D02*
X145625000Y-114600000D01*
X141255000Y-114590000D02*
X141255000Y-114090000D01*
X142305000Y-114090000D02*
X142305000Y-114590000D01*
X141325000Y-111300000D02*
X141325000Y-110800000D01*
X142375000Y-110800000D02*
X142375000Y-111300000D01*
D16*
X143219793Y-103667113D02*
X142742327Y-103667113D01*
X143315287Y-103953593D02*
X142981060Y-102950913D01*
X142646833Y-103953593D01*
X142312607Y-103428380D02*
X141978380Y-103428380D01*
X141835140Y-103953593D02*
X142312607Y-103953593D01*
X142312607Y-102950913D01*
X141835140Y-102950913D01*
X141500913Y-102950913D02*
X140880206Y-102950913D01*
X141214433Y-103332887D01*
X141071193Y-103332887D01*
X140975700Y-103380633D01*
X140927953Y-103428380D01*
X140880206Y-103523873D01*
X140880206Y-103762607D01*
X140927953Y-103858100D01*
X140975700Y-103905847D01*
X141071193Y-103953593D01*
X141357673Y-103953593D01*
X141453166Y-103905847D01*
X141500913Y-103858100D01*
D14*
X157176190Y-118802381D02*
X157176190Y-117802381D01*
X156128571Y-118707143D02*
X156176190Y-118754762D01*
X156319047Y-118802381D01*
X156414285Y-118802381D01*
X156557143Y-118754762D01*
X156652381Y-118659524D01*
X156700000Y-118564286D01*
X156747619Y-118373810D01*
X156747619Y-118230952D01*
X156700000Y-118040476D01*
X156652381Y-117945238D01*
X156557143Y-117850000D01*
X156414285Y-117802381D01*
X156319047Y-117802381D01*
X156176190Y-117850000D01*
X156128571Y-117897619D01*
X155176190Y-118802381D02*
X155747619Y-118802381D01*
X155461905Y-118802381D02*
X155461905Y-117802381D01*
X155557143Y-117945238D01*
X155652381Y-118040476D01*
X155747619Y-118088095D01*
X138802381Y-123518095D02*
X139611905Y-123518095D01*
X139707143Y-123565714D01*
X139754762Y-123613333D01*
X139802381Y-123708571D01*
X139802381Y-123899048D01*
X139754762Y-123994286D01*
X139707143Y-124041905D01*
X139611905Y-124089524D01*
X138802381Y-124089524D01*
X138802381Y-125041905D02*
X138802381Y-124565714D01*
X139278571Y-124518095D01*
X139230952Y-124565714D01*
X139183333Y-124660952D01*
X139183333Y-124899048D01*
X139230952Y-124994286D01*
X139278571Y-125041905D01*
X139373810Y-125089524D01*
X139611905Y-125089524D01*
X139707143Y-125041905D01*
X139754762Y-124994286D01*
X139802381Y-124899048D01*
X139802381Y-124660952D01*
X139754762Y-124565714D01*
X139707143Y-124518095D01*
X166296666Y-113567143D02*
X166344285Y-113614762D01*
X166487142Y-113662381D01*
X166582380Y-113662381D01*
X166725238Y-113614762D01*
X166820476Y-113519524D01*
X166868095Y-113424286D01*
X166915714Y-113233810D01*
X166915714Y-113090952D01*
X166868095Y-112900476D01*
X166820476Y-112805238D01*
X166725238Y-112710000D01*
X166582380Y-112662381D01*
X166487142Y-112662381D01*
X166344285Y-112710000D01*
X166296666Y-112757619D01*
X165344285Y-113662381D02*
X165915714Y-113662381D01*
X165630000Y-113662381D02*
X165630000Y-112662381D01*
X165725238Y-112805238D01*
X165820476Y-112900476D01*
X165915714Y-112948095D01*
X164616666Y-122737143D02*
X164664285Y-122784762D01*
X164807142Y-122832381D01*
X164902380Y-122832381D01*
X165045238Y-122784762D01*
X165140476Y-122689524D01*
X165188095Y-122594286D01*
X165235714Y-122403810D01*
X165235714Y-122260952D01*
X165188095Y-122070476D01*
X165140476Y-121975238D01*
X165045238Y-121880000D01*
X164902380Y-121832381D01*
X164807142Y-121832381D01*
X164664285Y-121880000D01*
X164616666Y-121927619D01*
X164235714Y-121927619D02*
X164188095Y-121880000D01*
X164092857Y-121832381D01*
X163854761Y-121832381D01*
X163759523Y-121880000D01*
X163711904Y-121927619D01*
X163664285Y-122022857D01*
X163664285Y-122118095D01*
X163711904Y-122260952D01*
X164283333Y-122832381D01*
X163664285Y-122832381D01*
X174017143Y-116463334D02*
X174064762Y-116415715D01*
X174112381Y-116272858D01*
X174112381Y-116177620D01*
X174064762Y-116034762D01*
X173969524Y-115939524D01*
X173874286Y-115891905D01*
X173683810Y-115844286D01*
X173540952Y-115844286D01*
X173350476Y-115891905D01*
X173255238Y-115939524D01*
X173160000Y-116034762D01*
X173112381Y-116177620D01*
X173112381Y-116272858D01*
X173160000Y-116415715D01*
X173207619Y-116463334D01*
X173112381Y-116796667D02*
X173112381Y-117415715D01*
X173493333Y-117082381D01*
X173493333Y-117225239D01*
X173540952Y-117320477D01*
X173588571Y-117368096D01*
X173683810Y-117415715D01*
X173921905Y-117415715D01*
X174017143Y-117368096D01*
X174064762Y-117320477D01*
X174112381Y-117225239D01*
X174112381Y-116939524D01*
X174064762Y-116844286D01*
X174017143Y-116796667D01*
X173927143Y-114273334D02*
X173974762Y-114225715D01*
X174022381Y-114082858D01*
X174022381Y-113987620D01*
X173974762Y-113844762D01*
X173879524Y-113749524D01*
X173784286Y-113701905D01*
X173593810Y-113654286D01*
X173450952Y-113654286D01*
X173260476Y-113701905D01*
X173165238Y-113749524D01*
X173070000Y-113844762D01*
X173022381Y-113987620D01*
X173022381Y-114082858D01*
X173070000Y-114225715D01*
X173117619Y-114273334D01*
X173022381Y-115130477D02*
X173022381Y-114940000D01*
X173070000Y-114844762D01*
X173117619Y-114797143D01*
X173260476Y-114701905D01*
X173450952Y-114654286D01*
X173831905Y-114654286D01*
X173927143Y-114701905D01*
X173974762Y-114749524D01*
X174022381Y-114844762D01*
X174022381Y-115035239D01*
X173974762Y-115130477D01*
X173927143Y-115178096D01*
X173831905Y-115225715D01*
X173593810Y-115225715D01*
X173498571Y-115178096D01*
X173450952Y-115130477D01*
X173403333Y-115035239D01*
X173403333Y-114844762D01*
X173450952Y-114749524D01*
X173498571Y-114701905D01*
X173593810Y-114654286D01*
X169926666Y-119097143D02*
X169974285Y-119144762D01*
X170117142Y-119192381D01*
X170212380Y-119192381D01*
X170355238Y-119144762D01*
X170450476Y-119049524D01*
X170498095Y-118954286D01*
X170545714Y-118763810D01*
X170545714Y-118620952D01*
X170498095Y-118430476D01*
X170450476Y-118335238D01*
X170355238Y-118240000D01*
X170212380Y-118192381D01*
X170117142Y-118192381D01*
X169974285Y-118240000D01*
X169926666Y-118287619D01*
X169593333Y-118192381D02*
X168926666Y-118192381D01*
X169355238Y-119192381D01*
X169886666Y-120447143D02*
X169934285Y-120494762D01*
X170077142Y-120542381D01*
X170172380Y-120542381D01*
X170315238Y-120494762D01*
X170410476Y-120399524D01*
X170458095Y-120304286D01*
X170505714Y-120113810D01*
X170505714Y-119970952D01*
X170458095Y-119780476D01*
X170410476Y-119685238D01*
X170315238Y-119590000D01*
X170172380Y-119542381D01*
X170077142Y-119542381D01*
X169934285Y-119590000D01*
X169886666Y-119637619D01*
X169315238Y-119970952D02*
X169410476Y-119923333D01*
X169458095Y-119875714D01*
X169505714Y-119780476D01*
X169505714Y-119732857D01*
X169458095Y-119637619D01*
X169410476Y-119590000D01*
X169315238Y-119542381D01*
X169124761Y-119542381D01*
X169029523Y-119590000D01*
X168981904Y-119637619D01*
X168934285Y-119732857D01*
X168934285Y-119780476D01*
X168981904Y-119875714D01*
X169029523Y-119923333D01*
X169124761Y-119970952D01*
X169315238Y-119970952D01*
X169410476Y-120018571D01*
X169458095Y-120066190D01*
X169505714Y-120161429D01*
X169505714Y-120351905D01*
X169458095Y-120447143D01*
X169410476Y-120494762D01*
X169315238Y-120542381D01*
X169124761Y-120542381D01*
X169029523Y-120494762D01*
X168981904Y-120447143D01*
X168934285Y-120351905D01*
X168934285Y-120161429D01*
X168981904Y-120066190D01*
X169029523Y-120018571D01*
X169124761Y-119970952D01*
X168892857Y-107757143D02*
X168940476Y-107804762D01*
X169083333Y-107852381D01*
X169178571Y-107852381D01*
X169321429Y-107804762D01*
X169416667Y-107709524D01*
X169464286Y-107614286D01*
X169511905Y-107423810D01*
X169511905Y-107280952D01*
X169464286Y-107090476D01*
X169416667Y-106995238D01*
X169321429Y-106900000D01*
X169178571Y-106852381D01*
X169083333Y-106852381D01*
X168940476Y-106900000D01*
X168892857Y-106947619D01*
X167940476Y-107852381D02*
X168511905Y-107852381D01*
X168226191Y-107852381D02*
X168226191Y-106852381D01*
X168321429Y-106995238D01*
X168416667Y-107090476D01*
X168511905Y-107138095D01*
X166988095Y-107852381D02*
X167559524Y-107852381D01*
X167273810Y-107852381D02*
X167273810Y-106852381D01*
X167369048Y-106995238D01*
X167464286Y-107090476D01*
X167559524Y-107138095D01*
X171952857Y-107737143D02*
X172000476Y-107784762D01*
X172143333Y-107832381D01*
X172238571Y-107832381D01*
X172381429Y-107784762D01*
X172476667Y-107689524D01*
X172524286Y-107594286D01*
X172571905Y-107403810D01*
X172571905Y-107260952D01*
X172524286Y-107070476D01*
X172476667Y-106975238D01*
X172381429Y-106880000D01*
X172238571Y-106832381D01*
X172143333Y-106832381D01*
X172000476Y-106880000D01*
X171952857Y-106927619D01*
X171000476Y-107832381D02*
X171571905Y-107832381D01*
X171286191Y-107832381D02*
X171286191Y-106832381D01*
X171381429Y-106975238D01*
X171476667Y-107070476D01*
X171571905Y-107118095D01*
X170619524Y-106927619D02*
X170571905Y-106880000D01*
X170476667Y-106832381D01*
X170238571Y-106832381D01*
X170143333Y-106880000D01*
X170095714Y-106927619D01*
X170048095Y-107022857D01*
X170048095Y-107118095D01*
X170095714Y-107260952D01*
X170667143Y-107832381D01*
X170048095Y-107832381D01*
X150402857Y-108567143D02*
X150450476Y-108614762D01*
X150593333Y-108662381D01*
X150688571Y-108662381D01*
X150831429Y-108614762D01*
X150926667Y-108519524D01*
X150974286Y-108424286D01*
X151021905Y-108233810D01*
X151021905Y-108090952D01*
X150974286Y-107900476D01*
X150926667Y-107805238D01*
X150831429Y-107710000D01*
X150688571Y-107662381D01*
X150593333Y-107662381D01*
X150450476Y-107710000D01*
X150402857Y-107757619D01*
X150021905Y-107757619D02*
X149974286Y-107710000D01*
X149879048Y-107662381D01*
X149640952Y-107662381D01*
X149545714Y-107710000D01*
X149498095Y-107757619D01*
X149450476Y-107852857D01*
X149450476Y-107948095D01*
X149498095Y-108090952D01*
X150069524Y-108662381D01*
X149450476Y-108662381D01*
X149117143Y-107662381D02*
X148498095Y-107662381D01*
X148831429Y-108043333D01*
X148688571Y-108043333D01*
X148593333Y-108090952D01*
X148545714Y-108138571D01*
X148498095Y-108233810D01*
X148498095Y-108471905D01*
X148545714Y-108567143D01*
X148593333Y-108614762D01*
X148688571Y-108662381D01*
X148974286Y-108662381D01*
X149069524Y-108614762D01*
X149117143Y-108567143D01*
X162642857Y-108347143D02*
X162690476Y-108394762D01*
X162833333Y-108442381D01*
X162928571Y-108442381D01*
X163071429Y-108394762D01*
X163166667Y-108299524D01*
X163214286Y-108204286D01*
X163261905Y-108013810D01*
X163261905Y-107870952D01*
X163214286Y-107680476D01*
X163166667Y-107585238D01*
X163071429Y-107490000D01*
X162928571Y-107442381D01*
X162833333Y-107442381D01*
X162690476Y-107490000D01*
X162642857Y-107537619D01*
X162261905Y-107537619D02*
X162214286Y-107490000D01*
X162119048Y-107442381D01*
X161880952Y-107442381D01*
X161785714Y-107490000D01*
X161738095Y-107537619D01*
X161690476Y-107632857D01*
X161690476Y-107728095D01*
X161738095Y-107870952D01*
X162309524Y-108442381D01*
X161690476Y-108442381D01*
X160833333Y-107775714D02*
X160833333Y-108442381D01*
X161071429Y-107394762D02*
X161309524Y-108109048D01*
X160690476Y-108109048D01*
X162582857Y-106757143D02*
X162630476Y-106804762D01*
X162773333Y-106852381D01*
X162868571Y-106852381D01*
X163011429Y-106804762D01*
X163106667Y-106709524D01*
X163154286Y-106614286D01*
X163201905Y-106423810D01*
X163201905Y-106280952D01*
X163154286Y-106090476D01*
X163106667Y-105995238D01*
X163011429Y-105900000D01*
X162868571Y-105852381D01*
X162773333Y-105852381D01*
X162630476Y-105900000D01*
X162582857Y-105947619D01*
X162201905Y-105947619D02*
X162154286Y-105900000D01*
X162059048Y-105852381D01*
X161820952Y-105852381D01*
X161725714Y-105900000D01*
X161678095Y-105947619D01*
X161630476Y-106042857D01*
X161630476Y-106138095D01*
X161678095Y-106280952D01*
X162249524Y-106852381D01*
X161630476Y-106852381D01*
X160725714Y-105852381D02*
X161201905Y-105852381D01*
X161249524Y-106328571D01*
X161201905Y-106280952D01*
X161106667Y-106233333D01*
X160868571Y-106233333D01*
X160773333Y-106280952D01*
X160725714Y-106328571D01*
X160678095Y-106423810D01*
X160678095Y-106661905D01*
X160725714Y-106757143D01*
X160773333Y-106804762D01*
X160868571Y-106852381D01*
X161106667Y-106852381D01*
X161201905Y-106804762D01*
X161249524Y-106757143D01*
X150452857Y-106977143D02*
X150500476Y-107024762D01*
X150643333Y-107072381D01*
X150738571Y-107072381D01*
X150881429Y-107024762D01*
X150976667Y-106929524D01*
X151024286Y-106834286D01*
X151071905Y-106643810D01*
X151071905Y-106500952D01*
X151024286Y-106310476D01*
X150976667Y-106215238D01*
X150881429Y-106120000D01*
X150738571Y-106072381D01*
X150643333Y-106072381D01*
X150500476Y-106120000D01*
X150452857Y-106167619D01*
X150071905Y-106167619D02*
X150024286Y-106120000D01*
X149929048Y-106072381D01*
X149690952Y-106072381D01*
X149595714Y-106120000D01*
X149548095Y-106167619D01*
X149500476Y-106262857D01*
X149500476Y-106358095D01*
X149548095Y-106500952D01*
X150119524Y-107072381D01*
X149500476Y-107072381D01*
X148643333Y-106072381D02*
X148833810Y-106072381D01*
X148929048Y-106120000D01*
X148976667Y-106167619D01*
X149071905Y-106310476D01*
X149119524Y-106500952D01*
X149119524Y-106881905D01*
X149071905Y-106977143D01*
X149024286Y-107024762D01*
X148929048Y-107072381D01*
X148738571Y-107072381D01*
X148643333Y-107024762D01*
X148595714Y-106977143D01*
X148548095Y-106881905D01*
X148548095Y-106643810D01*
X148595714Y-106548571D01*
X148643333Y-106500952D01*
X148738571Y-106453333D01*
X148929048Y-106453333D01*
X149024286Y-106500952D01*
X149071905Y-106548571D01*
X149119524Y-106643810D01*
X159826666Y-121752381D02*
X160160000Y-121276190D01*
X160398095Y-121752381D02*
X160398095Y-120752381D01*
X160017142Y-120752381D01*
X159921904Y-120800000D01*
X159874285Y-120847619D01*
X159826666Y-120942857D01*
X159826666Y-121085714D01*
X159874285Y-121180952D01*
X159921904Y-121228571D01*
X160017142Y-121276190D01*
X160398095Y-121276190D01*
X159493333Y-120752381D02*
X158874285Y-120752381D01*
X159207619Y-121133333D01*
X159064761Y-121133333D01*
X158969523Y-121180952D01*
X158921904Y-121228571D01*
X158874285Y-121323810D01*
X158874285Y-121561905D01*
X158921904Y-121657143D01*
X158969523Y-121704762D01*
X159064761Y-121752381D01*
X159350476Y-121752381D01*
X159445714Y-121704762D01*
X159493333Y-121657143D01*
X162076666Y-110002381D02*
X162410000Y-109526190D01*
X162648095Y-110002381D02*
X162648095Y-109002381D01*
X162267142Y-109002381D01*
X162171904Y-109050000D01*
X162124285Y-109097619D01*
X162076666Y-109192857D01*
X162076666Y-109335714D01*
X162124285Y-109430952D01*
X162171904Y-109478571D01*
X162267142Y-109526190D01*
X162648095Y-109526190D01*
X161505238Y-109430952D02*
X161600476Y-109383333D01*
X161648095Y-109335714D01*
X161695714Y-109240476D01*
X161695714Y-109192857D01*
X161648095Y-109097619D01*
X161600476Y-109050000D01*
X161505238Y-109002381D01*
X161314761Y-109002381D01*
X161219523Y-109050000D01*
X161171904Y-109097619D01*
X161124285Y-109192857D01*
X161124285Y-109240476D01*
X161171904Y-109335714D01*
X161219523Y-109383333D01*
X161314761Y-109430952D01*
X161505238Y-109430952D01*
X161600476Y-109478571D01*
X161648095Y-109526190D01*
X161695714Y-109621429D01*
X161695714Y-109811905D01*
X161648095Y-109907143D01*
X161600476Y-109954762D01*
X161505238Y-110002381D01*
X161314761Y-110002381D01*
X161219523Y-109954762D01*
X161171904Y-109907143D01*
X161124285Y-109811905D01*
X161124285Y-109621429D01*
X161171904Y-109526190D01*
X161219523Y-109478571D01*
X161314761Y-109430952D01*
X149816666Y-110232381D02*
X150150000Y-109756190D01*
X150388095Y-110232381D02*
X150388095Y-109232381D01*
X150007142Y-109232381D01*
X149911904Y-109280000D01*
X149864285Y-109327619D01*
X149816666Y-109422857D01*
X149816666Y-109565714D01*
X149864285Y-109660952D01*
X149911904Y-109708571D01*
X150007142Y-109756190D01*
X150388095Y-109756190D01*
X149340476Y-110232381D02*
X149150000Y-110232381D01*
X149054761Y-110184762D01*
X149007142Y-110137143D01*
X148911904Y-109994286D01*
X148864285Y-109803810D01*
X148864285Y-109422857D01*
X148911904Y-109327619D01*
X148959523Y-109280000D01*
X149054761Y-109232381D01*
X149245238Y-109232381D01*
X149340476Y-109280000D01*
X149388095Y-109327619D01*
X149435714Y-109422857D01*
X149435714Y-109660952D01*
X149388095Y-109756190D01*
X149340476Y-109803810D01*
X149245238Y-109851429D01*
X149054761Y-109851429D01*
X148959523Y-109803810D01*
X148911904Y-109756190D01*
X148864285Y-109660952D01*
X134583333Y-122454762D02*
X134440476Y-122502381D01*
X134202380Y-122502381D01*
X134107142Y-122454762D01*
X134059523Y-122407143D01*
X134011904Y-122311905D01*
X134011904Y-122216667D01*
X134059523Y-122121429D01*
X134107142Y-122073810D01*
X134202380Y-122026190D01*
X134392857Y-121978571D01*
X134488095Y-121930952D01*
X134535714Y-121883333D01*
X134583333Y-121788095D01*
X134583333Y-121692857D01*
X134535714Y-121597619D01*
X134488095Y-121550000D01*
X134392857Y-121502381D01*
X134154761Y-121502381D01*
X134011904Y-121550000D01*
X133678571Y-121502381D02*
X133440476Y-122502381D01*
X133249999Y-121788095D01*
X133059523Y-122502381D01*
X132821428Y-121502381D01*
X131916666Y-122502381D02*
X132488095Y-122502381D01*
X132202381Y-122502381D02*
X132202381Y-121502381D01*
X132297619Y-121645238D01*
X132392857Y-121740476D01*
X132488095Y-121788095D01*
X165021905Y-114282381D02*
X165021905Y-115091905D01*
X164974286Y-115187143D01*
X164926667Y-115234762D01*
X164831429Y-115282381D01*
X164640952Y-115282381D01*
X164545714Y-115234762D01*
X164498095Y-115187143D01*
X164450476Y-115091905D01*
X164450476Y-114282381D01*
X164021905Y-114377619D02*
X163974286Y-114330000D01*
X163879048Y-114282381D01*
X163640952Y-114282381D01*
X163545714Y-114330000D01*
X163498095Y-114377619D01*
X163450476Y-114472857D01*
X163450476Y-114568095D01*
X163498095Y-114710952D01*
X164069524Y-115282381D01*
X163450476Y-115282381D01*
X155991905Y-109472381D02*
X155991905Y-110281905D01*
X155944286Y-110377143D01*
X155896667Y-110424762D01*
X155801429Y-110472381D01*
X155610952Y-110472381D01*
X155515714Y-110424762D01*
X155468095Y-110377143D01*
X155420476Y-110281905D01*
X155420476Y-109472381D01*
X154515714Y-109472381D02*
X154706191Y-109472381D01*
X154801429Y-109520000D01*
X154849048Y-109567619D01*
X154944286Y-109710476D01*
X154991905Y-109900952D01*
X154991905Y-110281905D01*
X154944286Y-110377143D01*
X154896667Y-110424762D01*
X154801429Y-110472381D01*
X154610952Y-110472381D01*
X154515714Y-110424762D01*
X154468095Y-110377143D01*
X154420476Y-110281905D01*
X154420476Y-110043810D01*
X154468095Y-109948571D01*
X154515714Y-109900952D01*
X154610952Y-109853333D01*
X154801429Y-109853333D01*
X154896667Y-109900952D01*
X154944286Y-109948571D01*
X154991905Y-110043810D01*
X172816190Y-110773809D02*
X173292381Y-110773809D01*
X172292381Y-110440476D02*
X172816190Y-110773809D01*
X172292381Y-111107143D01*
X173292381Y-111964286D02*
X173292381Y-111392857D01*
X173292381Y-111678571D02*
X172292381Y-111678571D01*
X172435238Y-111583333D01*
X172530476Y-111488095D01*
X172578095Y-111392857D01*
X166016666Y-107867143D02*
X166064285Y-107914762D01*
X166207142Y-107962381D01*
X166302380Y-107962381D01*
X166445238Y-107914762D01*
X166540476Y-107819524D01*
X166588095Y-107724286D01*
X166635714Y-107533810D01*
X166635714Y-107390952D01*
X166588095Y-107200476D01*
X166540476Y-107105238D01*
X166445238Y-107010000D01*
X166302380Y-106962381D01*
X166207142Y-106962381D01*
X166064285Y-107010000D01*
X166016666Y-107057619D01*
X165159523Y-107295714D02*
X165159523Y-107962381D01*
X165397619Y-106914762D02*
X165635714Y-107629048D01*
X165016666Y-107629048D01*
X169846666Y-121897143D02*
X169894285Y-121944762D01*
X170037142Y-121992381D01*
X170132380Y-121992381D01*
X170275238Y-121944762D01*
X170370476Y-121849524D01*
X170418095Y-121754286D01*
X170465714Y-121563810D01*
X170465714Y-121420952D01*
X170418095Y-121230476D01*
X170370476Y-121135238D01*
X170275238Y-121040000D01*
X170132380Y-120992381D01*
X170037142Y-120992381D01*
X169894285Y-121040000D01*
X169846666Y-121087619D01*
X168941904Y-120992381D02*
X169418095Y-120992381D01*
X169465714Y-121468571D01*
X169418095Y-121420952D01*
X169322857Y-121373333D01*
X169084761Y-121373333D01*
X168989523Y-121420952D01*
X168941904Y-121468571D01*
X168894285Y-121563810D01*
X168894285Y-121801905D01*
X168941904Y-121897143D01*
X168989523Y-121944762D01*
X169084761Y-121992381D01*
X169322857Y-121992381D01*
X169418095Y-121944762D01*
X169465714Y-121897143D01*
X145176666Y-113572381D02*
X145652857Y-113572381D01*
X145652857Y-112572381D01*
X144890952Y-112667619D02*
X144843333Y-112620000D01*
X144748095Y-112572381D01*
X144509999Y-112572381D01*
X144414761Y-112620000D01*
X144367142Y-112667619D01*
X144319523Y-112762857D01*
X144319523Y-112858095D01*
X144367142Y-113000952D01*
X144938571Y-113572381D01*
X144319523Y-113572381D01*
X147102381Y-114183334D02*
X146626190Y-113850000D01*
X147102381Y-113611905D02*
X146102381Y-113611905D01*
X146102381Y-113992858D01*
X146150000Y-114088096D01*
X146197619Y-114135715D01*
X146292857Y-114183334D01*
X146435714Y-114183334D01*
X146530952Y-114135715D01*
X146578571Y-114088096D01*
X146626190Y-113992858D01*
X146626190Y-113611905D01*
X146435714Y-115040477D02*
X147102381Y-115040477D01*
X146054762Y-114802381D02*
X146769048Y-114564286D01*
X146769048Y-115183334D01*
X140752381Y-114143334D02*
X140276190Y-113810000D01*
X140752381Y-113571905D02*
X139752381Y-113571905D01*
X139752381Y-113952858D01*
X139800000Y-114048096D01*
X139847619Y-114095715D01*
X139942857Y-114143334D01*
X140085714Y-114143334D01*
X140180952Y-114095715D01*
X140228571Y-114048096D01*
X140276190Y-113952858D01*
X140276190Y-113571905D01*
X139752381Y-114476667D02*
X139752381Y-115143334D01*
X140752381Y-114714762D01*
X140502381Y-110407143D02*
X140026190Y-110073809D01*
X140502381Y-109835714D02*
X139502381Y-109835714D01*
X139502381Y-110216667D01*
X139550000Y-110311905D01*
X139597619Y-110359524D01*
X139692857Y-110407143D01*
X139835714Y-110407143D01*
X139930952Y-110359524D01*
X139978571Y-110311905D01*
X140026190Y-110216667D01*
X140026190Y-109835714D01*
X140502381Y-111359524D02*
X140502381Y-110788095D01*
X140502381Y-111073809D02*
X139502381Y-111073809D01*
X139645238Y-110978571D01*
X139740476Y-110883333D01*
X139788095Y-110788095D01*
X139502381Y-111692857D02*
X139502381Y-112311905D01*
X139883333Y-111978571D01*
X139883333Y-112121429D01*
X139930952Y-112216667D01*
X139978571Y-112264286D01*
X140073810Y-112311905D01*
X140311905Y-112311905D01*
X140407143Y-112264286D01*
X140454762Y-112216667D01*
X140502381Y-112121429D01*
X140502381Y-111835714D01*
X140454762Y-111740476D01*
X140407143Y-111692857D01*
M02*
