M48
;DRILL file {KiCad 4.0.5+dfsg1-4} date Tue Oct  2 15:16:52 2018
;FORMAT={-:-/ absolute / inch / decimal}
FMAT,2
INCH,TZ
T1C0.024
T2C0.040
%
G90
G05
M72
T1
X4.8236Y-4.5835
X4.8268Y-4.6575
X4.8268Y-4.7283
X4.8323Y-4.8319
X4.8815Y-4.8319
X4.9181Y-4.5165
X4.9764Y-4.748
X4.9791Y-4.2697
X4.9811Y-4.3433
X4.9811Y-4.426
X5.0146Y-4.2063
X5.1024Y-4.1831
X5.19Y-4.15
X5.2756Y-4.1201
X5.3524Y-4.0965
X5.3941Y-4.7047
X5.4098Y-4.5197
X5.4232Y-4.4587
X5.4252Y-4.0709
X5.4252Y-4.1496
X5.4252Y-4.2283
X5.4252Y-4.3071
X5.4252Y-4.3858
X5.4606Y-4.8346
X5.4843Y-4.9685
X5.5138Y-4.0413
X5.5827Y-4.8543
X5.6004Y-4.0138
X5.6614Y-4.8543
X5.6772Y-3.9921
X5.7224Y-4.0512
X5.7224Y-4.1299
X5.7224Y-4.2087
X5.7224Y-4.2874
X5.7224Y-4.3661
X5.7461Y-3.9724
X5.7567Y-4.8559
X5.8307Y-3.9567
X5.8941Y-4.3736
X5.9209Y-3.9465
X5.9563Y-4.9063
X5.9606Y-4.5354
X5.9921Y-4.6535
X6.0118Y-4.0236
X6.0118Y-4.0984
X6.0118Y-4.1732
X6.0126Y-4.2449
X6.0138Y-3.9429
X6.0236Y-4.7598
X6.0492Y-4.8831
X6.1748Y-4.3331
X6.1811Y-4.9055
X6.2441Y-4.2795
X6.2559Y-3.9547
X6.2598Y-4.0295
X6.2598Y-4.1083
X6.2598Y-4.187
X6.2795Y-4.2441
X6.311Y-4.9252
X6.3602Y-3.9646
X6.374Y-4.5157
X6.378Y-4.8898
X6.3858Y-4.4685
X6.3976Y-4.3661
X6.4016Y-4.4213
X6.4075Y-4.1083
X6.4252Y-4.6299
X6.4252Y-4.6969
X6.4571Y-4.8614
X6.4646Y-3.9744
X6.4685Y-4.3583
X6.4921Y-4.6299
X6.4921Y-4.6969
X6.5118Y-4.8701
X6.5157Y-4.2913
X6.5689Y-4.1063
X6.5728Y-3.9921
X6.5827Y-4.9055
X6.6098Y-4.7465
X6.6535Y-4.9055
X6.6772Y-4.0118
X6.7323Y-4.9055
X6.7343Y-4.1063
X6.7776Y-4.0335
X6.811Y-4.9055
X6.8386Y-4.2441
X6.8465Y-4.4449
X6.874Y-4.063
X6.878Y-4.7283
X6.8937Y-4.5079
X6.8937Y-4.563
X6.8937Y-4.9055
X6.8976Y-4.6181
X6.9016Y-4.6693
X6.9654Y-4.0953
X6.9685Y-4.8504
X6.9882Y-4.6811
X7.0079Y-4.3858
X7.0276Y-4.3346
X7.0512Y-4.4331
X7.0551Y-4.6811
X7.0709Y-4.1417
X7.0988Y-4.9181
X7.1677Y-4.9205
X7.1693Y-4.2126
X7.2406Y-4.9205
X7.2559Y-4.2795
X7.2559Y-4.3583
X7.2559Y-4.437
X7.2559Y-4.5157
X7.3012Y-4.9197
T2
X7.422Y-4.6472
X7.422Y-4.7472
X7.422Y-4.8472
X7.422Y-4.9472
T0
M30
