  0
SECTION
  2
HEADER
  9
$ANGBASE
  50
0.0
  9
$ANGDIR
  70
  1
  9
$MEASUREMENT
  70
0
  0
ENDSEC
  0
SECTION
  2
TABLES
  0
TABLE
  2
LTYPE
  70
1
  0
LTYPE
  2
CONTINUOUS
  70
0
  3
Solid line
  72
65
  73
0
  40
0.0
  0
ENDTAB
  0
TABLE
  2
STYLE
  70
4
  0
STYLE
  2
KICAD
  70
0
  40
0
  41
1
  42
1
  50
0
  71
0
  3
isocp.shx
  0
STYLE
  2
KICADB
  70
0
  40
0
  41
1
  42
1
  50
0
  71
0
  3
isocp.shx
  0
STYLE
  2
KICADI
  70
0
  40
0
  41
1
  42
1
  50
15
  71
0
  3
isocp.shx
  0
STYLE
  2
KICADBI
  70
0
  40
0
  41
1
  42
1
  50
15
  71
0
  3
isocp.shx
  0
ENDTAB
  0
TABLE
  2
LAYER
  70
30
  0
LAYER
  2
BLACK
  70
0
  62
7
  6
CONTINUOUS
  0
LAYER
  2
GRAY1
  70
0
  62
251
  6
CONTINUOUS
  0
LAYER
  2
GRAY2
  70
0
  62
8
  6
CONTINUOUS
  0
LAYER
  2
GRAY3
  70
0
  62
9
  6
CONTINUOUS
  0
LAYER
  2
WHITE
  70
0
  62
7
  6
CONTINUOUS
  0
LAYER
  2
LYELLOW
  70
0
  62
51
  6
CONTINUOUS
  0
LAYER
  2
BLUE1
  70
0
  62
178
  6
CONTINUOUS
  0
LAYER
  2
GREEN1
  70
0
  62
98
  6
CONTINUOUS
  0
LAYER
  2
CYAN1
  70
0
  62
138
  6
CONTINUOUS
  0
LAYER
  2
RED1
  70
0
  62
18
  6
CONTINUOUS
  0
LAYER
  2
MAGENTA1
  70
0
  62
228
  6
CONTINUOUS
  0
LAYER
  2
BROWN1
  70
0
  62
58
  6
CONTINUOUS
  0
LAYER
  2
BLUE2
  70
0
  62
5
  6
CONTINUOUS
  0
LAYER
  2
GREEN2
  70
0
  62
3
  6
CONTINUOUS
  0
LAYER
  2
CYAN2
  70
0
  62
4
  6
CONTINUOUS
  0
LAYER
  2
RED2
  70
0
  62
1
  6
CONTINUOUS
  0
LAYER
  2
MAGENTA2
  70
0
  62
6
  6
CONTINUOUS
  0
LAYER
  2
BROWN2
  70
0
  62
54
  6
CONTINUOUS
  0
LAYER
  2
BLUE3
  70
0
  62
171
  6
CONTINUOUS
  0
LAYER
  2
GREEN3
  70
0
  62
91
  6
CONTINUOUS
  0
LAYER
  2
CYAN3
  70
0
  62
131
  6
CONTINUOUS
  0
LAYER
  2
RED3
  70
0
  62
11
  6
CONTINUOUS
  0
LAYER
  2
MAGENTA3
  70
0
  62
221
  6
CONTINUOUS
  0
LAYER
  2
YELLOW3
  70
0
  62
2
  6
CONTINUOUS
  0
LAYER
  2
BLUE4
  70
0
  62
5
  6
CONTINUOUS
  0
LAYER
  2
GREEN4
  70
0
  62
3
  6
CONTINUOUS
  0
LAYER
  2
CYAN4
  70
0
  62
4
  6
CONTINUOUS
  0
LAYER
  2
RED4
  70
0
  62
1
  6
CONTINUOUS
  0
LAYER
  2
MAGENTA4
  70
0
  62
6
  6
CONTINUOUS
  0
LAYER
  2
YELLOW4
  70
0
  62
2
  6
CONTINUOUS
  0
ENDTAB
  0
ENDSEC
  0
SECTION
  2
ENTITIES
0
LINE
8
Black
10
169.908
20
-99.7787
11
169.915
21
-99.7803
0
LINE
8
Black
10
169.915
20
-99.7803
11
169.923
21
-99.7817
0
LINE
8
Black
10
169.923
20
-99.7817
11
188.671
21
-106.605
0
LINE
8
Black
10
188.671
20
-106.605
11
188.672
21
-106.606
0
LINE
8
Black
10
188.672
20
-106.606
11
188.672
21
-106.606
0
LINE
8
Black
10
188.672
20
-106.606
11
188.679
21
-106.61
0
LINE
8
Black
10
188.679
20
-106.61
11
188.686
21
-106.614
0
LINE
8
Black
10
188.686
20
-106.614
11
188.687
21
-106.614
0
LINE
8
Black
10
188.687
20
-106.614
11
188.687
21
-106.615
0
LINE
8
Black
10
188.687
20
-106.615
11
188.692
21
-106.621
0
LINE
8
Black
10
188.692
20
-106.621
11
188.697
21
-106.627
0
LINE
8
Black
10
188.697
20
-106.627
11
188.698
21
-106.628
0
LINE
8
Black
10
188.698
20
-106.628
11
188.698
21
-106.628
0
LINE
8
Black
10
188.698
20
-106.628
11
188.701
21
-106.636
0
LINE
8
Black
10
188.701
20
-106.636
11
188.703
21
-106.644
0
LINE
8
Black
10
188.703
20
-106.644
11
188.703
21
-106.644
0
LINE
8
Black
10
188.703
20
-106.644
11
188.704
21
-106.644
0
LINE
8
Black
10
188.704
20
-106.644
11
188.703
21
-106.653
0
LINE
8
Black
10
188.703
20
-106.653
11
188.703
21
-106.661
0
LINE
8
Black
10
188.703
20
-106.661
11
188.703
21
-106.661
0
LINE
8
Black
10
188.703
20
-106.661
11
188.703
21
-106.662
0
LINE
8
Black
10
188.703
20
-106.662
11
188.671
21
-106.832
0
LINE
8
Black
10
188.671
20
-106.832
11
188.665
21
-106.849
0
LINE
8
Black
10
188.665
20
-106.849
11
188.576
21
-106.998
0
LINE
8
Black
10
188.576
20
-106.998
11
188.571
21
-107.004
0
LINE
8
Black
10
188.571
20
-107.004
11
188.566
21
-107.01
0
LINE
8
Black
10
188.566
20
-107.01
11
188.461
21
-107.102
0
LINE
8
Black
10
188.461
20
-107.102
11
188.46
21
-107.103
0
LINE
8
Black
10
188.46
20
-107.103
11
188.46
21
-107.103
0
LINE
8
Black
10
188.46
20
-107.103
11
187.671
21
-107.76
0
LINE
8
Black
10
187.671
20
-107.76
11
186.814
21
-109.048
0
LINE
8
Black
10
186.814
20
-109.048
11
186.45
21
-110.55
0
LINE
8
Black
10
186.45
20
-110.55
11
186.622
21
-112.086
0
LINE
8
Black
10
186.622
20
-112.086
11
187.309
21
-113.47
0
LINE
8
Black
10
187.309
20
-113.47
11
188.427
21
-114.536
0
LINE
8
Black
10
188.427
20
-114.536
11
189.843
21
-115.155
0
LINE
8
Black
10
189.843
20
-115.155
11
191.394
21
-115.253
0
LINE
8
Black
10
191.394
20
-115.253
11
191.397
21
-115.254
0
LINE
8
Black
10
191.397
20
-115.254
11
191.399
21
-115.254
0
LINE
8
Black
10
191.399
20
-115.254
11
191.405
21
-115.256
0
LINE
8
Black
10
191.405
20
-115.256
11
191.411
21
-115.257
0
LINE
8
Black
10
191.411
20
-115.257
11
191.413
21
-115.259
0
LINE
8
Black
10
191.413
20
-115.259
11
191.416
21
-115.26
0
LINE
8
Black
10
191.416
20
-115.26
11
191.42
21
-115.264
0
LINE
8
Black
10
191.42
20
-115.264
11
191.425
21
-115.267
0
LINE
8
Black
10
191.425
20
-115.267
11
191.427
21
-115.269
0
LINE
8
Black
10
191.427
20
-115.269
11
191.429
21
-115.271
0
LINE
8
Black
10
191.429
20
-115.271
11
191.432
21
-115.276
0
LINE
8
Black
10
191.432
20
-115.276
11
191.436
21
-115.281
0
LINE
8
Black
10
191.436
20
-115.281
11
191.436
21
-115.284
0
LINE
8
Black
10
191.436
20
-115.284
11
191.438
21
-115.286
0
LINE
8
Black
10
191.438
20
-115.286
11
191.439
21
-115.292
0
LINE
8
Black
10
191.439
20
-115.292
11
191.44
21
-115.298
0
LINE
8
Black
10
191.44
20
-115.298
11
191.44
21
-115.3
0
LINE
8
Black
10
191.44
20
-115.3
11
191.441
21
-115.303
0
LINE
8
Black
10
191.441
20
-115.303
11
191.441
21
-128.034
0
LINE
8
Black
10
191.441
20
-128.034
11
191.44
21
-128.039
0
LINE
8
Black
10
191.44
20
-128.039
11
191.44
21
-128.043
0
LINE
8
Black
10
191.44
20
-128.043
11
191.439
21
-128.047
0
LINE
8
Black
10
191.439
20
-128.047
11
191.438
21
-128.052
0
LINE
8
Black
10
191.438
20
-128.052
11
191.436
21
-128.055
0
LINE
8
Black
10
191.436
20
-128.055
11
191.434
21
-128.059
0
LINE
8
Black
10
191.434
20
-128.059
11
191.431
21
-128.063
0
LINE
8
Black
10
191.431
20
-128.063
11
191.429
21
-128.067
0
LINE
8
Black
10
191.429
20
-128.067
11
191.426
21
-128.069
0
LINE
8
Black
10
191.426
20
-128.069
11
191.423
21
-128.073
0
LINE
8
Black
10
191.423
20
-128.073
11
191.419
21
-128.075
0
LINE
8
Black
10
191.419
20
-128.075
11
191.416
21
-128.078
0
LINE
8
Black
10
191.416
20
-128.078
11
191.412
21
-128.079
0
LINE
8
Black
10
191.412
20
-128.079
11
191.408
21
-128.081
0
LINE
8
Black
10
191.408
20
-128.081
11
191.404
21
-128.082
0
LINE
8
Black
10
191.404
20
-128.082
11
191.399
21
-128.084
0
LINE
8
Black
10
191.399
20
-128.084
11
191.395
21
-128.084
0
LINE
8
Black
10
191.395
20
-128.084
11
191.391
21
-128.084
0
LINE
8
Black
10
191.391
20
-128.084
11
120.391
21
-128.084
0
LINE
8
Black
10
120.391
20
-128.084
11
120.386
21
-128.084
0
LINE
8
Black
10
120.386
20
-128.084
11
120.382
21
-128.084
0
LINE
8
Black
10
120.382
20
-128.084
11
120.378
21
-128.082
0
LINE
8
Black
10
120.378
20
-128.082
11
120.374
21
-128.081
0
LINE
8
Black
10
120.374
20
-128.081
11
120.37
21
-128.079
0
LINE
8
Black
10
120.37
20
-128.079
11
120.366
21
-128.078
0
LINE
8
Black
10
120.366
20
-128.078
11
120.362
21
-128.075
0
LINE
8
Black
10
120.362
20
-128.075
11
120.359
21
-128.073
0
LINE
8
Black
10
120.359
20
-128.073
11
120.356
21
-128.069
0
LINE
8
Black
10
120.356
20
-128.069
11
120.353
21
-128.067
0
LINE
8
Black
10
120.353
20
-128.067
11
120.35
21
-128.063
0
LINE
8
Black
10
120.35
20
-128.063
11
120.348
21
-128.059
0
LINE
8
Black
10
120.348
20
-128.059
11
120.346
21
-128.055
0
LINE
8
Black
10
120.346
20
-128.055
11
120.344
21
-128.052
0
LINE
8
Black
10
120.344
20
-128.052
11
120.343
21
-128.047
0
LINE
8
Black
10
120.343
20
-128.047
11
120.342
21
-128.043
0
LINE
8
Black
10
120.342
20
-128.043
11
120.342
21
-128.039
0
LINE
8
Black
10
120.342
20
-128.039
11
120.341
21
-128.034
0
LINE
8
Black
10
120.341
20
-128.034
11
120.341
21
-115.303
0
LINE
8
Black
10
120.341
20
-115.303
11
120.342
21
-115.299
0
LINE
8
Black
10
120.342
20
-115.299
11
120.342
21
-115.295
0
LINE
8
Black
10
120.342
20
-115.295
11
120.343
21
-115.29
0
LINE
8
Black
10
120.343
20
-115.29
11
120.344
21
-115.286
0
LINE
8
Black
10
120.344
20
-115.286
11
120.346
21
-115.282
0
LINE
8
Black
10
120.346
20
-115.282
11
120.347
21
-115.278
0
LINE
8
Black
10
120.347
20
-115.278
11
120.35
21
-115.275
0
LINE
8
Black
10
120.35
20
-115.275
11
120.353
21
-115.271
0
LINE
8
Black
10
120.353
20
-115.271
11
120.356
21
-115.268
0
LINE
8
Black
10
120.356
20
-115.268
11
120.359
21
-115.265
0
LINE
8
Black
10
120.359
20
-115.265
11
120.362
21
-115.263
0
LINE
8
Black
10
120.362
20
-115.263
11
120.366
21
-115.26
0
LINE
8
Black
10
120.366
20
-115.26
11
120.37
21
-115.258
0
LINE
8
Black
10
120.37
20
-115.258
11
120.374
21
-115.256
0
LINE
8
Black
10
120.374
20
-115.256
11
120.378
21
-115.255
0
LINE
8
Black
10
120.378
20
-115.255
11
120.382
21
-115.254
0
LINE
8
Black
10
120.382
20
-115.254
11
120.386
21
-115.254
0
LINE
8
Black
10
120.386
20
-115.254
11
120.391
21
-115.253
0
LINE
8
Black
10
120.391
20
-115.253
11
121.417
21
-115.249
0
LINE
8
Black
10
121.417
20
-115.249
11
122.898
21
-114.802
0
LINE
8
Black
10
122.898
20
-114.802
11
124.135
21
-113.876
0
LINE
8
Black
10
124.135
20
-113.876
11
124.981
21
-112.582
0
LINE
8
Black
10
124.981
20
-112.582
11
125.333
21
-111.078
0
LINE
8
Black
10
125.333
20
-111.078
11
125.15
21
-109.544
0
LINE
8
Black
10
125.15
20
-109.544
11
124.453
21
-108.165
0
LINE
8
Black
10
124.453
20
-108.165
11
123.32
21
-107.101
0
LINE
8
Black
10
123.32
20
-107.101
11
123.193
21
-106.982
0
LINE
8
Black
10
123.193
20
-106.982
11
123.182
21
-106.968
0
LINE
8
Black
10
123.182
20
-106.968
11
123.104
21
-106.814
0
LINE
8
Black
10
123.104
20
-106.814
11
123.102
21
-106.806
0
LINE
8
Black
10
123.102
20
-106.806
11
123.099
21
-106.799
0
LINE
8
Black
10
123.099
20
-106.799
11
123.078
21
-106.66
0
LINE
8
Black
10
123.078
20
-106.66
11
123.078
21
-106.66
0
LINE
8
Black
10
123.078
20
-106.66
11
123.078
21
-106.66
0
LINE
8
Black
10
123.078
20
-106.66
11
123.078
21
-106.651
0
LINE
8
Black
10
123.078
20
-106.651
11
123.078
21
-106.643
0
LINE
8
Black
10
123.078
20
-106.643
11
123.078
21
-106.642
0
LINE
8
Black
10
123.078
20
-106.642
11
123.078
21
-106.642
0
LINE
8
Black
10
123.078
20
-106.642
11
123.082
21
-106.634
0
LINE
8
Black
10
123.082
20
-106.634
11
123.085
21
-106.626
0
LINE
8
Black
10
123.085
20
-106.626
11
123.085
21
-106.626
0
LINE
8
Black
10
123.085
20
-106.626
11
123.085
21
-106.626
0
LINE
8
Black
10
123.085
20
-106.626
11
123.091
21
-106.62
0
LINE
8
Black
10
123.091
20
-106.62
11
123.096
21
-106.613
0
LINE
8
Black
10
123.096
20
-106.613
11
123.096
21
-106.613
0
LINE
8
Black
10
123.096
20
-106.613
11
123.096
21
-106.613
0
LINE
8
Black
10
123.096
20
-106.613
11
123.104
21
-106.609
0
LINE
8
Black
10
123.104
20
-106.609
11
123.111
21
-106.605
0
LINE
8
Black
10
123.111
20
-106.605
11
123.112
21
-106.605
0
LINE
8
Black
10
123.112
20
-106.605
11
123.112
21
-106.605
0
LINE
8
Black
10
123.112
20
-106.605
11
145.9
21
-99.0689
0
LINE
8
Black
10
145.9
20
-99.0689
11
145.917
21
-99.0664
0
LINE
8
Black
10
145.917
20
-99.0664
11
169.908
21
-99.7787
0
LINE
8
Black
10
123.183
20
-106.687
11
123.197
21
-106.776
0
LINE
8
Black
10
123.197
20
-106.776
11
123.268
21
-106.916
0
LINE
8
Black
10
123.268
20
-106.916
11
123.388
21
-107.028
0
LINE
8
Black
10
123.388
20
-107.028
11
123.388
21
-107.028
0
LINE
8
Black
10
123.388
20
-107.028
11
124.528
21
-108.098
0
LINE
8
Black
10
124.528
20
-108.098
11
124.528
21
-108.098
0
LINE
8
Black
10
124.528
20
-108.098
11
124.538
21
-108.112
0
LINE
8
Black
10
124.538
20
-108.112
11
125.243
21
-109.506
0
LINE
8
Black
10
125.243
20
-109.506
11
125.248
21
-109.523
0
LINE
8
Black
10
125.248
20
-109.523
11
125.434
21
-111.075
0
LINE
8
Black
10
125.434
20
-111.075
11
125.433
21
-111.092
0
LINE
8
Black
10
125.433
20
-111.092
11
125.433
21
-111.092
0
LINE
8
Black
10
125.433
20
-111.092
11
125.076
21
-112.614
0
LINE
8
Black
10
125.076
20
-112.614
11
125.076
21
-112.614
0
LINE
8
Black
10
125.076
20
-112.614
11
125.073
21
-112.622
0
LINE
8
Black
10
125.073
20
-112.622
11
125.069
21
-112.63
0
LINE
8
Black
10
125.069
20
-112.63
11
125.069
21
-112.63
0
LINE
8
Black
10
125.069
20
-112.63
11
124.214
21
-113.938
0
LINE
8
Black
10
124.214
20
-113.938
11
124.202
21
-113.95
0
LINE
8
Black
10
124.202
20
-113.95
11
122.951
21
-114.887
0
LINE
8
Black
10
122.951
20
-114.887
11
122.935
21
-114.895
0
LINE
8
Black
10
122.935
20
-114.895
11
121.439
21
-115.347
0
LINE
8
Black
10
121.439
20
-115.347
11
121.432
21
-115.348
0
LINE
8
Black
10
121.432
20
-115.348
11
121.425
21
-115.349
0
LINE
8
Black
10
121.425
20
-115.349
11
120.441
21
-115.353
0
LINE
8
Black
10
120.441
20
-115.353
11
120.441
21
-127.984
0
LINE
8
Black
10
120.441
20
-127.984
11
191.341
21
-127.984
0
LINE
8
Black
10
191.341
20
-127.984
11
191.341
21
-115.35
0
LINE
8
Black
10
191.341
20
-115.35
11
189.828
21
-115.254
0
LINE
8
Black
10
189.828
20
-115.254
11
189.811
21
-115.25
0
LINE
8
Black
10
189.811
20
-115.25
11
188.379
21
-114.624
0
LINE
8
Black
10
188.379
20
-114.624
11
188.365
21
-114.614
0
LINE
8
Black
10
188.365
20
-114.614
11
188.365
21
-114.614
0
LINE
8
Black
10
188.365
20
-114.614
11
187.233
21
-113.536
0
LINE
8
Black
10
187.233
20
-113.536
11
187.233
21
-113.536
0
LINE
8
Black
10
187.233
20
-113.536
11
187.223
21
-113.522
0
LINE
8
Black
10
187.223
20
-113.522
11
186.529
21
-112.122
0
LINE
8
Black
10
186.529
20
-112.122
11
186.524
21
-112.105
0
LINE
8
Black
10
186.524
20
-112.105
11
186.524
21
-112.105
0
LINE
8
Black
10
186.524
20
-112.105
11
186.35
21
-110.552
0
LINE
8
Black
10
186.35
20
-110.552
11
186.35
21
-110.552
0
LINE
8
Black
10
186.35
20
-110.552
11
186.351
21
-110.535
0
LINE
8
Black
10
186.351
20
-110.535
11
186.719
21
-109.016
0
LINE
8
Black
10
186.719
20
-109.016
11
186.726
21
-109
0
LINE
8
Black
10
186.726
20
-109
11
186.726
21
-109
0
LINE
8
Black
10
186.726
20
-109
11
187.592
21
-107.699
0
LINE
8
Black
10
187.592
20
-107.699
11
187.596
21
-107.694
0
LINE
8
Black
10
187.596
20
-107.694
11
187.601
21
-107.688
0
LINE
8
Black
10
187.601
20
-107.688
11
188.395
21
-107.027
0
LINE
8
Black
10
188.395
20
-107.027
11
188.494
21
-106.94
0
LINE
8
Black
10
188.494
20
-106.94
11
188.574
21
-106.805
0
LINE
8
Black
10
188.574
20
-106.805
11
188.597
21
-106.685
0
LINE
8
Black
10
188.597
20
-106.685
11
169.897
21
-99.8784
0
LINE
8
Black
10
169.897
20
-99.8784
11
145.923
21
-99.1666
0
LINE
8
Black
10
145.923
20
-99.1666
11
123.183
21
-106.687
0
LINE
8
Black
10
179.078
20
-116.488
11
178.666
21
-116.834
0
LINE
8
Black
10
178.666
20
-116.834
11
178.16
21
-117.018
0
LINE
8
Black
10
178.16
20
-117.018
11
177.622
21
-117.018
0
LINE
8
Black
10
177.622
20
-117.018
11
177.116
21
-116.834
0
LINE
8
Black
10
177.116
20
-116.834
11
176.703
21
-116.488
0
LINE
8
Black
10
176.703
20
-116.488
11
176.434
21
-116.022
0
LINE
8
Black
10
176.434
20
-116.022
11
176.341
21
-115.492
0
LINE
8
Black
10
176.341
20
-115.492
11
176.434
21
-114.962
0
LINE
8
Black
10
176.434
20
-114.962
11
176.703
21
-114.495
0
LINE
8
Black
10
176.703
20
-114.495
11
177.116
21
-114.149
0
LINE
8
Black
10
177.116
20
-114.149
11
177.622
21
-113.965
0
LINE
8
Black
10
177.622
20
-113.965
11
178.16
21
-113.965
0
LINE
8
Black
10
178.16
20
-113.965
11
178.666
21
-114.149
0
LINE
8
Black
10
178.666
20
-114.149
11
179.078
21
-114.495
0
LINE
8
Black
10
179.078
20
-114.495
11
179.347
21
-114.962
0
LINE
8
Black
10
179.347
20
-114.962
11
179.441
21
-115.492
0
LINE
8
Black
10
179.441
20
-115.492
11
179.347
21
-116.022
0
LINE
8
Black
10
179.347
20
-116.022
11
179.078
21
-116.488
0
LINE
8
Black
10
179.002
20
-114.56
11
178.616
21
-114.236
0
LINE
8
Black
10
178.616
20
-114.236
11
178.143
21
-114.064
0
LINE
8
Black
10
178.143
20
-114.064
11
177.639
21
-114.064
0
LINE
8
Black
10
177.639
20
-114.064
11
177.166
21
-114.236
0
LINE
8
Black
10
177.166
20
-114.236
11
176.78
21
-114.56
0
LINE
8
Black
10
176.78
20
-114.56
11
176.528
21
-114.996
0
LINE
8
Black
10
176.528
20
-114.996
11
176.441
21
-115.492
0
LINE
8
Black
10
176.441
20
-115.492
11
176.528
21
-115.988
0
LINE
8
Black
10
176.528
20
-115.988
11
176.78
21
-116.424
0
LINE
8
Black
10
176.78
20
-116.424
11
177.166
21
-116.747
0
LINE
8
Black
10
177.166
20
-116.747
11
177.639
21
-116.92
0
LINE
8
Black
10
177.639
20
-116.92
11
178.143
21
-116.92
0
LINE
8
Black
10
178.143
20
-116.92
11
178.616
21
-116.747
0
LINE
8
Black
10
178.616
20
-116.747
11
179.002
21
-116.424
0
LINE
8
Black
10
179.002
20
-116.424
11
179.253
21
-115.988
0
LINE
8
Black
10
179.253
20
-115.988
11
179.341
21
-115.492
0
LINE
8
Black
10
179.341
20
-115.492
11
179.253
21
-114.996
0
LINE
8
Black
10
179.253
20
-114.996
11
179.002
21
-114.56
0
LINE
8
Black
10
135.078
20
-116.488
11
134.666
21
-116.834
0
LINE
8
Black
10
134.666
20
-116.834
11
134.16
21
-117.018
0
LINE
8
Black
10
134.16
20
-117.018
11
133.622
21
-117.018
0
LINE
8
Black
10
133.622
20
-117.018
11
133.116
21
-116.834
0
LINE
8
Black
10
133.116
20
-116.834
11
132.703
21
-116.488
0
LINE
8
Black
10
132.703
20
-116.488
11
132.434
21
-116.022
0
LINE
8
Black
10
132.434
20
-116.022
11
132.341
21
-115.492
0
LINE
8
Black
10
132.341
20
-115.492
11
132.434
21
-114.962
0
LINE
8
Black
10
132.434
20
-114.962
11
132.703
21
-114.495
0
LINE
8
Black
10
132.703
20
-114.495
11
133.116
21
-114.149
0
LINE
8
Black
10
133.116
20
-114.149
11
133.622
21
-113.965
0
LINE
8
Black
10
133.622
20
-113.965
11
134.16
21
-113.965
0
LINE
8
Black
10
134.16
20
-113.965
11
134.666
21
-114.149
0
LINE
8
Black
10
134.666
20
-114.149
11
135.078
21
-114.495
0
LINE
8
Black
10
135.078
20
-114.495
11
135.347
21
-114.962
0
LINE
8
Black
10
135.347
20
-114.962
11
135.441
21
-115.492
0
LINE
8
Black
10
135.441
20
-115.492
11
135.347
21
-116.022
0
LINE
8
Black
10
135.347
20
-116.022
11
135.078
21
-116.488
0
LINE
8
Black
10
135.002
20
-114.56
11
134.616
21
-114.236
0
LINE
8
Black
10
134.616
20
-114.236
11
134.143
21
-114.064
0
LINE
8
Black
10
134.143
20
-114.064
11
133.639
21
-114.064
0
LINE
8
Black
10
133.639
20
-114.064
11
133.166
21
-114.236
0
LINE
8
Black
10
133.166
20
-114.236
11
132.78
21
-114.56
0
LINE
8
Black
10
132.78
20
-114.56
11
132.528
21
-114.996
0
LINE
8
Black
10
132.528
20
-114.996
11
132.441
21
-115.492
0
LINE
8
Black
10
132.441
20
-115.492
11
132.528
21
-115.988
0
LINE
8
Black
10
132.528
20
-115.988
11
132.78
21
-116.424
0
LINE
8
Black
10
132.78
20
-116.424
11
133.166
21
-116.747
0
LINE
8
Black
10
133.166
20
-116.747
11
133.639
21
-116.92
0
LINE
8
Black
10
133.639
20
-116.92
11
134.143
21
-116.92
0
LINE
8
Black
10
134.143
20
-116.92
11
134.616
21
-116.747
0
LINE
8
Black
10
134.616
20
-116.747
11
135.002
21
-116.424
0
LINE
8
Black
10
135.002
20
-116.424
11
135.253
21
-115.988
0
LINE
8
Black
10
135.253
20
-115.988
11
135.341
21
-115.492
0
LINE
8
Black
10
135.341
20
-115.492
11
135.253
21
-114.996
0
LINE
8
Black
10
135.253
20
-114.996
11
135.002
21
-114.56
  0
ENDSEC
  0
EOF
