G04 #@! TF.FileFunction,Copper,L1,Top,Signal*
%FSLAX46Y46*%
G04 Gerber Fmt 4.6, Leading zero omitted, Abs format (unit mm)*
G04 Created by KiCad (PCBNEW 4.0.5+dfsg1-4~bpo8+1) date Tue May  8 14:16:50 2018*
%MOMM*%
%LPD*%
G01*
G04 APERTURE LIST*
%ADD10C,0.100000*%
%ADD11C,1.000000*%
%ADD12R,1.100000X2.250000*%
%ADD13R,1.050000X1.100000*%
%ADD14R,1.524000X1.524000*%
%ADD15R,3.000000X1.300000*%
%ADD16R,0.950000X1.250000*%
%ADD17O,0.950000X1.250000*%
%ADD18R,0.500000X0.600000*%
%ADD19R,0.600000X0.500000*%
%ADD20R,0.797560X0.797560*%
%ADD21R,0.700000X1.300000*%
%ADD22R,0.510000X0.400000*%
%ADD23R,0.400000X0.600000*%
%ADD24R,2.032000X1.727200*%
%ADD25O,2.032000X1.727200*%
%ADD26O,0.500000X0.250000*%
%ADD27R,0.900000X2.000000*%
%ADD28R,0.400000X0.510000*%
%ADD29C,0.600000*%
%ADD30C,0.400000*%
%ADD31C,0.200000*%
%ADD32C,0.300000*%
%ADD33C,0.254000*%
G04 APERTURE END LIST*
D10*
D11*
X161550000Y-100700000D03*
X159000000Y-106350000D03*
X159000000Y-104350000D03*
X159000000Y-102350000D03*
X145350000Y-110900000D03*
X145350000Y-108900000D03*
X145350000Y-106900000D03*
X145350000Y-104900000D03*
X137800000Y-111400000D03*
X137800000Y-109400000D03*
X137800000Y-107400000D03*
X137800000Y-105400000D03*
D12*
X154325000Y-103200000D03*
X157275000Y-103200000D03*
D13*
X155800000Y-104750000D03*
D14*
X155800000Y-101000000D03*
D11*
X146220000Y-123340000D03*
X149710000Y-111090000D03*
X145350000Y-102900000D03*
X137010000Y-119500000D03*
X148100000Y-100500000D03*
X145950000Y-100900000D03*
X142250000Y-101950000D03*
X144200000Y-101400000D03*
X158900000Y-100450000D03*
X169600000Y-101900000D03*
X166950000Y-101400000D03*
X137410000Y-114800000D03*
X140050000Y-102650000D03*
X137800000Y-103400000D03*
X135950000Y-104050000D03*
X137750000Y-113250000D03*
X152700000Y-102200000D03*
X152700000Y-104100000D03*
X150390000Y-100240000D03*
X129600000Y-106250000D03*
X131826000Y-105410000D03*
X179100000Y-112600000D03*
X179200000Y-118900000D03*
X177500000Y-118900000D03*
X178000000Y-111400000D03*
X182100000Y-107000000D03*
X179600000Y-105200000D03*
X184300000Y-114700000D03*
X184300000Y-112700000D03*
X184300000Y-110700000D03*
X184300000Y-108700000D03*
X175100000Y-124600000D03*
X173000000Y-124600000D03*
X171000000Y-124600000D03*
X177000000Y-123200000D03*
X169000000Y-124600000D03*
X167200000Y-124600000D03*
X179200000Y-126600000D03*
X186000000Y-126600000D03*
X183900000Y-126600000D03*
X181500000Y-126600000D03*
X176920000Y-104020000D03*
X162750000Y-104350000D03*
X171050000Y-104300000D03*
X166850000Y-104300000D03*
X174600000Y-103200000D03*
X172150000Y-102450000D03*
X152750000Y-100150000D03*
X152700000Y-106000000D03*
X152720000Y-107820000D03*
X164200000Y-100950000D03*
X134000000Y-104650000D03*
X127370000Y-106840000D03*
X126470000Y-108450000D03*
X126520000Y-110320000D03*
X126520000Y-112420000D03*
X124920000Y-114720000D03*
X122520000Y-116420000D03*
X164900000Y-119300000D03*
X163200000Y-119300000D03*
X163200000Y-117600000D03*
X164900000Y-117600000D03*
D15*
X171310000Y-108060000D03*
X171310000Y-110060000D03*
X171310000Y-112060000D03*
X171310000Y-114060000D03*
X171310000Y-116060000D03*
X171310000Y-118060000D03*
X171310000Y-120060000D03*
X171310000Y-122060000D03*
X155310000Y-122060000D03*
X155310000Y-120060000D03*
X155310000Y-118060000D03*
X155310000Y-116060000D03*
X155310000Y-114060000D03*
X155310000Y-112060000D03*
X155310000Y-110060000D03*
X155310000Y-108060000D03*
D11*
X122600000Y-118300000D03*
X122600000Y-120100000D03*
D16*
X122630000Y-122770000D03*
D17*
X123880000Y-122770000D03*
D18*
X128020000Y-122540000D03*
X128020000Y-121440000D03*
X135670000Y-121940000D03*
X135670000Y-120840000D03*
X150900000Y-119350000D03*
X150900000Y-118250000D03*
X145600000Y-120650000D03*
X145600000Y-121750000D03*
X140100000Y-121950000D03*
X140100000Y-120850000D03*
D19*
X141050000Y-119300000D03*
X139950000Y-119300000D03*
X130070000Y-115530000D03*
X128970000Y-115530000D03*
D20*
X135019300Y-125840000D03*
X133520700Y-125840000D03*
X130420700Y-125840000D03*
X131919300Y-125840000D03*
D21*
X133710000Y-123740000D03*
X135610000Y-123740000D03*
D22*
X147750000Y-121000000D03*
X147750000Y-122000000D03*
X149050000Y-121500000D03*
X147850000Y-118400000D03*
X147850000Y-119400000D03*
X149150000Y-118900000D03*
D23*
X126170000Y-118540000D03*
X127070000Y-118540000D03*
X129870000Y-118540000D03*
X128970000Y-118540000D03*
X137420000Y-125740000D03*
X136520000Y-125740000D03*
X128020000Y-125740000D03*
X128920000Y-125740000D03*
X143350000Y-119300000D03*
X142450000Y-119300000D03*
D24*
X188520000Y-118040000D03*
D25*
X188520000Y-120580000D03*
X188520000Y-123120000D03*
X188520000Y-125660000D03*
D26*
X131820000Y-123590000D03*
X131820000Y-123090000D03*
X131820000Y-122590000D03*
X131820000Y-122090000D03*
X131820000Y-121590000D03*
X131820000Y-121090000D03*
X129920000Y-121090000D03*
X129920000Y-121590000D03*
X129920000Y-122090000D03*
X129920000Y-122590000D03*
X129920000Y-123090000D03*
X129920000Y-123590000D03*
D27*
X130870000Y-122340000D03*
D18*
X150900000Y-122050000D03*
X150900000Y-120950000D03*
D28*
X143100000Y-120750000D03*
X142100000Y-120750000D03*
X142600000Y-122050000D03*
D23*
X145650000Y-119300000D03*
X144750000Y-119300000D03*
D11*
X152200000Y-118200000D03*
X138700000Y-122800000D03*
X126400000Y-120600000D03*
X151290000Y-124620000D03*
X156840000Y-110060000D03*
X162000000Y-124200000D03*
X178500000Y-110100000D03*
X173700000Y-107800000D03*
X175100000Y-114500000D03*
X173900000Y-112900000D03*
X160300000Y-125100000D03*
X165500000Y-109000000D03*
X159500000Y-107800000D03*
X143800000Y-123300000D03*
X151400000Y-115200000D03*
X141800000Y-123300000D03*
X153650000Y-124030000D03*
X157000000Y-124600000D03*
X162200000Y-113500000D03*
X139300000Y-126200000D03*
X162600000Y-112300000D03*
X175200000Y-117300000D03*
X162500000Y-110900000D03*
X164300000Y-110700000D03*
X165400000Y-123700000D03*
X174700000Y-120100000D03*
X175300000Y-118600000D03*
X175100000Y-115900000D03*
X164010000Y-123480000D03*
X161900000Y-114700000D03*
X167890000Y-120560000D03*
X158600000Y-108700000D03*
X153000000Y-120900000D03*
D29*
X155800000Y-104750000D02*
X155800000Y-107570000D01*
X155800000Y-107570000D02*
X155310000Y-108060000D01*
D30*
X155800000Y-107570000D02*
X155310000Y-108060000D01*
X129920000Y-123590000D02*
X129920000Y-124290000D01*
X131820000Y-124370000D02*
X131820000Y-123590000D01*
X131640000Y-124550000D02*
X131820000Y-124370000D01*
X130180000Y-124550000D02*
X131640000Y-124550000D01*
X129920000Y-124290000D02*
X130180000Y-124550000D01*
X129920000Y-123590000D02*
X128020000Y-123590000D01*
D31*
X128100000Y-123500000D02*
X128020000Y-123500000D01*
X128100000Y-123510000D02*
X128100000Y-123500000D01*
X128020000Y-123590000D02*
X128100000Y-123510000D01*
D30*
X129920000Y-121590000D02*
X129920000Y-122090000D01*
X129920000Y-122090000D02*
X129010000Y-122090000D01*
X128560000Y-122540000D02*
X128020000Y-122540000D01*
X129010000Y-122090000D02*
X128560000Y-122540000D01*
X128020000Y-122540000D02*
X124110000Y-122540000D01*
D31*
X124110000Y-122540000D02*
X123880000Y-122770000D01*
D30*
X128020000Y-122540000D02*
X128020000Y-123500000D01*
X128020000Y-123500000D02*
X128020000Y-125740000D01*
X123880000Y-122770000D02*
X123880000Y-120830000D01*
X123880000Y-120830000D02*
X126170000Y-118540000D01*
D29*
X155310000Y-110060000D02*
X150740000Y-110060000D01*
X150740000Y-110060000D02*
X149710000Y-111090000D01*
D32*
X152400000Y-124620000D02*
X152920000Y-125140000D01*
X154640000Y-125140000D02*
X154840000Y-124940000D01*
X152920000Y-125140000D02*
X154640000Y-125140000D01*
X151290000Y-124620000D02*
X152400000Y-124620000D01*
X154840000Y-124940000D02*
X156580000Y-123200000D01*
D30*
X155310000Y-110060000D02*
X150798000Y-110060000D01*
X150798000Y-110060000D02*
X149548000Y-111310000D01*
D31*
X128970000Y-115530000D02*
X125730000Y-115530000D01*
X125730000Y-115530000D02*
X124920000Y-114720000D01*
X128970000Y-118540000D02*
X128970000Y-115530000D01*
D30*
X151230000Y-124518049D02*
X147318049Y-124518049D01*
X147318049Y-124518049D02*
X146100000Y-123300000D01*
X188520000Y-118040000D02*
X187260000Y-118040000D01*
X187260000Y-118040000D02*
X183900000Y-121400000D01*
X150900000Y-118250000D02*
X152150000Y-118250000D01*
X152150000Y-118250000D02*
X152200000Y-118200000D01*
D29*
X130870000Y-122340000D02*
X130870000Y-119600000D01*
D30*
X130870000Y-119600000D02*
X130900000Y-119570000D01*
D31*
X140100000Y-120850000D02*
X139850000Y-120850000D01*
X139850000Y-120850000D02*
X138700000Y-122000000D01*
X138700000Y-122000000D02*
X138700000Y-122800000D01*
X128020000Y-121440000D02*
X127240000Y-121440000D01*
X127240000Y-121440000D02*
X126400000Y-120600000D01*
X130900000Y-119900000D02*
X130900000Y-119570000D01*
X151190000Y-124520000D02*
X151230000Y-124518049D01*
X151290000Y-124620000D02*
X151190000Y-124520000D01*
X145600000Y-121750000D02*
X145600000Y-122800000D01*
X145600000Y-122800000D02*
X146100000Y-123300000D01*
X162000000Y-124200000D02*
X159100000Y-124200000D01*
X159100000Y-124200000D02*
X158600000Y-123700000D01*
X150900000Y-122050000D02*
X150900000Y-122400000D01*
X151700000Y-123200000D02*
X156580000Y-123200000D01*
X150900000Y-122400000D02*
X151700000Y-123200000D01*
X156580000Y-123200000D02*
X157100000Y-123200000D01*
X157100000Y-123200000D02*
X158100000Y-123200000D01*
X158100000Y-123200000D02*
X158600000Y-123700000D01*
X158600000Y-123700000D02*
X158900000Y-124000000D01*
X155310000Y-110060000D02*
X156840000Y-110060000D01*
X161200000Y-102900000D02*
X161100000Y-102900000D01*
X157400000Y-109500000D02*
X156840000Y-110060000D01*
X157400000Y-106600000D02*
X157400000Y-109500000D01*
X161100000Y-102900000D02*
X157400000Y-106600000D01*
X188520000Y-118040000D02*
X188520000Y-117320000D01*
X188520000Y-117320000D02*
X182800000Y-111600000D01*
X176200000Y-102900000D02*
X161200000Y-102900000D01*
X161200000Y-102900000D02*
X156975000Y-102900000D01*
X182800000Y-109500000D02*
X176200000Y-102900000D01*
X182800000Y-111600000D02*
X182800000Y-109500000D01*
X154025000Y-102900000D02*
X156975000Y-102900000D01*
D30*
X183900000Y-121400000D02*
X178000000Y-127300000D01*
X178000000Y-127300000D02*
X131100000Y-127300000D01*
D31*
X164900000Y-119300000D02*
X164900000Y-121500000D01*
X164900000Y-121500000D02*
X165460000Y-122060000D01*
X165460000Y-122060000D02*
X171310000Y-122060000D01*
X171310000Y-122790000D02*
X171310000Y-122060000D01*
X169200000Y-124900000D02*
X171310000Y-122790000D01*
X162700000Y-124900000D02*
X169200000Y-124900000D01*
X162000000Y-124200000D02*
X162700000Y-124900000D01*
X171310000Y-122060000D02*
X174640000Y-122060000D01*
X180100000Y-111700000D02*
X178500000Y-110100000D01*
X180100000Y-116600000D02*
X180100000Y-111700000D01*
X174640000Y-122060000D02*
X180100000Y-116600000D01*
X173440000Y-108060000D02*
X171310000Y-108060000D01*
X173700000Y-107800000D02*
X173440000Y-108060000D01*
X139950000Y-119300000D02*
X139950000Y-120700000D01*
X139950000Y-120700000D02*
X140100000Y-120850000D01*
X155260000Y-110060000D02*
X155310000Y-110060000D01*
X122600000Y-120100000D02*
X122600000Y-122740000D01*
X122600000Y-122740000D02*
X122630000Y-122770000D01*
X122600000Y-118300000D02*
X122600000Y-120100000D01*
X131820000Y-122590000D02*
X131120000Y-122590000D01*
X131120000Y-122590000D02*
X130870000Y-122340000D01*
X140100000Y-120850000D02*
X140100000Y-119450000D01*
X140100000Y-119450000D02*
X139950000Y-119300000D01*
X129920000Y-122590000D02*
X130620000Y-122590000D01*
X130620000Y-122590000D02*
X130870000Y-122340000D01*
X129920000Y-123090000D02*
X130120000Y-123090000D01*
X130120000Y-123090000D02*
X130870000Y-122340000D01*
X128020000Y-121440000D02*
X128020000Y-120780000D01*
X128900000Y-119900000D02*
X130900000Y-119900000D01*
X130900000Y-119900000D02*
X131500000Y-119900000D01*
X128020000Y-120780000D02*
X128900000Y-119900000D01*
X135670000Y-120840000D02*
X135670000Y-120670000D01*
X135670000Y-120670000D02*
X134900000Y-119900000D01*
X134900000Y-119900000D02*
X131500000Y-119900000D01*
X131500000Y-119900000D02*
X131300000Y-119900000D01*
X131300000Y-119900000D02*
X130870000Y-120330000D01*
X130870000Y-120330000D02*
X130870000Y-122340000D01*
D30*
X131919300Y-125840000D02*
X131919300Y-126480700D01*
X122630000Y-125530000D02*
X122630000Y-122770000D01*
X124400000Y-127300000D02*
X122630000Y-125530000D01*
X131100000Y-127300000D02*
X124400000Y-127300000D01*
X131919300Y-126480700D02*
X131100000Y-127300000D01*
D31*
X131919300Y-125840000D02*
X133520700Y-125840000D01*
D30*
X176400000Y-113200000D02*
X176400000Y-110400000D01*
X175100000Y-114500000D02*
X176400000Y-113200000D01*
X173900000Y-112900000D02*
X176400000Y-110400000D01*
X176400000Y-110400000D02*
X176400000Y-106800000D01*
X158800000Y-126200000D02*
X159800000Y-126200000D01*
X160300000Y-125700000D02*
X160300000Y-125100000D01*
X159800000Y-126200000D02*
X160300000Y-125700000D01*
X166200000Y-106800000D02*
X166200000Y-108300000D01*
X166200000Y-108300000D02*
X165500000Y-109000000D01*
D31*
X159500000Y-107800000D02*
X159500000Y-107600000D01*
D30*
X160300000Y-106800000D02*
X166200000Y-106800000D01*
X166200000Y-106800000D02*
X176400000Y-106800000D01*
X176400000Y-106800000D02*
X177300000Y-106800000D01*
X181100000Y-121600000D02*
X181100000Y-110600000D01*
X176500000Y-126200000D02*
X181100000Y-121600000D01*
X158800000Y-126200000D02*
X176500000Y-126200000D01*
X181100000Y-110600000D02*
X177300000Y-106800000D01*
X159500000Y-107600000D02*
X160300000Y-106800000D01*
X144100000Y-126200000D02*
X144100000Y-123600000D01*
D31*
X144100000Y-123600000D02*
X143800000Y-123300000D01*
D30*
X145600000Y-120650000D02*
X145950000Y-120650000D01*
X147300000Y-122000000D02*
X147750000Y-122000000D01*
X145950000Y-120650000D02*
X147300000Y-122000000D01*
X144750000Y-119300000D02*
X144750000Y-119800000D01*
X144750000Y-119800000D02*
X145600000Y-120650000D01*
X146100000Y-118100000D02*
X146900000Y-117300000D01*
X151400000Y-116300000D02*
X151400000Y-115200000D01*
X150400000Y-117300000D02*
X151400000Y-116300000D01*
X146900000Y-117300000D02*
X150400000Y-117300000D01*
X135610000Y-123740000D02*
X138740000Y-123740000D01*
X144100000Y-126200000D02*
X158800000Y-126200000D01*
X141200000Y-126200000D02*
X144100000Y-126200000D01*
X138740000Y-123740000D02*
X141200000Y-126200000D01*
X141050000Y-119300000D02*
X141050000Y-118100000D01*
D31*
X141050000Y-118100000D02*
X140700000Y-118100000D01*
D30*
X142450000Y-119300000D02*
X142450000Y-120400000D01*
X142450000Y-120400000D02*
X142100000Y-120750000D01*
X144750000Y-119300000D02*
X144750000Y-118550000D01*
X144750000Y-118550000D02*
X144300000Y-118100000D01*
X142470000Y-118100000D02*
X144300000Y-118100000D01*
X144300000Y-118100000D02*
X146100000Y-118100000D01*
D31*
X146100000Y-118100000D02*
X146200000Y-118100000D01*
X147500000Y-119400000D02*
X147850000Y-119400000D01*
D30*
X146200000Y-118100000D02*
X147500000Y-119400000D01*
X142470000Y-119270000D02*
X142470000Y-118100000D01*
D31*
X142470000Y-118100000D02*
X142470000Y-118100000D01*
X142470000Y-118100000D02*
X142500000Y-118100000D01*
D30*
X135670000Y-121940000D02*
X137860000Y-121940000D01*
X139300000Y-118100000D02*
X140700000Y-118100000D01*
X140700000Y-118100000D02*
X142500000Y-118100000D01*
X138800000Y-118600000D02*
X139300000Y-118100000D01*
X138800000Y-121000000D02*
X138800000Y-118600000D01*
X137860000Y-121940000D02*
X138800000Y-121000000D01*
X131820000Y-121590000D02*
X135320000Y-121590000D01*
X135320000Y-121590000D02*
X135670000Y-121940000D01*
X135610000Y-123740000D02*
X135610000Y-122000000D01*
D31*
X135610000Y-122000000D02*
X135670000Y-121940000D01*
D30*
X152500000Y-119350000D02*
X152950000Y-119350000D01*
X152950000Y-119350000D02*
X153300000Y-119000000D01*
X150900000Y-119350000D02*
X152500000Y-119350000D01*
X150900000Y-119350000D02*
X150950000Y-119350000D01*
X153340000Y-116060000D02*
X155310000Y-116060000D01*
X153300000Y-116100000D02*
X153340000Y-116060000D01*
X153300000Y-119000000D02*
X153300000Y-116100000D01*
D31*
X155310000Y-116060000D02*
X154040000Y-116060000D01*
X155310000Y-116060000D02*
X153940000Y-116060000D01*
D30*
X150900000Y-119350000D02*
X149600000Y-119350000D01*
X149600000Y-119350000D02*
X149150000Y-118900000D01*
X140100000Y-121950000D02*
X140450000Y-121950000D01*
X140450000Y-121950000D02*
X141800000Y-123300000D01*
X142600000Y-122050000D02*
X142600000Y-122500000D01*
X142600000Y-122500000D02*
X141800000Y-123300000D01*
D31*
X135019300Y-125840000D02*
X136420000Y-125840000D01*
X136420000Y-125840000D02*
X136520000Y-125740000D01*
X130420700Y-125840000D02*
X129020000Y-125840000D01*
X129020000Y-125840000D02*
X128920000Y-125740000D01*
D30*
X133710000Y-123740000D02*
X133240000Y-123740000D01*
X132590000Y-123090000D02*
X131820000Y-123090000D01*
X133240000Y-123740000D02*
X132590000Y-123090000D01*
D31*
X151120000Y-123720000D02*
X153340000Y-123720000D01*
X153340000Y-123720000D02*
X153650000Y-124030000D01*
X148800000Y-122400000D02*
X148400000Y-122000000D01*
X149800000Y-122400000D02*
X148800000Y-122400000D01*
X151120000Y-123720000D02*
X149800000Y-122400000D01*
X148400000Y-122000000D02*
X148400000Y-121650000D01*
X148400000Y-121650000D02*
X147750000Y-121000000D01*
X147750000Y-121000000D02*
X147350000Y-121000000D01*
X147350000Y-121000000D02*
X146600000Y-120250000D01*
X146600000Y-120250000D02*
X145650000Y-119300000D01*
X147850000Y-118400000D02*
X147900000Y-118400000D01*
X147900000Y-118400000D02*
X148500000Y-119000000D01*
X148500000Y-120250000D02*
X147750000Y-121000000D01*
X148500000Y-119000000D02*
X148500000Y-120250000D01*
X157000000Y-124600000D02*
X157000000Y-124900000D01*
X144800000Y-124100000D02*
X144800000Y-123000000D01*
X146300000Y-125600000D02*
X144800000Y-124100000D01*
X156300000Y-125600000D02*
X146300000Y-125600000D01*
X157000000Y-124900000D02*
X156300000Y-125600000D01*
X144800000Y-123000000D02*
X144700000Y-122900000D01*
X143100000Y-120750000D02*
X143100000Y-121300000D01*
X143100000Y-121300000D02*
X144700000Y-122900000D01*
X143100000Y-120750000D02*
X143100000Y-119550000D01*
X143100000Y-119550000D02*
X143350000Y-119300000D01*
X129870000Y-118540000D02*
X135120000Y-118540000D01*
X138360000Y-115300000D02*
X140000000Y-115300000D01*
X135120000Y-118540000D02*
X138360000Y-115300000D01*
X150950000Y-114100000D02*
X152060000Y-114100000D01*
X161100000Y-113600000D02*
X162100000Y-113600000D01*
X162100000Y-113600000D02*
X162200000Y-113500000D01*
X159700000Y-115000000D02*
X161100000Y-113600000D01*
X153020000Y-115060000D02*
X159640000Y-115060000D01*
X159640000Y-115060000D02*
X159700000Y-115000000D01*
X140000000Y-115300000D02*
X149300000Y-115300000D01*
X149300000Y-115300000D02*
X150500000Y-114100000D01*
X150500000Y-114100000D02*
X150950000Y-114100000D01*
X152060000Y-114100000D02*
X153020000Y-115060000D01*
X129870000Y-118540000D02*
X129870000Y-115730000D01*
X129870000Y-115730000D02*
X130070000Y-115530000D01*
X127070000Y-118540000D02*
X127070000Y-118810000D01*
X127070000Y-118810000D02*
X127620000Y-119360000D01*
X127620000Y-119360000D02*
X129520000Y-119360000D01*
X129520000Y-119360000D02*
X129870000Y-119010000D01*
X129870000Y-119010000D02*
X129870000Y-118540000D01*
X129870000Y-115740000D02*
X130070000Y-115540000D01*
X138840000Y-125740000D02*
X137420000Y-125740000D01*
X139300000Y-126200000D02*
X138840000Y-125740000D01*
X162600000Y-112300000D02*
X161900000Y-112300000D01*
X157040000Y-114060000D02*
X155310000Y-114060000D01*
X158200000Y-112900000D02*
X157040000Y-114060000D01*
X161300000Y-112900000D02*
X158200000Y-112900000D01*
X161900000Y-112300000D02*
X161300000Y-112900000D01*
X173960000Y-116060000D02*
X171310000Y-116060000D01*
X175200000Y-117300000D02*
X173960000Y-116060000D01*
X161340000Y-112060000D02*
X155310000Y-112060000D01*
X162500000Y-110900000D02*
X161340000Y-112060000D01*
X164940000Y-110060000D02*
X171310000Y-110060000D01*
X164300000Y-110700000D02*
X164940000Y-110060000D01*
X162460000Y-122060000D02*
X155310000Y-122060000D01*
X162900000Y-122500000D02*
X162460000Y-122060000D01*
X162900000Y-123800000D02*
X162900000Y-122500000D01*
X163500000Y-124400000D02*
X162900000Y-123800000D01*
X164700000Y-124400000D02*
X163500000Y-124400000D01*
X165400000Y-123700000D02*
X164700000Y-124400000D01*
X174660000Y-120060000D02*
X171310000Y-120060000D01*
X174700000Y-120100000D02*
X174660000Y-120060000D01*
X175300000Y-118600000D02*
X171850000Y-118600000D01*
X171850000Y-118600000D02*
X171310000Y-118060000D01*
X173260000Y-114060000D02*
X171310000Y-114060000D01*
X175100000Y-115900000D02*
X173260000Y-114060000D01*
X172660000Y-114060000D02*
X171310000Y-114060000D01*
X164080000Y-123550000D02*
X164080000Y-121890000D01*
X164010000Y-123480000D02*
X164080000Y-123550000D01*
X163090000Y-120900000D02*
X156150000Y-120900000D01*
X156150000Y-120900000D02*
X155310000Y-120060000D01*
X164080000Y-121890000D02*
X163090000Y-120900000D01*
X160940000Y-118060000D02*
X155310000Y-118060000D01*
X161700000Y-117300000D02*
X160940000Y-118060000D01*
X161700000Y-114900000D02*
X161700000Y-117300000D01*
X161900000Y-114700000D02*
X161700000Y-114900000D01*
X156140000Y-118060000D02*
X155310000Y-118060000D01*
X160200000Y-108900000D02*
X162600000Y-108900000D01*
X167900000Y-115900000D02*
X167890000Y-120560000D01*
X163400000Y-111400000D02*
X167900000Y-115900000D01*
X163400000Y-109700000D02*
X163400000Y-111400000D01*
X162600000Y-108900000D02*
X163400000Y-109700000D01*
X158700000Y-108900000D02*
X160200000Y-108900000D01*
X158800000Y-108900000D02*
X158700000Y-108900000D01*
X158600000Y-108700000D02*
X158800000Y-108900000D01*
D30*
X150900000Y-120950000D02*
X152950000Y-120950000D01*
D31*
X152950000Y-120950000D02*
X153000000Y-120900000D01*
X149050000Y-121500000D02*
X149050000Y-121450000D01*
D30*
X149050000Y-121450000D02*
X149550000Y-120950000D01*
X149550000Y-120950000D02*
X150900000Y-120950000D01*
D33*
G36*
X154463913Y-99964634D02*
X154403000Y-100111690D01*
X154403000Y-100714250D01*
X154561750Y-100873000D01*
X155673000Y-100873000D01*
X155673000Y-100853000D01*
X155927000Y-100853000D01*
X155927000Y-100873000D01*
X157038250Y-100873000D01*
X157197000Y-100714250D01*
X157197000Y-100225426D01*
X175583727Y-101979897D01*
X187550529Y-106936709D01*
X186914126Y-107515412D01*
X186842190Y-107612739D01*
X186766659Y-107707285D01*
X185959433Y-109266537D01*
X185912229Y-109429860D01*
X185885222Y-109523302D01*
X185736143Y-111272773D01*
X185765840Y-111538392D01*
X186297603Y-113211744D01*
X186426687Y-113445779D01*
X187558335Y-114788258D01*
X187744816Y-114937233D01*
X187767155Y-114955079D01*
X189326407Y-115762305D01*
X189583171Y-115836516D01*
X190705804Y-115932180D01*
X190705804Y-127349399D01*
X121075804Y-127349399D01*
X121075804Y-123055750D01*
X121520000Y-123055750D01*
X121520000Y-123521310D01*
X121616673Y-123754699D01*
X121795302Y-123933327D01*
X122028691Y-124030000D01*
X122344250Y-124030000D01*
X122503000Y-123871250D01*
X122503000Y-122897000D01*
X121678750Y-122897000D01*
X121520000Y-123055750D01*
X121075804Y-123055750D01*
X121075804Y-122018690D01*
X121520000Y-122018690D01*
X121520000Y-122484250D01*
X121678750Y-122643000D01*
X122503000Y-122643000D01*
X122503000Y-121668750D01*
X122757000Y-121668750D01*
X122757000Y-122643000D01*
X122770000Y-122643000D01*
X122770000Y-122897000D01*
X122757000Y-122897000D01*
X122757000Y-123871250D01*
X122915750Y-124030000D01*
X123231309Y-124030000D01*
X123424790Y-123949858D01*
X123455221Y-123970191D01*
X123880000Y-124054685D01*
X124304779Y-123970191D01*
X124664889Y-123729574D01*
X124901807Y-123375000D01*
X127185000Y-123375000D01*
X127185000Y-125378569D01*
X127172560Y-125440000D01*
X127172560Y-126040000D01*
X127216838Y-126275317D01*
X127355910Y-126491441D01*
X127568110Y-126636431D01*
X127820000Y-126687440D01*
X128220000Y-126687440D01*
X128455317Y-126643162D01*
X128466979Y-126635658D01*
X128468110Y-126636431D01*
X128720000Y-126687440D01*
X129120000Y-126687440D01*
X129355317Y-126643162D01*
X129461244Y-126575000D01*
X129483687Y-126575000D01*
X129557830Y-126690221D01*
X129770030Y-126835211D01*
X130021920Y-126886220D01*
X130819480Y-126886220D01*
X131054797Y-126841942D01*
X131158759Y-126775044D01*
X131160822Y-126777107D01*
X131394211Y-126873780D01*
X131633550Y-126873780D01*
X131792300Y-126715030D01*
X131792300Y-125967000D01*
X132046300Y-125967000D01*
X132046300Y-126715030D01*
X132205050Y-126873780D01*
X132444389Y-126873780D01*
X132677778Y-126777107D01*
X132720000Y-126734885D01*
X132762222Y-126777107D01*
X132995611Y-126873780D01*
X133234950Y-126873780D01*
X133393700Y-126715030D01*
X133393700Y-125967000D01*
X132046300Y-125967000D01*
X131792300Y-125967000D01*
X131772300Y-125967000D01*
X131772300Y-125713000D01*
X131792300Y-125713000D01*
X131792300Y-125693000D01*
X132046300Y-125693000D01*
X132046300Y-125713000D01*
X133393700Y-125713000D01*
X133393700Y-125693000D01*
X133647700Y-125693000D01*
X133647700Y-125713000D01*
X133667700Y-125713000D01*
X133667700Y-125967000D01*
X133647700Y-125967000D01*
X133647700Y-126715030D01*
X133806450Y-126873780D01*
X134045789Y-126873780D01*
X134279178Y-126777107D01*
X134280970Y-126775315D01*
X134368630Y-126835211D01*
X134620520Y-126886220D01*
X135418080Y-126886220D01*
X135653397Y-126841942D01*
X135869521Y-126702870D01*
X135956891Y-126575000D01*
X135978203Y-126575000D01*
X136068110Y-126636431D01*
X136320000Y-126687440D01*
X136720000Y-126687440D01*
X136955317Y-126643162D01*
X136966979Y-126635658D01*
X136968110Y-126636431D01*
X137220000Y-126687440D01*
X137620000Y-126687440D01*
X137855317Y-126643162D01*
X138071441Y-126504090D01*
X138091317Y-126475000D01*
X138185556Y-126475000D01*
X138337233Y-126842086D01*
X138656235Y-127161645D01*
X139073244Y-127334803D01*
X139524775Y-127335197D01*
X139942086Y-127162767D01*
X140261645Y-126843765D01*
X140379374Y-126560242D01*
X140609566Y-126790434D01*
X140880459Y-126971439D01*
X141200000Y-127035000D01*
X176500000Y-127035000D01*
X176819541Y-126971439D01*
X177090434Y-126790434D01*
X181690434Y-122190434D01*
X181707560Y-122164803D01*
X181871439Y-121919541D01*
X181935000Y-121600000D01*
X181935000Y-120580000D01*
X186836655Y-120580000D01*
X186950729Y-121153489D01*
X187275585Y-121639670D01*
X187590366Y-121850000D01*
X187275585Y-122060330D01*
X186950729Y-122546511D01*
X186836655Y-123120000D01*
X186950729Y-123693489D01*
X187275585Y-124179670D01*
X187590366Y-124390000D01*
X187275585Y-124600330D01*
X186950729Y-125086511D01*
X186836655Y-125660000D01*
X186950729Y-126233489D01*
X187275585Y-126719670D01*
X187761766Y-127044526D01*
X188335255Y-127158600D01*
X188704745Y-127158600D01*
X189278234Y-127044526D01*
X189764415Y-126719670D01*
X190089271Y-126233489D01*
X190203345Y-125660000D01*
X190089271Y-125086511D01*
X189764415Y-124600330D01*
X189449634Y-124390000D01*
X189764415Y-124179670D01*
X190089271Y-123693489D01*
X190203345Y-123120000D01*
X190089271Y-122546511D01*
X189764415Y-122060330D01*
X189449634Y-121850000D01*
X189764415Y-121639670D01*
X190089271Y-121153489D01*
X190203345Y-120580000D01*
X190089271Y-120006511D01*
X189764415Y-119520330D01*
X189742220Y-119505500D01*
X189895698Y-119441927D01*
X190074327Y-119263299D01*
X190171000Y-119029910D01*
X190171000Y-118325750D01*
X190012250Y-118167000D01*
X188647000Y-118167000D01*
X188647000Y-118187000D01*
X188393000Y-118187000D01*
X188393000Y-118167000D01*
X187027750Y-118167000D01*
X186869000Y-118325750D01*
X186869000Y-119029910D01*
X186965673Y-119263299D01*
X187144302Y-119441927D01*
X187297780Y-119505500D01*
X187275585Y-119520330D01*
X186950729Y-120006511D01*
X186836655Y-120580000D01*
X181935000Y-120580000D01*
X181935000Y-117050090D01*
X186869000Y-117050090D01*
X186869000Y-117754250D01*
X187027750Y-117913000D01*
X188393000Y-117913000D01*
X188393000Y-116700150D01*
X188647000Y-116700150D01*
X188647000Y-117913000D01*
X190012250Y-117913000D01*
X190171000Y-117754250D01*
X190171000Y-117050090D01*
X190074327Y-116816701D01*
X189895698Y-116638073D01*
X189662309Y-116541400D01*
X188805750Y-116541400D01*
X188647000Y-116700150D01*
X188393000Y-116700150D01*
X188234250Y-116541400D01*
X187377691Y-116541400D01*
X187144302Y-116638073D01*
X186965673Y-116816701D01*
X186869000Y-117050090D01*
X181935000Y-117050090D01*
X181935000Y-110600000D01*
X181898943Y-110418728D01*
X181871440Y-110280460D01*
X181690434Y-110009566D01*
X177890434Y-106209566D01*
X177828296Y-106168047D01*
X177619541Y-106028561D01*
X177300000Y-105965000D01*
X160300000Y-105965000D01*
X159980459Y-106028561D01*
X159771704Y-106168047D01*
X159709566Y-106209566D01*
X159239615Y-106679517D01*
X158857914Y-106837233D01*
X158538355Y-107156235D01*
X158367351Y-107568056D01*
X157957914Y-107737233D01*
X157638355Y-108056235D01*
X157465197Y-108473244D01*
X157464803Y-108924775D01*
X157637233Y-109342086D01*
X157956235Y-109661645D01*
X158373244Y-109834803D01*
X158824775Y-109835197D01*
X159242086Y-109662767D01*
X159269901Y-109635000D01*
X162295554Y-109635000D01*
X162425488Y-109764934D01*
X162275225Y-109764803D01*
X161857914Y-109937233D01*
X161538355Y-110256235D01*
X161365197Y-110673244D01*
X161364916Y-110995638D01*
X161035554Y-111325000D01*
X157441446Y-111325000D01*
X157413162Y-111174683D01*
X157346672Y-111071354D01*
X157348327Y-111069699D01*
X157445000Y-110836310D01*
X157445000Y-110345750D01*
X157286250Y-110187000D01*
X155437000Y-110187000D01*
X155437000Y-110207000D01*
X155183000Y-110207000D01*
X155183000Y-110187000D01*
X153333750Y-110187000D01*
X153175000Y-110345750D01*
X153175000Y-110836310D01*
X153271673Y-111069699D01*
X153273042Y-111071068D01*
X153213569Y-111158110D01*
X153162560Y-111410000D01*
X153162560Y-112710000D01*
X153206838Y-112945317D01*
X153280620Y-113059978D01*
X153213569Y-113158110D01*
X153162560Y-113410000D01*
X153162560Y-114163114D01*
X152579723Y-113580277D01*
X152341272Y-113420949D01*
X152060000Y-113365000D01*
X150500000Y-113365000D01*
X150218728Y-113420949D01*
X149980276Y-113580277D01*
X148995554Y-114565000D01*
X138360000Y-114565000D01*
X138080769Y-114620543D01*
X138078728Y-114620949D01*
X137840277Y-114780276D01*
X134815554Y-117805000D01*
X130605000Y-117805000D01*
X130605000Y-116383222D01*
X130605317Y-116383162D01*
X130821441Y-116244090D01*
X130966431Y-116031890D01*
X131017440Y-115780000D01*
X131017440Y-115491758D01*
X131705804Y-115491758D01*
X131872127Y-116327921D01*
X132345776Y-117036786D01*
X133054641Y-117510435D01*
X133890804Y-117676758D01*
X134726967Y-117510435D01*
X135435832Y-117036786D01*
X135909481Y-116327921D01*
X136075804Y-115491758D01*
X135909481Y-114655595D01*
X135435832Y-113946730D01*
X134726967Y-113473081D01*
X133890804Y-113306758D01*
X133054641Y-113473081D01*
X132345776Y-113946730D01*
X131872127Y-114655595D01*
X131705804Y-115491758D01*
X131017440Y-115491758D01*
X131017440Y-115280000D01*
X130973162Y-115044683D01*
X130834090Y-114828559D01*
X130621890Y-114683569D01*
X130370000Y-114632560D01*
X129770000Y-114632560D01*
X129534683Y-114676838D01*
X129510594Y-114692339D01*
X129396309Y-114645000D01*
X129255750Y-114645000D01*
X129097000Y-114803750D01*
X129097000Y-115405000D01*
X129117000Y-115405000D01*
X129117000Y-115655000D01*
X129097000Y-115655000D01*
X129097000Y-116256250D01*
X129135000Y-116294250D01*
X129135000Y-117698750D01*
X129070000Y-117763750D01*
X129070000Y-118005734D01*
X129022560Y-118240000D01*
X129022560Y-118625000D01*
X127924447Y-118625000D01*
X127917440Y-118617993D01*
X127917440Y-118240000D01*
X127893674Y-118113690D01*
X128135000Y-118113690D01*
X128135000Y-118254250D01*
X128293750Y-118413000D01*
X128870000Y-118413000D01*
X128870000Y-117763750D01*
X128711250Y-117605000D01*
X128643691Y-117605000D01*
X128410302Y-117701673D01*
X128231673Y-117880301D01*
X128135000Y-118113690D01*
X127893674Y-118113690D01*
X127873162Y-118004683D01*
X127734090Y-117788559D01*
X127521890Y-117643569D01*
X127270000Y-117592560D01*
X126870000Y-117592560D01*
X126634683Y-117636838D01*
X126623021Y-117644342D01*
X126621890Y-117643569D01*
X126370000Y-117592560D01*
X125970000Y-117592560D01*
X125734683Y-117636838D01*
X125518559Y-117775910D01*
X125373569Y-117988110D01*
X125331048Y-118198084D01*
X123289566Y-120239566D01*
X123108561Y-120510459D01*
X123045000Y-120830000D01*
X123045000Y-121510000D01*
X122915750Y-121510000D01*
X122757000Y-121668750D01*
X122503000Y-121668750D01*
X122344250Y-121510000D01*
X122028691Y-121510000D01*
X121795302Y-121606673D01*
X121616673Y-121785301D01*
X121520000Y-122018690D01*
X121075804Y-122018690D01*
X121075804Y-115956314D01*
X121844816Y-115919797D01*
X121962262Y-115890582D01*
X122080711Y-115865801D01*
X122202939Y-115813750D01*
X128035000Y-115813750D01*
X128035000Y-115906310D01*
X128131673Y-116139699D01*
X128310302Y-116318327D01*
X128543691Y-116415000D01*
X128684250Y-116415000D01*
X128843000Y-116256250D01*
X128843000Y-115655000D01*
X128193750Y-115655000D01*
X128035000Y-115813750D01*
X122202939Y-115813750D01*
X123696143Y-115177868D01*
X123731564Y-115153690D01*
X128035000Y-115153690D01*
X128035000Y-115246250D01*
X128193750Y-115405000D01*
X128843000Y-115405000D01*
X128843000Y-114803750D01*
X128684250Y-114645000D01*
X128543691Y-114645000D01*
X128310302Y-114741673D01*
X128131673Y-114920301D01*
X128035000Y-115153690D01*
X123731564Y-115153690D01*
X123916893Y-115027187D01*
X125146100Y-113773420D01*
X125292383Y-113549732D01*
X125948225Y-111921006D01*
X125997772Y-111658364D01*
X125980404Y-109902637D01*
X125960932Y-109809566D01*
X125925671Y-109641027D01*
X125237737Y-108025594D01*
X125087057Y-107804844D01*
X125087054Y-107804842D01*
X124684323Y-107410000D01*
X153162560Y-107410000D01*
X153162560Y-108710000D01*
X153206838Y-108945317D01*
X153273328Y-109048646D01*
X153271673Y-109050301D01*
X153175000Y-109283690D01*
X153175000Y-109774250D01*
X153333750Y-109933000D01*
X155183000Y-109933000D01*
X155183000Y-109913000D01*
X155437000Y-109913000D01*
X155437000Y-109933000D01*
X157286250Y-109933000D01*
X157445000Y-109774250D01*
X157445000Y-109283690D01*
X157348327Y-109050301D01*
X157346958Y-109048932D01*
X157406431Y-108961890D01*
X157457440Y-108710000D01*
X157457440Y-107410000D01*
X157413162Y-107174683D01*
X157274090Y-106958559D01*
X157061890Y-106813569D01*
X156810000Y-106762560D01*
X156735000Y-106762560D01*
X156735000Y-105790757D01*
X156776441Y-105764090D01*
X156921431Y-105551890D01*
X156972440Y-105300000D01*
X156972440Y-104960000D01*
X156989250Y-104960000D01*
X157148000Y-104801250D01*
X157148000Y-103327000D01*
X157402000Y-103327000D01*
X157402000Y-104801250D01*
X157560750Y-104960000D01*
X157951309Y-104960000D01*
X158184698Y-104863327D01*
X158363327Y-104684699D01*
X158460000Y-104451310D01*
X158460000Y-103485750D01*
X158301250Y-103327000D01*
X157402000Y-103327000D01*
X157148000Y-103327000D01*
X156248750Y-103327000D01*
X156090000Y-103485750D01*
X156090000Y-103552560D01*
X155510000Y-103552560D01*
X155510000Y-103485750D01*
X155351250Y-103327000D01*
X154452000Y-103327000D01*
X154452000Y-104801250D01*
X154610750Y-104960000D01*
X154627560Y-104960000D01*
X154627560Y-105300000D01*
X154671838Y-105535317D01*
X154810910Y-105751441D01*
X154865000Y-105788399D01*
X154865000Y-106762560D01*
X153810000Y-106762560D01*
X153574683Y-106806838D01*
X153358559Y-106945910D01*
X153213569Y-107158110D01*
X153162560Y-107410000D01*
X124684323Y-107410000D01*
X124281433Y-107015003D01*
X135789665Y-103485750D01*
X153140000Y-103485750D01*
X153140000Y-104451310D01*
X153236673Y-104684699D01*
X153415302Y-104863327D01*
X153648691Y-104960000D01*
X154039250Y-104960000D01*
X154198000Y-104801250D01*
X154198000Y-103327000D01*
X153298750Y-103327000D01*
X153140000Y-103485750D01*
X135789665Y-103485750D01*
X140801729Y-101948690D01*
X153140000Y-101948690D01*
X153140000Y-102914250D01*
X153298750Y-103073000D01*
X154198000Y-103073000D01*
X154198000Y-101598750D01*
X154039250Y-101440000D01*
X153648691Y-101440000D01*
X153415302Y-101536673D01*
X153236673Y-101715301D01*
X153140000Y-101948690D01*
X140801729Y-101948690D01*
X142963452Y-101285750D01*
X154403000Y-101285750D01*
X154403000Y-101888310D01*
X154452000Y-102006606D01*
X154452000Y-103073000D01*
X155351250Y-103073000D01*
X155510000Y-102914250D01*
X155510000Y-102397000D01*
X155514250Y-102397000D01*
X155673000Y-102238250D01*
X155673000Y-101127000D01*
X155927000Y-101127000D01*
X155927000Y-102238250D01*
X156085750Y-102397000D01*
X156090000Y-102397000D01*
X156090000Y-102914250D01*
X156248750Y-103073000D01*
X157148000Y-103073000D01*
X157148000Y-102006606D01*
X157197000Y-101888310D01*
X157197000Y-101598750D01*
X157402000Y-101598750D01*
X157402000Y-103073000D01*
X158301250Y-103073000D01*
X158460000Y-102914250D01*
X158460000Y-101948690D01*
X158363327Y-101715301D01*
X158184698Y-101536673D01*
X157951309Y-101440000D01*
X157560750Y-101440000D01*
X157402000Y-101598750D01*
X157197000Y-101598750D01*
X157197000Y-101285750D01*
X157038250Y-101127000D01*
X155927000Y-101127000D01*
X155673000Y-101127000D01*
X154561750Y-101127000D01*
X154403000Y-101285750D01*
X142963452Y-101285750D01*
X148978228Y-99441187D01*
X154463913Y-99964634D01*
X154463913Y-99964634D01*
G37*
X154463913Y-99964634D02*
X154403000Y-100111690D01*
X154403000Y-100714250D01*
X154561750Y-100873000D01*
X155673000Y-100873000D01*
X155673000Y-100853000D01*
X155927000Y-100853000D01*
X155927000Y-100873000D01*
X157038250Y-100873000D01*
X157197000Y-100714250D01*
X157197000Y-100225426D01*
X175583727Y-101979897D01*
X187550529Y-106936709D01*
X186914126Y-107515412D01*
X186842190Y-107612739D01*
X186766659Y-107707285D01*
X185959433Y-109266537D01*
X185912229Y-109429860D01*
X185885222Y-109523302D01*
X185736143Y-111272773D01*
X185765840Y-111538392D01*
X186297603Y-113211744D01*
X186426687Y-113445779D01*
X187558335Y-114788258D01*
X187744816Y-114937233D01*
X187767155Y-114955079D01*
X189326407Y-115762305D01*
X189583171Y-115836516D01*
X190705804Y-115932180D01*
X190705804Y-127349399D01*
X121075804Y-127349399D01*
X121075804Y-123055750D01*
X121520000Y-123055750D01*
X121520000Y-123521310D01*
X121616673Y-123754699D01*
X121795302Y-123933327D01*
X122028691Y-124030000D01*
X122344250Y-124030000D01*
X122503000Y-123871250D01*
X122503000Y-122897000D01*
X121678750Y-122897000D01*
X121520000Y-123055750D01*
X121075804Y-123055750D01*
X121075804Y-122018690D01*
X121520000Y-122018690D01*
X121520000Y-122484250D01*
X121678750Y-122643000D01*
X122503000Y-122643000D01*
X122503000Y-121668750D01*
X122757000Y-121668750D01*
X122757000Y-122643000D01*
X122770000Y-122643000D01*
X122770000Y-122897000D01*
X122757000Y-122897000D01*
X122757000Y-123871250D01*
X122915750Y-124030000D01*
X123231309Y-124030000D01*
X123424790Y-123949858D01*
X123455221Y-123970191D01*
X123880000Y-124054685D01*
X124304779Y-123970191D01*
X124664889Y-123729574D01*
X124901807Y-123375000D01*
X127185000Y-123375000D01*
X127185000Y-125378569D01*
X127172560Y-125440000D01*
X127172560Y-126040000D01*
X127216838Y-126275317D01*
X127355910Y-126491441D01*
X127568110Y-126636431D01*
X127820000Y-126687440D01*
X128220000Y-126687440D01*
X128455317Y-126643162D01*
X128466979Y-126635658D01*
X128468110Y-126636431D01*
X128720000Y-126687440D01*
X129120000Y-126687440D01*
X129355317Y-126643162D01*
X129461244Y-126575000D01*
X129483687Y-126575000D01*
X129557830Y-126690221D01*
X129770030Y-126835211D01*
X130021920Y-126886220D01*
X130819480Y-126886220D01*
X131054797Y-126841942D01*
X131158759Y-126775044D01*
X131160822Y-126777107D01*
X131394211Y-126873780D01*
X131633550Y-126873780D01*
X131792300Y-126715030D01*
X131792300Y-125967000D01*
X132046300Y-125967000D01*
X132046300Y-126715030D01*
X132205050Y-126873780D01*
X132444389Y-126873780D01*
X132677778Y-126777107D01*
X132720000Y-126734885D01*
X132762222Y-126777107D01*
X132995611Y-126873780D01*
X133234950Y-126873780D01*
X133393700Y-126715030D01*
X133393700Y-125967000D01*
X132046300Y-125967000D01*
X131792300Y-125967000D01*
X131772300Y-125967000D01*
X131772300Y-125713000D01*
X131792300Y-125713000D01*
X131792300Y-125693000D01*
X132046300Y-125693000D01*
X132046300Y-125713000D01*
X133393700Y-125713000D01*
X133393700Y-125693000D01*
X133647700Y-125693000D01*
X133647700Y-125713000D01*
X133667700Y-125713000D01*
X133667700Y-125967000D01*
X133647700Y-125967000D01*
X133647700Y-126715030D01*
X133806450Y-126873780D01*
X134045789Y-126873780D01*
X134279178Y-126777107D01*
X134280970Y-126775315D01*
X134368630Y-126835211D01*
X134620520Y-126886220D01*
X135418080Y-126886220D01*
X135653397Y-126841942D01*
X135869521Y-126702870D01*
X135956891Y-126575000D01*
X135978203Y-126575000D01*
X136068110Y-126636431D01*
X136320000Y-126687440D01*
X136720000Y-126687440D01*
X136955317Y-126643162D01*
X136966979Y-126635658D01*
X136968110Y-126636431D01*
X137220000Y-126687440D01*
X137620000Y-126687440D01*
X137855317Y-126643162D01*
X138071441Y-126504090D01*
X138091317Y-126475000D01*
X138185556Y-126475000D01*
X138337233Y-126842086D01*
X138656235Y-127161645D01*
X139073244Y-127334803D01*
X139524775Y-127335197D01*
X139942086Y-127162767D01*
X140261645Y-126843765D01*
X140379374Y-126560242D01*
X140609566Y-126790434D01*
X140880459Y-126971439D01*
X141200000Y-127035000D01*
X176500000Y-127035000D01*
X176819541Y-126971439D01*
X177090434Y-126790434D01*
X181690434Y-122190434D01*
X181707560Y-122164803D01*
X181871439Y-121919541D01*
X181935000Y-121600000D01*
X181935000Y-120580000D01*
X186836655Y-120580000D01*
X186950729Y-121153489D01*
X187275585Y-121639670D01*
X187590366Y-121850000D01*
X187275585Y-122060330D01*
X186950729Y-122546511D01*
X186836655Y-123120000D01*
X186950729Y-123693489D01*
X187275585Y-124179670D01*
X187590366Y-124390000D01*
X187275585Y-124600330D01*
X186950729Y-125086511D01*
X186836655Y-125660000D01*
X186950729Y-126233489D01*
X187275585Y-126719670D01*
X187761766Y-127044526D01*
X188335255Y-127158600D01*
X188704745Y-127158600D01*
X189278234Y-127044526D01*
X189764415Y-126719670D01*
X190089271Y-126233489D01*
X190203345Y-125660000D01*
X190089271Y-125086511D01*
X189764415Y-124600330D01*
X189449634Y-124390000D01*
X189764415Y-124179670D01*
X190089271Y-123693489D01*
X190203345Y-123120000D01*
X190089271Y-122546511D01*
X189764415Y-122060330D01*
X189449634Y-121850000D01*
X189764415Y-121639670D01*
X190089271Y-121153489D01*
X190203345Y-120580000D01*
X190089271Y-120006511D01*
X189764415Y-119520330D01*
X189742220Y-119505500D01*
X189895698Y-119441927D01*
X190074327Y-119263299D01*
X190171000Y-119029910D01*
X190171000Y-118325750D01*
X190012250Y-118167000D01*
X188647000Y-118167000D01*
X188647000Y-118187000D01*
X188393000Y-118187000D01*
X188393000Y-118167000D01*
X187027750Y-118167000D01*
X186869000Y-118325750D01*
X186869000Y-119029910D01*
X186965673Y-119263299D01*
X187144302Y-119441927D01*
X187297780Y-119505500D01*
X187275585Y-119520330D01*
X186950729Y-120006511D01*
X186836655Y-120580000D01*
X181935000Y-120580000D01*
X181935000Y-117050090D01*
X186869000Y-117050090D01*
X186869000Y-117754250D01*
X187027750Y-117913000D01*
X188393000Y-117913000D01*
X188393000Y-116700150D01*
X188647000Y-116700150D01*
X188647000Y-117913000D01*
X190012250Y-117913000D01*
X190171000Y-117754250D01*
X190171000Y-117050090D01*
X190074327Y-116816701D01*
X189895698Y-116638073D01*
X189662309Y-116541400D01*
X188805750Y-116541400D01*
X188647000Y-116700150D01*
X188393000Y-116700150D01*
X188234250Y-116541400D01*
X187377691Y-116541400D01*
X187144302Y-116638073D01*
X186965673Y-116816701D01*
X186869000Y-117050090D01*
X181935000Y-117050090D01*
X181935000Y-110600000D01*
X181898943Y-110418728D01*
X181871440Y-110280460D01*
X181690434Y-110009566D01*
X177890434Y-106209566D01*
X177828296Y-106168047D01*
X177619541Y-106028561D01*
X177300000Y-105965000D01*
X160300000Y-105965000D01*
X159980459Y-106028561D01*
X159771704Y-106168047D01*
X159709566Y-106209566D01*
X159239615Y-106679517D01*
X158857914Y-106837233D01*
X158538355Y-107156235D01*
X158367351Y-107568056D01*
X157957914Y-107737233D01*
X157638355Y-108056235D01*
X157465197Y-108473244D01*
X157464803Y-108924775D01*
X157637233Y-109342086D01*
X157956235Y-109661645D01*
X158373244Y-109834803D01*
X158824775Y-109835197D01*
X159242086Y-109662767D01*
X159269901Y-109635000D01*
X162295554Y-109635000D01*
X162425488Y-109764934D01*
X162275225Y-109764803D01*
X161857914Y-109937233D01*
X161538355Y-110256235D01*
X161365197Y-110673244D01*
X161364916Y-110995638D01*
X161035554Y-111325000D01*
X157441446Y-111325000D01*
X157413162Y-111174683D01*
X157346672Y-111071354D01*
X157348327Y-111069699D01*
X157445000Y-110836310D01*
X157445000Y-110345750D01*
X157286250Y-110187000D01*
X155437000Y-110187000D01*
X155437000Y-110207000D01*
X155183000Y-110207000D01*
X155183000Y-110187000D01*
X153333750Y-110187000D01*
X153175000Y-110345750D01*
X153175000Y-110836310D01*
X153271673Y-111069699D01*
X153273042Y-111071068D01*
X153213569Y-111158110D01*
X153162560Y-111410000D01*
X153162560Y-112710000D01*
X153206838Y-112945317D01*
X153280620Y-113059978D01*
X153213569Y-113158110D01*
X153162560Y-113410000D01*
X153162560Y-114163114D01*
X152579723Y-113580277D01*
X152341272Y-113420949D01*
X152060000Y-113365000D01*
X150500000Y-113365000D01*
X150218728Y-113420949D01*
X149980276Y-113580277D01*
X148995554Y-114565000D01*
X138360000Y-114565000D01*
X138080769Y-114620543D01*
X138078728Y-114620949D01*
X137840277Y-114780276D01*
X134815554Y-117805000D01*
X130605000Y-117805000D01*
X130605000Y-116383222D01*
X130605317Y-116383162D01*
X130821441Y-116244090D01*
X130966431Y-116031890D01*
X131017440Y-115780000D01*
X131017440Y-115491758D01*
X131705804Y-115491758D01*
X131872127Y-116327921D01*
X132345776Y-117036786D01*
X133054641Y-117510435D01*
X133890804Y-117676758D01*
X134726967Y-117510435D01*
X135435832Y-117036786D01*
X135909481Y-116327921D01*
X136075804Y-115491758D01*
X135909481Y-114655595D01*
X135435832Y-113946730D01*
X134726967Y-113473081D01*
X133890804Y-113306758D01*
X133054641Y-113473081D01*
X132345776Y-113946730D01*
X131872127Y-114655595D01*
X131705804Y-115491758D01*
X131017440Y-115491758D01*
X131017440Y-115280000D01*
X130973162Y-115044683D01*
X130834090Y-114828559D01*
X130621890Y-114683569D01*
X130370000Y-114632560D01*
X129770000Y-114632560D01*
X129534683Y-114676838D01*
X129510594Y-114692339D01*
X129396309Y-114645000D01*
X129255750Y-114645000D01*
X129097000Y-114803750D01*
X129097000Y-115405000D01*
X129117000Y-115405000D01*
X129117000Y-115655000D01*
X129097000Y-115655000D01*
X129097000Y-116256250D01*
X129135000Y-116294250D01*
X129135000Y-117698750D01*
X129070000Y-117763750D01*
X129070000Y-118005734D01*
X129022560Y-118240000D01*
X129022560Y-118625000D01*
X127924447Y-118625000D01*
X127917440Y-118617993D01*
X127917440Y-118240000D01*
X127893674Y-118113690D01*
X128135000Y-118113690D01*
X128135000Y-118254250D01*
X128293750Y-118413000D01*
X128870000Y-118413000D01*
X128870000Y-117763750D01*
X128711250Y-117605000D01*
X128643691Y-117605000D01*
X128410302Y-117701673D01*
X128231673Y-117880301D01*
X128135000Y-118113690D01*
X127893674Y-118113690D01*
X127873162Y-118004683D01*
X127734090Y-117788559D01*
X127521890Y-117643569D01*
X127270000Y-117592560D01*
X126870000Y-117592560D01*
X126634683Y-117636838D01*
X126623021Y-117644342D01*
X126621890Y-117643569D01*
X126370000Y-117592560D01*
X125970000Y-117592560D01*
X125734683Y-117636838D01*
X125518559Y-117775910D01*
X125373569Y-117988110D01*
X125331048Y-118198084D01*
X123289566Y-120239566D01*
X123108561Y-120510459D01*
X123045000Y-120830000D01*
X123045000Y-121510000D01*
X122915750Y-121510000D01*
X122757000Y-121668750D01*
X122503000Y-121668750D01*
X122344250Y-121510000D01*
X122028691Y-121510000D01*
X121795302Y-121606673D01*
X121616673Y-121785301D01*
X121520000Y-122018690D01*
X121075804Y-122018690D01*
X121075804Y-115956314D01*
X121844816Y-115919797D01*
X121962262Y-115890582D01*
X122080711Y-115865801D01*
X122202939Y-115813750D01*
X128035000Y-115813750D01*
X128035000Y-115906310D01*
X128131673Y-116139699D01*
X128310302Y-116318327D01*
X128543691Y-116415000D01*
X128684250Y-116415000D01*
X128843000Y-116256250D01*
X128843000Y-115655000D01*
X128193750Y-115655000D01*
X128035000Y-115813750D01*
X122202939Y-115813750D01*
X123696143Y-115177868D01*
X123731564Y-115153690D01*
X128035000Y-115153690D01*
X128035000Y-115246250D01*
X128193750Y-115405000D01*
X128843000Y-115405000D01*
X128843000Y-114803750D01*
X128684250Y-114645000D01*
X128543691Y-114645000D01*
X128310302Y-114741673D01*
X128131673Y-114920301D01*
X128035000Y-115153690D01*
X123731564Y-115153690D01*
X123916893Y-115027187D01*
X125146100Y-113773420D01*
X125292383Y-113549732D01*
X125948225Y-111921006D01*
X125997772Y-111658364D01*
X125980404Y-109902637D01*
X125960932Y-109809566D01*
X125925671Y-109641027D01*
X125237737Y-108025594D01*
X125087057Y-107804844D01*
X125087054Y-107804842D01*
X124684323Y-107410000D01*
X153162560Y-107410000D01*
X153162560Y-108710000D01*
X153206838Y-108945317D01*
X153273328Y-109048646D01*
X153271673Y-109050301D01*
X153175000Y-109283690D01*
X153175000Y-109774250D01*
X153333750Y-109933000D01*
X155183000Y-109933000D01*
X155183000Y-109913000D01*
X155437000Y-109913000D01*
X155437000Y-109933000D01*
X157286250Y-109933000D01*
X157445000Y-109774250D01*
X157445000Y-109283690D01*
X157348327Y-109050301D01*
X157346958Y-109048932D01*
X157406431Y-108961890D01*
X157457440Y-108710000D01*
X157457440Y-107410000D01*
X157413162Y-107174683D01*
X157274090Y-106958559D01*
X157061890Y-106813569D01*
X156810000Y-106762560D01*
X156735000Y-106762560D01*
X156735000Y-105790757D01*
X156776441Y-105764090D01*
X156921431Y-105551890D01*
X156972440Y-105300000D01*
X156972440Y-104960000D01*
X156989250Y-104960000D01*
X157148000Y-104801250D01*
X157148000Y-103327000D01*
X157402000Y-103327000D01*
X157402000Y-104801250D01*
X157560750Y-104960000D01*
X157951309Y-104960000D01*
X158184698Y-104863327D01*
X158363327Y-104684699D01*
X158460000Y-104451310D01*
X158460000Y-103485750D01*
X158301250Y-103327000D01*
X157402000Y-103327000D01*
X157148000Y-103327000D01*
X156248750Y-103327000D01*
X156090000Y-103485750D01*
X156090000Y-103552560D01*
X155510000Y-103552560D01*
X155510000Y-103485750D01*
X155351250Y-103327000D01*
X154452000Y-103327000D01*
X154452000Y-104801250D01*
X154610750Y-104960000D01*
X154627560Y-104960000D01*
X154627560Y-105300000D01*
X154671838Y-105535317D01*
X154810910Y-105751441D01*
X154865000Y-105788399D01*
X154865000Y-106762560D01*
X153810000Y-106762560D01*
X153574683Y-106806838D01*
X153358559Y-106945910D01*
X153213569Y-107158110D01*
X153162560Y-107410000D01*
X124684323Y-107410000D01*
X124281433Y-107015003D01*
X135789665Y-103485750D01*
X153140000Y-103485750D01*
X153140000Y-104451310D01*
X153236673Y-104684699D01*
X153415302Y-104863327D01*
X153648691Y-104960000D01*
X154039250Y-104960000D01*
X154198000Y-104801250D01*
X154198000Y-103327000D01*
X153298750Y-103327000D01*
X153140000Y-103485750D01*
X135789665Y-103485750D01*
X140801729Y-101948690D01*
X153140000Y-101948690D01*
X153140000Y-102914250D01*
X153298750Y-103073000D01*
X154198000Y-103073000D01*
X154198000Y-101598750D01*
X154039250Y-101440000D01*
X153648691Y-101440000D01*
X153415302Y-101536673D01*
X153236673Y-101715301D01*
X153140000Y-101948690D01*
X140801729Y-101948690D01*
X142963452Y-101285750D01*
X154403000Y-101285750D01*
X154403000Y-101888310D01*
X154452000Y-102006606D01*
X154452000Y-103073000D01*
X155351250Y-103073000D01*
X155510000Y-102914250D01*
X155510000Y-102397000D01*
X155514250Y-102397000D01*
X155673000Y-102238250D01*
X155673000Y-101127000D01*
X155927000Y-101127000D01*
X155927000Y-102238250D01*
X156085750Y-102397000D01*
X156090000Y-102397000D01*
X156090000Y-102914250D01*
X156248750Y-103073000D01*
X157148000Y-103073000D01*
X157148000Y-102006606D01*
X157197000Y-101888310D01*
X157197000Y-101598750D01*
X157402000Y-101598750D01*
X157402000Y-103073000D01*
X158301250Y-103073000D01*
X158460000Y-102914250D01*
X158460000Y-101948690D01*
X158363327Y-101715301D01*
X158184698Y-101536673D01*
X157951309Y-101440000D01*
X157560750Y-101440000D01*
X157402000Y-101598750D01*
X157197000Y-101598750D01*
X157197000Y-101285750D01*
X157038250Y-101127000D01*
X155927000Y-101127000D01*
X155673000Y-101127000D01*
X154561750Y-101127000D01*
X154403000Y-101285750D01*
X142963452Y-101285750D01*
X148978228Y-99441187D01*
X154463913Y-99964634D01*
G36*
X180265000Y-110945868D02*
X180265000Y-121254132D01*
X176154132Y-125365000D01*
X161418923Y-125365000D01*
X161434803Y-125326756D01*
X161435197Y-124875225D01*
X161262767Y-124457914D01*
X160943765Y-124138355D01*
X160526756Y-123965197D01*
X160075225Y-123964803D01*
X159657914Y-124137233D01*
X159338355Y-124456235D01*
X159165197Y-124873244D01*
X159164803Y-125324775D01*
X159181424Y-125365000D01*
X157840198Y-125365000D01*
X157961645Y-125243765D01*
X158134803Y-124826756D01*
X158135197Y-124375225D01*
X157962767Y-123957914D01*
X157643765Y-123638355D01*
X157226756Y-123465197D01*
X156775225Y-123464803D01*
X156357914Y-123637233D01*
X156038355Y-123956235D01*
X155865197Y-124373244D01*
X155864803Y-124824775D01*
X155881424Y-124865000D01*
X154420076Y-124865000D01*
X154611645Y-124673765D01*
X154784803Y-124256756D01*
X154785197Y-123805225D01*
X154612767Y-123387914D01*
X154582346Y-123357440D01*
X156810000Y-123357440D01*
X157045317Y-123313162D01*
X157261441Y-123174090D01*
X157406431Y-122961890D01*
X157440227Y-122795000D01*
X162155554Y-122795000D01*
X162165000Y-122804447D01*
X162165000Y-123800000D01*
X162216626Y-124059540D01*
X162220949Y-124081272D01*
X162380277Y-124319723D01*
X162980276Y-124919723D01*
X163107904Y-125005001D01*
X163218728Y-125079051D01*
X163500000Y-125135000D01*
X164700000Y-125135000D01*
X164981272Y-125079051D01*
X165219723Y-124919723D01*
X165304529Y-124834918D01*
X165624775Y-124835197D01*
X166042086Y-124662767D01*
X166361645Y-124343765D01*
X166534803Y-123926756D01*
X166535197Y-123475225D01*
X166362767Y-123057914D01*
X166043765Y-122738355D01*
X165626756Y-122565197D01*
X165175225Y-122564803D01*
X164838870Y-122703783D01*
X164815000Y-122679872D01*
X164815000Y-122345750D01*
X169175000Y-122345750D01*
X169175000Y-122836310D01*
X169271673Y-123069699D01*
X169450302Y-123248327D01*
X169683691Y-123345000D01*
X171024250Y-123345000D01*
X171183000Y-123186250D01*
X171183000Y-122187000D01*
X171437000Y-122187000D01*
X171437000Y-123186250D01*
X171595750Y-123345000D01*
X172936309Y-123345000D01*
X173169698Y-123248327D01*
X173348327Y-123069699D01*
X173445000Y-122836310D01*
X173445000Y-122345750D01*
X173286250Y-122187000D01*
X171437000Y-122187000D01*
X171183000Y-122187000D01*
X169333750Y-122187000D01*
X169175000Y-122345750D01*
X164815000Y-122345750D01*
X164815000Y-121890000D01*
X164765981Y-121643569D01*
X164759051Y-121608727D01*
X164599723Y-121370276D01*
X163609723Y-120380277D01*
X163371272Y-120220949D01*
X163090000Y-120165000D01*
X157457440Y-120165000D01*
X157457440Y-119410000D01*
X157413162Y-119174683D01*
X157339380Y-119060022D01*
X157406431Y-118961890D01*
X157440227Y-118795000D01*
X160940000Y-118795000D01*
X161221272Y-118739051D01*
X161459723Y-118579723D01*
X162219723Y-117819724D01*
X162379051Y-117581272D01*
X162393314Y-117509566D01*
X162435000Y-117300000D01*
X162435000Y-115707014D01*
X162542086Y-115662767D01*
X162861645Y-115343765D01*
X163034803Y-114926756D01*
X163035197Y-114475225D01*
X162975160Y-114329925D01*
X163161645Y-114143765D01*
X163334803Y-113726756D01*
X163335197Y-113275225D01*
X163304362Y-113200599D01*
X163561645Y-112943765D01*
X163662187Y-112701633D01*
X167164347Y-116203794D01*
X167156870Y-119688119D01*
X166928355Y-119916235D01*
X166755197Y-120333244D01*
X166754803Y-120784775D01*
X166927233Y-121202086D01*
X167246235Y-121521645D01*
X167663244Y-121694803D01*
X168114775Y-121695197D01*
X168532086Y-121522767D01*
X168851645Y-121203765D01*
X169024803Y-120786756D01*
X169025197Y-120335225D01*
X168852767Y-119917914D01*
X168626865Y-119691617D01*
X168634998Y-115901577D01*
X168634843Y-115900787D01*
X168634999Y-115900000D01*
X168607207Y-115760277D01*
X168579653Y-115620186D01*
X168579208Y-115619517D01*
X168579051Y-115618728D01*
X168499756Y-115500055D01*
X168420837Y-115381393D01*
X168420170Y-115380945D01*
X168419723Y-115380276D01*
X164772348Y-111732902D01*
X164942086Y-111662767D01*
X165261645Y-111343765D01*
X165434803Y-110926756D01*
X165434918Y-110795000D01*
X169178554Y-110795000D01*
X169206838Y-110945317D01*
X169280620Y-111059978D01*
X169213569Y-111158110D01*
X169162560Y-111410000D01*
X169162560Y-112710000D01*
X169206838Y-112945317D01*
X169280620Y-113059978D01*
X169213569Y-113158110D01*
X169162560Y-113410000D01*
X169162560Y-114710000D01*
X169206838Y-114945317D01*
X169280620Y-115059978D01*
X169213569Y-115158110D01*
X169162560Y-115410000D01*
X169162560Y-116710000D01*
X169206838Y-116945317D01*
X169280620Y-117059978D01*
X169213569Y-117158110D01*
X169162560Y-117410000D01*
X169162560Y-118710000D01*
X169206838Y-118945317D01*
X169280620Y-119059978D01*
X169213569Y-119158110D01*
X169162560Y-119410000D01*
X169162560Y-120710000D01*
X169206838Y-120945317D01*
X169273328Y-121048646D01*
X169271673Y-121050301D01*
X169175000Y-121283690D01*
X169175000Y-121774250D01*
X169333750Y-121933000D01*
X171183000Y-121933000D01*
X171183000Y-121913000D01*
X171437000Y-121913000D01*
X171437000Y-121933000D01*
X173286250Y-121933000D01*
X173445000Y-121774250D01*
X173445000Y-121283690D01*
X173348327Y-121050301D01*
X173346958Y-121048932D01*
X173406431Y-120961890D01*
X173440227Y-120795000D01*
X173790055Y-120795000D01*
X174056235Y-121061645D01*
X174473244Y-121234803D01*
X174924775Y-121235197D01*
X175342086Y-121062767D01*
X175661645Y-120743765D01*
X175834803Y-120326756D01*
X175835197Y-119875225D01*
X175740507Y-119646058D01*
X175942086Y-119562767D01*
X176261645Y-119243765D01*
X176434803Y-118826756D01*
X176435197Y-118375225D01*
X176262767Y-117957914D01*
X176187202Y-117882217D01*
X176334803Y-117526756D01*
X176335197Y-117075225D01*
X176276434Y-116933009D01*
X176345776Y-117036786D01*
X177054641Y-117510435D01*
X177890804Y-117676758D01*
X178726967Y-117510435D01*
X179435832Y-117036786D01*
X179909481Y-116327921D01*
X180075804Y-115491758D01*
X179909481Y-114655595D01*
X179435832Y-113946730D01*
X178726967Y-113473081D01*
X177890804Y-113306758D01*
X177185874Y-113446977D01*
X177235000Y-113200000D01*
X177235000Y-107915868D01*
X180265000Y-110945868D01*
X180265000Y-110945868D01*
G37*
X180265000Y-110945868D02*
X180265000Y-121254132D01*
X176154132Y-125365000D01*
X161418923Y-125365000D01*
X161434803Y-125326756D01*
X161435197Y-124875225D01*
X161262767Y-124457914D01*
X160943765Y-124138355D01*
X160526756Y-123965197D01*
X160075225Y-123964803D01*
X159657914Y-124137233D01*
X159338355Y-124456235D01*
X159165197Y-124873244D01*
X159164803Y-125324775D01*
X159181424Y-125365000D01*
X157840198Y-125365000D01*
X157961645Y-125243765D01*
X158134803Y-124826756D01*
X158135197Y-124375225D01*
X157962767Y-123957914D01*
X157643765Y-123638355D01*
X157226756Y-123465197D01*
X156775225Y-123464803D01*
X156357914Y-123637233D01*
X156038355Y-123956235D01*
X155865197Y-124373244D01*
X155864803Y-124824775D01*
X155881424Y-124865000D01*
X154420076Y-124865000D01*
X154611645Y-124673765D01*
X154784803Y-124256756D01*
X154785197Y-123805225D01*
X154612767Y-123387914D01*
X154582346Y-123357440D01*
X156810000Y-123357440D01*
X157045317Y-123313162D01*
X157261441Y-123174090D01*
X157406431Y-122961890D01*
X157440227Y-122795000D01*
X162155554Y-122795000D01*
X162165000Y-122804447D01*
X162165000Y-123800000D01*
X162216626Y-124059540D01*
X162220949Y-124081272D01*
X162380277Y-124319723D01*
X162980276Y-124919723D01*
X163107904Y-125005001D01*
X163218728Y-125079051D01*
X163500000Y-125135000D01*
X164700000Y-125135000D01*
X164981272Y-125079051D01*
X165219723Y-124919723D01*
X165304529Y-124834918D01*
X165624775Y-124835197D01*
X166042086Y-124662767D01*
X166361645Y-124343765D01*
X166534803Y-123926756D01*
X166535197Y-123475225D01*
X166362767Y-123057914D01*
X166043765Y-122738355D01*
X165626756Y-122565197D01*
X165175225Y-122564803D01*
X164838870Y-122703783D01*
X164815000Y-122679872D01*
X164815000Y-122345750D01*
X169175000Y-122345750D01*
X169175000Y-122836310D01*
X169271673Y-123069699D01*
X169450302Y-123248327D01*
X169683691Y-123345000D01*
X171024250Y-123345000D01*
X171183000Y-123186250D01*
X171183000Y-122187000D01*
X171437000Y-122187000D01*
X171437000Y-123186250D01*
X171595750Y-123345000D01*
X172936309Y-123345000D01*
X173169698Y-123248327D01*
X173348327Y-123069699D01*
X173445000Y-122836310D01*
X173445000Y-122345750D01*
X173286250Y-122187000D01*
X171437000Y-122187000D01*
X171183000Y-122187000D01*
X169333750Y-122187000D01*
X169175000Y-122345750D01*
X164815000Y-122345750D01*
X164815000Y-121890000D01*
X164765981Y-121643569D01*
X164759051Y-121608727D01*
X164599723Y-121370276D01*
X163609723Y-120380277D01*
X163371272Y-120220949D01*
X163090000Y-120165000D01*
X157457440Y-120165000D01*
X157457440Y-119410000D01*
X157413162Y-119174683D01*
X157339380Y-119060022D01*
X157406431Y-118961890D01*
X157440227Y-118795000D01*
X160940000Y-118795000D01*
X161221272Y-118739051D01*
X161459723Y-118579723D01*
X162219723Y-117819724D01*
X162379051Y-117581272D01*
X162393314Y-117509566D01*
X162435000Y-117300000D01*
X162435000Y-115707014D01*
X162542086Y-115662767D01*
X162861645Y-115343765D01*
X163034803Y-114926756D01*
X163035197Y-114475225D01*
X162975160Y-114329925D01*
X163161645Y-114143765D01*
X163334803Y-113726756D01*
X163335197Y-113275225D01*
X163304362Y-113200599D01*
X163561645Y-112943765D01*
X163662187Y-112701633D01*
X167164347Y-116203794D01*
X167156870Y-119688119D01*
X166928355Y-119916235D01*
X166755197Y-120333244D01*
X166754803Y-120784775D01*
X166927233Y-121202086D01*
X167246235Y-121521645D01*
X167663244Y-121694803D01*
X168114775Y-121695197D01*
X168532086Y-121522767D01*
X168851645Y-121203765D01*
X169024803Y-120786756D01*
X169025197Y-120335225D01*
X168852767Y-119917914D01*
X168626865Y-119691617D01*
X168634998Y-115901577D01*
X168634843Y-115900787D01*
X168634999Y-115900000D01*
X168607207Y-115760277D01*
X168579653Y-115620186D01*
X168579208Y-115619517D01*
X168579051Y-115618728D01*
X168499756Y-115500055D01*
X168420837Y-115381393D01*
X168420170Y-115380945D01*
X168419723Y-115380276D01*
X164772348Y-111732902D01*
X164942086Y-111662767D01*
X165261645Y-111343765D01*
X165434803Y-110926756D01*
X165434918Y-110795000D01*
X169178554Y-110795000D01*
X169206838Y-110945317D01*
X169280620Y-111059978D01*
X169213569Y-111158110D01*
X169162560Y-111410000D01*
X169162560Y-112710000D01*
X169206838Y-112945317D01*
X169280620Y-113059978D01*
X169213569Y-113158110D01*
X169162560Y-113410000D01*
X169162560Y-114710000D01*
X169206838Y-114945317D01*
X169280620Y-115059978D01*
X169213569Y-115158110D01*
X169162560Y-115410000D01*
X169162560Y-116710000D01*
X169206838Y-116945317D01*
X169280620Y-117059978D01*
X169213569Y-117158110D01*
X169162560Y-117410000D01*
X169162560Y-118710000D01*
X169206838Y-118945317D01*
X169280620Y-119059978D01*
X169213569Y-119158110D01*
X169162560Y-119410000D01*
X169162560Y-120710000D01*
X169206838Y-120945317D01*
X169273328Y-121048646D01*
X169271673Y-121050301D01*
X169175000Y-121283690D01*
X169175000Y-121774250D01*
X169333750Y-121933000D01*
X171183000Y-121933000D01*
X171183000Y-121913000D01*
X171437000Y-121913000D01*
X171437000Y-121933000D01*
X173286250Y-121933000D01*
X173445000Y-121774250D01*
X173445000Y-121283690D01*
X173348327Y-121050301D01*
X173346958Y-121048932D01*
X173406431Y-120961890D01*
X173440227Y-120795000D01*
X173790055Y-120795000D01*
X174056235Y-121061645D01*
X174473244Y-121234803D01*
X174924775Y-121235197D01*
X175342086Y-121062767D01*
X175661645Y-120743765D01*
X175834803Y-120326756D01*
X175835197Y-119875225D01*
X175740507Y-119646058D01*
X175942086Y-119562767D01*
X176261645Y-119243765D01*
X176434803Y-118826756D01*
X176435197Y-118375225D01*
X176262767Y-117957914D01*
X176187202Y-117882217D01*
X176334803Y-117526756D01*
X176335197Y-117075225D01*
X176276434Y-116933009D01*
X176345776Y-117036786D01*
X177054641Y-117510435D01*
X177890804Y-117676758D01*
X178726967Y-117510435D01*
X179435832Y-117036786D01*
X179909481Y-116327921D01*
X180075804Y-115491758D01*
X179909481Y-114655595D01*
X179435832Y-113946730D01*
X178726967Y-113473081D01*
X177890804Y-113306758D01*
X177185874Y-113446977D01*
X177235000Y-113200000D01*
X177235000Y-107915868D01*
X180265000Y-110945868D01*
G36*
X139202560Y-122250000D02*
X139246838Y-122485317D01*
X139385910Y-122701441D01*
X139598110Y-122846431D01*
X139850000Y-122897440D01*
X140216572Y-122897440D01*
X140664959Y-123345827D01*
X140664803Y-123524775D01*
X140837233Y-123942086D01*
X141156235Y-124261645D01*
X141573244Y-124434803D01*
X142024775Y-124435197D01*
X142442086Y-124262767D01*
X142761645Y-123943765D01*
X142799880Y-123851685D01*
X142837233Y-123942086D01*
X143156235Y-124261645D01*
X143265000Y-124306808D01*
X143265000Y-125365000D01*
X141545868Y-125365000D01*
X139330434Y-123149566D01*
X139301801Y-123130434D01*
X139059541Y-122968561D01*
X138740000Y-122905000D01*
X136572630Y-122905000D01*
X136563162Y-122854683D01*
X136511887Y-122775000D01*
X137860000Y-122775000D01*
X138179541Y-122711439D01*
X138450434Y-122530434D01*
X139202560Y-121778308D01*
X139202560Y-122250000D01*
X139202560Y-122250000D01*
G37*
X139202560Y-122250000D02*
X139246838Y-122485317D01*
X139385910Y-122701441D01*
X139598110Y-122846431D01*
X139850000Y-122897440D01*
X140216572Y-122897440D01*
X140664959Y-123345827D01*
X140664803Y-123524775D01*
X140837233Y-123942086D01*
X141156235Y-124261645D01*
X141573244Y-124434803D01*
X142024775Y-124435197D01*
X142442086Y-124262767D01*
X142761645Y-123943765D01*
X142799880Y-123851685D01*
X142837233Y-123942086D01*
X143156235Y-124261645D01*
X143265000Y-124306808D01*
X143265000Y-125365000D01*
X141545868Y-125365000D01*
X139330434Y-123149566D01*
X139301801Y-123130434D01*
X139059541Y-122968561D01*
X138740000Y-122905000D01*
X136572630Y-122905000D01*
X136563162Y-122854683D01*
X136511887Y-122775000D01*
X137860000Y-122775000D01*
X138179541Y-122711439D01*
X138450434Y-122530434D01*
X139202560Y-121778308D01*
X139202560Y-122250000D01*
G36*
X143978561Y-120119541D02*
X144113138Y-120320949D01*
X144159566Y-120390434D01*
X144702560Y-120933428D01*
X144702560Y-120950000D01*
X144746838Y-121185317D01*
X144762339Y-121209406D01*
X144715000Y-121323691D01*
X144715000Y-121464250D01*
X144873750Y-121623000D01*
X145475000Y-121623000D01*
X145475000Y-121603000D01*
X145722132Y-121603000D01*
X145725000Y-121605868D01*
X145725000Y-121623000D01*
X145742132Y-121623000D01*
X145747000Y-121627868D01*
X145747000Y-121877000D01*
X145725000Y-121877000D01*
X145725000Y-122526250D01*
X145883750Y-122685000D01*
X145976310Y-122685000D01*
X146209699Y-122588327D01*
X146388327Y-122409698D01*
X146429479Y-122310347D01*
X146709566Y-122590434D01*
X146980459Y-122771439D01*
X147300000Y-122835000D01*
X147433569Y-122835000D01*
X147495000Y-122847440D01*
X148005000Y-122847440D01*
X148175846Y-122815293D01*
X148280276Y-122919723D01*
X148518727Y-123079051D01*
X148524886Y-123080276D01*
X148800000Y-123135000D01*
X149495554Y-123135000D01*
X150600277Y-124239724D01*
X150795250Y-124370000D01*
X150838728Y-124399051D01*
X151120000Y-124455000D01*
X152597535Y-124455000D01*
X152687233Y-124672086D01*
X152879811Y-124865000D01*
X146604447Y-124865000D01*
X145535000Y-123795554D01*
X145535000Y-123000000D01*
X145479051Y-122718728D01*
X145442543Y-122664090D01*
X145400333Y-122600917D01*
X145475000Y-122526250D01*
X145475000Y-121877000D01*
X144873750Y-121877000D01*
X144795098Y-121955652D01*
X143930096Y-121090649D01*
X143947440Y-121005000D01*
X143947440Y-120495000D01*
X143903162Y-120259683D01*
X143842934Y-120166086D01*
X143971379Y-120083434D01*
X143978561Y-120119541D01*
X143978561Y-120119541D01*
G37*
X143978561Y-120119541D02*
X144113138Y-120320949D01*
X144159566Y-120390434D01*
X144702560Y-120933428D01*
X144702560Y-120950000D01*
X144746838Y-121185317D01*
X144762339Y-121209406D01*
X144715000Y-121323691D01*
X144715000Y-121464250D01*
X144873750Y-121623000D01*
X145475000Y-121623000D01*
X145475000Y-121603000D01*
X145722132Y-121603000D01*
X145725000Y-121605868D01*
X145725000Y-121623000D01*
X145742132Y-121623000D01*
X145747000Y-121627868D01*
X145747000Y-121877000D01*
X145725000Y-121877000D01*
X145725000Y-122526250D01*
X145883750Y-122685000D01*
X145976310Y-122685000D01*
X146209699Y-122588327D01*
X146388327Y-122409698D01*
X146429479Y-122310347D01*
X146709566Y-122590434D01*
X146980459Y-122771439D01*
X147300000Y-122835000D01*
X147433569Y-122835000D01*
X147495000Y-122847440D01*
X148005000Y-122847440D01*
X148175846Y-122815293D01*
X148280276Y-122919723D01*
X148518727Y-123079051D01*
X148524886Y-123080276D01*
X148800000Y-123135000D01*
X149495554Y-123135000D01*
X150600277Y-124239724D01*
X150795250Y-124370000D01*
X150838728Y-124399051D01*
X151120000Y-124455000D01*
X152597535Y-124455000D01*
X152687233Y-124672086D01*
X152879811Y-124865000D01*
X146604447Y-124865000D01*
X145535000Y-123795554D01*
X145535000Y-123000000D01*
X145479051Y-122718728D01*
X145442543Y-122664090D01*
X145400333Y-122600917D01*
X145475000Y-122526250D01*
X145475000Y-121877000D01*
X144873750Y-121877000D01*
X144795098Y-121955652D01*
X143930096Y-121090649D01*
X143947440Y-121005000D01*
X143947440Y-120495000D01*
X143903162Y-120259683D01*
X143842934Y-120166086D01*
X143971379Y-120083434D01*
X143978561Y-120119541D01*
G36*
X152356235Y-121861645D02*
X152773244Y-122034803D01*
X153162560Y-122035143D01*
X153162560Y-122710000D01*
X153206838Y-122945317D01*
X153227030Y-122976696D01*
X153206932Y-122985000D01*
X151424447Y-122985000D01*
X151381059Y-122941612D01*
X151509699Y-122888327D01*
X151688327Y-122709698D01*
X151785000Y-122476309D01*
X151785000Y-122335750D01*
X151626250Y-122177000D01*
X151025000Y-122177000D01*
X151025000Y-122197000D01*
X150775000Y-122197000D01*
X150775000Y-122177000D01*
X150753000Y-122177000D01*
X150753000Y-121923000D01*
X150775000Y-121923000D01*
X150775000Y-121903000D01*
X151025000Y-121903000D01*
X151025000Y-121923000D01*
X151626250Y-121923000D01*
X151764250Y-121785000D01*
X152279724Y-121785000D01*
X152356235Y-121861645D01*
X152356235Y-121861645D01*
G37*
X152356235Y-121861645D02*
X152773244Y-122034803D01*
X153162560Y-122035143D01*
X153162560Y-122710000D01*
X153206838Y-122945317D01*
X153227030Y-122976696D01*
X153206932Y-122985000D01*
X151424447Y-122985000D01*
X151381059Y-122941612D01*
X151509699Y-122888327D01*
X151688327Y-122709698D01*
X151785000Y-122476309D01*
X151785000Y-122335750D01*
X151626250Y-122177000D01*
X151025000Y-122177000D01*
X151025000Y-122197000D01*
X150775000Y-122197000D01*
X150775000Y-122177000D01*
X150753000Y-122177000D01*
X150753000Y-121923000D01*
X150775000Y-121923000D01*
X150775000Y-121903000D01*
X151025000Y-121903000D01*
X151025000Y-121923000D01*
X151626250Y-121923000D01*
X151764250Y-121785000D01*
X152279724Y-121785000D01*
X152356235Y-121861645D01*
G36*
X150264803Y-115424775D02*
X150437233Y-115842086D01*
X150557035Y-115962097D01*
X150054132Y-116465000D01*
X146900000Y-116465000D01*
X146580459Y-116528561D01*
X146386869Y-116657914D01*
X146309566Y-116709566D01*
X145754132Y-117265000D01*
X139300000Y-117265000D01*
X138980460Y-117328560D01*
X138709566Y-117509566D01*
X138209566Y-118009566D01*
X138028561Y-118280459D01*
X137965000Y-118600000D01*
X137965000Y-120654132D01*
X137514132Y-121105000D01*
X136534250Y-121105000D01*
X136396250Y-120967000D01*
X135861696Y-120967000D01*
X135639541Y-120818561D01*
X135523000Y-120795379D01*
X135523000Y-120713000D01*
X135545000Y-120713000D01*
X135545000Y-120063750D01*
X135795000Y-120063750D01*
X135795000Y-120713000D01*
X136396250Y-120713000D01*
X136555000Y-120554250D01*
X136555000Y-120413691D01*
X136458327Y-120180302D01*
X136279699Y-120001673D01*
X136046310Y-119905000D01*
X135953750Y-119905000D01*
X135795000Y-120063750D01*
X135545000Y-120063750D01*
X135386250Y-119905000D01*
X135293690Y-119905000D01*
X135060301Y-120001673D01*
X134881673Y-120180302D01*
X134785000Y-120413691D01*
X134785000Y-120554250D01*
X134943748Y-120712998D01*
X134785000Y-120712998D01*
X134785000Y-120755000D01*
X132634979Y-120755000D01*
X132499739Y-120552599D01*
X132253177Y-120387852D01*
X131962338Y-120330000D01*
X131677662Y-120330000D01*
X131386823Y-120387852D01*
X131140261Y-120552599D01*
X130975514Y-120799161D01*
X130917662Y-121090000D01*
X130967391Y-121340000D01*
X130917662Y-121590000D01*
X130967391Y-121840000D01*
X130917662Y-122090000D01*
X130973883Y-122372642D01*
X130956676Y-122409782D01*
X131017000Y-122460386D01*
X131017000Y-122467000D01*
X130997000Y-122467000D01*
X130997000Y-122487000D01*
X130743000Y-122487000D01*
X130743000Y-122467000D01*
X130723000Y-122467000D01*
X130723000Y-122460386D01*
X130783324Y-122409782D01*
X130766117Y-122372642D01*
X130822338Y-122090000D01*
X130772609Y-121840000D01*
X130822338Y-121590000D01*
X130772609Y-121340000D01*
X130822338Y-121090000D01*
X130764486Y-120799161D01*
X130599739Y-120552599D01*
X130353177Y-120387852D01*
X130062338Y-120330000D01*
X129777662Y-120330000D01*
X129486823Y-120387852D01*
X129240261Y-120552599D01*
X129075514Y-120799161D01*
X129017662Y-121090000D01*
X129050483Y-121255000D01*
X129010000Y-121255000D01*
X128753161Y-121306089D01*
X128905000Y-121154250D01*
X128905000Y-121013691D01*
X128808327Y-120780302D01*
X128629699Y-120601673D01*
X128396310Y-120505000D01*
X128303750Y-120505000D01*
X128145000Y-120663750D01*
X128145000Y-121313000D01*
X128167000Y-121313000D01*
X128167000Y-121567000D01*
X128145000Y-121567000D01*
X128145000Y-121587000D01*
X127895000Y-121587000D01*
X127895000Y-121567000D01*
X127293750Y-121567000D01*
X127155750Y-121705000D01*
X124715000Y-121705000D01*
X124715000Y-121175868D01*
X124877177Y-121013691D01*
X127135000Y-121013691D01*
X127135000Y-121154250D01*
X127293750Y-121313000D01*
X127895000Y-121313000D01*
X127895000Y-120663750D01*
X127736250Y-120505000D01*
X127643690Y-120505000D01*
X127410301Y-120601673D01*
X127231673Y-120780302D01*
X127135000Y-121013691D01*
X124877177Y-121013691D01*
X126411176Y-119479692D01*
X126605317Y-119443162D01*
X126616979Y-119435658D01*
X126618110Y-119436431D01*
X126666856Y-119446302D01*
X127100276Y-119879723D01*
X127338727Y-120039051D01*
X127385394Y-120048333D01*
X127620000Y-120095000D01*
X129520000Y-120095000D01*
X129801272Y-120039051D01*
X130039723Y-119879723D01*
X130389724Y-119529723D01*
X130549051Y-119291272D01*
X130552288Y-119275000D01*
X135120000Y-119275000D01*
X135401272Y-119219051D01*
X135639723Y-119059723D01*
X138664447Y-116035000D01*
X149300000Y-116035000D01*
X149581272Y-115979051D01*
X149819723Y-115819723D01*
X150264847Y-115374600D01*
X150264803Y-115424775D01*
X150264803Y-115424775D01*
G37*
X150264803Y-115424775D02*
X150437233Y-115842086D01*
X150557035Y-115962097D01*
X150054132Y-116465000D01*
X146900000Y-116465000D01*
X146580459Y-116528561D01*
X146386869Y-116657914D01*
X146309566Y-116709566D01*
X145754132Y-117265000D01*
X139300000Y-117265000D01*
X138980460Y-117328560D01*
X138709566Y-117509566D01*
X138209566Y-118009566D01*
X138028561Y-118280459D01*
X137965000Y-118600000D01*
X137965000Y-120654132D01*
X137514132Y-121105000D01*
X136534250Y-121105000D01*
X136396250Y-120967000D01*
X135861696Y-120967000D01*
X135639541Y-120818561D01*
X135523000Y-120795379D01*
X135523000Y-120713000D01*
X135545000Y-120713000D01*
X135545000Y-120063750D01*
X135795000Y-120063750D01*
X135795000Y-120713000D01*
X136396250Y-120713000D01*
X136555000Y-120554250D01*
X136555000Y-120413691D01*
X136458327Y-120180302D01*
X136279699Y-120001673D01*
X136046310Y-119905000D01*
X135953750Y-119905000D01*
X135795000Y-120063750D01*
X135545000Y-120063750D01*
X135386250Y-119905000D01*
X135293690Y-119905000D01*
X135060301Y-120001673D01*
X134881673Y-120180302D01*
X134785000Y-120413691D01*
X134785000Y-120554250D01*
X134943748Y-120712998D01*
X134785000Y-120712998D01*
X134785000Y-120755000D01*
X132634979Y-120755000D01*
X132499739Y-120552599D01*
X132253177Y-120387852D01*
X131962338Y-120330000D01*
X131677662Y-120330000D01*
X131386823Y-120387852D01*
X131140261Y-120552599D01*
X130975514Y-120799161D01*
X130917662Y-121090000D01*
X130967391Y-121340000D01*
X130917662Y-121590000D01*
X130967391Y-121840000D01*
X130917662Y-122090000D01*
X130973883Y-122372642D01*
X130956676Y-122409782D01*
X131017000Y-122460386D01*
X131017000Y-122467000D01*
X130997000Y-122467000D01*
X130997000Y-122487000D01*
X130743000Y-122487000D01*
X130743000Y-122467000D01*
X130723000Y-122467000D01*
X130723000Y-122460386D01*
X130783324Y-122409782D01*
X130766117Y-122372642D01*
X130822338Y-122090000D01*
X130772609Y-121840000D01*
X130822338Y-121590000D01*
X130772609Y-121340000D01*
X130822338Y-121090000D01*
X130764486Y-120799161D01*
X130599739Y-120552599D01*
X130353177Y-120387852D01*
X130062338Y-120330000D01*
X129777662Y-120330000D01*
X129486823Y-120387852D01*
X129240261Y-120552599D01*
X129075514Y-120799161D01*
X129017662Y-121090000D01*
X129050483Y-121255000D01*
X129010000Y-121255000D01*
X128753161Y-121306089D01*
X128905000Y-121154250D01*
X128905000Y-121013691D01*
X128808327Y-120780302D01*
X128629699Y-120601673D01*
X128396310Y-120505000D01*
X128303750Y-120505000D01*
X128145000Y-120663750D01*
X128145000Y-121313000D01*
X128167000Y-121313000D01*
X128167000Y-121567000D01*
X128145000Y-121567000D01*
X128145000Y-121587000D01*
X127895000Y-121587000D01*
X127895000Y-121567000D01*
X127293750Y-121567000D01*
X127155750Y-121705000D01*
X124715000Y-121705000D01*
X124715000Y-121175868D01*
X124877177Y-121013691D01*
X127135000Y-121013691D01*
X127135000Y-121154250D01*
X127293750Y-121313000D01*
X127895000Y-121313000D01*
X127895000Y-120663750D01*
X127736250Y-120505000D01*
X127643690Y-120505000D01*
X127410301Y-120601673D01*
X127231673Y-120780302D01*
X127135000Y-121013691D01*
X124877177Y-121013691D01*
X126411176Y-119479692D01*
X126605317Y-119443162D01*
X126616979Y-119435658D01*
X126618110Y-119436431D01*
X126666856Y-119446302D01*
X127100276Y-119879723D01*
X127338727Y-120039051D01*
X127385394Y-120048333D01*
X127620000Y-120095000D01*
X129520000Y-120095000D01*
X129801272Y-120039051D01*
X130039723Y-119879723D01*
X130389724Y-119529723D01*
X130549051Y-119291272D01*
X130552288Y-119275000D01*
X135120000Y-119275000D01*
X135401272Y-119219051D01*
X135639723Y-119059723D01*
X138664447Y-116035000D01*
X149300000Y-116035000D01*
X149581272Y-115979051D01*
X149819723Y-115819723D01*
X150264847Y-115374600D01*
X150264803Y-115424775D01*
G36*
X141303569Y-120243110D02*
X141252560Y-120495000D01*
X141252560Y-121005000D01*
X141296838Y-121240317D01*
X141435910Y-121456441D01*
X141648110Y-121601431D01*
X141786100Y-121629375D01*
X141752560Y-121795000D01*
X141752560Y-122071692D01*
X141040434Y-121359566D01*
X140986743Y-121323691D01*
X140970006Y-121312508D01*
X140985000Y-121276309D01*
X140985000Y-121135750D01*
X140826250Y-120977000D01*
X140225000Y-120977000D01*
X140225000Y-120997000D01*
X139975000Y-120997000D01*
X139975000Y-120977000D01*
X139953000Y-120977000D01*
X139953000Y-120723000D01*
X139975000Y-120723000D01*
X139975000Y-120703000D01*
X140225000Y-120703000D01*
X140225000Y-120723000D01*
X140826250Y-120723000D01*
X140985000Y-120564250D01*
X140985000Y-120423691D01*
X140891284Y-120197440D01*
X141334774Y-120197440D01*
X141303569Y-120243110D01*
X141303569Y-120243110D01*
G37*
X141303569Y-120243110D02*
X141252560Y-120495000D01*
X141252560Y-121005000D01*
X141296838Y-121240317D01*
X141435910Y-121456441D01*
X141648110Y-121601431D01*
X141786100Y-121629375D01*
X141752560Y-121795000D01*
X141752560Y-122071692D01*
X141040434Y-121359566D01*
X140986743Y-121323691D01*
X140970006Y-121312508D01*
X140985000Y-121276309D01*
X140985000Y-121135750D01*
X140826250Y-120977000D01*
X140225000Y-120977000D01*
X140225000Y-120997000D01*
X139975000Y-120997000D01*
X139975000Y-120977000D01*
X139953000Y-120977000D01*
X139953000Y-120723000D01*
X139975000Y-120723000D01*
X139975000Y-120703000D01*
X140225000Y-120703000D01*
X140225000Y-120723000D01*
X140826250Y-120723000D01*
X140985000Y-120564250D01*
X140985000Y-120423691D01*
X140891284Y-120197440D01*
X141334774Y-120197440D01*
X141303569Y-120243110D01*
G36*
X140077000Y-119175000D02*
X140097000Y-119175000D01*
X140097000Y-119425000D01*
X140077000Y-119425000D01*
X140077000Y-119447000D01*
X139823000Y-119447000D01*
X139823000Y-119425000D01*
X139803000Y-119425000D01*
X139803000Y-119175000D01*
X139823000Y-119175000D01*
X139823000Y-119153000D01*
X140077000Y-119153000D01*
X140077000Y-119175000D01*
X140077000Y-119175000D01*
G37*
X140077000Y-119175000D02*
X140097000Y-119175000D01*
X140097000Y-119425000D01*
X140077000Y-119425000D01*
X140077000Y-119447000D01*
X139823000Y-119447000D01*
X139823000Y-119425000D01*
X139803000Y-119425000D01*
X139803000Y-119175000D01*
X139823000Y-119175000D01*
X139823000Y-119153000D01*
X140077000Y-119153000D01*
X140077000Y-119175000D01*
G36*
X152500277Y-115579723D02*
X152612559Y-115654747D01*
X152528561Y-115780459D01*
X152465000Y-116100000D01*
X152465000Y-118515000D01*
X151764250Y-118515000D01*
X151626250Y-118377000D01*
X151025000Y-118377000D01*
X151025000Y-118397000D01*
X150775000Y-118397000D01*
X150775000Y-118377000D01*
X150173750Y-118377000D01*
X150035750Y-118515000D01*
X150017630Y-118515000D01*
X150008162Y-118464683D01*
X149869090Y-118248559D01*
X149702891Y-118135000D01*
X150400000Y-118135000D01*
X150460328Y-118123000D01*
X150775000Y-118123000D01*
X150775000Y-118103000D01*
X151025000Y-118103000D01*
X151025000Y-118123000D01*
X151626250Y-118123000D01*
X151785000Y-117964250D01*
X151785000Y-117823691D01*
X151688327Y-117590302D01*
X151509699Y-117411673D01*
X151481058Y-117399810D01*
X151990434Y-116890434D01*
X152171440Y-116619540D01*
X152235000Y-116300000D01*
X152235000Y-115970189D01*
X152361645Y-115843765D01*
X152479792Y-115559238D01*
X152500277Y-115579723D01*
X152500277Y-115579723D01*
G37*
X152500277Y-115579723D02*
X152612559Y-115654747D01*
X152528561Y-115780459D01*
X152465000Y-116100000D01*
X152465000Y-118515000D01*
X151764250Y-118515000D01*
X151626250Y-118377000D01*
X151025000Y-118377000D01*
X151025000Y-118397000D01*
X150775000Y-118397000D01*
X150775000Y-118377000D01*
X150173750Y-118377000D01*
X150035750Y-118515000D01*
X150017630Y-118515000D01*
X150008162Y-118464683D01*
X149869090Y-118248559D01*
X149702891Y-118135000D01*
X150400000Y-118135000D01*
X150460328Y-118123000D01*
X150775000Y-118123000D01*
X150775000Y-118103000D01*
X151025000Y-118103000D01*
X151025000Y-118123000D01*
X151626250Y-118123000D01*
X151785000Y-117964250D01*
X151785000Y-117823691D01*
X151688327Y-117590302D01*
X151509699Y-117411673D01*
X151481058Y-117399810D01*
X151990434Y-116890434D01*
X152171440Y-116619540D01*
X152235000Y-116300000D01*
X152235000Y-115970189D01*
X152361645Y-115843765D01*
X152479792Y-115559238D01*
X152500277Y-115579723D01*
G36*
X169175000Y-107774250D02*
X169333750Y-107933000D01*
X171183000Y-107933000D01*
X171183000Y-107913000D01*
X171437000Y-107913000D01*
X171437000Y-107933000D01*
X173286250Y-107933000D01*
X173445000Y-107774250D01*
X173445000Y-107635000D01*
X175565000Y-107635000D01*
X175565000Y-110054132D01*
X173854173Y-111764959D01*
X173675225Y-111764803D01*
X173457440Y-111854790D01*
X173457440Y-111410000D01*
X173413162Y-111174683D01*
X173339380Y-111060022D01*
X173406431Y-110961890D01*
X173457440Y-110710000D01*
X173457440Y-109410000D01*
X173413162Y-109174683D01*
X173346672Y-109071354D01*
X173348327Y-109069699D01*
X173445000Y-108836310D01*
X173445000Y-108345750D01*
X173286250Y-108187000D01*
X171437000Y-108187000D01*
X171437000Y-108207000D01*
X171183000Y-108207000D01*
X171183000Y-108187000D01*
X169333750Y-108187000D01*
X169175000Y-108345750D01*
X169175000Y-108836310D01*
X169271673Y-109069699D01*
X169273042Y-109071068D01*
X169213569Y-109158110D01*
X169179773Y-109325000D01*
X166594008Y-109325000D01*
X166634803Y-109226756D01*
X166634961Y-109045908D01*
X166790434Y-108890435D01*
X166910996Y-108710000D01*
X166971439Y-108619541D01*
X167035000Y-108300000D01*
X167035000Y-107635000D01*
X169175000Y-107635000D01*
X169175000Y-107774250D01*
X169175000Y-107774250D01*
G37*
X169175000Y-107774250D02*
X169333750Y-107933000D01*
X171183000Y-107933000D01*
X171183000Y-107913000D01*
X171437000Y-107913000D01*
X171437000Y-107933000D01*
X173286250Y-107933000D01*
X173445000Y-107774250D01*
X173445000Y-107635000D01*
X175565000Y-107635000D01*
X175565000Y-110054132D01*
X173854173Y-111764959D01*
X173675225Y-111764803D01*
X173457440Y-111854790D01*
X173457440Y-111410000D01*
X173413162Y-111174683D01*
X173339380Y-111060022D01*
X173406431Y-110961890D01*
X173457440Y-110710000D01*
X173457440Y-109410000D01*
X173413162Y-109174683D01*
X173346672Y-109071354D01*
X173348327Y-109069699D01*
X173445000Y-108836310D01*
X173445000Y-108345750D01*
X173286250Y-108187000D01*
X171437000Y-108187000D01*
X171437000Y-108207000D01*
X171183000Y-108207000D01*
X171183000Y-108187000D01*
X169333750Y-108187000D01*
X169175000Y-108345750D01*
X169175000Y-108836310D01*
X169271673Y-109069699D01*
X169273042Y-109071068D01*
X169213569Y-109158110D01*
X169179773Y-109325000D01*
X166594008Y-109325000D01*
X166634803Y-109226756D01*
X166634961Y-109045908D01*
X166790434Y-108890435D01*
X166910996Y-108710000D01*
X166971439Y-108619541D01*
X167035000Y-108300000D01*
X167035000Y-107635000D01*
X169175000Y-107635000D01*
X169175000Y-107774250D01*
M02*
