M48
METRIC,TZ
T1C0.600
T2C1.016
%
G90
G05
T1
X122520Y-116420
X122600Y-118300
X122600Y-120100
X122630Y-122770
X123880Y-122770
X124920Y-114720
X126400Y-120600
X126470Y-108450
X126520Y-110320
X126520Y-112420
X127370Y-106840
X129600Y-106250
X131826Y-105410
X134000Y-104650
X135950Y-104050
X137010Y-119500
X137410Y-114800
X137750Y-113250
X137800Y-103400
X137800Y-105400
X137800Y-107400
X137800Y-109400
X137800Y-111400
X138700Y-122800
X139300Y-126200
X140050Y-102650
X141800Y-123300
X142250Y-101950
X143800Y-123300
X144200Y-101400
X145350Y-102900
X145350Y-104900
X145350Y-106900
X145350Y-108900
X145350Y-110900
X145950Y-100900
X146220Y-123340
X148100Y-100500
X149710Y-111090
X150390Y-100240
X151290Y-124620
X151400Y-115200
X152200Y-118200
X152700Y-102200
X152700Y-104100
X152700Y-106000
X152720Y-107820
X152750Y-100150
X153000Y-120900
X153650Y-124030
X156840Y-110060
X157000Y-124600
X158600Y-108700
X158900Y-100450
X159000Y-102350
X159000Y-104350
X159000Y-106350
X159500Y-107800
X160300Y-125100
X161550Y-100700
X161900Y-114700
X162000Y-124200
X162200Y-113500
X162500Y-110900
X162600Y-112300
X162750Y-104350
X163200Y-117600
X163200Y-119300
X164010Y-123480
X164200Y-100950
X164300Y-110700
X164900Y-117600
X164900Y-119300
X165400Y-123700
X165500Y-109000
X166850Y-104300
X166950Y-101400
X167200Y-124600
X167890Y-120560
X169000Y-124600
X169600Y-101900
X171000Y-124600
X171050Y-104300
X172150Y-102450
X173000Y-124600
X173700Y-107800
X173900Y-112900
X174600Y-103200
X174700Y-120100
X175100Y-114500
X175100Y-115900
X175100Y-124600
X175200Y-117300
X175300Y-118600
X176920Y-104020
X177000Y-123200
X177500Y-118900
X178000Y-111400
X178500Y-110100
X179100Y-112600
X179200Y-118900
X179200Y-126600
X179600Y-105200
X181500Y-126600
X182100Y-107000
X183900Y-126600
X184300Y-108700
X184300Y-110700
X184300Y-112700
X184300Y-114700
X186000Y-126600
T2
X188520Y-118040
X188520Y-120580
X188520Y-123120
X188520Y-125660
T0
M30
