G04 #@! TF.FileFunction,Copper,L2,Bot,Signal*
%FSLAX46Y46*%
G04 Gerber Fmt 4.6, Leading zero omitted, Abs format (unit mm)*
G04 Created by KiCad (PCBNEW 4.0.5+dfsg1-4~bpo8+1) date Tue Nov 21 17:33:29 2017*
%MOMM*%
%LPD*%
G01*
G04 APERTURE LIST*
%ADD10C,0.100000*%
%ADD11R,1.600000X1.600000*%
%ADD12O,1.600000X1.600000*%
%ADD13C,1.000000*%
%ADD14R,3.000000X1.300000*%
%ADD15R,2.000000X1.200000*%
%ADD16R,2.000000X1.100000*%
%ADD17R,0.750000X0.800000*%
%ADD18R,0.800000X0.750000*%
%ADD19R,1.727200X2.032000*%
%ADD20O,1.727200X2.032000*%
%ADD21R,0.900000X0.500000*%
%ADD22R,0.500000X0.900000*%
%ADD23C,0.500000*%
%ADD24O,0.800000X0.350000*%
%ADD25O,0.350000X0.800000*%
%ADD26R,4.400000X4.400000*%
%ADD27R,1.800000X1.000000*%
%ADD28C,0.600000*%
%ADD29C,0.200000*%
%ADD30C,0.250000*%
%ADD31C,0.350000*%
%ADD32C,0.300000*%
%ADD33C,0.400000*%
%ADD34C,0.254000*%
G04 APERTURE END LIST*
D10*
D11*
X93200000Y-89300000D03*
D12*
X91400000Y-89300000D03*
D13*
X109430000Y-77290000D03*
D14*
X113200000Y-74200000D03*
X113200000Y-76200000D03*
X113200000Y-78200000D03*
X113200000Y-80200000D03*
X113200000Y-82200000D03*
X113200000Y-84200000D03*
X113200000Y-86200000D03*
X113200000Y-88200000D03*
X129200000Y-88200000D03*
X129200000Y-86200000D03*
X129200000Y-84200000D03*
X129200000Y-82200000D03*
X129200000Y-80200000D03*
X129200000Y-78200000D03*
X129200000Y-76200000D03*
X129200000Y-74200000D03*
D13*
X93250000Y-82500000D03*
X133570000Y-76230000D03*
X133500000Y-78250000D03*
X133500000Y-79750000D03*
X114100000Y-64940000D03*
X114100000Y-63440000D03*
X114100000Y-61940000D03*
X112600000Y-64940000D03*
X112600000Y-63440000D03*
X112600000Y-61940000D03*
X111100000Y-64940000D03*
X111100000Y-63440000D03*
X111100000Y-61940000D03*
X139950000Y-91860000D03*
X139950000Y-90360000D03*
X139950000Y-88860000D03*
X138450000Y-91860000D03*
X138450000Y-90360000D03*
X138450000Y-88860000D03*
X136950000Y-91860000D03*
X136950000Y-90360000D03*
X136950000Y-88860000D03*
X116000000Y-67750000D03*
X116000000Y-66000000D03*
X116000000Y-64500000D03*
X116000000Y-63000000D03*
X116000000Y-61500000D03*
X116000000Y-60000000D03*
X89750000Y-90750000D03*
X89750000Y-89250000D03*
X101750000Y-79000000D03*
X101750000Y-76500000D03*
X99250000Y-79000000D03*
X99250000Y-76500000D03*
X133460000Y-69310000D03*
X133100000Y-72300000D03*
X135750000Y-82750000D03*
X135750000Y-81250000D03*
X135750000Y-79750000D03*
X135750000Y-78250000D03*
X135640000Y-76250000D03*
X133500000Y-81250000D03*
X135750000Y-84500000D03*
X131150000Y-69270000D03*
X135840000Y-71160000D03*
X135750000Y-69250000D03*
X135750000Y-86250000D03*
X141750000Y-86250000D03*
X140250000Y-86250000D03*
X138750000Y-86250000D03*
D15*
X143600000Y-74200000D03*
X143600000Y-79300000D03*
D16*
X143600000Y-76750000D03*
D17*
X99200000Y-68550000D03*
X99200000Y-67050000D03*
X101000000Y-68550000D03*
X101000000Y-67050000D03*
D18*
X91150000Y-80600000D03*
X89650000Y-80600000D03*
D17*
X97400000Y-68550000D03*
X97400000Y-67050000D03*
D18*
X107250000Y-75250000D03*
X108750000Y-75250000D03*
X106500000Y-77250000D03*
X108000000Y-77250000D03*
X91050000Y-84700000D03*
X89550000Y-84700000D03*
X91150000Y-82600000D03*
X89650000Y-82600000D03*
X91350000Y-71600000D03*
X89850000Y-71600000D03*
X89570000Y-78220000D03*
X91070000Y-78220000D03*
D17*
X143600000Y-84650000D03*
X143600000Y-86150000D03*
X135300000Y-74250000D03*
X135300000Y-72750000D03*
D19*
X117300000Y-92400000D03*
D20*
X114760000Y-92400000D03*
X112220000Y-92400000D03*
X109680000Y-92400000D03*
X107140000Y-92400000D03*
X104600000Y-92400000D03*
D21*
X103200000Y-66950000D03*
X103200000Y-68450000D03*
X105300000Y-68450000D03*
X105300000Y-66950000D03*
D22*
X132150000Y-74200000D03*
X133650000Y-74200000D03*
D23*
X99350000Y-89800000D03*
X100000000Y-89800000D03*
X100650000Y-89800000D03*
D24*
X97330000Y-80070000D03*
D25*
X98130000Y-74720000D03*
D24*
X103330000Y-80070000D03*
D25*
X98130000Y-80870000D03*
D24*
X97330000Y-79420000D03*
X97330000Y-78770000D03*
X97330000Y-78120000D03*
X97330000Y-77470000D03*
X97330000Y-76820000D03*
X97330000Y-76170000D03*
X97330000Y-75520000D03*
D25*
X102680000Y-80870000D03*
X102030000Y-80870000D03*
X101380000Y-80870000D03*
X100730000Y-80870000D03*
X100080000Y-80870000D03*
X99430000Y-80870000D03*
X98780000Y-80870000D03*
X98780000Y-74720000D03*
X99430000Y-74720000D03*
X100080000Y-74720000D03*
X100730000Y-74720000D03*
X101380000Y-74720000D03*
X102030000Y-74720000D03*
X102680000Y-74720000D03*
D24*
X103330000Y-75520000D03*
X103330000Y-76170000D03*
X103330000Y-76820000D03*
X103330000Y-77470000D03*
X103330000Y-78120000D03*
X103330000Y-78770000D03*
X103330000Y-79420000D03*
D26*
X100400000Y-77800000D03*
D27*
X90500000Y-76250000D03*
X90500000Y-73750000D03*
D13*
X137250000Y-86250000D03*
D17*
X107440000Y-68390000D03*
X107440000Y-66890000D03*
D13*
X103200000Y-66200000D03*
X94000000Y-60920000D03*
X92230000Y-77890000D03*
X109710000Y-67880000D03*
X111750000Y-74250000D03*
X122900000Y-72800000D03*
X95300000Y-84500000D03*
X95500000Y-89000000D03*
X89600000Y-72000000D03*
X103900000Y-73000000D03*
X131700000Y-86600000D03*
X132600000Y-92800000D03*
X100400000Y-77800000D03*
X119100000Y-89000000D03*
X131400000Y-72500000D03*
X107110000Y-60000000D03*
X90500000Y-68580000D03*
X95040000Y-60000000D03*
X110250000Y-72250000D03*
X98700000Y-72500000D03*
X131400000Y-89900000D03*
X124500000Y-88700000D03*
X95400000Y-73900000D03*
X92000000Y-84700000D03*
X116400000Y-86000000D03*
X104400000Y-85700000D03*
X133500000Y-85000000D03*
X95220000Y-64370000D03*
X95080000Y-67280000D03*
X109900000Y-84500000D03*
X95300000Y-69700000D03*
X103200000Y-89700000D03*
X104700000Y-89500000D03*
X92500000Y-72300000D03*
X125300000Y-79300000D03*
X124100000Y-72100000D03*
X97300000Y-83800000D03*
X116500000Y-84500000D03*
X115500000Y-83250000D03*
X115000000Y-72500000D03*
X123750000Y-85000000D03*
X105900000Y-88800000D03*
X120000000Y-74000000D03*
X99400000Y-70500000D03*
X122100000Y-88700000D03*
X118300000Y-74400000D03*
X100400000Y-71200000D03*
X120700000Y-88600000D03*
X125250000Y-84250000D03*
X106000000Y-87500000D03*
X125750000Y-83000000D03*
X107500000Y-87600000D03*
X101840000Y-59530000D03*
X89450000Y-62420000D03*
D28*
X143600000Y-74200000D02*
X135350000Y-74200000D01*
D29*
X135350000Y-74200000D02*
X135300000Y-74250000D01*
X133650000Y-74200000D02*
X135250000Y-74200000D01*
X135250000Y-74200000D02*
X135300000Y-74250000D01*
D28*
X143600000Y-84650000D02*
X143600000Y-79300000D01*
D29*
X103200000Y-66950000D02*
X103200000Y-66200000D01*
D30*
X94000000Y-60920000D02*
X94080000Y-60920000D01*
X96600000Y-63440000D02*
X111100000Y-63440000D01*
X94080000Y-60920000D02*
X96600000Y-63440000D01*
X89600000Y-72000000D02*
X89600000Y-71800000D01*
X89600000Y-71800000D02*
X92130000Y-69270000D01*
X92130000Y-62790000D02*
X94000000Y-60920000D01*
X92130000Y-69270000D02*
X92130000Y-62790000D01*
D29*
X92230000Y-77890000D02*
X91900000Y-78220000D01*
X91900000Y-78220000D02*
X91070000Y-78220000D01*
X105300000Y-66950000D02*
X105300000Y-66210000D01*
X105300000Y-66210000D02*
X104410000Y-65320000D01*
X101000000Y-67050000D02*
X101000000Y-66400000D01*
X101000000Y-66400000D02*
X102080000Y-65320000D01*
X102080000Y-65320000D02*
X104410000Y-65320000D01*
D31*
X109710000Y-67880000D02*
X109710000Y-68160000D01*
X104870000Y-73000000D02*
X103900000Y-73000000D01*
X109710000Y-68160000D02*
X104870000Y-73000000D01*
X107440000Y-66890000D02*
X108720000Y-66890000D01*
X108720000Y-66890000D02*
X109710000Y-67880000D01*
D32*
X107440000Y-66890000D02*
X105360000Y-66890000D01*
X105360000Y-66890000D02*
X105300000Y-66950000D01*
D33*
X108000000Y-77250000D02*
X109250000Y-77250000D01*
X109250000Y-77250000D02*
X109500000Y-77500000D01*
X108000000Y-77250000D02*
X108250000Y-77250000D01*
X108250000Y-77250000D02*
X108750000Y-76750000D01*
X108750000Y-76750000D02*
X108750000Y-75250000D01*
D29*
X113200000Y-74200000D02*
X111800000Y-74200000D01*
D33*
X111800000Y-74200000D02*
X111750000Y-74250000D01*
X129200000Y-76200000D02*
X131710000Y-76200000D01*
X131710000Y-76200000D02*
X135400000Y-79890000D01*
X95500000Y-90960000D02*
X96240000Y-91700000D01*
X96090000Y-91650000D02*
X96090000Y-91700000D01*
X96140000Y-91700000D02*
X96090000Y-91650000D01*
X96240000Y-91700000D02*
X96140000Y-91700000D01*
X95500000Y-89000000D02*
X95500000Y-90960000D01*
D32*
X114760000Y-92400000D02*
X114760000Y-93150000D01*
X114760000Y-93150000D02*
X115610000Y-94000000D01*
X131400000Y-94000000D02*
X132600000Y-92800000D01*
X115610000Y-94000000D02*
X131400000Y-94000000D01*
D33*
X89650000Y-82600000D02*
X89650000Y-80600000D01*
X89550000Y-84700000D02*
X89550000Y-82700000D01*
X89550000Y-82700000D02*
X89650000Y-82600000D01*
X89550000Y-84700000D02*
X89550000Y-86560000D01*
X89550000Y-86560000D02*
X89520000Y-86530000D01*
X91650000Y-88660000D02*
X91650000Y-89300000D01*
X89520000Y-86530000D02*
X91650000Y-88660000D01*
X129200000Y-76200000D02*
X127500000Y-76200000D01*
X127350000Y-72500000D02*
X131400000Y-72500000D01*
X126900000Y-72950000D02*
X127350000Y-72500000D01*
X126900000Y-75600000D02*
X126900000Y-72950000D01*
X127500000Y-76200000D02*
X126900000Y-75600000D01*
D29*
X106250000Y-66950000D02*
X105300000Y-66950000D01*
D33*
X105300000Y-66950000D02*
X106250000Y-66950000D01*
D29*
X131400000Y-72500000D02*
X131100000Y-72500000D01*
D33*
X131100000Y-72500000D02*
X128700000Y-70100000D01*
X128700000Y-70100000D02*
X124000000Y-70100000D01*
X124000000Y-70100000D02*
X122900000Y-71200000D01*
X122900000Y-71200000D02*
X122900000Y-72800000D01*
X136450000Y-86150000D02*
X143600000Y-86150000D01*
X135400000Y-85100000D02*
X136450000Y-86150000D01*
X135400000Y-79890000D02*
X135400000Y-85100000D01*
X135300000Y-72750000D02*
X131650000Y-72750000D01*
D29*
X131650000Y-72750000D02*
X131400000Y-72500000D01*
D33*
X95500000Y-84700000D02*
X95500000Y-89000000D01*
D29*
X95300000Y-84500000D02*
X95500000Y-84700000D01*
D33*
X99350000Y-89800000D02*
X98700000Y-89800000D01*
X97340000Y-91160000D02*
X96800000Y-91700000D01*
X96800000Y-91700000D02*
X96090000Y-91700000D01*
X98700000Y-89800000D02*
X97340000Y-91160000D01*
X91650000Y-91150000D02*
X91650000Y-89300000D01*
X95500000Y-91700000D02*
X92200000Y-91700000D01*
X92200000Y-91700000D02*
X91650000Y-91150000D01*
X96090000Y-91700000D02*
X95500000Y-91700000D01*
D29*
X89600000Y-72000000D02*
X89850000Y-71750000D01*
X89850000Y-71750000D02*
X89850000Y-71600000D01*
D33*
X128800000Y-90100000D02*
X130000000Y-90100000D01*
X131700000Y-88400000D02*
X131700000Y-86600000D01*
X130000000Y-90100000D02*
X131700000Y-88400000D01*
X119100000Y-89000000D02*
X120500000Y-90400000D01*
X127500000Y-90100000D02*
X128800000Y-90100000D01*
X124900000Y-87500000D02*
X127500000Y-90100000D01*
X123900000Y-87500000D02*
X124900000Y-87500000D01*
X123200000Y-88200000D02*
X123900000Y-87500000D01*
X123200000Y-89400000D02*
X123200000Y-88200000D01*
X122200000Y-90400000D02*
X123200000Y-89400000D01*
X120500000Y-90400000D02*
X122200000Y-90400000D01*
X131700000Y-86600000D02*
X132600000Y-87500000D01*
X132600000Y-87500000D02*
X132600000Y-92800000D01*
D29*
X89650000Y-80450000D02*
X89650000Y-80600000D01*
D33*
X99200000Y-67050000D02*
X97400000Y-67050000D01*
X101000000Y-67050000D02*
X99200000Y-67050000D01*
D29*
X89550000Y-82700000D02*
X89650000Y-82600000D01*
X113200000Y-88200000D02*
X113200000Y-88800000D01*
D33*
X113200000Y-88800000D02*
X114760000Y-90360000D01*
X114760000Y-90360000D02*
X114760000Y-92400000D01*
D30*
X90500000Y-68580000D02*
X90500000Y-62250000D01*
X92750000Y-60000000D02*
X95040000Y-60000000D01*
X90500000Y-62250000D02*
X92750000Y-60000000D01*
D29*
X95040000Y-60000000D02*
X97640000Y-60000000D01*
X97640000Y-60000000D02*
X98440000Y-60800000D01*
X98440000Y-60800000D02*
X106210000Y-60800000D01*
X106210000Y-60800000D02*
X107010000Y-60000000D01*
X107010000Y-60000000D02*
X107110000Y-60000000D01*
D33*
X107250000Y-75250000D02*
X110250000Y-72250000D01*
X107250000Y-75250000D02*
X107000000Y-75250000D01*
X107000000Y-75250000D02*
X104780000Y-77470000D01*
X104780000Y-77470000D02*
X103330000Y-77470000D01*
X106500000Y-77250000D02*
X106750000Y-77250000D01*
X106750000Y-77250000D02*
X107250000Y-76750000D01*
X107250000Y-76750000D02*
X107250000Y-75250000D01*
X103330000Y-78120000D02*
X106230000Y-78120000D01*
X106230000Y-78120000D02*
X106500000Y-77850000D01*
X106500000Y-77850000D02*
X106500000Y-77250000D01*
X106750000Y-77250000D02*
X107250000Y-76750000D01*
X107250000Y-76750000D02*
X107250000Y-75250000D01*
X106230000Y-78120000D02*
X106500000Y-77850000D01*
X106500000Y-77850000D02*
X106650000Y-77700000D01*
X124500000Y-88700000D02*
X124500000Y-91100000D01*
X124500000Y-91100000D02*
X123200000Y-92400000D01*
D29*
X99430000Y-73700000D02*
X99430000Y-73230000D01*
X99430000Y-74720000D02*
X99430000Y-73700000D01*
X99430000Y-73230000D02*
X98700000Y-72500000D01*
D32*
X97400000Y-71200000D02*
X97400000Y-68550000D01*
X98700000Y-72500000D02*
X97400000Y-71200000D01*
X106650000Y-77350000D02*
X106650000Y-77700000D01*
D33*
X117300000Y-92400000D02*
X123200000Y-92400000D01*
X123200000Y-92400000D02*
X130200000Y-92400000D01*
X130200000Y-92400000D02*
X131300000Y-91300000D01*
X131300000Y-91300000D02*
X131400000Y-89900000D01*
D29*
X95400000Y-74000000D02*
X95400000Y-73900000D01*
X92000000Y-84700000D02*
X91050000Y-84700000D01*
D33*
X91050000Y-84700000D02*
X91050000Y-82700000D01*
D29*
X91050000Y-82700000D02*
X91150000Y-82600000D01*
D33*
X91150000Y-82600000D02*
X91150000Y-80600000D01*
X117300000Y-92400000D02*
X117300000Y-86900000D01*
X117300000Y-86900000D02*
X116400000Y-86000000D01*
D29*
X101380000Y-74720000D02*
X101380000Y-70080000D01*
X100350000Y-69700000D02*
X99200000Y-68550000D01*
X101000000Y-69700000D02*
X100350000Y-69700000D01*
X101380000Y-70080000D02*
X101000000Y-69700000D01*
X102030000Y-74720000D02*
X102030000Y-69580000D01*
X102030000Y-69580000D02*
X101000000Y-68550000D01*
X99200000Y-68550000D02*
X101000000Y-68550000D01*
X97400000Y-68550000D02*
X99200000Y-68550000D01*
X104400000Y-85700000D02*
X103600000Y-85700000D01*
X103600000Y-85700000D02*
X103100000Y-85200000D01*
X100730000Y-80870000D02*
X100730000Y-82830000D01*
X100730000Y-82830000D02*
X103100000Y-85200000D01*
X106650000Y-77700000D02*
X106650000Y-77350000D01*
D33*
X97330000Y-78120000D02*
X95080000Y-78120000D01*
X92600000Y-80600000D02*
X91150000Y-80600000D01*
X95080000Y-78120000D02*
X92600000Y-80600000D01*
D29*
X97330000Y-75520000D02*
X92500000Y-75520000D01*
X92500000Y-75520000D02*
X90730000Y-73750000D01*
X90730000Y-73750000D02*
X90500000Y-73750000D01*
X91350000Y-71600000D02*
X91350000Y-72050000D01*
X90500000Y-72900000D02*
X90500000Y-73750000D01*
X91350000Y-72050000D02*
X90500000Y-72900000D01*
X89570000Y-78220000D02*
X89570000Y-77180000D01*
X89570000Y-77180000D02*
X90500000Y-76250000D01*
X90500000Y-76250000D02*
X97250000Y-76250000D01*
X97250000Y-76250000D02*
X97330000Y-76170000D01*
X90580000Y-76170000D02*
X90500000Y-76250000D01*
D33*
X129200000Y-78200000D02*
X130950000Y-78200000D01*
X131750000Y-83250000D02*
X133500000Y-85000000D01*
X131750000Y-79000000D02*
X131750000Y-83250000D01*
X130950000Y-78200000D02*
X131750000Y-79000000D01*
D29*
X95220000Y-67140000D02*
X95220000Y-64370000D01*
X95080000Y-67280000D02*
X95220000Y-67140000D01*
X98130000Y-74720000D02*
X98130000Y-73930000D01*
X95300000Y-71100000D02*
X95300000Y-69700000D01*
X98130000Y-73930000D02*
X95300000Y-71100000D01*
X110700000Y-90400000D02*
X110700000Y-85300000D01*
X110700000Y-85300000D02*
X109900000Y-84500000D01*
X112220000Y-92400000D02*
X112220000Y-91920000D01*
X112220000Y-91920000D02*
X110700000Y-90400000D01*
X98130000Y-74720000D02*
X98130000Y-74330000D01*
X112220000Y-91920000D02*
X111300000Y-91000000D01*
X111300000Y-91000000D02*
X110700000Y-90400000D01*
X112220000Y-93280000D02*
X112220000Y-92400000D01*
X102680000Y-80870000D02*
X102680000Y-82080000D01*
X109680000Y-85880000D02*
X109680000Y-92400000D01*
X107300000Y-83500000D02*
X109680000Y-85880000D01*
X104100000Y-83500000D02*
X107300000Y-83500000D01*
X102680000Y-82080000D02*
X104100000Y-83500000D01*
X107140000Y-92400000D02*
X107140000Y-91360000D01*
X102030000Y-82330000D02*
X102030000Y-80870000D01*
X103700000Y-84000000D02*
X102030000Y-82330000D01*
X106900000Y-84000000D02*
X103700000Y-84000000D01*
X109100000Y-86200000D02*
X106900000Y-84000000D01*
X109100000Y-89400000D02*
X109100000Y-86200000D01*
X107140000Y-91360000D02*
X109100000Y-89400000D01*
X104600000Y-92400000D02*
X108400000Y-88600000D01*
X101380000Y-82380000D02*
X101380000Y-80870000D01*
X103600000Y-84600000D02*
X101380000Y-82380000D01*
X106500000Y-84600000D02*
X103600000Y-84600000D01*
X108400000Y-86500000D02*
X106500000Y-84600000D01*
X108400000Y-88600000D02*
X108400000Y-86500000D01*
X102600000Y-89700000D02*
X103200000Y-89700000D01*
X97330000Y-79420000D02*
X96680000Y-79420000D01*
X101800000Y-89700000D02*
X102600000Y-89700000D01*
X96400000Y-84300000D02*
X101800000Y-89700000D01*
X96400000Y-79700000D02*
X96400000Y-84300000D01*
X96680000Y-79420000D02*
X96400000Y-79700000D01*
X103100000Y-88650000D02*
X103850000Y-88650000D01*
X103850000Y-88650000D02*
X104700000Y-89500000D01*
X102900000Y-88650000D02*
X103100000Y-88650000D01*
X101750000Y-88650000D02*
X102900000Y-88650000D01*
X98130000Y-85030000D02*
X98130000Y-84430000D01*
X101750000Y-88650000D02*
X98130000Y-85030000D01*
X98130000Y-80870000D02*
X98130000Y-84430000D01*
D32*
X105300000Y-68450000D02*
X107380000Y-68450000D01*
X107380000Y-68450000D02*
X107440000Y-68390000D01*
D29*
X102680000Y-74720000D02*
X102680000Y-71120000D01*
X103200000Y-70600000D02*
X103200000Y-68450000D01*
X102680000Y-71120000D02*
X103200000Y-70600000D01*
X103200000Y-68450000D02*
X105300000Y-68450000D01*
X95300000Y-68600000D02*
X95600000Y-68600000D01*
X95600000Y-68600000D02*
X96400000Y-69400000D01*
X92500000Y-72300000D02*
X92500000Y-69900000D01*
X92500000Y-69900000D02*
X92800000Y-69600000D01*
X93800000Y-68600000D02*
X95300000Y-68600000D01*
X92800000Y-69600000D02*
X93800000Y-68600000D01*
X98780000Y-73780000D02*
X96400000Y-71400000D01*
X96400000Y-71400000D02*
X96400000Y-69400000D01*
X98780000Y-74720000D02*
X98780000Y-73780000D01*
X125300000Y-73300000D02*
X125300000Y-79300000D01*
X124100000Y-72100000D02*
X125300000Y-73300000D01*
X97330000Y-80070000D02*
X97330000Y-83770000D01*
X97330000Y-83770000D02*
X97300000Y-83800000D01*
X113200000Y-86200000D02*
X114800000Y-86200000D01*
X114800000Y-86200000D02*
X116500000Y-84500000D01*
X113200000Y-86200000D02*
X114700000Y-86200000D01*
X103330000Y-80070000D02*
X106770000Y-80070000D01*
X108900000Y-82200000D02*
X113200000Y-82200000D01*
X106770000Y-80070000D02*
X108900000Y-82200000D01*
X123610000Y-79330000D02*
X123610000Y-83390000D01*
X127450000Y-88200000D02*
X129200000Y-88200000D01*
X126000000Y-86750000D02*
X127450000Y-88200000D01*
X123750000Y-86750000D02*
X126000000Y-86750000D01*
X122750000Y-85750000D02*
X123750000Y-86750000D01*
X122750000Y-84250000D02*
X122750000Y-85750000D01*
X123610000Y-83390000D02*
X122750000Y-84250000D01*
X123670000Y-79330000D02*
X123610000Y-79330000D01*
X123610000Y-79330000D02*
X123420000Y-79330000D01*
X123420000Y-79330000D02*
X123250000Y-79500000D01*
X123670000Y-79330000D02*
X123610000Y-79270000D01*
X123610000Y-79270000D02*
X123610000Y-76410000D01*
X118100000Y-70900000D02*
X117300000Y-70100000D01*
X117300000Y-70100000D02*
X109300000Y-70100000D01*
X118100000Y-70900000D02*
X123610000Y-76410000D01*
X108900000Y-70100000D02*
X108300000Y-70700000D01*
X103480000Y-75520000D02*
X108300000Y-70700000D01*
X109300000Y-70100000D02*
X108900000Y-70100000D01*
X103330000Y-75520000D02*
X103480000Y-75520000D01*
X110625000Y-73875000D02*
X110625000Y-77875000D01*
X110625000Y-73875000D02*
X112000000Y-72500000D01*
X110625000Y-77875000D02*
X109730000Y-78770000D01*
X109730000Y-78770000D02*
X109480000Y-78770000D01*
X112500000Y-72500000D02*
X115000000Y-72500000D01*
X115050000Y-84200000D02*
X113200000Y-84200000D01*
X115250000Y-84000000D02*
X115050000Y-84200000D01*
X115250000Y-83500000D02*
X115250000Y-84000000D01*
X115500000Y-83250000D02*
X115250000Y-83500000D01*
X112000000Y-72500000D02*
X112500000Y-72500000D01*
X103330000Y-78770000D02*
X109480000Y-78770000D01*
X124950000Y-86200000D02*
X129200000Y-86200000D01*
X123750000Y-85000000D02*
X124950000Y-86200000D01*
X129200000Y-86200000D02*
X127600000Y-86200000D01*
X127600000Y-86200000D02*
X127400000Y-86400000D01*
X127400000Y-86400000D02*
X127600000Y-86200000D01*
X103900000Y-88000000D02*
X105100000Y-88000000D01*
X105100000Y-88000000D02*
X105900000Y-88800000D01*
X98780000Y-84280000D02*
X102000000Y-87500000D01*
X98780000Y-80870000D02*
X98780000Y-84280000D01*
X102000000Y-87500000D02*
X102500000Y-88000000D01*
X102500000Y-88000000D02*
X103900000Y-88000000D01*
X121200000Y-87000000D02*
X121200000Y-75200000D01*
X121200000Y-75200000D02*
X120000000Y-74000000D01*
X100080000Y-74720000D02*
X100080000Y-72480000D01*
X99400000Y-71800000D02*
X99400000Y-70500000D01*
X100080000Y-72480000D02*
X99400000Y-71800000D01*
X122100000Y-88700000D02*
X122100000Y-87900000D01*
X122100000Y-87900000D02*
X121200000Y-87000000D01*
X118300000Y-74400000D02*
X118400000Y-74400000D01*
X118400000Y-74400000D02*
X120500000Y-76500000D01*
X120500000Y-86400000D02*
X120500000Y-76500000D01*
X120500000Y-76500000D02*
X119000000Y-75000000D01*
X119000000Y-75000000D02*
X118800000Y-74800000D01*
X100730000Y-74720000D02*
X100730000Y-71530000D01*
X100730000Y-71530000D02*
X100400000Y-71200000D01*
X120700000Y-88600000D02*
X120700000Y-86600000D01*
X120700000Y-86600000D02*
X120500000Y-86400000D01*
X117000000Y-73250000D02*
X117000000Y-72250000D01*
X109500000Y-70750000D02*
X109000000Y-71250000D01*
X115500000Y-70750000D02*
X109500000Y-70750000D01*
X117000000Y-72250000D02*
X115500000Y-70750000D01*
X103330000Y-76170000D02*
X104080000Y-76170000D01*
X104080000Y-76170000D02*
X109000000Y-71250000D01*
X116050000Y-80200000D02*
X113200000Y-80200000D01*
X117000000Y-79250000D02*
X116050000Y-80200000D01*
X117000000Y-73250000D02*
X117000000Y-79250000D01*
X108500000Y-72500000D02*
X109750000Y-71250000D01*
X116250000Y-72250000D02*
X116250000Y-74250000D01*
X115250000Y-71250000D02*
X116250000Y-72250000D01*
X109750000Y-71250000D02*
X115250000Y-71250000D01*
X103330000Y-76820000D02*
X104180000Y-76820000D01*
X115800000Y-78200000D02*
X113200000Y-78200000D01*
X116250000Y-77750000D02*
X115800000Y-78200000D01*
X116250000Y-74250000D02*
X116250000Y-77750000D01*
X104180000Y-76820000D02*
X108500000Y-72500000D01*
X111250000Y-77000000D02*
X111250000Y-78750000D01*
X111250000Y-78750000D02*
X110500000Y-79500000D01*
X110500000Y-79500000D02*
X110000000Y-79500000D01*
X108000000Y-79500000D02*
X103500000Y-79500000D01*
X110000000Y-79500000D02*
X108000000Y-79500000D01*
X113200000Y-76200000D02*
X112050000Y-76200000D01*
X112050000Y-76200000D02*
X111250000Y-77000000D01*
X103500000Y-79500000D02*
X103330000Y-79420000D01*
X113200000Y-76200000D02*
X111830000Y-76200000D01*
X129200000Y-84200000D02*
X125300000Y-84200000D01*
X125300000Y-84200000D02*
X125250000Y-84250000D01*
X105800000Y-87300000D02*
X106000000Y-87500000D01*
X102900000Y-87300000D02*
X105100000Y-87300000D01*
X99430000Y-80870000D02*
X99430000Y-83830000D01*
X99430000Y-83830000D02*
X102900000Y-87300000D01*
X105100000Y-87300000D02*
X105800000Y-87300000D01*
X126550000Y-82200000D02*
X129200000Y-82200000D01*
X125750000Y-83000000D02*
X126550000Y-82200000D01*
X106400000Y-86500000D02*
X107500000Y-87600000D01*
X103300000Y-86500000D02*
X106400000Y-86500000D01*
D31*
X129500000Y-82500000D02*
X129200000Y-82200000D01*
D29*
X103100000Y-86500000D02*
X103300000Y-86500000D01*
X100080000Y-80870000D02*
X100080000Y-83480000D01*
X100080000Y-83480000D02*
X103100000Y-86500000D01*
X92410000Y-79630000D02*
X92460000Y-79630000D01*
X92460000Y-79630000D02*
X94620000Y-77470000D01*
X88030000Y-79360000D02*
X88030000Y-79140000D01*
X88300000Y-79630000D02*
X88030000Y-79360000D01*
X92410000Y-79630000D02*
X88300000Y-79630000D01*
X97330000Y-77470000D02*
X94620000Y-77470000D01*
X88030000Y-76720000D02*
X88000000Y-76690000D01*
X88000000Y-76690000D02*
X88000000Y-62710000D01*
X88000000Y-62710000D02*
X91490000Y-59220000D01*
X91490000Y-59220000D02*
X100280000Y-59220000D01*
X88030000Y-79140000D02*
X88030000Y-76720000D01*
X100280000Y-59220000D02*
X101530000Y-59220000D01*
X101530000Y-59220000D02*
X101840000Y-59530000D01*
X100280000Y-59220000D02*
X100290000Y-59220000D01*
X92170000Y-79270000D02*
X92240000Y-79270000D01*
X92240000Y-79270000D02*
X94690000Y-76820000D01*
X88530000Y-79020000D02*
X88530000Y-78650000D01*
X88780000Y-79270000D02*
X88530000Y-79020000D01*
X92170000Y-79270000D02*
X88780000Y-79270000D01*
X97330000Y-76820000D02*
X94690000Y-76820000D01*
X88530000Y-78650000D02*
X88530000Y-76600000D01*
X88530000Y-63340000D02*
X89450000Y-62420000D01*
X88530000Y-76600000D02*
X88530000Y-63340000D01*
D34*
G36*
X87480277Y-62190277D02*
X87320949Y-62428728D01*
X87265000Y-62710000D01*
X87265000Y-76690000D01*
X87295000Y-76840819D01*
X87295000Y-79360000D01*
X87332794Y-79550000D01*
X87350949Y-79641272D01*
X87510277Y-79879723D01*
X87780277Y-80149724D01*
X88018728Y-80309051D01*
X88300000Y-80365000D01*
X88665750Y-80365000D01*
X88773750Y-80473000D01*
X89523000Y-80473000D01*
X89523000Y-80453000D01*
X89777000Y-80453000D01*
X89777000Y-80473000D01*
X89797000Y-80473000D01*
X89797000Y-80727000D01*
X89777000Y-80727000D01*
X89777000Y-81451250D01*
X89925750Y-81600000D01*
X89777000Y-81748750D01*
X89777000Y-82473000D01*
X89797000Y-82473000D01*
X89797000Y-82727000D01*
X89777000Y-82727000D01*
X89777000Y-83451250D01*
X89935750Y-83610000D01*
X90176309Y-83610000D01*
X90215000Y-83593974D01*
X90215000Y-83747448D01*
X90076309Y-83690000D01*
X89835750Y-83690000D01*
X89677000Y-83848750D01*
X89677000Y-84573000D01*
X89697000Y-84573000D01*
X89697000Y-84827000D01*
X89677000Y-84827000D01*
X89677000Y-85551250D01*
X89835750Y-85710000D01*
X90076309Y-85710000D01*
X90309698Y-85613327D01*
X90311068Y-85611957D01*
X90398110Y-85671431D01*
X90650000Y-85722440D01*
X91450000Y-85722440D01*
X91486228Y-85715623D01*
X91773244Y-85834803D01*
X92224775Y-85835197D01*
X92642086Y-85662767D01*
X92961645Y-85343765D01*
X93134803Y-84926756D01*
X93135197Y-84475225D01*
X92962767Y-84057914D01*
X92643765Y-83738355D01*
X92226756Y-83565197D01*
X91885000Y-83564899D01*
X91885000Y-83514018D01*
X92001441Y-83439090D01*
X92146431Y-83226890D01*
X92197440Y-82975000D01*
X92197440Y-82225000D01*
X92153162Y-81989683D01*
X92014090Y-81773559D01*
X91985000Y-81753683D01*
X91985000Y-81449669D01*
X92001441Y-81439090D01*
X92004236Y-81435000D01*
X92600000Y-81435000D01*
X92919541Y-81371439D01*
X93190434Y-81190434D01*
X95425868Y-78955000D01*
X96105553Y-78955000D01*
X95880277Y-79180277D01*
X95720949Y-79418728D01*
X95665000Y-79700000D01*
X95665000Y-84300000D01*
X95719304Y-84573000D01*
X95720949Y-84581272D01*
X95880277Y-84819723D01*
X99973760Y-88913207D01*
X99736743Y-88936917D01*
X99659414Y-88968948D01*
X99437070Y-88901872D01*
X99086743Y-88936917D01*
X98925860Y-89003558D01*
X98920075Y-89193298D01*
X99180169Y-89453392D01*
X99101872Y-89712930D01*
X99103619Y-89730396D01*
X98743298Y-89370075D01*
X98553558Y-89375860D01*
X98451872Y-89712930D01*
X98486917Y-90063257D01*
X98553558Y-90224140D01*
X98743298Y-90229925D01*
X99116279Y-89856944D01*
X99136917Y-90063257D01*
X99173999Y-90152778D01*
X98920075Y-90406702D01*
X98925860Y-90596442D01*
X99262930Y-90698128D01*
X99613257Y-90663083D01*
X99690586Y-90631052D01*
X99912930Y-90698128D01*
X100263257Y-90663083D01*
X100340586Y-90631052D01*
X100562930Y-90698128D01*
X100913257Y-90663083D01*
X101074140Y-90596442D01*
X101079925Y-90406702D01*
X100819831Y-90146608D01*
X100898128Y-89887070D01*
X100896381Y-89869604D01*
X101256702Y-90229925D01*
X101293849Y-90228792D01*
X101348040Y-90265001D01*
X101518728Y-90379051D01*
X101800000Y-90435000D01*
X102329985Y-90435000D01*
X102556235Y-90661645D01*
X102973244Y-90834803D01*
X103424775Y-90835197D01*
X103842086Y-90662767D01*
X104049908Y-90455307D01*
X104056235Y-90461645D01*
X104473244Y-90634803D01*
X104924775Y-90635197D01*
X105342086Y-90462767D01*
X105661645Y-90143765D01*
X105748387Y-89934869D01*
X106025443Y-89935110D01*
X105137069Y-90823485D01*
X104600000Y-90716655D01*
X104026511Y-90830729D01*
X103540330Y-91155585D01*
X103215474Y-91641766D01*
X103101400Y-92215255D01*
X103101400Y-92584745D01*
X103215474Y-93158234D01*
X103540330Y-93644415D01*
X104026511Y-93969271D01*
X104600000Y-94083345D01*
X105173489Y-93969271D01*
X105659670Y-93644415D01*
X105870000Y-93329634D01*
X106080330Y-93644415D01*
X106566511Y-93969271D01*
X107140000Y-94083345D01*
X107713489Y-93969271D01*
X108199670Y-93644415D01*
X108410000Y-93329634D01*
X108620330Y-93644415D01*
X109106511Y-93969271D01*
X109680000Y-94083345D01*
X110253489Y-93969271D01*
X110739670Y-93644415D01*
X110950000Y-93329634D01*
X111160330Y-93644415D01*
X111646511Y-93969271D01*
X112220000Y-94083345D01*
X112793489Y-93969271D01*
X113279670Y-93644415D01*
X113486461Y-93334931D01*
X113857964Y-93750732D01*
X114385209Y-94004709D01*
X114400974Y-94007358D01*
X114633000Y-93886217D01*
X114633000Y-92527000D01*
X114613000Y-92527000D01*
X114613000Y-92273000D01*
X114633000Y-92273000D01*
X114633000Y-90913783D01*
X114400974Y-90792642D01*
X114385209Y-90795291D01*
X113857964Y-91049268D01*
X113486461Y-91465069D01*
X113279670Y-91155585D01*
X112793489Y-90830729D01*
X112220000Y-90716655D01*
X112083294Y-90743847D01*
X111819724Y-90480278D01*
X111819723Y-90480276D01*
X111435000Y-90095554D01*
X111435000Y-89427552D01*
X111573691Y-89485000D01*
X112914250Y-89485000D01*
X113073000Y-89326250D01*
X113073000Y-88327000D01*
X113327000Y-88327000D01*
X113327000Y-89326250D01*
X113485750Y-89485000D01*
X114826309Y-89485000D01*
X115059698Y-89388327D01*
X115238327Y-89209699D01*
X115335000Y-88976310D01*
X115335000Y-88485750D01*
X115176250Y-88327000D01*
X113327000Y-88327000D01*
X113073000Y-88327000D01*
X113053000Y-88327000D01*
X113053000Y-88073000D01*
X113073000Y-88073000D01*
X113073000Y-88053000D01*
X113327000Y-88053000D01*
X113327000Y-88073000D01*
X115176250Y-88073000D01*
X115335000Y-87914250D01*
X115335000Y-87423690D01*
X115238327Y-87190301D01*
X115236958Y-87188932D01*
X115296431Y-87101890D01*
X115347440Y-86850000D01*
X115347440Y-86692006D01*
X115425575Y-86613871D01*
X115437233Y-86642086D01*
X115756235Y-86961645D01*
X116173244Y-87134803D01*
X116354093Y-87134961D01*
X116465000Y-87245868D01*
X116465000Y-90736560D01*
X116436400Y-90736560D01*
X116201083Y-90780838D01*
X115984959Y-90919910D01*
X115839969Y-91132110D01*
X115820768Y-91226927D01*
X115662036Y-91049268D01*
X115134791Y-90795291D01*
X115119026Y-90792642D01*
X114887000Y-90913783D01*
X114887000Y-92273000D01*
X114907000Y-92273000D01*
X114907000Y-92527000D01*
X114887000Y-92527000D01*
X114887000Y-93886217D01*
X115119026Y-94007358D01*
X115134791Y-94004709D01*
X115662036Y-93750732D01*
X115818907Y-93575155D01*
X115833238Y-93651317D01*
X115972310Y-93867441D01*
X116184510Y-94012431D01*
X116436400Y-94063440D01*
X118163600Y-94063440D01*
X118398917Y-94019162D01*
X118615041Y-93880090D01*
X118760031Y-93667890D01*
X118811040Y-93416000D01*
X118811040Y-93235000D01*
X130200000Y-93235000D01*
X130519541Y-93171439D01*
X130790434Y-92990434D01*
X131890434Y-91890434D01*
X131964706Y-91779278D01*
X132046712Y-91673692D01*
X132054687Y-91644611D01*
X132071439Y-91619540D01*
X132097520Y-91488421D01*
X132132878Y-91359491D01*
X132178053Y-90727037D01*
X132361645Y-90543765D01*
X132534803Y-90126756D01*
X132535197Y-89675225D01*
X132362767Y-89257914D01*
X132043765Y-88938355D01*
X131626756Y-88765197D01*
X131347440Y-88764953D01*
X131347440Y-87550000D01*
X131303162Y-87314683D01*
X131229380Y-87200022D01*
X131296431Y-87101890D01*
X131347440Y-86850000D01*
X131347440Y-86435750D01*
X142590000Y-86435750D01*
X142590000Y-86676309D01*
X142686673Y-86909698D01*
X142865301Y-87088327D01*
X143098690Y-87185000D01*
X143314250Y-87185000D01*
X143473000Y-87026250D01*
X143473000Y-86277000D01*
X143727000Y-86277000D01*
X143727000Y-87026250D01*
X143885750Y-87185000D01*
X144101310Y-87185000D01*
X144334699Y-87088327D01*
X144513327Y-86909698D01*
X144610000Y-86676309D01*
X144610000Y-86435750D01*
X144451250Y-86277000D01*
X143727000Y-86277000D01*
X143473000Y-86277000D01*
X142748750Y-86277000D01*
X142590000Y-86435750D01*
X131347440Y-86435750D01*
X131347440Y-85550000D01*
X131303162Y-85314683D01*
X131229380Y-85200022D01*
X131296431Y-85101890D01*
X131347440Y-84850000D01*
X131347440Y-84028308D01*
X132364959Y-85045827D01*
X132364803Y-85224775D01*
X132537233Y-85642086D01*
X132856235Y-85961645D01*
X133273244Y-86134803D01*
X133724775Y-86135197D01*
X134142086Y-85962767D01*
X134461645Y-85643765D01*
X134634803Y-85226756D01*
X134635197Y-84775225D01*
X134462767Y-84357914D01*
X134143765Y-84038355D01*
X133726756Y-83865197D01*
X133545907Y-83865039D01*
X132585000Y-82904132D01*
X132585000Y-79000000D01*
X132521439Y-78680459D01*
X132340434Y-78409566D01*
X131540434Y-77609566D01*
X131458770Y-77555000D01*
X131332506Y-77470633D01*
X131303162Y-77314683D01*
X131236672Y-77211354D01*
X131238327Y-77209699D01*
X131335000Y-76976310D01*
X131335000Y-76485750D01*
X131176250Y-76327000D01*
X129327000Y-76327000D01*
X129327000Y-76347000D01*
X129073000Y-76347000D01*
X129073000Y-76327000D01*
X127223750Y-76327000D01*
X127065000Y-76485750D01*
X127065000Y-76976310D01*
X127161673Y-77209699D01*
X127163042Y-77211068D01*
X127103569Y-77298110D01*
X127052560Y-77550000D01*
X127052560Y-78850000D01*
X127096838Y-79085317D01*
X127170620Y-79199978D01*
X127103569Y-79298110D01*
X127052560Y-79550000D01*
X127052560Y-80850000D01*
X127096838Y-81085317D01*
X127170620Y-81199978D01*
X127103569Y-81298110D01*
X127069773Y-81465000D01*
X126550000Y-81465000D01*
X126268728Y-81520949D01*
X126030277Y-81680276D01*
X125845471Y-81865082D01*
X125525225Y-81864803D01*
X125107914Y-82037233D01*
X124788355Y-82356235D01*
X124615197Y-82773244D01*
X124614803Y-83224775D01*
X124635842Y-83275693D01*
X124607914Y-83287233D01*
X124305366Y-83589254D01*
X124345000Y-83390000D01*
X124345000Y-79949867D01*
X124656235Y-80261645D01*
X125073244Y-80434803D01*
X125524775Y-80435197D01*
X125942086Y-80262767D01*
X126261645Y-79943765D01*
X126434803Y-79526756D01*
X126435197Y-79075225D01*
X126262767Y-78657914D01*
X126035000Y-78429749D01*
X126035000Y-74485750D01*
X127065000Y-74485750D01*
X127065000Y-74976310D01*
X127157656Y-75200000D01*
X127065000Y-75423690D01*
X127065000Y-75914250D01*
X127223750Y-76073000D01*
X129073000Y-76073000D01*
X129073000Y-74327000D01*
X127223750Y-74327000D01*
X127065000Y-74485750D01*
X126035000Y-74485750D01*
X126035000Y-73423690D01*
X127065000Y-73423690D01*
X127065000Y-73914250D01*
X127223750Y-74073000D01*
X129073000Y-74073000D01*
X129073000Y-73073750D01*
X128914250Y-72915000D01*
X127573691Y-72915000D01*
X127340302Y-73011673D01*
X127161673Y-73190301D01*
X127065000Y-73423690D01*
X126035000Y-73423690D01*
X126035000Y-73300000D01*
X125979051Y-73018728D01*
X125966352Y-72999723D01*
X125819723Y-72780276D01*
X125263138Y-72223691D01*
X134290000Y-72223691D01*
X134290000Y-72464250D01*
X134448750Y-72623000D01*
X135173000Y-72623000D01*
X135173000Y-71873750D01*
X135427000Y-71873750D01*
X135427000Y-72623000D01*
X136151250Y-72623000D01*
X136310000Y-72464250D01*
X136310000Y-72223691D01*
X136213327Y-71990302D01*
X136034699Y-71811673D01*
X135801310Y-71715000D01*
X135585750Y-71715000D01*
X135427000Y-71873750D01*
X135173000Y-71873750D01*
X135014250Y-71715000D01*
X134798690Y-71715000D01*
X134565301Y-71811673D01*
X134386673Y-71990302D01*
X134290000Y-72223691D01*
X125263138Y-72223691D01*
X125234918Y-72195471D01*
X125235197Y-71875225D01*
X125062767Y-71457914D01*
X124743765Y-71138355D01*
X124326756Y-70965197D01*
X123875225Y-70964803D01*
X123457914Y-71137233D01*
X123138355Y-71456235D01*
X122965197Y-71873244D01*
X122964803Y-72324775D01*
X123137233Y-72742086D01*
X123456235Y-73061645D01*
X123873244Y-73234803D01*
X124195638Y-73235084D01*
X124565000Y-73604447D01*
X124565000Y-78429985D01*
X124345000Y-78649602D01*
X124345000Y-76410000D01*
X124289051Y-76128728D01*
X124210354Y-76010949D01*
X124129724Y-75890277D01*
X118619726Y-70380280D01*
X118619724Y-70380277D01*
X117819723Y-69580277D01*
X117581272Y-69420949D01*
X117570106Y-69418728D01*
X117300000Y-69365000D01*
X108900000Y-69365000D01*
X108629894Y-69418728D01*
X108618728Y-69420949D01*
X108380276Y-69580277D01*
X107780279Y-70180275D01*
X107780276Y-70180277D01*
X103489308Y-74471246D01*
X103428342Y-74164749D01*
X103415000Y-74144781D01*
X103415000Y-71424446D01*
X103719723Y-71119724D01*
X103879051Y-70881272D01*
X103885083Y-70850949D01*
X103935000Y-70600000D01*
X103935000Y-69271192D01*
X104068946Y-69185000D01*
X104435025Y-69185000D01*
X104598110Y-69296431D01*
X104850000Y-69347440D01*
X105750000Y-69347440D01*
X105985317Y-69303162D01*
X106091244Y-69235000D01*
X106596765Y-69235000D01*
X106600910Y-69241441D01*
X106813110Y-69386431D01*
X107065000Y-69437440D01*
X107815000Y-69437440D01*
X108050317Y-69393162D01*
X108266441Y-69254090D01*
X108411431Y-69041890D01*
X108462440Y-68790000D01*
X108462440Y-67990000D01*
X108418162Y-67754683D01*
X108351671Y-67651354D01*
X108353327Y-67649698D01*
X108450000Y-67416309D01*
X108450000Y-67175750D01*
X108291250Y-67017000D01*
X107567000Y-67017000D01*
X107567000Y-67037000D01*
X107313000Y-67037000D01*
X107313000Y-67017000D01*
X106588750Y-67017000D01*
X106430000Y-67175750D01*
X106430000Y-67416309D01*
X106526673Y-67649698D01*
X106528043Y-67651068D01*
X106518523Y-67665000D01*
X106183026Y-67665000D01*
X106288327Y-67559698D01*
X106385000Y-67326309D01*
X106385000Y-67233750D01*
X106226250Y-67075000D01*
X105427000Y-67075000D01*
X105427000Y-67097000D01*
X105173000Y-67097000D01*
X105173000Y-67075000D01*
X105153000Y-67075000D01*
X105153000Y-66825000D01*
X105173000Y-66825000D01*
X105173000Y-66223750D01*
X105427000Y-66223750D01*
X105427000Y-66825000D01*
X106226250Y-66825000D01*
X106385000Y-66666250D01*
X106385000Y-66573691D01*
X106298016Y-66363691D01*
X106430000Y-66363691D01*
X106430000Y-66604250D01*
X106588750Y-66763000D01*
X107313000Y-66763000D01*
X107313000Y-66013750D01*
X107567000Y-66013750D01*
X107567000Y-66763000D01*
X108291250Y-66763000D01*
X108450000Y-66604250D01*
X108450000Y-66363691D01*
X108353327Y-66130302D01*
X108174699Y-65951673D01*
X107941310Y-65855000D01*
X107725750Y-65855000D01*
X107567000Y-66013750D01*
X107313000Y-66013750D01*
X107154250Y-65855000D01*
X106938690Y-65855000D01*
X106705301Y-65951673D01*
X106526673Y-66130302D01*
X106430000Y-66363691D01*
X106298016Y-66363691D01*
X106288327Y-66340302D01*
X106109699Y-66161673D01*
X105876310Y-66065000D01*
X105585750Y-66065000D01*
X105427000Y-66223750D01*
X105173000Y-66223750D01*
X105014250Y-66065000D01*
X104723690Y-66065000D01*
X104490301Y-66161673D01*
X104334899Y-66317076D01*
X104335197Y-65975225D01*
X104162767Y-65557914D01*
X103843765Y-65238355D01*
X103426756Y-65065197D01*
X102975225Y-65064803D01*
X102557914Y-65237233D01*
X102238355Y-65556235D01*
X102065197Y-65973244D01*
X102064803Y-66424775D01*
X102127545Y-66576621D01*
X102102560Y-66700000D01*
X102102560Y-67200000D01*
X102146838Y-67435317D01*
X102285910Y-67651441D01*
X102355711Y-67699134D01*
X102298559Y-67735910D01*
X102153569Y-67948110D01*
X102102560Y-68200000D01*
X102102560Y-68613113D01*
X102022440Y-68532994D01*
X102022440Y-68150000D01*
X101978162Y-67914683D01*
X101911671Y-67811354D01*
X101913327Y-67809698D01*
X102010000Y-67576309D01*
X102010000Y-67335750D01*
X101851250Y-67177000D01*
X101127000Y-67177000D01*
X101127000Y-67197000D01*
X100873000Y-67197000D01*
X100873000Y-67177000D01*
X100148750Y-67177000D01*
X100100000Y-67225750D01*
X100051250Y-67177000D01*
X99327000Y-67177000D01*
X99327000Y-67197000D01*
X99073000Y-67197000D01*
X99073000Y-67177000D01*
X98348750Y-67177000D01*
X98300000Y-67225750D01*
X98251250Y-67177000D01*
X97527000Y-67177000D01*
X97527000Y-67197000D01*
X97273000Y-67197000D01*
X97273000Y-67177000D01*
X96548750Y-67177000D01*
X96390000Y-67335750D01*
X96390000Y-67576309D01*
X96486673Y-67809698D01*
X96488043Y-67811068D01*
X96428569Y-67898110D01*
X96377560Y-68150000D01*
X96377560Y-68338114D01*
X96119723Y-68080277D01*
X95979031Y-67986270D01*
X96041645Y-67923765D01*
X96214803Y-67506756D01*
X96215197Y-67055225D01*
X96042767Y-66637914D01*
X95955000Y-66549994D01*
X95955000Y-66523691D01*
X96390000Y-66523691D01*
X96390000Y-66764250D01*
X96548750Y-66923000D01*
X97273000Y-66923000D01*
X97273000Y-66173750D01*
X97527000Y-66173750D01*
X97527000Y-66923000D01*
X98251250Y-66923000D01*
X98300000Y-66874250D01*
X98348750Y-66923000D01*
X99073000Y-66923000D01*
X99073000Y-66173750D01*
X99327000Y-66173750D01*
X99327000Y-66923000D01*
X100051250Y-66923000D01*
X100100000Y-66874250D01*
X100148750Y-66923000D01*
X100873000Y-66923000D01*
X100873000Y-66173750D01*
X101127000Y-66173750D01*
X101127000Y-66923000D01*
X101851250Y-66923000D01*
X102010000Y-66764250D01*
X102010000Y-66523691D01*
X101913327Y-66290302D01*
X101734699Y-66111673D01*
X101501310Y-66015000D01*
X101285750Y-66015000D01*
X101127000Y-66173750D01*
X100873000Y-66173750D01*
X100714250Y-66015000D01*
X100498690Y-66015000D01*
X100265301Y-66111673D01*
X100100000Y-66276975D01*
X99934699Y-66111673D01*
X99701310Y-66015000D01*
X99485750Y-66015000D01*
X99327000Y-66173750D01*
X99073000Y-66173750D01*
X98914250Y-66015000D01*
X98698690Y-66015000D01*
X98465301Y-66111673D01*
X98300000Y-66276975D01*
X98134699Y-66111673D01*
X97901310Y-66015000D01*
X97685750Y-66015000D01*
X97527000Y-66173750D01*
X97273000Y-66173750D01*
X97114250Y-66015000D01*
X96898690Y-66015000D01*
X96665301Y-66111673D01*
X96486673Y-66290302D01*
X96390000Y-66523691D01*
X95955000Y-66523691D01*
X95955000Y-65240015D01*
X96181645Y-65013765D01*
X96354803Y-64596756D01*
X96355197Y-64145225D01*
X96182767Y-63727914D01*
X95863765Y-63408355D01*
X95446756Y-63235197D01*
X94995225Y-63234803D01*
X94577914Y-63407233D01*
X94258355Y-63726235D01*
X94085197Y-64143244D01*
X94084803Y-64594775D01*
X94257233Y-65012086D01*
X94485000Y-65240251D01*
X94485000Y-66297777D01*
X94437914Y-66317233D01*
X94118355Y-66636235D01*
X93945197Y-67053244D01*
X93944803Y-67504775D01*
X94093645Y-67865000D01*
X93800000Y-67865000D01*
X93518728Y-67920949D01*
X93280277Y-68080276D01*
X92280279Y-69080275D01*
X92280276Y-69080277D01*
X91980277Y-69380277D01*
X91820949Y-69618728D01*
X91765000Y-69900000D01*
X91765000Y-70580598D01*
X91750000Y-70577560D01*
X90950000Y-70577560D01*
X90714683Y-70621838D01*
X90611354Y-70688329D01*
X90609698Y-70686673D01*
X90376309Y-70590000D01*
X90135750Y-70590000D01*
X89977000Y-70748750D01*
X89977000Y-71473000D01*
X89997000Y-71473000D01*
X89997000Y-71727000D01*
X89977000Y-71727000D01*
X89977000Y-71747000D01*
X89723000Y-71747000D01*
X89723000Y-71727000D01*
X89703000Y-71727000D01*
X89703000Y-71473000D01*
X89723000Y-71473000D01*
X89723000Y-70748750D01*
X89564250Y-70590000D01*
X89323691Y-70590000D01*
X89265000Y-70614311D01*
X89265000Y-63644446D01*
X89354529Y-63554918D01*
X89674775Y-63555197D01*
X89740000Y-63528246D01*
X89740000Y-67734941D01*
X89538355Y-67936235D01*
X89365197Y-68353244D01*
X89364803Y-68804775D01*
X89537233Y-69222086D01*
X89856235Y-69541645D01*
X90273244Y-69714803D01*
X90724775Y-69715197D01*
X91142086Y-69542767D01*
X91461645Y-69223765D01*
X91634803Y-68806756D01*
X91635197Y-68355225D01*
X91462767Y-67937914D01*
X91260000Y-67734793D01*
X91260000Y-62564802D01*
X93064802Y-60760000D01*
X94194941Y-60760000D01*
X94396235Y-60961645D01*
X94813244Y-61134803D01*
X95264775Y-61135197D01*
X95682086Y-60962767D01*
X95910251Y-60735000D01*
X97335554Y-60735000D01*
X97920277Y-61319724D01*
X98126075Y-61457233D01*
X98158728Y-61479051D01*
X98440000Y-61535000D01*
X106210000Y-61535000D01*
X106491272Y-61479051D01*
X106729723Y-61319723D01*
X106914616Y-61134830D01*
X107334775Y-61135197D01*
X107752086Y-60962767D01*
X108071645Y-60643765D01*
X108244803Y-60226756D01*
X108245197Y-59775225D01*
X108072767Y-59357914D01*
X107925111Y-59210000D01*
X116873000Y-59210000D01*
X116873000Y-68500000D01*
X116881685Y-68546159D01*
X116908965Y-68588553D01*
X116950590Y-68616994D01*
X117000000Y-68627000D01*
X136373000Y-68627000D01*
X136373000Y-73265000D01*
X136310000Y-73265000D01*
X136310000Y-73035750D01*
X136151250Y-72877000D01*
X135427000Y-72877000D01*
X135427000Y-72897000D01*
X135173000Y-72897000D01*
X135173000Y-72877000D01*
X134448750Y-72877000D01*
X134290000Y-73035750D01*
X134290000Y-73247935D01*
X134151890Y-73153569D01*
X133900000Y-73102560D01*
X133400000Y-73102560D01*
X133164683Y-73146838D01*
X132948559Y-73285910D01*
X132900866Y-73355711D01*
X132864090Y-73298559D01*
X132651890Y-73153569D01*
X132400000Y-73102560D01*
X131900000Y-73102560D01*
X131664683Y-73146838D01*
X131448559Y-73285910D01*
X131335000Y-73452109D01*
X131335000Y-73423690D01*
X131238327Y-73190301D01*
X131059698Y-73011673D01*
X130826309Y-72915000D01*
X129485750Y-72915000D01*
X129327000Y-73073750D01*
X129327000Y-74073000D01*
X129347000Y-74073000D01*
X129347000Y-74327000D01*
X129327000Y-74327000D01*
X129327000Y-76073000D01*
X131176250Y-76073000D01*
X131335000Y-75914250D01*
X131335000Y-75423690D01*
X131242344Y-75200000D01*
X131335000Y-74976310D01*
X131335000Y-74944622D01*
X131435910Y-75101441D01*
X131648110Y-75246431D01*
X131900000Y-75297440D01*
X132400000Y-75297440D01*
X132635317Y-75253162D01*
X132851441Y-75114090D01*
X132899134Y-75044289D01*
X132935910Y-75101441D01*
X133148110Y-75246431D01*
X133400000Y-75297440D01*
X133900000Y-75297440D01*
X134135317Y-75253162D01*
X134351441Y-75114090D01*
X134412009Y-75025446D01*
X134460910Y-75101441D01*
X134673110Y-75246431D01*
X134925000Y-75297440D01*
X135675000Y-75297440D01*
X135910317Y-75253162D01*
X136093946Y-75135000D01*
X136373000Y-75135000D01*
X136373000Y-85500000D01*
X136381685Y-85546159D01*
X136408965Y-85588553D01*
X136450590Y-85616994D01*
X136500000Y-85627000D01*
X142590000Y-85627000D01*
X142590000Y-85864250D01*
X142748750Y-86023000D01*
X143473000Y-86023000D01*
X143473000Y-86003000D01*
X143727000Y-86003000D01*
X143727000Y-86023000D01*
X144451250Y-86023000D01*
X144610000Y-85864250D01*
X144610000Y-85627000D01*
X144790000Y-85627000D01*
X144790000Y-92621972D01*
X144593148Y-92490440D01*
X144030000Y-92378423D01*
X143466852Y-92490440D01*
X142989438Y-92809438D01*
X142670440Y-93286852D01*
X142558423Y-93850000D01*
X142670440Y-94413148D01*
X142715109Y-94480000D01*
X89250857Y-94480000D01*
X89366226Y-93900000D01*
X89250810Y-93319765D01*
X88922134Y-92827866D01*
X88430235Y-92499190D01*
X87850000Y-92383774D01*
X87269765Y-92499190D01*
X87210000Y-92539124D01*
X87210000Y-89649039D01*
X90008096Y-89649039D01*
X90168959Y-90037423D01*
X90544866Y-90452389D01*
X91050959Y-90691914D01*
X91273000Y-90570629D01*
X91273000Y-89427000D01*
X90130085Y-89427000D01*
X90008096Y-89649039D01*
X87210000Y-89649039D01*
X87210000Y-88950961D01*
X90008096Y-88950961D01*
X90130085Y-89173000D01*
X91273000Y-89173000D01*
X91273000Y-88029371D01*
X91527000Y-88029371D01*
X91527000Y-89173000D01*
X91547000Y-89173000D01*
X91547000Y-89427000D01*
X91527000Y-89427000D01*
X91527000Y-90570629D01*
X91749041Y-90691914D01*
X91980898Y-90582180D01*
X92148110Y-90696431D01*
X92400000Y-90747440D01*
X94000000Y-90747440D01*
X94235317Y-90703162D01*
X94451441Y-90564090D01*
X94596431Y-90351890D01*
X94647440Y-90100000D01*
X94647440Y-88500000D01*
X94603162Y-88264683D01*
X94464090Y-88048559D01*
X94251890Y-87903569D01*
X94000000Y-87852560D01*
X92400000Y-87852560D01*
X92164683Y-87896838D01*
X91978463Y-88016667D01*
X91749041Y-87908086D01*
X91527000Y-88029371D01*
X91273000Y-88029371D01*
X91050959Y-87908086D01*
X90544866Y-88147611D01*
X90168959Y-88562577D01*
X90008096Y-88950961D01*
X87210000Y-88950961D01*
X87210000Y-84985750D01*
X88515000Y-84985750D01*
X88515000Y-85201310D01*
X88611673Y-85434699D01*
X88790302Y-85613327D01*
X89023691Y-85710000D01*
X89264250Y-85710000D01*
X89423000Y-85551250D01*
X89423000Y-84827000D01*
X88673750Y-84827000D01*
X88515000Y-84985750D01*
X87210000Y-84985750D01*
X87210000Y-84198690D01*
X88515000Y-84198690D01*
X88515000Y-84414250D01*
X88673750Y-84573000D01*
X89423000Y-84573000D01*
X89423000Y-83848750D01*
X89264250Y-83690000D01*
X89023691Y-83690000D01*
X88790302Y-83786673D01*
X88611673Y-83965301D01*
X88515000Y-84198690D01*
X87210000Y-84198690D01*
X87210000Y-82885750D01*
X88615000Y-82885750D01*
X88615000Y-83101310D01*
X88711673Y-83334699D01*
X88890302Y-83513327D01*
X89123691Y-83610000D01*
X89364250Y-83610000D01*
X89523000Y-83451250D01*
X89523000Y-82727000D01*
X88773750Y-82727000D01*
X88615000Y-82885750D01*
X87210000Y-82885750D01*
X87210000Y-80885750D01*
X88615000Y-80885750D01*
X88615000Y-81101310D01*
X88711673Y-81334699D01*
X88890302Y-81513327D01*
X89099549Y-81600000D01*
X88890302Y-81686673D01*
X88711673Y-81865301D01*
X88615000Y-82098690D01*
X88615000Y-82314250D01*
X88773750Y-82473000D01*
X89523000Y-82473000D01*
X89523000Y-81748750D01*
X89374250Y-81600000D01*
X89523000Y-81451250D01*
X89523000Y-80727000D01*
X88773750Y-80727000D01*
X88615000Y-80885750D01*
X87210000Y-80885750D01*
X87210000Y-60934093D01*
X87217697Y-60939236D01*
X87760000Y-61047107D01*
X88302303Y-60939236D01*
X88762046Y-60632046D01*
X89069236Y-60172303D01*
X89177107Y-59630000D01*
X89093564Y-59210000D01*
X90460553Y-59210000D01*
X87480277Y-62190277D01*
X87480277Y-62190277D01*
G37*
X87480277Y-62190277D02*
X87320949Y-62428728D01*
X87265000Y-62710000D01*
X87265000Y-76690000D01*
X87295000Y-76840819D01*
X87295000Y-79360000D01*
X87332794Y-79550000D01*
X87350949Y-79641272D01*
X87510277Y-79879723D01*
X87780277Y-80149724D01*
X88018728Y-80309051D01*
X88300000Y-80365000D01*
X88665750Y-80365000D01*
X88773750Y-80473000D01*
X89523000Y-80473000D01*
X89523000Y-80453000D01*
X89777000Y-80453000D01*
X89777000Y-80473000D01*
X89797000Y-80473000D01*
X89797000Y-80727000D01*
X89777000Y-80727000D01*
X89777000Y-81451250D01*
X89925750Y-81600000D01*
X89777000Y-81748750D01*
X89777000Y-82473000D01*
X89797000Y-82473000D01*
X89797000Y-82727000D01*
X89777000Y-82727000D01*
X89777000Y-83451250D01*
X89935750Y-83610000D01*
X90176309Y-83610000D01*
X90215000Y-83593974D01*
X90215000Y-83747448D01*
X90076309Y-83690000D01*
X89835750Y-83690000D01*
X89677000Y-83848750D01*
X89677000Y-84573000D01*
X89697000Y-84573000D01*
X89697000Y-84827000D01*
X89677000Y-84827000D01*
X89677000Y-85551250D01*
X89835750Y-85710000D01*
X90076309Y-85710000D01*
X90309698Y-85613327D01*
X90311068Y-85611957D01*
X90398110Y-85671431D01*
X90650000Y-85722440D01*
X91450000Y-85722440D01*
X91486228Y-85715623D01*
X91773244Y-85834803D01*
X92224775Y-85835197D01*
X92642086Y-85662767D01*
X92961645Y-85343765D01*
X93134803Y-84926756D01*
X93135197Y-84475225D01*
X92962767Y-84057914D01*
X92643765Y-83738355D01*
X92226756Y-83565197D01*
X91885000Y-83564899D01*
X91885000Y-83514018D01*
X92001441Y-83439090D01*
X92146431Y-83226890D01*
X92197440Y-82975000D01*
X92197440Y-82225000D01*
X92153162Y-81989683D01*
X92014090Y-81773559D01*
X91985000Y-81753683D01*
X91985000Y-81449669D01*
X92001441Y-81439090D01*
X92004236Y-81435000D01*
X92600000Y-81435000D01*
X92919541Y-81371439D01*
X93190434Y-81190434D01*
X95425868Y-78955000D01*
X96105553Y-78955000D01*
X95880277Y-79180277D01*
X95720949Y-79418728D01*
X95665000Y-79700000D01*
X95665000Y-84300000D01*
X95719304Y-84573000D01*
X95720949Y-84581272D01*
X95880277Y-84819723D01*
X99973760Y-88913207D01*
X99736743Y-88936917D01*
X99659414Y-88968948D01*
X99437070Y-88901872D01*
X99086743Y-88936917D01*
X98925860Y-89003558D01*
X98920075Y-89193298D01*
X99180169Y-89453392D01*
X99101872Y-89712930D01*
X99103619Y-89730396D01*
X98743298Y-89370075D01*
X98553558Y-89375860D01*
X98451872Y-89712930D01*
X98486917Y-90063257D01*
X98553558Y-90224140D01*
X98743298Y-90229925D01*
X99116279Y-89856944D01*
X99136917Y-90063257D01*
X99173999Y-90152778D01*
X98920075Y-90406702D01*
X98925860Y-90596442D01*
X99262930Y-90698128D01*
X99613257Y-90663083D01*
X99690586Y-90631052D01*
X99912930Y-90698128D01*
X100263257Y-90663083D01*
X100340586Y-90631052D01*
X100562930Y-90698128D01*
X100913257Y-90663083D01*
X101074140Y-90596442D01*
X101079925Y-90406702D01*
X100819831Y-90146608D01*
X100898128Y-89887070D01*
X100896381Y-89869604D01*
X101256702Y-90229925D01*
X101293849Y-90228792D01*
X101348040Y-90265001D01*
X101518728Y-90379051D01*
X101800000Y-90435000D01*
X102329985Y-90435000D01*
X102556235Y-90661645D01*
X102973244Y-90834803D01*
X103424775Y-90835197D01*
X103842086Y-90662767D01*
X104049908Y-90455307D01*
X104056235Y-90461645D01*
X104473244Y-90634803D01*
X104924775Y-90635197D01*
X105342086Y-90462767D01*
X105661645Y-90143765D01*
X105748387Y-89934869D01*
X106025443Y-89935110D01*
X105137069Y-90823485D01*
X104600000Y-90716655D01*
X104026511Y-90830729D01*
X103540330Y-91155585D01*
X103215474Y-91641766D01*
X103101400Y-92215255D01*
X103101400Y-92584745D01*
X103215474Y-93158234D01*
X103540330Y-93644415D01*
X104026511Y-93969271D01*
X104600000Y-94083345D01*
X105173489Y-93969271D01*
X105659670Y-93644415D01*
X105870000Y-93329634D01*
X106080330Y-93644415D01*
X106566511Y-93969271D01*
X107140000Y-94083345D01*
X107713489Y-93969271D01*
X108199670Y-93644415D01*
X108410000Y-93329634D01*
X108620330Y-93644415D01*
X109106511Y-93969271D01*
X109680000Y-94083345D01*
X110253489Y-93969271D01*
X110739670Y-93644415D01*
X110950000Y-93329634D01*
X111160330Y-93644415D01*
X111646511Y-93969271D01*
X112220000Y-94083345D01*
X112793489Y-93969271D01*
X113279670Y-93644415D01*
X113486461Y-93334931D01*
X113857964Y-93750732D01*
X114385209Y-94004709D01*
X114400974Y-94007358D01*
X114633000Y-93886217D01*
X114633000Y-92527000D01*
X114613000Y-92527000D01*
X114613000Y-92273000D01*
X114633000Y-92273000D01*
X114633000Y-90913783D01*
X114400974Y-90792642D01*
X114385209Y-90795291D01*
X113857964Y-91049268D01*
X113486461Y-91465069D01*
X113279670Y-91155585D01*
X112793489Y-90830729D01*
X112220000Y-90716655D01*
X112083294Y-90743847D01*
X111819724Y-90480278D01*
X111819723Y-90480276D01*
X111435000Y-90095554D01*
X111435000Y-89427552D01*
X111573691Y-89485000D01*
X112914250Y-89485000D01*
X113073000Y-89326250D01*
X113073000Y-88327000D01*
X113327000Y-88327000D01*
X113327000Y-89326250D01*
X113485750Y-89485000D01*
X114826309Y-89485000D01*
X115059698Y-89388327D01*
X115238327Y-89209699D01*
X115335000Y-88976310D01*
X115335000Y-88485750D01*
X115176250Y-88327000D01*
X113327000Y-88327000D01*
X113073000Y-88327000D01*
X113053000Y-88327000D01*
X113053000Y-88073000D01*
X113073000Y-88073000D01*
X113073000Y-88053000D01*
X113327000Y-88053000D01*
X113327000Y-88073000D01*
X115176250Y-88073000D01*
X115335000Y-87914250D01*
X115335000Y-87423690D01*
X115238327Y-87190301D01*
X115236958Y-87188932D01*
X115296431Y-87101890D01*
X115347440Y-86850000D01*
X115347440Y-86692006D01*
X115425575Y-86613871D01*
X115437233Y-86642086D01*
X115756235Y-86961645D01*
X116173244Y-87134803D01*
X116354093Y-87134961D01*
X116465000Y-87245868D01*
X116465000Y-90736560D01*
X116436400Y-90736560D01*
X116201083Y-90780838D01*
X115984959Y-90919910D01*
X115839969Y-91132110D01*
X115820768Y-91226927D01*
X115662036Y-91049268D01*
X115134791Y-90795291D01*
X115119026Y-90792642D01*
X114887000Y-90913783D01*
X114887000Y-92273000D01*
X114907000Y-92273000D01*
X114907000Y-92527000D01*
X114887000Y-92527000D01*
X114887000Y-93886217D01*
X115119026Y-94007358D01*
X115134791Y-94004709D01*
X115662036Y-93750732D01*
X115818907Y-93575155D01*
X115833238Y-93651317D01*
X115972310Y-93867441D01*
X116184510Y-94012431D01*
X116436400Y-94063440D01*
X118163600Y-94063440D01*
X118398917Y-94019162D01*
X118615041Y-93880090D01*
X118760031Y-93667890D01*
X118811040Y-93416000D01*
X118811040Y-93235000D01*
X130200000Y-93235000D01*
X130519541Y-93171439D01*
X130790434Y-92990434D01*
X131890434Y-91890434D01*
X131964706Y-91779278D01*
X132046712Y-91673692D01*
X132054687Y-91644611D01*
X132071439Y-91619540D01*
X132097520Y-91488421D01*
X132132878Y-91359491D01*
X132178053Y-90727037D01*
X132361645Y-90543765D01*
X132534803Y-90126756D01*
X132535197Y-89675225D01*
X132362767Y-89257914D01*
X132043765Y-88938355D01*
X131626756Y-88765197D01*
X131347440Y-88764953D01*
X131347440Y-87550000D01*
X131303162Y-87314683D01*
X131229380Y-87200022D01*
X131296431Y-87101890D01*
X131347440Y-86850000D01*
X131347440Y-86435750D01*
X142590000Y-86435750D01*
X142590000Y-86676309D01*
X142686673Y-86909698D01*
X142865301Y-87088327D01*
X143098690Y-87185000D01*
X143314250Y-87185000D01*
X143473000Y-87026250D01*
X143473000Y-86277000D01*
X143727000Y-86277000D01*
X143727000Y-87026250D01*
X143885750Y-87185000D01*
X144101310Y-87185000D01*
X144334699Y-87088327D01*
X144513327Y-86909698D01*
X144610000Y-86676309D01*
X144610000Y-86435750D01*
X144451250Y-86277000D01*
X143727000Y-86277000D01*
X143473000Y-86277000D01*
X142748750Y-86277000D01*
X142590000Y-86435750D01*
X131347440Y-86435750D01*
X131347440Y-85550000D01*
X131303162Y-85314683D01*
X131229380Y-85200022D01*
X131296431Y-85101890D01*
X131347440Y-84850000D01*
X131347440Y-84028308D01*
X132364959Y-85045827D01*
X132364803Y-85224775D01*
X132537233Y-85642086D01*
X132856235Y-85961645D01*
X133273244Y-86134803D01*
X133724775Y-86135197D01*
X134142086Y-85962767D01*
X134461645Y-85643765D01*
X134634803Y-85226756D01*
X134635197Y-84775225D01*
X134462767Y-84357914D01*
X134143765Y-84038355D01*
X133726756Y-83865197D01*
X133545907Y-83865039D01*
X132585000Y-82904132D01*
X132585000Y-79000000D01*
X132521439Y-78680459D01*
X132340434Y-78409566D01*
X131540434Y-77609566D01*
X131458770Y-77555000D01*
X131332506Y-77470633D01*
X131303162Y-77314683D01*
X131236672Y-77211354D01*
X131238327Y-77209699D01*
X131335000Y-76976310D01*
X131335000Y-76485750D01*
X131176250Y-76327000D01*
X129327000Y-76327000D01*
X129327000Y-76347000D01*
X129073000Y-76347000D01*
X129073000Y-76327000D01*
X127223750Y-76327000D01*
X127065000Y-76485750D01*
X127065000Y-76976310D01*
X127161673Y-77209699D01*
X127163042Y-77211068D01*
X127103569Y-77298110D01*
X127052560Y-77550000D01*
X127052560Y-78850000D01*
X127096838Y-79085317D01*
X127170620Y-79199978D01*
X127103569Y-79298110D01*
X127052560Y-79550000D01*
X127052560Y-80850000D01*
X127096838Y-81085317D01*
X127170620Y-81199978D01*
X127103569Y-81298110D01*
X127069773Y-81465000D01*
X126550000Y-81465000D01*
X126268728Y-81520949D01*
X126030277Y-81680276D01*
X125845471Y-81865082D01*
X125525225Y-81864803D01*
X125107914Y-82037233D01*
X124788355Y-82356235D01*
X124615197Y-82773244D01*
X124614803Y-83224775D01*
X124635842Y-83275693D01*
X124607914Y-83287233D01*
X124305366Y-83589254D01*
X124345000Y-83390000D01*
X124345000Y-79949867D01*
X124656235Y-80261645D01*
X125073244Y-80434803D01*
X125524775Y-80435197D01*
X125942086Y-80262767D01*
X126261645Y-79943765D01*
X126434803Y-79526756D01*
X126435197Y-79075225D01*
X126262767Y-78657914D01*
X126035000Y-78429749D01*
X126035000Y-74485750D01*
X127065000Y-74485750D01*
X127065000Y-74976310D01*
X127157656Y-75200000D01*
X127065000Y-75423690D01*
X127065000Y-75914250D01*
X127223750Y-76073000D01*
X129073000Y-76073000D01*
X129073000Y-74327000D01*
X127223750Y-74327000D01*
X127065000Y-74485750D01*
X126035000Y-74485750D01*
X126035000Y-73423690D01*
X127065000Y-73423690D01*
X127065000Y-73914250D01*
X127223750Y-74073000D01*
X129073000Y-74073000D01*
X129073000Y-73073750D01*
X128914250Y-72915000D01*
X127573691Y-72915000D01*
X127340302Y-73011673D01*
X127161673Y-73190301D01*
X127065000Y-73423690D01*
X126035000Y-73423690D01*
X126035000Y-73300000D01*
X125979051Y-73018728D01*
X125966352Y-72999723D01*
X125819723Y-72780276D01*
X125263138Y-72223691D01*
X134290000Y-72223691D01*
X134290000Y-72464250D01*
X134448750Y-72623000D01*
X135173000Y-72623000D01*
X135173000Y-71873750D01*
X135427000Y-71873750D01*
X135427000Y-72623000D01*
X136151250Y-72623000D01*
X136310000Y-72464250D01*
X136310000Y-72223691D01*
X136213327Y-71990302D01*
X136034699Y-71811673D01*
X135801310Y-71715000D01*
X135585750Y-71715000D01*
X135427000Y-71873750D01*
X135173000Y-71873750D01*
X135014250Y-71715000D01*
X134798690Y-71715000D01*
X134565301Y-71811673D01*
X134386673Y-71990302D01*
X134290000Y-72223691D01*
X125263138Y-72223691D01*
X125234918Y-72195471D01*
X125235197Y-71875225D01*
X125062767Y-71457914D01*
X124743765Y-71138355D01*
X124326756Y-70965197D01*
X123875225Y-70964803D01*
X123457914Y-71137233D01*
X123138355Y-71456235D01*
X122965197Y-71873244D01*
X122964803Y-72324775D01*
X123137233Y-72742086D01*
X123456235Y-73061645D01*
X123873244Y-73234803D01*
X124195638Y-73235084D01*
X124565000Y-73604447D01*
X124565000Y-78429985D01*
X124345000Y-78649602D01*
X124345000Y-76410000D01*
X124289051Y-76128728D01*
X124210354Y-76010949D01*
X124129724Y-75890277D01*
X118619726Y-70380280D01*
X118619724Y-70380277D01*
X117819723Y-69580277D01*
X117581272Y-69420949D01*
X117570106Y-69418728D01*
X117300000Y-69365000D01*
X108900000Y-69365000D01*
X108629894Y-69418728D01*
X108618728Y-69420949D01*
X108380276Y-69580277D01*
X107780279Y-70180275D01*
X107780276Y-70180277D01*
X103489308Y-74471246D01*
X103428342Y-74164749D01*
X103415000Y-74144781D01*
X103415000Y-71424446D01*
X103719723Y-71119724D01*
X103879051Y-70881272D01*
X103885083Y-70850949D01*
X103935000Y-70600000D01*
X103935000Y-69271192D01*
X104068946Y-69185000D01*
X104435025Y-69185000D01*
X104598110Y-69296431D01*
X104850000Y-69347440D01*
X105750000Y-69347440D01*
X105985317Y-69303162D01*
X106091244Y-69235000D01*
X106596765Y-69235000D01*
X106600910Y-69241441D01*
X106813110Y-69386431D01*
X107065000Y-69437440D01*
X107815000Y-69437440D01*
X108050317Y-69393162D01*
X108266441Y-69254090D01*
X108411431Y-69041890D01*
X108462440Y-68790000D01*
X108462440Y-67990000D01*
X108418162Y-67754683D01*
X108351671Y-67651354D01*
X108353327Y-67649698D01*
X108450000Y-67416309D01*
X108450000Y-67175750D01*
X108291250Y-67017000D01*
X107567000Y-67017000D01*
X107567000Y-67037000D01*
X107313000Y-67037000D01*
X107313000Y-67017000D01*
X106588750Y-67017000D01*
X106430000Y-67175750D01*
X106430000Y-67416309D01*
X106526673Y-67649698D01*
X106528043Y-67651068D01*
X106518523Y-67665000D01*
X106183026Y-67665000D01*
X106288327Y-67559698D01*
X106385000Y-67326309D01*
X106385000Y-67233750D01*
X106226250Y-67075000D01*
X105427000Y-67075000D01*
X105427000Y-67097000D01*
X105173000Y-67097000D01*
X105173000Y-67075000D01*
X105153000Y-67075000D01*
X105153000Y-66825000D01*
X105173000Y-66825000D01*
X105173000Y-66223750D01*
X105427000Y-66223750D01*
X105427000Y-66825000D01*
X106226250Y-66825000D01*
X106385000Y-66666250D01*
X106385000Y-66573691D01*
X106298016Y-66363691D01*
X106430000Y-66363691D01*
X106430000Y-66604250D01*
X106588750Y-66763000D01*
X107313000Y-66763000D01*
X107313000Y-66013750D01*
X107567000Y-66013750D01*
X107567000Y-66763000D01*
X108291250Y-66763000D01*
X108450000Y-66604250D01*
X108450000Y-66363691D01*
X108353327Y-66130302D01*
X108174699Y-65951673D01*
X107941310Y-65855000D01*
X107725750Y-65855000D01*
X107567000Y-66013750D01*
X107313000Y-66013750D01*
X107154250Y-65855000D01*
X106938690Y-65855000D01*
X106705301Y-65951673D01*
X106526673Y-66130302D01*
X106430000Y-66363691D01*
X106298016Y-66363691D01*
X106288327Y-66340302D01*
X106109699Y-66161673D01*
X105876310Y-66065000D01*
X105585750Y-66065000D01*
X105427000Y-66223750D01*
X105173000Y-66223750D01*
X105014250Y-66065000D01*
X104723690Y-66065000D01*
X104490301Y-66161673D01*
X104334899Y-66317076D01*
X104335197Y-65975225D01*
X104162767Y-65557914D01*
X103843765Y-65238355D01*
X103426756Y-65065197D01*
X102975225Y-65064803D01*
X102557914Y-65237233D01*
X102238355Y-65556235D01*
X102065197Y-65973244D01*
X102064803Y-66424775D01*
X102127545Y-66576621D01*
X102102560Y-66700000D01*
X102102560Y-67200000D01*
X102146838Y-67435317D01*
X102285910Y-67651441D01*
X102355711Y-67699134D01*
X102298559Y-67735910D01*
X102153569Y-67948110D01*
X102102560Y-68200000D01*
X102102560Y-68613113D01*
X102022440Y-68532994D01*
X102022440Y-68150000D01*
X101978162Y-67914683D01*
X101911671Y-67811354D01*
X101913327Y-67809698D01*
X102010000Y-67576309D01*
X102010000Y-67335750D01*
X101851250Y-67177000D01*
X101127000Y-67177000D01*
X101127000Y-67197000D01*
X100873000Y-67197000D01*
X100873000Y-67177000D01*
X100148750Y-67177000D01*
X100100000Y-67225750D01*
X100051250Y-67177000D01*
X99327000Y-67177000D01*
X99327000Y-67197000D01*
X99073000Y-67197000D01*
X99073000Y-67177000D01*
X98348750Y-67177000D01*
X98300000Y-67225750D01*
X98251250Y-67177000D01*
X97527000Y-67177000D01*
X97527000Y-67197000D01*
X97273000Y-67197000D01*
X97273000Y-67177000D01*
X96548750Y-67177000D01*
X96390000Y-67335750D01*
X96390000Y-67576309D01*
X96486673Y-67809698D01*
X96488043Y-67811068D01*
X96428569Y-67898110D01*
X96377560Y-68150000D01*
X96377560Y-68338114D01*
X96119723Y-68080277D01*
X95979031Y-67986270D01*
X96041645Y-67923765D01*
X96214803Y-67506756D01*
X96215197Y-67055225D01*
X96042767Y-66637914D01*
X95955000Y-66549994D01*
X95955000Y-66523691D01*
X96390000Y-66523691D01*
X96390000Y-66764250D01*
X96548750Y-66923000D01*
X97273000Y-66923000D01*
X97273000Y-66173750D01*
X97527000Y-66173750D01*
X97527000Y-66923000D01*
X98251250Y-66923000D01*
X98300000Y-66874250D01*
X98348750Y-66923000D01*
X99073000Y-66923000D01*
X99073000Y-66173750D01*
X99327000Y-66173750D01*
X99327000Y-66923000D01*
X100051250Y-66923000D01*
X100100000Y-66874250D01*
X100148750Y-66923000D01*
X100873000Y-66923000D01*
X100873000Y-66173750D01*
X101127000Y-66173750D01*
X101127000Y-66923000D01*
X101851250Y-66923000D01*
X102010000Y-66764250D01*
X102010000Y-66523691D01*
X101913327Y-66290302D01*
X101734699Y-66111673D01*
X101501310Y-66015000D01*
X101285750Y-66015000D01*
X101127000Y-66173750D01*
X100873000Y-66173750D01*
X100714250Y-66015000D01*
X100498690Y-66015000D01*
X100265301Y-66111673D01*
X100100000Y-66276975D01*
X99934699Y-66111673D01*
X99701310Y-66015000D01*
X99485750Y-66015000D01*
X99327000Y-66173750D01*
X99073000Y-66173750D01*
X98914250Y-66015000D01*
X98698690Y-66015000D01*
X98465301Y-66111673D01*
X98300000Y-66276975D01*
X98134699Y-66111673D01*
X97901310Y-66015000D01*
X97685750Y-66015000D01*
X97527000Y-66173750D01*
X97273000Y-66173750D01*
X97114250Y-66015000D01*
X96898690Y-66015000D01*
X96665301Y-66111673D01*
X96486673Y-66290302D01*
X96390000Y-66523691D01*
X95955000Y-66523691D01*
X95955000Y-65240015D01*
X96181645Y-65013765D01*
X96354803Y-64596756D01*
X96355197Y-64145225D01*
X96182767Y-63727914D01*
X95863765Y-63408355D01*
X95446756Y-63235197D01*
X94995225Y-63234803D01*
X94577914Y-63407233D01*
X94258355Y-63726235D01*
X94085197Y-64143244D01*
X94084803Y-64594775D01*
X94257233Y-65012086D01*
X94485000Y-65240251D01*
X94485000Y-66297777D01*
X94437914Y-66317233D01*
X94118355Y-66636235D01*
X93945197Y-67053244D01*
X93944803Y-67504775D01*
X94093645Y-67865000D01*
X93800000Y-67865000D01*
X93518728Y-67920949D01*
X93280277Y-68080276D01*
X92280279Y-69080275D01*
X92280276Y-69080277D01*
X91980277Y-69380277D01*
X91820949Y-69618728D01*
X91765000Y-69900000D01*
X91765000Y-70580598D01*
X91750000Y-70577560D01*
X90950000Y-70577560D01*
X90714683Y-70621838D01*
X90611354Y-70688329D01*
X90609698Y-70686673D01*
X90376309Y-70590000D01*
X90135750Y-70590000D01*
X89977000Y-70748750D01*
X89977000Y-71473000D01*
X89997000Y-71473000D01*
X89997000Y-71727000D01*
X89977000Y-71727000D01*
X89977000Y-71747000D01*
X89723000Y-71747000D01*
X89723000Y-71727000D01*
X89703000Y-71727000D01*
X89703000Y-71473000D01*
X89723000Y-71473000D01*
X89723000Y-70748750D01*
X89564250Y-70590000D01*
X89323691Y-70590000D01*
X89265000Y-70614311D01*
X89265000Y-63644446D01*
X89354529Y-63554918D01*
X89674775Y-63555197D01*
X89740000Y-63528246D01*
X89740000Y-67734941D01*
X89538355Y-67936235D01*
X89365197Y-68353244D01*
X89364803Y-68804775D01*
X89537233Y-69222086D01*
X89856235Y-69541645D01*
X90273244Y-69714803D01*
X90724775Y-69715197D01*
X91142086Y-69542767D01*
X91461645Y-69223765D01*
X91634803Y-68806756D01*
X91635197Y-68355225D01*
X91462767Y-67937914D01*
X91260000Y-67734793D01*
X91260000Y-62564802D01*
X93064802Y-60760000D01*
X94194941Y-60760000D01*
X94396235Y-60961645D01*
X94813244Y-61134803D01*
X95264775Y-61135197D01*
X95682086Y-60962767D01*
X95910251Y-60735000D01*
X97335554Y-60735000D01*
X97920277Y-61319724D01*
X98126075Y-61457233D01*
X98158728Y-61479051D01*
X98440000Y-61535000D01*
X106210000Y-61535000D01*
X106491272Y-61479051D01*
X106729723Y-61319723D01*
X106914616Y-61134830D01*
X107334775Y-61135197D01*
X107752086Y-60962767D01*
X108071645Y-60643765D01*
X108244803Y-60226756D01*
X108245197Y-59775225D01*
X108072767Y-59357914D01*
X107925111Y-59210000D01*
X116873000Y-59210000D01*
X116873000Y-68500000D01*
X116881685Y-68546159D01*
X116908965Y-68588553D01*
X116950590Y-68616994D01*
X117000000Y-68627000D01*
X136373000Y-68627000D01*
X136373000Y-73265000D01*
X136310000Y-73265000D01*
X136310000Y-73035750D01*
X136151250Y-72877000D01*
X135427000Y-72877000D01*
X135427000Y-72897000D01*
X135173000Y-72897000D01*
X135173000Y-72877000D01*
X134448750Y-72877000D01*
X134290000Y-73035750D01*
X134290000Y-73247935D01*
X134151890Y-73153569D01*
X133900000Y-73102560D01*
X133400000Y-73102560D01*
X133164683Y-73146838D01*
X132948559Y-73285910D01*
X132900866Y-73355711D01*
X132864090Y-73298559D01*
X132651890Y-73153569D01*
X132400000Y-73102560D01*
X131900000Y-73102560D01*
X131664683Y-73146838D01*
X131448559Y-73285910D01*
X131335000Y-73452109D01*
X131335000Y-73423690D01*
X131238327Y-73190301D01*
X131059698Y-73011673D01*
X130826309Y-72915000D01*
X129485750Y-72915000D01*
X129327000Y-73073750D01*
X129327000Y-74073000D01*
X129347000Y-74073000D01*
X129347000Y-74327000D01*
X129327000Y-74327000D01*
X129327000Y-76073000D01*
X131176250Y-76073000D01*
X131335000Y-75914250D01*
X131335000Y-75423690D01*
X131242344Y-75200000D01*
X131335000Y-74976310D01*
X131335000Y-74944622D01*
X131435910Y-75101441D01*
X131648110Y-75246431D01*
X131900000Y-75297440D01*
X132400000Y-75297440D01*
X132635317Y-75253162D01*
X132851441Y-75114090D01*
X132899134Y-75044289D01*
X132935910Y-75101441D01*
X133148110Y-75246431D01*
X133400000Y-75297440D01*
X133900000Y-75297440D01*
X134135317Y-75253162D01*
X134351441Y-75114090D01*
X134412009Y-75025446D01*
X134460910Y-75101441D01*
X134673110Y-75246431D01*
X134925000Y-75297440D01*
X135675000Y-75297440D01*
X135910317Y-75253162D01*
X136093946Y-75135000D01*
X136373000Y-75135000D01*
X136373000Y-85500000D01*
X136381685Y-85546159D01*
X136408965Y-85588553D01*
X136450590Y-85616994D01*
X136500000Y-85627000D01*
X142590000Y-85627000D01*
X142590000Y-85864250D01*
X142748750Y-86023000D01*
X143473000Y-86023000D01*
X143473000Y-86003000D01*
X143727000Y-86003000D01*
X143727000Y-86023000D01*
X144451250Y-86023000D01*
X144610000Y-85864250D01*
X144610000Y-85627000D01*
X144790000Y-85627000D01*
X144790000Y-92621972D01*
X144593148Y-92490440D01*
X144030000Y-92378423D01*
X143466852Y-92490440D01*
X142989438Y-92809438D01*
X142670440Y-93286852D01*
X142558423Y-93850000D01*
X142670440Y-94413148D01*
X142715109Y-94480000D01*
X89250857Y-94480000D01*
X89366226Y-93900000D01*
X89250810Y-93319765D01*
X88922134Y-92827866D01*
X88430235Y-92499190D01*
X87850000Y-92383774D01*
X87269765Y-92499190D01*
X87210000Y-92539124D01*
X87210000Y-89649039D01*
X90008096Y-89649039D01*
X90168959Y-90037423D01*
X90544866Y-90452389D01*
X91050959Y-90691914D01*
X91273000Y-90570629D01*
X91273000Y-89427000D01*
X90130085Y-89427000D01*
X90008096Y-89649039D01*
X87210000Y-89649039D01*
X87210000Y-88950961D01*
X90008096Y-88950961D01*
X90130085Y-89173000D01*
X91273000Y-89173000D01*
X91273000Y-88029371D01*
X91527000Y-88029371D01*
X91527000Y-89173000D01*
X91547000Y-89173000D01*
X91547000Y-89427000D01*
X91527000Y-89427000D01*
X91527000Y-90570629D01*
X91749041Y-90691914D01*
X91980898Y-90582180D01*
X92148110Y-90696431D01*
X92400000Y-90747440D01*
X94000000Y-90747440D01*
X94235317Y-90703162D01*
X94451441Y-90564090D01*
X94596431Y-90351890D01*
X94647440Y-90100000D01*
X94647440Y-88500000D01*
X94603162Y-88264683D01*
X94464090Y-88048559D01*
X94251890Y-87903569D01*
X94000000Y-87852560D01*
X92400000Y-87852560D01*
X92164683Y-87896838D01*
X91978463Y-88016667D01*
X91749041Y-87908086D01*
X91527000Y-88029371D01*
X91273000Y-88029371D01*
X91050959Y-87908086D01*
X90544866Y-88147611D01*
X90168959Y-88562577D01*
X90008096Y-88950961D01*
X87210000Y-88950961D01*
X87210000Y-84985750D01*
X88515000Y-84985750D01*
X88515000Y-85201310D01*
X88611673Y-85434699D01*
X88790302Y-85613327D01*
X89023691Y-85710000D01*
X89264250Y-85710000D01*
X89423000Y-85551250D01*
X89423000Y-84827000D01*
X88673750Y-84827000D01*
X88515000Y-84985750D01*
X87210000Y-84985750D01*
X87210000Y-84198690D01*
X88515000Y-84198690D01*
X88515000Y-84414250D01*
X88673750Y-84573000D01*
X89423000Y-84573000D01*
X89423000Y-83848750D01*
X89264250Y-83690000D01*
X89023691Y-83690000D01*
X88790302Y-83786673D01*
X88611673Y-83965301D01*
X88515000Y-84198690D01*
X87210000Y-84198690D01*
X87210000Y-82885750D01*
X88615000Y-82885750D01*
X88615000Y-83101310D01*
X88711673Y-83334699D01*
X88890302Y-83513327D01*
X89123691Y-83610000D01*
X89364250Y-83610000D01*
X89523000Y-83451250D01*
X89523000Y-82727000D01*
X88773750Y-82727000D01*
X88615000Y-82885750D01*
X87210000Y-82885750D01*
X87210000Y-80885750D01*
X88615000Y-80885750D01*
X88615000Y-81101310D01*
X88711673Y-81334699D01*
X88890302Y-81513327D01*
X89099549Y-81600000D01*
X88890302Y-81686673D01*
X88711673Y-81865301D01*
X88615000Y-82098690D01*
X88615000Y-82314250D01*
X88773750Y-82473000D01*
X89523000Y-82473000D01*
X89523000Y-81748750D01*
X89374250Y-81600000D01*
X89523000Y-81451250D01*
X89523000Y-80727000D01*
X88773750Y-80727000D01*
X88615000Y-80885750D01*
X87210000Y-80885750D01*
X87210000Y-60934093D01*
X87217697Y-60939236D01*
X87760000Y-61047107D01*
X88302303Y-60939236D01*
X88762046Y-60632046D01*
X89069236Y-60172303D01*
X89177107Y-59630000D01*
X89093564Y-59210000D01*
X90460553Y-59210000D01*
X87480277Y-62190277D01*
G36*
X118073244Y-75534803D02*
X118495725Y-75535172D01*
X119765000Y-76804447D01*
X119765000Y-86400000D01*
X119808950Y-86620949D01*
X119820949Y-86681272D01*
X119965000Y-86896859D01*
X119965000Y-87729985D01*
X119738355Y-87956235D01*
X119565197Y-88373244D01*
X119564803Y-88824775D01*
X119737233Y-89242086D01*
X120056235Y-89561645D01*
X120473244Y-89734803D01*
X120924775Y-89735197D01*
X121342086Y-89562767D01*
X121349821Y-89555045D01*
X121456235Y-89661645D01*
X121873244Y-89834803D01*
X122324775Y-89835197D01*
X122742086Y-89662767D01*
X123061645Y-89343765D01*
X123234803Y-88926756D01*
X123235197Y-88475225D01*
X123062767Y-88057914D01*
X122817549Y-87812268D01*
X122779051Y-87618728D01*
X122743283Y-87565197D01*
X122619723Y-87380276D01*
X121935000Y-86695554D01*
X121935000Y-75774447D01*
X122875000Y-76714447D01*
X122875000Y-78835553D01*
X122730277Y-78980277D01*
X122570949Y-79218728D01*
X122515001Y-79500000D01*
X122570949Y-79781272D01*
X122730277Y-80019723D01*
X122875000Y-80116424D01*
X122875000Y-83085553D01*
X122230277Y-83730277D01*
X122070949Y-83968728D01*
X122015000Y-84250000D01*
X122015000Y-85750000D01*
X122069304Y-86023000D01*
X122070949Y-86031272D01*
X122230277Y-86269723D01*
X123230277Y-87269724D01*
X123460705Y-87423690D01*
X123468728Y-87429051D01*
X123750000Y-87485000D01*
X125695554Y-87485000D01*
X126930277Y-88719724D01*
X127052560Y-88801430D01*
X127052560Y-88850000D01*
X127096838Y-89085317D01*
X127235910Y-89301441D01*
X127448110Y-89446431D01*
X127700000Y-89497440D01*
X130338198Y-89497440D01*
X130265197Y-89673244D01*
X130264803Y-90124775D01*
X130437233Y-90542086D01*
X130511682Y-90616665D01*
X130489314Y-90929818D01*
X129854132Y-91565000D01*
X125174247Y-91565000D01*
X125271440Y-91419540D01*
X125335000Y-91100000D01*
X125335000Y-89470189D01*
X125461645Y-89343765D01*
X125634803Y-88926756D01*
X125635197Y-88475225D01*
X125462767Y-88057914D01*
X125143765Y-87738355D01*
X124726756Y-87565197D01*
X124275225Y-87564803D01*
X123857914Y-87737233D01*
X123538355Y-88056235D01*
X123365197Y-88473244D01*
X123364803Y-88924775D01*
X123537233Y-89342086D01*
X123665000Y-89470076D01*
X123665000Y-90754132D01*
X122854132Y-91565000D01*
X118811040Y-91565000D01*
X118811040Y-91384000D01*
X118766762Y-91148683D01*
X118627690Y-90932559D01*
X118415490Y-90787569D01*
X118163600Y-90736560D01*
X118135000Y-90736560D01*
X118135000Y-86900000D01*
X118071439Y-86580459D01*
X117890434Y-86309566D01*
X117535041Y-85954173D01*
X117535197Y-85775225D01*
X117362767Y-85357914D01*
X117305045Y-85300092D01*
X117461645Y-85143765D01*
X117634803Y-84726756D01*
X117635197Y-84275225D01*
X117462767Y-83857914D01*
X117143765Y-83538355D01*
X116726756Y-83365197D01*
X116634900Y-83365117D01*
X116635197Y-83025225D01*
X116462767Y-82607914D01*
X116143765Y-82288355D01*
X115726756Y-82115197D01*
X115347440Y-82114866D01*
X115347440Y-81550000D01*
X115303162Y-81314683D01*
X115229380Y-81200022D01*
X115296431Y-81101890D01*
X115330227Y-80935000D01*
X116050000Y-80935000D01*
X116331272Y-80879051D01*
X116569723Y-80719723D01*
X117519724Y-79769723D01*
X117679051Y-79531272D01*
X117699384Y-79429051D01*
X117735000Y-79250000D01*
X117735000Y-75394351D01*
X118073244Y-75534803D01*
X118073244Y-75534803D01*
G37*
X118073244Y-75534803D02*
X118495725Y-75535172D01*
X119765000Y-76804447D01*
X119765000Y-86400000D01*
X119808950Y-86620949D01*
X119820949Y-86681272D01*
X119965000Y-86896859D01*
X119965000Y-87729985D01*
X119738355Y-87956235D01*
X119565197Y-88373244D01*
X119564803Y-88824775D01*
X119737233Y-89242086D01*
X120056235Y-89561645D01*
X120473244Y-89734803D01*
X120924775Y-89735197D01*
X121342086Y-89562767D01*
X121349821Y-89555045D01*
X121456235Y-89661645D01*
X121873244Y-89834803D01*
X122324775Y-89835197D01*
X122742086Y-89662767D01*
X123061645Y-89343765D01*
X123234803Y-88926756D01*
X123235197Y-88475225D01*
X123062767Y-88057914D01*
X122817549Y-87812268D01*
X122779051Y-87618728D01*
X122743283Y-87565197D01*
X122619723Y-87380276D01*
X121935000Y-86695554D01*
X121935000Y-75774447D01*
X122875000Y-76714447D01*
X122875000Y-78835553D01*
X122730277Y-78980277D01*
X122570949Y-79218728D01*
X122515001Y-79500000D01*
X122570949Y-79781272D01*
X122730277Y-80019723D01*
X122875000Y-80116424D01*
X122875000Y-83085553D01*
X122230277Y-83730277D01*
X122070949Y-83968728D01*
X122015000Y-84250000D01*
X122015000Y-85750000D01*
X122069304Y-86023000D01*
X122070949Y-86031272D01*
X122230277Y-86269723D01*
X123230277Y-87269724D01*
X123460705Y-87423690D01*
X123468728Y-87429051D01*
X123750000Y-87485000D01*
X125695554Y-87485000D01*
X126930277Y-88719724D01*
X127052560Y-88801430D01*
X127052560Y-88850000D01*
X127096838Y-89085317D01*
X127235910Y-89301441D01*
X127448110Y-89446431D01*
X127700000Y-89497440D01*
X130338198Y-89497440D01*
X130265197Y-89673244D01*
X130264803Y-90124775D01*
X130437233Y-90542086D01*
X130511682Y-90616665D01*
X130489314Y-90929818D01*
X129854132Y-91565000D01*
X125174247Y-91565000D01*
X125271440Y-91419540D01*
X125335000Y-91100000D01*
X125335000Y-89470189D01*
X125461645Y-89343765D01*
X125634803Y-88926756D01*
X125635197Y-88475225D01*
X125462767Y-88057914D01*
X125143765Y-87738355D01*
X124726756Y-87565197D01*
X124275225Y-87564803D01*
X123857914Y-87737233D01*
X123538355Y-88056235D01*
X123365197Y-88473244D01*
X123364803Y-88924775D01*
X123537233Y-89342086D01*
X123665000Y-89470076D01*
X123665000Y-90754132D01*
X122854132Y-91565000D01*
X118811040Y-91565000D01*
X118811040Y-91384000D01*
X118766762Y-91148683D01*
X118627690Y-90932559D01*
X118415490Y-90787569D01*
X118163600Y-90736560D01*
X118135000Y-90736560D01*
X118135000Y-86900000D01*
X118071439Y-86580459D01*
X117890434Y-86309566D01*
X117535041Y-85954173D01*
X117535197Y-85775225D01*
X117362767Y-85357914D01*
X117305045Y-85300092D01*
X117461645Y-85143765D01*
X117634803Y-84726756D01*
X117635197Y-84275225D01*
X117462767Y-83857914D01*
X117143765Y-83538355D01*
X116726756Y-83365197D01*
X116634900Y-83365117D01*
X116635197Y-83025225D01*
X116462767Y-82607914D01*
X116143765Y-82288355D01*
X115726756Y-82115197D01*
X115347440Y-82114866D01*
X115347440Y-81550000D01*
X115303162Y-81314683D01*
X115229380Y-81200022D01*
X115296431Y-81101890D01*
X115330227Y-80935000D01*
X116050000Y-80935000D01*
X116331272Y-80879051D01*
X116569723Y-80719723D01*
X117519724Y-79769723D01*
X117679051Y-79531272D01*
X117699384Y-79429051D01*
X117735000Y-79250000D01*
X117735000Y-75394351D01*
X118073244Y-75534803D01*
G36*
X92034902Y-78435652D02*
X91946250Y-78347000D01*
X91197000Y-78347000D01*
X91197000Y-78367000D01*
X90943000Y-78367000D01*
X90943000Y-78347000D01*
X90923000Y-78347000D01*
X90923000Y-78093000D01*
X90943000Y-78093000D01*
X90943000Y-78073000D01*
X91197000Y-78073000D01*
X91197000Y-78093000D01*
X91946250Y-78093000D01*
X92105000Y-77934250D01*
X92105000Y-77718690D01*
X92008327Y-77485301D01*
X91829698Y-77306673D01*
X91755393Y-77275895D01*
X91851441Y-77214090D01*
X91996431Y-77001890D01*
X91999851Y-76985000D01*
X93485553Y-76985000D01*
X92034902Y-78435652D01*
X92034902Y-78435652D01*
G37*
X92034902Y-78435652D02*
X91946250Y-78347000D01*
X91197000Y-78347000D01*
X91197000Y-78367000D01*
X90943000Y-78367000D01*
X90943000Y-78347000D01*
X90923000Y-78347000D01*
X90923000Y-78093000D01*
X90943000Y-78093000D01*
X90943000Y-78073000D01*
X91197000Y-78073000D01*
X91197000Y-78093000D01*
X91946250Y-78093000D01*
X92105000Y-77934250D01*
X92105000Y-77718690D01*
X92008327Y-77485301D01*
X91829698Y-77306673D01*
X91755393Y-77275895D01*
X91851441Y-77214090D01*
X91996431Y-77001890D01*
X91999851Y-76985000D01*
X93485553Y-76985000D01*
X92034902Y-78435652D01*
G36*
X109890000Y-73875000D02*
X109890000Y-77570553D01*
X109425554Y-78035000D01*
X108888026Y-78035000D01*
X108938327Y-77984699D01*
X109035000Y-77751310D01*
X109035000Y-77535750D01*
X108876250Y-77377000D01*
X108127000Y-77377000D01*
X108127000Y-77397000D01*
X107873000Y-77397000D01*
X107873000Y-77377000D01*
X107853000Y-77377000D01*
X107853000Y-77321628D01*
X107999083Y-77103000D01*
X108127000Y-77103000D01*
X108127000Y-77123000D01*
X108876250Y-77123000D01*
X109035000Y-76964250D01*
X109035000Y-76748690D01*
X108938327Y-76515301D01*
X108759698Y-76336673D01*
X108526309Y-76240000D01*
X108484250Y-76240000D01*
X108623000Y-76101250D01*
X108623000Y-75377000D01*
X108877000Y-75377000D01*
X108877000Y-76101250D01*
X109035750Y-76260000D01*
X109276309Y-76260000D01*
X109509698Y-76163327D01*
X109688327Y-75984699D01*
X109785000Y-75751310D01*
X109785000Y-75535750D01*
X109626250Y-75377000D01*
X108877000Y-75377000D01*
X108623000Y-75377000D01*
X108603000Y-75377000D01*
X108603000Y-75123000D01*
X108623000Y-75123000D01*
X108623000Y-75103000D01*
X108877000Y-75103000D01*
X108877000Y-75123000D01*
X109626250Y-75123000D01*
X109785000Y-74964250D01*
X109785000Y-74748690D01*
X109688327Y-74515301D01*
X109509698Y-74336673D01*
X109392670Y-74288198D01*
X109910890Y-73769978D01*
X109890000Y-73875000D01*
X109890000Y-73875000D01*
G37*
X109890000Y-73875000D02*
X109890000Y-77570553D01*
X109425554Y-78035000D01*
X108888026Y-78035000D01*
X108938327Y-77984699D01*
X109035000Y-77751310D01*
X109035000Y-77535750D01*
X108876250Y-77377000D01*
X108127000Y-77377000D01*
X108127000Y-77397000D01*
X107873000Y-77397000D01*
X107873000Y-77377000D01*
X107853000Y-77377000D01*
X107853000Y-77321628D01*
X107999083Y-77103000D01*
X108127000Y-77103000D01*
X108127000Y-77123000D01*
X108876250Y-77123000D01*
X109035000Y-76964250D01*
X109035000Y-76748690D01*
X108938327Y-76515301D01*
X108759698Y-76336673D01*
X108526309Y-76240000D01*
X108484250Y-76240000D01*
X108623000Y-76101250D01*
X108623000Y-75377000D01*
X108877000Y-75377000D01*
X108877000Y-76101250D01*
X109035750Y-76260000D01*
X109276309Y-76260000D01*
X109509698Y-76163327D01*
X109688327Y-75984699D01*
X109785000Y-75751310D01*
X109785000Y-75535750D01*
X109626250Y-75377000D01*
X108877000Y-75377000D01*
X108623000Y-75377000D01*
X108603000Y-75377000D01*
X108603000Y-75123000D01*
X108623000Y-75123000D01*
X108623000Y-75103000D01*
X108877000Y-75103000D01*
X108877000Y-75123000D01*
X109626250Y-75123000D01*
X109785000Y-74964250D01*
X109785000Y-74748690D01*
X109688327Y-74515301D01*
X109509698Y-74336673D01*
X109392670Y-74288198D01*
X109910890Y-73769978D01*
X109890000Y-73875000D01*
G36*
X100527000Y-77673000D02*
X100547000Y-77673000D01*
X100547000Y-77927000D01*
X100527000Y-77927000D01*
X100527000Y-77947000D01*
X100273000Y-77947000D01*
X100273000Y-77927000D01*
X100253000Y-77927000D01*
X100253000Y-77673000D01*
X100273000Y-77673000D01*
X100273000Y-77653000D01*
X100527000Y-77653000D01*
X100527000Y-77673000D01*
X100527000Y-77673000D01*
G37*
X100527000Y-77673000D02*
X100547000Y-77673000D01*
X100547000Y-77927000D01*
X100527000Y-77927000D01*
X100527000Y-77947000D01*
X100273000Y-77947000D01*
X100273000Y-77927000D01*
X100253000Y-77927000D01*
X100253000Y-77673000D01*
X100273000Y-77673000D01*
X100273000Y-77653000D01*
X100527000Y-77653000D01*
X100527000Y-77673000D01*
G36*
X115515000Y-77445553D02*
X115495554Y-77465000D01*
X115331446Y-77465000D01*
X115303162Y-77314683D01*
X115229380Y-77200022D01*
X115296431Y-77101890D01*
X115347440Y-76850000D01*
X115347440Y-75550000D01*
X115303162Y-75314683D01*
X115236672Y-75211354D01*
X115238327Y-75209699D01*
X115335000Y-74976310D01*
X115335000Y-74485750D01*
X115176250Y-74327000D01*
X113327000Y-74327000D01*
X113327000Y-74347000D01*
X113073000Y-74347000D01*
X113073000Y-74327000D01*
X113053000Y-74327000D01*
X113053000Y-74073000D01*
X113073000Y-74073000D01*
X113073000Y-74053000D01*
X113327000Y-74053000D01*
X113327000Y-74073000D01*
X115176250Y-74073000D01*
X115335000Y-73914250D01*
X115335000Y-73589653D01*
X115515000Y-73515278D01*
X115515000Y-77445553D01*
X115515000Y-77445553D01*
G37*
X115515000Y-77445553D02*
X115495554Y-77465000D01*
X115331446Y-77465000D01*
X115303162Y-77314683D01*
X115229380Y-77200022D01*
X115296431Y-77101890D01*
X115347440Y-76850000D01*
X115347440Y-75550000D01*
X115303162Y-75314683D01*
X115236672Y-75211354D01*
X115238327Y-75209699D01*
X115335000Y-74976310D01*
X115335000Y-74485750D01*
X115176250Y-74327000D01*
X113327000Y-74327000D01*
X113327000Y-74347000D01*
X113073000Y-74347000D01*
X113073000Y-74327000D01*
X113053000Y-74327000D01*
X113053000Y-74073000D01*
X113073000Y-74073000D01*
X113073000Y-74053000D01*
X113327000Y-74053000D01*
X113327000Y-74073000D01*
X115176250Y-74073000D01*
X115335000Y-73914250D01*
X115335000Y-73589653D01*
X115515000Y-73515278D01*
X115515000Y-77445553D01*
M02*
