G04 #@! TF.FileFunction,Legend,Top*
%FSLAX46Y46*%
G04 Gerber Fmt 4.6, Leading zero omitted, Abs format (unit mm)*
G04 Created by KiCad (PCBNEW 4.0.5+dfsg1-4~bpo8+1) date Tue Nov 21 17:33:29 2017*
%MOMM*%
%LPD*%
G01*
G04 APERTURE LIST*
%ADD10C,0.100000*%
%ADD11C,0.200000*%
%ADD12C,0.150000*%
%ADD13C,0.400000*%
%ADD14C,0.120000*%
G04 APERTURE END LIST*
D10*
D11*
X98700000Y-86400000D02*
X101700000Y-86400000D01*
X113100000Y-86400000D02*
X110100000Y-86400000D01*
X95200000Y-72500000D02*
X95200000Y-75500000D01*
X95200000Y-83700000D02*
X95200000Y-81000000D01*
X116200000Y-83700000D02*
X116200000Y-81100000D01*
X116200000Y-72500000D02*
X116200000Y-75500000D01*
X116200000Y-72500000D02*
X111200000Y-70900000D01*
X95200000Y-72500000D02*
X100200000Y-70900000D01*
X98700000Y-86400000D02*
X95200000Y-83700000D01*
X113100000Y-86400000D02*
X116200000Y-83700000D01*
D12*
X93150000Y-88450000D02*
X93150000Y-88300000D01*
X93150000Y-88300000D02*
X94450000Y-88300000D01*
X94450000Y-88300000D02*
X94450000Y-93900000D01*
X94450000Y-93900000D02*
X90100000Y-93900000D01*
X90100000Y-93900000D02*
X90100000Y-88300000D01*
X90100000Y-88300000D02*
X91400000Y-88300000D01*
X91400000Y-88300000D02*
X91400000Y-88450000D01*
X93900000Y-91800000D02*
X90650000Y-91800000D01*
X93900000Y-90300000D02*
X90650000Y-90300000D01*
X93900000Y-93900000D02*
X93900000Y-88300000D01*
X90650000Y-93900000D02*
X90650000Y-88300000D01*
X92900000Y-91800000D02*
X93050000Y-91800000D01*
X93050000Y-91800000D02*
X93050000Y-93262500D01*
X93050000Y-93262500D02*
X92900000Y-93300000D01*
X92900000Y-93300000D02*
X92750000Y-93262500D01*
X92750000Y-93262500D02*
X92750000Y-91800000D01*
X92750000Y-91800000D02*
X92900000Y-91800000D01*
X91650000Y-91800000D02*
X91800000Y-91800000D01*
X91800000Y-91800000D02*
X91800000Y-93262500D01*
X91800000Y-93262500D02*
X91650000Y-93300000D01*
X91650000Y-93300000D02*
X91500000Y-93262500D01*
X91500000Y-93262500D02*
X91500000Y-91800000D01*
X91500000Y-91800000D02*
X91650000Y-91800000D01*
X92650000Y-88450000D02*
X92650000Y-88300000D01*
X92650000Y-88300000D02*
X91900000Y-88300000D01*
X91900000Y-88300000D02*
X91900000Y-88450000D01*
X92900000Y-87800000D02*
X93200000Y-87200000D01*
X93200000Y-87200000D02*
X92600000Y-87200000D01*
X92600000Y-87200000D02*
X92900000Y-87800000D01*
D11*
X129450000Y-77800000D02*
X129450000Y-77400000D01*
X129450000Y-77400000D02*
X129800000Y-77400000D01*
X129800000Y-77400000D02*
X129800000Y-77700000D01*
X129800000Y-77700000D02*
X129600000Y-77700000D01*
X129600000Y-77700000D02*
X129600000Y-77500000D01*
X129600000Y-77500000D02*
X129700000Y-77500000D01*
X129300000Y-77250000D02*
X129950000Y-77250000D01*
X129950000Y-77250000D02*
X129950000Y-77850000D01*
X129950000Y-77850000D02*
X129300000Y-77850000D01*
X119200000Y-86950000D02*
X119200000Y-77250000D01*
X129300000Y-85300000D02*
X129300000Y-77250000D01*
X129300000Y-86950000D02*
X129300000Y-85300000D01*
D13*
X128670000Y-65190000D02*
X128670000Y-64190000D01*
D11*
X129670000Y-61190000D02*
X129670000Y-65190000D01*
X127670000Y-65190000D02*
X127670000Y-61190000D01*
D12*
X96000000Y-90150000D02*
X96000000Y-89450000D01*
X97200000Y-89450000D02*
X97200000Y-90150000D01*
X97350000Y-93500000D02*
X96650000Y-93500000D01*
X96650000Y-92300000D02*
X97350000Y-92300000D01*
X129330000Y-73960000D02*
X129330000Y-74660000D01*
X128130000Y-74660000D02*
X128130000Y-73960000D01*
X126100000Y-70550000D02*
X125400000Y-70550000D01*
X125400000Y-69350000D02*
X126100000Y-69350000D01*
X124150000Y-74800000D02*
X123450000Y-74800000D01*
X123450000Y-73600000D02*
X124150000Y-73600000D01*
X133100000Y-90650000D02*
X133100000Y-91350000D01*
X131900000Y-91350000D02*
X131900000Y-90650000D01*
X119900000Y-70650000D02*
X119900000Y-69950000D01*
X121100000Y-69950000D02*
X121100000Y-70650000D01*
X126300000Y-90350000D02*
X126300000Y-91050000D01*
X125100000Y-91050000D02*
X125100000Y-90350000D01*
X118000000Y-70650000D02*
X118000000Y-69950000D01*
X119200000Y-69950000D02*
X119200000Y-70650000D01*
X89150000Y-72500000D02*
X89150000Y-70600000D01*
X88050000Y-72500000D02*
X88050000Y-70600000D01*
X88600000Y-71600000D02*
X88600000Y-71150000D01*
X88350000Y-71650000D02*
X88850000Y-71650000D01*
X88600000Y-71650000D02*
X88350000Y-71400000D01*
X88350000Y-71400000D02*
X88850000Y-71400000D01*
X88850000Y-71400000D02*
X88600000Y-71650000D01*
X88050000Y-74200000D02*
X88050000Y-76100000D01*
X89150000Y-74200000D02*
X89150000Y-76100000D01*
X88600000Y-75100000D02*
X88600000Y-75550000D01*
X88850000Y-75050000D02*
X88350000Y-75050000D01*
X88600000Y-75050000D02*
X88850000Y-75300000D01*
X88850000Y-75300000D02*
X88350000Y-75300000D01*
X88350000Y-75300000D02*
X88600000Y-75050000D01*
X101100000Y-93475000D02*
X99900000Y-93475000D01*
X99900000Y-91725000D02*
X101100000Y-91725000D01*
X116030000Y-93670000D02*
X103330000Y-93670000D01*
X103330000Y-93670000D02*
X103330000Y-91130000D01*
X103330000Y-91130000D02*
X116030000Y-91130000D01*
X118850000Y-93950000D02*
X117300000Y-93950000D01*
X116030000Y-93670000D02*
X116030000Y-91130000D01*
X117300000Y-90850000D02*
X118850000Y-90850000D01*
X118850000Y-90850000D02*
X118850000Y-93950000D01*
X129300000Y-90800000D02*
X131100000Y-90800000D01*
X131100000Y-90800000D02*
X131100000Y-90400000D01*
X131100000Y-90400000D02*
X129300000Y-90400000D01*
X129300000Y-90400000D02*
X129300000Y-90800000D01*
X122400000Y-91200000D02*
X124200000Y-91200000D01*
X124200000Y-91200000D02*
X124200000Y-90800000D01*
X124200000Y-90800000D02*
X122400000Y-90800000D01*
X122400000Y-90800000D02*
X122400000Y-91200000D01*
X93200000Y-69275000D02*
X92200000Y-69275000D01*
X92200000Y-67925000D02*
X93200000Y-67925000D01*
X91575000Y-71000000D02*
X91575000Y-72000000D01*
X90225000Y-72000000D02*
X90225000Y-71000000D01*
X91675000Y-74800000D02*
X91675000Y-75800000D01*
X90325000Y-75800000D02*
X90325000Y-74800000D01*
X129345000Y-70020000D02*
X129345000Y-71020000D01*
X127995000Y-71020000D02*
X127995000Y-70020000D01*
X128475000Y-90200000D02*
X128475000Y-91200000D01*
X127125000Y-91200000D02*
X127125000Y-90200000D01*
X121575000Y-90500000D02*
X121575000Y-91500000D01*
X120225000Y-91500000D02*
X120225000Y-90500000D01*
X91600000Y-64900000D02*
X91600000Y-62100000D01*
X91600000Y-62100000D02*
X93000000Y-62100000D01*
X93000000Y-62100000D02*
X93000000Y-64900000D01*
X93000000Y-64900000D02*
X91600000Y-64900000D01*
X90550000Y-60500000D02*
X91200000Y-60500000D01*
X94050000Y-60500000D02*
X93400000Y-60500000D01*
X93400000Y-66500000D02*
X94050000Y-66500000D01*
X90550000Y-66500000D02*
X91200000Y-66500000D01*
X90550000Y-60500000D02*
X90550000Y-66500000D01*
X94050000Y-66500000D02*
X94050000Y-60500000D01*
D10*
X98400000Y-90800000D02*
X98300000Y-90800000D01*
X98300000Y-90800000D02*
X98300000Y-90500000D01*
X98300000Y-90500000D02*
X98400000Y-90500000D01*
X98500000Y-90800000D02*
X98400000Y-90800000D01*
X98400000Y-90800000D02*
X98400000Y-90500000D01*
X98400000Y-90500000D02*
X98500000Y-90500000D01*
X101500000Y-90800000D02*
X101500000Y-88800000D01*
X98500000Y-90800000D02*
X98500000Y-88800000D01*
D12*
X125925000Y-75200000D02*
X125925000Y-74200000D01*
X127275000Y-74200000D02*
X127275000Y-75200000D01*
X125025000Y-73125000D02*
G75*
G03X125025000Y-73125000I-100000J0D01*
G01*
X124825000Y-72850000D02*
X124825000Y-71775000D01*
X124825000Y-71750000D02*
X126175000Y-71750000D01*
X126175000Y-71750000D02*
X126175000Y-72825000D01*
X126175000Y-72850000D02*
X124825000Y-72850000D01*
X107480000Y-62010000D02*
X108180000Y-62010000D01*
X108180000Y-63210000D02*
X107480000Y-63210000D01*
X97720000Y-60790000D02*
X97020000Y-60790000D01*
X97020000Y-59590000D02*
X97720000Y-59590000D01*
X104190000Y-61980000D02*
X104890000Y-61980000D01*
X104890000Y-63180000D02*
X104190000Y-63180000D01*
X100740000Y-63510000D02*
X101440000Y-63510000D01*
X101440000Y-64710000D02*
X100740000Y-64710000D01*
X96850000Y-64035000D02*
X97850000Y-64035000D01*
X97850000Y-65385000D02*
X96850000Y-65385000D01*
X104000000Y-60135000D02*
X105000000Y-60135000D01*
X105000000Y-61485000D02*
X104000000Y-61485000D01*
X97870000Y-62615000D02*
X96870000Y-62615000D01*
X96870000Y-61265000D02*
X97870000Y-61265000D01*
D14*
X102140000Y-60490000D02*
X99940000Y-60490000D01*
X101940000Y-62790000D02*
X100340000Y-62790000D01*
D12*
X109294286Y-69218571D02*
X109437143Y-69266190D01*
X109484762Y-69313810D01*
X109532381Y-69409048D01*
X109532381Y-69551905D01*
X109484762Y-69647143D01*
X109437143Y-69694762D01*
X109341905Y-69742381D01*
X108960952Y-69742381D01*
X108960952Y-68742381D01*
X109294286Y-68742381D01*
X109389524Y-68790000D01*
X109437143Y-68837619D01*
X109484762Y-68932857D01*
X109484762Y-69028095D01*
X109437143Y-69123333D01*
X109389524Y-69170952D01*
X109294286Y-69218571D01*
X108960952Y-69218571D01*
X109818095Y-68742381D02*
X110389524Y-68742381D01*
X110103809Y-69742381D02*
X110103809Y-68742381D01*
X110675238Y-68837619D02*
X110722857Y-68790000D01*
X110818095Y-68742381D01*
X111056191Y-68742381D01*
X111151429Y-68790000D01*
X111199048Y-68837619D01*
X111246667Y-68932857D01*
X111246667Y-69028095D01*
X111199048Y-69170952D01*
X110627619Y-69742381D01*
X111246667Y-69742381D01*
X89334286Y-86718571D02*
X89477143Y-86766190D01*
X89524762Y-86813810D01*
X89572381Y-86909048D01*
X89572381Y-87051905D01*
X89524762Y-87147143D01*
X89477143Y-87194762D01*
X89381905Y-87242381D01*
X89000952Y-87242381D01*
X89000952Y-86242381D01*
X89334286Y-86242381D01*
X89429524Y-86290000D01*
X89477143Y-86337619D01*
X89524762Y-86432857D01*
X89524762Y-86528095D01*
X89477143Y-86623333D01*
X89429524Y-86670952D01*
X89334286Y-86718571D01*
X89000952Y-86718571D01*
X89858095Y-86242381D02*
X90429524Y-86242381D01*
X90143809Y-87242381D02*
X90143809Y-86242381D01*
X91286667Y-87242381D02*
X90715238Y-87242381D01*
X91000952Y-87242381D02*
X91000952Y-86242381D01*
X90905714Y-86385238D01*
X90810476Y-86480476D01*
X90715238Y-86528095D01*
X117302381Y-82961905D02*
X118111905Y-82961905D01*
X118207143Y-82914286D01*
X118254762Y-82866667D01*
X118302381Y-82771429D01*
X118302381Y-82580952D01*
X118254762Y-82485714D01*
X118207143Y-82438095D01*
X118111905Y-82390476D01*
X117302381Y-82390476D01*
X117302381Y-81438095D02*
X117302381Y-81914286D01*
X117778571Y-81961905D01*
X117730952Y-81914286D01*
X117683333Y-81819048D01*
X117683333Y-81580952D01*
X117730952Y-81485714D01*
X117778571Y-81438095D01*
X117873810Y-81390476D01*
X118111905Y-81390476D01*
X118207143Y-81438095D01*
X118254762Y-81485714D01*
X118302381Y-81580952D01*
X118302381Y-81819048D01*
X118254762Y-81914286D01*
X118207143Y-81961905D01*
X131836667Y-64356667D02*
X131836667Y-63880476D01*
X132122381Y-64451905D02*
X131122381Y-64118572D01*
X132122381Y-63785238D01*
X131598571Y-63451905D02*
X131598571Y-63118571D01*
X132122381Y-62975714D02*
X132122381Y-63451905D01*
X131122381Y-63451905D01*
X131122381Y-62975714D01*
X132122381Y-62023333D02*
X132122381Y-62594762D01*
X132122381Y-62309048D02*
X131122381Y-62309048D01*
X131265238Y-62404286D01*
X131360476Y-62499524D01*
X131408095Y-62594762D01*
X96333334Y-88107143D02*
X96285715Y-88154762D01*
X96142858Y-88202381D01*
X96047620Y-88202381D01*
X95904762Y-88154762D01*
X95809524Y-88059524D01*
X95761905Y-87964286D01*
X95714286Y-87773810D01*
X95714286Y-87630952D01*
X95761905Y-87440476D01*
X95809524Y-87345238D01*
X95904762Y-87250000D01*
X96047620Y-87202381D01*
X96142858Y-87202381D01*
X96285715Y-87250000D01*
X96333334Y-87297619D01*
X96809524Y-88202381D02*
X97000000Y-88202381D01*
X97095239Y-88154762D01*
X97142858Y-88107143D01*
X97238096Y-87964286D01*
X97285715Y-87773810D01*
X97285715Y-87392857D01*
X97238096Y-87297619D01*
X97190477Y-87250000D01*
X97095239Y-87202381D01*
X96904762Y-87202381D01*
X96809524Y-87250000D01*
X96761905Y-87297619D01*
X96714286Y-87392857D01*
X96714286Y-87630952D01*
X96761905Y-87726190D01*
X96809524Y-87773810D01*
X96904762Y-87821429D01*
X97095239Y-87821429D01*
X97190477Y-87773810D01*
X97238096Y-87726190D01*
X97285715Y-87630952D01*
X96485714Y-94535714D02*
X96447619Y-94573810D01*
X96333333Y-94611905D01*
X96257143Y-94611905D01*
X96142857Y-94573810D01*
X96066666Y-94497619D01*
X96028571Y-94421429D01*
X95990476Y-94269048D01*
X95990476Y-94154762D01*
X96028571Y-94002381D01*
X96066666Y-93926190D01*
X96142857Y-93850000D01*
X96257143Y-93811905D01*
X96333333Y-93811905D01*
X96447619Y-93850000D01*
X96485714Y-93888095D01*
X97247619Y-94611905D02*
X96790476Y-94611905D01*
X97019047Y-94611905D02*
X97019047Y-93811905D01*
X96942857Y-93926190D01*
X96866666Y-94002381D01*
X96790476Y-94040476D01*
X97742857Y-93811905D02*
X97819048Y-93811905D01*
X97895238Y-93850000D01*
X97933333Y-93888095D01*
X97971429Y-93964286D01*
X98009524Y-94116667D01*
X98009524Y-94307143D01*
X97971429Y-94459524D01*
X97933333Y-94535714D01*
X97895238Y-94573810D01*
X97819048Y-94611905D01*
X97742857Y-94611905D01*
X97666667Y-94573810D01*
X97628571Y-94535714D01*
X97590476Y-94459524D01*
X97552381Y-94307143D01*
X97552381Y-94116667D01*
X97590476Y-93964286D01*
X97628571Y-93888095D01*
X97666667Y-93850000D01*
X97742857Y-93811905D01*
X130637143Y-74992857D02*
X130684762Y-75040476D01*
X130732381Y-75183333D01*
X130732381Y-75278571D01*
X130684762Y-75421429D01*
X130589524Y-75516667D01*
X130494286Y-75564286D01*
X130303810Y-75611905D01*
X130160952Y-75611905D01*
X129970476Y-75564286D01*
X129875238Y-75516667D01*
X129780000Y-75421429D01*
X129732381Y-75278571D01*
X129732381Y-75183333D01*
X129780000Y-75040476D01*
X129827619Y-74992857D01*
X130732381Y-74040476D02*
X130732381Y-74611905D01*
X130732381Y-74326191D02*
X129732381Y-74326191D01*
X129875238Y-74421429D01*
X129970476Y-74516667D01*
X130018095Y-74611905D01*
X129732381Y-73707143D02*
X129732381Y-73088095D01*
X130113333Y-73421429D01*
X130113333Y-73278571D01*
X130160952Y-73183333D01*
X130208571Y-73135714D01*
X130303810Y-73088095D01*
X130541905Y-73088095D01*
X130637143Y-73135714D01*
X130684762Y-73183333D01*
X130732381Y-73278571D01*
X130732381Y-73564286D01*
X130684762Y-73659524D01*
X130637143Y-73707143D01*
X125357143Y-68857143D02*
X125309524Y-68904762D01*
X125166667Y-68952381D01*
X125071429Y-68952381D01*
X124928571Y-68904762D01*
X124833333Y-68809524D01*
X124785714Y-68714286D01*
X124738095Y-68523810D01*
X124738095Y-68380952D01*
X124785714Y-68190476D01*
X124833333Y-68095238D01*
X124928571Y-68000000D01*
X125071429Y-67952381D01*
X125166667Y-67952381D01*
X125309524Y-68000000D01*
X125357143Y-68047619D01*
X126309524Y-68952381D02*
X125738095Y-68952381D01*
X126023809Y-68952381D02*
X126023809Y-67952381D01*
X125928571Y-68095238D01*
X125833333Y-68190476D01*
X125738095Y-68238095D01*
X127166667Y-68285714D02*
X127166667Y-68952381D01*
X126928571Y-67904762D02*
X126690476Y-68619048D01*
X127309524Y-68619048D01*
X123107143Y-76107143D02*
X123059524Y-76154762D01*
X122916667Y-76202381D01*
X122821429Y-76202381D01*
X122678571Y-76154762D01*
X122583333Y-76059524D01*
X122535714Y-75964286D01*
X122488095Y-75773810D01*
X122488095Y-75630952D01*
X122535714Y-75440476D01*
X122583333Y-75345238D01*
X122678571Y-75250000D01*
X122821429Y-75202381D01*
X122916667Y-75202381D01*
X123059524Y-75250000D01*
X123107143Y-75297619D01*
X124059524Y-76202381D02*
X123488095Y-76202381D01*
X123773809Y-76202381D02*
X123773809Y-75202381D01*
X123678571Y-75345238D01*
X123583333Y-75440476D01*
X123488095Y-75488095D01*
X124916667Y-75202381D02*
X124726190Y-75202381D01*
X124630952Y-75250000D01*
X124583333Y-75297619D01*
X124488095Y-75440476D01*
X124440476Y-75630952D01*
X124440476Y-76011905D01*
X124488095Y-76107143D01*
X124535714Y-76154762D01*
X124630952Y-76202381D01*
X124821429Y-76202381D01*
X124916667Y-76154762D01*
X124964286Y-76107143D01*
X125011905Y-76011905D01*
X125011905Y-75773810D01*
X124964286Y-75678571D01*
X124916667Y-75630952D01*
X124821429Y-75583333D01*
X124630952Y-75583333D01*
X124535714Y-75630952D01*
X124488095Y-75678571D01*
X124440476Y-75773810D01*
X134357143Y-91642857D02*
X134404762Y-91690476D01*
X134452381Y-91833333D01*
X134452381Y-91928571D01*
X134404762Y-92071429D01*
X134309524Y-92166667D01*
X134214286Y-92214286D01*
X134023810Y-92261905D01*
X133880952Y-92261905D01*
X133690476Y-92214286D01*
X133595238Y-92166667D01*
X133500000Y-92071429D01*
X133452381Y-91928571D01*
X133452381Y-91833333D01*
X133500000Y-91690476D01*
X133547619Y-91642857D01*
X134452381Y-90690476D02*
X134452381Y-91261905D01*
X134452381Y-90976191D02*
X133452381Y-90976191D01*
X133595238Y-91071429D01*
X133690476Y-91166667D01*
X133738095Y-91261905D01*
X133880952Y-90119048D02*
X133833333Y-90214286D01*
X133785714Y-90261905D01*
X133690476Y-90309524D01*
X133642857Y-90309524D01*
X133547619Y-90261905D01*
X133500000Y-90214286D01*
X133452381Y-90119048D01*
X133452381Y-89928571D01*
X133500000Y-89833333D01*
X133547619Y-89785714D01*
X133642857Y-89738095D01*
X133690476Y-89738095D01*
X133785714Y-89785714D01*
X133833333Y-89833333D01*
X133880952Y-89928571D01*
X133880952Y-90119048D01*
X133928571Y-90214286D01*
X133976190Y-90261905D01*
X134071429Y-90309524D01*
X134261905Y-90309524D01*
X134357143Y-90261905D01*
X134404762Y-90214286D01*
X134452381Y-90119048D01*
X134452381Y-89928571D01*
X134404762Y-89833333D01*
X134357143Y-89785714D01*
X134261905Y-89738095D01*
X134071429Y-89738095D01*
X133976190Y-89785714D01*
X133928571Y-89833333D01*
X133880952Y-89928571D01*
X120807143Y-67722857D02*
X120854762Y-67770476D01*
X120902381Y-67913333D01*
X120902381Y-68008571D01*
X120854762Y-68151429D01*
X120759524Y-68246667D01*
X120664286Y-68294286D01*
X120473810Y-68341905D01*
X120330952Y-68341905D01*
X120140476Y-68294286D01*
X120045238Y-68246667D01*
X119950000Y-68151429D01*
X119902381Y-68008571D01*
X119902381Y-67913333D01*
X119950000Y-67770476D01*
X119997619Y-67722857D01*
X120902381Y-66770476D02*
X120902381Y-67341905D01*
X120902381Y-67056191D02*
X119902381Y-67056191D01*
X120045238Y-67151429D01*
X120140476Y-67246667D01*
X120188095Y-67341905D01*
X120902381Y-66294286D02*
X120902381Y-66103810D01*
X120854762Y-66008571D01*
X120807143Y-65960952D01*
X120664286Y-65865714D01*
X120473810Y-65818095D01*
X120092857Y-65818095D01*
X119997619Y-65865714D01*
X119950000Y-65913333D01*
X119902381Y-66008571D01*
X119902381Y-66199048D01*
X119950000Y-66294286D01*
X119997619Y-66341905D01*
X120092857Y-66389524D01*
X120330952Y-66389524D01*
X120426190Y-66341905D01*
X120473810Y-66294286D01*
X120521429Y-66199048D01*
X120521429Y-66008571D01*
X120473810Y-65913333D01*
X120426190Y-65865714D01*
X120330952Y-65818095D01*
D10*
X125985714Y-93864286D02*
X126023810Y-93902381D01*
X126061905Y-94016667D01*
X126061905Y-94092857D01*
X126023810Y-94207143D01*
X125947619Y-94283334D01*
X125871429Y-94321429D01*
X125719048Y-94359524D01*
X125604762Y-94359524D01*
X125452381Y-94321429D01*
X125376190Y-94283334D01*
X125300000Y-94207143D01*
X125261905Y-94092857D01*
X125261905Y-94016667D01*
X125300000Y-93902381D01*
X125338095Y-93864286D01*
X125338095Y-93559524D02*
X125300000Y-93521429D01*
X125261905Y-93445238D01*
X125261905Y-93254762D01*
X125300000Y-93178572D01*
X125338095Y-93140476D01*
X125414286Y-93102381D01*
X125490476Y-93102381D01*
X125604762Y-93140476D01*
X126061905Y-93597619D01*
X126061905Y-93102381D01*
X125261905Y-92607143D02*
X125261905Y-92530952D01*
X125300000Y-92454762D01*
X125338095Y-92416667D01*
X125414286Y-92378571D01*
X125566667Y-92340476D01*
X125757143Y-92340476D01*
X125909524Y-92378571D01*
X125985714Y-92416667D01*
X126023810Y-92454762D01*
X126061905Y-92530952D01*
X126061905Y-92607143D01*
X126023810Y-92683333D01*
X125985714Y-92721429D01*
X125909524Y-92759524D01*
X125757143Y-92797619D01*
X125566667Y-92797619D01*
X125414286Y-92759524D01*
X125338095Y-92721429D01*
X125300000Y-92683333D01*
X125261905Y-92607143D01*
D12*
X118877143Y-67642857D02*
X118924762Y-67690476D01*
X118972381Y-67833333D01*
X118972381Y-67928571D01*
X118924762Y-68071429D01*
X118829524Y-68166667D01*
X118734286Y-68214286D01*
X118543810Y-68261905D01*
X118400952Y-68261905D01*
X118210476Y-68214286D01*
X118115238Y-68166667D01*
X118020000Y-68071429D01*
X117972381Y-67928571D01*
X117972381Y-67833333D01*
X118020000Y-67690476D01*
X118067619Y-67642857D01*
X118067619Y-67261905D02*
X118020000Y-67214286D01*
X117972381Y-67119048D01*
X117972381Y-66880952D01*
X118020000Y-66785714D01*
X118067619Y-66738095D01*
X118162857Y-66690476D01*
X118258095Y-66690476D01*
X118400952Y-66738095D01*
X118972381Y-67309524D01*
X118972381Y-66690476D01*
X118972381Y-65738095D02*
X118972381Y-66309524D01*
X118972381Y-66023810D02*
X117972381Y-66023810D01*
X118115238Y-66119048D01*
X118210476Y-66214286D01*
X118258095Y-66309524D01*
X89032381Y-69428095D02*
X88032381Y-69428095D01*
X88032381Y-69190000D01*
X88080000Y-69047142D01*
X88175238Y-68951904D01*
X88270476Y-68904285D01*
X88460952Y-68856666D01*
X88603810Y-68856666D01*
X88794286Y-68904285D01*
X88889524Y-68951904D01*
X88984762Y-69047142D01*
X89032381Y-69190000D01*
X89032381Y-69428095D01*
X89032381Y-67904285D02*
X89032381Y-68475714D01*
X89032381Y-68190000D02*
X88032381Y-68190000D01*
X88175238Y-68285238D01*
X88270476Y-68380476D01*
X88318095Y-68475714D01*
X88952381Y-78488095D02*
X87952381Y-78488095D01*
X87952381Y-78250000D01*
X88000000Y-78107142D01*
X88095238Y-78011904D01*
X88190476Y-77964285D01*
X88380952Y-77916666D01*
X88523810Y-77916666D01*
X88714286Y-77964285D01*
X88809524Y-78011904D01*
X88904762Y-78107142D01*
X88952381Y-78250000D01*
X88952381Y-78488095D01*
X88047619Y-77535714D02*
X88000000Y-77488095D01*
X87952381Y-77392857D01*
X87952381Y-77154761D01*
X88000000Y-77059523D01*
X88047619Y-77011904D01*
X88142857Y-76964285D01*
X88238095Y-76964285D01*
X88380952Y-77011904D01*
X88952381Y-77583333D01*
X88952381Y-76964285D01*
X100366667Y-94611905D02*
X99985714Y-94611905D01*
X99985714Y-93811905D01*
X101052381Y-94611905D02*
X100595238Y-94611905D01*
X100823809Y-94611905D02*
X100823809Y-93811905D01*
X100747619Y-93926190D01*
X100671428Y-94002381D01*
X100595238Y-94040476D01*
X119731905Y-93952381D02*
X119731905Y-92952381D01*
X120112858Y-92952381D01*
X120208096Y-93000000D01*
X120255715Y-93047619D01*
X120303334Y-93142857D01*
X120303334Y-93285714D01*
X120255715Y-93380952D01*
X120208096Y-93428571D01*
X120112858Y-93476190D01*
X119731905Y-93476190D01*
X121255715Y-93952381D02*
X120684286Y-93952381D01*
X120970000Y-93952381D02*
X120970000Y-92952381D01*
X120874762Y-93095238D01*
X120779524Y-93190476D01*
X120684286Y-93238095D01*
X130183810Y-93138095D02*
X130107619Y-93100000D01*
X130031429Y-93023810D01*
X129917143Y-92909524D01*
X129840952Y-92871429D01*
X129764762Y-92871429D01*
X129802857Y-93061905D02*
X129726667Y-93023810D01*
X129650476Y-92947619D01*
X129612381Y-92795238D01*
X129612381Y-92528571D01*
X129650476Y-92376190D01*
X129726667Y-92300000D01*
X129802857Y-92261905D01*
X129955238Y-92261905D01*
X130031429Y-92300000D01*
X130107619Y-92376190D01*
X130145714Y-92528571D01*
X130145714Y-92795238D01*
X130107619Y-92947619D01*
X130031429Y-93023810D01*
X129955238Y-93061905D01*
X129802857Y-93061905D01*
X130907619Y-93061905D02*
X130450476Y-93061905D01*
X130679047Y-93061905D02*
X130679047Y-92261905D01*
X130602857Y-92376190D01*
X130526666Y-92452381D01*
X130450476Y-92490476D01*
X123423810Y-93188095D02*
X123347619Y-93150000D01*
X123271429Y-93073810D01*
X123157143Y-92959524D01*
X123080952Y-92921429D01*
X123004762Y-92921429D01*
X123042857Y-93111905D02*
X122966667Y-93073810D01*
X122890476Y-92997619D01*
X122852381Y-92845238D01*
X122852381Y-92578571D01*
X122890476Y-92426190D01*
X122966667Y-92350000D01*
X123042857Y-92311905D01*
X123195238Y-92311905D01*
X123271429Y-92350000D01*
X123347619Y-92426190D01*
X123385714Y-92578571D01*
X123385714Y-92845238D01*
X123347619Y-92997619D01*
X123271429Y-93073810D01*
X123195238Y-93111905D01*
X123042857Y-93111905D01*
X123690476Y-92388095D02*
X123728571Y-92350000D01*
X123804762Y-92311905D01*
X123995238Y-92311905D01*
X124071428Y-92350000D01*
X124109524Y-92388095D01*
X124147619Y-92464286D01*
X124147619Y-92540476D01*
X124109524Y-92654762D01*
X123652381Y-93111905D01*
X124147619Y-93111905D01*
X92533334Y-67152381D02*
X92200000Y-66676190D01*
X91961905Y-67152381D02*
X91961905Y-66152381D01*
X92342858Y-66152381D01*
X92438096Y-66200000D01*
X92485715Y-66247619D01*
X92533334Y-66342857D01*
X92533334Y-66485714D01*
X92485715Y-66580952D01*
X92438096Y-66628571D01*
X92342858Y-66676190D01*
X91961905Y-66676190D01*
X92866667Y-66152381D02*
X93485715Y-66152381D01*
X93152381Y-66533333D01*
X93295239Y-66533333D01*
X93390477Y-66580952D01*
X93438096Y-66628571D01*
X93485715Y-66723810D01*
X93485715Y-66961905D01*
X93438096Y-67057143D01*
X93390477Y-67104762D01*
X93295239Y-67152381D01*
X93009524Y-67152381D01*
X92914286Y-67104762D01*
X92866667Y-67057143D01*
X93202381Y-71666666D02*
X92726190Y-72000000D01*
X93202381Y-72238095D02*
X92202381Y-72238095D01*
X92202381Y-71857142D01*
X92250000Y-71761904D01*
X92297619Y-71714285D01*
X92392857Y-71666666D01*
X92535714Y-71666666D01*
X92630952Y-71714285D01*
X92678571Y-71761904D01*
X92726190Y-71857142D01*
X92726190Y-72238095D01*
X92202381Y-70761904D02*
X92202381Y-71238095D01*
X92678571Y-71285714D01*
X92630952Y-71238095D01*
X92583333Y-71142857D01*
X92583333Y-70904761D01*
X92630952Y-70809523D01*
X92678571Y-70761904D01*
X92773810Y-70714285D01*
X93011905Y-70714285D01*
X93107143Y-70761904D01*
X93154762Y-70809523D01*
X93202381Y-70904761D01*
X93202381Y-71142857D01*
X93154762Y-71238095D01*
X93107143Y-71285714D01*
X92802381Y-75566666D02*
X92326190Y-75900000D01*
X92802381Y-76138095D02*
X91802381Y-76138095D01*
X91802381Y-75757142D01*
X91850000Y-75661904D01*
X91897619Y-75614285D01*
X91992857Y-75566666D01*
X92135714Y-75566666D01*
X92230952Y-75614285D01*
X92278571Y-75661904D01*
X92326190Y-75757142D01*
X92326190Y-76138095D01*
X91802381Y-74709523D02*
X91802381Y-74900000D01*
X91850000Y-74995238D01*
X91897619Y-75042857D01*
X92040476Y-75138095D01*
X92230952Y-75185714D01*
X92611905Y-75185714D01*
X92707143Y-75138095D01*
X92754762Y-75090476D01*
X92802381Y-74995238D01*
X92802381Y-74804761D01*
X92754762Y-74709523D01*
X92707143Y-74661904D01*
X92611905Y-74614285D01*
X92373810Y-74614285D01*
X92278571Y-74661904D01*
X92230952Y-74709523D01*
X92183333Y-74804761D01*
X92183333Y-74995238D01*
X92230952Y-75090476D01*
X92278571Y-75138095D01*
X92373810Y-75185714D01*
X130772381Y-70586666D02*
X130296190Y-70920000D01*
X130772381Y-71158095D02*
X129772381Y-71158095D01*
X129772381Y-70777142D01*
X129820000Y-70681904D01*
X129867619Y-70634285D01*
X129962857Y-70586666D01*
X130105714Y-70586666D01*
X130200952Y-70634285D01*
X130248571Y-70681904D01*
X130296190Y-70777142D01*
X130296190Y-71158095D01*
X129772381Y-70253333D02*
X129772381Y-69586666D01*
X130772381Y-70015238D01*
X127911905Y-93784286D02*
X127530952Y-94050953D01*
X127911905Y-94241429D02*
X127111905Y-94241429D01*
X127111905Y-93936667D01*
X127150000Y-93860476D01*
X127188095Y-93822381D01*
X127264286Y-93784286D01*
X127378571Y-93784286D01*
X127454762Y-93822381D01*
X127492857Y-93860476D01*
X127530952Y-93936667D01*
X127530952Y-94241429D01*
X127911905Y-93022381D02*
X127911905Y-93479524D01*
X127911905Y-93250953D02*
X127111905Y-93250953D01*
X127226190Y-93327143D01*
X127302381Y-93403334D01*
X127340476Y-93479524D01*
X127911905Y-92260476D02*
X127911905Y-92717619D01*
X127911905Y-92489048D02*
X127111905Y-92489048D01*
X127226190Y-92565238D01*
X127302381Y-92641429D01*
X127340476Y-92717619D01*
X119691905Y-91424286D02*
X119310952Y-91690953D01*
X119691905Y-91881429D02*
X118891905Y-91881429D01*
X118891905Y-91576667D01*
X118930000Y-91500476D01*
X118968095Y-91462381D01*
X119044286Y-91424286D01*
X119158571Y-91424286D01*
X119234762Y-91462381D01*
X119272857Y-91500476D01*
X119310952Y-91576667D01*
X119310952Y-91881429D01*
X119691905Y-90662381D02*
X119691905Y-91119524D01*
X119691905Y-90890953D02*
X118891905Y-90890953D01*
X119006190Y-90967143D01*
X119082381Y-91043334D01*
X119120476Y-91119524D01*
X118968095Y-90357619D02*
X118930000Y-90319524D01*
X118891905Y-90243333D01*
X118891905Y-90052857D01*
X118930000Y-89976667D01*
X118968095Y-89938571D01*
X119044286Y-89900476D01*
X119120476Y-89900476D01*
X119234762Y-89938571D01*
X119691905Y-90395714D01*
X119691905Y-89900476D01*
X90004762Y-65733333D02*
X90052381Y-65590476D01*
X90052381Y-65352380D01*
X90004762Y-65257142D01*
X89957143Y-65209523D01*
X89861905Y-65161904D01*
X89766667Y-65161904D01*
X89671429Y-65209523D01*
X89623810Y-65257142D01*
X89576190Y-65352380D01*
X89528571Y-65542857D01*
X89480952Y-65638095D01*
X89433333Y-65685714D01*
X89338095Y-65733333D01*
X89242857Y-65733333D01*
X89147619Y-65685714D01*
X89100000Y-65638095D01*
X89052381Y-65542857D01*
X89052381Y-65304761D01*
X89100000Y-65161904D01*
X89052381Y-64828571D02*
X90052381Y-64590476D01*
X89338095Y-64399999D01*
X90052381Y-64209523D01*
X89052381Y-63971428D01*
X90052381Y-63066666D02*
X90052381Y-63638095D01*
X90052381Y-63352381D02*
X89052381Y-63352381D01*
X89195238Y-63447619D01*
X89290476Y-63542857D01*
X89338095Y-63638095D01*
X99238095Y-87202381D02*
X99238095Y-88011905D01*
X99285714Y-88107143D01*
X99333333Y-88154762D01*
X99428571Y-88202381D01*
X99619048Y-88202381D01*
X99714286Y-88154762D01*
X99761905Y-88107143D01*
X99809524Y-88011905D01*
X99809524Y-87202381D01*
X100809524Y-88202381D02*
X100238095Y-88202381D01*
X100523809Y-88202381D02*
X100523809Y-87202381D01*
X100428571Y-87345238D01*
X100333333Y-87440476D01*
X100238095Y-87488095D01*
X128952381Y-74866666D02*
X128952381Y-75342857D01*
X127952381Y-75342857D01*
X128047619Y-74580952D02*
X128000000Y-74533333D01*
X127952381Y-74438095D01*
X127952381Y-74199999D01*
X128000000Y-74104761D01*
X128047619Y-74057142D01*
X128142857Y-74009523D01*
X128238095Y-74009523D01*
X128380952Y-74057142D01*
X128952381Y-74628571D01*
X128952381Y-74009523D01*
X122788095Y-71702381D02*
X122788095Y-72511905D01*
X122835714Y-72607143D01*
X122883333Y-72654762D01*
X122978571Y-72702381D01*
X123169048Y-72702381D01*
X123264286Y-72654762D01*
X123311905Y-72607143D01*
X123359524Y-72511905D01*
X123359524Y-71702381D01*
X123740476Y-71702381D02*
X124359524Y-71702381D01*
X124026190Y-72083333D01*
X124169048Y-72083333D01*
X124264286Y-72130952D01*
X124311905Y-72178571D01*
X124359524Y-72273810D01*
X124359524Y-72511905D01*
X124311905Y-72607143D01*
X124264286Y-72654762D01*
X124169048Y-72702381D01*
X123883333Y-72702381D01*
X123788095Y-72654762D01*
X123740476Y-72607143D01*
X107257143Y-64407143D02*
X107209524Y-64454762D01*
X107066667Y-64502381D01*
X106971429Y-64502381D01*
X106828571Y-64454762D01*
X106733333Y-64359524D01*
X106685714Y-64264286D01*
X106638095Y-64073810D01*
X106638095Y-63930952D01*
X106685714Y-63740476D01*
X106733333Y-63645238D01*
X106828571Y-63550000D01*
X106971429Y-63502381D01*
X107066667Y-63502381D01*
X107209524Y-63550000D01*
X107257143Y-63597619D01*
X107638095Y-63597619D02*
X107685714Y-63550000D01*
X107780952Y-63502381D01*
X108019048Y-63502381D01*
X108114286Y-63550000D01*
X108161905Y-63597619D01*
X108209524Y-63692857D01*
X108209524Y-63788095D01*
X108161905Y-63930952D01*
X107590476Y-64502381D01*
X108209524Y-64502381D01*
X108542857Y-63502381D02*
X109161905Y-63502381D01*
X108828571Y-63883333D01*
X108971429Y-63883333D01*
X109066667Y-63930952D01*
X109114286Y-63978571D01*
X109161905Y-64073810D01*
X109161905Y-64311905D01*
X109114286Y-64407143D01*
X109066667Y-64454762D01*
X108971429Y-64502381D01*
X108685714Y-64502381D01*
X108590476Y-64454762D01*
X108542857Y-64407143D01*
X94167143Y-60417143D02*
X94119524Y-60464762D01*
X93976667Y-60512381D01*
X93881429Y-60512381D01*
X93738571Y-60464762D01*
X93643333Y-60369524D01*
X93595714Y-60274286D01*
X93548095Y-60083810D01*
X93548095Y-59940952D01*
X93595714Y-59750476D01*
X93643333Y-59655238D01*
X93738571Y-59560000D01*
X93881429Y-59512381D01*
X93976667Y-59512381D01*
X94119524Y-59560000D01*
X94167143Y-59607619D01*
X94548095Y-59607619D02*
X94595714Y-59560000D01*
X94690952Y-59512381D01*
X94929048Y-59512381D01*
X95024286Y-59560000D01*
X95071905Y-59607619D01*
X95119524Y-59702857D01*
X95119524Y-59798095D01*
X95071905Y-59940952D01*
X94500476Y-60512381D01*
X95119524Y-60512381D01*
X95976667Y-59845714D02*
X95976667Y-60512381D01*
X95738571Y-59464762D02*
X95500476Y-60179048D01*
X96119524Y-60179048D01*
X103897143Y-61427143D02*
X103849524Y-61474762D01*
X103706667Y-61522381D01*
X103611429Y-61522381D01*
X103468571Y-61474762D01*
X103373333Y-61379524D01*
X103325714Y-61284286D01*
X103278095Y-61093810D01*
X103278095Y-60950952D01*
X103325714Y-60760476D01*
X103373333Y-60665238D01*
X103468571Y-60570000D01*
X103611429Y-60522381D01*
X103706667Y-60522381D01*
X103849524Y-60570000D01*
X103897143Y-60617619D01*
X104278095Y-60617619D02*
X104325714Y-60570000D01*
X104420952Y-60522381D01*
X104659048Y-60522381D01*
X104754286Y-60570000D01*
X104801905Y-60617619D01*
X104849524Y-60712857D01*
X104849524Y-60808095D01*
X104801905Y-60950952D01*
X104230476Y-61522381D01*
X104849524Y-61522381D01*
X105754286Y-60522381D02*
X105278095Y-60522381D01*
X105230476Y-60998571D01*
X105278095Y-60950952D01*
X105373333Y-60903333D01*
X105611429Y-60903333D01*
X105706667Y-60950952D01*
X105754286Y-60998571D01*
X105801905Y-61093810D01*
X105801905Y-61331905D01*
X105754286Y-61427143D01*
X105706667Y-61474762D01*
X105611429Y-61522381D01*
X105373333Y-61522381D01*
X105278095Y-61474762D01*
X105230476Y-61427143D01*
X100447143Y-62567143D02*
X100399524Y-62614762D01*
X100256667Y-62662381D01*
X100161429Y-62662381D01*
X100018571Y-62614762D01*
X99923333Y-62519524D01*
X99875714Y-62424286D01*
X99828095Y-62233810D01*
X99828095Y-62090952D01*
X99875714Y-61900476D01*
X99923333Y-61805238D01*
X100018571Y-61710000D01*
X100161429Y-61662381D01*
X100256667Y-61662381D01*
X100399524Y-61710000D01*
X100447143Y-61757619D01*
X100828095Y-61757619D02*
X100875714Y-61710000D01*
X100970952Y-61662381D01*
X101209048Y-61662381D01*
X101304286Y-61710000D01*
X101351905Y-61757619D01*
X101399524Y-61852857D01*
X101399524Y-61948095D01*
X101351905Y-62090952D01*
X100780476Y-62662381D01*
X101399524Y-62662381D01*
X102256667Y-61662381D02*
X102066190Y-61662381D01*
X101970952Y-61710000D01*
X101923333Y-61757619D01*
X101828095Y-61900476D01*
X101780476Y-62090952D01*
X101780476Y-62471905D01*
X101828095Y-62567143D01*
X101875714Y-62614762D01*
X101970952Y-62662381D01*
X102161429Y-62662381D01*
X102256667Y-62614762D01*
X102304286Y-62567143D01*
X102351905Y-62471905D01*
X102351905Y-62233810D01*
X102304286Y-62138571D01*
X102256667Y-62090952D01*
X102161429Y-62043333D01*
X101970952Y-62043333D01*
X101875714Y-62090952D01*
X101828095Y-62138571D01*
X101780476Y-62233810D01*
X97183334Y-67062381D02*
X96850000Y-66586190D01*
X96611905Y-67062381D02*
X96611905Y-66062381D01*
X96992858Y-66062381D01*
X97088096Y-66110000D01*
X97135715Y-66157619D01*
X97183334Y-66252857D01*
X97183334Y-66395714D01*
X97135715Y-66490952D01*
X97088096Y-66538571D01*
X96992858Y-66586190D01*
X96611905Y-66586190D01*
X98040477Y-66395714D02*
X98040477Y-67062381D01*
X97802381Y-66014762D02*
X97564286Y-66729048D01*
X98183334Y-66729048D01*
X104283334Y-59862381D02*
X103950000Y-59386190D01*
X103711905Y-59862381D02*
X103711905Y-58862381D01*
X104092858Y-58862381D01*
X104188096Y-58910000D01*
X104235715Y-58957619D01*
X104283334Y-59052857D01*
X104283334Y-59195714D01*
X104235715Y-59290952D01*
X104188096Y-59338571D01*
X104092858Y-59386190D01*
X103711905Y-59386190D01*
X104854762Y-59290952D02*
X104759524Y-59243333D01*
X104711905Y-59195714D01*
X104664286Y-59100476D01*
X104664286Y-59052857D01*
X104711905Y-58957619D01*
X104759524Y-58910000D01*
X104854762Y-58862381D01*
X105045239Y-58862381D01*
X105140477Y-58910000D01*
X105188096Y-58957619D01*
X105235715Y-59052857D01*
X105235715Y-59100476D01*
X105188096Y-59195714D01*
X105140477Y-59243333D01*
X105045239Y-59290952D01*
X104854762Y-59290952D01*
X104759524Y-59338571D01*
X104711905Y-59386190D01*
X104664286Y-59481429D01*
X104664286Y-59671905D01*
X104711905Y-59767143D01*
X104759524Y-59814762D01*
X104854762Y-59862381D01*
X105045239Y-59862381D01*
X105140477Y-59814762D01*
X105188096Y-59767143D01*
X105235715Y-59671905D01*
X105235715Y-59481429D01*
X105188096Y-59386190D01*
X105140477Y-59338571D01*
X105045239Y-59290952D01*
X97203334Y-60492381D02*
X96870000Y-60016190D01*
X96631905Y-60492381D02*
X96631905Y-59492381D01*
X97012858Y-59492381D01*
X97108096Y-59540000D01*
X97155715Y-59587619D01*
X97203334Y-59682857D01*
X97203334Y-59825714D01*
X97155715Y-59920952D01*
X97108096Y-59968571D01*
X97012858Y-60016190D01*
X96631905Y-60016190D01*
X97679524Y-60492381D02*
X97870000Y-60492381D01*
X97965239Y-60444762D01*
X98012858Y-60397143D01*
X98108096Y-60254286D01*
X98155715Y-60063810D01*
X98155715Y-59682857D01*
X98108096Y-59587619D01*
X98060477Y-59540000D01*
X97965239Y-59492381D01*
X97774762Y-59492381D01*
X97679524Y-59540000D01*
X97631905Y-59587619D01*
X97584286Y-59682857D01*
X97584286Y-59920952D01*
X97631905Y-60016190D01*
X97679524Y-60063810D01*
X97774762Y-60111429D01*
X97965239Y-60111429D01*
X98060477Y-60063810D01*
X98108096Y-60016190D01*
X98155715Y-59920952D01*
X100378095Y-59192381D02*
X100378095Y-60001905D01*
X100425714Y-60097143D01*
X100473333Y-60144762D01*
X100568571Y-60192381D01*
X100759048Y-60192381D01*
X100854286Y-60144762D01*
X100901905Y-60097143D01*
X100949524Y-60001905D01*
X100949524Y-59192381D01*
X101854286Y-59192381D02*
X101663809Y-59192381D01*
X101568571Y-59240000D01*
X101520952Y-59287619D01*
X101425714Y-59430476D01*
X101378095Y-59620952D01*
X101378095Y-60001905D01*
X101425714Y-60097143D01*
X101473333Y-60144762D01*
X101568571Y-60192381D01*
X101759048Y-60192381D01*
X101854286Y-60144762D01*
X101901905Y-60097143D01*
X101949524Y-60001905D01*
X101949524Y-59763810D01*
X101901905Y-59668571D01*
X101854286Y-59620952D01*
X101759048Y-59573333D01*
X101568571Y-59573333D01*
X101473333Y-59620952D01*
X101425714Y-59668571D01*
X101378095Y-59763810D01*
M02*
