G04 #@! TF.FileFunction,Copper,L1,Top,Signal*
%FSLAX46Y46*%
G04 Gerber Fmt 4.6, Leading zero omitted, Abs format (unit mm)*
G04 Created by KiCad (PCBNEW 4.0.5+dfsg1-4~bpo8+1) date Tue Nov 21 17:33:29 2017*
%MOMM*%
%LPD*%
G01*
G04 APERTURE LIST*
%ADD10C,0.100000*%
%ADD11R,2.540000X5.080000*%
%ADD12C,12.000000*%
%ADD13R,1.600000X1.600000*%
%ADD14O,1.600000X1.600000*%
%ADD15C,1.000000*%
%ADD16O,0.800000X1.800000*%
%ADD17R,2.000000X1.000000*%
%ADD18R,0.750000X0.800000*%
%ADD19R,0.800000X0.750000*%
%ADD20R,0.797560X0.797560*%
%ADD21R,0.700000X1.300000*%
%ADD22R,1.727200X2.032000*%
%ADD23O,1.727200X2.032000*%
%ADD24R,0.400000X0.510000*%
%ADD25R,0.500000X0.900000*%
%ADD26R,0.900000X0.500000*%
%ADD27R,1.600000X2.000000*%
%ADD28O,0.250000X0.500000*%
%ADD29R,2.000000X0.900000*%
%ADD30C,0.500000*%
%ADD31R,0.270000X0.325000*%
%ADD32R,0.700000X0.250000*%
%ADD33C,0.600000*%
%ADD34C,0.200000*%
%ADD35C,0.400000*%
%ADD36C,0.250000*%
%ADD37C,0.350000*%
%ADD38C,0.300000*%
%ADD39C,0.254000*%
G04 APERTURE END LIST*
D10*
D11*
X117230000Y-78300000D03*
X94370000Y-78300000D03*
D12*
X105800000Y-78300000D03*
D13*
X93200000Y-89300000D03*
D14*
X91400000Y-89300000D03*
D15*
X109430000Y-77290000D03*
D16*
X128650000Y-77250000D03*
X127550000Y-77250000D03*
X126450000Y-77250000D03*
X125350000Y-77250000D03*
X124250000Y-77250000D03*
X123150000Y-77250000D03*
X122050000Y-77250000D03*
X120950000Y-77250000D03*
X119850000Y-77250000D03*
X119850000Y-86950000D03*
X120950000Y-86950000D03*
X122050000Y-86950000D03*
X123150000Y-86950000D03*
X124250000Y-86950000D03*
X125350000Y-86950000D03*
X126450000Y-86950000D03*
X127550000Y-86950000D03*
X128650000Y-86950000D03*
D15*
X93250000Y-82500000D03*
X133570000Y-76230000D03*
X133500000Y-78250000D03*
X133500000Y-79750000D03*
X114100000Y-64940000D03*
X114100000Y-63440000D03*
X114100000Y-61940000D03*
X112600000Y-64940000D03*
X112600000Y-63440000D03*
X112600000Y-61940000D03*
X111100000Y-64940000D03*
X111100000Y-63440000D03*
X111100000Y-61940000D03*
X139950000Y-91860000D03*
X139950000Y-90360000D03*
X139950000Y-88860000D03*
X138450000Y-91860000D03*
X138450000Y-90360000D03*
X138450000Y-88860000D03*
X136950000Y-91860000D03*
X136950000Y-90360000D03*
X136950000Y-88860000D03*
X116000000Y-67750000D03*
X116000000Y-66000000D03*
X116000000Y-64500000D03*
X116000000Y-63000000D03*
X116000000Y-61500000D03*
X116000000Y-60000000D03*
X89750000Y-90750000D03*
X89750000Y-89250000D03*
X101750000Y-79000000D03*
X101750000Y-76500000D03*
X99250000Y-79000000D03*
X99250000Y-76500000D03*
X133460000Y-69310000D03*
X133100000Y-72300000D03*
X135750000Y-82750000D03*
X135750000Y-81250000D03*
X135750000Y-79750000D03*
X135750000Y-78250000D03*
X135640000Y-76250000D03*
X133500000Y-81250000D03*
X135750000Y-84500000D03*
X131150000Y-69270000D03*
X135840000Y-71160000D03*
X135750000Y-69250000D03*
X135750000Y-86250000D03*
X141750000Y-86250000D03*
X140250000Y-86250000D03*
X138750000Y-86250000D03*
D17*
X128670000Y-66190000D03*
X128670000Y-60190000D03*
D18*
X96600000Y-90550000D03*
X96600000Y-89050000D03*
D19*
X97750000Y-92900000D03*
X96250000Y-92900000D03*
D18*
X128730000Y-73560000D03*
X128730000Y-75060000D03*
D19*
X126500000Y-69950000D03*
X125000000Y-69950000D03*
X124550000Y-74200000D03*
X123050000Y-74200000D03*
D18*
X132500000Y-90250000D03*
X132500000Y-91750000D03*
X120500000Y-71050000D03*
X120500000Y-69550000D03*
X125700000Y-89950000D03*
X125700000Y-91450000D03*
X118600000Y-71050000D03*
X118600000Y-69550000D03*
D20*
X88600000Y-70650700D03*
X88600000Y-72149300D03*
X88600000Y-76049300D03*
X88600000Y-74550700D03*
D21*
X99550000Y-92600000D03*
X101450000Y-92600000D03*
D22*
X117300000Y-92400000D03*
D23*
X114760000Y-92400000D03*
X112220000Y-92400000D03*
X109680000Y-92400000D03*
X107140000Y-92400000D03*
X104600000Y-92400000D03*
D24*
X129700000Y-91250000D03*
X130700000Y-91250000D03*
X130200000Y-89950000D03*
X122800000Y-91650000D03*
X123800000Y-91650000D03*
X123300000Y-90350000D03*
D25*
X91950000Y-68600000D03*
X93450000Y-68600000D03*
D26*
X90900000Y-72250000D03*
X90900000Y-70750000D03*
X91000000Y-76050000D03*
X91000000Y-74550000D03*
X128670000Y-71270000D03*
X128670000Y-69770000D03*
X127800000Y-91450000D03*
X127800000Y-89950000D03*
X120900000Y-91750000D03*
X120900000Y-90250000D03*
D27*
X92300000Y-60800000D03*
X92300000Y-66200000D03*
D28*
X98750000Y-90750000D03*
X99250000Y-90750000D03*
X99750000Y-90750000D03*
X100250000Y-90750000D03*
X100750000Y-90750000D03*
X101250000Y-90750000D03*
X101250000Y-88850000D03*
X100750000Y-88850000D03*
X100250000Y-88850000D03*
X99750000Y-88850000D03*
X99250000Y-88850000D03*
X98750000Y-88850000D03*
D29*
X100000000Y-89800000D03*
D30*
X99350000Y-89800000D03*
X100000000Y-89800000D03*
X100650000Y-89800000D03*
D26*
X126600000Y-73950000D03*
X126600000Y-75450000D03*
D31*
X125100000Y-72525000D03*
X125500000Y-72525000D03*
X125900000Y-72525000D03*
X125900000Y-72075000D03*
X125500000Y-72075000D03*
X125100000Y-72075000D03*
D15*
X137250000Y-86250000D03*
D19*
X107080000Y-62610000D03*
X108580000Y-62610000D03*
X98120000Y-60190000D03*
X96620000Y-60190000D03*
X103790000Y-62580000D03*
X105290000Y-62580000D03*
X100340000Y-64110000D03*
X101840000Y-64110000D03*
D25*
X98100000Y-64710000D03*
X96600000Y-64710000D03*
X105250000Y-60810000D03*
X103750000Y-60810000D03*
X96620000Y-61940000D03*
X98120000Y-61940000D03*
D32*
X100340000Y-60840000D03*
X100340000Y-61240000D03*
X100340000Y-61640000D03*
X100340000Y-62040000D03*
X100340000Y-62440000D03*
X101940000Y-62440000D03*
X101940000Y-62040000D03*
X101940000Y-61640000D03*
X101940000Y-61240000D03*
X101940000Y-60840000D03*
D15*
X103200000Y-66200000D03*
X94000000Y-60920000D03*
X92230000Y-77890000D03*
X109710000Y-67880000D03*
X111750000Y-74250000D03*
X122900000Y-72800000D03*
X95300000Y-84500000D03*
X95500000Y-89000000D03*
X89600000Y-72000000D03*
X103900000Y-73000000D03*
X131700000Y-86600000D03*
X132600000Y-92800000D03*
X100400000Y-77800000D03*
X119100000Y-89000000D03*
X131400000Y-72500000D03*
X107110000Y-60000000D03*
X90500000Y-68580000D03*
X95040000Y-60000000D03*
X110250000Y-72250000D03*
X98700000Y-72500000D03*
X131400000Y-89900000D03*
X124500000Y-88700000D03*
X95400000Y-73900000D03*
X92000000Y-84700000D03*
X116400000Y-86000000D03*
X104400000Y-85700000D03*
X133500000Y-85000000D03*
X95220000Y-64370000D03*
X95080000Y-67280000D03*
X109900000Y-84500000D03*
X95300000Y-69700000D03*
X103200000Y-89700000D03*
X104700000Y-89500000D03*
X92500000Y-72300000D03*
X125300000Y-79300000D03*
X124100000Y-72100000D03*
X97300000Y-83800000D03*
X116500000Y-84500000D03*
X115500000Y-83250000D03*
X115000000Y-72500000D03*
X123750000Y-85000000D03*
X105900000Y-88800000D03*
X120000000Y-74000000D03*
X99400000Y-70500000D03*
X122100000Y-88700000D03*
X118300000Y-74400000D03*
X100400000Y-71200000D03*
X120700000Y-88600000D03*
X125250000Y-84250000D03*
X106000000Y-87500000D03*
X125750000Y-83000000D03*
X107500000Y-87600000D03*
X101840000Y-59530000D03*
X89450000Y-62420000D03*
D33*
X128670000Y-69770000D02*
X128670000Y-66190000D01*
D34*
X128670000Y-69770000D02*
X126680000Y-69770000D01*
X126680000Y-69770000D02*
X126500000Y-69950000D01*
D35*
X89110000Y-68950000D02*
X89110000Y-65990000D01*
X90980000Y-64120000D02*
X93620000Y-64120000D01*
X89110000Y-65990000D02*
X90980000Y-64120000D01*
X93200000Y-89300000D02*
X93200000Y-88580000D01*
X93200000Y-88580000D02*
X90390000Y-85770000D01*
X90390000Y-85770000D02*
X90390000Y-76660000D01*
X90390000Y-76660000D02*
X91000000Y-76050000D01*
X91700000Y-69800000D02*
X89960000Y-69800000D01*
X93620000Y-64120000D02*
X95600000Y-66100000D01*
X89960000Y-69800000D02*
X89110000Y-68950000D01*
X97800000Y-90750000D02*
X97800000Y-89100000D01*
X98050000Y-88850000D02*
X98750000Y-88850000D01*
X97800000Y-89100000D02*
X98050000Y-88850000D01*
D34*
X100250000Y-88850000D02*
X100250000Y-88350000D01*
X100250000Y-88350000D02*
X100000000Y-88100000D01*
X100000000Y-88100000D02*
X99100000Y-88100000D01*
X99100000Y-88100000D02*
X98750000Y-88450000D01*
X98750000Y-88450000D02*
X98750000Y-88850000D01*
X100750000Y-88850000D02*
X100250000Y-88850000D01*
D35*
X92050000Y-76050000D02*
X91000000Y-76050000D01*
X94100000Y-74000000D02*
X92050000Y-76050000D01*
X94100000Y-72200000D02*
X94100000Y-74000000D01*
X91700000Y-69800000D02*
X94100000Y-72200000D01*
X103100000Y-66100000D02*
X95600000Y-66100000D01*
D34*
X103200000Y-66200000D02*
X103100000Y-66100000D01*
D35*
X96600000Y-90550000D02*
X95350000Y-90550000D01*
X94100000Y-89300000D02*
X92900000Y-89300000D01*
X95350000Y-90550000D02*
X94100000Y-89300000D01*
X98750000Y-90750000D02*
X97800000Y-90750000D01*
X97800000Y-90750000D02*
X97450000Y-90750000D01*
X97250000Y-90550000D02*
X96600000Y-90550000D01*
X97450000Y-90750000D02*
X97250000Y-90550000D01*
D34*
X98750000Y-90750000D02*
X97900000Y-90750000D01*
X97900000Y-90750000D02*
X96800000Y-90750000D01*
X96800000Y-90750000D02*
X96600000Y-90550000D01*
D36*
X93880000Y-60800000D02*
X92300000Y-60800000D01*
X94000000Y-60920000D02*
X93880000Y-60800000D01*
X92300000Y-60840000D02*
X92300000Y-60800000D01*
D34*
X93250000Y-82500000D02*
X93250000Y-82460000D01*
X93250000Y-82460000D02*
X92250000Y-81460000D01*
X92250000Y-81460000D02*
X92250000Y-77910000D01*
X92250000Y-77910000D02*
X92230000Y-77890000D01*
X96620000Y-60190000D02*
X96570000Y-60190000D01*
X96570000Y-60190000D02*
X94880000Y-61880000D01*
X94880000Y-61880000D02*
X93380000Y-61880000D01*
X93380000Y-61880000D02*
X92300000Y-60800000D01*
X101940000Y-61240000D02*
X102780000Y-61240000D01*
X105290000Y-62060000D02*
X105290000Y-62580000D01*
X105000000Y-61770000D02*
X105290000Y-62060000D01*
X103310000Y-61770000D02*
X105000000Y-61770000D01*
X102780000Y-61240000D02*
X103310000Y-61770000D01*
X105290000Y-62580000D02*
X105290000Y-63410000D01*
X104590000Y-64110000D02*
X101840000Y-64110000D01*
X105290000Y-63410000D02*
X104590000Y-64110000D01*
X101940000Y-62440000D02*
X101940000Y-64010000D01*
X101940000Y-64010000D02*
X101840000Y-64110000D01*
X101940000Y-62440000D02*
X101940000Y-62040000D01*
D37*
X109790000Y-67800000D02*
X111660000Y-67800000D01*
X109710000Y-67880000D02*
X109790000Y-67800000D01*
D35*
X105800000Y-76700000D02*
X105800000Y-78300000D01*
D34*
X111750000Y-74250000D02*
X107700000Y-78300000D01*
X107700000Y-78300000D02*
X111750000Y-74250000D01*
D35*
X131700000Y-86520000D02*
X131700000Y-85210000D01*
X131700000Y-85210000D02*
X126450000Y-79960000D01*
X131700000Y-86600000D02*
X131700000Y-86520000D01*
X125000000Y-69950000D02*
X122210000Y-69950000D01*
D34*
X121940000Y-69680000D02*
X121940000Y-69740000D01*
D35*
X122210000Y-69950000D02*
X121940000Y-69680000D01*
X128730000Y-75060000D02*
X128730000Y-77170000D01*
D34*
X128730000Y-77170000D02*
X128650000Y-77250000D01*
D35*
X128730000Y-75060000D02*
X130940000Y-75060000D01*
X131400000Y-72500000D02*
X131400000Y-74600000D01*
X130940000Y-75060000D02*
X131400000Y-74600000D01*
D34*
X125900000Y-72075000D02*
X126795000Y-72075000D01*
X128050000Y-75060000D02*
X128730000Y-75060000D01*
X127740000Y-74750000D02*
X128050000Y-75060000D01*
X127740000Y-73020000D02*
X127740000Y-74750000D01*
X126795000Y-72075000D02*
X127740000Y-73020000D01*
D36*
X131400000Y-72500000D02*
X131400000Y-72500000D01*
D35*
X118600000Y-69550000D02*
X116750000Y-69550000D01*
X116750000Y-69550000D02*
X115000000Y-67800000D01*
X115000000Y-67800000D02*
X111660000Y-67800000D01*
D34*
X125100000Y-72525000D02*
X125100000Y-72700000D01*
X123300000Y-73200000D02*
X122900000Y-72800000D01*
X124600000Y-73200000D02*
X123300000Y-73200000D01*
X125100000Y-72700000D02*
X124600000Y-73200000D01*
D35*
X123050000Y-74200000D02*
X123050000Y-70850000D01*
X121750000Y-69550000D02*
X120500000Y-69550000D01*
X123050000Y-70850000D02*
X121940000Y-69740000D01*
D34*
X121940000Y-69740000D02*
X121750000Y-69550000D01*
X123050000Y-72950000D02*
X123050000Y-74200000D01*
X122900000Y-72800000D02*
X123050000Y-72950000D01*
D35*
X126450000Y-79100000D02*
X128100000Y-79100000D01*
X128650000Y-78550000D02*
X128650000Y-77250000D01*
X128100000Y-79100000D02*
X128650000Y-78550000D01*
X118600000Y-69550000D02*
X120500000Y-69550000D01*
D34*
X105800000Y-78300000D02*
X101000000Y-78300000D01*
D35*
X101000000Y-78300000D02*
X95300000Y-84000000D01*
D34*
X95300000Y-84000000D02*
X95300000Y-84500000D01*
D35*
X96600000Y-89050000D02*
X95550000Y-89050000D01*
X95550000Y-89050000D02*
X95500000Y-89000000D01*
X96250000Y-92900000D02*
X93500000Y-92900000D01*
X93500000Y-92900000D02*
X91650000Y-91050000D01*
X91650000Y-91050000D02*
X91650000Y-89300000D01*
D34*
X99750000Y-88850000D02*
X99750000Y-89550000D01*
X99750000Y-89550000D02*
X100000000Y-89800000D01*
X99750000Y-88850000D02*
X99250000Y-88850000D01*
D35*
X88600000Y-72149300D02*
X89450700Y-72149300D01*
D34*
X89450700Y-72149300D02*
X89600000Y-72000000D01*
D35*
X103900000Y-73000000D02*
X105800000Y-74900000D01*
X105800000Y-74900000D02*
X105800000Y-78300000D01*
X126450000Y-77250000D02*
X126450000Y-79100000D01*
X126450000Y-79100000D02*
X126450000Y-79960000D01*
D34*
X127800000Y-89950000D02*
X128550000Y-89950000D01*
X131200000Y-88700000D02*
X131700000Y-88200000D01*
X129800000Y-88700000D02*
X131200000Y-88700000D01*
X128550000Y-89950000D02*
X129800000Y-88700000D01*
X131700000Y-88200000D02*
X131700000Y-86600000D01*
X131700000Y-88200000D02*
X131700000Y-86600000D01*
X132500000Y-92700000D02*
X132500000Y-91450000D01*
X132600000Y-92800000D02*
X132500000Y-92700000D01*
X125700000Y-91450000D02*
X125950000Y-91450000D01*
X125950000Y-91450000D02*
X127450000Y-89950000D01*
X127450000Y-89950000D02*
X127800000Y-89950000D01*
X88600000Y-74100000D02*
X88600000Y-74550700D01*
D35*
X88600000Y-74550700D02*
X88600000Y-73500000D01*
X88600000Y-73500000D02*
X88600000Y-72149300D01*
D34*
X100400000Y-77800000D02*
X100900000Y-78300000D01*
X100900000Y-78300000D02*
X105800000Y-78300000D01*
X119850000Y-86950000D02*
X119850000Y-88250000D01*
X119850000Y-88250000D02*
X119100000Y-89000000D01*
X120350000Y-90250000D02*
X120900000Y-90250000D01*
X119100000Y-89000000D02*
X120350000Y-90250000D01*
X109900000Y-74700000D02*
X106300000Y-78300000D01*
X106300000Y-78300000D02*
X105800000Y-78300000D01*
X99750000Y-90750000D02*
X99750000Y-90050000D01*
X99750000Y-90050000D02*
X100000000Y-89800000D01*
X105320000Y-62610000D02*
X105300000Y-62590000D01*
X107110000Y-60000000D02*
X107080000Y-60030000D01*
X107080000Y-60030000D02*
X107080000Y-62610000D01*
X98120000Y-60190000D02*
X98120000Y-59990000D01*
X98120000Y-59990000D02*
X97450000Y-59320000D01*
X90520000Y-68600000D02*
X91950000Y-68600000D01*
X90500000Y-68580000D02*
X90520000Y-68600000D01*
X95210000Y-60000000D02*
X95040000Y-60000000D01*
X95890000Y-59320000D02*
X95210000Y-60000000D01*
X97450000Y-59320000D02*
X95890000Y-59320000D01*
X96620000Y-61940000D02*
X96620000Y-61690000D01*
X96620000Y-61690000D02*
X98120000Y-60190000D01*
X98120000Y-60190000D02*
X98120000Y-60150000D01*
X107080000Y-62610000D02*
X107080000Y-61620000D01*
X107080000Y-61620000D02*
X106270000Y-60810000D01*
X106270000Y-60810000D02*
X105250000Y-60810000D01*
X101940000Y-61640000D02*
X102620000Y-61640000D01*
X102620000Y-61640000D02*
X103560000Y-62580000D01*
X103560000Y-62580000D02*
X103790000Y-62580000D01*
X103800000Y-62350000D02*
X103800000Y-62590000D01*
X98120000Y-60190000D02*
X99690000Y-60190000D01*
X99690000Y-60190000D02*
X100340000Y-60840000D01*
X101940000Y-61640000D02*
X101300000Y-61640000D01*
X100920000Y-60840000D02*
X100340000Y-60840000D01*
X101150000Y-61070000D02*
X100920000Y-60840000D01*
X101150000Y-61490000D02*
X101150000Y-61070000D01*
X101300000Y-61640000D02*
X101150000Y-61490000D01*
X105300000Y-60860000D02*
X105250000Y-60810000D01*
D35*
X99350000Y-73150000D02*
X99350000Y-73400000D01*
X99350000Y-73400000D02*
X98150000Y-74600000D01*
X99450000Y-73250000D02*
X99350000Y-73150000D01*
X99350000Y-73150000D02*
X98700000Y-72500000D01*
X101500000Y-73250000D02*
X99450000Y-73250000D01*
X103000000Y-71750000D02*
X101500000Y-73250000D01*
X109750000Y-71750000D02*
X103000000Y-71750000D01*
X110250000Y-72250000D02*
X109750000Y-71750000D01*
X95400000Y-72180000D02*
X95400000Y-72050000D01*
X95400000Y-72050000D02*
X91950000Y-68600000D01*
X95400000Y-73900000D02*
X95400000Y-72180000D01*
X96100000Y-74600000D02*
X95400000Y-73900000D01*
X98150000Y-74600000D02*
X96100000Y-74600000D01*
X96800000Y-81000000D02*
X96800000Y-81200000D01*
X96800000Y-81200000D02*
X94100000Y-83900000D01*
X94100000Y-85100000D02*
X94100000Y-83900000D01*
X94100000Y-85200000D02*
X94100000Y-85100000D01*
X96800000Y-81000000D02*
X96800000Y-80300000D01*
X131400000Y-89900000D02*
X131350000Y-89950000D01*
X131350000Y-89950000D02*
X130200000Y-89950000D01*
X123300000Y-89600000D02*
X123300000Y-90350000D01*
X124500000Y-88700000D02*
X123300000Y-89600000D01*
X96800000Y-75300000D02*
X95400000Y-73900000D01*
X96800000Y-80300000D02*
X96800000Y-75300000D01*
X104400000Y-85700000D02*
X94600000Y-85700000D01*
X93600000Y-84700000D02*
X92000000Y-84700000D01*
X94600000Y-85700000D02*
X94100000Y-85200000D01*
X94100000Y-85200000D02*
X93600000Y-84700000D01*
X115550000Y-86850000D02*
X116400000Y-86000000D01*
X104400000Y-85700000D02*
X105900000Y-85700000D01*
X115500000Y-86900000D02*
X115550000Y-86850000D01*
X115550000Y-86850000D02*
X116000000Y-86400000D01*
X116000000Y-86400000D02*
X116300000Y-86100000D01*
X109300000Y-86900000D02*
X115500000Y-86900000D01*
X108800000Y-86400000D02*
X109300000Y-86900000D01*
X106600000Y-86400000D02*
X108800000Y-86400000D01*
X105900000Y-85700000D02*
X106600000Y-86400000D01*
X101450000Y-92600000D02*
X101450000Y-91750000D01*
X101450000Y-91750000D02*
X102100000Y-91100000D01*
X102100000Y-88000000D02*
X104400000Y-85700000D01*
X102100000Y-91100000D02*
X102100000Y-88000000D01*
D34*
X104100000Y-85700000D02*
X104400000Y-85700000D01*
X100750000Y-90750000D02*
X100750000Y-91050000D01*
X100750000Y-91050000D02*
X101450000Y-91750000D01*
D35*
X97750000Y-92900000D02*
X97750000Y-93450000D01*
X101450000Y-93550000D02*
X101450000Y-92600000D01*
X101100000Y-93900000D02*
X101450000Y-93550000D01*
X98200000Y-93900000D02*
X101100000Y-93900000D01*
X97750000Y-93450000D02*
X98200000Y-93900000D01*
D34*
X125500000Y-72075000D02*
X125500000Y-71460000D01*
X125690000Y-71270000D02*
X128670000Y-71270000D01*
X125500000Y-71460000D02*
X125690000Y-71270000D01*
X128730000Y-73560000D02*
X128730000Y-71330000D01*
X128730000Y-71330000D02*
X128670000Y-71270000D01*
D35*
X133500000Y-89500000D02*
X132750000Y-90250000D01*
X133500000Y-85000000D02*
X133500000Y-89500000D01*
X132750000Y-90250000D02*
X132500000Y-90250000D01*
D37*
X132500000Y-90250000D02*
X132500000Y-90200000D01*
X130700000Y-91250000D02*
X131500000Y-91250000D01*
X131500000Y-91250000D02*
X132500000Y-90250000D01*
D34*
X132500000Y-90250000D02*
X132500000Y-89600000D01*
X131500000Y-91250000D02*
X132500000Y-90250000D01*
X132500000Y-89950000D02*
X132500000Y-89600000D01*
X132500000Y-89950000D02*
X132500000Y-89700000D01*
D37*
X125700000Y-89950000D02*
X125850000Y-89950000D01*
X125850000Y-89950000D02*
X127550000Y-88250000D01*
X127550000Y-88250000D02*
X127550000Y-86950000D01*
X123800000Y-91650000D02*
X123800000Y-91500000D01*
X123800000Y-91500000D02*
X125350000Y-89950000D01*
X125350000Y-89950000D02*
X125700000Y-89950000D01*
D34*
X127550000Y-86950000D02*
X127550000Y-88100000D01*
X127550000Y-88100000D02*
X125700000Y-89950000D01*
X125700000Y-90000000D02*
X125700000Y-89950000D01*
X90900000Y-70750000D02*
X88699300Y-70750000D01*
X88699300Y-70750000D02*
X88600000Y-70650700D01*
X88600000Y-76049300D02*
X88950700Y-76049300D01*
X88950700Y-76049300D02*
X90450000Y-74550000D01*
X90450000Y-74550000D02*
X91000000Y-74550000D01*
X99250000Y-90750000D02*
X99250000Y-91450000D01*
X99550000Y-91750000D02*
X99550000Y-92600000D01*
X99250000Y-91450000D02*
X99550000Y-91750000D01*
X96600000Y-64710000D02*
X95560000Y-64710000D01*
X95560000Y-64710000D02*
X95220000Y-64370000D01*
X92300000Y-66200000D02*
X94000000Y-66200000D01*
X94000000Y-66200000D02*
X95080000Y-67280000D01*
X92290000Y-66200000D02*
X92300000Y-66200000D01*
X111000000Y-70900000D02*
X111400000Y-70900000D01*
X113000000Y-84000000D02*
X112500000Y-84500000D01*
X113000000Y-72500000D02*
X113000000Y-84000000D01*
X111400000Y-70900000D02*
X113000000Y-72500000D01*
X95300000Y-69700000D02*
X97200000Y-69700000D01*
X101200000Y-72100000D02*
X102400000Y-70900000D01*
X102400000Y-70900000D02*
X111000000Y-70900000D01*
X97200000Y-69700000D02*
X99600000Y-72100000D01*
X99600000Y-72100000D02*
X101200000Y-72100000D01*
X93450000Y-68600000D02*
X94800000Y-68600000D01*
X94800000Y-68600000D02*
X95300000Y-69100000D01*
X95300000Y-69100000D02*
X95300000Y-69700000D01*
X112500000Y-84500000D02*
X109900000Y-84500000D01*
X92300000Y-66200000D02*
X92300000Y-66500000D01*
X92300000Y-66500000D02*
X93450000Y-67650000D01*
X93450000Y-67650000D02*
X93450000Y-68600000D01*
X98940000Y-62820000D02*
X98940000Y-62510000D01*
X98940000Y-62510000D02*
X99140000Y-62310000D01*
X98940000Y-63500000D02*
X98940000Y-62820000D01*
X98940000Y-62820000D02*
X98940000Y-62700000D01*
X98940000Y-62700000D02*
X98845000Y-62605000D01*
X100340000Y-61640000D02*
X99810000Y-61640000D01*
X99810000Y-61640000D02*
X99140000Y-62310000D01*
X99140000Y-62310000D02*
X98845000Y-62605000D01*
X98845000Y-62605000D02*
X97950000Y-63500000D01*
X104600000Y-92400000D02*
X104600000Y-92630000D01*
X104600000Y-92630000D02*
X102680000Y-94550000D01*
X102680000Y-94550000D02*
X90670000Y-94550000D01*
X90670000Y-94550000D02*
X87870000Y-91750000D01*
X87870000Y-91750000D02*
X87860000Y-91750000D01*
X87860000Y-91750000D02*
X87400000Y-91290000D01*
X87400000Y-91290000D02*
X87400000Y-66360000D01*
X87400000Y-66360000D02*
X90400000Y-63360000D01*
X90400000Y-63360000D02*
X94550000Y-63360000D01*
X94550000Y-63360000D02*
X94690000Y-63500000D01*
X94690000Y-63500000D02*
X97950000Y-63500000D01*
X98940000Y-63870000D02*
X98100000Y-64710000D01*
X98940000Y-63500000D02*
X98940000Y-63870000D01*
X103900000Y-90400000D02*
X105500000Y-90400000D01*
X103200000Y-89700000D02*
X103900000Y-90400000D01*
X106700000Y-90400000D02*
X105500000Y-90400000D01*
X106700000Y-90400000D02*
X118100000Y-90400000D01*
X118100000Y-90400000D02*
X119300000Y-91600000D01*
X119300000Y-91600000D02*
X119300000Y-92300000D01*
X119300000Y-92300000D02*
X120200000Y-93200000D01*
X120200000Y-93200000D02*
X127200000Y-93200000D01*
X127200000Y-93200000D02*
X127800000Y-92600000D01*
X127800000Y-92600000D02*
X127800000Y-91450000D01*
X127800000Y-91450000D02*
X128950000Y-91450000D01*
X129150000Y-91250000D02*
X129700000Y-91250000D01*
X128950000Y-91450000D02*
X129150000Y-91250000D01*
X105000000Y-89800000D02*
X107000000Y-89800000D01*
X104700000Y-89500000D02*
X105000000Y-89800000D01*
X120350000Y-91750000D02*
X120900000Y-91750000D01*
X118400000Y-89800000D02*
X120350000Y-91750000D01*
X107000000Y-89800000D02*
X118400000Y-89800000D01*
X120900000Y-91750000D02*
X122700000Y-91750000D01*
X122700000Y-91750000D02*
X122800000Y-91650000D01*
X120900000Y-91750000D02*
X120650000Y-91750000D01*
X90900000Y-72250000D02*
X92450000Y-72250000D01*
X92450000Y-72250000D02*
X92500000Y-72300000D01*
X125100000Y-72075000D02*
X124125000Y-72075000D01*
X125350000Y-79250000D02*
X125350000Y-77250000D01*
X125300000Y-79300000D02*
X125350000Y-79250000D01*
X124125000Y-72075000D02*
X124100000Y-72100000D01*
X125500000Y-72525000D02*
X125500000Y-73200000D01*
X125500000Y-73200000D02*
X124550000Y-74150000D01*
X124550000Y-74150000D02*
X124550000Y-74200000D01*
X124250000Y-77250000D02*
X124250000Y-75750000D01*
X124550000Y-75450000D02*
X124550000Y-74200000D01*
X124250000Y-75750000D02*
X124550000Y-75450000D01*
X111500000Y-85500000D02*
X115500000Y-85500000D01*
X115500000Y-85500000D02*
X116500000Y-84500000D01*
X100100000Y-84800000D02*
X98000000Y-84800000D01*
X97300000Y-84100000D02*
X97300000Y-83800000D01*
X98000000Y-84800000D02*
X97300000Y-84100000D01*
X107000000Y-85500000D02*
X106500000Y-85000000D01*
X111500000Y-85500000D02*
X107000000Y-85500000D01*
X105500000Y-84800000D02*
X103100000Y-84800000D01*
X106300000Y-84800000D02*
X105500000Y-84800000D01*
X106500000Y-85000000D02*
X106300000Y-84800000D01*
X100100000Y-84800000D02*
X103100000Y-84800000D01*
X115500000Y-73000000D02*
X115500000Y-83250000D01*
X115000000Y-72500000D02*
X115500000Y-73000000D01*
X122250000Y-84800000D02*
X123550000Y-84800000D01*
X123550000Y-84800000D02*
X123750000Y-85000000D01*
X109100000Y-89300000D02*
X107700000Y-89300000D01*
X106400000Y-89300000D02*
X107700000Y-89300000D01*
X122300000Y-84800000D02*
X122250000Y-84800000D01*
X122250000Y-84800000D02*
X119900000Y-84800000D01*
X119900000Y-84800000D02*
X119450000Y-85250000D01*
X119450000Y-85250000D02*
X118800000Y-85900000D01*
X122400000Y-84800000D02*
X122300000Y-84800000D01*
X109100000Y-89300000D02*
X116800000Y-89300000D01*
X116800000Y-89300000D02*
X118800000Y-87300000D01*
X118800000Y-87300000D02*
X118800000Y-85900000D01*
X105900000Y-88800000D02*
X106400000Y-89300000D01*
X115700000Y-69700000D02*
X118500000Y-72500000D01*
X100100000Y-69700000D02*
X115700000Y-69700000D01*
X120000000Y-74000000D02*
X118500000Y-72500000D01*
X99400000Y-70500000D02*
X99400000Y-70400000D01*
X99400000Y-70400000D02*
X100100000Y-69700000D01*
X122050000Y-86950000D02*
X122050000Y-88650000D01*
X122050000Y-88650000D02*
X122100000Y-88700000D01*
X118300000Y-74400000D02*
X118300000Y-74240000D01*
X118300000Y-74240000D02*
X114360000Y-70300000D01*
X114360000Y-70300000D02*
X100800000Y-70300000D01*
X100800000Y-70300000D02*
X100400000Y-70700000D01*
X100400000Y-70700000D02*
X100400000Y-71200000D01*
X120950000Y-86950000D02*
X120950000Y-88350000D01*
X120950000Y-88350000D02*
X120700000Y-88600000D01*
X122750000Y-83800000D02*
X124800000Y-83800000D01*
X124800000Y-83800000D02*
X125250000Y-84250000D01*
X125250000Y-84250000D02*
X124800000Y-83800000D01*
X118200000Y-85400000D02*
X118400000Y-85200000D01*
X123400000Y-83800000D02*
X123250000Y-83800000D01*
X123250000Y-83800000D02*
X122750000Y-83800000D01*
X122750000Y-83800000D02*
X119800000Y-83800000D01*
X119800000Y-83800000D02*
X118400000Y-85200000D01*
X118200000Y-86900000D02*
X118200000Y-85400000D01*
X116400000Y-88700000D02*
X118200000Y-86900000D01*
X107200000Y-88700000D02*
X116400000Y-88700000D01*
X106000000Y-87500000D02*
X107200000Y-88700000D01*
X124500000Y-83000000D02*
X125750000Y-83000000D01*
X119550000Y-83000000D02*
X119480000Y-83000000D01*
X124500000Y-83000000D02*
X124000000Y-83000000D01*
X124000000Y-83000000D02*
X119550000Y-83000000D01*
X119480000Y-83000000D02*
X117430000Y-85050000D01*
X117430000Y-85050000D02*
X117430000Y-86670000D01*
X117430000Y-85050000D02*
X117430000Y-86670000D01*
X116100000Y-88000000D02*
X117430000Y-86670000D01*
X107900000Y-88000000D02*
X116100000Y-88000000D01*
X107500000Y-87600000D02*
X107900000Y-88000000D01*
X118600000Y-71050000D02*
X120500000Y-71050000D01*
X120500000Y-71050000D02*
X121400000Y-71950000D01*
X121400000Y-71950000D02*
X121400000Y-74600000D01*
X121400000Y-74600000D02*
X120500000Y-75500000D01*
X120500000Y-75500000D02*
X119000000Y-75500000D01*
X119000000Y-75500000D02*
X117230000Y-77270000D01*
X117230000Y-77270000D02*
X117230000Y-78300000D01*
X117230000Y-78300000D02*
X117230000Y-78330000D01*
X117230000Y-78330000D02*
X119100000Y-80200000D01*
X125300000Y-80200000D02*
X126300000Y-81200000D01*
X119100000Y-80200000D02*
X125300000Y-80200000D01*
X125350000Y-86950000D02*
X125350000Y-85650000D01*
X126700000Y-81600000D02*
X126300000Y-81200000D01*
X126700000Y-84300000D02*
X126700000Y-81600000D01*
X125350000Y-85650000D02*
X126700000Y-84300000D01*
D38*
X126600000Y-73950000D02*
X126600000Y-73180000D01*
X126600000Y-73180000D02*
X125945000Y-72525000D01*
X125945000Y-72525000D02*
X125900000Y-72525000D01*
D34*
X126600000Y-73800000D02*
X126600000Y-73950000D01*
X127550000Y-77250000D02*
X127550000Y-76400000D01*
X127550000Y-76400000D02*
X126600000Y-75450000D01*
X100340000Y-64110000D02*
X100340000Y-63830000D01*
X100340000Y-63830000D02*
X101100000Y-63070000D01*
X101100000Y-63070000D02*
X101100000Y-62220000D01*
X101100000Y-62220000D02*
X100920000Y-62040000D01*
X100920000Y-62040000D02*
X100340000Y-62040000D01*
X101940000Y-59630000D02*
X101940000Y-60840000D01*
X101840000Y-59530000D02*
X101940000Y-59630000D01*
X101940000Y-60840000D02*
X103720000Y-60840000D01*
X103720000Y-60840000D02*
X103750000Y-60810000D01*
X97790000Y-62990000D02*
X98120000Y-62660000D01*
X95460000Y-62990000D02*
X97790000Y-62990000D01*
X95060000Y-62590000D02*
X95460000Y-62990000D01*
X89620000Y-62590000D02*
X95060000Y-62590000D01*
X89450000Y-62420000D02*
X89620000Y-62590000D01*
X98120000Y-62660000D02*
X98120000Y-61940000D01*
X98120000Y-61940000D02*
X98730000Y-61940000D01*
X99430000Y-61240000D02*
X100340000Y-61240000D01*
X98730000Y-61940000D02*
X99430000Y-61240000D01*
D39*
G36*
X136373000Y-85500000D02*
X136381685Y-85546159D01*
X136408965Y-85588553D01*
X136450590Y-85616994D01*
X136500000Y-85627000D01*
X144790000Y-85627000D01*
X144790000Y-92621972D01*
X144593148Y-92490440D01*
X144030000Y-92378423D01*
X143466852Y-92490440D01*
X142989438Y-92809438D01*
X142670440Y-93286852D01*
X142558423Y-93850000D01*
X142670440Y-94413148D01*
X142715109Y-94480000D01*
X103789446Y-94480000D01*
X104254772Y-94014675D01*
X104600000Y-94083345D01*
X105173489Y-93969271D01*
X105659670Y-93644415D01*
X105870000Y-93329634D01*
X106080330Y-93644415D01*
X106566511Y-93969271D01*
X107140000Y-94083345D01*
X107713489Y-93969271D01*
X108199670Y-93644415D01*
X108410000Y-93329634D01*
X108620330Y-93644415D01*
X109106511Y-93969271D01*
X109680000Y-94083345D01*
X110253489Y-93969271D01*
X110739670Y-93644415D01*
X110950000Y-93329634D01*
X111160330Y-93644415D01*
X111646511Y-93969271D01*
X112220000Y-94083345D01*
X112793489Y-93969271D01*
X113279670Y-93644415D01*
X113486461Y-93334931D01*
X113857964Y-93750732D01*
X114385209Y-94004709D01*
X114400974Y-94007358D01*
X114633000Y-93886217D01*
X114633000Y-92527000D01*
X114613000Y-92527000D01*
X114613000Y-92273000D01*
X114633000Y-92273000D01*
X114633000Y-92253000D01*
X114887000Y-92253000D01*
X114887000Y-92273000D01*
X114907000Y-92273000D01*
X114907000Y-92527000D01*
X114887000Y-92527000D01*
X114887000Y-93886217D01*
X115119026Y-94007358D01*
X115134791Y-94004709D01*
X115662036Y-93750732D01*
X115818907Y-93575155D01*
X115833238Y-93651317D01*
X115972310Y-93867441D01*
X116184510Y-94012431D01*
X116436400Y-94063440D01*
X118163600Y-94063440D01*
X118398917Y-94019162D01*
X118615041Y-93880090D01*
X118760031Y-93667890D01*
X118811040Y-93416000D01*
X118811040Y-92850486D01*
X119680276Y-93719723D01*
X119907324Y-93871431D01*
X119918728Y-93879051D01*
X120200000Y-93935000D01*
X127200000Y-93935000D01*
X127481272Y-93879051D01*
X127719723Y-93719723D01*
X128319723Y-93119724D01*
X128479051Y-92881272D01*
X128499482Y-92778560D01*
X128535000Y-92600000D01*
X128535000Y-92271192D01*
X128668946Y-92185000D01*
X128950000Y-92185000D01*
X129231272Y-92129051D01*
X129266910Y-92105238D01*
X129500000Y-92152440D01*
X129900000Y-92152440D01*
X130135317Y-92108162D01*
X130198478Y-92067519D01*
X130248110Y-92101431D01*
X130500000Y-92152440D01*
X130900000Y-92152440D01*
X131135317Y-92108162D01*
X131210163Y-92060000D01*
X131490000Y-92060000D01*
X131490000Y-92276309D01*
X131586673Y-92509698D01*
X131765301Y-92688327D01*
X131998690Y-92785000D01*
X132214250Y-92785000D01*
X132373000Y-92626250D01*
X132373000Y-91877000D01*
X132627000Y-91877000D01*
X132627000Y-92626250D01*
X132785750Y-92785000D01*
X133001310Y-92785000D01*
X133234699Y-92688327D01*
X133413327Y-92509698D01*
X133510000Y-92276309D01*
X133510000Y-92035750D01*
X133351250Y-91877000D01*
X132627000Y-91877000D01*
X132373000Y-91877000D01*
X132353000Y-91877000D01*
X132353000Y-91623000D01*
X132373000Y-91623000D01*
X132373000Y-91603000D01*
X132627000Y-91603000D01*
X132627000Y-91623000D01*
X133351250Y-91623000D01*
X133510000Y-91464250D01*
X133510000Y-91223691D01*
X133413327Y-90990302D01*
X133411957Y-90988932D01*
X133471431Y-90901890D01*
X133520300Y-90660568D01*
X134090434Y-90090434D01*
X134127474Y-90035000D01*
X134271439Y-89819541D01*
X134335000Y-89500000D01*
X134335000Y-85770189D01*
X134461645Y-85643765D01*
X134634803Y-85226756D01*
X134635197Y-84775225D01*
X134462767Y-84357914D01*
X134143765Y-84038355D01*
X133726756Y-83865197D01*
X133275225Y-83864803D01*
X132857914Y-84037233D01*
X132538355Y-84356235D01*
X132365197Y-84773244D01*
X132364803Y-85224775D01*
X132537233Y-85642086D01*
X132665000Y-85770076D01*
X132665000Y-88897821D01*
X132500000Y-88865000D01*
X132218728Y-88920949D01*
X132103349Y-88998043D01*
X132043765Y-88938355D01*
X131626756Y-88765197D01*
X131175225Y-88764803D01*
X130757914Y-88937233D01*
X130605672Y-89089210D01*
X130400000Y-89047560D01*
X130000000Y-89047560D01*
X129764683Y-89091838D01*
X129548559Y-89230910D01*
X129403569Y-89443110D01*
X129352560Y-89695000D01*
X129352560Y-90205000D01*
X129383509Y-90369479D01*
X129264683Y-90391838D01*
X129048559Y-90530910D01*
X129045184Y-90535849D01*
X128868728Y-90570949D01*
X128659123Y-90711002D01*
X128645994Y-90702031D01*
X128788327Y-90559698D01*
X128885000Y-90326309D01*
X128885000Y-90233750D01*
X128726250Y-90075000D01*
X127927000Y-90075000D01*
X127927000Y-90097000D01*
X127673000Y-90097000D01*
X127673000Y-90075000D01*
X127653000Y-90075000D01*
X127653000Y-89825000D01*
X127673000Y-89825000D01*
X127673000Y-89803000D01*
X127927000Y-89803000D01*
X127927000Y-89825000D01*
X128726250Y-89825000D01*
X128885000Y-89666250D01*
X128885000Y-89573691D01*
X128788327Y-89340302D01*
X128609699Y-89161673D01*
X128376310Y-89065000D01*
X128085750Y-89065000D01*
X127927002Y-89223748D01*
X127927002Y-89065000D01*
X127880513Y-89065000D01*
X128122756Y-88822757D01*
X128218777Y-88679051D01*
X128298342Y-88559974D01*
X128320318Y-88449494D01*
X128650000Y-88515072D01*
X129046077Y-88436287D01*
X129381856Y-88211928D01*
X129606215Y-87876149D01*
X129685000Y-87480072D01*
X129685000Y-86419928D01*
X129606215Y-86023851D01*
X129381856Y-85688072D01*
X129046077Y-85463713D01*
X128650000Y-85384928D01*
X128253923Y-85463713D01*
X128100000Y-85566560D01*
X127946077Y-85463713D01*
X127550000Y-85384928D01*
X127153923Y-85463713D01*
X127000000Y-85566560D01*
X126846077Y-85463713D01*
X126620587Y-85418860D01*
X127219723Y-84819724D01*
X127379051Y-84581272D01*
X127381104Y-84570949D01*
X127435000Y-84300000D01*
X127435000Y-81600000D01*
X127379051Y-81318728D01*
X127379051Y-81318727D01*
X127219723Y-81080276D01*
X126819726Y-80680280D01*
X126819724Y-80680277D01*
X126172350Y-80032904D01*
X126261645Y-79943765D01*
X126434803Y-79526756D01*
X126435197Y-79075225D01*
X126265067Y-78663479D01*
X126323000Y-78616998D01*
X126323000Y-78091766D01*
X126385000Y-77780072D01*
X126385000Y-77103000D01*
X126515000Y-77103000D01*
X126515000Y-77780072D01*
X126577000Y-78091766D01*
X126577000Y-78616998D01*
X126736123Y-78744666D01*
X126985240Y-78623577D01*
X127153923Y-78736287D01*
X127550000Y-78815072D01*
X127946077Y-78736287D01*
X128114760Y-78623577D01*
X128363877Y-78744666D01*
X128523000Y-78616998D01*
X128523000Y-78091766D01*
X128585000Y-77780072D01*
X128585000Y-77377000D01*
X128777000Y-77377000D01*
X128777000Y-78616998D01*
X128936123Y-78744666D01*
X129292053Y-78571658D01*
X129557615Y-78263410D01*
X129685000Y-77877000D01*
X129685000Y-77377000D01*
X128777000Y-77377000D01*
X128585000Y-77377000D01*
X128585000Y-76719928D01*
X128523000Y-76408234D01*
X128523000Y-76016250D01*
X128603000Y-75936250D01*
X128603000Y-75883002D01*
X128777000Y-75883002D01*
X128777000Y-77123000D01*
X129685000Y-77123000D01*
X129685000Y-76623000D01*
X129557615Y-76236590D01*
X129381895Y-76032625D01*
X129464699Y-75998327D01*
X129643327Y-75819698D01*
X129740000Y-75586309D01*
X129740000Y-75345750D01*
X129581250Y-75187000D01*
X128857000Y-75187000D01*
X128857000Y-75818816D01*
X128777000Y-75883002D01*
X128603000Y-75883002D01*
X128603000Y-75187000D01*
X127878750Y-75187000D01*
X127720000Y-75345750D01*
X127720000Y-75530553D01*
X127697440Y-75507993D01*
X127697440Y-75200000D01*
X127653162Y-74964683D01*
X127514090Y-74748559D01*
X127444289Y-74700866D01*
X127501441Y-74664090D01*
X127646431Y-74451890D01*
X127697440Y-74200000D01*
X127697440Y-73700000D01*
X127653162Y-73464683D01*
X127514090Y-73248559D01*
X127380478Y-73157266D01*
X127325245Y-72879594D01*
X127155079Y-72624921D01*
X126603546Y-72073388D01*
X126559539Y-72005000D01*
X127805025Y-72005000D01*
X127968110Y-72116431D01*
X127995000Y-72121876D01*
X127995000Y-72637069D01*
X127903559Y-72695910D01*
X127758569Y-72908110D01*
X127707560Y-73160000D01*
X127707560Y-73960000D01*
X127751838Y-74195317D01*
X127818329Y-74298646D01*
X127816673Y-74300302D01*
X127720000Y-74533691D01*
X127720000Y-74774250D01*
X127878750Y-74933000D01*
X128603000Y-74933000D01*
X128603000Y-74913000D01*
X128857000Y-74913000D01*
X128857000Y-74933000D01*
X129581250Y-74933000D01*
X129740000Y-74774250D01*
X129740000Y-74533691D01*
X129643327Y-74300302D01*
X129641957Y-74298932D01*
X129701431Y-74211890D01*
X129752440Y-73960000D01*
X129752440Y-73160000D01*
X129708162Y-72924683D01*
X129569090Y-72708559D01*
X129465000Y-72637437D01*
X129465000Y-72052583D01*
X129571441Y-71984090D01*
X129716431Y-71771890D01*
X129767440Y-71520000D01*
X129767440Y-71020000D01*
X129723162Y-70784683D01*
X129584090Y-70568559D01*
X129514289Y-70520866D01*
X129571441Y-70484090D01*
X129716431Y-70271890D01*
X129767440Y-70020000D01*
X129767440Y-69520000D01*
X129723162Y-69284683D01*
X129605000Y-69101054D01*
X129605000Y-68627000D01*
X136373000Y-68627000D01*
X136373000Y-85500000D01*
X136373000Y-85500000D01*
G37*
X136373000Y-85500000D02*
X136381685Y-85546159D01*
X136408965Y-85588553D01*
X136450590Y-85616994D01*
X136500000Y-85627000D01*
X144790000Y-85627000D01*
X144790000Y-92621972D01*
X144593148Y-92490440D01*
X144030000Y-92378423D01*
X143466852Y-92490440D01*
X142989438Y-92809438D01*
X142670440Y-93286852D01*
X142558423Y-93850000D01*
X142670440Y-94413148D01*
X142715109Y-94480000D01*
X103789446Y-94480000D01*
X104254772Y-94014675D01*
X104600000Y-94083345D01*
X105173489Y-93969271D01*
X105659670Y-93644415D01*
X105870000Y-93329634D01*
X106080330Y-93644415D01*
X106566511Y-93969271D01*
X107140000Y-94083345D01*
X107713489Y-93969271D01*
X108199670Y-93644415D01*
X108410000Y-93329634D01*
X108620330Y-93644415D01*
X109106511Y-93969271D01*
X109680000Y-94083345D01*
X110253489Y-93969271D01*
X110739670Y-93644415D01*
X110950000Y-93329634D01*
X111160330Y-93644415D01*
X111646511Y-93969271D01*
X112220000Y-94083345D01*
X112793489Y-93969271D01*
X113279670Y-93644415D01*
X113486461Y-93334931D01*
X113857964Y-93750732D01*
X114385209Y-94004709D01*
X114400974Y-94007358D01*
X114633000Y-93886217D01*
X114633000Y-92527000D01*
X114613000Y-92527000D01*
X114613000Y-92273000D01*
X114633000Y-92273000D01*
X114633000Y-92253000D01*
X114887000Y-92253000D01*
X114887000Y-92273000D01*
X114907000Y-92273000D01*
X114907000Y-92527000D01*
X114887000Y-92527000D01*
X114887000Y-93886217D01*
X115119026Y-94007358D01*
X115134791Y-94004709D01*
X115662036Y-93750732D01*
X115818907Y-93575155D01*
X115833238Y-93651317D01*
X115972310Y-93867441D01*
X116184510Y-94012431D01*
X116436400Y-94063440D01*
X118163600Y-94063440D01*
X118398917Y-94019162D01*
X118615041Y-93880090D01*
X118760031Y-93667890D01*
X118811040Y-93416000D01*
X118811040Y-92850486D01*
X119680276Y-93719723D01*
X119907324Y-93871431D01*
X119918728Y-93879051D01*
X120200000Y-93935000D01*
X127200000Y-93935000D01*
X127481272Y-93879051D01*
X127719723Y-93719723D01*
X128319723Y-93119724D01*
X128479051Y-92881272D01*
X128499482Y-92778560D01*
X128535000Y-92600000D01*
X128535000Y-92271192D01*
X128668946Y-92185000D01*
X128950000Y-92185000D01*
X129231272Y-92129051D01*
X129266910Y-92105238D01*
X129500000Y-92152440D01*
X129900000Y-92152440D01*
X130135317Y-92108162D01*
X130198478Y-92067519D01*
X130248110Y-92101431D01*
X130500000Y-92152440D01*
X130900000Y-92152440D01*
X131135317Y-92108162D01*
X131210163Y-92060000D01*
X131490000Y-92060000D01*
X131490000Y-92276309D01*
X131586673Y-92509698D01*
X131765301Y-92688327D01*
X131998690Y-92785000D01*
X132214250Y-92785000D01*
X132373000Y-92626250D01*
X132373000Y-91877000D01*
X132627000Y-91877000D01*
X132627000Y-92626250D01*
X132785750Y-92785000D01*
X133001310Y-92785000D01*
X133234699Y-92688327D01*
X133413327Y-92509698D01*
X133510000Y-92276309D01*
X133510000Y-92035750D01*
X133351250Y-91877000D01*
X132627000Y-91877000D01*
X132373000Y-91877000D01*
X132353000Y-91877000D01*
X132353000Y-91623000D01*
X132373000Y-91623000D01*
X132373000Y-91603000D01*
X132627000Y-91603000D01*
X132627000Y-91623000D01*
X133351250Y-91623000D01*
X133510000Y-91464250D01*
X133510000Y-91223691D01*
X133413327Y-90990302D01*
X133411957Y-90988932D01*
X133471431Y-90901890D01*
X133520300Y-90660568D01*
X134090434Y-90090434D01*
X134127474Y-90035000D01*
X134271439Y-89819541D01*
X134335000Y-89500000D01*
X134335000Y-85770189D01*
X134461645Y-85643765D01*
X134634803Y-85226756D01*
X134635197Y-84775225D01*
X134462767Y-84357914D01*
X134143765Y-84038355D01*
X133726756Y-83865197D01*
X133275225Y-83864803D01*
X132857914Y-84037233D01*
X132538355Y-84356235D01*
X132365197Y-84773244D01*
X132364803Y-85224775D01*
X132537233Y-85642086D01*
X132665000Y-85770076D01*
X132665000Y-88897821D01*
X132500000Y-88865000D01*
X132218728Y-88920949D01*
X132103349Y-88998043D01*
X132043765Y-88938355D01*
X131626756Y-88765197D01*
X131175225Y-88764803D01*
X130757914Y-88937233D01*
X130605672Y-89089210D01*
X130400000Y-89047560D01*
X130000000Y-89047560D01*
X129764683Y-89091838D01*
X129548559Y-89230910D01*
X129403569Y-89443110D01*
X129352560Y-89695000D01*
X129352560Y-90205000D01*
X129383509Y-90369479D01*
X129264683Y-90391838D01*
X129048559Y-90530910D01*
X129045184Y-90535849D01*
X128868728Y-90570949D01*
X128659123Y-90711002D01*
X128645994Y-90702031D01*
X128788327Y-90559698D01*
X128885000Y-90326309D01*
X128885000Y-90233750D01*
X128726250Y-90075000D01*
X127927000Y-90075000D01*
X127927000Y-90097000D01*
X127673000Y-90097000D01*
X127673000Y-90075000D01*
X127653000Y-90075000D01*
X127653000Y-89825000D01*
X127673000Y-89825000D01*
X127673000Y-89803000D01*
X127927000Y-89803000D01*
X127927000Y-89825000D01*
X128726250Y-89825000D01*
X128885000Y-89666250D01*
X128885000Y-89573691D01*
X128788327Y-89340302D01*
X128609699Y-89161673D01*
X128376310Y-89065000D01*
X128085750Y-89065000D01*
X127927002Y-89223748D01*
X127927002Y-89065000D01*
X127880513Y-89065000D01*
X128122756Y-88822757D01*
X128218777Y-88679051D01*
X128298342Y-88559974D01*
X128320318Y-88449494D01*
X128650000Y-88515072D01*
X129046077Y-88436287D01*
X129381856Y-88211928D01*
X129606215Y-87876149D01*
X129685000Y-87480072D01*
X129685000Y-86419928D01*
X129606215Y-86023851D01*
X129381856Y-85688072D01*
X129046077Y-85463713D01*
X128650000Y-85384928D01*
X128253923Y-85463713D01*
X128100000Y-85566560D01*
X127946077Y-85463713D01*
X127550000Y-85384928D01*
X127153923Y-85463713D01*
X127000000Y-85566560D01*
X126846077Y-85463713D01*
X126620587Y-85418860D01*
X127219723Y-84819724D01*
X127379051Y-84581272D01*
X127381104Y-84570949D01*
X127435000Y-84300000D01*
X127435000Y-81600000D01*
X127379051Y-81318728D01*
X127379051Y-81318727D01*
X127219723Y-81080276D01*
X126819726Y-80680280D01*
X126819724Y-80680277D01*
X126172350Y-80032904D01*
X126261645Y-79943765D01*
X126434803Y-79526756D01*
X126435197Y-79075225D01*
X126265067Y-78663479D01*
X126323000Y-78616998D01*
X126323000Y-78091766D01*
X126385000Y-77780072D01*
X126385000Y-77103000D01*
X126515000Y-77103000D01*
X126515000Y-77780072D01*
X126577000Y-78091766D01*
X126577000Y-78616998D01*
X126736123Y-78744666D01*
X126985240Y-78623577D01*
X127153923Y-78736287D01*
X127550000Y-78815072D01*
X127946077Y-78736287D01*
X128114760Y-78623577D01*
X128363877Y-78744666D01*
X128523000Y-78616998D01*
X128523000Y-78091766D01*
X128585000Y-77780072D01*
X128585000Y-77377000D01*
X128777000Y-77377000D01*
X128777000Y-78616998D01*
X128936123Y-78744666D01*
X129292053Y-78571658D01*
X129557615Y-78263410D01*
X129685000Y-77877000D01*
X129685000Y-77377000D01*
X128777000Y-77377000D01*
X128585000Y-77377000D01*
X128585000Y-76719928D01*
X128523000Y-76408234D01*
X128523000Y-76016250D01*
X128603000Y-75936250D01*
X128603000Y-75883002D01*
X128777000Y-75883002D01*
X128777000Y-77123000D01*
X129685000Y-77123000D01*
X129685000Y-76623000D01*
X129557615Y-76236590D01*
X129381895Y-76032625D01*
X129464699Y-75998327D01*
X129643327Y-75819698D01*
X129740000Y-75586309D01*
X129740000Y-75345750D01*
X129581250Y-75187000D01*
X128857000Y-75187000D01*
X128857000Y-75818816D01*
X128777000Y-75883002D01*
X128603000Y-75883002D01*
X128603000Y-75187000D01*
X127878750Y-75187000D01*
X127720000Y-75345750D01*
X127720000Y-75530553D01*
X127697440Y-75507993D01*
X127697440Y-75200000D01*
X127653162Y-74964683D01*
X127514090Y-74748559D01*
X127444289Y-74700866D01*
X127501441Y-74664090D01*
X127646431Y-74451890D01*
X127697440Y-74200000D01*
X127697440Y-73700000D01*
X127653162Y-73464683D01*
X127514090Y-73248559D01*
X127380478Y-73157266D01*
X127325245Y-72879594D01*
X127155079Y-72624921D01*
X126603546Y-72073388D01*
X126559539Y-72005000D01*
X127805025Y-72005000D01*
X127968110Y-72116431D01*
X127995000Y-72121876D01*
X127995000Y-72637069D01*
X127903559Y-72695910D01*
X127758569Y-72908110D01*
X127707560Y-73160000D01*
X127707560Y-73960000D01*
X127751838Y-74195317D01*
X127818329Y-74298646D01*
X127816673Y-74300302D01*
X127720000Y-74533691D01*
X127720000Y-74774250D01*
X127878750Y-74933000D01*
X128603000Y-74933000D01*
X128603000Y-74913000D01*
X128857000Y-74913000D01*
X128857000Y-74933000D01*
X129581250Y-74933000D01*
X129740000Y-74774250D01*
X129740000Y-74533691D01*
X129643327Y-74300302D01*
X129641957Y-74298932D01*
X129701431Y-74211890D01*
X129752440Y-73960000D01*
X129752440Y-73160000D01*
X129708162Y-72924683D01*
X129569090Y-72708559D01*
X129465000Y-72637437D01*
X129465000Y-72052583D01*
X129571441Y-71984090D01*
X129716431Y-71771890D01*
X129767440Y-71520000D01*
X129767440Y-71020000D01*
X129723162Y-70784683D01*
X129584090Y-70568559D01*
X129514289Y-70520866D01*
X129571441Y-70484090D01*
X129716431Y-70271890D01*
X129767440Y-70020000D01*
X129767440Y-69520000D01*
X129723162Y-69284683D01*
X129605000Y-69101054D01*
X129605000Y-68627000D01*
X136373000Y-68627000D01*
X136373000Y-85500000D01*
G36*
X89555000Y-85770000D02*
X89618561Y-86089541D01*
X89774553Y-86323000D01*
X89799566Y-86360434D01*
X91304132Y-87865000D01*
X91272998Y-87865000D01*
X91272998Y-88029370D01*
X91050959Y-87908086D01*
X90544866Y-88147611D01*
X90168959Y-88562577D01*
X90008096Y-88950961D01*
X90130085Y-89173000D01*
X91273000Y-89173000D01*
X91273000Y-89153000D01*
X91527000Y-89153000D01*
X91527000Y-89173000D01*
X91547000Y-89173000D01*
X91547000Y-89427000D01*
X91527000Y-89427000D01*
X91527000Y-90570629D01*
X91749041Y-90691914D01*
X91980898Y-90582180D01*
X92148110Y-90696431D01*
X92400000Y-90747440D01*
X94000000Y-90747440D01*
X94235317Y-90703162D01*
X94288239Y-90669107D01*
X94759566Y-91140434D01*
X95030459Y-91321439D01*
X95350000Y-91385000D01*
X95750331Y-91385000D01*
X95760910Y-91401441D01*
X95973110Y-91546431D01*
X96225000Y-91597440D01*
X96975000Y-91597440D01*
X97210317Y-91553162D01*
X97229118Y-91541064D01*
X97450000Y-91585000D01*
X98444964Y-91585000D01*
X98459161Y-91594486D01*
X98547225Y-91612003D01*
X98553145Y-91641766D01*
X98570949Y-91731272D01*
X98590829Y-91761024D01*
X98552560Y-91950000D01*
X98552560Y-92031517D01*
X98401890Y-91928569D01*
X98150000Y-91877560D01*
X97350000Y-91877560D01*
X97114683Y-91921838D01*
X97011354Y-91988329D01*
X97009698Y-91986673D01*
X96776309Y-91890000D01*
X96535750Y-91890000D01*
X96377000Y-92048750D01*
X96377000Y-92773000D01*
X96397000Y-92773000D01*
X96397000Y-93027000D01*
X96377000Y-93027000D01*
X96377000Y-93047000D01*
X96123000Y-93047000D01*
X96123000Y-93027000D01*
X95373750Y-93027000D01*
X95215000Y-93185750D01*
X95215000Y-93401310D01*
X95311673Y-93634699D01*
X95490302Y-93813327D01*
X95494341Y-93815000D01*
X90974447Y-93815000D01*
X89558137Y-92398690D01*
X95215000Y-92398690D01*
X95215000Y-92614250D01*
X95373750Y-92773000D01*
X96123000Y-92773000D01*
X96123000Y-92048750D01*
X95964250Y-91890000D01*
X95723691Y-91890000D01*
X95490302Y-91986673D01*
X95311673Y-92165301D01*
X95215000Y-92398690D01*
X89558137Y-92398690D01*
X88389723Y-91230277D01*
X88359589Y-91210142D01*
X88135000Y-90985554D01*
X88135000Y-89649039D01*
X90008096Y-89649039D01*
X90168959Y-90037423D01*
X90544866Y-90452389D01*
X91050959Y-90691914D01*
X91273000Y-90570629D01*
X91273000Y-89427000D01*
X90130085Y-89427000D01*
X90008096Y-89649039D01*
X88135000Y-89649039D01*
X88135000Y-77082110D01*
X88201220Y-77095520D01*
X88998780Y-77095520D01*
X89234097Y-77051242D01*
X89450221Y-76912170D01*
X89555000Y-76758821D01*
X89555000Y-85770000D01*
X89555000Y-85770000D01*
G37*
X89555000Y-85770000D02*
X89618561Y-86089541D01*
X89774553Y-86323000D01*
X89799566Y-86360434D01*
X91304132Y-87865000D01*
X91272998Y-87865000D01*
X91272998Y-88029370D01*
X91050959Y-87908086D01*
X90544866Y-88147611D01*
X90168959Y-88562577D01*
X90008096Y-88950961D01*
X90130085Y-89173000D01*
X91273000Y-89173000D01*
X91273000Y-89153000D01*
X91527000Y-89153000D01*
X91527000Y-89173000D01*
X91547000Y-89173000D01*
X91547000Y-89427000D01*
X91527000Y-89427000D01*
X91527000Y-90570629D01*
X91749041Y-90691914D01*
X91980898Y-90582180D01*
X92148110Y-90696431D01*
X92400000Y-90747440D01*
X94000000Y-90747440D01*
X94235317Y-90703162D01*
X94288239Y-90669107D01*
X94759566Y-91140434D01*
X95030459Y-91321439D01*
X95350000Y-91385000D01*
X95750331Y-91385000D01*
X95760910Y-91401441D01*
X95973110Y-91546431D01*
X96225000Y-91597440D01*
X96975000Y-91597440D01*
X97210317Y-91553162D01*
X97229118Y-91541064D01*
X97450000Y-91585000D01*
X98444964Y-91585000D01*
X98459161Y-91594486D01*
X98547225Y-91612003D01*
X98553145Y-91641766D01*
X98570949Y-91731272D01*
X98590829Y-91761024D01*
X98552560Y-91950000D01*
X98552560Y-92031517D01*
X98401890Y-91928569D01*
X98150000Y-91877560D01*
X97350000Y-91877560D01*
X97114683Y-91921838D01*
X97011354Y-91988329D01*
X97009698Y-91986673D01*
X96776309Y-91890000D01*
X96535750Y-91890000D01*
X96377000Y-92048750D01*
X96377000Y-92773000D01*
X96397000Y-92773000D01*
X96397000Y-93027000D01*
X96377000Y-93027000D01*
X96377000Y-93047000D01*
X96123000Y-93047000D01*
X96123000Y-93027000D01*
X95373750Y-93027000D01*
X95215000Y-93185750D01*
X95215000Y-93401310D01*
X95311673Y-93634699D01*
X95490302Y-93813327D01*
X95494341Y-93815000D01*
X90974447Y-93815000D01*
X89558137Y-92398690D01*
X95215000Y-92398690D01*
X95215000Y-92614250D01*
X95373750Y-92773000D01*
X96123000Y-92773000D01*
X96123000Y-92048750D01*
X95964250Y-91890000D01*
X95723691Y-91890000D01*
X95490302Y-91986673D01*
X95311673Y-92165301D01*
X95215000Y-92398690D01*
X89558137Y-92398690D01*
X88389723Y-91230277D01*
X88359589Y-91210142D01*
X88135000Y-90985554D01*
X88135000Y-89649039D01*
X90008096Y-89649039D01*
X90168959Y-90037423D01*
X90544866Y-90452389D01*
X91050959Y-90691914D01*
X91273000Y-90570629D01*
X91273000Y-89427000D01*
X90130085Y-89427000D01*
X90008096Y-89649039D01*
X88135000Y-89649039D01*
X88135000Y-77082110D01*
X88201220Y-77095520D01*
X88998780Y-77095520D01*
X89234097Y-77051242D01*
X89450221Y-76912170D01*
X89555000Y-76758821D01*
X89555000Y-85770000D01*
G36*
X125827000Y-91323000D02*
X125847000Y-91323000D01*
X125847000Y-91577000D01*
X125827000Y-91577000D01*
X125827000Y-91597000D01*
X125573000Y-91597000D01*
X125573000Y-91577000D01*
X125553000Y-91577000D01*
X125553000Y-91323000D01*
X125573000Y-91323000D01*
X125573000Y-91303000D01*
X125827000Y-91303000D01*
X125827000Y-91323000D01*
X125827000Y-91323000D01*
G37*
X125827000Y-91323000D02*
X125847000Y-91323000D01*
X125847000Y-91577000D01*
X125827000Y-91577000D01*
X125827000Y-91597000D01*
X125573000Y-91597000D01*
X125573000Y-91577000D01*
X125553000Y-91577000D01*
X125553000Y-91323000D01*
X125573000Y-91323000D01*
X125573000Y-91303000D01*
X125827000Y-91303000D01*
X125827000Y-91323000D01*
G36*
X122465000Y-90033569D02*
X122452560Y-90095000D01*
X122452560Y-90605000D01*
X122483509Y-90769479D01*
X122364683Y-90791838D01*
X122148559Y-90930910D01*
X122091103Y-91015000D01*
X121764975Y-91015000D01*
X121745994Y-91002031D01*
X121888327Y-90859698D01*
X121985000Y-90626309D01*
X121985000Y-90533750D01*
X121826250Y-90375000D01*
X121027000Y-90375000D01*
X121027000Y-90397000D01*
X120773000Y-90397000D01*
X120773000Y-90375000D01*
X120753000Y-90375000D01*
X120753000Y-90125000D01*
X120773000Y-90125000D01*
X120773000Y-90103000D01*
X121027000Y-90103000D01*
X121027000Y-90125000D01*
X121826250Y-90125000D01*
X121985000Y-89966250D01*
X121985000Y-89873691D01*
X121968927Y-89834886D01*
X122324775Y-89835197D01*
X122465000Y-89777257D01*
X122465000Y-90033569D01*
X122465000Y-90033569D01*
G37*
X122465000Y-90033569D02*
X122452560Y-90095000D01*
X122452560Y-90605000D01*
X122483509Y-90769479D01*
X122364683Y-90791838D01*
X122148559Y-90930910D01*
X122091103Y-91015000D01*
X121764975Y-91015000D01*
X121745994Y-91002031D01*
X121888327Y-90859698D01*
X121985000Y-90626309D01*
X121985000Y-90533750D01*
X121826250Y-90375000D01*
X121027000Y-90375000D01*
X121027000Y-90397000D01*
X120773000Y-90397000D01*
X120773000Y-90375000D01*
X120753000Y-90375000D01*
X120753000Y-90125000D01*
X120773000Y-90125000D01*
X120773000Y-90103000D01*
X121027000Y-90103000D01*
X121027000Y-90125000D01*
X121826250Y-90125000D01*
X121985000Y-89966250D01*
X121985000Y-89873691D01*
X121968927Y-89834886D01*
X122324775Y-89835197D01*
X122465000Y-89777257D01*
X122465000Y-90033569D01*
G36*
X119207947Y-88271658D02*
X119563877Y-88444666D01*
X119565136Y-88443656D01*
X119564803Y-88824775D01*
X119737233Y-89242086D01*
X120023311Y-89528663D01*
X119911673Y-89640302D01*
X119815000Y-89873691D01*
X119815000Y-89966250D01*
X119971748Y-90122998D01*
X119815000Y-90122998D01*
X119815000Y-90175553D01*
X118919723Y-89280277D01*
X118681272Y-89120949D01*
X118400000Y-89065000D01*
X118074446Y-89065000D01*
X119050520Y-88088927D01*
X119207947Y-88271658D01*
X119207947Y-88271658D01*
G37*
X119207947Y-88271658D02*
X119563877Y-88444666D01*
X119565136Y-88443656D01*
X119564803Y-88824775D01*
X119737233Y-89242086D01*
X120023311Y-89528663D01*
X119911673Y-89640302D01*
X119815000Y-89873691D01*
X119815000Y-89966250D01*
X119971748Y-90122998D01*
X119815000Y-90122998D01*
X119815000Y-90175553D01*
X118919723Y-89280277D01*
X118681272Y-89120949D01*
X118400000Y-89065000D01*
X118074446Y-89065000D01*
X119050520Y-88088927D01*
X119207947Y-88271658D01*
G36*
X94009566Y-86290434D02*
X94280460Y-86471440D01*
X94600000Y-86535000D01*
X102384132Y-86535000D01*
X101509566Y-87409566D01*
X101328561Y-87680459D01*
X101274444Y-87952524D01*
X101250000Y-87947662D01*
X101000000Y-87997391D01*
X100863204Y-87970180D01*
X100769723Y-87830276D01*
X100519723Y-87580277D01*
X100281272Y-87420949D01*
X100000000Y-87365000D01*
X99100000Y-87365000D01*
X98818728Y-87420949D01*
X98580277Y-87580276D01*
X98230277Y-87930277D01*
X98173667Y-88015000D01*
X98050000Y-88015000D01*
X97730459Y-88078561D01*
X97485727Y-88242086D01*
X97473369Y-88250343D01*
X97334699Y-88111673D01*
X97101310Y-88015000D01*
X96885750Y-88015000D01*
X96727000Y-88173750D01*
X96727000Y-88923000D01*
X96747000Y-88923000D01*
X96747000Y-89177000D01*
X96727000Y-89177000D01*
X96727000Y-89197000D01*
X96473000Y-89197000D01*
X96473000Y-89177000D01*
X95748750Y-89177000D01*
X95590000Y-89335750D01*
X95590000Y-89576309D01*
X95613209Y-89632341D01*
X94690434Y-88709566D01*
X94647440Y-88680838D01*
X94647440Y-88523691D01*
X95590000Y-88523691D01*
X95590000Y-88764250D01*
X95748750Y-88923000D01*
X96473000Y-88923000D01*
X96473000Y-88173750D01*
X96314250Y-88015000D01*
X96098690Y-88015000D01*
X95865301Y-88111673D01*
X95686673Y-88290302D01*
X95590000Y-88523691D01*
X94647440Y-88523691D01*
X94647440Y-88500000D01*
X94603162Y-88264683D01*
X94464090Y-88048559D01*
X94251890Y-87903569D01*
X94000000Y-87852560D01*
X93653428Y-87852560D01*
X91537981Y-85737113D01*
X91773244Y-85834803D01*
X92224775Y-85835197D01*
X92642086Y-85662767D01*
X92770076Y-85535000D01*
X93254132Y-85535000D01*
X94009566Y-86290434D01*
X94009566Y-86290434D01*
G37*
X94009566Y-86290434D02*
X94280460Y-86471440D01*
X94600000Y-86535000D01*
X102384132Y-86535000D01*
X101509566Y-87409566D01*
X101328561Y-87680459D01*
X101274444Y-87952524D01*
X101250000Y-87947662D01*
X101000000Y-87997391D01*
X100863204Y-87970180D01*
X100769723Y-87830276D01*
X100519723Y-87580277D01*
X100281272Y-87420949D01*
X100000000Y-87365000D01*
X99100000Y-87365000D01*
X98818728Y-87420949D01*
X98580277Y-87580276D01*
X98230277Y-87930277D01*
X98173667Y-88015000D01*
X98050000Y-88015000D01*
X97730459Y-88078561D01*
X97485727Y-88242086D01*
X97473369Y-88250343D01*
X97334699Y-88111673D01*
X97101310Y-88015000D01*
X96885750Y-88015000D01*
X96727000Y-88173750D01*
X96727000Y-88923000D01*
X96747000Y-88923000D01*
X96747000Y-89177000D01*
X96727000Y-89177000D01*
X96727000Y-89197000D01*
X96473000Y-89197000D01*
X96473000Y-89177000D01*
X95748750Y-89177000D01*
X95590000Y-89335750D01*
X95590000Y-89576309D01*
X95613209Y-89632341D01*
X94690434Y-88709566D01*
X94647440Y-88680838D01*
X94647440Y-88523691D01*
X95590000Y-88523691D01*
X95590000Y-88764250D01*
X95748750Y-88923000D01*
X96473000Y-88923000D01*
X96473000Y-88173750D01*
X96314250Y-88015000D01*
X96098690Y-88015000D01*
X95865301Y-88111673D01*
X95686673Y-88290302D01*
X95590000Y-88523691D01*
X94647440Y-88523691D01*
X94647440Y-88500000D01*
X94603162Y-88264683D01*
X94464090Y-88048559D01*
X94251890Y-87903569D01*
X94000000Y-87852560D01*
X93653428Y-87852560D01*
X91537981Y-85737113D01*
X91773244Y-85834803D01*
X92224775Y-85835197D01*
X92642086Y-85662767D01*
X92770076Y-85535000D01*
X93254132Y-85535000D01*
X94009566Y-86290434D01*
G36*
X119915000Y-87097000D02*
X119723000Y-87097000D01*
X119723000Y-87077000D01*
X119703000Y-87077000D01*
X119703000Y-86823000D01*
X119723000Y-86823000D01*
X119723000Y-86803000D01*
X119915000Y-86803000D01*
X119915000Y-87097000D01*
X119915000Y-87097000D01*
G37*
X119915000Y-87097000D02*
X119723000Y-87097000D01*
X119723000Y-87077000D01*
X119703000Y-87077000D01*
X119703000Y-86823000D01*
X119723000Y-86823000D01*
X119723000Y-86803000D01*
X119915000Y-86803000D01*
X119915000Y-87097000D01*
G36*
X112265000Y-72804447D02*
X112265000Y-76615311D01*
X111500726Y-74657642D01*
X111346674Y-74427086D01*
X110560254Y-73719351D01*
X105979605Y-78300000D01*
X110560254Y-82880649D01*
X111346674Y-82172914D01*
X112265000Y-80078357D01*
X112265000Y-83695553D01*
X112195554Y-83765000D01*
X110770015Y-83765000D01*
X110543765Y-83538355D01*
X110126756Y-83365197D01*
X110106233Y-83365179D01*
X110380649Y-83060254D01*
X105800000Y-78479605D01*
X101219351Y-83060254D01*
X101927086Y-83846674D01*
X102425053Y-84065000D01*
X98418923Y-84065000D01*
X98434803Y-84026756D01*
X98435197Y-83575225D01*
X98262767Y-83157914D01*
X97943765Y-82838355D01*
X97526756Y-82665197D01*
X97075225Y-82664803D01*
X96657914Y-82837233D01*
X96338355Y-83156235D01*
X96165197Y-83573244D01*
X96164803Y-84024775D01*
X96337233Y-84442086D01*
X96656235Y-84761645D01*
X96905140Y-84865000D01*
X94945868Y-84865000D01*
X94935000Y-84854132D01*
X94935000Y-84245868D01*
X97390434Y-81790434D01*
X97571440Y-81519540D01*
X97635000Y-81200000D01*
X97635000Y-75435000D01*
X98150000Y-75435000D01*
X98469541Y-75371439D01*
X98740434Y-75190434D01*
X99845868Y-74085000D01*
X100633445Y-74085000D01*
X100253326Y-74427086D01*
X99193442Y-76844514D01*
X99139346Y-79483526D01*
X100099274Y-81942358D01*
X100253326Y-82172914D01*
X101039746Y-82880649D01*
X105620395Y-78300000D01*
X105606253Y-78285858D01*
X105785858Y-78106253D01*
X105800000Y-78120395D01*
X110380649Y-73539746D01*
X110241380Y-73384993D01*
X110474775Y-73385197D01*
X110892086Y-73212767D01*
X111211645Y-72893765D01*
X111384803Y-72476756D01*
X111385197Y-72025225D01*
X111314374Y-71853820D01*
X112265000Y-72804447D01*
X112265000Y-72804447D01*
G37*
X112265000Y-72804447D02*
X112265000Y-76615311D01*
X111500726Y-74657642D01*
X111346674Y-74427086D01*
X110560254Y-73719351D01*
X105979605Y-78300000D01*
X110560254Y-82880649D01*
X111346674Y-82172914D01*
X112265000Y-80078357D01*
X112265000Y-83695553D01*
X112195554Y-83765000D01*
X110770015Y-83765000D01*
X110543765Y-83538355D01*
X110126756Y-83365197D01*
X110106233Y-83365179D01*
X110380649Y-83060254D01*
X105800000Y-78479605D01*
X101219351Y-83060254D01*
X101927086Y-83846674D01*
X102425053Y-84065000D01*
X98418923Y-84065000D01*
X98434803Y-84026756D01*
X98435197Y-83575225D01*
X98262767Y-83157914D01*
X97943765Y-82838355D01*
X97526756Y-82665197D01*
X97075225Y-82664803D01*
X96657914Y-82837233D01*
X96338355Y-83156235D01*
X96165197Y-83573244D01*
X96164803Y-84024775D01*
X96337233Y-84442086D01*
X96656235Y-84761645D01*
X96905140Y-84865000D01*
X94945868Y-84865000D01*
X94935000Y-84854132D01*
X94935000Y-84245868D01*
X97390434Y-81790434D01*
X97571440Y-81519540D01*
X97635000Y-81200000D01*
X97635000Y-75435000D01*
X98150000Y-75435000D01*
X98469541Y-75371439D01*
X98740434Y-75190434D01*
X99845868Y-74085000D01*
X100633445Y-74085000D01*
X100253326Y-74427086D01*
X99193442Y-76844514D01*
X99139346Y-79483526D01*
X100099274Y-81942358D01*
X100253326Y-82172914D01*
X101039746Y-82880649D01*
X105620395Y-78300000D01*
X105606253Y-78285858D01*
X105785858Y-78106253D01*
X105800000Y-78120395D01*
X110380649Y-73539746D01*
X110241380Y-73384993D01*
X110474775Y-73385197D01*
X110892086Y-73212767D01*
X111211645Y-72893765D01*
X111384803Y-72476756D01*
X111385197Y-72025225D01*
X111314374Y-71853820D01*
X112265000Y-72804447D01*
G36*
X92452560Y-80840000D02*
X92496838Y-81075317D01*
X92635910Y-81291441D01*
X92848110Y-81436431D01*
X93100000Y-81487440D01*
X95331692Y-81487440D01*
X93509566Y-83309566D01*
X93328561Y-83580459D01*
X93271962Y-83865000D01*
X92770189Y-83865000D01*
X92643765Y-83738355D01*
X92226756Y-83565197D01*
X91775225Y-83564803D01*
X91357914Y-83737233D01*
X91225000Y-83869915D01*
X91225000Y-77005868D01*
X91283428Y-76947440D01*
X91450000Y-76947440D01*
X91685317Y-76903162D01*
X91713542Y-76885000D01*
X92050000Y-76885000D01*
X92369541Y-76821439D01*
X92452560Y-76765967D01*
X92452560Y-80840000D01*
X92452560Y-80840000D01*
G37*
X92452560Y-80840000D02*
X92496838Y-81075317D01*
X92635910Y-81291441D01*
X92848110Y-81436431D01*
X93100000Y-81487440D01*
X95331692Y-81487440D01*
X93509566Y-83309566D01*
X93328561Y-83580459D01*
X93271962Y-83865000D01*
X92770189Y-83865000D01*
X92643765Y-83738355D01*
X92226756Y-83565197D01*
X91775225Y-83564803D01*
X91357914Y-83737233D01*
X91225000Y-83869915D01*
X91225000Y-77005868D01*
X91283428Y-76947440D01*
X91450000Y-76947440D01*
X91685317Y-76903162D01*
X91713542Y-76885000D01*
X92050000Y-76885000D01*
X92369541Y-76821439D01*
X92452560Y-76765967D01*
X92452560Y-80840000D01*
G36*
X116873000Y-68500000D02*
X116881685Y-68546159D01*
X116908965Y-68588553D01*
X116950590Y-68616994D01*
X117000000Y-68627000D01*
X117849974Y-68627000D01*
X117686673Y-68790302D01*
X117590000Y-69023691D01*
X117590000Y-69264250D01*
X117748750Y-69423000D01*
X118473000Y-69423000D01*
X118473000Y-69403000D01*
X118727000Y-69403000D01*
X118727000Y-69423000D01*
X119451250Y-69423000D01*
X119550000Y-69324250D01*
X119648750Y-69423000D01*
X120373000Y-69423000D01*
X120373000Y-69403000D01*
X120627000Y-69403000D01*
X120627000Y-69423000D01*
X121351250Y-69423000D01*
X121510000Y-69264250D01*
X121510000Y-69023691D01*
X121413327Y-68790302D01*
X121250026Y-68627000D01*
X127735000Y-68627000D01*
X127735000Y-69035000D01*
X127234480Y-69035000D01*
X127151890Y-68978569D01*
X126900000Y-68927560D01*
X126100000Y-68927560D01*
X125864683Y-68971838D01*
X125761354Y-69038329D01*
X125759698Y-69036673D01*
X125526309Y-68940000D01*
X125285750Y-68940000D01*
X125127000Y-69098750D01*
X125127000Y-69823000D01*
X125147000Y-69823000D01*
X125147000Y-70077000D01*
X125127000Y-70077000D01*
X125127000Y-70097000D01*
X124873000Y-70097000D01*
X124873000Y-70077000D01*
X124123750Y-70077000D01*
X123965000Y-70235750D01*
X123965000Y-70451310D01*
X124061673Y-70684699D01*
X124240302Y-70863327D01*
X124473691Y-70960000D01*
X124714250Y-70960000D01*
X124872998Y-70801252D01*
X124872998Y-70960000D01*
X124967099Y-70960000D01*
X124820949Y-71178728D01*
X124814821Y-71209535D01*
X124743765Y-71138355D01*
X124326756Y-70965197D01*
X123875225Y-70964803D01*
X123457914Y-71137233D01*
X123138355Y-71456235D01*
X122965197Y-71873244D01*
X122964803Y-72324775D01*
X123137233Y-72742086D01*
X123456235Y-73061645D01*
X123873244Y-73234803D01*
X123894506Y-73234822D01*
X123811354Y-73288329D01*
X123809698Y-73286673D01*
X123576309Y-73190000D01*
X123335750Y-73190000D01*
X123177000Y-73348750D01*
X123177000Y-74073000D01*
X123197000Y-74073000D01*
X123197000Y-74327000D01*
X123177000Y-74327000D01*
X123177000Y-75051250D01*
X123335750Y-75210000D01*
X123576309Y-75210000D01*
X123809698Y-75113327D01*
X123811068Y-75111957D01*
X123815000Y-75114644D01*
X123815000Y-75145554D01*
X123730277Y-75230277D01*
X123570949Y-75468728D01*
X123515000Y-75750000D01*
X123515000Y-75757531D01*
X123150000Y-75684928D01*
X122753923Y-75763713D01*
X122600000Y-75866560D01*
X122446077Y-75763713D01*
X122050000Y-75684928D01*
X121653923Y-75763713D01*
X121500000Y-75866560D01*
X121346077Y-75763713D01*
X121287404Y-75752042D01*
X121919723Y-75119724D01*
X122079051Y-74881272D01*
X122082455Y-74864160D01*
X122111673Y-74934699D01*
X122290302Y-75113327D01*
X122523691Y-75210000D01*
X122764250Y-75210000D01*
X122923000Y-75051250D01*
X122923000Y-74327000D01*
X122903000Y-74327000D01*
X122903000Y-74073000D01*
X122923000Y-74073000D01*
X122923000Y-73348750D01*
X122764250Y-73190000D01*
X122523691Y-73190000D01*
X122290302Y-73286673D01*
X122135000Y-73441974D01*
X122135000Y-71950000D01*
X122079051Y-71668728D01*
X122039520Y-71609566D01*
X121919723Y-71430276D01*
X121522440Y-71032993D01*
X121522440Y-70650000D01*
X121478162Y-70414683D01*
X121411671Y-70311354D01*
X121413327Y-70309698D01*
X121510000Y-70076309D01*
X121510000Y-69835750D01*
X121351250Y-69677000D01*
X120627000Y-69677000D01*
X120627000Y-69697000D01*
X120373000Y-69697000D01*
X120373000Y-69677000D01*
X119648750Y-69677000D01*
X119550000Y-69775750D01*
X119451250Y-69677000D01*
X118727000Y-69677000D01*
X118727000Y-69697000D01*
X118473000Y-69697000D01*
X118473000Y-69677000D01*
X117748750Y-69677000D01*
X117590000Y-69835750D01*
X117590000Y-70076309D01*
X117686673Y-70309698D01*
X117688043Y-70311068D01*
X117628569Y-70398110D01*
X117596402Y-70556955D01*
X116488137Y-69448690D01*
X123965000Y-69448690D01*
X123965000Y-69664250D01*
X124123750Y-69823000D01*
X124873000Y-69823000D01*
X124873000Y-69098750D01*
X124714250Y-68940000D01*
X124473691Y-68940000D01*
X124240302Y-69036673D01*
X124061673Y-69215301D01*
X123965000Y-69448690D01*
X116488137Y-69448690D01*
X116219723Y-69180277D01*
X115981272Y-69020949D01*
X115700000Y-68965000D01*
X100100000Y-68965000D01*
X99865394Y-69011667D01*
X99818727Y-69020949D01*
X99580276Y-69180277D01*
X99395558Y-69364995D01*
X99175225Y-69364803D01*
X98757914Y-69537233D01*
X98438355Y-69856235D01*
X98425834Y-69886388D01*
X97719723Y-69180277D01*
X97481272Y-69020949D01*
X97200000Y-68965000D01*
X96170015Y-68965000D01*
X95943765Y-68738355D01*
X95918276Y-68727771D01*
X95819724Y-68580277D01*
X95552348Y-68312902D01*
X95722086Y-68242767D01*
X96041645Y-67923765D01*
X96214803Y-67506756D01*
X96215197Y-67055225D01*
X96165521Y-66935000D01*
X102329985Y-66935000D01*
X102556235Y-67161645D01*
X102973244Y-67334803D01*
X103424775Y-67335197D01*
X103842086Y-67162767D01*
X104161645Y-66843765D01*
X104334803Y-66426756D01*
X104335197Y-65975225D01*
X104162767Y-65557914D01*
X103843765Y-65238355D01*
X103426756Y-65065197D01*
X102975225Y-65064803D01*
X102557914Y-65237233D01*
X102530099Y-65265000D01*
X98976177Y-65265000D01*
X98997440Y-65160000D01*
X98997440Y-64852006D01*
X99303944Y-64545502D01*
X99336838Y-64720317D01*
X99475910Y-64936441D01*
X99688110Y-65081431D01*
X99940000Y-65132440D01*
X100740000Y-65132440D01*
X100975317Y-65088162D01*
X101078646Y-65021671D01*
X101080302Y-65023327D01*
X101313691Y-65120000D01*
X101554250Y-65120000D01*
X101713000Y-64961250D01*
X101713000Y-64237000D01*
X101967000Y-64237000D01*
X101967000Y-64961250D01*
X102125750Y-65120000D01*
X102366309Y-65120000D01*
X102599698Y-65023327D01*
X102778327Y-64844699D01*
X102875000Y-64611310D01*
X102875000Y-64395750D01*
X102716250Y-64237000D01*
X101967000Y-64237000D01*
X101713000Y-64237000D01*
X101693000Y-64237000D01*
X101693000Y-63983000D01*
X101713000Y-63983000D01*
X101713000Y-63450125D01*
X101779051Y-63351272D01*
X101787205Y-63310277D01*
X101835000Y-63070000D01*
X101835000Y-62412440D01*
X102067000Y-62412440D01*
X102067000Y-63041250D01*
X102125750Y-63100000D01*
X101967000Y-63258750D01*
X101967000Y-63983000D01*
X102716250Y-63983000D01*
X102875000Y-63824250D01*
X102875000Y-63608690D01*
X102778327Y-63375301D01*
X102599698Y-63196673D01*
X102512020Y-63160355D01*
X102649698Y-63103327D01*
X102751344Y-63001682D01*
X102786838Y-63190317D01*
X102925910Y-63406441D01*
X103138110Y-63551431D01*
X103390000Y-63602440D01*
X104190000Y-63602440D01*
X104425317Y-63558162D01*
X104528646Y-63491671D01*
X104530302Y-63493327D01*
X104763691Y-63590000D01*
X105004250Y-63590000D01*
X105163000Y-63431250D01*
X105163000Y-62707000D01*
X105143000Y-62707000D01*
X105143000Y-62453000D01*
X105163000Y-62453000D01*
X105163000Y-62433000D01*
X105417000Y-62433000D01*
X105417000Y-62453000D01*
X105437000Y-62453000D01*
X105437000Y-62707000D01*
X105417000Y-62707000D01*
X105417000Y-63431250D01*
X105575750Y-63590000D01*
X105816309Y-63590000D01*
X106049698Y-63493327D01*
X106173105Y-63369920D01*
X106215910Y-63436441D01*
X106428110Y-63581431D01*
X106680000Y-63632440D01*
X107480000Y-63632440D01*
X107715317Y-63588162D01*
X107818646Y-63521671D01*
X107820302Y-63523327D01*
X108053691Y-63620000D01*
X108294250Y-63620000D01*
X108453000Y-63461250D01*
X108453000Y-62737000D01*
X108707000Y-62737000D01*
X108707000Y-63461250D01*
X108865750Y-63620000D01*
X109106309Y-63620000D01*
X109339698Y-63523327D01*
X109518327Y-63344699D01*
X109615000Y-63111310D01*
X109615000Y-62895750D01*
X109456250Y-62737000D01*
X108707000Y-62737000D01*
X108453000Y-62737000D01*
X108433000Y-62737000D01*
X108433000Y-62483000D01*
X108453000Y-62483000D01*
X108453000Y-61758750D01*
X108707000Y-61758750D01*
X108707000Y-62483000D01*
X109456250Y-62483000D01*
X109615000Y-62324250D01*
X109615000Y-62108690D01*
X109518327Y-61875301D01*
X109339698Y-61696673D01*
X109106309Y-61600000D01*
X108865750Y-61600000D01*
X108707000Y-61758750D01*
X108453000Y-61758750D01*
X108294250Y-61600000D01*
X108053691Y-61600000D01*
X107820302Y-61696673D01*
X107818932Y-61698043D01*
X107815000Y-61695356D01*
X107815000Y-60899963D01*
X108071645Y-60643765D01*
X108244803Y-60226756D01*
X108245197Y-59775225D01*
X108072767Y-59357914D01*
X107925111Y-59210000D01*
X116873000Y-59210000D01*
X116873000Y-68500000D01*
X116873000Y-68500000D01*
G37*
X116873000Y-68500000D02*
X116881685Y-68546159D01*
X116908965Y-68588553D01*
X116950590Y-68616994D01*
X117000000Y-68627000D01*
X117849974Y-68627000D01*
X117686673Y-68790302D01*
X117590000Y-69023691D01*
X117590000Y-69264250D01*
X117748750Y-69423000D01*
X118473000Y-69423000D01*
X118473000Y-69403000D01*
X118727000Y-69403000D01*
X118727000Y-69423000D01*
X119451250Y-69423000D01*
X119550000Y-69324250D01*
X119648750Y-69423000D01*
X120373000Y-69423000D01*
X120373000Y-69403000D01*
X120627000Y-69403000D01*
X120627000Y-69423000D01*
X121351250Y-69423000D01*
X121510000Y-69264250D01*
X121510000Y-69023691D01*
X121413327Y-68790302D01*
X121250026Y-68627000D01*
X127735000Y-68627000D01*
X127735000Y-69035000D01*
X127234480Y-69035000D01*
X127151890Y-68978569D01*
X126900000Y-68927560D01*
X126100000Y-68927560D01*
X125864683Y-68971838D01*
X125761354Y-69038329D01*
X125759698Y-69036673D01*
X125526309Y-68940000D01*
X125285750Y-68940000D01*
X125127000Y-69098750D01*
X125127000Y-69823000D01*
X125147000Y-69823000D01*
X125147000Y-70077000D01*
X125127000Y-70077000D01*
X125127000Y-70097000D01*
X124873000Y-70097000D01*
X124873000Y-70077000D01*
X124123750Y-70077000D01*
X123965000Y-70235750D01*
X123965000Y-70451310D01*
X124061673Y-70684699D01*
X124240302Y-70863327D01*
X124473691Y-70960000D01*
X124714250Y-70960000D01*
X124872998Y-70801252D01*
X124872998Y-70960000D01*
X124967099Y-70960000D01*
X124820949Y-71178728D01*
X124814821Y-71209535D01*
X124743765Y-71138355D01*
X124326756Y-70965197D01*
X123875225Y-70964803D01*
X123457914Y-71137233D01*
X123138355Y-71456235D01*
X122965197Y-71873244D01*
X122964803Y-72324775D01*
X123137233Y-72742086D01*
X123456235Y-73061645D01*
X123873244Y-73234803D01*
X123894506Y-73234822D01*
X123811354Y-73288329D01*
X123809698Y-73286673D01*
X123576309Y-73190000D01*
X123335750Y-73190000D01*
X123177000Y-73348750D01*
X123177000Y-74073000D01*
X123197000Y-74073000D01*
X123197000Y-74327000D01*
X123177000Y-74327000D01*
X123177000Y-75051250D01*
X123335750Y-75210000D01*
X123576309Y-75210000D01*
X123809698Y-75113327D01*
X123811068Y-75111957D01*
X123815000Y-75114644D01*
X123815000Y-75145554D01*
X123730277Y-75230277D01*
X123570949Y-75468728D01*
X123515000Y-75750000D01*
X123515000Y-75757531D01*
X123150000Y-75684928D01*
X122753923Y-75763713D01*
X122600000Y-75866560D01*
X122446077Y-75763713D01*
X122050000Y-75684928D01*
X121653923Y-75763713D01*
X121500000Y-75866560D01*
X121346077Y-75763713D01*
X121287404Y-75752042D01*
X121919723Y-75119724D01*
X122079051Y-74881272D01*
X122082455Y-74864160D01*
X122111673Y-74934699D01*
X122290302Y-75113327D01*
X122523691Y-75210000D01*
X122764250Y-75210000D01*
X122923000Y-75051250D01*
X122923000Y-74327000D01*
X122903000Y-74327000D01*
X122903000Y-74073000D01*
X122923000Y-74073000D01*
X122923000Y-73348750D01*
X122764250Y-73190000D01*
X122523691Y-73190000D01*
X122290302Y-73286673D01*
X122135000Y-73441974D01*
X122135000Y-71950000D01*
X122079051Y-71668728D01*
X122039520Y-71609566D01*
X121919723Y-71430276D01*
X121522440Y-71032993D01*
X121522440Y-70650000D01*
X121478162Y-70414683D01*
X121411671Y-70311354D01*
X121413327Y-70309698D01*
X121510000Y-70076309D01*
X121510000Y-69835750D01*
X121351250Y-69677000D01*
X120627000Y-69677000D01*
X120627000Y-69697000D01*
X120373000Y-69697000D01*
X120373000Y-69677000D01*
X119648750Y-69677000D01*
X119550000Y-69775750D01*
X119451250Y-69677000D01*
X118727000Y-69677000D01*
X118727000Y-69697000D01*
X118473000Y-69697000D01*
X118473000Y-69677000D01*
X117748750Y-69677000D01*
X117590000Y-69835750D01*
X117590000Y-70076309D01*
X117686673Y-70309698D01*
X117688043Y-70311068D01*
X117628569Y-70398110D01*
X117596402Y-70556955D01*
X116488137Y-69448690D01*
X123965000Y-69448690D01*
X123965000Y-69664250D01*
X124123750Y-69823000D01*
X124873000Y-69823000D01*
X124873000Y-69098750D01*
X124714250Y-68940000D01*
X124473691Y-68940000D01*
X124240302Y-69036673D01*
X124061673Y-69215301D01*
X123965000Y-69448690D01*
X116488137Y-69448690D01*
X116219723Y-69180277D01*
X115981272Y-69020949D01*
X115700000Y-68965000D01*
X100100000Y-68965000D01*
X99865394Y-69011667D01*
X99818727Y-69020949D01*
X99580276Y-69180277D01*
X99395558Y-69364995D01*
X99175225Y-69364803D01*
X98757914Y-69537233D01*
X98438355Y-69856235D01*
X98425834Y-69886388D01*
X97719723Y-69180277D01*
X97481272Y-69020949D01*
X97200000Y-68965000D01*
X96170015Y-68965000D01*
X95943765Y-68738355D01*
X95918276Y-68727771D01*
X95819724Y-68580277D01*
X95552348Y-68312902D01*
X95722086Y-68242767D01*
X96041645Y-67923765D01*
X96214803Y-67506756D01*
X96215197Y-67055225D01*
X96165521Y-66935000D01*
X102329985Y-66935000D01*
X102556235Y-67161645D01*
X102973244Y-67334803D01*
X103424775Y-67335197D01*
X103842086Y-67162767D01*
X104161645Y-66843765D01*
X104334803Y-66426756D01*
X104335197Y-65975225D01*
X104162767Y-65557914D01*
X103843765Y-65238355D01*
X103426756Y-65065197D01*
X102975225Y-65064803D01*
X102557914Y-65237233D01*
X102530099Y-65265000D01*
X98976177Y-65265000D01*
X98997440Y-65160000D01*
X98997440Y-64852006D01*
X99303944Y-64545502D01*
X99336838Y-64720317D01*
X99475910Y-64936441D01*
X99688110Y-65081431D01*
X99940000Y-65132440D01*
X100740000Y-65132440D01*
X100975317Y-65088162D01*
X101078646Y-65021671D01*
X101080302Y-65023327D01*
X101313691Y-65120000D01*
X101554250Y-65120000D01*
X101713000Y-64961250D01*
X101713000Y-64237000D01*
X101967000Y-64237000D01*
X101967000Y-64961250D01*
X102125750Y-65120000D01*
X102366309Y-65120000D01*
X102599698Y-65023327D01*
X102778327Y-64844699D01*
X102875000Y-64611310D01*
X102875000Y-64395750D01*
X102716250Y-64237000D01*
X101967000Y-64237000D01*
X101713000Y-64237000D01*
X101693000Y-64237000D01*
X101693000Y-63983000D01*
X101713000Y-63983000D01*
X101713000Y-63450125D01*
X101779051Y-63351272D01*
X101787205Y-63310277D01*
X101835000Y-63070000D01*
X101835000Y-62412440D01*
X102067000Y-62412440D01*
X102067000Y-63041250D01*
X102125750Y-63100000D01*
X101967000Y-63258750D01*
X101967000Y-63983000D01*
X102716250Y-63983000D01*
X102875000Y-63824250D01*
X102875000Y-63608690D01*
X102778327Y-63375301D01*
X102599698Y-63196673D01*
X102512020Y-63160355D01*
X102649698Y-63103327D01*
X102751344Y-63001682D01*
X102786838Y-63190317D01*
X102925910Y-63406441D01*
X103138110Y-63551431D01*
X103390000Y-63602440D01*
X104190000Y-63602440D01*
X104425317Y-63558162D01*
X104528646Y-63491671D01*
X104530302Y-63493327D01*
X104763691Y-63590000D01*
X105004250Y-63590000D01*
X105163000Y-63431250D01*
X105163000Y-62707000D01*
X105143000Y-62707000D01*
X105143000Y-62453000D01*
X105163000Y-62453000D01*
X105163000Y-62433000D01*
X105417000Y-62433000D01*
X105417000Y-62453000D01*
X105437000Y-62453000D01*
X105437000Y-62707000D01*
X105417000Y-62707000D01*
X105417000Y-63431250D01*
X105575750Y-63590000D01*
X105816309Y-63590000D01*
X106049698Y-63493327D01*
X106173105Y-63369920D01*
X106215910Y-63436441D01*
X106428110Y-63581431D01*
X106680000Y-63632440D01*
X107480000Y-63632440D01*
X107715317Y-63588162D01*
X107818646Y-63521671D01*
X107820302Y-63523327D01*
X108053691Y-63620000D01*
X108294250Y-63620000D01*
X108453000Y-63461250D01*
X108453000Y-62737000D01*
X108707000Y-62737000D01*
X108707000Y-63461250D01*
X108865750Y-63620000D01*
X109106309Y-63620000D01*
X109339698Y-63523327D01*
X109518327Y-63344699D01*
X109615000Y-63111310D01*
X109615000Y-62895750D01*
X109456250Y-62737000D01*
X108707000Y-62737000D01*
X108453000Y-62737000D01*
X108433000Y-62737000D01*
X108433000Y-62483000D01*
X108453000Y-62483000D01*
X108453000Y-61758750D01*
X108707000Y-61758750D01*
X108707000Y-62483000D01*
X109456250Y-62483000D01*
X109615000Y-62324250D01*
X109615000Y-62108690D01*
X109518327Y-61875301D01*
X109339698Y-61696673D01*
X109106309Y-61600000D01*
X108865750Y-61600000D01*
X108707000Y-61758750D01*
X108453000Y-61758750D01*
X108294250Y-61600000D01*
X108053691Y-61600000D01*
X107820302Y-61696673D01*
X107818932Y-61698043D01*
X107815000Y-61695356D01*
X107815000Y-60899963D01*
X108071645Y-60643765D01*
X108244803Y-60226756D01*
X108245197Y-59775225D01*
X108072767Y-59357914D01*
X107925111Y-59210000D01*
X116873000Y-59210000D01*
X116873000Y-68500000D01*
G36*
X90055711Y-71499134D02*
X89998559Y-71535910D01*
X89853569Y-71748110D01*
X89802560Y-72000000D01*
X89802560Y-72500000D01*
X89846838Y-72735317D01*
X89985910Y-72951441D01*
X90198110Y-73096431D01*
X90450000Y-73147440D01*
X91350000Y-73147440D01*
X91585317Y-73103162D01*
X91653945Y-73059001D01*
X91856235Y-73261645D01*
X92273244Y-73434803D01*
X92724775Y-73435197D01*
X93142086Y-73262767D01*
X93265000Y-73140067D01*
X93265000Y-73654132D01*
X92091932Y-74827200D01*
X92097440Y-74800000D01*
X92097440Y-74300000D01*
X92053162Y-74064683D01*
X91914090Y-73848559D01*
X91701890Y-73703569D01*
X91450000Y-73652560D01*
X90550000Y-73652560D01*
X90314683Y-73696838D01*
X90098559Y-73835910D01*
X89995558Y-73986657D01*
X89930276Y-74030277D01*
X89536855Y-74423698D01*
X89475032Y-74423698D01*
X89633780Y-74264950D01*
X89633780Y-74025611D01*
X89537107Y-73792222D01*
X89358479Y-73613593D01*
X89125090Y-73516920D01*
X88885750Y-73516920D01*
X88727000Y-73675670D01*
X88727000Y-74423700D01*
X88747000Y-74423700D01*
X88747000Y-74677700D01*
X88727000Y-74677700D01*
X88727000Y-74697700D01*
X88473000Y-74697700D01*
X88473000Y-74677700D01*
X88453000Y-74677700D01*
X88453000Y-74423700D01*
X88473000Y-74423700D01*
X88473000Y-73675670D01*
X88314250Y-73516920D01*
X88135000Y-73516920D01*
X88135000Y-73183080D01*
X88314250Y-73183080D01*
X88473000Y-73024330D01*
X88473000Y-72276300D01*
X88727000Y-72276300D01*
X88727000Y-73024330D01*
X88885750Y-73183080D01*
X89125090Y-73183080D01*
X89358479Y-73086407D01*
X89537107Y-72907778D01*
X89633780Y-72674389D01*
X89633780Y-72435050D01*
X89475030Y-72276300D01*
X88727000Y-72276300D01*
X88473000Y-72276300D01*
X88453000Y-72276300D01*
X88453000Y-72022300D01*
X88473000Y-72022300D01*
X88473000Y-72002300D01*
X88727000Y-72002300D01*
X88727000Y-72022300D01*
X89475030Y-72022300D01*
X89633780Y-71863550D01*
X89633780Y-71624211D01*
X89576117Y-71485000D01*
X90035025Y-71485000D01*
X90055711Y-71499134D01*
X90055711Y-71499134D01*
G37*
X90055711Y-71499134D02*
X89998559Y-71535910D01*
X89853569Y-71748110D01*
X89802560Y-72000000D01*
X89802560Y-72500000D01*
X89846838Y-72735317D01*
X89985910Y-72951441D01*
X90198110Y-73096431D01*
X90450000Y-73147440D01*
X91350000Y-73147440D01*
X91585317Y-73103162D01*
X91653945Y-73059001D01*
X91856235Y-73261645D01*
X92273244Y-73434803D01*
X92724775Y-73435197D01*
X93142086Y-73262767D01*
X93265000Y-73140067D01*
X93265000Y-73654132D01*
X92091932Y-74827200D01*
X92097440Y-74800000D01*
X92097440Y-74300000D01*
X92053162Y-74064683D01*
X91914090Y-73848559D01*
X91701890Y-73703569D01*
X91450000Y-73652560D01*
X90550000Y-73652560D01*
X90314683Y-73696838D01*
X90098559Y-73835910D01*
X89995558Y-73986657D01*
X89930276Y-74030277D01*
X89536855Y-74423698D01*
X89475032Y-74423698D01*
X89633780Y-74264950D01*
X89633780Y-74025611D01*
X89537107Y-73792222D01*
X89358479Y-73613593D01*
X89125090Y-73516920D01*
X88885750Y-73516920D01*
X88727000Y-73675670D01*
X88727000Y-74423700D01*
X88747000Y-74423700D01*
X88747000Y-74677700D01*
X88727000Y-74677700D01*
X88727000Y-74697700D01*
X88473000Y-74697700D01*
X88473000Y-74677700D01*
X88453000Y-74677700D01*
X88453000Y-74423700D01*
X88473000Y-74423700D01*
X88473000Y-73675670D01*
X88314250Y-73516920D01*
X88135000Y-73516920D01*
X88135000Y-73183080D01*
X88314250Y-73183080D01*
X88473000Y-73024330D01*
X88473000Y-72276300D01*
X88727000Y-72276300D01*
X88727000Y-73024330D01*
X88885750Y-73183080D01*
X89125090Y-73183080D01*
X89358479Y-73086407D01*
X89537107Y-72907778D01*
X89633780Y-72674389D01*
X89633780Y-72435050D01*
X89475030Y-72276300D01*
X88727000Y-72276300D01*
X88473000Y-72276300D01*
X88453000Y-72276300D01*
X88453000Y-72022300D01*
X88473000Y-72022300D01*
X88473000Y-72002300D01*
X88727000Y-72002300D01*
X88727000Y-72022300D01*
X89475030Y-72022300D01*
X89633780Y-71863550D01*
X89633780Y-71624211D01*
X89576117Y-71485000D01*
X90035025Y-71485000D01*
X90055711Y-71499134D01*
G36*
X91140301Y-59261673D02*
X90961673Y-59440302D01*
X90865000Y-59673691D01*
X90865000Y-60514250D01*
X91023750Y-60673000D01*
X92173000Y-60673000D01*
X92173000Y-60653000D01*
X92427000Y-60653000D01*
X92427000Y-60673000D01*
X93576250Y-60673000D01*
X93735000Y-60514250D01*
X93735000Y-59673691D01*
X93638327Y-59440302D01*
X93459699Y-59261673D01*
X93334949Y-59210000D01*
X94224845Y-59210000D01*
X94078355Y-59356235D01*
X93905197Y-59773244D01*
X93904803Y-60224775D01*
X94077233Y-60642086D01*
X94396235Y-60961645D01*
X94813244Y-61134803D01*
X95264775Y-61135197D01*
X95682086Y-60962767D01*
X95700930Y-60943956D01*
X95860302Y-61103327D01*
X95864480Y-61105058D01*
X95773569Y-61238110D01*
X95722560Y-61490000D01*
X95722560Y-62213114D01*
X95579723Y-62070277D01*
X95341272Y-61910949D01*
X95323631Y-61907440D01*
X95060000Y-61855000D01*
X93735000Y-61855000D01*
X93735000Y-61085750D01*
X93576250Y-60927000D01*
X92427000Y-60927000D01*
X92427000Y-60947000D01*
X92173000Y-60947000D01*
X92173000Y-60927000D01*
X91023750Y-60927000D01*
X90865000Y-61085750D01*
X90865000Y-61855000D01*
X90444618Y-61855000D01*
X90412767Y-61777914D01*
X90093765Y-61458355D01*
X89676756Y-61285197D01*
X89225225Y-61284803D01*
X88807914Y-61457233D01*
X88488355Y-61776235D01*
X88315197Y-62193244D01*
X88314803Y-62644775D01*
X88487233Y-63062086D01*
X88806235Y-63381645D01*
X89182619Y-63537934D01*
X87210000Y-65510554D01*
X87210000Y-60934093D01*
X87217697Y-60939236D01*
X87760000Y-61047107D01*
X88302303Y-60939236D01*
X88762046Y-60632046D01*
X89069236Y-60172303D01*
X89177107Y-59630000D01*
X89093564Y-59210000D01*
X91265051Y-59210000D01*
X91140301Y-59261673D01*
X91140301Y-59261673D01*
G37*
X91140301Y-59261673D02*
X90961673Y-59440302D01*
X90865000Y-59673691D01*
X90865000Y-60514250D01*
X91023750Y-60673000D01*
X92173000Y-60673000D01*
X92173000Y-60653000D01*
X92427000Y-60653000D01*
X92427000Y-60673000D01*
X93576250Y-60673000D01*
X93735000Y-60514250D01*
X93735000Y-59673691D01*
X93638327Y-59440302D01*
X93459699Y-59261673D01*
X93334949Y-59210000D01*
X94224845Y-59210000D01*
X94078355Y-59356235D01*
X93905197Y-59773244D01*
X93904803Y-60224775D01*
X94077233Y-60642086D01*
X94396235Y-60961645D01*
X94813244Y-61134803D01*
X95264775Y-61135197D01*
X95682086Y-60962767D01*
X95700930Y-60943956D01*
X95860302Y-61103327D01*
X95864480Y-61105058D01*
X95773569Y-61238110D01*
X95722560Y-61490000D01*
X95722560Y-62213114D01*
X95579723Y-62070277D01*
X95341272Y-61910949D01*
X95323631Y-61907440D01*
X95060000Y-61855000D01*
X93735000Y-61855000D01*
X93735000Y-61085750D01*
X93576250Y-60927000D01*
X92427000Y-60927000D01*
X92427000Y-60947000D01*
X92173000Y-60947000D01*
X92173000Y-60927000D01*
X91023750Y-60927000D01*
X90865000Y-61085750D01*
X90865000Y-61855000D01*
X90444618Y-61855000D01*
X90412767Y-61777914D01*
X90093765Y-61458355D01*
X89676756Y-61285197D01*
X89225225Y-61284803D01*
X88807914Y-61457233D01*
X88488355Y-61776235D01*
X88315197Y-62193244D01*
X88314803Y-62644775D01*
X88487233Y-63062086D01*
X88806235Y-63381645D01*
X89182619Y-63537934D01*
X87210000Y-65510554D01*
X87210000Y-60934093D01*
X87217697Y-60939236D01*
X87760000Y-61047107D01*
X88302303Y-60939236D01*
X88762046Y-60632046D01*
X89069236Y-60172303D01*
X89177107Y-59630000D01*
X89093564Y-59210000D01*
X91265051Y-59210000D01*
X91140301Y-59261673D01*
G36*
X96747000Y-60063000D02*
X96767000Y-60063000D01*
X96767000Y-60317000D01*
X96747000Y-60317000D01*
X96747000Y-60337000D01*
X96493000Y-60337000D01*
X96493000Y-60317000D01*
X96473000Y-60317000D01*
X96473000Y-60063000D01*
X96493000Y-60063000D01*
X96493000Y-60055000D01*
X96747000Y-60055000D01*
X96747000Y-60063000D01*
X96747000Y-60063000D01*
G37*
X96747000Y-60063000D02*
X96767000Y-60063000D01*
X96767000Y-60317000D01*
X96747000Y-60317000D01*
X96747000Y-60337000D01*
X96493000Y-60337000D01*
X96493000Y-60317000D01*
X96473000Y-60317000D01*
X96473000Y-60063000D01*
X96493000Y-60063000D01*
X96493000Y-60055000D01*
X96747000Y-60055000D01*
X96747000Y-60063000D01*
M02*
