G04 #@! TF.FileFunction,Legend,Bot*
%FSLAX46Y46*%
G04 Gerber Fmt 4.6, Leading zero omitted, Abs format (unit mm)*
G04 Created by KiCad (PCBNEW 4.0.5+dfsg1-4~bpo8+1) date Tue Nov 21 17:33:29 2017*
%MOMM*%
%LPD*%
G01*
G04 APERTURE LIST*
%ADD10C,0.100000*%
%ADD11C,0.200000*%
%ADD12C,0.150000*%
G04 APERTURE END LIST*
D10*
D11*
X128400000Y-72050000D02*
X129050000Y-72050000D01*
X129050000Y-72050000D02*
X129050000Y-71400000D01*
X129050000Y-71400000D02*
X128400000Y-71400000D01*
X128400000Y-71400000D02*
X128400000Y-71900000D01*
X128400000Y-71900000D02*
X128900000Y-71900000D01*
X128900000Y-71900000D02*
X128900000Y-71500000D01*
X128900000Y-71500000D02*
X128550000Y-71500000D01*
X128550000Y-71500000D02*
X128550000Y-71750000D01*
X128550000Y-71750000D02*
X128800000Y-71750000D01*
X128800000Y-71750000D02*
X128800000Y-71600000D01*
X128800000Y-71600000D02*
X128650000Y-71600000D01*
X129200000Y-72200000D02*
X129200000Y-71250000D01*
X129200000Y-71250000D02*
X128250000Y-71250000D01*
X128250000Y-71250000D02*
X128250000Y-72150000D01*
X113200000Y-72200000D02*
X113200000Y-73300000D01*
X129200000Y-72200000D02*
X129200000Y-73300000D01*
X129200000Y-72200000D02*
X113200000Y-72200000D01*
X113200000Y-89200000D02*
X129200000Y-89200000D01*
X142600000Y-74900000D02*
X142300000Y-74900000D01*
X142300000Y-74900000D02*
X142100000Y-74900000D01*
X142100000Y-74900000D02*
X142100000Y-73600000D01*
X142100000Y-73600000D02*
X142400000Y-73600000D01*
X142400000Y-73600000D02*
X142400000Y-74900000D01*
X142400000Y-74900000D02*
X142200000Y-74900000D01*
X142200000Y-74900000D02*
X142200000Y-73700000D01*
X142600000Y-78500000D02*
X142600000Y-77500000D01*
X144600000Y-77500000D02*
X144600000Y-78500000D01*
X144600000Y-74900000D02*
X144600000Y-76000000D01*
X142600000Y-74900000D02*
X142600000Y-76000000D01*
D12*
X99800000Y-68150000D02*
X99800000Y-67450000D01*
X98600000Y-67450000D02*
X98600000Y-68150000D01*
X101600000Y-68150000D02*
X101600000Y-67450000D01*
X100400000Y-67450000D02*
X100400000Y-68150000D01*
X90750000Y-80000000D02*
X90050000Y-80000000D01*
X90050000Y-81200000D02*
X90750000Y-81200000D01*
X98000000Y-68150000D02*
X98000000Y-67450000D01*
X96800000Y-67450000D02*
X96800000Y-68150000D01*
X107650000Y-75850000D02*
X108350000Y-75850000D01*
X108350000Y-74650000D02*
X107650000Y-74650000D01*
X106900000Y-77850000D02*
X107600000Y-77850000D01*
X107600000Y-76650000D02*
X106900000Y-76650000D01*
X90650000Y-84100000D02*
X89950000Y-84100000D01*
X89950000Y-85300000D02*
X90650000Y-85300000D01*
X90750000Y-82000000D02*
X90050000Y-82000000D01*
X90050000Y-83200000D02*
X90750000Y-83200000D01*
X90950000Y-71000000D02*
X90250000Y-71000000D01*
X90250000Y-72200000D02*
X90950000Y-72200000D01*
X89970000Y-78820000D02*
X90670000Y-78820000D01*
X90670000Y-77620000D02*
X89970000Y-77620000D01*
X143000000Y-85050000D02*
X143000000Y-85750000D01*
X144200000Y-85750000D02*
X144200000Y-85050000D01*
X135900000Y-73850000D02*
X135900000Y-73150000D01*
X134700000Y-73150000D02*
X134700000Y-73850000D01*
X103875000Y-68200000D02*
X103875000Y-67200000D01*
X102525000Y-67200000D02*
X102525000Y-68200000D01*
X104625000Y-67200000D02*
X104625000Y-68200000D01*
X105975000Y-68200000D02*
X105975000Y-67200000D01*
X133400000Y-73525000D02*
X132400000Y-73525000D01*
X132400000Y-74875000D02*
X133400000Y-74875000D01*
D10*
X97523607Y-81200000D02*
G75*
G03X97523607Y-81200000I-223607J0D01*
G01*
X97400000Y-80400000D02*
X97400000Y-80800000D01*
X97400000Y-80800000D02*
X97800000Y-80800000D01*
X103400000Y-80400000D02*
X103400000Y-80800000D01*
X103400000Y-80800000D02*
X103000000Y-80800000D01*
X103000000Y-74800000D02*
X103400000Y-74800000D01*
X103400000Y-74800000D02*
X103400000Y-75200000D01*
X97400000Y-74800000D02*
X97800000Y-74800000D01*
X97400000Y-74800000D02*
X97400000Y-75200000D01*
D12*
X91400000Y-74500000D02*
X91400000Y-75500000D01*
X89600000Y-74500000D02*
X89600000Y-75500000D01*
X108040000Y-67990000D02*
X108040000Y-67290000D01*
X106840000Y-67290000D02*
X106840000Y-67990000D01*
X121961905Y-90652381D02*
X121961905Y-91461905D01*
X121914286Y-91557143D01*
X121866667Y-91604762D01*
X121771429Y-91652381D01*
X121580952Y-91652381D01*
X121485714Y-91604762D01*
X121438095Y-91557143D01*
X121390476Y-91461905D01*
X121390476Y-90652381D01*
X120485714Y-90985714D02*
X120485714Y-91652381D01*
X120723810Y-90604762D02*
X120961905Y-91319048D01*
X120342857Y-91319048D01*
X141776667Y-75553333D02*
X141776667Y-76029524D01*
X142062381Y-75458095D02*
X141062381Y-75791428D01*
X142062381Y-76124762D01*
X141538571Y-76458095D02*
X141538571Y-76791429D01*
X142062381Y-76934286D02*
X142062381Y-76458095D01*
X141062381Y-76458095D01*
X141062381Y-76934286D01*
X141157619Y-77315238D02*
X141110000Y-77362857D01*
X141062381Y-77458095D01*
X141062381Y-77696191D01*
X141110000Y-77791429D01*
X141157619Y-77839048D01*
X141252857Y-77886667D01*
X141348095Y-77886667D01*
X141490952Y-77839048D01*
X142062381Y-77267619D01*
X142062381Y-77886667D01*
X99186666Y-70197143D02*
X99234285Y-70244762D01*
X99377142Y-70292381D01*
X99472380Y-70292381D01*
X99615238Y-70244762D01*
X99710476Y-70149524D01*
X99758095Y-70054286D01*
X99805714Y-69863810D01*
X99805714Y-69720952D01*
X99758095Y-69530476D01*
X99710476Y-69435238D01*
X99615238Y-69340000D01*
X99472380Y-69292381D01*
X99377142Y-69292381D01*
X99234285Y-69340000D01*
X99186666Y-69387619D01*
X98234285Y-70292381D02*
X98805714Y-70292381D01*
X98520000Y-70292381D02*
X98520000Y-69292381D01*
X98615238Y-69435238D01*
X98710476Y-69530476D01*
X98805714Y-69578095D01*
X101296666Y-70117143D02*
X101344285Y-70164762D01*
X101487142Y-70212381D01*
X101582380Y-70212381D01*
X101725238Y-70164762D01*
X101820476Y-70069524D01*
X101868095Y-69974286D01*
X101915714Y-69783810D01*
X101915714Y-69640952D01*
X101868095Y-69450476D01*
X101820476Y-69355238D01*
X101725238Y-69260000D01*
X101582380Y-69212381D01*
X101487142Y-69212381D01*
X101344285Y-69260000D01*
X101296666Y-69307619D01*
X100915714Y-69307619D02*
X100868095Y-69260000D01*
X100772857Y-69212381D01*
X100534761Y-69212381D01*
X100439523Y-69260000D01*
X100391904Y-69307619D01*
X100344285Y-69402857D01*
X100344285Y-69498095D01*
X100391904Y-69640952D01*
X100963333Y-70212381D01*
X100344285Y-70212381D01*
X88357143Y-80583334D02*
X88404762Y-80535715D01*
X88452381Y-80392858D01*
X88452381Y-80297620D01*
X88404762Y-80154762D01*
X88309524Y-80059524D01*
X88214286Y-80011905D01*
X88023810Y-79964286D01*
X87880952Y-79964286D01*
X87690476Y-80011905D01*
X87595238Y-80059524D01*
X87500000Y-80154762D01*
X87452381Y-80297620D01*
X87452381Y-80392858D01*
X87500000Y-80535715D01*
X87547619Y-80583334D01*
X87452381Y-80916667D02*
X87452381Y-81535715D01*
X87833333Y-81202381D01*
X87833333Y-81345239D01*
X87880952Y-81440477D01*
X87928571Y-81488096D01*
X88023810Y-81535715D01*
X88261905Y-81535715D01*
X88357143Y-81488096D01*
X88404762Y-81440477D01*
X88452381Y-81345239D01*
X88452381Y-81059524D01*
X88404762Y-80964286D01*
X88357143Y-80916667D01*
X97436666Y-70157143D02*
X97484285Y-70204762D01*
X97627142Y-70252381D01*
X97722380Y-70252381D01*
X97865238Y-70204762D01*
X97960476Y-70109524D01*
X98008095Y-70014286D01*
X98055714Y-69823810D01*
X98055714Y-69680952D01*
X98008095Y-69490476D01*
X97960476Y-69395238D01*
X97865238Y-69300000D01*
X97722380Y-69252381D01*
X97627142Y-69252381D01*
X97484285Y-69300000D01*
X97436666Y-69347619D01*
X96579523Y-69585714D02*
X96579523Y-70252381D01*
X96817619Y-69204762D02*
X97055714Y-69919048D01*
X96436666Y-69919048D01*
X108166666Y-77507143D02*
X108214285Y-77554762D01*
X108357142Y-77602381D01*
X108452380Y-77602381D01*
X108595238Y-77554762D01*
X108690476Y-77459524D01*
X108738095Y-77364286D01*
X108785714Y-77173810D01*
X108785714Y-77030952D01*
X108738095Y-76840476D01*
X108690476Y-76745238D01*
X108595238Y-76650000D01*
X108452380Y-76602381D01*
X108357142Y-76602381D01*
X108214285Y-76650000D01*
X108166666Y-76697619D01*
X107261904Y-76602381D02*
X107738095Y-76602381D01*
X107785714Y-77078571D01*
X107738095Y-77030952D01*
X107642857Y-76983333D01*
X107404761Y-76983333D01*
X107309523Y-77030952D01*
X107261904Y-77078571D01*
X107214285Y-77173810D01*
X107214285Y-77411905D01*
X107261904Y-77507143D01*
X107309523Y-77554762D01*
X107404761Y-77602381D01*
X107642857Y-77602381D01*
X107738095Y-77554762D01*
X107785714Y-77507143D01*
X107416666Y-79507143D02*
X107464285Y-79554762D01*
X107607142Y-79602381D01*
X107702380Y-79602381D01*
X107845238Y-79554762D01*
X107940476Y-79459524D01*
X107988095Y-79364286D01*
X108035714Y-79173810D01*
X108035714Y-79030952D01*
X107988095Y-78840476D01*
X107940476Y-78745238D01*
X107845238Y-78650000D01*
X107702380Y-78602381D01*
X107607142Y-78602381D01*
X107464285Y-78650000D01*
X107416666Y-78697619D01*
X106559523Y-78602381D02*
X106750000Y-78602381D01*
X106845238Y-78650000D01*
X106892857Y-78697619D01*
X106988095Y-78840476D01*
X107035714Y-79030952D01*
X107035714Y-79411905D01*
X106988095Y-79507143D01*
X106940476Y-79554762D01*
X106845238Y-79602381D01*
X106654761Y-79602381D01*
X106559523Y-79554762D01*
X106511904Y-79507143D01*
X106464285Y-79411905D01*
X106464285Y-79173810D01*
X106511904Y-79078571D01*
X106559523Y-79030952D01*
X106654761Y-78983333D01*
X106845238Y-78983333D01*
X106940476Y-79030952D01*
X106988095Y-79078571D01*
X107035714Y-79173810D01*
X88357143Y-84583334D02*
X88404762Y-84535715D01*
X88452381Y-84392858D01*
X88452381Y-84297620D01*
X88404762Y-84154762D01*
X88309524Y-84059524D01*
X88214286Y-84011905D01*
X88023810Y-83964286D01*
X87880952Y-83964286D01*
X87690476Y-84011905D01*
X87595238Y-84059524D01*
X87500000Y-84154762D01*
X87452381Y-84297620D01*
X87452381Y-84392858D01*
X87500000Y-84535715D01*
X87547619Y-84583334D01*
X87452381Y-84916667D02*
X87452381Y-85583334D01*
X88452381Y-85154762D01*
X88357143Y-82583334D02*
X88404762Y-82535715D01*
X88452381Y-82392858D01*
X88452381Y-82297620D01*
X88404762Y-82154762D01*
X88309524Y-82059524D01*
X88214286Y-82011905D01*
X88023810Y-81964286D01*
X87880952Y-81964286D01*
X87690476Y-82011905D01*
X87595238Y-82059524D01*
X87500000Y-82154762D01*
X87452381Y-82297620D01*
X87452381Y-82392858D01*
X87500000Y-82535715D01*
X87547619Y-82583334D01*
X87880952Y-83154762D02*
X87833333Y-83059524D01*
X87785714Y-83011905D01*
X87690476Y-82964286D01*
X87642857Y-82964286D01*
X87547619Y-83011905D01*
X87500000Y-83059524D01*
X87452381Y-83154762D01*
X87452381Y-83345239D01*
X87500000Y-83440477D01*
X87547619Y-83488096D01*
X87642857Y-83535715D01*
X87690476Y-83535715D01*
X87785714Y-83488096D01*
X87833333Y-83440477D01*
X87880952Y-83345239D01*
X87880952Y-83154762D01*
X87928571Y-83059524D01*
X87976190Y-83011905D01*
X88071429Y-82964286D01*
X88261905Y-82964286D01*
X88357143Y-83011905D01*
X88404762Y-83059524D01*
X88452381Y-83154762D01*
X88452381Y-83345239D01*
X88404762Y-83440477D01*
X88357143Y-83488096D01*
X88261905Y-83535715D01*
X88071429Y-83535715D01*
X87976190Y-83488096D01*
X87928571Y-83440477D01*
X87880952Y-83345239D01*
X91242857Y-70057143D02*
X91290476Y-70104762D01*
X91433333Y-70152381D01*
X91528571Y-70152381D01*
X91671429Y-70104762D01*
X91766667Y-70009524D01*
X91814286Y-69914286D01*
X91861905Y-69723810D01*
X91861905Y-69580952D01*
X91814286Y-69390476D01*
X91766667Y-69295238D01*
X91671429Y-69200000D01*
X91528571Y-69152381D01*
X91433333Y-69152381D01*
X91290476Y-69200000D01*
X91242857Y-69247619D01*
X90290476Y-70152381D02*
X90861905Y-70152381D01*
X90576191Y-70152381D02*
X90576191Y-69152381D01*
X90671429Y-69295238D01*
X90766667Y-69390476D01*
X90861905Y-69438095D01*
X89338095Y-70152381D02*
X89909524Y-70152381D01*
X89623810Y-70152381D02*
X89623810Y-69152381D01*
X89719048Y-69295238D01*
X89814286Y-69390476D01*
X89909524Y-69438095D01*
X88677143Y-77577143D02*
X88724762Y-77529524D01*
X88772381Y-77386667D01*
X88772381Y-77291429D01*
X88724762Y-77148571D01*
X88629524Y-77053333D01*
X88534286Y-77005714D01*
X88343810Y-76958095D01*
X88200952Y-76958095D01*
X88010476Y-77005714D01*
X87915238Y-77053333D01*
X87820000Y-77148571D01*
X87772381Y-77291429D01*
X87772381Y-77386667D01*
X87820000Y-77529524D01*
X87867619Y-77577143D01*
X88772381Y-78529524D02*
X88772381Y-77958095D01*
X88772381Y-78243809D02*
X87772381Y-78243809D01*
X87915238Y-78148571D01*
X88010476Y-78053333D01*
X88058095Y-77958095D01*
X87867619Y-78910476D02*
X87820000Y-78958095D01*
X87772381Y-79053333D01*
X87772381Y-79291429D01*
X87820000Y-79386667D01*
X87867619Y-79434286D01*
X87962857Y-79481905D01*
X88058095Y-79481905D01*
X88200952Y-79434286D01*
X88772381Y-78862857D01*
X88772381Y-79481905D01*
X142057143Y-84757143D02*
X142104762Y-84709524D01*
X142152381Y-84566667D01*
X142152381Y-84471429D01*
X142104762Y-84328571D01*
X142009524Y-84233333D01*
X141914286Y-84185714D01*
X141723810Y-84138095D01*
X141580952Y-84138095D01*
X141390476Y-84185714D01*
X141295238Y-84233333D01*
X141200000Y-84328571D01*
X141152381Y-84471429D01*
X141152381Y-84566667D01*
X141200000Y-84709524D01*
X141247619Y-84757143D01*
X142152381Y-85709524D02*
X142152381Y-85138095D01*
X142152381Y-85423809D02*
X141152381Y-85423809D01*
X141295238Y-85328571D01*
X141390476Y-85233333D01*
X141438095Y-85138095D01*
X141152381Y-86614286D02*
X141152381Y-86138095D01*
X141628571Y-86090476D01*
X141580952Y-86138095D01*
X141533333Y-86233333D01*
X141533333Y-86471429D01*
X141580952Y-86566667D01*
X141628571Y-86614286D01*
X141723810Y-86661905D01*
X141961905Y-86661905D01*
X142057143Y-86614286D01*
X142104762Y-86566667D01*
X142152381Y-86471429D01*
X142152381Y-86233333D01*
X142104762Y-86138095D01*
X142057143Y-86090476D01*
X137557143Y-72857143D02*
X137604762Y-72809524D01*
X137652381Y-72666667D01*
X137652381Y-72571429D01*
X137604762Y-72428571D01*
X137509524Y-72333333D01*
X137414286Y-72285714D01*
X137223810Y-72238095D01*
X137080952Y-72238095D01*
X136890476Y-72285714D01*
X136795238Y-72333333D01*
X136700000Y-72428571D01*
X136652381Y-72571429D01*
X136652381Y-72666667D01*
X136700000Y-72809524D01*
X136747619Y-72857143D01*
X137652381Y-73809524D02*
X137652381Y-73238095D01*
X137652381Y-73523809D02*
X136652381Y-73523809D01*
X136795238Y-73428571D01*
X136890476Y-73333333D01*
X136938095Y-73238095D01*
X136652381Y-74142857D02*
X136652381Y-74809524D01*
X137652381Y-74380952D01*
X103246666Y-70232381D02*
X103580000Y-69756190D01*
X103818095Y-70232381D02*
X103818095Y-69232381D01*
X103437142Y-69232381D01*
X103341904Y-69280000D01*
X103294285Y-69327619D01*
X103246666Y-69422857D01*
X103246666Y-69565714D01*
X103294285Y-69660952D01*
X103341904Y-69708571D01*
X103437142Y-69756190D01*
X103818095Y-69756190D01*
X102294285Y-70232381D02*
X102865714Y-70232381D01*
X102580000Y-70232381D02*
X102580000Y-69232381D01*
X102675238Y-69375238D01*
X102770476Y-69470476D01*
X102865714Y-69518095D01*
X105406666Y-70212381D02*
X105740000Y-69736190D01*
X105978095Y-70212381D02*
X105978095Y-69212381D01*
X105597142Y-69212381D01*
X105501904Y-69260000D01*
X105454285Y-69307619D01*
X105406666Y-69402857D01*
X105406666Y-69545714D01*
X105454285Y-69640952D01*
X105501904Y-69688571D01*
X105597142Y-69736190D01*
X105978095Y-69736190D01*
X105025714Y-69307619D02*
X104978095Y-69260000D01*
X104882857Y-69212381D01*
X104644761Y-69212381D01*
X104549523Y-69260000D01*
X104501904Y-69307619D01*
X104454285Y-69402857D01*
X104454285Y-69498095D01*
X104501904Y-69640952D01*
X105073333Y-70212381D01*
X104454285Y-70212381D01*
X133492857Y-71392381D02*
X133826191Y-70916190D01*
X134064286Y-71392381D02*
X134064286Y-70392381D01*
X133683333Y-70392381D01*
X133588095Y-70440000D01*
X133540476Y-70487619D01*
X133492857Y-70582857D01*
X133492857Y-70725714D01*
X133540476Y-70820952D01*
X133588095Y-70868571D01*
X133683333Y-70916190D01*
X134064286Y-70916190D01*
X132540476Y-71392381D02*
X133111905Y-71392381D01*
X132826191Y-71392381D02*
X132826191Y-70392381D01*
X132921429Y-70535238D01*
X133016667Y-70630476D01*
X133111905Y-70678095D01*
X131921429Y-70392381D02*
X131826190Y-70392381D01*
X131730952Y-70440000D01*
X131683333Y-70487619D01*
X131635714Y-70582857D01*
X131588095Y-70773333D01*
X131588095Y-71011429D01*
X131635714Y-71201905D01*
X131683333Y-71297143D01*
X131730952Y-71344762D01*
X131826190Y-71392381D01*
X131921429Y-71392381D01*
X132016667Y-71344762D01*
X132064286Y-71297143D01*
X132111905Y-71201905D01*
X132159524Y-71011429D01*
X132159524Y-70773333D01*
X132111905Y-70582857D01*
X132064286Y-70487619D01*
X132016667Y-70440000D01*
X131921429Y-70392381D01*
X101761905Y-72752381D02*
X101761905Y-73561905D01*
X101714286Y-73657143D01*
X101666667Y-73704762D01*
X101571429Y-73752381D01*
X101380952Y-73752381D01*
X101285714Y-73704762D01*
X101238095Y-73657143D01*
X101190476Y-73561905D01*
X101190476Y-72752381D01*
X100761905Y-72847619D02*
X100714286Y-72800000D01*
X100619048Y-72752381D01*
X100380952Y-72752381D01*
X100285714Y-72800000D01*
X100238095Y-72847619D01*
X100190476Y-72942857D01*
X100190476Y-73038095D01*
X100238095Y-73180952D01*
X100809524Y-73752381D01*
X100190476Y-73752381D01*
X92476190Y-74773809D02*
X92952381Y-74773809D01*
X91952381Y-74440476D02*
X92476190Y-74773809D01*
X91952381Y-75107143D01*
X92952381Y-75964286D02*
X92952381Y-75392857D01*
X92952381Y-75678571D02*
X91952381Y-75678571D01*
X92095238Y-75583333D01*
X92190476Y-75488095D01*
X92238095Y-75392857D01*
X109697143Y-66997143D02*
X109744762Y-66949524D01*
X109792381Y-66806667D01*
X109792381Y-66711429D01*
X109744762Y-66568571D01*
X109649524Y-66473333D01*
X109554286Y-66425714D01*
X109363810Y-66378095D01*
X109220952Y-66378095D01*
X109030476Y-66425714D01*
X108935238Y-66473333D01*
X108840000Y-66568571D01*
X108792381Y-66711429D01*
X108792381Y-66806667D01*
X108840000Y-66949524D01*
X108887619Y-66997143D01*
X108887619Y-67378095D02*
X108840000Y-67425714D01*
X108792381Y-67520952D01*
X108792381Y-67759048D01*
X108840000Y-67854286D01*
X108887619Y-67901905D01*
X108982857Y-67949524D01*
X109078095Y-67949524D01*
X109220952Y-67901905D01*
X109792381Y-67330476D01*
X109792381Y-67949524D01*
X108887619Y-68330476D02*
X108840000Y-68378095D01*
X108792381Y-68473333D01*
X108792381Y-68711429D01*
X108840000Y-68806667D01*
X108887619Y-68854286D01*
X108982857Y-68901905D01*
X109078095Y-68901905D01*
X109220952Y-68854286D01*
X109792381Y-68282857D01*
X109792381Y-68901905D01*
M02*
