  0
SECTION
  2
HEADER
  9
$ANGBASE
  50
0.0
  9
$ANGDIR
  70
  1
  9
$MEASUREMENT
  70
0
  0
ENDSEC
  0
SECTION
  2
TABLES
  0
TABLE
  2
LTYPE
  70
1
  0
LTYPE
  2
CONTINUOUS
  70
0
  3
Solid line
  72
65
  73
0
  40
0.0
  0
ENDTAB
  0
TABLE
  2
STYLE
  70
4
  0
STYLE
  2
KICAD
  70
0
  40
0
  41
1
  42
1
  50
0
  71
0
  3
isocp.shx
  0
STYLE
  2
KICADB
  70
0
  40
0
  41
1
  42
1
  50
0
  71
0
  3
isocp.shx
  0
STYLE
  2
KICADI
  70
0
  40
0
  41
1
  42
1
  50
15
  71
0
  3
isocp.shx
  0
STYLE
  2
KICADBI
  70
0
  40
0
  41
1
  42
1
  50
15
  71
0
  3
isocp.shx
  0
ENDTAB
  0
TABLE
  2
LAYER
  70
30
  0
LAYER
  2
BLACK
  70
0
  62
7
  6
CONTINUOUS
  0
LAYER
  2
GRAY1
  70
0
  62
251
  6
CONTINUOUS
  0
LAYER
  2
GRAY2
  70
0
  62
8
  6
CONTINUOUS
  0
LAYER
  2
GRAY3
  70
0
  62
9
  6
CONTINUOUS
  0
LAYER
  2
WHITE
  70
0
  62
7
  6
CONTINUOUS
  0
LAYER
  2
LYELLOW
  70
0
  62
51
  6
CONTINUOUS
  0
LAYER
  2
BLUE1
  70
0
  62
178
  6
CONTINUOUS
  0
LAYER
  2
GREEN1
  70
0
  62
98
  6
CONTINUOUS
  0
LAYER
  2
CYAN1
  70
0
  62
138
  6
CONTINUOUS
  0
LAYER
  2
RED1
  70
0
  62
18
  6
CONTINUOUS
  0
LAYER
  2
MAGENTA1
  70
0
  62
228
  6
CONTINUOUS
  0
LAYER
  2
BROWN1
  70
0
  62
58
  6
CONTINUOUS
  0
LAYER
  2
BLUE2
  70
0
  62
5
  6
CONTINUOUS
  0
LAYER
  2
GREEN2
  70
0
  62
3
  6
CONTINUOUS
  0
LAYER
  2
CYAN2
  70
0
  62
4
  6
CONTINUOUS
  0
LAYER
  2
RED2
  70
0
  62
1
  6
CONTINUOUS
  0
LAYER
  2
MAGENTA2
  70
0
  62
6
  6
CONTINUOUS
  0
LAYER
  2
BROWN2
  70
0
  62
54
  6
CONTINUOUS
  0
LAYER
  2
BLUE3
  70
0
  62
171
  6
CONTINUOUS
  0
LAYER
  2
GREEN3
  70
0
  62
91
  6
CONTINUOUS
  0
LAYER
  2
CYAN3
  70
0
  62
131
  6
CONTINUOUS
  0
LAYER
  2
RED3
  70
0
  62
11
  6
CONTINUOUS
  0
LAYER
  2
MAGENTA3
  70
0
  62
221
  6
CONTINUOUS
  0
LAYER
  2
YELLOW3
  70
0
  62
2
  6
CONTINUOUS
  0
LAYER
  2
BLUE4
  70
0
  62
5
  6
CONTINUOUS
  0
LAYER
  2
GREEN4
  70
0
  62
3
  6
CONTINUOUS
  0
LAYER
  2
CYAN4
  70
0
  62
4
  6
CONTINUOUS
  0
LAYER
  2
RED4
  70
0
  62
1
  6
CONTINUOUS
  0
LAYER
  2
MAGENTA4
  70
0
  62
6
  6
CONTINUOUS
  0
LAYER
  2
YELLOW4
  70
0
  62
2
  6
CONTINUOUS
  0
ENDTAB
  0
ENDSEC
  0
SECTION
  2
ENTITIES
0
LINE
8
Black
10
145.506
20
-58.4261
11
145.513
21
-58.4261
0
LINE
8
Black
10
145.513
20
-58.4261
11
145.519
21
-58.4284
0
LINE
8
Black
10
145.519
20
-58.4284
11
145.526
21
-58.4295
0
LINE
8
Black
10
145.526
20
-58.4295
11
145.531
21
-58.4328
0
LINE
8
Black
10
145.531
20
-58.4328
11
145.537
21
-58.435
0
LINE
8
Black
10
145.537
20
-58.435
11
145.543
21
-58.4393
0
LINE
8
Black
10
145.543
20
-58.4393
11
145.548
21
-58.4425
0
LINE
8
Black
10
145.548
20
-58.4425
11
145.552
21
-58.4476
0
LINE
8
Black
10
145.552
20
-58.4476
11
145.557
21
-58.4518
0
LINE
8
Black
10
145.557
20
-58.4518
11
145.561
21
-58.4575
0
LINE
8
Black
10
145.561
20
-58.4575
11
145.565
21
-58.4625
0
LINE
8
Black
10
145.565
20
-58.4625
11
145.567
21
-58.4687
0
LINE
8
Black
10
145.567
20
-58.4687
11
145.57
21
-58.4743
0
LINE
8
Black
10
145.57
20
-58.4743
11
145.572
21
-58.4808
0
LINE
8
Black
10
145.572
20
-58.4808
11
145.574
21
-58.487
0
LINE
8
Black
10
145.574
20
-58.487
11
145.574
21
-58.4935
0
LINE
8
Black
10
145.574
20
-58.4935
11
145.575
21
-58.5
0
LINE
8
Black
10
145.575
20
-58.5
11
145.575
21
-95.06
0
LINE
8
Black
10
145.575
20
-95.06
11
145.574
21
-95.0665
0
LINE
8
Black
10
145.574
20
-95.0665
11
145.574
21
-95.073
0
LINE
8
Black
10
145.574
20
-95.073
11
145.572
21
-95.0792
0
LINE
8
Black
10
145.572
20
-95.0792
11
145.57
21
-95.0857
0
LINE
8
Black
10
145.57
20
-95.0857
11
145.567
21
-95.0913
0
LINE
8
Black
10
145.567
20
-95.0913
11
145.565
21
-95.0975
0
LINE
8
Black
10
145.565
20
-95.0975
11
145.561
21
-95.1025
0
LINE
8
Black
10
145.561
20
-95.1025
11
145.557
21
-95.1082
0
LINE
8
Black
10
145.557
20
-95.1082
11
145.552
21
-95.1124
0
LINE
8
Black
10
145.552
20
-95.1124
11
145.548
21
-95.1175
0
LINE
8
Black
10
145.548
20
-95.1175
11
145.543
21
-95.1207
0
LINE
8
Black
10
145.543
20
-95.1207
11
145.537
21
-95.125
0
LINE
8
Black
10
145.537
20
-95.125
11
145.531
21
-95.1272
0
LINE
8
Black
10
145.531
20
-95.1272
11
145.526
21
-95.1305
0
LINE
8
Black
10
145.526
20
-95.1305
11
145.519
21
-95.1316
0
LINE
8
Black
10
145.519
20
-95.1316
11
145.513
21
-95.1339
0
LINE
8
Black
10
145.513
20
-95.1339
11
145.506
21
-95.1339
0
LINE
8
Black
10
145.506
20
-95.1339
11
145.5
21
-95.135
0
LINE
8
Black
10
145.5
20
-95.135
11
86.35
21
-95.135
0
LINE
8
Black
10
86.35
20
-95.135
11
86.3435
21
-95.1339
0
LINE
8
Black
10
86.3435
20
-95.1339
11
86.337
21
-95.1339
0
LINE
8
Black
10
86.337
20
-95.1339
11
86.3308
21
-95.1316
0
LINE
8
Black
10
86.3308
20
-95.1316
11
86.3243
21
-95.1305
0
LINE
8
Black
10
86.3243
20
-95.1305
11
86.3187
21
-95.1272
0
LINE
8
Black
10
86.3187
20
-95.1272
11
86.3125
21
-95.125
0
LINE
8
Black
10
86.3125
20
-95.125
11
86.3075
21
-95.1207
0
LINE
8
Black
10
86.3075
20
-95.1207
11
86.3018
21
-95.1175
0
LINE
8
Black
10
86.3018
20
-95.1175
11
86.2976
21
-95.1124
0
LINE
8
Black
10
86.2976
20
-95.1124
11
86.2925
21
-95.1082
0
LINE
8
Black
10
86.2925
20
-95.1082
11
86.2893
21
-95.1025
0
LINE
8
Black
10
86.2893
20
-95.1025
11
86.285
21
-95.0975
0
LINE
8
Black
10
86.285
20
-95.0975
11
86.2828
21
-95.0913
0
LINE
8
Black
10
86.2828
20
-95.0913
11
86.2795
21
-95.0857
0
LINE
8
Black
10
86.2795
20
-95.0857
11
86.2784
21
-95.0792
0
LINE
8
Black
10
86.2784
20
-95.0792
11
86.2761
21
-95.073
0
LINE
8
Black
10
86.2761
20
-95.073
11
86.2761
21
-95.0665
0
LINE
8
Black
10
86.2761
20
-95.0665
11
86.275
21
-95.06
0
LINE
8
Black
10
86.275
20
-95.06
11
86.275
21
-58.5
0
LINE
8
Black
10
86.275
20
-58.5
11
86.2761
21
-58.4935
0
LINE
8
Black
10
86.2761
20
-58.4935
11
86.2761
21
-58.487
0
LINE
8
Black
10
86.2761
20
-58.487
11
86.2784
21
-58.4808
0
LINE
8
Black
10
86.2784
20
-58.4808
11
86.2795
21
-58.4743
0
LINE
8
Black
10
86.2795
20
-58.4743
11
86.2828
21
-58.4687
0
LINE
8
Black
10
86.2828
20
-58.4687
11
86.285
21
-58.4625
0
LINE
8
Black
10
86.285
20
-58.4625
11
86.2893
21
-58.4575
0
LINE
8
Black
10
86.2893
20
-58.4575
11
86.2925
21
-58.4518
0
LINE
8
Black
10
86.2925
20
-58.4518
11
86.2976
21
-58.4476
0
LINE
8
Black
10
86.2976
20
-58.4476
11
86.3018
21
-58.4425
0
LINE
8
Black
10
86.3018
20
-58.4425
11
86.3075
21
-58.4393
0
LINE
8
Black
10
86.3075
20
-58.4393
11
86.3125
21
-58.435
0
LINE
8
Black
10
86.3125
20
-58.435
11
86.3187
21
-58.4328
0
LINE
8
Black
10
86.3187
20
-58.4328
11
86.3243
21
-58.4295
0
LINE
8
Black
10
86.3243
20
-58.4295
11
86.3308
21
-58.4284
0
LINE
8
Black
10
86.3308
20
-58.4284
11
86.337
21
-58.4261
0
LINE
8
Black
10
86.337
20
-58.4261
11
86.3435
21
-58.4261
0
LINE
8
Black
10
86.3435
20
-58.4261
11
86.35
21
-58.425
0
LINE
8
Black
10
86.35
20
-58.425
11
145.5
21
-58.425
0
LINE
8
Black
10
145.5
20
-58.425
11
145.506
21
-58.4261
0
LINE
8
Black
10
86.425
20
-58.575
11
86.425
21
-94.985
0
LINE
8
Black
10
86.425
20
-94.985
11
145.425
21
-94.985
0
LINE
8
Black
10
145.425
20
-94.985
11
145.425
21
-58.575
0
LINE
8
Black
10
145.425
20
-58.575
11
86.425
21
-58.575
0
LINE
8
Black
10
88.5251
20
-94.4664
11
88.2906
21
-94.6632
0
LINE
8
Black
10
88.2906
20
-94.6632
11
88.003
21
-94.7678
0
LINE
8
Black
10
88.003
20
-94.7678
11
87.697
21
-94.7678
0
LINE
8
Black
10
87.697
20
-94.7678
11
87.4094
21
-94.6632
0
LINE
8
Black
10
87.4094
20
-94.6632
11
87.1749
21
-94.4664
0
LINE
8
Black
10
87.1749
20
-94.4664
11
87.0219
21
-94.2014
0
LINE
8
Black
10
87.0219
20
-94.2014
11
86.9688
21
-93.9
0
LINE
8
Black
10
86.9688
20
-93.9
11
87.0219
21
-93.5986
0
LINE
8
Black
10
87.0219
20
-93.5986
11
87.1749
21
-93.3336
0
LINE
8
Black
10
87.1749
20
-93.3336
11
87.4094
21
-93.1368
0
LINE
8
Black
10
87.4094
20
-93.1368
11
87.697
21
-93.0322
0
LINE
8
Black
10
87.697
20
-93.0322
11
88.003
21
-93.0322
0
LINE
8
Black
10
88.003
20
-93.0322
11
88.2906
21
-93.1368
0
LINE
8
Black
10
88.2906
20
-93.1368
11
88.5251
21
-93.3336
0
LINE
8
Black
10
88.5251
20
-93.3336
11
88.6781
21
-93.5986
0
LINE
8
Black
10
88.6781
20
-93.5986
11
88.7312
21
-93.9
0
LINE
8
Black
10
88.7312
20
-93.9
11
88.6781
21
-94.2014
0
LINE
8
Black
10
88.6781
20
-94.2014
11
88.5251
21
-94.4664
0
LINE
8
Black
10
88.4102
20
-93.43
11
88.2156
21
-93.2667
0
LINE
8
Black
10
88.2156
20
-93.2667
11
87.977
21
-93.1799
0
LINE
8
Black
10
87.977
20
-93.1799
11
87.723
21
-93.1799
0
LINE
8
Black
10
87.723
20
-93.1799
11
87.4844
21
-93.2667
0
LINE
8
Black
10
87.4844
20
-93.2667
11
87.2898
21
-93.43
0
LINE
8
Black
10
87.2898
20
-93.43
11
87.1629
21
-93.6499
0
LINE
8
Black
10
87.1629
20
-93.6499
11
87.1188
21
-93.9
0
LINE
8
Black
10
87.1188
20
-93.9
11
87.1629
21
-94.1501
0
LINE
8
Black
10
87.1629
20
-94.1501
11
87.2898
21
-94.37
0
LINE
8
Black
10
87.2898
20
-94.37
11
87.4844
21
-94.5333
0
LINE
8
Black
10
87.4844
20
-94.5333
11
87.723
21
-94.6201
0
LINE
8
Black
10
87.723
20
-94.6201
11
87.977
21
-94.6201
0
LINE
8
Black
10
87.977
20
-94.6201
11
88.2156
21
-94.5333
0
LINE
8
Black
10
88.2156
20
-94.5333
11
88.4102
21
-94.37
0
LINE
8
Black
10
88.4102
20
-94.37
11
88.5371
21
-94.1501
0
LINE
8
Black
10
88.5371
20
-94.1501
11
88.5812
21
-93.9
0
LINE
8
Black
10
88.5812
20
-93.9
11
88.5371
21
-93.6499
0
LINE
8
Black
10
88.5371
20
-93.6499
11
88.4102
21
-93.43
0
LINE
8
Black
10
144.671
20
-94.3877
11
144.448
21
-94.5745
0
LINE
8
Black
10
144.448
20
-94.5745
11
144.175
21
-94.6739
0
LINE
8
Black
10
144.175
20
-94.6739
11
143.885
21
-94.6739
0
LINE
8
Black
10
143.885
20
-94.6739
11
143.612
21
-94.5745
0
LINE
8
Black
10
143.612
20
-94.5745
11
143.389
21
-94.3877
0
LINE
8
Black
10
143.389
20
-94.3877
11
143.244
21
-94.1361
0
LINE
8
Black
10
143.244
20
-94.1361
11
143.193
21
-93.85
0
LINE
8
Black
10
143.193
20
-93.85
11
143.244
21
-93.5639
0
LINE
8
Black
10
143.244
20
-93.5639
11
143.389
21
-93.3123
0
LINE
8
Black
10
143.389
20
-93.3123
11
143.612
21
-93.1255
0
LINE
8
Black
10
143.612
20
-93.1255
11
143.885
21
-93.0261
0
LINE
8
Black
10
143.885
20
-93.0261
11
144.175
21
-93.0261
0
LINE
8
Black
10
144.175
20
-93.0261
11
144.448
21
-93.1255
0
LINE
8
Black
10
144.448
20
-93.1255
11
144.671
21
-93.3123
0
LINE
8
Black
10
144.671
20
-93.3123
11
144.816
21
-93.5639
0
LINE
8
Black
10
144.816
20
-93.5639
11
144.867
21
-93.85
0
LINE
8
Black
10
144.867
20
-93.85
11
144.816
21
-94.1361
0
LINE
8
Black
10
144.816
20
-94.1361
11
144.671
21
-94.3877
0
LINE
8
Black
10
144.556
20
-93.4087
11
144.373
21
-93.2554
0
LINE
8
Black
10
144.373
20
-93.2554
11
144.149
21
-93.1739
0
LINE
8
Black
10
144.149
20
-93.1739
11
143.911
21
-93.1739
0
LINE
8
Black
10
143.911
20
-93.1739
11
143.687
21
-93.2554
0
LINE
8
Black
10
143.687
20
-93.2554
11
143.504
21
-93.4087
0
LINE
8
Black
10
143.504
20
-93.4087
11
143.385
21
-93.6152
0
LINE
8
Black
10
143.385
20
-93.6152
11
143.343
21
-93.85
0
LINE
8
Black
10
143.343
20
-93.85
11
143.385
21
-94.0848
0
LINE
8
Black
10
143.385
20
-94.0848
11
143.504
21
-94.2913
0
LINE
8
Black
10
143.504
20
-94.2913
11
143.687
21
-94.4446
0
LINE
8
Black
10
143.687
20
-94.4446
11
143.911
21
-94.5261
0
LINE
8
Black
10
143.911
20
-94.5261
11
144.149
21
-94.5261
0
LINE
8
Black
10
144.149
20
-94.5261
11
144.373
21
-94.4446
0
LINE
8
Black
10
144.373
20
-94.4446
11
144.556
21
-94.2913
0
LINE
8
Black
10
144.556
20
-94.2913
11
144.675
21
-94.0848
0
LINE
8
Black
10
144.675
20
-94.0848
11
144.717
21
-93.85
0
LINE
8
Black
10
144.717
20
-93.85
11
144.675
21
-93.6152
0
LINE
8
Black
10
144.675
20
-93.6152
11
144.556
21
-93.4087
0
LINE
8
Black
10
144.64
20
-60.4317
11
144.428
21
-60.6095
0
LINE
8
Black
10
144.428
20
-60.6095
11
144.168
21
-60.704
0
LINE
8
Black
10
144.168
20
-60.704
11
143.892
21
-60.704
0
LINE
8
Black
10
143.892
20
-60.704
11
143.632
21
-60.6095
0
LINE
8
Black
10
143.632
20
-60.6095
11
143.42
21
-60.4317
0
LINE
8
Black
10
143.42
20
-60.4317
11
143.282
21
-60.1923
0
LINE
8
Black
10
143.282
20
-60.1923
11
143.234
21
-59.92
0
LINE
8
Black
10
143.234
20
-59.92
11
143.282
21
-59.6477
0
LINE
8
Black
10
143.282
20
-59.6477
11
143.42
21
-59.4083
0
LINE
8
Black
10
143.42
20
-59.4083
11
143.632
21
-59.2305
0
LINE
8
Black
10
143.632
20
-59.2305
11
143.892
21
-59.136
0
LINE
8
Black
10
143.892
20
-59.136
11
144.168
21
-59.136
0
LINE
8
Black
10
144.168
20
-59.136
11
144.428
21
-59.2305
0
LINE
8
Black
10
144.428
20
-59.2305
11
144.64
21
-59.4083
0
LINE
8
Black
10
144.64
20
-59.4083
11
144.778
21
-59.6477
0
LINE
8
Black
10
144.778
20
-59.6477
11
144.826
21
-59.92
0
LINE
8
Black
10
144.826
20
-59.92
11
144.778
21
-60.1923
0
LINE
8
Black
10
144.778
20
-60.1923
11
144.64
21
-60.4317
0
LINE
8
Black
10
144.525
20
-59.5047
11
144.353
21
-59.3605
0
LINE
8
Black
10
144.353
20
-59.3605
11
144.142
21
-59.2837
0
LINE
8
Black
10
144.142
20
-59.2837
11
143.918
21
-59.2837
0
LINE
8
Black
10
143.918
20
-59.2837
11
143.707
21
-59.3605
0
LINE
8
Black
10
143.707
20
-59.3605
11
143.535
21
-59.5047
0
LINE
8
Black
10
143.535
20
-59.5047
11
143.423
21
-59.699
0
LINE
8
Black
10
143.423
20
-59.699
11
143.384
21
-59.92
0
LINE
8
Black
10
143.384
20
-59.92
11
143.423
21
-60.141
0
LINE
8
Black
10
143.423
20
-60.141
11
143.535
21
-60.3353
0
LINE
8
Black
10
143.535
20
-60.3353
11
143.707
21
-60.4795
0
LINE
8
Black
10
143.707
20
-60.4795
11
143.918
21
-60.5563
0
LINE
8
Black
10
143.918
20
-60.5563
11
144.142
21
-60.5563
0
LINE
8
Black
10
144.142
20
-60.5563
11
144.353
21
-60.4795
0
LINE
8
Black
10
144.353
20
-60.4795
11
144.525
21
-60.3353
0
LINE
8
Black
10
144.525
20
-60.3353
11
144.637
21
-60.141
0
LINE
8
Black
10
144.637
20
-60.141
11
144.676
21
-59.92
0
LINE
8
Black
10
144.676
20
-59.92
11
144.637
21
-59.699
0
LINE
8
Black
10
144.637
20
-59.699
11
144.525
21
-59.5047
0
LINE
8
Black
10
88.3591
20
-60.1327
11
88.1511
21
-60.3073
0
LINE
8
Black
10
88.1511
20
-60.3073
11
87.8958
21
-60.4002
0
LINE
8
Black
10
87.8958
20
-60.4002
11
87.6242
21
-60.4002
0
LINE
8
Black
10
87.6242
20
-60.4002
11
87.3689
21
-60.3073
0
LINE
8
Black
10
87.3689
20
-60.3073
11
87.1609
21
-60.1327
0
LINE
8
Black
10
87.1609
20
-60.1327
11
87.0251
21
-59.8975
0
LINE
8
Black
10
87.0251
20
-59.8975
11
86.9779
21
-59.63
0
LINE
8
Black
10
86.9779
20
-59.63
11
87.0251
21
-59.3625
0
LINE
8
Black
10
87.0251
20
-59.3625
11
87.1609
21
-59.1273
0
LINE
8
Black
10
87.1609
20
-59.1273
11
87.3689
21
-58.9527
0
LINE
8
Black
10
87.3689
20
-58.9527
11
87.6242
21
-58.8598
0
LINE
8
Black
10
87.6242
20
-58.8598
11
87.8958
21
-58.8598
0
LINE
8
Black
10
87.8958
20
-58.8598
11
88.1511
21
-58.9527
0
LINE
8
Black
10
88.1511
20
-58.9527
11
88.3591
21
-59.1273
0
LINE
8
Black
10
88.3591
20
-59.1273
11
88.4949
21
-59.3625
0
LINE
8
Black
10
88.4949
20
-59.3625
11
88.5421
21
-59.63
0
LINE
8
Black
10
88.5421
20
-59.63
11
88.4949
21
-59.8975
0
LINE
8
Black
10
88.4949
20
-59.8975
11
88.3591
21
-60.1327
0
LINE
8
Black
10
88.2442
20
-59.2237
11
88.0761
21
-59.0826
0
LINE
8
Black
10
88.0761
20
-59.0826
11
87.8698
21
-59.0075
0
LINE
8
Black
10
87.8698
20
-59.0075
11
87.6502
21
-59.0075
0
LINE
8
Black
10
87.6502
20
-59.0075
11
87.4439
21
-59.0826
0
LINE
8
Black
10
87.4439
20
-59.0826
11
87.2758
21
-59.2237
0
LINE
8
Black
10
87.2758
20
-59.2237
11
87.166
21
-59.4138
0
LINE
8
Black
10
87.166
20
-59.4138
11
87.1279
21
-59.63
0
LINE
8
Black
10
87.1279
20
-59.63
11
87.166
21
-59.8462
0
LINE
8
Black
10
87.166
20
-59.8462
11
87.2758
21
-60.0363
0
LINE
8
Black
10
87.2758
20
-60.0363
11
87.4439
21
-60.1774
0
LINE
8
Black
10
87.4439
20
-60.1774
11
87.6502
21
-60.2525
0
LINE
8
Black
10
87.6502
20
-60.2525
11
87.8698
21
-60.2525
0
LINE
8
Black
10
87.8698
20
-60.2525
11
88.0761
21
-60.1774
0
LINE
8
Black
10
88.0761
20
-60.1774
11
88.2442
21
-60.0363
0
LINE
8
Black
10
88.2442
20
-60.0363
11
88.354
21
-59.8462
0
LINE
8
Black
10
88.354
20
-59.8462
11
88.3921
21
-59.63
0
LINE
8
Black
10
88.3921
20
-59.63
11
88.354
21
-59.4138
0
LINE
8
Black
10
88.354
20
-59.4138
11
88.2442
21
-59.2237
  0
ENDSEC
  0
EOF
