G04 #@! TF.FileFunction,Soldermask,Top*
%FSLAX46Y46*%
G04 Gerber Fmt 4.6, Leading zero omitted, Abs format (unit mm)*
G04 Created by KiCad (PCBNEW 4.0.5+dfsg1-4~bpo8+1) date Mon Dec 18 16:44:26 2017*
%MOMM*%
%LPD*%
G01*
G04 APERTURE LIST*
%ADD10C,0.100000*%
%ADD11R,3.400000X1.700000*%
%ADD12R,0.800000X1.000000*%
%ADD13R,1.600000X2.400000*%
%ADD14R,1.500000X2.400000*%
%ADD15R,1.350000X1.650000*%
%ADD16O,1.350000X1.650000*%
%ADD17R,0.900000X1.000000*%
%ADD18R,1.000000X0.900000*%
%ADD19R,1.197560X1.197560*%
%ADD20R,1.100000X1.700000*%
%ADD21R,0.800000X0.910000*%
%ADD22R,1.000000X0.800000*%
%ADD23R,2.000000X2.400000*%
%ADD24R,2.432000X2.127200*%
%ADD25O,2.432000X2.127200*%
%ADD26O,0.900000X0.650000*%
%ADD27R,1.300000X2.400000*%
G04 APERTURE END LIST*
D10*
D11*
X171640000Y-112480000D03*
X171640000Y-114480000D03*
X171640000Y-116480000D03*
X171640000Y-118480000D03*
X171640000Y-120480000D03*
X171640000Y-122480000D03*
X171640000Y-124480000D03*
X171640000Y-126480000D03*
X155640000Y-126480000D03*
X155640000Y-124480000D03*
X155640000Y-122480000D03*
X155640000Y-120480000D03*
X155640000Y-118480000D03*
X155640000Y-116480000D03*
X155640000Y-114480000D03*
X155640000Y-112480000D03*
D12*
X149510000Y-118580000D03*
X148610000Y-118580000D03*
D13*
X162420000Y-101340000D03*
X167520000Y-101340000D03*
D14*
X164970000Y-101340000D03*
D15*
X123920000Y-122840000D03*
D16*
X122670000Y-122840000D03*
D17*
X128020000Y-123340000D03*
X128020000Y-122240000D03*
X135670000Y-122740000D03*
X135670000Y-121640000D03*
X174370000Y-111090000D03*
X174370000Y-112190000D03*
X150020000Y-111160000D03*
X150020000Y-112260000D03*
X151650000Y-121410000D03*
X151650000Y-120310000D03*
D18*
X150880000Y-118570000D03*
X151980000Y-118570000D03*
D17*
X143520000Y-121340000D03*
X143520000Y-120240000D03*
D18*
X144620000Y-118530000D03*
X143520000Y-118530000D03*
X128970000Y-115540000D03*
X130070000Y-115540000D03*
D19*
X135019300Y-126640000D03*
X133520700Y-126640000D03*
X130420700Y-126640000D03*
X131919300Y-126640000D03*
D20*
X133710000Y-124540000D03*
X135610000Y-124540000D03*
D21*
X149610000Y-120210000D03*
X148610000Y-120210000D03*
X149110000Y-121510000D03*
X146520000Y-120190000D03*
X145520000Y-120190000D03*
X146020000Y-121490000D03*
D12*
X126170000Y-118540000D03*
X127070000Y-118540000D03*
X128970000Y-118540000D03*
X129870000Y-118540000D03*
X137420000Y-126540000D03*
X136520000Y-126540000D03*
X128020000Y-126540000D03*
X128920000Y-126540000D03*
D22*
X151610000Y-111950000D03*
X151610000Y-111050000D03*
D12*
X146770000Y-118570000D03*
X145870000Y-118570000D03*
D23*
X183300000Y-111700000D03*
X183300000Y-117100000D03*
D24*
X188520000Y-118040000D03*
D25*
X188520000Y-120580000D03*
X188520000Y-123120000D03*
X188520000Y-125660000D03*
D26*
X131820000Y-124390000D03*
X131820000Y-123890000D03*
X131820000Y-123390000D03*
X131820000Y-122890000D03*
X131820000Y-122390000D03*
X131820000Y-121890000D03*
X129920000Y-121890000D03*
X129920000Y-122390000D03*
X129920000Y-122890000D03*
X129920000Y-123390000D03*
X129920000Y-123890000D03*
X129920000Y-124390000D03*
D27*
X130870000Y-123140000D03*
M02*
