G04 #@! TF.FileFunction,Copper,L1,Top,Signal*
%FSLAX46Y46*%
G04 Gerber Fmt 4.6, Leading zero omitted, Abs format (unit mm)*
G04 Created by KiCad (PCBNEW 4.0.5+dfsg1-4~bpo8+1) date Mon Dec 18 16:44:26 2017*
%MOMM*%
%LPD*%
G01*
G04 APERTURE LIST*
%ADD10C,0.100000*%
%ADD11C,1.000000*%
%ADD12R,3.000000X1.300000*%
%ADD13R,0.400000X0.600000*%
%ADD14R,1.200000X2.000000*%
%ADD15R,1.100000X2.000000*%
%ADD16R,0.950000X1.250000*%
%ADD17O,0.950000X1.250000*%
%ADD18R,0.500000X0.600000*%
%ADD19R,0.600000X0.500000*%
%ADD20R,0.797560X0.797560*%
%ADD21R,0.700000X1.300000*%
%ADD22R,0.400000X0.510000*%
%ADD23R,0.600000X0.400000*%
%ADD24R,1.600000X2.000000*%
%ADD25R,2.032000X1.727200*%
%ADD26O,2.032000X1.727200*%
%ADD27O,0.500000X0.250000*%
%ADD28R,0.900000X2.000000*%
%ADD29C,0.200000*%
%ADD30C,0.400000*%
%ADD31C,0.300000*%
%ADD32C,1.000000*%
%ADD33C,0.600000*%
%ADD34C,0.800000*%
%ADD35C,0.254000*%
G04 APERTURE END LIST*
D10*
D11*
X180000000Y-110100000D03*
X178200000Y-110100000D03*
X176300000Y-110100000D03*
X137700000Y-110000000D03*
X135700000Y-110000000D03*
X133700000Y-110000000D03*
D12*
X171640000Y-112480000D03*
X171640000Y-114480000D03*
X171640000Y-116480000D03*
X171640000Y-118480000D03*
X171640000Y-120480000D03*
X171640000Y-122480000D03*
X171640000Y-124480000D03*
X171640000Y-126480000D03*
X155640000Y-126480000D03*
X155640000Y-124480000D03*
X155640000Y-122480000D03*
X155640000Y-120480000D03*
X155640000Y-118480000D03*
X155640000Y-116480000D03*
X155640000Y-114480000D03*
X155640000Y-112480000D03*
D13*
X149510000Y-118580000D03*
X148610000Y-118580000D03*
D11*
X166100000Y-112800000D03*
X165500000Y-121300000D03*
X184800000Y-123400000D03*
X126900000Y-111600000D03*
X126800000Y-113200000D03*
X125800000Y-115000000D03*
X122600000Y-118300000D03*
X122600000Y-120100000D03*
X124500000Y-116600000D03*
X122600000Y-116600000D03*
X153100000Y-110100000D03*
X181400000Y-124900000D03*
X176800000Y-124900000D03*
X179100000Y-124900000D03*
X127000000Y-110000000D03*
X164000000Y-123000000D03*
X129300000Y-110000000D03*
X172500000Y-110100000D03*
X131500000Y-110000000D03*
X164000000Y-121400000D03*
D14*
X162420000Y-101340000D03*
X167520000Y-101340000D03*
D15*
X164970000Y-101340000D03*
D16*
X123920000Y-122840000D03*
D17*
X122670000Y-122840000D03*
D18*
X128020000Y-123340000D03*
X128020000Y-122240000D03*
X135670000Y-122740000D03*
X135670000Y-121640000D03*
X174370000Y-111090000D03*
X174370000Y-112190000D03*
X150020000Y-111160000D03*
X150020000Y-112260000D03*
X151650000Y-121410000D03*
X151650000Y-120310000D03*
D19*
X150880000Y-118570000D03*
X151980000Y-118570000D03*
D18*
X143520000Y-121340000D03*
X143520000Y-120240000D03*
D19*
X144620000Y-118530000D03*
X143520000Y-118530000D03*
X128970000Y-115540000D03*
X130070000Y-115540000D03*
D20*
X135019300Y-126640000D03*
X133520700Y-126640000D03*
X130420700Y-126640000D03*
X131919300Y-126640000D03*
D21*
X133710000Y-124540000D03*
X135610000Y-124540000D03*
D22*
X149610000Y-120210000D03*
X148610000Y-120210000D03*
X149110000Y-121510000D03*
X146520000Y-120190000D03*
X145520000Y-120190000D03*
X146020000Y-121490000D03*
D13*
X126170000Y-118540000D03*
X127070000Y-118540000D03*
X128970000Y-118540000D03*
X129870000Y-118540000D03*
X137420000Y-126540000D03*
X136520000Y-126540000D03*
X128020000Y-126540000D03*
X128920000Y-126540000D03*
D23*
X151610000Y-111950000D03*
X151610000Y-111050000D03*
D13*
X146770000Y-118570000D03*
X145870000Y-118570000D03*
D24*
X183300000Y-111700000D03*
X183300000Y-117100000D03*
D25*
X188520000Y-118040000D03*
D26*
X188520000Y-120580000D03*
X188520000Y-123120000D03*
X188520000Y-125660000D03*
D11*
X183600000Y-124900000D03*
D27*
X131820000Y-124390000D03*
X131820000Y-123890000D03*
X131820000Y-123390000D03*
X131820000Y-122890000D03*
X131820000Y-122390000D03*
X131820000Y-121890000D03*
X129920000Y-121890000D03*
X129920000Y-122390000D03*
X129920000Y-122890000D03*
X129920000Y-123390000D03*
X129920000Y-123890000D03*
X129920000Y-124390000D03*
D28*
X130870000Y-123140000D03*
D11*
X126700000Y-121500000D03*
X162400000Y-113800000D03*
X158440000Y-125460000D03*
X165690000Y-123000000D03*
X172540000Y-112490000D03*
X161670000Y-111980000D03*
X151770000Y-114340000D03*
X137380000Y-123970000D03*
X169200000Y-120900000D03*
X145040000Y-123080000D03*
X150740000Y-123860000D03*
X168330000Y-119070000D03*
X166780000Y-116930000D03*
X164000000Y-114700000D03*
X141870000Y-119810000D03*
X141910000Y-122850000D03*
X183290000Y-117060000D03*
X168600000Y-124710000D03*
X159670000Y-120640000D03*
X160400000Y-124200000D03*
X153170000Y-122710000D03*
X151970000Y-123430000D03*
X139910000Y-120910000D03*
X152800000Y-124400000D03*
X150940000Y-116160000D03*
X147930000Y-112610000D03*
X163560000Y-118220000D03*
X174700000Y-122700000D03*
X164040000Y-116880000D03*
X166570000Y-115410000D03*
X155600000Y-126650000D03*
X171650000Y-124480000D03*
X174200000Y-123800000D03*
X174800000Y-120800000D03*
X153280000Y-127070000D03*
X161730000Y-118340000D03*
X169410000Y-123590000D03*
X158160000Y-116460000D03*
D29*
X151610000Y-111050000D02*
X151610000Y-109490000D01*
X159760000Y-101340000D02*
X162420000Y-101340000D01*
X151610000Y-109490000D02*
X159760000Y-101340000D01*
X150020000Y-111160000D02*
X151500000Y-111160000D01*
X151500000Y-111160000D02*
X151610000Y-111050000D01*
X167520000Y-101340000D02*
X168970000Y-101340000D01*
X174370000Y-106740000D02*
X174370000Y-111090000D01*
X168970000Y-101340000D02*
X174370000Y-106740000D01*
D30*
X123920000Y-122840000D02*
X126070000Y-122840000D01*
X126570000Y-123340000D02*
X128020000Y-123340000D01*
X126070000Y-122840000D02*
X126570000Y-123340000D01*
X126170000Y-118540000D02*
X126170000Y-120590000D01*
X126170000Y-120590000D02*
X123920000Y-122840000D01*
X128020000Y-126540000D02*
X128020000Y-123340000D01*
X129920000Y-124390000D02*
X128410000Y-124390000D01*
X128410000Y-124390000D02*
X128020000Y-124000000D01*
D29*
X128020000Y-124000000D02*
X128020000Y-123340000D01*
X131820000Y-124390000D02*
X131820000Y-124470000D01*
D30*
X131820000Y-124470000D02*
X131410000Y-124880000D01*
X131410000Y-124880000D02*
X130410000Y-124880000D01*
X130410000Y-124880000D02*
X129920000Y-124390000D01*
X129920000Y-122390000D02*
X129920000Y-122890000D01*
X128020000Y-123340000D02*
X128910000Y-123340000D01*
X129360000Y-122890000D02*
X129920000Y-122890000D01*
X128910000Y-123340000D02*
X129360000Y-122890000D01*
D31*
X143520000Y-120240000D02*
X143160000Y-120240000D01*
X139430000Y-123970000D02*
X137380000Y-123970000D01*
X143160000Y-120240000D02*
X139430000Y-123970000D01*
D29*
X128020000Y-122240000D02*
X127440000Y-122240000D01*
X127440000Y-122240000D02*
X126700000Y-121500000D01*
X161670000Y-113070000D02*
X161670000Y-111980000D01*
X162400000Y-113800000D02*
X161670000Y-113070000D01*
D32*
X171640000Y-126480000D02*
X180080000Y-126480000D01*
X171640000Y-126480000D02*
X159460000Y-126480000D01*
X159460000Y-126480000D02*
X158440000Y-125460000D01*
D33*
X180200000Y-126400000D02*
X180200000Y-126360000D01*
X180160000Y-126400000D02*
X180200000Y-126400000D01*
X180080000Y-126480000D02*
X180160000Y-126400000D01*
D31*
X165690000Y-123000000D02*
X165690000Y-125810000D01*
X165690000Y-125810000D02*
X166360000Y-126480000D01*
X158440000Y-125460000D02*
X159460000Y-126480000D01*
X159460000Y-126480000D02*
X163500000Y-126480000D01*
X165600000Y-126480000D02*
X166360000Y-126480000D01*
X163500000Y-126480000D02*
X165600000Y-126480000D01*
X166360000Y-126480000D02*
X171640000Y-126480000D01*
X180200000Y-126360000D02*
X188520000Y-118040000D01*
D29*
X172540000Y-112490000D02*
X172530000Y-112480000D01*
X172530000Y-112480000D02*
X171640000Y-112480000D01*
X174370000Y-112190000D02*
X171930000Y-112190000D01*
X171930000Y-112190000D02*
X171640000Y-112480000D01*
X183300000Y-111700000D02*
X183300000Y-111220000D01*
X183300000Y-111220000D02*
X182020000Y-109940000D01*
X175090000Y-112190000D02*
X174370000Y-112190000D01*
X175320000Y-111960000D02*
X175090000Y-112190000D01*
X175320000Y-110590000D02*
X175320000Y-111960000D01*
X175970000Y-109940000D02*
X175320000Y-110590000D01*
X182020000Y-109940000D02*
X175970000Y-109940000D01*
X171640000Y-112480000D02*
X162170000Y-112480000D01*
X162170000Y-112480000D02*
X161670000Y-111980000D01*
X183300000Y-111700000D02*
X183300000Y-112820000D01*
X183300000Y-112820000D02*
X188520000Y-118040000D01*
X157320000Y-114480000D02*
X155640000Y-114480000D01*
X159570000Y-112230000D02*
X157320000Y-114480000D01*
X161420000Y-112230000D02*
X159570000Y-112230000D01*
X161670000Y-111980000D02*
X161420000Y-112230000D01*
X151770000Y-114340000D02*
X151810000Y-114340000D01*
X151980000Y-114510000D02*
X151980000Y-118570000D01*
X151810000Y-114340000D02*
X151980000Y-114510000D01*
X151940000Y-114430000D02*
X151860000Y-114430000D01*
X151860000Y-114430000D02*
X151770000Y-114340000D01*
X150020000Y-112260000D02*
X150020000Y-112510000D01*
X150020000Y-112510000D02*
X151940000Y-114430000D01*
X151940000Y-114430000D02*
X151990000Y-114480000D01*
X151990000Y-114480000D02*
X155640000Y-114480000D01*
X129870000Y-118540000D02*
X129870000Y-115740000D01*
X129870000Y-115740000D02*
X130070000Y-115540000D01*
X129870000Y-118540000D02*
X129870000Y-119880000D01*
X129870000Y-119880000D02*
X131190000Y-121200000D01*
X128020000Y-122240000D02*
X128020000Y-121480000D01*
X128300000Y-121200000D02*
X131190000Y-121200000D01*
X128020000Y-121480000D02*
X128300000Y-121200000D01*
X135670000Y-121640000D02*
X134930000Y-121640000D01*
D34*
X130870000Y-121520000D02*
X130870000Y-123140000D01*
D29*
X131190000Y-121200000D02*
X130870000Y-121520000D01*
X134490000Y-121200000D02*
X131190000Y-121200000D01*
X134930000Y-121640000D02*
X134490000Y-121200000D01*
X122670000Y-122840000D02*
X122670000Y-123570000D01*
X122670000Y-123570000D02*
X124920000Y-125820000D01*
X124920000Y-125820000D02*
X125540000Y-125820000D01*
X125540000Y-125820000D02*
X127050000Y-127330000D01*
X127050000Y-127330000D02*
X131229300Y-127330000D01*
X131229300Y-127330000D02*
X131919300Y-126640000D01*
X131919300Y-126640000D02*
X133520700Y-126640000D01*
X129920000Y-123890000D02*
X130120000Y-123890000D01*
X130120000Y-123890000D02*
X130870000Y-123140000D01*
X131820000Y-123390000D02*
X131120000Y-123390000D01*
X131120000Y-123390000D02*
X130870000Y-123140000D01*
X129920000Y-123390000D02*
X130620000Y-123390000D01*
X130620000Y-123390000D02*
X130870000Y-123140000D01*
X129920000Y-123890000D02*
X129920000Y-123390000D01*
X151650000Y-120310000D02*
X151650000Y-118900000D01*
X151650000Y-118900000D02*
X151980000Y-118570000D01*
D31*
X143520000Y-120240000D02*
X143520000Y-118530000D01*
D33*
X148610000Y-118580000D02*
X148610000Y-117530000D01*
X148600000Y-117540000D02*
X148600000Y-117560000D01*
X148610000Y-117530000D02*
X148600000Y-117540000D01*
X135610000Y-124540000D02*
X135610000Y-122800000D01*
X135610000Y-122800000D02*
X135670000Y-122740000D01*
X135670000Y-122740000D02*
X139560000Y-122740000D01*
X139560000Y-122740000D02*
X141870000Y-120430000D01*
X141870000Y-120430000D02*
X141870000Y-119810000D01*
X150880000Y-118570000D02*
X150880000Y-118080000D01*
X143070000Y-117530000D02*
X141870000Y-118730000D01*
X150330000Y-117530000D02*
X143070000Y-117530000D01*
X150880000Y-118080000D02*
X150330000Y-117530000D01*
X141870000Y-118730000D02*
X141870000Y-119810000D01*
X145520000Y-120190000D02*
X145520000Y-118920000D01*
X145520000Y-118920000D02*
X145870000Y-118570000D01*
X145870000Y-118570000D02*
X145870000Y-118130000D01*
X145870000Y-118130000D02*
X146440000Y-117560000D01*
X144620000Y-118530000D02*
X144620000Y-118280000D01*
X144620000Y-118280000D02*
X145340000Y-117560000D01*
X148610000Y-120210000D02*
X148610000Y-118580000D01*
D31*
X168330000Y-118540000D02*
X168330000Y-119070000D01*
X164000000Y-114700000D02*
X164550000Y-114700000D01*
X164550000Y-114700000D02*
X166780000Y-116930000D01*
X145870000Y-118130000D02*
X146440000Y-117560000D01*
X144620000Y-118280000D02*
X145340000Y-117560000D01*
X148600000Y-117560000D02*
X146440000Y-117560000D01*
X146440000Y-117560000D02*
X145340000Y-117560000D01*
X145340000Y-117560000D02*
X143040000Y-117560000D01*
X143040000Y-117560000D02*
X141870000Y-118730000D01*
X141870000Y-118730000D02*
X141870000Y-119810000D01*
X149870000Y-117560000D02*
X150880000Y-118570000D01*
X148600000Y-117560000D02*
X149870000Y-117560000D01*
X168330000Y-119070000D02*
X168330000Y-120030000D01*
X168330000Y-120030000D02*
X169200000Y-120900000D01*
X164550000Y-114700000D02*
X166780000Y-116930000D01*
X145570000Y-123610000D02*
X145040000Y-123080000D01*
X150490000Y-123610000D02*
X145570000Y-123610000D01*
D29*
X150740000Y-123860000D02*
X150490000Y-123610000D01*
X141870000Y-119810000D02*
X141870000Y-120430000D01*
D30*
X141870000Y-120430000D02*
X139560000Y-122740000D01*
D29*
X166780000Y-116930000D02*
X166780000Y-116990000D01*
D31*
X166780000Y-116990000D02*
X168330000Y-118540000D01*
D30*
X131820000Y-122390000D02*
X135320000Y-122390000D01*
X135320000Y-122390000D02*
X135670000Y-122740000D01*
D29*
X135610000Y-122800000D02*
X135670000Y-122740000D01*
D31*
X145520000Y-118920000D02*
X145870000Y-118570000D01*
D33*
X151650000Y-121410000D02*
X152850000Y-121410000D01*
X153780000Y-120480000D02*
X155640000Y-120480000D01*
X152850000Y-121410000D02*
X153780000Y-120480000D01*
X149110000Y-121510000D02*
X151550000Y-121510000D01*
X151550000Y-121510000D02*
X151650000Y-121410000D01*
D31*
X151650000Y-121410000D02*
X149210000Y-121410000D01*
D29*
X149210000Y-121410000D02*
X149110000Y-121510000D01*
D33*
X143520000Y-121340000D02*
X143420000Y-121340000D01*
X143420000Y-121340000D02*
X141910000Y-122850000D01*
X146020000Y-121490000D02*
X143670000Y-121490000D01*
D31*
X143670000Y-121490000D02*
X143520000Y-121340000D01*
D29*
X136520000Y-126540000D02*
X135119300Y-126540000D01*
X135119300Y-126540000D02*
X135019300Y-126640000D01*
X128920000Y-126540000D02*
X130320700Y-126540000D01*
X130320700Y-126540000D02*
X130420700Y-126640000D01*
D30*
X131820000Y-123890000D02*
X133060000Y-123890000D01*
X133060000Y-123890000D02*
X133710000Y-124540000D01*
D29*
X183290000Y-117060000D02*
X183300000Y-117070000D01*
X160770000Y-120640000D02*
X161760000Y-119650000D01*
X161760000Y-119650000D02*
X166340000Y-119650000D01*
X166340000Y-119650000D02*
X167260000Y-120570000D01*
X167260000Y-120570000D02*
X167260000Y-123370000D01*
X167260000Y-123370000D02*
X168600000Y-124710000D01*
X159670000Y-120640000D02*
X160770000Y-120640000D01*
X160400000Y-124200000D02*
X160300000Y-124200000D01*
X160300000Y-124200000D02*
X159670000Y-123570000D01*
X183300000Y-117070000D02*
X183300000Y-117100000D01*
X159670000Y-120640000D02*
X159670000Y-123570000D01*
X149510000Y-118580000D02*
X149510000Y-120110000D01*
X149510000Y-120110000D02*
X149610000Y-120210000D01*
X149610000Y-120210000D02*
X149610000Y-119970000D01*
X149610000Y-120670000D02*
X149610000Y-120210000D01*
X149440000Y-120840000D02*
X149610000Y-120670000D01*
X148580000Y-120840000D02*
X149440000Y-120840000D01*
X148360000Y-121060000D02*
X148580000Y-120840000D01*
X148360000Y-122170000D02*
X148360000Y-121060000D01*
X148720000Y-122530000D02*
X148360000Y-122170000D01*
X152990000Y-122530000D02*
X148720000Y-122530000D01*
X153170000Y-122710000D02*
X152990000Y-122530000D01*
X147360000Y-121030000D02*
X146520000Y-120190000D01*
X147360000Y-122140000D02*
X147360000Y-121030000D01*
X148300000Y-123080000D02*
X147360000Y-122140000D01*
X151620000Y-123080000D02*
X148300000Y-123080000D01*
X151970000Y-123430000D02*
X151620000Y-123080000D01*
D31*
X146520000Y-120190000D02*
X146520000Y-118820000D01*
X146520000Y-118820000D02*
X146770000Y-118570000D01*
D29*
X131810000Y-120760000D02*
X139760000Y-120760000D01*
X139760000Y-120760000D02*
X139910000Y-120910000D01*
X129100000Y-114730000D02*
X128970000Y-114860000D01*
X130430000Y-114730000D02*
X129100000Y-114730000D01*
X130710000Y-115010000D02*
X130430000Y-114730000D01*
X130710000Y-119660000D02*
X130710000Y-115010000D01*
X131810000Y-120760000D02*
X130710000Y-119660000D01*
X128970000Y-114860000D02*
X128970000Y-115540000D01*
X139910000Y-120910000D02*
X139760000Y-120760000D01*
X128970000Y-115540000D02*
X128970000Y-118540000D01*
X127070000Y-118540000D02*
X128970000Y-118540000D01*
X138760000Y-125200000D02*
X137420000Y-126540000D01*
X152000000Y-125200000D02*
X138760000Y-125200000D01*
X152800000Y-124400000D02*
X152000000Y-125200000D01*
X147930000Y-112610000D02*
X148730000Y-112610000D01*
X150940000Y-114820000D02*
X150940000Y-116160000D01*
X148730000Y-112610000D02*
X150940000Y-114820000D01*
X161020000Y-117510000D02*
X162850000Y-117510000D01*
X162850000Y-117510000D02*
X163560000Y-118220000D01*
X160765000Y-117765000D02*
X161020000Y-117510000D01*
X160050000Y-118480000D02*
X155640000Y-118480000D01*
X160765000Y-117765000D02*
X160050000Y-118480000D01*
X174700000Y-122700000D02*
X172480000Y-120480000D01*
X172480000Y-120480000D02*
X171640000Y-120480000D01*
X171050000Y-120480000D02*
X171640000Y-120480000D01*
X155640000Y-116480000D02*
X156840000Y-116480000D01*
X156840000Y-116480000D02*
X158290000Y-117930000D01*
X160890000Y-116880000D02*
X164040000Y-116880000D01*
X159840000Y-117930000D02*
X160890000Y-116880000D01*
X158290000Y-117930000D02*
X159840000Y-117930000D01*
X167500000Y-114480000D02*
X171640000Y-114480000D01*
X166570000Y-115410000D02*
X167500000Y-114480000D01*
X155600000Y-126650000D02*
X155640000Y-126610000D01*
X155640000Y-126610000D02*
X155640000Y-126480000D01*
X171650000Y-124480000D02*
X171640000Y-124480000D01*
X174200000Y-123800000D02*
X172880000Y-122480000D01*
X172880000Y-122480000D02*
X171640000Y-122480000D01*
X171730000Y-122480000D02*
X171640000Y-122480000D01*
X173780000Y-118480000D02*
X171640000Y-118480000D01*
X174700000Y-119400000D02*
X173780000Y-118480000D01*
X174700000Y-120700000D02*
X174700000Y-119400000D01*
X174800000Y-120800000D02*
X174700000Y-120700000D01*
X170430000Y-118480000D02*
X171640000Y-118480000D01*
X153940000Y-124480000D02*
X155640000Y-124480000D01*
X153480000Y-124940000D02*
X153940000Y-124480000D01*
X153480000Y-126870000D02*
X153480000Y-124940000D01*
X153280000Y-127070000D02*
X153480000Y-126870000D01*
X157060000Y-124480000D02*
X155640000Y-124480000D01*
X156470000Y-124480000D02*
X155640000Y-124480000D01*
X159840000Y-119210000D02*
X160860000Y-119210000D01*
X160860000Y-119210000D02*
X161730000Y-118340000D01*
X155640000Y-122480000D02*
X157870000Y-122480000D01*
X158700000Y-120350000D02*
X159840000Y-119210000D01*
X158700000Y-121650000D02*
X158700000Y-120350000D01*
X157870000Y-122480000D02*
X158700000Y-121650000D01*
X151610000Y-111950000D02*
X155110000Y-111950000D01*
X155110000Y-111950000D02*
X155640000Y-112480000D01*
X169410000Y-123590000D02*
X169410000Y-123410000D01*
X167700000Y-121700000D02*
X167700000Y-120000000D01*
X167700000Y-120000000D02*
X165180000Y-117480000D01*
X165180000Y-117480000D02*
X165180000Y-116490000D01*
X165180000Y-116490000D02*
X164695000Y-116005000D01*
X158615000Y-116005000D02*
X158160000Y-116460000D01*
X164695000Y-116005000D02*
X158615000Y-116005000D01*
X169410000Y-123410000D02*
X167700000Y-121700000D01*
D35*
G36*
X185912229Y-109429860D02*
X185885222Y-109523302D01*
X185736143Y-111272773D01*
X185765840Y-111538392D01*
X186297603Y-113211744D01*
X186426687Y-113445779D01*
X187558335Y-114788258D01*
X187736139Y-114930301D01*
X187767155Y-114955079D01*
X189326407Y-115762305D01*
X189583171Y-115836516D01*
X190705804Y-115932180D01*
X190705804Y-127349399D01*
X173736441Y-127349399D01*
X173775000Y-127256310D01*
X173775000Y-126765750D01*
X173616250Y-126607000D01*
X171767000Y-126607000D01*
X171767000Y-126627000D01*
X171513000Y-126627000D01*
X171513000Y-126607000D01*
X169663750Y-126607000D01*
X169505000Y-126765750D01*
X169505000Y-127256310D01*
X169543559Y-127349399D01*
X157743011Y-127349399D01*
X157787440Y-127130000D01*
X157787440Y-125830000D01*
X157743162Y-125594683D01*
X157669380Y-125480022D01*
X157736431Y-125381890D01*
X157787440Y-125130000D01*
X157787440Y-124518006D01*
X157795000Y-124480000D01*
X157787440Y-124441994D01*
X157787440Y-123830000D01*
X157743162Y-123594683D01*
X157669380Y-123480022D01*
X157736431Y-123381890D01*
X157770227Y-123215000D01*
X157870000Y-123215000D01*
X158151272Y-123159051D01*
X158389723Y-122999723D01*
X158935000Y-122454447D01*
X158935000Y-123570000D01*
X158987958Y-123836235D01*
X158990949Y-123851272D01*
X159150277Y-124089723D01*
X159264995Y-124204441D01*
X159264803Y-124424775D01*
X159437233Y-124842086D01*
X159756235Y-125161645D01*
X160173244Y-125334803D01*
X160624775Y-125335197D01*
X161042086Y-125162767D01*
X161361645Y-124843765D01*
X161534803Y-124426756D01*
X161535197Y-123975225D01*
X161362767Y-123557914D01*
X161043765Y-123238355D01*
X160626756Y-123065197D01*
X160405000Y-123065003D01*
X160405000Y-121510015D01*
X160540251Y-121375000D01*
X160770000Y-121375000D01*
X161051272Y-121319051D01*
X161289723Y-121159723D01*
X162064447Y-120385000D01*
X166035554Y-120385000D01*
X166525000Y-120874447D01*
X166525000Y-123370000D01*
X166573026Y-123611439D01*
X166580949Y-123651272D01*
X166740277Y-123889723D01*
X167465082Y-124614529D01*
X167464803Y-124934775D01*
X167637233Y-125352086D01*
X167956235Y-125671645D01*
X168373244Y-125844803D01*
X168824775Y-125845197D01*
X169242086Y-125672767D01*
X169542014Y-125373361D01*
X169603328Y-125468646D01*
X169601673Y-125470301D01*
X169505000Y-125703690D01*
X169505000Y-126194250D01*
X169663750Y-126353000D01*
X171513000Y-126353000D01*
X171513000Y-126333000D01*
X171767000Y-126333000D01*
X171767000Y-126353000D01*
X173616250Y-126353000D01*
X173775000Y-126194250D01*
X173775000Y-125703690D01*
X173678327Y-125470301D01*
X173676958Y-125468932D01*
X173736431Y-125381890D01*
X173787440Y-125130000D01*
X173787440Y-124857650D01*
X173973244Y-124934803D01*
X174424775Y-124935197D01*
X174842086Y-124762767D01*
X175161645Y-124443765D01*
X175334803Y-124026756D01*
X175335118Y-123665646D01*
X175342086Y-123662767D01*
X175661645Y-123343765D01*
X175834803Y-122926756D01*
X175835197Y-122475225D01*
X175662767Y-122057914D01*
X175389730Y-121784400D01*
X175442086Y-121762767D01*
X175761645Y-121443765D01*
X175934803Y-121026756D01*
X175935192Y-120580000D01*
X186836655Y-120580000D01*
X186950729Y-121153489D01*
X187275585Y-121639670D01*
X187590366Y-121850000D01*
X187275585Y-122060330D01*
X186950729Y-122546511D01*
X186836655Y-123120000D01*
X186950729Y-123693489D01*
X187275585Y-124179670D01*
X187590366Y-124390000D01*
X187275585Y-124600330D01*
X186950729Y-125086511D01*
X186836655Y-125660000D01*
X186950729Y-126233489D01*
X187275585Y-126719670D01*
X187761766Y-127044526D01*
X188335255Y-127158600D01*
X188704745Y-127158600D01*
X189278234Y-127044526D01*
X189764415Y-126719670D01*
X190089271Y-126233489D01*
X190203345Y-125660000D01*
X190089271Y-125086511D01*
X189764415Y-124600330D01*
X189449634Y-124390000D01*
X189764415Y-124179670D01*
X190089271Y-123693489D01*
X190203345Y-123120000D01*
X190089271Y-122546511D01*
X189764415Y-122060330D01*
X189449634Y-121850000D01*
X189764415Y-121639670D01*
X190089271Y-121153489D01*
X190203345Y-120580000D01*
X190089271Y-120006511D01*
X189764415Y-119520330D01*
X189742220Y-119505500D01*
X189895698Y-119441927D01*
X190074327Y-119263299D01*
X190171000Y-119029910D01*
X190171000Y-118325750D01*
X190012250Y-118167000D01*
X188647000Y-118167000D01*
X188647000Y-118187000D01*
X188393000Y-118187000D01*
X188393000Y-118167000D01*
X187027750Y-118167000D01*
X186869000Y-118325750D01*
X186869000Y-119029910D01*
X186965673Y-119263299D01*
X187144302Y-119441927D01*
X187297780Y-119505500D01*
X187275585Y-119520330D01*
X186950729Y-120006511D01*
X186836655Y-120580000D01*
X175935192Y-120580000D01*
X175935197Y-120575225D01*
X175762767Y-120157914D01*
X175443765Y-119838355D01*
X175435000Y-119834715D01*
X175435000Y-119400000D01*
X175384044Y-119143827D01*
X175379051Y-119118727D01*
X175219723Y-118880276D01*
X174299723Y-117960277D01*
X174061272Y-117800949D01*
X173780000Y-117745000D01*
X173771446Y-117745000D01*
X173743162Y-117594683D01*
X173669380Y-117480022D01*
X173736431Y-117381890D01*
X173787440Y-117130000D01*
X173787440Y-115830000D01*
X173743162Y-115594683D01*
X173676932Y-115491758D01*
X175705804Y-115491758D01*
X175872127Y-116327921D01*
X176345776Y-117036786D01*
X177054641Y-117510435D01*
X177890804Y-117676758D01*
X178726967Y-117510435D01*
X179435832Y-117036786D01*
X179909481Y-116327921D01*
X179954817Y-116100000D01*
X181852560Y-116100000D01*
X181852560Y-118100000D01*
X181896838Y-118335317D01*
X182035910Y-118551441D01*
X182248110Y-118696431D01*
X182500000Y-118747440D01*
X184100000Y-118747440D01*
X184335317Y-118703162D01*
X184551441Y-118564090D01*
X184696431Y-118351890D01*
X184747440Y-118100000D01*
X184747440Y-117050090D01*
X186869000Y-117050090D01*
X186869000Y-117754250D01*
X187027750Y-117913000D01*
X188393000Y-117913000D01*
X188393000Y-116700150D01*
X188647000Y-116700150D01*
X188647000Y-117913000D01*
X190012250Y-117913000D01*
X190171000Y-117754250D01*
X190171000Y-117050090D01*
X190074327Y-116816701D01*
X189895698Y-116638073D01*
X189662309Y-116541400D01*
X188805750Y-116541400D01*
X188647000Y-116700150D01*
X188393000Y-116700150D01*
X188234250Y-116541400D01*
X187377691Y-116541400D01*
X187144302Y-116638073D01*
X186965673Y-116816701D01*
X186869000Y-117050090D01*
X184747440Y-117050090D01*
X184747440Y-116100000D01*
X184703162Y-115864683D01*
X184564090Y-115648559D01*
X184351890Y-115503569D01*
X184100000Y-115452560D01*
X182500000Y-115452560D01*
X182264683Y-115496838D01*
X182048559Y-115635910D01*
X181903569Y-115848110D01*
X181852560Y-116100000D01*
X179954817Y-116100000D01*
X180075804Y-115491758D01*
X179909481Y-114655595D01*
X179435832Y-113946730D01*
X178726967Y-113473081D01*
X177890804Y-113306758D01*
X177054641Y-113473081D01*
X176345776Y-113946730D01*
X175872127Y-114655595D01*
X175705804Y-115491758D01*
X173676932Y-115491758D01*
X173669380Y-115480022D01*
X173736431Y-115381890D01*
X173787440Y-115130000D01*
X173787440Y-113830000D01*
X173743162Y-113594683D01*
X173676672Y-113491354D01*
X173678327Y-113489699D01*
X173775000Y-113256310D01*
X173775000Y-113034416D01*
X173993690Y-113125000D01*
X174086250Y-113125000D01*
X174245000Y-112966250D01*
X174245000Y-112317000D01*
X174495000Y-112317000D01*
X174495000Y-112966250D01*
X174653750Y-113125000D01*
X174746310Y-113125000D01*
X174979699Y-113028327D01*
X175158327Y-112849698D01*
X175255000Y-112616309D01*
X175255000Y-112475750D01*
X175096250Y-112317000D01*
X174495000Y-112317000D01*
X174245000Y-112317000D01*
X174223000Y-112317000D01*
X174223000Y-112063000D01*
X174245000Y-112063000D01*
X174245000Y-112043000D01*
X174495000Y-112043000D01*
X174495000Y-112063000D01*
X175096250Y-112063000D01*
X175173500Y-111985750D01*
X181865000Y-111985750D01*
X181865000Y-112826309D01*
X181961673Y-113059698D01*
X182140301Y-113238327D01*
X182373690Y-113335000D01*
X183014250Y-113335000D01*
X183173000Y-113176250D01*
X183173000Y-111827000D01*
X183427000Y-111827000D01*
X183427000Y-113176250D01*
X183585750Y-113335000D01*
X184226310Y-113335000D01*
X184459699Y-113238327D01*
X184638327Y-113059698D01*
X184735000Y-112826309D01*
X184735000Y-111985750D01*
X184576250Y-111827000D01*
X183427000Y-111827000D01*
X183173000Y-111827000D01*
X182023750Y-111827000D01*
X181865000Y-111985750D01*
X175173500Y-111985750D01*
X175255000Y-111904250D01*
X175255000Y-111763691D01*
X175209033Y-111652717D01*
X175216431Y-111641890D01*
X175267440Y-111390000D01*
X175267440Y-110790000D01*
X175226739Y-110573691D01*
X181865000Y-110573691D01*
X181865000Y-111414250D01*
X182023750Y-111573000D01*
X183173000Y-111573000D01*
X183173000Y-110223750D01*
X183427000Y-110223750D01*
X183427000Y-111573000D01*
X184576250Y-111573000D01*
X184735000Y-111414250D01*
X184735000Y-110573691D01*
X184638327Y-110340302D01*
X184459699Y-110161673D01*
X184226310Y-110065000D01*
X183585750Y-110065000D01*
X183427000Y-110223750D01*
X183173000Y-110223750D01*
X183014250Y-110065000D01*
X182373690Y-110065000D01*
X182140301Y-110161673D01*
X181961673Y-110340302D01*
X181865000Y-110573691D01*
X175226739Y-110573691D01*
X175223162Y-110554683D01*
X175105000Y-110371054D01*
X175105000Y-109327000D01*
X185941958Y-109327000D01*
X185912229Y-109429860D01*
X185912229Y-109429860D01*
G37*
X185912229Y-109429860D02*
X185885222Y-109523302D01*
X185736143Y-111272773D01*
X185765840Y-111538392D01*
X186297603Y-113211744D01*
X186426687Y-113445779D01*
X187558335Y-114788258D01*
X187736139Y-114930301D01*
X187767155Y-114955079D01*
X189326407Y-115762305D01*
X189583171Y-115836516D01*
X190705804Y-115932180D01*
X190705804Y-127349399D01*
X173736441Y-127349399D01*
X173775000Y-127256310D01*
X173775000Y-126765750D01*
X173616250Y-126607000D01*
X171767000Y-126607000D01*
X171767000Y-126627000D01*
X171513000Y-126627000D01*
X171513000Y-126607000D01*
X169663750Y-126607000D01*
X169505000Y-126765750D01*
X169505000Y-127256310D01*
X169543559Y-127349399D01*
X157743011Y-127349399D01*
X157787440Y-127130000D01*
X157787440Y-125830000D01*
X157743162Y-125594683D01*
X157669380Y-125480022D01*
X157736431Y-125381890D01*
X157787440Y-125130000D01*
X157787440Y-124518006D01*
X157795000Y-124480000D01*
X157787440Y-124441994D01*
X157787440Y-123830000D01*
X157743162Y-123594683D01*
X157669380Y-123480022D01*
X157736431Y-123381890D01*
X157770227Y-123215000D01*
X157870000Y-123215000D01*
X158151272Y-123159051D01*
X158389723Y-122999723D01*
X158935000Y-122454447D01*
X158935000Y-123570000D01*
X158987958Y-123836235D01*
X158990949Y-123851272D01*
X159150277Y-124089723D01*
X159264995Y-124204441D01*
X159264803Y-124424775D01*
X159437233Y-124842086D01*
X159756235Y-125161645D01*
X160173244Y-125334803D01*
X160624775Y-125335197D01*
X161042086Y-125162767D01*
X161361645Y-124843765D01*
X161534803Y-124426756D01*
X161535197Y-123975225D01*
X161362767Y-123557914D01*
X161043765Y-123238355D01*
X160626756Y-123065197D01*
X160405000Y-123065003D01*
X160405000Y-121510015D01*
X160540251Y-121375000D01*
X160770000Y-121375000D01*
X161051272Y-121319051D01*
X161289723Y-121159723D01*
X162064447Y-120385000D01*
X166035554Y-120385000D01*
X166525000Y-120874447D01*
X166525000Y-123370000D01*
X166573026Y-123611439D01*
X166580949Y-123651272D01*
X166740277Y-123889723D01*
X167465082Y-124614529D01*
X167464803Y-124934775D01*
X167637233Y-125352086D01*
X167956235Y-125671645D01*
X168373244Y-125844803D01*
X168824775Y-125845197D01*
X169242086Y-125672767D01*
X169542014Y-125373361D01*
X169603328Y-125468646D01*
X169601673Y-125470301D01*
X169505000Y-125703690D01*
X169505000Y-126194250D01*
X169663750Y-126353000D01*
X171513000Y-126353000D01*
X171513000Y-126333000D01*
X171767000Y-126333000D01*
X171767000Y-126353000D01*
X173616250Y-126353000D01*
X173775000Y-126194250D01*
X173775000Y-125703690D01*
X173678327Y-125470301D01*
X173676958Y-125468932D01*
X173736431Y-125381890D01*
X173787440Y-125130000D01*
X173787440Y-124857650D01*
X173973244Y-124934803D01*
X174424775Y-124935197D01*
X174842086Y-124762767D01*
X175161645Y-124443765D01*
X175334803Y-124026756D01*
X175335118Y-123665646D01*
X175342086Y-123662767D01*
X175661645Y-123343765D01*
X175834803Y-122926756D01*
X175835197Y-122475225D01*
X175662767Y-122057914D01*
X175389730Y-121784400D01*
X175442086Y-121762767D01*
X175761645Y-121443765D01*
X175934803Y-121026756D01*
X175935192Y-120580000D01*
X186836655Y-120580000D01*
X186950729Y-121153489D01*
X187275585Y-121639670D01*
X187590366Y-121850000D01*
X187275585Y-122060330D01*
X186950729Y-122546511D01*
X186836655Y-123120000D01*
X186950729Y-123693489D01*
X187275585Y-124179670D01*
X187590366Y-124390000D01*
X187275585Y-124600330D01*
X186950729Y-125086511D01*
X186836655Y-125660000D01*
X186950729Y-126233489D01*
X187275585Y-126719670D01*
X187761766Y-127044526D01*
X188335255Y-127158600D01*
X188704745Y-127158600D01*
X189278234Y-127044526D01*
X189764415Y-126719670D01*
X190089271Y-126233489D01*
X190203345Y-125660000D01*
X190089271Y-125086511D01*
X189764415Y-124600330D01*
X189449634Y-124390000D01*
X189764415Y-124179670D01*
X190089271Y-123693489D01*
X190203345Y-123120000D01*
X190089271Y-122546511D01*
X189764415Y-122060330D01*
X189449634Y-121850000D01*
X189764415Y-121639670D01*
X190089271Y-121153489D01*
X190203345Y-120580000D01*
X190089271Y-120006511D01*
X189764415Y-119520330D01*
X189742220Y-119505500D01*
X189895698Y-119441927D01*
X190074327Y-119263299D01*
X190171000Y-119029910D01*
X190171000Y-118325750D01*
X190012250Y-118167000D01*
X188647000Y-118167000D01*
X188647000Y-118187000D01*
X188393000Y-118187000D01*
X188393000Y-118167000D01*
X187027750Y-118167000D01*
X186869000Y-118325750D01*
X186869000Y-119029910D01*
X186965673Y-119263299D01*
X187144302Y-119441927D01*
X187297780Y-119505500D01*
X187275585Y-119520330D01*
X186950729Y-120006511D01*
X186836655Y-120580000D01*
X175935192Y-120580000D01*
X175935197Y-120575225D01*
X175762767Y-120157914D01*
X175443765Y-119838355D01*
X175435000Y-119834715D01*
X175435000Y-119400000D01*
X175384044Y-119143827D01*
X175379051Y-119118727D01*
X175219723Y-118880276D01*
X174299723Y-117960277D01*
X174061272Y-117800949D01*
X173780000Y-117745000D01*
X173771446Y-117745000D01*
X173743162Y-117594683D01*
X173669380Y-117480022D01*
X173736431Y-117381890D01*
X173787440Y-117130000D01*
X173787440Y-115830000D01*
X173743162Y-115594683D01*
X173676932Y-115491758D01*
X175705804Y-115491758D01*
X175872127Y-116327921D01*
X176345776Y-117036786D01*
X177054641Y-117510435D01*
X177890804Y-117676758D01*
X178726967Y-117510435D01*
X179435832Y-117036786D01*
X179909481Y-116327921D01*
X179954817Y-116100000D01*
X181852560Y-116100000D01*
X181852560Y-118100000D01*
X181896838Y-118335317D01*
X182035910Y-118551441D01*
X182248110Y-118696431D01*
X182500000Y-118747440D01*
X184100000Y-118747440D01*
X184335317Y-118703162D01*
X184551441Y-118564090D01*
X184696431Y-118351890D01*
X184747440Y-118100000D01*
X184747440Y-117050090D01*
X186869000Y-117050090D01*
X186869000Y-117754250D01*
X187027750Y-117913000D01*
X188393000Y-117913000D01*
X188393000Y-116700150D01*
X188647000Y-116700150D01*
X188647000Y-117913000D01*
X190012250Y-117913000D01*
X190171000Y-117754250D01*
X190171000Y-117050090D01*
X190074327Y-116816701D01*
X189895698Y-116638073D01*
X189662309Y-116541400D01*
X188805750Y-116541400D01*
X188647000Y-116700150D01*
X188393000Y-116700150D01*
X188234250Y-116541400D01*
X187377691Y-116541400D01*
X187144302Y-116638073D01*
X186965673Y-116816701D01*
X186869000Y-117050090D01*
X184747440Y-117050090D01*
X184747440Y-116100000D01*
X184703162Y-115864683D01*
X184564090Y-115648559D01*
X184351890Y-115503569D01*
X184100000Y-115452560D01*
X182500000Y-115452560D01*
X182264683Y-115496838D01*
X182048559Y-115635910D01*
X181903569Y-115848110D01*
X181852560Y-116100000D01*
X179954817Y-116100000D01*
X180075804Y-115491758D01*
X179909481Y-114655595D01*
X179435832Y-113946730D01*
X178726967Y-113473081D01*
X177890804Y-113306758D01*
X177054641Y-113473081D01*
X176345776Y-113946730D01*
X175872127Y-114655595D01*
X175705804Y-115491758D01*
X173676932Y-115491758D01*
X173669380Y-115480022D01*
X173736431Y-115381890D01*
X173787440Y-115130000D01*
X173787440Y-113830000D01*
X173743162Y-113594683D01*
X173676672Y-113491354D01*
X173678327Y-113489699D01*
X173775000Y-113256310D01*
X173775000Y-113034416D01*
X173993690Y-113125000D01*
X174086250Y-113125000D01*
X174245000Y-112966250D01*
X174245000Y-112317000D01*
X174495000Y-112317000D01*
X174495000Y-112966250D01*
X174653750Y-113125000D01*
X174746310Y-113125000D01*
X174979699Y-113028327D01*
X175158327Y-112849698D01*
X175255000Y-112616309D01*
X175255000Y-112475750D01*
X175096250Y-112317000D01*
X174495000Y-112317000D01*
X174245000Y-112317000D01*
X174223000Y-112317000D01*
X174223000Y-112063000D01*
X174245000Y-112063000D01*
X174245000Y-112043000D01*
X174495000Y-112043000D01*
X174495000Y-112063000D01*
X175096250Y-112063000D01*
X175173500Y-111985750D01*
X181865000Y-111985750D01*
X181865000Y-112826309D01*
X181961673Y-113059698D01*
X182140301Y-113238327D01*
X182373690Y-113335000D01*
X183014250Y-113335000D01*
X183173000Y-113176250D01*
X183173000Y-111827000D01*
X183427000Y-111827000D01*
X183427000Y-113176250D01*
X183585750Y-113335000D01*
X184226310Y-113335000D01*
X184459699Y-113238327D01*
X184638327Y-113059698D01*
X184735000Y-112826309D01*
X184735000Y-111985750D01*
X184576250Y-111827000D01*
X183427000Y-111827000D01*
X183173000Y-111827000D01*
X182023750Y-111827000D01*
X181865000Y-111985750D01*
X175173500Y-111985750D01*
X175255000Y-111904250D01*
X175255000Y-111763691D01*
X175209033Y-111652717D01*
X175216431Y-111641890D01*
X175267440Y-111390000D01*
X175267440Y-110790000D01*
X175226739Y-110573691D01*
X181865000Y-110573691D01*
X181865000Y-111414250D01*
X182023750Y-111573000D01*
X183173000Y-111573000D01*
X183173000Y-110223750D01*
X183427000Y-110223750D01*
X183427000Y-111573000D01*
X184576250Y-111573000D01*
X184735000Y-111414250D01*
X184735000Y-110573691D01*
X184638327Y-110340302D01*
X184459699Y-110161673D01*
X184226310Y-110065000D01*
X183585750Y-110065000D01*
X183427000Y-110223750D01*
X183173000Y-110223750D01*
X183014250Y-110065000D01*
X182373690Y-110065000D01*
X182140301Y-110161673D01*
X181961673Y-110340302D01*
X181865000Y-110573691D01*
X175226739Y-110573691D01*
X175223162Y-110554683D01*
X175105000Y-110371054D01*
X175105000Y-109327000D01*
X185941958Y-109327000D01*
X185912229Y-109429860D01*
G36*
X150875000Y-109490000D02*
X150875000Y-110375331D01*
X150858559Y-110385910D01*
X150831850Y-110425000D01*
X150744669Y-110425000D01*
X150734090Y-110408559D01*
X150521890Y-110263569D01*
X150270000Y-110212560D01*
X149770000Y-110212560D01*
X149534683Y-110256838D01*
X149318559Y-110395910D01*
X149173569Y-110608110D01*
X149122560Y-110860000D01*
X149122560Y-111460000D01*
X149166838Y-111695317D01*
X149182339Y-111719406D01*
X149135000Y-111833691D01*
X149135000Y-111974250D01*
X149293748Y-112132998D01*
X149292444Y-112132998D01*
X149249723Y-112090277D01*
X149011272Y-111930949D01*
X148817362Y-111892378D01*
X148573765Y-111648355D01*
X148156756Y-111475197D01*
X147705225Y-111474803D01*
X147287914Y-111647233D01*
X146968355Y-111966235D01*
X146795197Y-112383244D01*
X146794803Y-112834775D01*
X146967233Y-113252086D01*
X147286235Y-113571645D01*
X147703244Y-113744803D01*
X148154775Y-113745197D01*
X148572086Y-113572767D01*
X148612739Y-113532185D01*
X150205000Y-115124447D01*
X150205000Y-115289985D01*
X149978355Y-115516235D01*
X149805197Y-115933244D01*
X149804803Y-116384775D01*
X149891667Y-116595000D01*
X143070000Y-116595000D01*
X142712191Y-116666173D01*
X142408855Y-116868855D01*
X141208855Y-118068855D01*
X141006173Y-118372191D01*
X140935000Y-118730000D01*
X140935000Y-119139636D01*
X140908355Y-119166235D01*
X140735197Y-119583244D01*
X140734803Y-120034775D01*
X140795657Y-120182053D01*
X140791353Y-120186357D01*
X140553765Y-119948355D01*
X140136756Y-119775197D01*
X139685225Y-119774803D01*
X139267914Y-119947233D01*
X139190011Y-120025000D01*
X132114447Y-120025000D01*
X131445000Y-119355554D01*
X131445000Y-115491758D01*
X131705804Y-115491758D01*
X131872127Y-116327921D01*
X132345776Y-117036786D01*
X133054641Y-117510435D01*
X133890804Y-117676758D01*
X134726967Y-117510435D01*
X135435832Y-117036786D01*
X135909481Y-116327921D01*
X136075804Y-115491758D01*
X135909481Y-114655595D01*
X135435832Y-113946730D01*
X134726967Y-113473081D01*
X133890804Y-113306758D01*
X133054641Y-113473081D01*
X132345776Y-113946730D01*
X131872127Y-114655595D01*
X131705804Y-115491758D01*
X131445000Y-115491758D01*
X131445000Y-115010000D01*
X131389051Y-114728728D01*
X131366350Y-114694754D01*
X131229724Y-114490277D01*
X130949723Y-114210277D01*
X130711272Y-114050949D01*
X130430000Y-113995000D01*
X129100000Y-113995000D01*
X128818728Y-114050949D01*
X128580277Y-114210276D01*
X128450277Y-114340277D01*
X128290949Y-114578728D01*
X128245190Y-114808774D01*
X128218559Y-114825910D01*
X128073569Y-115038110D01*
X128022560Y-115290000D01*
X128022560Y-115790000D01*
X128066838Y-116025317D01*
X128205910Y-116241441D01*
X128235000Y-116261317D01*
X128235000Y-117805000D01*
X127744669Y-117805000D01*
X127734090Y-117788559D01*
X127521890Y-117643569D01*
X127270000Y-117592560D01*
X126870000Y-117592560D01*
X126634683Y-117636838D01*
X126623021Y-117644342D01*
X126621890Y-117643569D01*
X126370000Y-117592560D01*
X125970000Y-117592560D01*
X125734683Y-117636838D01*
X125518559Y-117775910D01*
X125373569Y-117988110D01*
X125322560Y-118240000D01*
X125322560Y-118840000D01*
X125335000Y-118906113D01*
X125335000Y-120244131D01*
X124011572Y-121567560D01*
X123445000Y-121567560D01*
X123209683Y-121611838D01*
X123097174Y-121684235D01*
X122967938Y-121620732D01*
X122797000Y-121747266D01*
X122797000Y-122713000D01*
X122797560Y-122713000D01*
X122797560Y-122967000D01*
X122797000Y-122967000D01*
X122797000Y-123932734D01*
X122967938Y-124059268D01*
X123097075Y-123995813D01*
X123193110Y-124061431D01*
X123445000Y-124112440D01*
X124395000Y-124112440D01*
X124630317Y-124068162D01*
X124846441Y-123929090D01*
X124991431Y-123716890D01*
X124999914Y-123675000D01*
X125724132Y-123675000D01*
X125979566Y-123930434D01*
X126250460Y-124111440D01*
X126570000Y-124175000D01*
X127185000Y-124175000D01*
X127185000Y-126178569D01*
X127172560Y-126240000D01*
X127172560Y-126840000D01*
X127216838Y-127075317D01*
X127355910Y-127291441D01*
X127440734Y-127349399D01*
X121075804Y-127349399D01*
X121075804Y-123141131D01*
X121568771Y-123141131D01*
X121710432Y-123551049D01*
X121998179Y-123875552D01*
X122372062Y-124059268D01*
X122543000Y-123932734D01*
X122543000Y-122967000D01*
X121717437Y-122967000D01*
X121568771Y-123141131D01*
X121075804Y-123141131D01*
X121075804Y-122538869D01*
X121568771Y-122538869D01*
X121717437Y-122713000D01*
X122543000Y-122713000D01*
X122543000Y-121747266D01*
X122372062Y-121620732D01*
X121998179Y-121804448D01*
X121710432Y-122128951D01*
X121568771Y-122538869D01*
X121075804Y-122538869D01*
X121075804Y-115956314D01*
X121844816Y-115919797D01*
X121962262Y-115890582D01*
X122080711Y-115865801D01*
X123696143Y-115177868D01*
X123916893Y-115027187D01*
X125146100Y-113773420D01*
X125292383Y-113549732D01*
X125948225Y-111921006D01*
X125997772Y-111658364D01*
X125980404Y-109902637D01*
X125979096Y-109896387D01*
X125925671Y-109641027D01*
X125791942Y-109327000D01*
X150907423Y-109327000D01*
X150875000Y-109490000D01*
X150875000Y-109490000D01*
G37*
X150875000Y-109490000D02*
X150875000Y-110375331D01*
X150858559Y-110385910D01*
X150831850Y-110425000D01*
X150744669Y-110425000D01*
X150734090Y-110408559D01*
X150521890Y-110263569D01*
X150270000Y-110212560D01*
X149770000Y-110212560D01*
X149534683Y-110256838D01*
X149318559Y-110395910D01*
X149173569Y-110608110D01*
X149122560Y-110860000D01*
X149122560Y-111460000D01*
X149166838Y-111695317D01*
X149182339Y-111719406D01*
X149135000Y-111833691D01*
X149135000Y-111974250D01*
X149293748Y-112132998D01*
X149292444Y-112132998D01*
X149249723Y-112090277D01*
X149011272Y-111930949D01*
X148817362Y-111892378D01*
X148573765Y-111648355D01*
X148156756Y-111475197D01*
X147705225Y-111474803D01*
X147287914Y-111647233D01*
X146968355Y-111966235D01*
X146795197Y-112383244D01*
X146794803Y-112834775D01*
X146967233Y-113252086D01*
X147286235Y-113571645D01*
X147703244Y-113744803D01*
X148154775Y-113745197D01*
X148572086Y-113572767D01*
X148612739Y-113532185D01*
X150205000Y-115124447D01*
X150205000Y-115289985D01*
X149978355Y-115516235D01*
X149805197Y-115933244D01*
X149804803Y-116384775D01*
X149891667Y-116595000D01*
X143070000Y-116595000D01*
X142712191Y-116666173D01*
X142408855Y-116868855D01*
X141208855Y-118068855D01*
X141006173Y-118372191D01*
X140935000Y-118730000D01*
X140935000Y-119139636D01*
X140908355Y-119166235D01*
X140735197Y-119583244D01*
X140734803Y-120034775D01*
X140795657Y-120182053D01*
X140791353Y-120186357D01*
X140553765Y-119948355D01*
X140136756Y-119775197D01*
X139685225Y-119774803D01*
X139267914Y-119947233D01*
X139190011Y-120025000D01*
X132114447Y-120025000D01*
X131445000Y-119355554D01*
X131445000Y-115491758D01*
X131705804Y-115491758D01*
X131872127Y-116327921D01*
X132345776Y-117036786D01*
X133054641Y-117510435D01*
X133890804Y-117676758D01*
X134726967Y-117510435D01*
X135435832Y-117036786D01*
X135909481Y-116327921D01*
X136075804Y-115491758D01*
X135909481Y-114655595D01*
X135435832Y-113946730D01*
X134726967Y-113473081D01*
X133890804Y-113306758D01*
X133054641Y-113473081D01*
X132345776Y-113946730D01*
X131872127Y-114655595D01*
X131705804Y-115491758D01*
X131445000Y-115491758D01*
X131445000Y-115010000D01*
X131389051Y-114728728D01*
X131366350Y-114694754D01*
X131229724Y-114490277D01*
X130949723Y-114210277D01*
X130711272Y-114050949D01*
X130430000Y-113995000D01*
X129100000Y-113995000D01*
X128818728Y-114050949D01*
X128580277Y-114210276D01*
X128450277Y-114340277D01*
X128290949Y-114578728D01*
X128245190Y-114808774D01*
X128218559Y-114825910D01*
X128073569Y-115038110D01*
X128022560Y-115290000D01*
X128022560Y-115790000D01*
X128066838Y-116025317D01*
X128205910Y-116241441D01*
X128235000Y-116261317D01*
X128235000Y-117805000D01*
X127744669Y-117805000D01*
X127734090Y-117788559D01*
X127521890Y-117643569D01*
X127270000Y-117592560D01*
X126870000Y-117592560D01*
X126634683Y-117636838D01*
X126623021Y-117644342D01*
X126621890Y-117643569D01*
X126370000Y-117592560D01*
X125970000Y-117592560D01*
X125734683Y-117636838D01*
X125518559Y-117775910D01*
X125373569Y-117988110D01*
X125322560Y-118240000D01*
X125322560Y-118840000D01*
X125335000Y-118906113D01*
X125335000Y-120244131D01*
X124011572Y-121567560D01*
X123445000Y-121567560D01*
X123209683Y-121611838D01*
X123097174Y-121684235D01*
X122967938Y-121620732D01*
X122797000Y-121747266D01*
X122797000Y-122713000D01*
X122797560Y-122713000D01*
X122797560Y-122967000D01*
X122797000Y-122967000D01*
X122797000Y-123932734D01*
X122967938Y-124059268D01*
X123097075Y-123995813D01*
X123193110Y-124061431D01*
X123445000Y-124112440D01*
X124395000Y-124112440D01*
X124630317Y-124068162D01*
X124846441Y-123929090D01*
X124991431Y-123716890D01*
X124999914Y-123675000D01*
X125724132Y-123675000D01*
X125979566Y-123930434D01*
X126250460Y-124111440D01*
X126570000Y-124175000D01*
X127185000Y-124175000D01*
X127185000Y-126178569D01*
X127172560Y-126240000D01*
X127172560Y-126840000D01*
X127216838Y-127075317D01*
X127355910Y-127291441D01*
X127440734Y-127349399D01*
X121075804Y-127349399D01*
X121075804Y-123141131D01*
X121568771Y-123141131D01*
X121710432Y-123551049D01*
X121998179Y-123875552D01*
X122372062Y-124059268D01*
X122543000Y-123932734D01*
X122543000Y-122967000D01*
X121717437Y-122967000D01*
X121568771Y-123141131D01*
X121075804Y-123141131D01*
X121075804Y-122538869D01*
X121568771Y-122538869D01*
X121717437Y-122713000D01*
X122543000Y-122713000D01*
X122543000Y-121747266D01*
X122372062Y-121620732D01*
X121998179Y-121804448D01*
X121710432Y-122128951D01*
X121568771Y-122538869D01*
X121075804Y-122538869D01*
X121075804Y-115956314D01*
X121844816Y-115919797D01*
X121962262Y-115890582D01*
X122080711Y-115865801D01*
X123696143Y-115177868D01*
X123916893Y-115027187D01*
X125146100Y-113773420D01*
X125292383Y-113549732D01*
X125948225Y-111921006D01*
X125997772Y-111658364D01*
X125980404Y-109902637D01*
X125979096Y-109896387D01*
X125925671Y-109641027D01*
X125791942Y-109327000D01*
X150907423Y-109327000D01*
X150875000Y-109490000D01*
G36*
X132712560Y-125190000D02*
X132756838Y-125425317D01*
X132895910Y-125641441D01*
X132901447Y-125645224D01*
X132762222Y-125702893D01*
X132720000Y-125745115D01*
X132677778Y-125702893D01*
X132444389Y-125606220D01*
X132205050Y-125606220D01*
X132046300Y-125764970D01*
X132046300Y-126513000D01*
X133393700Y-126513000D01*
X133393700Y-126493000D01*
X133647700Y-126493000D01*
X133647700Y-126513000D01*
X133667700Y-126513000D01*
X133667700Y-126767000D01*
X133647700Y-126767000D01*
X133647700Y-126787000D01*
X133393700Y-126787000D01*
X133393700Y-126767000D01*
X132046300Y-126767000D01*
X132046300Y-126787000D01*
X131792300Y-126787000D01*
X131792300Y-126767000D01*
X131772300Y-126767000D01*
X131772300Y-126513000D01*
X131792300Y-126513000D01*
X131792300Y-125764970D01*
X131687193Y-125659863D01*
X131729541Y-125651439D01*
X132000434Y-125470434D01*
X132410434Y-125060434D01*
X132498989Y-124927902D01*
X132499739Y-124927401D01*
X132634979Y-124725000D01*
X132712560Y-124725000D01*
X132712560Y-125190000D01*
X132712560Y-125190000D01*
G37*
X132712560Y-125190000D02*
X132756838Y-125425317D01*
X132895910Y-125641441D01*
X132901447Y-125645224D01*
X132762222Y-125702893D01*
X132720000Y-125745115D01*
X132677778Y-125702893D01*
X132444389Y-125606220D01*
X132205050Y-125606220D01*
X132046300Y-125764970D01*
X132046300Y-126513000D01*
X133393700Y-126513000D01*
X133393700Y-126493000D01*
X133647700Y-126493000D01*
X133647700Y-126513000D01*
X133667700Y-126513000D01*
X133667700Y-126767000D01*
X133647700Y-126767000D01*
X133647700Y-126787000D01*
X133393700Y-126787000D01*
X133393700Y-126767000D01*
X132046300Y-126767000D01*
X132046300Y-126787000D01*
X131792300Y-126787000D01*
X131792300Y-126767000D01*
X131772300Y-126767000D01*
X131772300Y-126513000D01*
X131792300Y-126513000D01*
X131792300Y-125764970D01*
X131687193Y-125659863D01*
X131729541Y-125651439D01*
X132000434Y-125470434D01*
X132410434Y-125060434D01*
X132498989Y-124927902D01*
X132499739Y-124927401D01*
X132634979Y-124725000D01*
X132712560Y-124725000D01*
X132712560Y-125190000D01*
G36*
X143670000Y-122425000D02*
X144089610Y-122425000D01*
X144078355Y-122436235D01*
X143905197Y-122853244D01*
X143904803Y-123304775D01*
X144077233Y-123722086D01*
X144396235Y-124041645D01*
X144813244Y-124214803D01*
X145089699Y-124215044D01*
X145269593Y-124335245D01*
X145570000Y-124395000D01*
X149732986Y-124395000D01*
X149761909Y-124465000D01*
X138760000Y-124465000D01*
X138478728Y-124520949D01*
X138240276Y-124680277D01*
X137327994Y-125592560D01*
X137220000Y-125592560D01*
X136984683Y-125636838D01*
X136973021Y-125644342D01*
X136971890Y-125643569D01*
X136720000Y-125592560D01*
X136453483Y-125592560D01*
X136556431Y-125441890D01*
X136607440Y-125190000D01*
X136607440Y-123890000D01*
X136566985Y-123675000D01*
X139560000Y-123675000D01*
X139917809Y-123603827D01*
X140221145Y-123401145D01*
X140775002Y-122847288D01*
X140774803Y-123074775D01*
X140947233Y-123492086D01*
X141266235Y-123811645D01*
X141683244Y-123984803D01*
X142134775Y-123985197D01*
X142552086Y-123812767D01*
X142871645Y-123493765D01*
X143044803Y-123076756D01*
X143044837Y-123037453D01*
X143659399Y-122422891D01*
X143670000Y-122425000D01*
X143670000Y-122425000D01*
G37*
X143670000Y-122425000D02*
X144089610Y-122425000D01*
X144078355Y-122436235D01*
X143905197Y-122853244D01*
X143904803Y-123304775D01*
X144077233Y-123722086D01*
X144396235Y-124041645D01*
X144813244Y-124214803D01*
X145089699Y-124215044D01*
X145269593Y-124335245D01*
X145570000Y-124395000D01*
X149732986Y-124395000D01*
X149761909Y-124465000D01*
X138760000Y-124465000D01*
X138478728Y-124520949D01*
X138240276Y-124680277D01*
X137327994Y-125592560D01*
X137220000Y-125592560D01*
X136984683Y-125636838D01*
X136973021Y-125644342D01*
X136971890Y-125643569D01*
X136720000Y-125592560D01*
X136453483Y-125592560D01*
X136556431Y-125441890D01*
X136607440Y-125190000D01*
X136607440Y-123890000D01*
X136566985Y-123675000D01*
X139560000Y-123675000D01*
X139917809Y-123603827D01*
X140221145Y-123401145D01*
X140775002Y-122847288D01*
X140774803Y-123074775D01*
X140947233Y-123492086D01*
X141266235Y-123811645D01*
X141683244Y-123984803D01*
X142134775Y-123985197D01*
X142552086Y-123812767D01*
X142871645Y-123493765D01*
X143044803Y-123076756D01*
X143044837Y-123037453D01*
X143659399Y-122422891D01*
X143670000Y-122425000D01*
G36*
X129942998Y-116425000D02*
X129975000Y-116425000D01*
X129975000Y-117758750D01*
X129970000Y-117763750D01*
X129970000Y-118413000D01*
X129975000Y-118413000D01*
X129975000Y-118667000D01*
X129970000Y-118667000D01*
X129970000Y-119316250D01*
X129975000Y-119321250D01*
X129975000Y-119660000D01*
X130020562Y-119889051D01*
X130030949Y-119941272D01*
X130190277Y-120179723D01*
X131273875Y-121263322D01*
X131140261Y-121352599D01*
X130975514Y-121599161D01*
X130917662Y-121890000D01*
X130967391Y-122140000D01*
X130917662Y-122390000D01*
X130967391Y-122640000D01*
X130917662Y-122890000D01*
X130973883Y-123172642D01*
X130956676Y-123209782D01*
X131017000Y-123260386D01*
X131017000Y-123267000D01*
X130997000Y-123267000D01*
X130997000Y-123287000D01*
X130743000Y-123287000D01*
X130743000Y-123267000D01*
X130723000Y-123267000D01*
X130723000Y-123260386D01*
X130783324Y-123209782D01*
X130766117Y-123172642D01*
X130822338Y-122890000D01*
X130772609Y-122640000D01*
X130822338Y-122390000D01*
X130772609Y-122140000D01*
X130822338Y-121890000D01*
X130764486Y-121599161D01*
X130599739Y-121352599D01*
X130353177Y-121187852D01*
X130062338Y-121130000D01*
X129777662Y-121130000D01*
X129486823Y-121187852D01*
X129240261Y-121352599D01*
X129075514Y-121599161D01*
X129017662Y-121890000D01*
X129062263Y-122114224D01*
X129040459Y-122118561D01*
X128905000Y-122209072D01*
X128905000Y-122112998D01*
X128746252Y-122112998D01*
X128905000Y-121954250D01*
X128905000Y-121813691D01*
X128808327Y-121580302D01*
X128629699Y-121401673D01*
X128396310Y-121305000D01*
X128303750Y-121305000D01*
X128145000Y-121463750D01*
X128145000Y-122113000D01*
X128167000Y-122113000D01*
X128167000Y-122367000D01*
X128145000Y-122367000D01*
X128145000Y-122387000D01*
X127895000Y-122387000D01*
X127895000Y-122367000D01*
X127293750Y-122367000D01*
X127155750Y-122505000D01*
X126915868Y-122505000D01*
X126660434Y-122249566D01*
X126640776Y-122236431D01*
X126389541Y-122068561D01*
X126070000Y-122005000D01*
X125935869Y-122005000D01*
X126127178Y-121813691D01*
X127135000Y-121813691D01*
X127135000Y-121954250D01*
X127293750Y-122113000D01*
X127895000Y-122113000D01*
X127895000Y-121463750D01*
X127736250Y-121305000D01*
X127643690Y-121305000D01*
X127410301Y-121401673D01*
X127231673Y-121580302D01*
X127135000Y-121813691D01*
X126127178Y-121813691D01*
X126760435Y-121180434D01*
X126941440Y-120909540D01*
X127005000Y-120590000D01*
X127005000Y-119487440D01*
X127270000Y-119487440D01*
X127505317Y-119443162D01*
X127721441Y-119304090D01*
X127741317Y-119275000D01*
X128295331Y-119275000D01*
X128305910Y-119291441D01*
X128518110Y-119436431D01*
X128770000Y-119487440D01*
X129170000Y-119487440D01*
X129405317Y-119443162D01*
X129429406Y-119427661D01*
X129543691Y-119475000D01*
X129611250Y-119475000D01*
X129770000Y-119316250D01*
X129770000Y-119074266D01*
X129817440Y-118840000D01*
X129817440Y-118240000D01*
X129773162Y-118004683D01*
X129770000Y-117999769D01*
X129770000Y-117763750D01*
X129705000Y-117698750D01*
X129705000Y-116425000D01*
X129784250Y-116425000D01*
X129942998Y-116266252D01*
X129942998Y-116425000D01*
X129942998Y-116425000D01*
G37*
X129942998Y-116425000D02*
X129975000Y-116425000D01*
X129975000Y-117758750D01*
X129970000Y-117763750D01*
X129970000Y-118413000D01*
X129975000Y-118413000D01*
X129975000Y-118667000D01*
X129970000Y-118667000D01*
X129970000Y-119316250D01*
X129975000Y-119321250D01*
X129975000Y-119660000D01*
X130020562Y-119889051D01*
X130030949Y-119941272D01*
X130190277Y-120179723D01*
X131273875Y-121263322D01*
X131140261Y-121352599D01*
X130975514Y-121599161D01*
X130917662Y-121890000D01*
X130967391Y-122140000D01*
X130917662Y-122390000D01*
X130967391Y-122640000D01*
X130917662Y-122890000D01*
X130973883Y-123172642D01*
X130956676Y-123209782D01*
X131017000Y-123260386D01*
X131017000Y-123267000D01*
X130997000Y-123267000D01*
X130997000Y-123287000D01*
X130743000Y-123287000D01*
X130743000Y-123267000D01*
X130723000Y-123267000D01*
X130723000Y-123260386D01*
X130783324Y-123209782D01*
X130766117Y-123172642D01*
X130822338Y-122890000D01*
X130772609Y-122640000D01*
X130822338Y-122390000D01*
X130772609Y-122140000D01*
X130822338Y-121890000D01*
X130764486Y-121599161D01*
X130599739Y-121352599D01*
X130353177Y-121187852D01*
X130062338Y-121130000D01*
X129777662Y-121130000D01*
X129486823Y-121187852D01*
X129240261Y-121352599D01*
X129075514Y-121599161D01*
X129017662Y-121890000D01*
X129062263Y-122114224D01*
X129040459Y-122118561D01*
X128905000Y-122209072D01*
X128905000Y-122112998D01*
X128746252Y-122112998D01*
X128905000Y-121954250D01*
X128905000Y-121813691D01*
X128808327Y-121580302D01*
X128629699Y-121401673D01*
X128396310Y-121305000D01*
X128303750Y-121305000D01*
X128145000Y-121463750D01*
X128145000Y-122113000D01*
X128167000Y-122113000D01*
X128167000Y-122367000D01*
X128145000Y-122367000D01*
X128145000Y-122387000D01*
X127895000Y-122387000D01*
X127895000Y-122367000D01*
X127293750Y-122367000D01*
X127155750Y-122505000D01*
X126915868Y-122505000D01*
X126660434Y-122249566D01*
X126640776Y-122236431D01*
X126389541Y-122068561D01*
X126070000Y-122005000D01*
X125935869Y-122005000D01*
X126127178Y-121813691D01*
X127135000Y-121813691D01*
X127135000Y-121954250D01*
X127293750Y-122113000D01*
X127895000Y-122113000D01*
X127895000Y-121463750D01*
X127736250Y-121305000D01*
X127643690Y-121305000D01*
X127410301Y-121401673D01*
X127231673Y-121580302D01*
X127135000Y-121813691D01*
X126127178Y-121813691D01*
X126760435Y-121180434D01*
X126941440Y-120909540D01*
X127005000Y-120590000D01*
X127005000Y-119487440D01*
X127270000Y-119487440D01*
X127505317Y-119443162D01*
X127721441Y-119304090D01*
X127741317Y-119275000D01*
X128295331Y-119275000D01*
X128305910Y-119291441D01*
X128518110Y-119436431D01*
X128770000Y-119487440D01*
X129170000Y-119487440D01*
X129405317Y-119443162D01*
X129429406Y-119427661D01*
X129543691Y-119475000D01*
X129611250Y-119475000D01*
X129770000Y-119316250D01*
X129770000Y-119074266D01*
X129817440Y-118840000D01*
X129817440Y-118240000D01*
X129773162Y-118004683D01*
X129770000Y-117999769D01*
X129770000Y-117763750D01*
X129705000Y-117698750D01*
X129705000Y-116425000D01*
X129784250Y-116425000D01*
X129942998Y-116266252D01*
X129942998Y-116425000D01*
G36*
X173635000Y-110375025D02*
X173523569Y-110538110D01*
X173472560Y-110790000D01*
X173472560Y-111280432D01*
X173266309Y-111195000D01*
X171925750Y-111195000D01*
X171767000Y-111353750D01*
X171767000Y-112353000D01*
X171787000Y-112353000D01*
X171787000Y-112607000D01*
X171767000Y-112607000D01*
X171767000Y-112627000D01*
X171513000Y-112627000D01*
X171513000Y-112607000D01*
X169663750Y-112607000D01*
X169505000Y-112765750D01*
X169505000Y-113256310D01*
X169601673Y-113489699D01*
X169603042Y-113491068D01*
X169543569Y-113578110D01*
X169509773Y-113745000D01*
X167500000Y-113745000D01*
X167218728Y-113800949D01*
X166980277Y-113960276D01*
X166665471Y-114275082D01*
X166345225Y-114274803D01*
X165927914Y-114447233D01*
X165667425Y-114707267D01*
X165105079Y-114144921D01*
X164938536Y-114033641D01*
X164643765Y-113738355D01*
X164226756Y-113565197D01*
X163775225Y-113564803D01*
X163357914Y-113737233D01*
X163038355Y-114056235D01*
X162865197Y-114473244D01*
X162864803Y-114924775D01*
X163007448Y-115270000D01*
X158615000Y-115270000D01*
X158339489Y-115324803D01*
X158337724Y-115325154D01*
X157935225Y-115324803D01*
X157707686Y-115418821D01*
X157775000Y-115256310D01*
X157775000Y-114765750D01*
X157616250Y-114607000D01*
X155767000Y-114607000D01*
X155767000Y-114627000D01*
X155513000Y-114627000D01*
X155513000Y-114607000D01*
X153663750Y-114607000D01*
X153505000Y-114765750D01*
X153505000Y-115256310D01*
X153601673Y-115489699D01*
X153603042Y-115491068D01*
X153543569Y-115578110D01*
X153492560Y-115830000D01*
X153492560Y-117130000D01*
X153536838Y-117365317D01*
X153610620Y-117479978D01*
X153543569Y-117578110D01*
X153492560Y-117830000D01*
X153492560Y-119130000D01*
X153536838Y-119365317D01*
X153610620Y-119479978D01*
X153543569Y-119578110D01*
X153540632Y-119592614D01*
X153422191Y-119616173D01*
X153119297Y-119818560D01*
X153118855Y-119818855D01*
X152462710Y-120475000D01*
X152414250Y-120475000D01*
X152376250Y-120437000D01*
X151775000Y-120437000D01*
X151775000Y-120457000D01*
X151525000Y-120457000D01*
X151525000Y-120437000D01*
X150923750Y-120437000D01*
X150785750Y-120575000D01*
X150435164Y-120575000D01*
X150457440Y-120465000D01*
X150457440Y-119955000D01*
X150413162Y-119719683D01*
X150274090Y-119503559D01*
X150245000Y-119483683D01*
X150245000Y-119359644D01*
X150328110Y-119416431D01*
X150580000Y-119467440D01*
X150691174Y-119467440D01*
X150880000Y-119505000D01*
X151038502Y-119473472D01*
X150861673Y-119650302D01*
X150765000Y-119883691D01*
X150765000Y-120024250D01*
X150923750Y-120183000D01*
X151525000Y-120183000D01*
X151525000Y-120163000D01*
X151775000Y-120163000D01*
X151775000Y-120183000D01*
X152376250Y-120183000D01*
X152535000Y-120024250D01*
X152535000Y-119883691D01*
X152438327Y-119650302D01*
X152259699Y-119471673D01*
X152107002Y-119408424D01*
X152107002Y-119296252D01*
X152265750Y-119455000D01*
X152406309Y-119455000D01*
X152639698Y-119358327D01*
X152818327Y-119179699D01*
X152915000Y-118946310D01*
X152915000Y-118853750D01*
X152756250Y-118695000D01*
X152107000Y-118695000D01*
X152107000Y-118717000D01*
X151853000Y-118717000D01*
X151853000Y-118695000D01*
X151833000Y-118695000D01*
X151833000Y-118445000D01*
X151853000Y-118445000D01*
X151853000Y-117843750D01*
X152107000Y-117843750D01*
X152107000Y-118445000D01*
X152756250Y-118445000D01*
X152915000Y-118286250D01*
X152915000Y-118193690D01*
X152818327Y-117960301D01*
X152639698Y-117781673D01*
X152406309Y-117685000D01*
X152265750Y-117685000D01*
X152107000Y-117843750D01*
X151853000Y-117843750D01*
X151746902Y-117737652D01*
X151743827Y-117722191D01*
X151541145Y-117418855D01*
X151343598Y-117221308D01*
X151582086Y-117122767D01*
X151901645Y-116803765D01*
X152074803Y-116386756D01*
X152075197Y-115935225D01*
X151902767Y-115517914D01*
X151675000Y-115289749D01*
X151675000Y-114820000D01*
X151619051Y-114538728D01*
X151526084Y-114399593D01*
X151459724Y-114300277D01*
X150354446Y-113195000D01*
X150396310Y-113195000D01*
X150629699Y-113098327D01*
X150808327Y-112919698D01*
X150905000Y-112686309D01*
X150905000Y-112641815D01*
X151058110Y-112746431D01*
X151310000Y-112797440D01*
X151910000Y-112797440D01*
X152145317Y-112753162D01*
X152251244Y-112685000D01*
X153492560Y-112685000D01*
X153492560Y-113130000D01*
X153536838Y-113365317D01*
X153603328Y-113468646D01*
X153601673Y-113470301D01*
X153505000Y-113703690D01*
X153505000Y-114194250D01*
X153663750Y-114353000D01*
X155513000Y-114353000D01*
X155513000Y-114333000D01*
X155767000Y-114333000D01*
X155767000Y-114353000D01*
X157616250Y-114353000D01*
X157775000Y-114194250D01*
X157775000Y-113703690D01*
X157678327Y-113470301D01*
X157676958Y-113468932D01*
X157736431Y-113381890D01*
X157787440Y-113130000D01*
X157787440Y-111830000D01*
X157763674Y-111703690D01*
X169505000Y-111703690D01*
X169505000Y-112194250D01*
X169663750Y-112353000D01*
X171513000Y-112353000D01*
X171513000Y-111353750D01*
X171354250Y-111195000D01*
X170013691Y-111195000D01*
X169780302Y-111291673D01*
X169601673Y-111470301D01*
X169505000Y-111703690D01*
X157763674Y-111703690D01*
X157743162Y-111594683D01*
X157604090Y-111378559D01*
X157391890Y-111233569D01*
X157140000Y-111182560D01*
X154140000Y-111182560D01*
X153967596Y-111215000D01*
X152557440Y-111215000D01*
X152557440Y-110850000D01*
X152513162Y-110614683D01*
X152374090Y-110398559D01*
X152345000Y-110378683D01*
X152345000Y-109794446D01*
X152812446Y-109327000D01*
X173635000Y-109327000D01*
X173635000Y-110375025D01*
X173635000Y-110375025D01*
G37*
X173635000Y-110375025D02*
X173523569Y-110538110D01*
X173472560Y-110790000D01*
X173472560Y-111280432D01*
X173266309Y-111195000D01*
X171925750Y-111195000D01*
X171767000Y-111353750D01*
X171767000Y-112353000D01*
X171787000Y-112353000D01*
X171787000Y-112607000D01*
X171767000Y-112607000D01*
X171767000Y-112627000D01*
X171513000Y-112627000D01*
X171513000Y-112607000D01*
X169663750Y-112607000D01*
X169505000Y-112765750D01*
X169505000Y-113256310D01*
X169601673Y-113489699D01*
X169603042Y-113491068D01*
X169543569Y-113578110D01*
X169509773Y-113745000D01*
X167500000Y-113745000D01*
X167218728Y-113800949D01*
X166980277Y-113960276D01*
X166665471Y-114275082D01*
X166345225Y-114274803D01*
X165927914Y-114447233D01*
X165667425Y-114707267D01*
X165105079Y-114144921D01*
X164938536Y-114033641D01*
X164643765Y-113738355D01*
X164226756Y-113565197D01*
X163775225Y-113564803D01*
X163357914Y-113737233D01*
X163038355Y-114056235D01*
X162865197Y-114473244D01*
X162864803Y-114924775D01*
X163007448Y-115270000D01*
X158615000Y-115270000D01*
X158339489Y-115324803D01*
X158337724Y-115325154D01*
X157935225Y-115324803D01*
X157707686Y-115418821D01*
X157775000Y-115256310D01*
X157775000Y-114765750D01*
X157616250Y-114607000D01*
X155767000Y-114607000D01*
X155767000Y-114627000D01*
X155513000Y-114627000D01*
X155513000Y-114607000D01*
X153663750Y-114607000D01*
X153505000Y-114765750D01*
X153505000Y-115256310D01*
X153601673Y-115489699D01*
X153603042Y-115491068D01*
X153543569Y-115578110D01*
X153492560Y-115830000D01*
X153492560Y-117130000D01*
X153536838Y-117365317D01*
X153610620Y-117479978D01*
X153543569Y-117578110D01*
X153492560Y-117830000D01*
X153492560Y-119130000D01*
X153536838Y-119365317D01*
X153610620Y-119479978D01*
X153543569Y-119578110D01*
X153540632Y-119592614D01*
X153422191Y-119616173D01*
X153119297Y-119818560D01*
X153118855Y-119818855D01*
X152462710Y-120475000D01*
X152414250Y-120475000D01*
X152376250Y-120437000D01*
X151775000Y-120437000D01*
X151775000Y-120457000D01*
X151525000Y-120457000D01*
X151525000Y-120437000D01*
X150923750Y-120437000D01*
X150785750Y-120575000D01*
X150435164Y-120575000D01*
X150457440Y-120465000D01*
X150457440Y-119955000D01*
X150413162Y-119719683D01*
X150274090Y-119503559D01*
X150245000Y-119483683D01*
X150245000Y-119359644D01*
X150328110Y-119416431D01*
X150580000Y-119467440D01*
X150691174Y-119467440D01*
X150880000Y-119505000D01*
X151038502Y-119473472D01*
X150861673Y-119650302D01*
X150765000Y-119883691D01*
X150765000Y-120024250D01*
X150923750Y-120183000D01*
X151525000Y-120183000D01*
X151525000Y-120163000D01*
X151775000Y-120163000D01*
X151775000Y-120183000D01*
X152376250Y-120183000D01*
X152535000Y-120024250D01*
X152535000Y-119883691D01*
X152438327Y-119650302D01*
X152259699Y-119471673D01*
X152107002Y-119408424D01*
X152107002Y-119296252D01*
X152265750Y-119455000D01*
X152406309Y-119455000D01*
X152639698Y-119358327D01*
X152818327Y-119179699D01*
X152915000Y-118946310D01*
X152915000Y-118853750D01*
X152756250Y-118695000D01*
X152107000Y-118695000D01*
X152107000Y-118717000D01*
X151853000Y-118717000D01*
X151853000Y-118695000D01*
X151833000Y-118695000D01*
X151833000Y-118445000D01*
X151853000Y-118445000D01*
X151853000Y-117843750D01*
X152107000Y-117843750D01*
X152107000Y-118445000D01*
X152756250Y-118445000D01*
X152915000Y-118286250D01*
X152915000Y-118193690D01*
X152818327Y-117960301D01*
X152639698Y-117781673D01*
X152406309Y-117685000D01*
X152265750Y-117685000D01*
X152107000Y-117843750D01*
X151853000Y-117843750D01*
X151746902Y-117737652D01*
X151743827Y-117722191D01*
X151541145Y-117418855D01*
X151343598Y-117221308D01*
X151582086Y-117122767D01*
X151901645Y-116803765D01*
X152074803Y-116386756D01*
X152075197Y-115935225D01*
X151902767Y-115517914D01*
X151675000Y-115289749D01*
X151675000Y-114820000D01*
X151619051Y-114538728D01*
X151526084Y-114399593D01*
X151459724Y-114300277D01*
X150354446Y-113195000D01*
X150396310Y-113195000D01*
X150629699Y-113098327D01*
X150808327Y-112919698D01*
X150905000Y-112686309D01*
X150905000Y-112641815D01*
X151058110Y-112746431D01*
X151310000Y-112797440D01*
X151910000Y-112797440D01*
X152145317Y-112753162D01*
X152251244Y-112685000D01*
X153492560Y-112685000D01*
X153492560Y-113130000D01*
X153536838Y-113365317D01*
X153603328Y-113468646D01*
X153601673Y-113470301D01*
X153505000Y-113703690D01*
X153505000Y-114194250D01*
X153663750Y-114353000D01*
X155513000Y-114353000D01*
X155513000Y-114333000D01*
X155767000Y-114333000D01*
X155767000Y-114353000D01*
X157616250Y-114353000D01*
X157775000Y-114194250D01*
X157775000Y-113703690D01*
X157678327Y-113470301D01*
X157676958Y-113468932D01*
X157736431Y-113381890D01*
X157787440Y-113130000D01*
X157787440Y-111830000D01*
X157763674Y-111703690D01*
X169505000Y-111703690D01*
X169505000Y-112194250D01*
X169663750Y-112353000D01*
X171513000Y-112353000D01*
X171513000Y-111353750D01*
X171354250Y-111195000D01*
X170013691Y-111195000D01*
X169780302Y-111291673D01*
X169601673Y-111470301D01*
X169505000Y-111703690D01*
X157763674Y-111703690D01*
X157743162Y-111594683D01*
X157604090Y-111378559D01*
X157391890Y-111233569D01*
X157140000Y-111182560D01*
X154140000Y-111182560D01*
X153967596Y-111215000D01*
X152557440Y-111215000D01*
X152557440Y-110850000D01*
X152513162Y-110614683D01*
X152374090Y-110398559D01*
X152345000Y-110378683D01*
X152345000Y-109794446D01*
X152812446Y-109327000D01*
X173635000Y-109327000D01*
X173635000Y-110375025D01*
G36*
X143667000Y-118655000D02*
X143647000Y-118655000D01*
X143647000Y-119256250D01*
X143749750Y-119359000D01*
X143645000Y-119463750D01*
X143645000Y-120113000D01*
X144246250Y-120113000D01*
X144405000Y-119954250D01*
X144405000Y-119813691D01*
X144308327Y-119580302D01*
X144129699Y-119401673D01*
X144069381Y-119376688D01*
X144320000Y-119427440D01*
X144431174Y-119427440D01*
X144585000Y-119458038D01*
X144585000Y-120190000D01*
X144656173Y-120547809D01*
X144660978Y-120555000D01*
X144405000Y-120555000D01*
X144405000Y-120525750D01*
X144246250Y-120367000D01*
X143645000Y-120367000D01*
X143645000Y-120387000D01*
X143395000Y-120387000D01*
X143395000Y-120367000D01*
X143373000Y-120367000D01*
X143373000Y-120113000D01*
X143395000Y-120113000D01*
X143395000Y-119463750D01*
X143290250Y-119359000D01*
X143393000Y-119256250D01*
X143393000Y-118655000D01*
X143373000Y-118655000D01*
X143373000Y-118549290D01*
X143457290Y-118465000D01*
X143667000Y-118465000D01*
X143667000Y-118655000D01*
X143667000Y-118655000D01*
G37*
X143667000Y-118655000D02*
X143647000Y-118655000D01*
X143647000Y-119256250D01*
X143749750Y-119359000D01*
X143645000Y-119463750D01*
X143645000Y-120113000D01*
X144246250Y-120113000D01*
X144405000Y-119954250D01*
X144405000Y-119813691D01*
X144308327Y-119580302D01*
X144129699Y-119401673D01*
X144069381Y-119376688D01*
X144320000Y-119427440D01*
X144431174Y-119427440D01*
X144585000Y-119458038D01*
X144585000Y-120190000D01*
X144656173Y-120547809D01*
X144660978Y-120555000D01*
X144405000Y-120555000D01*
X144405000Y-120525750D01*
X144246250Y-120367000D01*
X143645000Y-120367000D01*
X143645000Y-120387000D01*
X143395000Y-120387000D01*
X143395000Y-120367000D01*
X143373000Y-120367000D01*
X143373000Y-120113000D01*
X143395000Y-120113000D01*
X143395000Y-119463750D01*
X143290250Y-119359000D01*
X143393000Y-119256250D01*
X143393000Y-118655000D01*
X143373000Y-118655000D01*
X143373000Y-118549290D01*
X143457290Y-118465000D01*
X143667000Y-118465000D01*
X143667000Y-118655000D01*
G36*
X150145000Y-112133000D02*
X150167000Y-112133000D01*
X150167000Y-112387000D01*
X150145000Y-112387000D01*
X150145000Y-112407000D01*
X149895000Y-112407000D01*
X149895000Y-112387000D01*
X149873000Y-112387000D01*
X149873000Y-112133000D01*
X149895000Y-112133000D01*
X149895000Y-112113000D01*
X150145000Y-112113000D01*
X150145000Y-112133000D01*
X150145000Y-112133000D01*
G37*
X150145000Y-112133000D02*
X150167000Y-112133000D01*
X150167000Y-112387000D01*
X150145000Y-112387000D01*
X150145000Y-112407000D01*
X149895000Y-112407000D01*
X149895000Y-112387000D01*
X149873000Y-112387000D01*
X149873000Y-112133000D01*
X149895000Y-112133000D01*
X149895000Y-112113000D01*
X150145000Y-112113000D01*
X150145000Y-112133000D01*
M02*
