G04 #@! TF.FileFunction,Legend,Bot*
%FSLAX46Y46*%
G04 Gerber Fmt 4.6, Leading zero omitted, Abs format (unit mm)*
G04 Created by KiCad (PCBNEW 4.0.5+dfsg1-4~bpo8+1) date Mon Dec 18 16:44:26 2017*
%MOMM*%
%LPD*%
G01*
G04 APERTURE LIST*
%ADD10C,0.100000*%
%ADD11C,0.200000*%
%ADD12C,0.400000*%
%ADD13C,0.150000*%
%ADD14C,0.120000*%
G04 APERTURE END LIST*
D10*
D11*
X139970000Y-115940000D02*
X139970000Y-115540000D01*
X139970000Y-115540000D02*
X139620000Y-115540000D01*
X139620000Y-115540000D02*
X139620000Y-115840000D01*
X139620000Y-115840000D02*
X139820000Y-115840000D01*
X139820000Y-115840000D02*
X139820000Y-115640000D01*
X139820000Y-115640000D02*
X139720000Y-115640000D01*
X140120000Y-115390000D02*
X139470000Y-115390000D01*
X139470000Y-115390000D02*
X139470000Y-115990000D01*
X139470000Y-115990000D02*
X140120000Y-115990000D01*
X150220000Y-125090000D02*
X150220000Y-115390000D01*
X140120000Y-123440000D02*
X140120000Y-115390000D01*
X140120000Y-125090000D02*
X140120000Y-123440000D01*
D12*
X143920000Y-101440000D02*
X144920000Y-101440000D01*
D11*
X147920000Y-100440000D02*
X143920000Y-100440000D01*
X143920000Y-102440000D02*
X147920000Y-102440000D01*
D13*
X168850000Y-115875000D02*
X168350000Y-115875000D01*
X168350000Y-114925000D02*
X168850000Y-114925000D01*
X161640000Y-125405000D02*
X162140000Y-125405000D01*
X162140000Y-126355000D02*
X161640000Y-126355000D01*
X173320000Y-120065000D02*
X172820000Y-120065000D01*
X172820000Y-119115000D02*
X173320000Y-119115000D01*
X173320000Y-117265000D02*
X172820000Y-117265000D01*
X172820000Y-116315000D02*
X173320000Y-116315000D01*
X173320000Y-115865000D02*
X172820000Y-115865000D01*
X172820000Y-114915000D02*
X173320000Y-114915000D01*
X173320000Y-121465000D02*
X172820000Y-121465000D01*
X172820000Y-120515000D02*
X173320000Y-120515000D01*
X166900000Y-110615000D02*
X167400000Y-110615000D01*
X167400000Y-111565000D02*
X166900000Y-111565000D01*
X169470000Y-110625000D02*
X169970000Y-110625000D01*
X169970000Y-111575000D02*
X169470000Y-111575000D01*
X148245000Y-111640000D02*
X147745000Y-111640000D01*
X147745000Y-110690000D02*
X148245000Y-110690000D01*
X140195000Y-110565000D02*
X140695000Y-110565000D01*
X140695000Y-111515000D02*
X140195000Y-111515000D01*
X145920000Y-113815000D02*
X145420000Y-113815000D01*
X145420000Y-112865000D02*
X145920000Y-112865000D01*
X162950000Y-110525000D02*
X163450000Y-110525000D01*
X163450000Y-111475000D02*
X162950000Y-111475000D01*
X156795000Y-111540000D02*
X156295000Y-111540000D01*
X156295000Y-110590000D02*
X156795000Y-110590000D01*
X160090000Y-111565000D02*
X159590000Y-111565000D01*
X159590000Y-110615000D02*
X160090000Y-110615000D01*
X156330000Y-112065000D02*
X156830000Y-112065000D01*
X156830000Y-113015000D02*
X156330000Y-113015000D01*
X142120000Y-113815000D02*
X143120000Y-113815000D01*
X143120000Y-112465000D02*
X142120000Y-112465000D01*
X154650000Y-114925000D02*
X154150000Y-114925000D01*
X154150000Y-113875000D02*
X154650000Y-113875000D01*
X156350000Y-113875000D02*
X156850000Y-113875000D01*
X156850000Y-114925000D02*
X156350000Y-114925000D01*
X142745000Y-110515000D02*
X143245000Y-110515000D01*
X143245000Y-111565000D02*
X142745000Y-111565000D01*
X163125000Y-113300000D02*
X163125000Y-112800000D01*
X164175000Y-112800000D02*
X164175000Y-113300000D01*
X159285000Y-116640000D02*
X159285000Y-116140000D01*
X160335000Y-116140000D02*
X160335000Y-116640000D01*
X167215000Y-119475000D02*
X166690000Y-119475000D01*
X161965000Y-124725000D02*
X162490000Y-124725000D01*
X161965000Y-119475000D02*
X162490000Y-119475000D01*
X167215000Y-124725000D02*
X167215000Y-124200000D01*
X161965000Y-124725000D02*
X161965000Y-124200000D01*
X161965000Y-119475000D02*
X161965000Y-120000000D01*
X167215000Y-119475000D02*
X167215000Y-120000000D01*
X145795000Y-112665000D02*
G75*
G03X145795000Y-112665000I-100000J0D01*
G01*
X145795000Y-112390000D02*
X145795000Y-111315000D01*
X145795000Y-111290000D02*
X144445000Y-111290000D01*
X144445000Y-111290000D02*
X144445000Y-112365000D01*
X144445000Y-112390000D02*
X145795000Y-112390000D01*
D14*
X160845000Y-114915000D02*
X158645000Y-114915000D01*
X160645000Y-112615000D02*
X159045000Y-112615000D01*
D13*
X168980000Y-112410000D02*
X169980000Y-112410000D01*
X168980000Y-114210000D02*
X169980000Y-114210000D01*
X168850000Y-117405000D02*
X168350000Y-117405000D01*
X168350000Y-116455000D02*
X168850000Y-116455000D01*
X173320000Y-118665000D02*
X172820000Y-118665000D01*
X172820000Y-117715000D02*
X173320000Y-117715000D01*
X151022381Y-119578095D02*
X151831905Y-119578095D01*
X151927143Y-119625714D01*
X151974762Y-119673333D01*
X152022381Y-119768571D01*
X152022381Y-119959048D01*
X151974762Y-120054286D01*
X151927143Y-120101905D01*
X151831905Y-120149524D01*
X151022381Y-120149524D01*
X151022381Y-121101905D02*
X151022381Y-120625714D01*
X151498571Y-120578095D01*
X151450952Y-120625714D01*
X151403333Y-120720952D01*
X151403333Y-120959048D01*
X151450952Y-121054286D01*
X151498571Y-121101905D01*
X151593810Y-121149524D01*
X151831905Y-121149524D01*
X151927143Y-121101905D01*
X151974762Y-121054286D01*
X152022381Y-120959048D01*
X152022381Y-120720952D01*
X151974762Y-120625714D01*
X151927143Y-120578095D01*
X147086667Y-98606667D02*
X146610476Y-98606667D01*
X147181905Y-98892381D02*
X146848572Y-97892381D01*
X146515238Y-98892381D01*
X146181905Y-98368571D02*
X145848571Y-98368571D01*
X145705714Y-98892381D02*
X146181905Y-98892381D01*
X146181905Y-97892381D01*
X145705714Y-97892381D01*
X144753333Y-98892381D02*
X145324762Y-98892381D01*
X145039048Y-98892381D02*
X145039048Y-97892381D01*
X145134286Y-98035238D01*
X145229524Y-98130476D01*
X145324762Y-98178095D01*
X168766666Y-117457143D02*
X168814285Y-117504762D01*
X168957142Y-117552381D01*
X169052380Y-117552381D01*
X169195238Y-117504762D01*
X169290476Y-117409524D01*
X169338095Y-117314286D01*
X169385714Y-117123810D01*
X169385714Y-116980952D01*
X169338095Y-116790476D01*
X169290476Y-116695238D01*
X169195238Y-116600000D01*
X169052380Y-116552381D01*
X168957142Y-116552381D01*
X168814285Y-116600000D01*
X168766666Y-116647619D01*
X167814285Y-117552381D02*
X168385714Y-117552381D01*
X168100000Y-117552381D02*
X168100000Y-116552381D01*
X168195238Y-116695238D01*
X168290476Y-116790476D01*
X168385714Y-116838095D01*
X162136666Y-127457143D02*
X162184285Y-127504762D01*
X162327142Y-127552381D01*
X162422380Y-127552381D01*
X162565238Y-127504762D01*
X162660476Y-127409524D01*
X162708095Y-127314286D01*
X162755714Y-127123810D01*
X162755714Y-126980952D01*
X162708095Y-126790476D01*
X162660476Y-126695238D01*
X162565238Y-126600000D01*
X162422380Y-126552381D01*
X162327142Y-126552381D01*
X162184285Y-126600000D01*
X162136666Y-126647619D01*
X161755714Y-126647619D02*
X161708095Y-126600000D01*
X161612857Y-126552381D01*
X161374761Y-126552381D01*
X161279523Y-126600000D01*
X161231904Y-126647619D01*
X161184285Y-126742857D01*
X161184285Y-126838095D01*
X161231904Y-126980952D01*
X161803333Y-127552381D01*
X161184285Y-127552381D01*
X171487143Y-119473334D02*
X171534762Y-119425715D01*
X171582381Y-119282858D01*
X171582381Y-119187620D01*
X171534762Y-119044762D01*
X171439524Y-118949524D01*
X171344286Y-118901905D01*
X171153810Y-118854286D01*
X171010952Y-118854286D01*
X170820476Y-118901905D01*
X170725238Y-118949524D01*
X170630000Y-119044762D01*
X170582381Y-119187620D01*
X170582381Y-119282858D01*
X170630000Y-119425715D01*
X170677619Y-119473334D01*
X170582381Y-119806667D02*
X170582381Y-120425715D01*
X170963333Y-120092381D01*
X170963333Y-120235239D01*
X171010952Y-120330477D01*
X171058571Y-120378096D01*
X171153810Y-120425715D01*
X171391905Y-120425715D01*
X171487143Y-120378096D01*
X171534762Y-120330477D01*
X171582381Y-120235239D01*
X171582381Y-119949524D01*
X171534762Y-119854286D01*
X171487143Y-119806667D01*
X175357143Y-116733334D02*
X175404762Y-116685715D01*
X175452381Y-116542858D01*
X175452381Y-116447620D01*
X175404762Y-116304762D01*
X175309524Y-116209524D01*
X175214286Y-116161905D01*
X175023810Y-116114286D01*
X174880952Y-116114286D01*
X174690476Y-116161905D01*
X174595238Y-116209524D01*
X174500000Y-116304762D01*
X174452381Y-116447620D01*
X174452381Y-116542858D01*
X174500000Y-116685715D01*
X174547619Y-116733334D01*
X174452381Y-117590477D02*
X174452381Y-117400000D01*
X174500000Y-117304762D01*
X174547619Y-117257143D01*
X174690476Y-117161905D01*
X174880952Y-117114286D01*
X175261905Y-117114286D01*
X175357143Y-117161905D01*
X175404762Y-117209524D01*
X175452381Y-117304762D01*
X175452381Y-117495239D01*
X175404762Y-117590477D01*
X175357143Y-117638096D01*
X175261905Y-117685715D01*
X175023810Y-117685715D01*
X174928571Y-117638096D01*
X174880952Y-117590477D01*
X174833333Y-117495239D01*
X174833333Y-117304762D01*
X174880952Y-117209524D01*
X174928571Y-117161905D01*
X175023810Y-117114286D01*
X175357143Y-115033334D02*
X175404762Y-114985715D01*
X175452381Y-114842858D01*
X175452381Y-114747620D01*
X175404762Y-114604762D01*
X175309524Y-114509524D01*
X175214286Y-114461905D01*
X175023810Y-114414286D01*
X174880952Y-114414286D01*
X174690476Y-114461905D01*
X174595238Y-114509524D01*
X174500000Y-114604762D01*
X174452381Y-114747620D01*
X174452381Y-114842858D01*
X174500000Y-114985715D01*
X174547619Y-115033334D01*
X174452381Y-115366667D02*
X174452381Y-116033334D01*
X175452381Y-115604762D01*
X173266666Y-122557143D02*
X173314285Y-122604762D01*
X173457142Y-122652381D01*
X173552380Y-122652381D01*
X173695238Y-122604762D01*
X173790476Y-122509524D01*
X173838095Y-122414286D01*
X173885714Y-122223810D01*
X173885714Y-122080952D01*
X173838095Y-121890476D01*
X173790476Y-121795238D01*
X173695238Y-121700000D01*
X173552380Y-121652381D01*
X173457142Y-121652381D01*
X173314285Y-121700000D01*
X173266666Y-121747619D01*
X172695238Y-122080952D02*
X172790476Y-122033333D01*
X172838095Y-121985714D01*
X172885714Y-121890476D01*
X172885714Y-121842857D01*
X172838095Y-121747619D01*
X172790476Y-121700000D01*
X172695238Y-121652381D01*
X172504761Y-121652381D01*
X172409523Y-121700000D01*
X172361904Y-121747619D01*
X172314285Y-121842857D01*
X172314285Y-121890476D01*
X172361904Y-121985714D01*
X172409523Y-122033333D01*
X172504761Y-122080952D01*
X172695238Y-122080952D01*
X172790476Y-122128571D01*
X172838095Y-122176190D01*
X172885714Y-122271429D01*
X172885714Y-122461905D01*
X172838095Y-122557143D01*
X172790476Y-122604762D01*
X172695238Y-122652381D01*
X172504761Y-122652381D01*
X172409523Y-122604762D01*
X172361904Y-122557143D01*
X172314285Y-122461905D01*
X172314285Y-122271429D01*
X172361904Y-122176190D01*
X172409523Y-122128571D01*
X172504761Y-122080952D01*
X168262857Y-112647143D02*
X168310476Y-112694762D01*
X168453333Y-112742381D01*
X168548571Y-112742381D01*
X168691429Y-112694762D01*
X168786667Y-112599524D01*
X168834286Y-112504286D01*
X168881905Y-112313810D01*
X168881905Y-112170952D01*
X168834286Y-111980476D01*
X168786667Y-111885238D01*
X168691429Y-111790000D01*
X168548571Y-111742381D01*
X168453333Y-111742381D01*
X168310476Y-111790000D01*
X168262857Y-111837619D01*
X167310476Y-112742381D02*
X167881905Y-112742381D01*
X167596191Y-112742381D02*
X167596191Y-111742381D01*
X167691429Y-111885238D01*
X167786667Y-111980476D01*
X167881905Y-112028095D01*
X166358095Y-112742381D02*
X166929524Y-112742381D01*
X166643810Y-112742381D02*
X166643810Y-111742381D01*
X166739048Y-111885238D01*
X166834286Y-111980476D01*
X166929524Y-112028095D01*
X170442857Y-110257143D02*
X170490476Y-110304762D01*
X170633333Y-110352381D01*
X170728571Y-110352381D01*
X170871429Y-110304762D01*
X170966667Y-110209524D01*
X171014286Y-110114286D01*
X171061905Y-109923810D01*
X171061905Y-109780952D01*
X171014286Y-109590476D01*
X170966667Y-109495238D01*
X170871429Y-109400000D01*
X170728571Y-109352381D01*
X170633333Y-109352381D01*
X170490476Y-109400000D01*
X170442857Y-109447619D01*
X169490476Y-110352381D02*
X170061905Y-110352381D01*
X169776191Y-110352381D02*
X169776191Y-109352381D01*
X169871429Y-109495238D01*
X169966667Y-109590476D01*
X170061905Y-109638095D01*
X169109524Y-109447619D02*
X169061905Y-109400000D01*
X168966667Y-109352381D01*
X168728571Y-109352381D01*
X168633333Y-109400000D01*
X168585714Y-109447619D01*
X168538095Y-109542857D01*
X168538095Y-109638095D01*
X168585714Y-109780952D01*
X169157143Y-110352381D01*
X168538095Y-110352381D01*
X148652857Y-110307143D02*
X148700476Y-110354762D01*
X148843333Y-110402381D01*
X148938571Y-110402381D01*
X149081429Y-110354762D01*
X149176667Y-110259524D01*
X149224286Y-110164286D01*
X149271905Y-109973810D01*
X149271905Y-109830952D01*
X149224286Y-109640476D01*
X149176667Y-109545238D01*
X149081429Y-109450000D01*
X148938571Y-109402381D01*
X148843333Y-109402381D01*
X148700476Y-109450000D01*
X148652857Y-109497619D01*
X147700476Y-110402381D02*
X148271905Y-110402381D01*
X147986191Y-110402381D02*
X147986191Y-109402381D01*
X148081429Y-109545238D01*
X148176667Y-109640476D01*
X148271905Y-109688095D01*
X147367143Y-109402381D02*
X146748095Y-109402381D01*
X147081429Y-109783333D01*
X146938571Y-109783333D01*
X146843333Y-109830952D01*
X146795714Y-109878571D01*
X146748095Y-109973810D01*
X146748095Y-110211905D01*
X146795714Y-110307143D01*
X146843333Y-110354762D01*
X146938571Y-110402381D01*
X147224286Y-110402381D01*
X147319524Y-110354762D01*
X147367143Y-110307143D01*
X141022857Y-110207143D02*
X141070476Y-110254762D01*
X141213333Y-110302381D01*
X141308571Y-110302381D01*
X141451429Y-110254762D01*
X141546667Y-110159524D01*
X141594286Y-110064286D01*
X141641905Y-109873810D01*
X141641905Y-109730952D01*
X141594286Y-109540476D01*
X141546667Y-109445238D01*
X141451429Y-109350000D01*
X141308571Y-109302381D01*
X141213333Y-109302381D01*
X141070476Y-109350000D01*
X141022857Y-109397619D01*
X140070476Y-110302381D02*
X140641905Y-110302381D01*
X140356191Y-110302381D02*
X140356191Y-109302381D01*
X140451429Y-109445238D01*
X140546667Y-109540476D01*
X140641905Y-109588095D01*
X139213333Y-109635714D02*
X139213333Y-110302381D01*
X139451429Y-109254762D02*
X139689524Y-109969048D01*
X139070476Y-109969048D01*
X146272857Y-114957143D02*
X146320476Y-115004762D01*
X146463333Y-115052381D01*
X146558571Y-115052381D01*
X146701429Y-115004762D01*
X146796667Y-114909524D01*
X146844286Y-114814286D01*
X146891905Y-114623810D01*
X146891905Y-114480952D01*
X146844286Y-114290476D01*
X146796667Y-114195238D01*
X146701429Y-114100000D01*
X146558571Y-114052381D01*
X146463333Y-114052381D01*
X146320476Y-114100000D01*
X146272857Y-114147619D01*
X145320476Y-115052381D02*
X145891905Y-115052381D01*
X145606191Y-115052381D02*
X145606191Y-114052381D01*
X145701429Y-114195238D01*
X145796667Y-114290476D01*
X145891905Y-114338095D01*
X144463333Y-114052381D02*
X144653810Y-114052381D01*
X144749048Y-114100000D01*
X144796667Y-114147619D01*
X144891905Y-114290476D01*
X144939524Y-114480952D01*
X144939524Y-114861905D01*
X144891905Y-114957143D01*
X144844286Y-115004762D01*
X144749048Y-115052381D01*
X144558571Y-115052381D01*
X144463333Y-115004762D01*
X144415714Y-114957143D01*
X144368095Y-114861905D01*
X144368095Y-114623810D01*
X144415714Y-114528571D01*
X144463333Y-114480952D01*
X144558571Y-114433333D01*
X144749048Y-114433333D01*
X144844286Y-114480952D01*
X144891905Y-114528571D01*
X144939524Y-114623810D01*
X163822857Y-110167143D02*
X163870476Y-110214762D01*
X164013333Y-110262381D01*
X164108571Y-110262381D01*
X164251429Y-110214762D01*
X164346667Y-110119524D01*
X164394286Y-110024286D01*
X164441905Y-109833810D01*
X164441905Y-109690952D01*
X164394286Y-109500476D01*
X164346667Y-109405238D01*
X164251429Y-109310000D01*
X164108571Y-109262381D01*
X164013333Y-109262381D01*
X163870476Y-109310000D01*
X163822857Y-109357619D01*
X163441905Y-109357619D02*
X163394286Y-109310000D01*
X163299048Y-109262381D01*
X163060952Y-109262381D01*
X162965714Y-109310000D01*
X162918095Y-109357619D01*
X162870476Y-109452857D01*
X162870476Y-109548095D01*
X162918095Y-109690952D01*
X163489524Y-110262381D01*
X162870476Y-110262381D01*
X162537143Y-109262381D02*
X161918095Y-109262381D01*
X162251429Y-109643333D01*
X162108571Y-109643333D01*
X162013333Y-109690952D01*
X161965714Y-109738571D01*
X161918095Y-109833810D01*
X161918095Y-110071905D01*
X161965714Y-110167143D01*
X162013333Y-110214762D01*
X162108571Y-110262381D01*
X162394286Y-110262381D01*
X162489524Y-110214762D01*
X162537143Y-110167143D01*
X157152857Y-110247143D02*
X157200476Y-110294762D01*
X157343333Y-110342381D01*
X157438571Y-110342381D01*
X157581429Y-110294762D01*
X157676667Y-110199524D01*
X157724286Y-110104286D01*
X157771905Y-109913810D01*
X157771905Y-109770952D01*
X157724286Y-109580476D01*
X157676667Y-109485238D01*
X157581429Y-109390000D01*
X157438571Y-109342381D01*
X157343333Y-109342381D01*
X157200476Y-109390000D01*
X157152857Y-109437619D01*
X156771905Y-109437619D02*
X156724286Y-109390000D01*
X156629048Y-109342381D01*
X156390952Y-109342381D01*
X156295714Y-109390000D01*
X156248095Y-109437619D01*
X156200476Y-109532857D01*
X156200476Y-109628095D01*
X156248095Y-109770952D01*
X156819524Y-110342381D01*
X156200476Y-110342381D01*
X155343333Y-109675714D02*
X155343333Y-110342381D01*
X155581429Y-109294762D02*
X155819524Y-110009048D01*
X155200476Y-110009048D01*
X160522857Y-110257143D02*
X160570476Y-110304762D01*
X160713333Y-110352381D01*
X160808571Y-110352381D01*
X160951429Y-110304762D01*
X161046667Y-110209524D01*
X161094286Y-110114286D01*
X161141905Y-109923810D01*
X161141905Y-109780952D01*
X161094286Y-109590476D01*
X161046667Y-109495238D01*
X160951429Y-109400000D01*
X160808571Y-109352381D01*
X160713333Y-109352381D01*
X160570476Y-109400000D01*
X160522857Y-109447619D01*
X160141905Y-109447619D02*
X160094286Y-109400000D01*
X159999048Y-109352381D01*
X159760952Y-109352381D01*
X159665714Y-109400000D01*
X159618095Y-109447619D01*
X159570476Y-109542857D01*
X159570476Y-109638095D01*
X159618095Y-109780952D01*
X160189524Y-110352381D01*
X159570476Y-110352381D01*
X158665714Y-109352381D02*
X159141905Y-109352381D01*
X159189524Y-109828571D01*
X159141905Y-109780952D01*
X159046667Y-109733333D01*
X158808571Y-109733333D01*
X158713333Y-109780952D01*
X158665714Y-109828571D01*
X158618095Y-109923810D01*
X158618095Y-110161905D01*
X158665714Y-110257143D01*
X158713333Y-110304762D01*
X158808571Y-110352381D01*
X159046667Y-110352381D01*
X159141905Y-110304762D01*
X159189524Y-110257143D01*
X155087143Y-111537143D02*
X155134762Y-111489524D01*
X155182381Y-111346667D01*
X155182381Y-111251429D01*
X155134762Y-111108571D01*
X155039524Y-111013333D01*
X154944286Y-110965714D01*
X154753810Y-110918095D01*
X154610952Y-110918095D01*
X154420476Y-110965714D01*
X154325238Y-111013333D01*
X154230000Y-111108571D01*
X154182381Y-111251429D01*
X154182381Y-111346667D01*
X154230000Y-111489524D01*
X154277619Y-111537143D01*
X154277619Y-111918095D02*
X154230000Y-111965714D01*
X154182381Y-112060952D01*
X154182381Y-112299048D01*
X154230000Y-112394286D01*
X154277619Y-112441905D01*
X154372857Y-112489524D01*
X154468095Y-112489524D01*
X154610952Y-112441905D01*
X155182381Y-111870476D01*
X155182381Y-112489524D01*
X154182381Y-113346667D02*
X154182381Y-113156190D01*
X154230000Y-113060952D01*
X154277619Y-113013333D01*
X154420476Y-112918095D01*
X154610952Y-112870476D01*
X154991905Y-112870476D01*
X155087143Y-112918095D01*
X155134762Y-112965714D01*
X155182381Y-113060952D01*
X155182381Y-113251429D01*
X155134762Y-113346667D01*
X155087143Y-113394286D01*
X154991905Y-113441905D01*
X154753810Y-113441905D01*
X154658571Y-113394286D01*
X154610952Y-113346667D01*
X154563333Y-113251429D01*
X154563333Y-113060952D01*
X154610952Y-112965714D01*
X154658571Y-112918095D01*
X154753810Y-112870476D01*
X141182381Y-112943334D02*
X141182381Y-112467143D01*
X140182381Y-112467143D01*
X140277619Y-113229048D02*
X140230000Y-113276667D01*
X140182381Y-113371905D01*
X140182381Y-113610001D01*
X140230000Y-113705239D01*
X140277619Y-113752858D01*
X140372857Y-113800477D01*
X140468095Y-113800477D01*
X140610952Y-113752858D01*
X141182381Y-113181429D01*
X141182381Y-113800477D01*
X153182381Y-114283334D02*
X152706190Y-113950000D01*
X153182381Y-113711905D02*
X152182381Y-113711905D01*
X152182381Y-114092858D01*
X152230000Y-114188096D01*
X152277619Y-114235715D01*
X152372857Y-114283334D01*
X152515714Y-114283334D01*
X152610952Y-114235715D01*
X152658571Y-114188096D01*
X152706190Y-114092858D01*
X152706190Y-113711905D01*
X152182381Y-114616667D02*
X152182381Y-115235715D01*
X152563333Y-114902381D01*
X152563333Y-115045239D01*
X152610952Y-115140477D01*
X152658571Y-115188096D01*
X152753810Y-115235715D01*
X152991905Y-115235715D01*
X153087143Y-115188096D01*
X153134762Y-115140477D01*
X153182381Y-115045239D01*
X153182381Y-114759524D01*
X153134762Y-114664286D01*
X153087143Y-114616667D01*
X156566666Y-116422381D02*
X156900000Y-115946190D01*
X157138095Y-116422381D02*
X157138095Y-115422381D01*
X156757142Y-115422381D01*
X156661904Y-115470000D01*
X156614285Y-115517619D01*
X156566666Y-115612857D01*
X156566666Y-115755714D01*
X156614285Y-115850952D01*
X156661904Y-115898571D01*
X156757142Y-115946190D01*
X157138095Y-115946190D01*
X155709523Y-115755714D02*
X155709523Y-116422381D01*
X155947619Y-115374762D02*
X156185714Y-116089048D01*
X155566666Y-116089048D01*
X143206666Y-110332381D02*
X143540000Y-109856190D01*
X143778095Y-110332381D02*
X143778095Y-109332381D01*
X143397142Y-109332381D01*
X143301904Y-109380000D01*
X143254285Y-109427619D01*
X143206666Y-109522857D01*
X143206666Y-109665714D01*
X143254285Y-109760952D01*
X143301904Y-109808571D01*
X143397142Y-109856190D01*
X143778095Y-109856190D01*
X142873333Y-109332381D02*
X142206666Y-109332381D01*
X142635238Y-110332381D01*
X165512381Y-112913334D02*
X165036190Y-112580000D01*
X165512381Y-112341905D02*
X164512381Y-112341905D01*
X164512381Y-112722858D01*
X164560000Y-112818096D01*
X164607619Y-112865715D01*
X164702857Y-112913334D01*
X164845714Y-112913334D01*
X164940952Y-112865715D01*
X164988571Y-112818096D01*
X165036190Y-112722858D01*
X165036190Y-112341905D01*
X164940952Y-113484762D02*
X164893333Y-113389524D01*
X164845714Y-113341905D01*
X164750476Y-113294286D01*
X164702857Y-113294286D01*
X164607619Y-113341905D01*
X164560000Y-113389524D01*
X164512381Y-113484762D01*
X164512381Y-113675239D01*
X164560000Y-113770477D01*
X164607619Y-113818096D01*
X164702857Y-113865715D01*
X164750476Y-113865715D01*
X164845714Y-113818096D01*
X164893333Y-113770477D01*
X164940952Y-113675239D01*
X164940952Y-113484762D01*
X164988571Y-113389524D01*
X165036190Y-113341905D01*
X165131429Y-113294286D01*
X165321905Y-113294286D01*
X165417143Y-113341905D01*
X165464762Y-113389524D01*
X165512381Y-113484762D01*
X165512381Y-113675239D01*
X165464762Y-113770477D01*
X165417143Y-113818096D01*
X165321905Y-113865715D01*
X165131429Y-113865715D01*
X165036190Y-113818096D01*
X164988571Y-113770477D01*
X164940952Y-113675239D01*
X159906666Y-118732381D02*
X160240000Y-118256190D01*
X160478095Y-118732381D02*
X160478095Y-117732381D01*
X160097142Y-117732381D01*
X160001904Y-117780000D01*
X159954285Y-117827619D01*
X159906666Y-117922857D01*
X159906666Y-118065714D01*
X159954285Y-118160952D01*
X160001904Y-118208571D01*
X160097142Y-118256190D01*
X160478095Y-118256190D01*
X159430476Y-118732381D02*
X159240000Y-118732381D01*
X159144761Y-118684762D01*
X159097142Y-118637143D01*
X159001904Y-118494286D01*
X158954285Y-118303810D01*
X158954285Y-117922857D01*
X159001904Y-117827619D01*
X159049523Y-117780000D01*
X159144761Y-117732381D01*
X159335238Y-117732381D01*
X159430476Y-117780000D01*
X159478095Y-117827619D01*
X159525714Y-117922857D01*
X159525714Y-118160952D01*
X159478095Y-118256190D01*
X159430476Y-118303810D01*
X159335238Y-118351429D01*
X159144761Y-118351429D01*
X159049523Y-118303810D01*
X159001904Y-118256190D01*
X158954285Y-118160952D01*
X167792381Y-121338095D02*
X168601905Y-121338095D01*
X168697143Y-121385714D01*
X168744762Y-121433333D01*
X168792381Y-121528571D01*
X168792381Y-121719048D01*
X168744762Y-121814286D01*
X168697143Y-121861905D01*
X168601905Y-121909524D01*
X167792381Y-121909524D01*
X167887619Y-122338095D02*
X167840000Y-122385714D01*
X167792381Y-122480952D01*
X167792381Y-122719048D01*
X167840000Y-122814286D01*
X167887619Y-122861905D01*
X167982857Y-122909524D01*
X168078095Y-122909524D01*
X168220952Y-122861905D01*
X168792381Y-122290476D01*
X168792381Y-122909524D01*
X146002381Y-111128095D02*
X146811905Y-111128095D01*
X146907143Y-111175714D01*
X146954762Y-111223333D01*
X147002381Y-111318571D01*
X147002381Y-111509048D01*
X146954762Y-111604286D01*
X146907143Y-111651905D01*
X146811905Y-111699524D01*
X146002381Y-111699524D01*
X146002381Y-112080476D02*
X146002381Y-112699524D01*
X146383333Y-112366190D01*
X146383333Y-112509048D01*
X146430952Y-112604286D01*
X146478571Y-112651905D01*
X146573810Y-112699524D01*
X146811905Y-112699524D01*
X146907143Y-112651905D01*
X146954762Y-112604286D01*
X147002381Y-112509048D01*
X147002381Y-112223333D01*
X146954762Y-112128095D01*
X146907143Y-112080476D01*
X162941905Y-114972381D02*
X162941905Y-115781905D01*
X162894286Y-115877143D01*
X162846667Y-115924762D01*
X162751429Y-115972381D01*
X162560952Y-115972381D01*
X162465714Y-115924762D01*
X162418095Y-115877143D01*
X162370476Y-115781905D01*
X162370476Y-114972381D01*
X161465714Y-114972381D02*
X161656191Y-114972381D01*
X161751429Y-115020000D01*
X161799048Y-115067619D01*
X161894286Y-115210476D01*
X161941905Y-115400952D01*
X161941905Y-115781905D01*
X161894286Y-115877143D01*
X161846667Y-115924762D01*
X161751429Y-115972381D01*
X161560952Y-115972381D01*
X161465714Y-115924762D01*
X161418095Y-115877143D01*
X161370476Y-115781905D01*
X161370476Y-115543810D01*
X161418095Y-115448571D01*
X161465714Y-115400952D01*
X161560952Y-115353333D01*
X161751429Y-115353333D01*
X161846667Y-115400952D01*
X161894286Y-115448571D01*
X161941905Y-115543810D01*
X172576190Y-113523809D02*
X173052381Y-113523809D01*
X172052381Y-113190476D02*
X172576190Y-113523809D01*
X172052381Y-113857143D01*
X173052381Y-114714286D02*
X173052381Y-114142857D01*
X173052381Y-114428571D02*
X172052381Y-114428571D01*
X172195238Y-114333333D01*
X172290476Y-114238095D01*
X172338095Y-114142857D01*
X168766666Y-118987143D02*
X168814285Y-119034762D01*
X168957142Y-119082381D01*
X169052380Y-119082381D01*
X169195238Y-119034762D01*
X169290476Y-118939524D01*
X169338095Y-118844286D01*
X169385714Y-118653810D01*
X169385714Y-118510952D01*
X169338095Y-118320476D01*
X169290476Y-118225238D01*
X169195238Y-118130000D01*
X169052380Y-118082381D01*
X168957142Y-118082381D01*
X168814285Y-118130000D01*
X168766666Y-118177619D01*
X167909523Y-118415714D02*
X167909523Y-119082381D01*
X168147619Y-118034762D02*
X168385714Y-118749048D01*
X167766666Y-118749048D01*
X175257143Y-118533334D02*
X175304762Y-118485715D01*
X175352381Y-118342858D01*
X175352381Y-118247620D01*
X175304762Y-118104762D01*
X175209524Y-118009524D01*
X175114286Y-117961905D01*
X174923810Y-117914286D01*
X174780952Y-117914286D01*
X174590476Y-117961905D01*
X174495238Y-118009524D01*
X174400000Y-118104762D01*
X174352381Y-118247620D01*
X174352381Y-118342858D01*
X174400000Y-118485715D01*
X174447619Y-118533334D01*
X174352381Y-119438096D02*
X174352381Y-118961905D01*
X174828571Y-118914286D01*
X174780952Y-118961905D01*
X174733333Y-119057143D01*
X174733333Y-119295239D01*
X174780952Y-119390477D01*
X174828571Y-119438096D01*
X174923810Y-119485715D01*
X175161905Y-119485715D01*
X175257143Y-119438096D01*
X175304762Y-119390477D01*
X175352381Y-119295239D01*
X175352381Y-119057143D01*
X175304762Y-118961905D01*
X175257143Y-118914286D01*
M02*
