G04 #@! TF.FileFunction,Legend,Top*
%FSLAX46Y46*%
G04 Gerber Fmt 4.6, Leading zero omitted, Abs format (unit mm)*
G04 Created by KiCad (PCBNEW 4.0.5+dfsg1-4~bpo8+1) date Mon Dec 18 16:44:26 2017*
%MOMM*%
%LPD*%
G01*
G04 APERTURE LIST*
%ADD10C,0.100000*%
%ADD11C,0.200000*%
%ADD12C,0.150000*%
G04 APERTURE END LIST*
D10*
D11*
X156440000Y-110330000D02*
X155790000Y-110330000D01*
X155790000Y-110330000D02*
X155790000Y-109680000D01*
X155790000Y-109680000D02*
X156440000Y-109680000D01*
X156440000Y-109680000D02*
X156440000Y-110180000D01*
X156440000Y-110180000D02*
X155940000Y-110180000D01*
X155940000Y-110180000D02*
X155940000Y-109780000D01*
X155940000Y-109780000D02*
X156290000Y-109780000D01*
X156290000Y-109780000D02*
X156290000Y-110030000D01*
X156290000Y-110030000D02*
X156040000Y-110030000D01*
X156040000Y-110030000D02*
X156040000Y-109880000D01*
X156040000Y-109880000D02*
X156190000Y-109880000D01*
X155640000Y-110480000D02*
X155640000Y-109530000D01*
X155640000Y-109530000D02*
X156590000Y-109530000D01*
X156590000Y-109530000D02*
X156590000Y-110430000D01*
X171640000Y-110480000D02*
X171640000Y-111580000D01*
X155640000Y-110480000D02*
X155640000Y-111580000D01*
X155640000Y-110480000D02*
X171640000Y-110480000D01*
X171640000Y-127480000D02*
X155640000Y-127480000D01*
D12*
X148810000Y-119105000D02*
X149310000Y-119105000D01*
X149310000Y-118055000D02*
X148810000Y-118055000D01*
D11*
X163120000Y-100340000D02*
X163120000Y-100040000D01*
X163120000Y-100040000D02*
X163120000Y-99840000D01*
X163120000Y-99840000D02*
X161820000Y-99840000D01*
X161820000Y-99840000D02*
X161820000Y-100140000D01*
X161820000Y-100140000D02*
X163120000Y-100140000D01*
X163120000Y-100140000D02*
X163120000Y-99940000D01*
X163120000Y-99940000D02*
X161920000Y-99940000D01*
X166720000Y-100340000D02*
X165720000Y-100340000D01*
X165720000Y-102340000D02*
X166720000Y-102340000D01*
X163120000Y-102340000D02*
X164220000Y-102340000D01*
X163120000Y-100340000D02*
X164220000Y-100340000D01*
D12*
X124170000Y-121990000D02*
X124170000Y-121840000D01*
X124170000Y-121840000D02*
X125470000Y-121840000D01*
X125470000Y-121840000D02*
X125470000Y-127440000D01*
X125470000Y-127440000D02*
X121120000Y-127440000D01*
X121120000Y-127440000D02*
X121120000Y-121840000D01*
X121120000Y-121840000D02*
X122420000Y-121840000D01*
X122420000Y-121840000D02*
X122420000Y-121990000D01*
X124920000Y-125340000D02*
X121670000Y-125340000D01*
X124920000Y-123840000D02*
X121670000Y-123840000D01*
X124920000Y-127440000D02*
X124920000Y-121840000D01*
X121670000Y-127440000D02*
X121670000Y-121840000D01*
X123920000Y-125340000D02*
X124070000Y-125340000D01*
X124070000Y-125340000D02*
X124070000Y-126802500D01*
X124070000Y-126802500D02*
X123920000Y-126840000D01*
X123920000Y-126840000D02*
X123770000Y-126802500D01*
X123770000Y-126802500D02*
X123770000Y-125340000D01*
X123770000Y-125340000D02*
X123920000Y-125340000D01*
X122670000Y-125340000D02*
X122820000Y-125340000D01*
X122820000Y-125340000D02*
X122820000Y-126802500D01*
X122820000Y-126802500D02*
X122670000Y-126840000D01*
X122670000Y-126840000D02*
X122520000Y-126802500D01*
X122520000Y-126802500D02*
X122520000Y-125340000D01*
X122520000Y-125340000D02*
X122670000Y-125340000D01*
X123670000Y-121990000D02*
X123670000Y-121840000D01*
X123670000Y-121840000D02*
X122920000Y-121840000D01*
X122920000Y-121840000D02*
X122920000Y-121990000D01*
X123920000Y-121340000D02*
X124220000Y-120740000D01*
X124220000Y-120740000D02*
X123620000Y-120740000D01*
X123620000Y-120740000D02*
X123920000Y-121340000D01*
X127545000Y-122540000D02*
X127545000Y-123040000D01*
X128495000Y-123040000D02*
X128495000Y-122540000D01*
X135195000Y-121940000D02*
X135195000Y-122440000D01*
X136145000Y-122440000D02*
X136145000Y-121940000D01*
X174845000Y-111890000D02*
X174845000Y-111390000D01*
X173895000Y-111390000D02*
X173895000Y-111890000D01*
X150495000Y-111960000D02*
X150495000Y-111460000D01*
X149545000Y-111460000D02*
X149545000Y-111960000D01*
X151175000Y-120610000D02*
X151175000Y-121110000D01*
X152125000Y-121110000D02*
X152125000Y-120610000D01*
X151680000Y-118095000D02*
X151180000Y-118095000D01*
X151180000Y-119045000D02*
X151680000Y-119045000D01*
X143045000Y-120540000D02*
X143045000Y-121040000D01*
X143995000Y-121040000D02*
X143995000Y-120540000D01*
X143820000Y-119005000D02*
X144320000Y-119005000D01*
X144320000Y-118055000D02*
X143820000Y-118055000D01*
X129770000Y-115065000D02*
X129270000Y-115065000D01*
X129270000Y-116015000D02*
X129770000Y-116015000D01*
X133170000Y-127190000D02*
X135070000Y-127190000D01*
X133170000Y-126090000D02*
X135070000Y-126090000D01*
X134070000Y-126640000D02*
X134520000Y-126640000D01*
X134020000Y-126390000D02*
X134020000Y-126890000D01*
X134020000Y-126640000D02*
X134270000Y-126390000D01*
X134270000Y-126390000D02*
X134270000Y-126890000D01*
X134270000Y-126890000D02*
X134020000Y-126640000D01*
X132270000Y-126090000D02*
X130370000Y-126090000D01*
X132270000Y-127190000D02*
X130370000Y-127190000D01*
X131370000Y-126640000D02*
X130920000Y-126640000D01*
X131420000Y-126890000D02*
X131420000Y-126390000D01*
X131420000Y-126640000D02*
X131170000Y-126890000D01*
X131170000Y-126890000D02*
X131170000Y-126390000D01*
X131170000Y-126390000D02*
X131420000Y-126640000D01*
X135260000Y-125415000D02*
X134060000Y-125415000D01*
X134060000Y-123665000D02*
X135260000Y-123665000D01*
X150010000Y-120660000D02*
X148210000Y-120660000D01*
X148210000Y-120660000D02*
X148210000Y-121060000D01*
X148210000Y-121060000D02*
X150010000Y-121060000D01*
X150010000Y-121060000D02*
X150010000Y-120660000D01*
X146920000Y-120640000D02*
X145120000Y-120640000D01*
X145120000Y-120640000D02*
X145120000Y-121040000D01*
X145120000Y-121040000D02*
X146920000Y-121040000D01*
X146920000Y-121040000D02*
X146920000Y-120640000D01*
X126870000Y-118015000D02*
X126370000Y-118015000D01*
X126370000Y-119065000D02*
X126870000Y-119065000D01*
X129670000Y-118015000D02*
X129170000Y-118015000D01*
X129170000Y-119065000D02*
X129670000Y-119065000D01*
X136720000Y-127065000D02*
X137220000Y-127065000D01*
X137220000Y-126015000D02*
X136720000Y-126015000D01*
X128720000Y-126015000D02*
X128220000Y-126015000D01*
X128220000Y-127065000D02*
X128720000Y-127065000D01*
X151085000Y-111250000D02*
X151085000Y-111750000D01*
X152135000Y-111750000D02*
X152135000Y-111250000D01*
X146070000Y-119095000D02*
X146570000Y-119095000D01*
X146570000Y-118045000D02*
X146070000Y-118045000D01*
X182600000Y-115800000D02*
X182600000Y-113000000D01*
X182600000Y-113000000D02*
X184000000Y-113000000D01*
X184000000Y-113000000D02*
X184000000Y-115800000D01*
X184000000Y-115800000D02*
X182600000Y-115800000D01*
X181550000Y-111400000D02*
X182200000Y-111400000D01*
X185050000Y-111400000D02*
X184400000Y-111400000D01*
X184400000Y-117400000D02*
X185050000Y-117400000D01*
X181550000Y-117400000D02*
X182200000Y-117400000D01*
X181550000Y-111400000D02*
X181550000Y-117400000D01*
X185050000Y-117400000D02*
X185050000Y-111400000D01*
X187250000Y-119310000D02*
X187250000Y-126930000D01*
X189790000Y-119310000D02*
X189790000Y-126930000D01*
X190070000Y-116490000D02*
X190070000Y-118040000D01*
X187250000Y-126930000D02*
X189790000Y-126930000D01*
X189790000Y-119310000D02*
X187250000Y-119310000D01*
X186970000Y-118040000D02*
X186970000Y-116490000D01*
X186970000Y-116490000D02*
X190070000Y-116490000D01*
D10*
X131870000Y-124740000D02*
X131870000Y-124840000D01*
X131870000Y-124840000D02*
X131570000Y-124840000D01*
X131570000Y-124840000D02*
X131570000Y-124740000D01*
X131870000Y-124640000D02*
X131870000Y-124740000D01*
X131870000Y-124740000D02*
X131570000Y-124740000D01*
X131570000Y-124740000D02*
X131570000Y-124640000D01*
X131870000Y-121640000D02*
X129870000Y-121640000D01*
X131870000Y-124640000D02*
X129870000Y-124640000D01*
D12*
X164378095Y-109322381D02*
X164378095Y-110131905D01*
X164425714Y-110227143D01*
X164473333Y-110274762D01*
X164568571Y-110322381D01*
X164759048Y-110322381D01*
X164854286Y-110274762D01*
X164901905Y-110227143D01*
X164949524Y-110131905D01*
X164949524Y-109322381D01*
X165854286Y-109655714D02*
X165854286Y-110322381D01*
X165616190Y-109274762D02*
X165378095Y-109989048D01*
X165997143Y-109989048D01*
X148157143Y-117552381D02*
X147823809Y-117076190D01*
X147585714Y-117552381D02*
X147585714Y-116552381D01*
X147966667Y-116552381D01*
X148061905Y-116600000D01*
X148109524Y-116647619D01*
X148157143Y-116742857D01*
X148157143Y-116885714D01*
X148109524Y-116980952D01*
X148061905Y-117028571D01*
X147966667Y-117076190D01*
X147585714Y-117076190D01*
X149109524Y-117552381D02*
X148538095Y-117552381D01*
X148823809Y-117552381D02*
X148823809Y-116552381D01*
X148728571Y-116695238D01*
X148633333Y-116790476D01*
X148538095Y-116838095D01*
X150061905Y-117552381D02*
X149490476Y-117552381D01*
X149776190Y-117552381D02*
X149776190Y-116552381D01*
X149680952Y-116695238D01*
X149585714Y-116790476D01*
X149490476Y-116838095D01*
X164053333Y-103606667D02*
X164529524Y-103606667D01*
X163958095Y-103892381D02*
X164291428Y-102892381D01*
X164624762Y-103892381D01*
X164958095Y-103368571D02*
X165291429Y-103368571D01*
X165434286Y-103892381D02*
X164958095Y-103892381D01*
X164958095Y-102892381D01*
X165434286Y-102892381D01*
X165815238Y-102987619D02*
X165862857Y-102940000D01*
X165958095Y-102892381D01*
X166196191Y-102892381D01*
X166291429Y-102940000D01*
X166339048Y-102987619D01*
X166386667Y-103082857D01*
X166386667Y-103178095D01*
X166339048Y-103320952D01*
X165767619Y-103892381D01*
X166386667Y-103892381D01*
X125324286Y-120608571D02*
X125467143Y-120656190D01*
X125514762Y-120703810D01*
X125562381Y-120799048D01*
X125562381Y-120941905D01*
X125514762Y-121037143D01*
X125467143Y-121084762D01*
X125371905Y-121132381D01*
X124990952Y-121132381D01*
X124990952Y-120132381D01*
X125324286Y-120132381D01*
X125419524Y-120180000D01*
X125467143Y-120227619D01*
X125514762Y-120322857D01*
X125514762Y-120418095D01*
X125467143Y-120513333D01*
X125419524Y-120560952D01*
X125324286Y-120608571D01*
X124990952Y-120608571D01*
X125848095Y-120132381D02*
X126419524Y-120132381D01*
X126133809Y-121132381D02*
X126133809Y-120132381D01*
X127276667Y-121132381D02*
X126705238Y-121132381D01*
X126990952Y-121132381D02*
X126990952Y-120132381D01*
X126895714Y-120275238D01*
X126800476Y-120370476D01*
X126705238Y-120418095D01*
X127187143Y-122956666D02*
X127234762Y-123004285D01*
X127282381Y-123147142D01*
X127282381Y-123242380D01*
X127234762Y-123385238D01*
X127139524Y-123480476D01*
X127044286Y-123528095D01*
X126853810Y-123575714D01*
X126710952Y-123575714D01*
X126520476Y-123528095D01*
X126425238Y-123480476D01*
X126330000Y-123385238D01*
X126282381Y-123242380D01*
X126282381Y-123147142D01*
X126330000Y-123004285D01*
X126377619Y-122956666D01*
X127282381Y-122480476D02*
X127282381Y-122290000D01*
X127234762Y-122194761D01*
X127187143Y-122147142D01*
X127044286Y-122051904D01*
X126853810Y-122004285D01*
X126472857Y-122004285D01*
X126377619Y-122051904D01*
X126330000Y-122099523D01*
X126282381Y-122194761D01*
X126282381Y-122385238D01*
X126330000Y-122480476D01*
X126377619Y-122528095D01*
X126472857Y-122575714D01*
X126710952Y-122575714D01*
X126806190Y-122528095D01*
X126853810Y-122480476D01*
X126901429Y-122385238D01*
X126901429Y-122194761D01*
X126853810Y-122099523D01*
X126806190Y-122051904D01*
X126710952Y-122004285D01*
X134687143Y-122872857D02*
X134734762Y-122920476D01*
X134782381Y-123063333D01*
X134782381Y-123158571D01*
X134734762Y-123301429D01*
X134639524Y-123396667D01*
X134544286Y-123444286D01*
X134353810Y-123491905D01*
X134210952Y-123491905D01*
X134020476Y-123444286D01*
X133925238Y-123396667D01*
X133830000Y-123301429D01*
X133782381Y-123158571D01*
X133782381Y-123063333D01*
X133830000Y-122920476D01*
X133877619Y-122872857D01*
X134782381Y-121920476D02*
X134782381Y-122491905D01*
X134782381Y-122206191D02*
X133782381Y-122206191D01*
X133925238Y-122301429D01*
X134020476Y-122396667D01*
X134068095Y-122491905D01*
X133782381Y-121301429D02*
X133782381Y-121206190D01*
X133830000Y-121110952D01*
X133877619Y-121063333D01*
X133972857Y-121015714D01*
X134163333Y-120968095D01*
X134401429Y-120968095D01*
X134591905Y-121015714D01*
X134687143Y-121063333D01*
X134734762Y-121110952D01*
X134782381Y-121206190D01*
X134782381Y-121301429D01*
X134734762Y-121396667D01*
X134687143Y-121444286D01*
X134591905Y-121491905D01*
X134401429Y-121539524D01*
X134163333Y-121539524D01*
X133972857Y-121491905D01*
X133877619Y-121444286D01*
X133830000Y-121396667D01*
X133782381Y-121301429D01*
X173457143Y-110257143D02*
X173409524Y-110304762D01*
X173266667Y-110352381D01*
X173171429Y-110352381D01*
X173028571Y-110304762D01*
X172933333Y-110209524D01*
X172885714Y-110114286D01*
X172838095Y-109923810D01*
X172838095Y-109780952D01*
X172885714Y-109590476D01*
X172933333Y-109495238D01*
X173028571Y-109400000D01*
X173171429Y-109352381D01*
X173266667Y-109352381D01*
X173409524Y-109400000D01*
X173457143Y-109447619D01*
X174409524Y-110352381D02*
X173838095Y-110352381D01*
X174123809Y-110352381D02*
X174123809Y-109352381D01*
X174028571Y-109495238D01*
X173933333Y-109590476D01*
X173838095Y-109638095D01*
X175314286Y-109352381D02*
X174838095Y-109352381D01*
X174790476Y-109828571D01*
X174838095Y-109780952D01*
X174933333Y-109733333D01*
X175171429Y-109733333D01*
X175266667Y-109780952D01*
X175314286Y-109828571D01*
X175361905Y-109923810D01*
X175361905Y-110161905D01*
X175314286Y-110257143D01*
X175266667Y-110304762D01*
X175171429Y-110352381D01*
X174933333Y-110352381D01*
X174838095Y-110304762D01*
X174790476Y-110257143D01*
X149037143Y-111592857D02*
X149084762Y-111640476D01*
X149132381Y-111783333D01*
X149132381Y-111878571D01*
X149084762Y-112021429D01*
X148989524Y-112116667D01*
X148894286Y-112164286D01*
X148703810Y-112211905D01*
X148560952Y-112211905D01*
X148370476Y-112164286D01*
X148275238Y-112116667D01*
X148180000Y-112021429D01*
X148132381Y-111878571D01*
X148132381Y-111783333D01*
X148180000Y-111640476D01*
X148227619Y-111592857D01*
X149132381Y-110640476D02*
X149132381Y-111211905D01*
X149132381Y-110926191D02*
X148132381Y-110926191D01*
X148275238Y-111021429D01*
X148370476Y-111116667D01*
X148418095Y-111211905D01*
X148132381Y-110307143D02*
X148132381Y-109640476D01*
X149132381Y-110069048D01*
X153457143Y-121542857D02*
X153504762Y-121590476D01*
X153552381Y-121733333D01*
X153552381Y-121828571D01*
X153504762Y-121971429D01*
X153409524Y-122066667D01*
X153314286Y-122114286D01*
X153123810Y-122161905D01*
X152980952Y-122161905D01*
X152790476Y-122114286D01*
X152695238Y-122066667D01*
X152600000Y-121971429D01*
X152552381Y-121828571D01*
X152552381Y-121733333D01*
X152600000Y-121590476D01*
X152647619Y-121542857D01*
X153552381Y-120590476D02*
X153552381Y-121161905D01*
X153552381Y-120876191D02*
X152552381Y-120876191D01*
X152695238Y-120971429D01*
X152790476Y-121066667D01*
X152838095Y-121161905D01*
X152980952Y-120019048D02*
X152933333Y-120114286D01*
X152885714Y-120161905D01*
X152790476Y-120209524D01*
X152742857Y-120209524D01*
X152647619Y-120161905D01*
X152600000Y-120114286D01*
X152552381Y-120019048D01*
X152552381Y-119828571D01*
X152600000Y-119733333D01*
X152647619Y-119685714D01*
X152742857Y-119638095D01*
X152790476Y-119638095D01*
X152885714Y-119685714D01*
X152933333Y-119733333D01*
X152980952Y-119828571D01*
X152980952Y-120019048D01*
X153028571Y-120114286D01*
X153076190Y-120161905D01*
X153171429Y-120209524D01*
X153361905Y-120209524D01*
X153457143Y-120161905D01*
X153504762Y-120114286D01*
X153552381Y-120019048D01*
X153552381Y-119828571D01*
X153504762Y-119733333D01*
X153457143Y-119685714D01*
X153361905Y-119638095D01*
X153171429Y-119638095D01*
X153076190Y-119685714D01*
X153028571Y-119733333D01*
X152980952Y-119828571D01*
X150827143Y-117597143D02*
X150779524Y-117644762D01*
X150636667Y-117692381D01*
X150541429Y-117692381D01*
X150398571Y-117644762D01*
X150303333Y-117549524D01*
X150255714Y-117454286D01*
X150208095Y-117263810D01*
X150208095Y-117120952D01*
X150255714Y-116930476D01*
X150303333Y-116835238D01*
X150398571Y-116740000D01*
X150541429Y-116692381D01*
X150636667Y-116692381D01*
X150779524Y-116740000D01*
X150827143Y-116787619D01*
X151779524Y-117692381D02*
X151208095Y-117692381D01*
X151493809Y-117692381D02*
X151493809Y-116692381D01*
X151398571Y-116835238D01*
X151303333Y-116930476D01*
X151208095Y-116978095D01*
X152255714Y-117692381D02*
X152446190Y-117692381D01*
X152541429Y-117644762D01*
X152589048Y-117597143D01*
X152684286Y-117454286D01*
X152731905Y-117263810D01*
X152731905Y-116882857D01*
X152684286Y-116787619D01*
X152636667Y-116740000D01*
X152541429Y-116692381D01*
X152350952Y-116692381D01*
X152255714Y-116740000D01*
X152208095Y-116787619D01*
X152160476Y-116882857D01*
X152160476Y-117120952D01*
X152208095Y-117216190D01*
X152255714Y-117263810D01*
X152350952Y-117311429D01*
X152541429Y-117311429D01*
X152636667Y-117263810D01*
X152684286Y-117216190D01*
X152731905Y-117120952D01*
X142757143Y-122757143D02*
X142709524Y-122804762D01*
X142566667Y-122852381D01*
X142471429Y-122852381D01*
X142328571Y-122804762D01*
X142233333Y-122709524D01*
X142185714Y-122614286D01*
X142138095Y-122423810D01*
X142138095Y-122280952D01*
X142185714Y-122090476D01*
X142233333Y-121995238D01*
X142328571Y-121900000D01*
X142471429Y-121852381D01*
X142566667Y-121852381D01*
X142709524Y-121900000D01*
X142757143Y-121947619D01*
X143138095Y-121947619D02*
X143185714Y-121900000D01*
X143280952Y-121852381D01*
X143519048Y-121852381D01*
X143614286Y-121900000D01*
X143661905Y-121947619D01*
X143709524Y-122042857D01*
X143709524Y-122138095D01*
X143661905Y-122280952D01*
X143090476Y-122852381D01*
X143709524Y-122852381D01*
X144328571Y-121852381D02*
X144423810Y-121852381D01*
X144519048Y-121900000D01*
X144566667Y-121947619D01*
X144614286Y-122042857D01*
X144661905Y-122233333D01*
X144661905Y-122471429D01*
X144614286Y-122661905D01*
X144566667Y-122757143D01*
X144519048Y-122804762D01*
X144423810Y-122852381D01*
X144328571Y-122852381D01*
X144233333Y-122804762D01*
X144185714Y-122757143D01*
X144138095Y-122661905D01*
X144090476Y-122471429D01*
X144090476Y-122233333D01*
X144138095Y-122042857D01*
X144185714Y-121947619D01*
X144233333Y-121900000D01*
X144328571Y-121852381D01*
X142757143Y-117457143D02*
X142709524Y-117504762D01*
X142566667Y-117552381D01*
X142471429Y-117552381D01*
X142328571Y-117504762D01*
X142233333Y-117409524D01*
X142185714Y-117314286D01*
X142138095Y-117123810D01*
X142138095Y-116980952D01*
X142185714Y-116790476D01*
X142233333Y-116695238D01*
X142328571Y-116600000D01*
X142471429Y-116552381D01*
X142566667Y-116552381D01*
X142709524Y-116600000D01*
X142757143Y-116647619D01*
X143138095Y-116647619D02*
X143185714Y-116600000D01*
X143280952Y-116552381D01*
X143519048Y-116552381D01*
X143614286Y-116600000D01*
X143661905Y-116647619D01*
X143709524Y-116742857D01*
X143709524Y-116838095D01*
X143661905Y-116980952D01*
X143090476Y-117552381D01*
X143709524Y-117552381D01*
X144661905Y-117552381D02*
X144090476Y-117552381D01*
X144376190Y-117552381D02*
X144376190Y-116552381D01*
X144280952Y-116695238D01*
X144185714Y-116790476D01*
X144090476Y-116838095D01*
X128877143Y-114197143D02*
X128829524Y-114244762D01*
X128686667Y-114292381D01*
X128591429Y-114292381D01*
X128448571Y-114244762D01*
X128353333Y-114149524D01*
X128305714Y-114054286D01*
X128258095Y-113863810D01*
X128258095Y-113720952D01*
X128305714Y-113530476D01*
X128353333Y-113435238D01*
X128448571Y-113340000D01*
X128591429Y-113292381D01*
X128686667Y-113292381D01*
X128829524Y-113340000D01*
X128877143Y-113387619D01*
X129258095Y-113387619D02*
X129305714Y-113340000D01*
X129400952Y-113292381D01*
X129639048Y-113292381D01*
X129734286Y-113340000D01*
X129781905Y-113387619D01*
X129829524Y-113482857D01*
X129829524Y-113578095D01*
X129781905Y-113720952D01*
X129210476Y-114292381D01*
X129829524Y-114292381D01*
X130210476Y-113387619D02*
X130258095Y-113340000D01*
X130353333Y-113292381D01*
X130591429Y-113292381D01*
X130686667Y-113340000D01*
X130734286Y-113387619D01*
X130781905Y-113482857D01*
X130781905Y-113578095D01*
X130734286Y-113720952D01*
X130162857Y-114292381D01*
X130781905Y-114292381D01*
X133531905Y-125592381D02*
X133531905Y-124592381D01*
X133770000Y-124592381D01*
X133912858Y-124640000D01*
X134008096Y-124735238D01*
X134055715Y-124830476D01*
X134103334Y-125020952D01*
X134103334Y-125163810D01*
X134055715Y-125354286D01*
X134008096Y-125449524D01*
X133912858Y-125544762D01*
X133770000Y-125592381D01*
X133531905Y-125592381D01*
X135055715Y-125592381D02*
X134484286Y-125592381D01*
X134770000Y-125592381D02*
X134770000Y-124592381D01*
X134674762Y-124735238D01*
X134579524Y-124830476D01*
X134484286Y-124878095D01*
X130601905Y-125782381D02*
X130601905Y-124782381D01*
X130840000Y-124782381D01*
X130982858Y-124830000D01*
X131078096Y-124925238D01*
X131125715Y-125020476D01*
X131173334Y-125210952D01*
X131173334Y-125353810D01*
X131125715Y-125544286D01*
X131078096Y-125639524D01*
X130982858Y-125734762D01*
X130840000Y-125782381D01*
X130601905Y-125782381D01*
X131554286Y-124877619D02*
X131601905Y-124830000D01*
X131697143Y-124782381D01*
X131935239Y-124782381D01*
X132030477Y-124830000D01*
X132078096Y-124877619D01*
X132125715Y-124972857D01*
X132125715Y-125068095D01*
X132078096Y-125210952D01*
X131506667Y-125782381D01*
X132125715Y-125782381D01*
X137642381Y-124886666D02*
X137642381Y-125362857D01*
X136642381Y-125362857D01*
X137642381Y-124029523D02*
X137642381Y-124600952D01*
X137642381Y-124315238D02*
X136642381Y-124315238D01*
X136785238Y-124410476D01*
X136880476Y-124505714D01*
X136928095Y-124600952D01*
X148923810Y-123138095D02*
X148847619Y-123100000D01*
X148771429Y-123023810D01*
X148657143Y-122909524D01*
X148580952Y-122871429D01*
X148504762Y-122871429D01*
X148542857Y-123061905D02*
X148466667Y-123023810D01*
X148390476Y-122947619D01*
X148352381Y-122795238D01*
X148352381Y-122528571D01*
X148390476Y-122376190D01*
X148466667Y-122300000D01*
X148542857Y-122261905D01*
X148695238Y-122261905D01*
X148771429Y-122300000D01*
X148847619Y-122376190D01*
X148885714Y-122528571D01*
X148885714Y-122795238D01*
X148847619Y-122947619D01*
X148771429Y-123023810D01*
X148695238Y-123061905D01*
X148542857Y-123061905D01*
X149647619Y-123061905D02*
X149190476Y-123061905D01*
X149419047Y-123061905D02*
X149419047Y-122261905D01*
X149342857Y-122376190D01*
X149266666Y-122452381D01*
X149190476Y-122490476D01*
X146423810Y-123038095D02*
X146347619Y-123000000D01*
X146271429Y-122923810D01*
X146157143Y-122809524D01*
X146080952Y-122771429D01*
X146004762Y-122771429D01*
X146042857Y-122961905D02*
X145966667Y-122923810D01*
X145890476Y-122847619D01*
X145852381Y-122695238D01*
X145852381Y-122428571D01*
X145890476Y-122276190D01*
X145966667Y-122200000D01*
X146042857Y-122161905D01*
X146195238Y-122161905D01*
X146271429Y-122200000D01*
X146347619Y-122276190D01*
X146385714Y-122428571D01*
X146385714Y-122695238D01*
X146347619Y-122847619D01*
X146271429Y-122923810D01*
X146195238Y-122961905D01*
X146042857Y-122961905D01*
X146690476Y-122238095D02*
X146728571Y-122200000D01*
X146804762Y-122161905D01*
X146995238Y-122161905D01*
X147071428Y-122200000D01*
X147109524Y-122238095D01*
X147147619Y-122314286D01*
X147147619Y-122390476D01*
X147109524Y-122504762D01*
X146652381Y-122961905D01*
X147147619Y-122961905D01*
X126453334Y-117192381D02*
X126120000Y-116716190D01*
X125881905Y-117192381D02*
X125881905Y-116192381D01*
X126262858Y-116192381D01*
X126358096Y-116240000D01*
X126405715Y-116287619D01*
X126453334Y-116382857D01*
X126453334Y-116525714D01*
X126405715Y-116620952D01*
X126358096Y-116668571D01*
X126262858Y-116716190D01*
X125881905Y-116716190D01*
X127405715Y-117192381D02*
X126834286Y-117192381D01*
X127120000Y-117192381D02*
X127120000Y-116192381D01*
X127024762Y-116335238D01*
X126929524Y-116430476D01*
X126834286Y-116478095D01*
X129253334Y-117192381D02*
X128920000Y-116716190D01*
X128681905Y-117192381D02*
X128681905Y-116192381D01*
X129062858Y-116192381D01*
X129158096Y-116240000D01*
X129205715Y-116287619D01*
X129253334Y-116382857D01*
X129253334Y-116525714D01*
X129205715Y-116620952D01*
X129158096Y-116668571D01*
X129062858Y-116716190D01*
X128681905Y-116716190D01*
X129634286Y-116287619D02*
X129681905Y-116240000D01*
X129777143Y-116192381D01*
X130015239Y-116192381D01*
X130110477Y-116240000D01*
X130158096Y-116287619D01*
X130205715Y-116382857D01*
X130205715Y-116478095D01*
X130158096Y-116620952D01*
X129586667Y-117192381D01*
X130205715Y-117192381D01*
X138833334Y-127092381D02*
X138500000Y-126616190D01*
X138261905Y-127092381D02*
X138261905Y-126092381D01*
X138642858Y-126092381D01*
X138738096Y-126140000D01*
X138785715Y-126187619D01*
X138833334Y-126282857D01*
X138833334Y-126425714D01*
X138785715Y-126520952D01*
X138738096Y-126568571D01*
X138642858Y-126616190D01*
X138261905Y-126616190D01*
X139738096Y-126092381D02*
X139261905Y-126092381D01*
X139214286Y-126568571D01*
X139261905Y-126520952D01*
X139357143Y-126473333D01*
X139595239Y-126473333D01*
X139690477Y-126520952D01*
X139738096Y-126568571D01*
X139785715Y-126663810D01*
X139785715Y-126901905D01*
X139738096Y-126997143D01*
X139690477Y-127044762D01*
X139595239Y-127092381D01*
X139357143Y-127092381D01*
X139261905Y-127044762D01*
X139214286Y-126997143D01*
X128503334Y-125562381D02*
X128170000Y-125086190D01*
X127931905Y-125562381D02*
X127931905Y-124562381D01*
X128312858Y-124562381D01*
X128408096Y-124610000D01*
X128455715Y-124657619D01*
X128503334Y-124752857D01*
X128503334Y-124895714D01*
X128455715Y-124990952D01*
X128408096Y-125038571D01*
X128312858Y-125086190D01*
X127931905Y-125086190D01*
X129360477Y-124562381D02*
X129170000Y-124562381D01*
X129074762Y-124610000D01*
X129027143Y-124657619D01*
X128931905Y-124800476D01*
X128884286Y-124990952D01*
X128884286Y-125371905D01*
X128931905Y-125467143D01*
X128979524Y-125514762D01*
X129074762Y-125562381D01*
X129265239Y-125562381D01*
X129360477Y-125514762D01*
X129408096Y-125467143D01*
X129455715Y-125371905D01*
X129455715Y-125133810D01*
X129408096Y-125038571D01*
X129360477Y-124990952D01*
X129265239Y-124943333D01*
X129074762Y-124943333D01*
X128979524Y-124990952D01*
X128931905Y-125038571D01*
X128884286Y-125133810D01*
X151237143Y-110332381D02*
X150903809Y-109856190D01*
X150665714Y-110332381D02*
X150665714Y-109332381D01*
X151046667Y-109332381D01*
X151141905Y-109380000D01*
X151189524Y-109427619D01*
X151237143Y-109522857D01*
X151237143Y-109665714D01*
X151189524Y-109760952D01*
X151141905Y-109808571D01*
X151046667Y-109856190D01*
X150665714Y-109856190D01*
X152189524Y-110332381D02*
X151618095Y-110332381D01*
X151903809Y-110332381D02*
X151903809Y-109332381D01*
X151808571Y-109475238D01*
X151713333Y-109570476D01*
X151618095Y-109618095D01*
X152808571Y-109332381D02*
X152903810Y-109332381D01*
X152999048Y-109380000D01*
X153046667Y-109427619D01*
X153094286Y-109522857D01*
X153141905Y-109713333D01*
X153141905Y-109951429D01*
X153094286Y-110141905D01*
X153046667Y-110237143D01*
X152999048Y-110284762D01*
X152903810Y-110332381D01*
X152808571Y-110332381D01*
X152713333Y-110284762D01*
X152665714Y-110237143D01*
X152618095Y-110141905D01*
X152570476Y-109951429D01*
X152570476Y-109713333D01*
X152618095Y-109522857D01*
X152665714Y-109427619D01*
X152713333Y-109380000D01*
X152808571Y-109332381D01*
X145557143Y-117552381D02*
X145223809Y-117076190D01*
X144985714Y-117552381D02*
X144985714Y-116552381D01*
X145366667Y-116552381D01*
X145461905Y-116600000D01*
X145509524Y-116647619D01*
X145557143Y-116742857D01*
X145557143Y-116885714D01*
X145509524Y-116980952D01*
X145461905Y-117028571D01*
X145366667Y-117076190D01*
X144985714Y-117076190D01*
X146509524Y-117552381D02*
X145938095Y-117552381D01*
X146223809Y-117552381D02*
X146223809Y-116552381D01*
X146128571Y-116695238D01*
X146033333Y-116790476D01*
X145938095Y-116838095D01*
X146890476Y-116647619D02*
X146938095Y-116600000D01*
X147033333Y-116552381D01*
X147271429Y-116552381D01*
X147366667Y-116600000D01*
X147414286Y-116647619D01*
X147461905Y-116742857D01*
X147461905Y-116838095D01*
X147414286Y-116980952D01*
X146842857Y-117552381D01*
X147461905Y-117552381D01*
X182166667Y-119704762D02*
X182309524Y-119752381D01*
X182547620Y-119752381D01*
X182642858Y-119704762D01*
X182690477Y-119657143D01*
X182738096Y-119561905D01*
X182738096Y-119466667D01*
X182690477Y-119371429D01*
X182642858Y-119323810D01*
X182547620Y-119276190D01*
X182357143Y-119228571D01*
X182261905Y-119180952D01*
X182214286Y-119133333D01*
X182166667Y-119038095D01*
X182166667Y-118942857D01*
X182214286Y-118847619D01*
X182261905Y-118800000D01*
X182357143Y-118752381D01*
X182595239Y-118752381D01*
X182738096Y-118800000D01*
X183071429Y-118752381D02*
X183309524Y-119752381D01*
X183500001Y-119038095D01*
X183690477Y-119752381D01*
X183928572Y-118752381D01*
X184833334Y-119752381D02*
X184261905Y-119752381D01*
X184547619Y-119752381D02*
X184547619Y-118752381D01*
X184452381Y-118895238D01*
X184357143Y-118990476D01*
X184261905Y-119038095D01*
X186452381Y-122938095D02*
X185452381Y-122938095D01*
X185452381Y-122557142D01*
X185500000Y-122461904D01*
X185547619Y-122414285D01*
X185642857Y-122366666D01*
X185785714Y-122366666D01*
X185880952Y-122414285D01*
X185928571Y-122461904D01*
X185976190Y-122557142D01*
X185976190Y-122938095D01*
X186452381Y-121414285D02*
X186452381Y-121985714D01*
X186452381Y-121700000D02*
X185452381Y-121700000D01*
X185595238Y-121795238D01*
X185690476Y-121890476D01*
X185738095Y-121985714D01*
X129708095Y-120392381D02*
X129708095Y-121201905D01*
X129755714Y-121297143D01*
X129803333Y-121344762D01*
X129898571Y-121392381D01*
X130089048Y-121392381D01*
X130184286Y-121344762D01*
X130231905Y-121297143D01*
X130279524Y-121201905D01*
X130279524Y-120392381D01*
X131279524Y-121392381D02*
X130708095Y-121392381D01*
X130993809Y-121392381D02*
X130993809Y-120392381D01*
X130898571Y-120535238D01*
X130803333Y-120630476D01*
X130708095Y-120678095D01*
M02*
