M48
METRIC,TZ
T1C0.600
T2C1.016
%
G90
G05
T1
X122600Y-116600
X122600Y-118300
X122600Y-120100
X122670Y-122840
X123920Y-122840
X124500Y-116600
X125800Y-115000
X126700Y-121500
X126800Y-113200
X126900Y-111600
X127000Y-110000
X129300Y-110000
X131500Y-110000
X133700Y-110000
X135700Y-110000
X137380Y-123970
X137700Y-110000
X139910Y-120910
X141870Y-119810
X141910Y-122850
X145040Y-123080
X147930Y-112610
X150740Y-123860
X150940Y-116160
X151770Y-114340
X151970Y-123430
X152800Y-124400
X153100Y-110100
X153170Y-122710
X153280Y-127070
X155600Y-126650
X158160Y-116460
X158440Y-125460
X159670Y-120640
X160400Y-124200
X161670Y-111980
X161730Y-118340
X162400Y-113800
X163560Y-118220
X164000Y-114700
X164000Y-121400
X164000Y-123000
X164040Y-116880
X165500Y-121300
X165690Y-123000
X166100Y-112800
X166570Y-115410
X166780Y-116930
X168330Y-119070
X168600Y-124710
X169200Y-120900
X169410Y-123590
X171650Y-124480
X172500Y-110100
X172540Y-112490
X174200Y-123800
X174700Y-122700
X174800Y-120800
X176300Y-110100
X176800Y-124900
X178200Y-110100
X179100Y-124900
X180000Y-110100
X181400Y-124900
X183290Y-117060
X183600Y-124900
X184800Y-123400
T2
X188520Y-118040
X188520Y-120580
X188520Y-123120
X188520Y-125660
T0
M30
