G04 #@! TF.FileFunction,Copper,L2,Bot,Signal*
%FSLAX46Y46*%
G04 Gerber Fmt 4.6, Leading zero omitted, Abs format (unit mm)*
G04 Created by KiCad (PCBNEW 4.0.5+dfsg1-4~bpo8+1) date Mon Dec 18 16:44:26 2017*
%MOMM*%
%LPD*%
G01*
G04 APERTURE LIST*
%ADD10C,0.100000*%
%ADD11C,1.000000*%
%ADD12O,0.800000X1.800000*%
%ADD13R,1.000000X2.000000*%
%ADD14R,0.950000X1.250000*%
%ADD15O,0.950000X1.250000*%
%ADD16R,0.600000X0.500000*%
%ADD17R,0.500000X0.900000*%
%ADD18R,0.400000X0.600000*%
%ADD19R,0.600000X0.400000*%
%ADD20R,0.250000X0.700000*%
%ADD21R,0.700000X0.250000*%
%ADD22R,1.725000X1.725000*%
%ADD23R,0.270000X0.325000*%
%ADD24R,1.000000X1.800000*%
%ADD25R,2.032000X1.727200*%
%ADD26O,2.032000X1.727200*%
%ADD27C,0.200000*%
%ADD28C,0.400000*%
%ADD29C,0.300000*%
%ADD30C,0.600000*%
%ADD31C,0.254000*%
G04 APERTURE END LIST*
D10*
D11*
X180000000Y-110100000D03*
X178200000Y-110100000D03*
X176300000Y-110100000D03*
X137700000Y-110000000D03*
X135700000Y-110000000D03*
X133700000Y-110000000D03*
X166100000Y-112800000D03*
X165500000Y-121300000D03*
X184800000Y-123400000D03*
X126900000Y-111600000D03*
X126800000Y-113200000D03*
X125800000Y-115000000D03*
X122600000Y-118300000D03*
X122600000Y-120100000D03*
X124500000Y-116600000D03*
X122600000Y-116600000D03*
X153100000Y-110100000D03*
X181400000Y-124900000D03*
X176800000Y-124900000D03*
X179100000Y-124900000D03*
X127000000Y-110000000D03*
X164000000Y-123000000D03*
X129300000Y-110000000D03*
X172500000Y-110100000D03*
X131500000Y-110000000D03*
X164000000Y-121400000D03*
D12*
X140770000Y-115390000D03*
X141870000Y-115390000D03*
X142970000Y-115390000D03*
X144070000Y-115390000D03*
X145170000Y-115390000D03*
X146270000Y-115390000D03*
X147370000Y-115390000D03*
X148470000Y-115390000D03*
X149570000Y-115390000D03*
X149570000Y-125090000D03*
X148470000Y-125090000D03*
X147370000Y-125090000D03*
X146270000Y-125090000D03*
X145170000Y-125090000D03*
X144070000Y-125090000D03*
X142970000Y-125090000D03*
X141870000Y-125090000D03*
X140770000Y-125090000D03*
D13*
X142920000Y-101440000D03*
X148920000Y-101440000D03*
D14*
X123920000Y-122840000D03*
D15*
X122670000Y-122840000D03*
D16*
X168050000Y-115400000D03*
X169150000Y-115400000D03*
X162440000Y-125880000D03*
X161340000Y-125880000D03*
X172520000Y-119590000D03*
X173620000Y-119590000D03*
X172520000Y-116790000D03*
X173620000Y-116790000D03*
X172520000Y-115390000D03*
X173620000Y-115390000D03*
X172520000Y-120990000D03*
X173620000Y-120990000D03*
X167700000Y-111090000D03*
X166600000Y-111090000D03*
X170270000Y-111100000D03*
X169170000Y-111100000D03*
X147445000Y-111165000D03*
X148545000Y-111165000D03*
X140995000Y-111040000D03*
X139895000Y-111040000D03*
X145120000Y-113340000D03*
X146220000Y-113340000D03*
X163750000Y-111000000D03*
X162650000Y-111000000D03*
X155995000Y-111065000D03*
X157095000Y-111065000D03*
X159290000Y-111090000D03*
X160390000Y-111090000D03*
X157130000Y-112540000D03*
X156030000Y-112540000D03*
D17*
X143370000Y-113140000D03*
X141870000Y-113140000D03*
D18*
X153950000Y-114400000D03*
X154850000Y-114400000D03*
X157050000Y-114400000D03*
X156150000Y-114400000D03*
X143445000Y-111040000D03*
X142545000Y-111040000D03*
D19*
X163650000Y-112600000D03*
X163650000Y-113500000D03*
X159810000Y-115940000D03*
X159810000Y-116840000D03*
D20*
X166340000Y-124500000D03*
X165840000Y-124500000D03*
X165340000Y-124500000D03*
X164840000Y-124500000D03*
X164340000Y-124500000D03*
X163840000Y-124500000D03*
X163340000Y-124500000D03*
X162840000Y-124500000D03*
D21*
X162190000Y-123850000D03*
X162190000Y-123350000D03*
X162190000Y-122850000D03*
X162190000Y-122350000D03*
X162190000Y-121850000D03*
X162190000Y-121350000D03*
X162190000Y-120850000D03*
X162190000Y-120350000D03*
D20*
X162840000Y-119700000D03*
X163340000Y-119700000D03*
X163840000Y-119700000D03*
X164340000Y-119700000D03*
X164840000Y-119700000D03*
X165340000Y-119700000D03*
X165840000Y-119700000D03*
X166340000Y-119700000D03*
D21*
X166990000Y-120350000D03*
X166990000Y-120850000D03*
X166990000Y-121350000D03*
X166990000Y-121850000D03*
X166990000Y-122350000D03*
X166990000Y-122850000D03*
X166990000Y-123350000D03*
X166990000Y-123850000D03*
D22*
X163727500Y-121237500D03*
X165452500Y-121237500D03*
X163727500Y-122962500D03*
X165452500Y-122962500D03*
D23*
X145520000Y-112065000D03*
X145120000Y-112065000D03*
X144720000Y-112065000D03*
X144720000Y-111615000D03*
X145120000Y-111615000D03*
X145520000Y-111615000D03*
D21*
X159045000Y-114565000D03*
X159045000Y-114165000D03*
X159045000Y-113765000D03*
X159045000Y-113365000D03*
X159045000Y-112965000D03*
X160645000Y-112965000D03*
X160645000Y-113365000D03*
X160645000Y-113765000D03*
X160645000Y-114165000D03*
X160645000Y-114565000D03*
D24*
X170730000Y-113310000D03*
X168230000Y-113310000D03*
D25*
X188520000Y-118040000D03*
D26*
X188520000Y-120580000D03*
X188520000Y-123120000D03*
X188520000Y-125660000D03*
D11*
X183600000Y-124900000D03*
D16*
X168050000Y-116930000D03*
X169150000Y-116930000D03*
X172520000Y-118190000D03*
X173620000Y-118190000D03*
D11*
X126700000Y-121500000D03*
X162400000Y-113800000D03*
X158440000Y-125460000D03*
X165690000Y-123000000D03*
X172540000Y-112490000D03*
X161670000Y-111980000D03*
X151770000Y-114340000D03*
X137380000Y-123970000D03*
X169200000Y-120900000D03*
X145040000Y-123080000D03*
X150740000Y-123860000D03*
X168330000Y-119070000D03*
X166780000Y-116930000D03*
X164000000Y-114700000D03*
X141870000Y-119810000D03*
X141910000Y-122850000D03*
X183290000Y-117060000D03*
X168600000Y-124710000D03*
X159670000Y-120640000D03*
X160400000Y-124200000D03*
X153170000Y-122710000D03*
X151970000Y-123430000D03*
X139910000Y-120910000D03*
X152800000Y-124400000D03*
X150940000Y-116160000D03*
X147930000Y-112610000D03*
X163560000Y-118220000D03*
X174700000Y-122700000D03*
X164040000Y-116880000D03*
X166570000Y-115410000D03*
X155600000Y-126650000D03*
X171650000Y-124480000D03*
X174200000Y-123800000D03*
X174800000Y-120800000D03*
X153280000Y-127070000D03*
X161730000Y-118340000D03*
X169410000Y-123590000D03*
X158160000Y-116460000D03*
D27*
X142545000Y-111040000D02*
X142545000Y-101815000D01*
X142545000Y-101815000D02*
X142920000Y-101440000D01*
X142545000Y-111040000D02*
X140995000Y-111040000D01*
X123370000Y-121490000D02*
X123300000Y-121560000D01*
X126690000Y-121490000D02*
X123370000Y-121490000D01*
X126700000Y-121500000D02*
X126690000Y-121490000D01*
X123410000Y-121490000D02*
X125090000Y-121490000D01*
X123300000Y-121600000D02*
X123300000Y-121560000D01*
X123410000Y-121490000D02*
X123300000Y-121600000D01*
X125250000Y-121490000D02*
X125090000Y-121490000D01*
X137380000Y-123970000D02*
X136880000Y-123470000D01*
X136880000Y-123470000D02*
X135940000Y-122530000D01*
X135940000Y-122530000D02*
X126290000Y-122530000D01*
X126290000Y-122530000D02*
X125250000Y-121490000D01*
X160645000Y-114165000D02*
X162035000Y-114165000D01*
X162035000Y-114165000D02*
X162400000Y-113800000D01*
X160645000Y-112965000D02*
X160685000Y-112965000D01*
X160685000Y-112965000D02*
X161670000Y-111980000D01*
D28*
X151400000Y-126470000D02*
X152130000Y-126470000D01*
X157780000Y-124800000D02*
X158440000Y-125460000D01*
X155000000Y-124800000D02*
X157780000Y-124800000D01*
X153800000Y-126000000D02*
X155000000Y-124800000D01*
X152600000Y-126000000D02*
X153800000Y-126000000D01*
X152130000Y-126470000D02*
X152600000Y-126000000D01*
D27*
X151400000Y-126470000D02*
X148820000Y-126470000D01*
X161340000Y-125880000D02*
X158860000Y-125880000D01*
X158860000Y-125880000D02*
X158440000Y-125460000D01*
X165690000Y-123000000D02*
X165652500Y-122962500D01*
X165652500Y-122962500D02*
X165452500Y-122962500D01*
X163727500Y-121237500D02*
X165452500Y-121237500D01*
X163727500Y-121237500D02*
X163727500Y-122962500D01*
X165452500Y-122962500D02*
X163727500Y-122962500D01*
X165452500Y-121237500D02*
X165452500Y-122962500D01*
X122670000Y-122840000D02*
X122670000Y-122190000D01*
X122670000Y-122190000D02*
X123300000Y-121560000D01*
X124480000Y-120380000D02*
X139170000Y-120380000D01*
X123300000Y-121560000D02*
X124480000Y-120380000D01*
X169150000Y-115400000D02*
X169150000Y-115170000D01*
X169150000Y-115170000D02*
X168730000Y-114750000D01*
X166600000Y-111090000D02*
X166600000Y-111840000D01*
X167230000Y-114750000D02*
X168730000Y-114750000D01*
X166940000Y-114460000D02*
X167230000Y-114750000D01*
X166940000Y-112180000D02*
X166940000Y-114460000D01*
X166600000Y-111840000D02*
X166940000Y-112180000D01*
X172540000Y-112490000D02*
X172540000Y-110560000D01*
X172220000Y-110240000D02*
X168840000Y-110240000D01*
X172540000Y-110560000D02*
X172220000Y-110240000D01*
X166600000Y-111090000D02*
X166600000Y-110710000D01*
X166600000Y-110710000D02*
X167090000Y-110220000D01*
X167090000Y-110220000D02*
X168820000Y-110220000D01*
X168820000Y-110220000D02*
X168840000Y-110240000D01*
X169170000Y-110570000D02*
X169170000Y-111100000D01*
X168840000Y-110240000D02*
X169170000Y-110570000D01*
X169150000Y-115400000D02*
X169150000Y-116930000D01*
X173620000Y-115390000D02*
X173620000Y-113570000D01*
X173620000Y-113570000D02*
X172540000Y-112490000D01*
X162650000Y-111000000D02*
X161670000Y-111980000D01*
X160645000Y-112965000D02*
X160645000Y-113365000D01*
X160390000Y-111090000D02*
X160390000Y-111370000D01*
X160390000Y-111370000D02*
X159930000Y-111830000D01*
X159930000Y-111830000D02*
X156510000Y-111830000D01*
X160390000Y-111090000D02*
X162560000Y-111090000D01*
X162560000Y-111090000D02*
X162650000Y-111000000D01*
X156030000Y-112540000D02*
X156030000Y-112310000D01*
X156030000Y-112310000D02*
X156510000Y-111830000D01*
X156510000Y-111830000D02*
X157095000Y-111245000D01*
X157095000Y-111245000D02*
X157095000Y-111065000D01*
X149570000Y-125090000D02*
X149570000Y-125720000D01*
X149570000Y-125720000D02*
X148820000Y-126470000D01*
X148820000Y-126470000D02*
X148750000Y-126540000D01*
X148750000Y-126540000D02*
X139950000Y-126540000D01*
X139950000Y-126540000D02*
X137380000Y-123970000D01*
X151770000Y-114340000D02*
X151770000Y-115230000D01*
X151060000Y-117730000D02*
X141820000Y-117730000D01*
X152100000Y-116690000D02*
X151060000Y-117730000D01*
X152100000Y-115560000D02*
X152100000Y-116690000D01*
X151770000Y-115230000D02*
X152100000Y-115560000D01*
X151030000Y-113600000D02*
X148310000Y-113600000D01*
X151770000Y-114340000D02*
X151030000Y-113600000D01*
X148545000Y-111165000D02*
X148545000Y-111765000D01*
X148545000Y-111765000D02*
X148880000Y-112100000D01*
X148880000Y-112100000D02*
X148880000Y-113030000D01*
X148880000Y-113030000D02*
X148310000Y-113600000D01*
X146480000Y-113600000D02*
X146220000Y-113340000D01*
X148310000Y-113600000D02*
X146480000Y-113600000D01*
X144720000Y-111615000D02*
X144255000Y-111615000D01*
X140460000Y-112110000D02*
X139895000Y-112675000D01*
X143760000Y-112110000D02*
X140460000Y-112110000D01*
X144255000Y-111615000D02*
X143760000Y-112110000D01*
X139895000Y-111040000D02*
X139895000Y-112675000D01*
X139895000Y-112675000D02*
X139895000Y-114515000D01*
X139895000Y-114515000D02*
X140770000Y-115390000D01*
X148545000Y-111365000D02*
X148545000Y-111165000D01*
X146220000Y-113340000D02*
X146220000Y-112765000D01*
X146220000Y-112765000D02*
X145520000Y-112065000D01*
X140360000Y-119190000D02*
X140360000Y-115800000D01*
X140360000Y-115800000D02*
X140770000Y-115390000D01*
X142970000Y-115390000D02*
X142970000Y-116580000D01*
X142970000Y-116580000D02*
X141820000Y-117730000D01*
X141820000Y-117730000D02*
X140360000Y-119190000D01*
X140360000Y-119190000D02*
X139170000Y-120380000D01*
X139170000Y-120380000D02*
X137380000Y-122170000D01*
X137380000Y-122170000D02*
X137380000Y-123970000D01*
X142970000Y-115390000D02*
X142970000Y-116580000D01*
X173620000Y-120990000D02*
X173620000Y-119590000D01*
X173620000Y-118190000D02*
X173620000Y-119590000D01*
X173620000Y-116790000D02*
X173620000Y-118190000D01*
X173620000Y-115390000D02*
X173620000Y-116790000D01*
X169200000Y-120900000D02*
X169065000Y-120765000D01*
X169065000Y-120765000D02*
X169065000Y-120465000D01*
X163650000Y-112600000D02*
X162500000Y-112600000D01*
X161335000Y-113765000D02*
X160645000Y-113765000D01*
X162500000Y-112600000D02*
X161335000Y-113765000D01*
D29*
X158500000Y-124070000D02*
X154660000Y-124070000D01*
X144885000Y-123235000D02*
X143705000Y-123235000D01*
D27*
X145040000Y-123080000D02*
X144885000Y-123235000D01*
D29*
X150740000Y-125050000D02*
X150740000Y-123860000D01*
X151080000Y-125390000D02*
X150740000Y-125050000D01*
X153340000Y-125390000D02*
X151080000Y-125390000D01*
X154660000Y-124070000D02*
X153340000Y-125390000D01*
X162440000Y-125880000D02*
X162440000Y-125500000D01*
X158650000Y-124070000D02*
X158500000Y-124070000D01*
D27*
X158500000Y-124070000D02*
X158330000Y-124070000D01*
D29*
X159890000Y-125310000D02*
X158650000Y-124070000D01*
X160490000Y-125310000D02*
X159890000Y-125310000D01*
X160700000Y-125100000D02*
X160490000Y-125310000D01*
X162040000Y-125100000D02*
X160700000Y-125100000D01*
X162440000Y-125500000D02*
X162040000Y-125100000D01*
X162440000Y-125880000D02*
X163260000Y-125880000D01*
D27*
X163840000Y-125300000D02*
X163840000Y-124500000D01*
D29*
X163260000Y-125880000D02*
X163840000Y-125300000D01*
D27*
X159810000Y-115940000D02*
X159810000Y-114680000D01*
X159810000Y-114680000D02*
X159695000Y-114565000D01*
X168330000Y-119070000D02*
X168375000Y-119115000D01*
X168375000Y-119115000D02*
X168405000Y-119115000D01*
X166800000Y-116930000D02*
X166780000Y-116930000D01*
X166800000Y-116930000D02*
X168050000Y-116930000D01*
D29*
X164120000Y-112600000D02*
X163650000Y-112600000D01*
X164490000Y-112970000D02*
X164120000Y-112600000D01*
X164490000Y-114010000D02*
X164490000Y-112970000D01*
X163760000Y-114740000D02*
X164490000Y-114010000D01*
D27*
X164090000Y-114610000D02*
X163760000Y-114740000D01*
X164000000Y-114700000D02*
X164090000Y-114610000D01*
X165340000Y-119700000D02*
X165340000Y-118370000D01*
X165340000Y-118370000D02*
X166780000Y-116930000D01*
X172520000Y-116790000D02*
X172090000Y-116790000D01*
X168820000Y-118700000D02*
X168405000Y-119115000D01*
X170180000Y-118700000D02*
X168820000Y-118700000D01*
X172090000Y-116790000D02*
X170180000Y-118700000D01*
X168405000Y-119115000D02*
X167170000Y-120350000D01*
X167170000Y-120350000D02*
X166990000Y-120350000D01*
X160645000Y-113765000D02*
X160005000Y-113765000D01*
X160005000Y-113765000D02*
X159840000Y-113930000D01*
X159840000Y-113930000D02*
X159840000Y-114420000D01*
X159840000Y-114420000D02*
X159695000Y-114565000D01*
X159695000Y-114565000D02*
X159045000Y-114565000D01*
D29*
X163750000Y-111000000D02*
X163750000Y-112500000D01*
D27*
X163750000Y-112500000D02*
X163650000Y-112600000D01*
D29*
X158985000Y-110085000D02*
X163535000Y-110085000D01*
X163750000Y-110300000D02*
X163750000Y-111000000D01*
X163535000Y-110085000D02*
X163750000Y-110300000D01*
X155995000Y-111065000D02*
X155995000Y-110735000D01*
X159290000Y-110390000D02*
X159290000Y-111090000D01*
D27*
X158980000Y-110080000D02*
X158985000Y-110085000D01*
D29*
X158985000Y-110085000D02*
X159290000Y-110390000D01*
X156650000Y-110080000D02*
X158980000Y-110080000D01*
X155995000Y-110735000D02*
X156650000Y-110080000D01*
X153950000Y-114400000D02*
X153950000Y-117220000D01*
X153950000Y-117220000D02*
X151360000Y-119810000D01*
X151360000Y-119810000D02*
X141870000Y-119810000D01*
X153950000Y-114400000D02*
X153950000Y-111990000D01*
X154875000Y-111065000D02*
X155995000Y-111065000D01*
X153950000Y-111990000D02*
X154875000Y-111065000D01*
X144070000Y-125090000D02*
X144070000Y-123600000D01*
X144070000Y-123600000D02*
X143705000Y-123235000D01*
X143705000Y-123235000D02*
X141870000Y-121400000D01*
X141870000Y-121400000D02*
X141870000Y-119810000D01*
D27*
X168050000Y-116930000D02*
X168050000Y-115400000D01*
X172520000Y-116790000D02*
X172520000Y-115390000D01*
X172520000Y-120990000D02*
X172520000Y-119590000D01*
X172520000Y-119590000D02*
X169940000Y-119590000D01*
X169940000Y-119590000D02*
X169065000Y-120465000D01*
X169065000Y-120465000D02*
X168180000Y-121350000D01*
X168180000Y-121350000D02*
X166990000Y-121350000D01*
X168230000Y-113310000D02*
X168360000Y-113310000D01*
X168360000Y-113310000D02*
X170070000Y-115020000D01*
X165840000Y-118780000D02*
X165840000Y-119700000D01*
X166830000Y-117790000D02*
X165840000Y-118780000D01*
X169680000Y-117790000D02*
X166830000Y-117790000D01*
X170070000Y-117400000D02*
X169680000Y-117790000D01*
X170070000Y-115020000D02*
X170070000Y-117400000D01*
X167700000Y-111090000D02*
X167700000Y-112780000D01*
X167700000Y-112780000D02*
X168230000Y-113310000D01*
X166340000Y-119700000D02*
X166340000Y-118980000D01*
X170460000Y-117510000D02*
X170460000Y-113580000D01*
X169770000Y-118200000D02*
X170460000Y-117510000D01*
X167120000Y-118200000D02*
X169770000Y-118200000D01*
X166340000Y-118980000D02*
X167120000Y-118200000D01*
X170460000Y-113580000D02*
X170730000Y-113310000D01*
X170270000Y-111100000D02*
X170270000Y-112850000D01*
X170270000Y-112850000D02*
X170730000Y-113310000D01*
X145605000Y-110565000D02*
X143920000Y-110565000D01*
X143920000Y-110565000D02*
X143445000Y-111040000D01*
X147445000Y-111165000D02*
X147445000Y-110905000D01*
X145120000Y-111050000D02*
X145120000Y-111615000D01*
X145610000Y-110560000D02*
X145605000Y-110565000D01*
X145605000Y-110565000D02*
X145120000Y-111050000D01*
X147100000Y-110560000D02*
X145610000Y-110560000D01*
X147445000Y-110905000D02*
X147100000Y-110560000D01*
D30*
X141910000Y-122850000D02*
X141910000Y-125050000D01*
X141910000Y-125050000D02*
X141870000Y-125090000D01*
D29*
X141870000Y-122890000D02*
X141870000Y-125090000D01*
D27*
X141910000Y-122850000D02*
X141870000Y-122890000D01*
X171900000Y-123570000D02*
X172270000Y-123570000D01*
X175100000Y-124600000D02*
X176130000Y-123570000D01*
X173300000Y-124600000D02*
X175100000Y-124600000D01*
X172270000Y-123570000D02*
X173300000Y-124600000D01*
X181000000Y-123570000D02*
X181930000Y-123570000D01*
X181930000Y-123570000D02*
X183290000Y-122210000D01*
X176130000Y-123570000D02*
X181000000Y-123570000D01*
X183290000Y-122210000D02*
X183290000Y-117060000D01*
X168600000Y-124710000D02*
X168630000Y-124740000D01*
X168630000Y-124740000D02*
X170020000Y-124740000D01*
X170020000Y-124740000D02*
X171190000Y-123570000D01*
X171190000Y-123570000D02*
X171900000Y-123570000D01*
X162190000Y-123850000D02*
X160750000Y-123850000D01*
X160750000Y-123850000D02*
X160400000Y-124200000D01*
X156150000Y-117120000D02*
X159670000Y-120640000D01*
X156150000Y-114400000D02*
X156150000Y-117120000D01*
X154850000Y-114400000D02*
X156150000Y-114400000D01*
X166340000Y-124500000D02*
X166340000Y-125480000D01*
X186400000Y-125000000D02*
X186400000Y-122560000D01*
X185230000Y-126170000D02*
X186400000Y-125000000D01*
X167030000Y-126170000D02*
X185230000Y-126170000D01*
X166340000Y-125480000D02*
X167030000Y-126170000D01*
X188380000Y-120580000D02*
X186400000Y-122560000D01*
X188520000Y-120580000D02*
X188380000Y-120580000D01*
X165840000Y-124500000D02*
X165840000Y-125710000D01*
X186840000Y-124800000D02*
X188520000Y-123120000D01*
X186840000Y-125620000D02*
X186840000Y-124800000D01*
X185740000Y-126720000D02*
X186840000Y-125620000D01*
X166850000Y-126720000D02*
X185740000Y-126720000D01*
X165840000Y-125710000D02*
X166850000Y-126720000D01*
X165340000Y-124500000D02*
X165340000Y-125800000D01*
X186940000Y-127240000D02*
X188520000Y-125660000D01*
X166780000Y-127240000D02*
X186940000Y-127240000D01*
X165340000Y-125800000D02*
X166780000Y-127240000D01*
X187970000Y-126210000D02*
X188520000Y-125660000D01*
X162190000Y-122350000D02*
X153530000Y-122350000D01*
X153530000Y-122350000D02*
X153170000Y-122710000D01*
X162190000Y-122850000D02*
X154370000Y-122850000D01*
X152170000Y-123630000D02*
X151970000Y-123430000D01*
X153590000Y-123630000D02*
X152170000Y-123630000D01*
X154370000Y-122850000D02*
X153590000Y-123630000D01*
X142730000Y-119000000D02*
X141460000Y-119000000D01*
X139910000Y-120550000D02*
X139910000Y-120910000D01*
X141460000Y-119000000D02*
X139910000Y-120550000D01*
X153300000Y-111700000D02*
X153300000Y-117100000D01*
X151400000Y-119000000D02*
X142730000Y-119000000D01*
X153300000Y-117100000D02*
X151400000Y-119000000D01*
X164920000Y-114100000D02*
X164920000Y-115380000D01*
X163440000Y-116000000D02*
X162610000Y-116830000D01*
X164300000Y-116000000D02*
X163440000Y-116000000D01*
X164920000Y-115380000D02*
X164300000Y-116000000D01*
X155500000Y-109620000D02*
X155380000Y-109620000D01*
X155380000Y-109620000D02*
X153300000Y-111700000D01*
X164920000Y-114100000D02*
X164920000Y-110200000D01*
X164920000Y-110200000D02*
X164340000Y-109620000D01*
X164340000Y-109620000D02*
X155500000Y-109620000D01*
X162610000Y-117350000D02*
X162610000Y-116830000D01*
X163340000Y-119700000D02*
X163340000Y-119280000D01*
X162610000Y-118550000D02*
X162610000Y-117350000D01*
X163340000Y-119280000D02*
X162610000Y-118550000D01*
X162190000Y-123350000D02*
X154450000Y-123350000D01*
X153400000Y-124400000D02*
X152800000Y-124400000D01*
X154450000Y-123350000D02*
X153400000Y-124400000D01*
X144070000Y-116570000D02*
X144070000Y-115390000D01*
X144440000Y-116940000D02*
X144070000Y-116570000D01*
X150160000Y-116940000D02*
X144440000Y-116940000D01*
X150940000Y-116160000D02*
X150160000Y-116940000D01*
X145520000Y-111615000D02*
X146195000Y-111615000D01*
X147190000Y-112610000D02*
X147930000Y-112610000D01*
X146195000Y-111615000D02*
X147190000Y-112610000D01*
X145120000Y-113340000D02*
X145120000Y-115340000D01*
X145120000Y-115340000D02*
X145170000Y-115390000D01*
X145120000Y-113340000D02*
X145120000Y-112065000D01*
X163840000Y-119700000D02*
X163840000Y-118500000D01*
X163840000Y-118500000D02*
X163560000Y-118220000D01*
X166990000Y-122350000D02*
X174350000Y-122350000D01*
X174350000Y-122350000D02*
X174700000Y-122700000D01*
X164040000Y-116880000D02*
X164040000Y-117180000D01*
X164400000Y-119040000D02*
X164340000Y-119040000D01*
X164400000Y-117540000D02*
X164400000Y-119040000D01*
X164040000Y-117180000D02*
X164400000Y-117540000D01*
X164340000Y-119700000D02*
X164340000Y-119040000D01*
X164840000Y-119700000D02*
X164840000Y-117140000D01*
X164840000Y-117140000D02*
X166570000Y-115410000D01*
X164840000Y-124500000D02*
X164840000Y-126790000D01*
X156050000Y-127100000D02*
X155600000Y-126650000D01*
X164530000Y-127100000D02*
X156050000Y-127100000D01*
X164840000Y-126790000D02*
X164530000Y-127100000D01*
X162190000Y-121350000D02*
X150030000Y-121350000D01*
X147370000Y-124010000D02*
X147370000Y-125090000D01*
X150030000Y-121350000D02*
X147370000Y-124010000D01*
X148470000Y-125090000D02*
X148470000Y-123900000D01*
X150520000Y-121850000D02*
X162190000Y-121850000D01*
X148470000Y-123900000D02*
X150520000Y-121850000D01*
X171650000Y-124480000D02*
X171650000Y-125150000D01*
X166990000Y-125140000D02*
X166990000Y-123850000D01*
X167470000Y-125620000D02*
X166990000Y-125140000D01*
X171180000Y-125620000D02*
X167470000Y-125620000D01*
X171650000Y-125150000D02*
X171180000Y-125620000D01*
X166990000Y-123850000D02*
X166990000Y-123910000D01*
X166990000Y-123850000D02*
X166990000Y-123890000D01*
X166990000Y-122850000D02*
X173250000Y-122850000D01*
X173250000Y-122850000D02*
X174200000Y-123800000D01*
X166990000Y-121850000D02*
X174450000Y-121850000D01*
X174800000Y-121500000D02*
X174800000Y-120800000D01*
X174450000Y-121850000D02*
X174800000Y-121500000D01*
X156170000Y-125550000D02*
X155200000Y-125550000D01*
X154100000Y-127070000D02*
X153280000Y-127070000D01*
X154580000Y-126590000D02*
X154100000Y-127070000D01*
X154580000Y-126170000D02*
X154580000Y-126590000D01*
X155200000Y-125550000D02*
X154580000Y-126170000D01*
X164340000Y-124500000D02*
X164340000Y-126330000D01*
X157330000Y-126710000D02*
X156170000Y-125550000D01*
X163960000Y-126710000D02*
X157330000Y-126710000D01*
X164340000Y-126330000D02*
X163960000Y-126710000D01*
X161750000Y-118610000D02*
X162840000Y-119700000D01*
X161750000Y-118320000D02*
X161750000Y-118610000D01*
X161730000Y-118340000D02*
X161750000Y-118320000D01*
X143370000Y-113140000D02*
X143500000Y-113140000D01*
X143500000Y-113140000D02*
X144575000Y-112065000D01*
X144575000Y-112065000D02*
X144720000Y-112065000D01*
X141870000Y-115390000D02*
X141870000Y-113140000D01*
X157130000Y-112540000D02*
X157380000Y-112540000D01*
X157380000Y-112540000D02*
X158205000Y-113365000D01*
X158205000Y-113365000D02*
X159045000Y-113365000D01*
X163650000Y-113500000D02*
X163650000Y-113850000D01*
X162935000Y-114565000D02*
X160645000Y-114565000D01*
X163650000Y-113850000D02*
X162935000Y-114565000D01*
X162190000Y-120350000D02*
X161680000Y-120350000D01*
X161680000Y-120350000D02*
X160645000Y-119315000D01*
X160645000Y-119315000D02*
X160645000Y-114565000D01*
X159045000Y-114165000D02*
X158485000Y-114165000D01*
X159180000Y-116840000D02*
X159810000Y-116840000D01*
X159060000Y-116720000D02*
X159180000Y-116840000D01*
X159060000Y-115940000D02*
X159060000Y-116720000D01*
X158200000Y-115080000D02*
X159060000Y-115940000D01*
X158200000Y-114450000D02*
X158200000Y-115080000D01*
X158485000Y-114165000D02*
X158200000Y-114450000D01*
X159810000Y-116840000D02*
X159810000Y-119400000D01*
X161260000Y-120850000D02*
X162190000Y-120850000D01*
X159810000Y-119400000D02*
X161260000Y-120850000D01*
X166990000Y-123350000D02*
X169170000Y-123350000D01*
X169170000Y-123350000D02*
X169410000Y-123590000D01*
X158160000Y-116460000D02*
X157050000Y-115350000D01*
X157050000Y-115350000D02*
X157050000Y-114400000D01*
X157050000Y-114560000D02*
X157050000Y-114400000D01*
X159045000Y-113765000D02*
X158245000Y-113765000D01*
X158245000Y-113765000D02*
X157610000Y-114400000D01*
X157610000Y-114400000D02*
X157050000Y-114400000D01*
X169575000Y-119185000D02*
X171185000Y-119185000D01*
X172180000Y-118190000D02*
X172520000Y-118190000D01*
X171185000Y-119185000D02*
X172180000Y-118190000D01*
X167910000Y-120850000D02*
X166990000Y-120850000D01*
X169575000Y-119185000D02*
X167910000Y-120850000D01*
D31*
G36*
X185887621Y-109515000D02*
X185885222Y-109523302D01*
X185736143Y-111272773D01*
X185765840Y-111538392D01*
X186297603Y-113211744D01*
X186426687Y-113445779D01*
X187558335Y-114788258D01*
X187742418Y-114935317D01*
X187767155Y-114955079D01*
X189326407Y-115762305D01*
X189583171Y-115836516D01*
X190705804Y-115932180D01*
X190705804Y-127349399D01*
X187870047Y-127349399D01*
X188106374Y-127113073D01*
X188335255Y-127158600D01*
X188704745Y-127158600D01*
X189278234Y-127044526D01*
X189764415Y-126719670D01*
X190089271Y-126233489D01*
X190203345Y-125660000D01*
X190089271Y-125086511D01*
X189764415Y-124600330D01*
X189449634Y-124390000D01*
X189764415Y-124179670D01*
X190089271Y-123693489D01*
X190203345Y-123120000D01*
X190089271Y-122546511D01*
X189764415Y-122060330D01*
X189449634Y-121850000D01*
X189764415Y-121639670D01*
X190089271Y-121153489D01*
X190203345Y-120580000D01*
X190089271Y-120006511D01*
X189764415Y-119520330D01*
X189742220Y-119505500D01*
X189895698Y-119441927D01*
X190074327Y-119263299D01*
X190171000Y-119029910D01*
X190171000Y-118325750D01*
X190012250Y-118167000D01*
X188647000Y-118167000D01*
X188647000Y-118187000D01*
X188393000Y-118187000D01*
X188393000Y-118167000D01*
X187027750Y-118167000D01*
X186869000Y-118325750D01*
X186869000Y-119029910D01*
X186965673Y-119263299D01*
X187144302Y-119441927D01*
X187297780Y-119505500D01*
X187275585Y-119520330D01*
X186950729Y-120006511D01*
X186836655Y-120580000D01*
X186920257Y-121000296D01*
X185880277Y-122040277D01*
X185720949Y-122278728D01*
X185665000Y-122560000D01*
X185665000Y-124695553D01*
X184925554Y-125435000D01*
X172326560Y-125435000D01*
X172329051Y-125431272D01*
X172335356Y-125399572D01*
X172611645Y-125123765D01*
X172662308Y-125001755D01*
X172780277Y-125119724D01*
X173005633Y-125270301D01*
X173018728Y-125279051D01*
X173300000Y-125335000D01*
X175100000Y-125335000D01*
X175381272Y-125279051D01*
X175619723Y-125119723D01*
X176434447Y-124305000D01*
X181930000Y-124305000D01*
X182211272Y-124249051D01*
X182449723Y-124089723D01*
X183809723Y-122729724D01*
X183969051Y-122491273D01*
X183983481Y-122418728D01*
X184025000Y-122210000D01*
X184025000Y-117930015D01*
X184251645Y-117703765D01*
X184424803Y-117286756D01*
X184425009Y-117050090D01*
X186869000Y-117050090D01*
X186869000Y-117754250D01*
X187027750Y-117913000D01*
X188393000Y-117913000D01*
X188393000Y-116700150D01*
X188647000Y-116700150D01*
X188647000Y-117913000D01*
X190012250Y-117913000D01*
X190171000Y-117754250D01*
X190171000Y-117050090D01*
X190074327Y-116816701D01*
X189895698Y-116638073D01*
X189662309Y-116541400D01*
X188805750Y-116541400D01*
X188647000Y-116700150D01*
X188393000Y-116700150D01*
X188234250Y-116541400D01*
X187377691Y-116541400D01*
X187144302Y-116638073D01*
X186965673Y-116816701D01*
X186869000Y-117050090D01*
X184425009Y-117050090D01*
X184425197Y-116835225D01*
X184252767Y-116417914D01*
X183933765Y-116098355D01*
X183516756Y-115925197D01*
X183065225Y-115924803D01*
X182647914Y-116097233D01*
X182328355Y-116416235D01*
X182155197Y-116833244D01*
X182154803Y-117284775D01*
X182327233Y-117702086D01*
X182555000Y-117930251D01*
X182555000Y-121905553D01*
X181625554Y-122835000D01*
X176130000Y-122835000D01*
X175858270Y-122889051D01*
X175848728Y-122890949D01*
X175834826Y-122900238D01*
X175835197Y-122475225D01*
X175662767Y-122057914D01*
X175441985Y-121836746D01*
X175479051Y-121781272D01*
X175485822Y-121747233D01*
X175492803Y-121712139D01*
X175761645Y-121443765D01*
X175934803Y-121026756D01*
X175935197Y-120575225D01*
X175762767Y-120157914D01*
X175443765Y-119838355D01*
X175026756Y-119665197D01*
X174575225Y-119664803D01*
X174413059Y-119731809D01*
X174396250Y-119715000D01*
X173747000Y-119715000D01*
X173747000Y-120376241D01*
X173665197Y-120573244D01*
X173664803Y-121024775D01*
X173702083Y-121115000D01*
X173473000Y-121115000D01*
X173473000Y-120865000D01*
X173493000Y-120865000D01*
X173493000Y-119715000D01*
X173473000Y-119715000D01*
X173473000Y-119465000D01*
X173493000Y-119465000D01*
X173493000Y-118315000D01*
X173747000Y-118315000D01*
X173747000Y-119465000D01*
X174396250Y-119465000D01*
X174555000Y-119306250D01*
X174555000Y-119213690D01*
X174458327Y-118980301D01*
X174368025Y-118890000D01*
X174458327Y-118799699D01*
X174555000Y-118566310D01*
X174555000Y-118473750D01*
X174396250Y-118315000D01*
X173747000Y-118315000D01*
X173493000Y-118315000D01*
X173473000Y-118315000D01*
X173473000Y-118065000D01*
X173493000Y-118065000D01*
X173493000Y-116915000D01*
X173747000Y-116915000D01*
X173747000Y-118065000D01*
X174396250Y-118065000D01*
X174555000Y-117906250D01*
X174555000Y-117813690D01*
X174458327Y-117580301D01*
X174368025Y-117490000D01*
X174458327Y-117399699D01*
X174555000Y-117166310D01*
X174555000Y-117073750D01*
X174396250Y-116915000D01*
X173747000Y-116915000D01*
X173493000Y-116915000D01*
X173473000Y-116915000D01*
X173473000Y-116665000D01*
X173493000Y-116665000D01*
X173493000Y-115515000D01*
X173747000Y-115515000D01*
X173747000Y-116665000D01*
X174396250Y-116665000D01*
X174555000Y-116506250D01*
X174555000Y-116413690D01*
X174458327Y-116180301D01*
X174368025Y-116090000D01*
X174458327Y-115999699D01*
X174555000Y-115766310D01*
X174555000Y-115673750D01*
X174396250Y-115515000D01*
X173747000Y-115515000D01*
X173493000Y-115515000D01*
X173473000Y-115515000D01*
X173473000Y-115491758D01*
X175705804Y-115491758D01*
X175872127Y-116327921D01*
X176345776Y-117036786D01*
X177054641Y-117510435D01*
X177890804Y-117676758D01*
X178726967Y-117510435D01*
X179435832Y-117036786D01*
X179909481Y-116327921D01*
X180075804Y-115491758D01*
X179909481Y-114655595D01*
X179435832Y-113946730D01*
X178726967Y-113473081D01*
X177890804Y-113306758D01*
X177054641Y-113473081D01*
X176345776Y-113946730D01*
X175872127Y-114655595D01*
X175705804Y-115491758D01*
X173473000Y-115491758D01*
X173473000Y-115265000D01*
X173493000Y-115265000D01*
X173493000Y-114663750D01*
X173747000Y-114663750D01*
X173747000Y-115265000D01*
X174396250Y-115265000D01*
X174555000Y-115106250D01*
X174555000Y-115013690D01*
X174458327Y-114780301D01*
X174279698Y-114601673D01*
X174046309Y-114505000D01*
X173905750Y-114505000D01*
X173747000Y-114663750D01*
X173493000Y-114663750D01*
X173334250Y-114505000D01*
X173193691Y-114505000D01*
X173082717Y-114550967D01*
X173071890Y-114543569D01*
X172820000Y-114492560D01*
X172220000Y-114492560D01*
X171984683Y-114536838D01*
X171768559Y-114675910D01*
X171623569Y-114888110D01*
X171572560Y-115140000D01*
X171572560Y-115640000D01*
X171616838Y-115875317D01*
X171755910Y-116091441D01*
X171757299Y-116092390D01*
X171690760Y-116189772D01*
X171570277Y-116270276D01*
X171195000Y-116645553D01*
X171195000Y-114857440D01*
X171230000Y-114857440D01*
X171465317Y-114813162D01*
X171681441Y-114674090D01*
X171826431Y-114461890D01*
X171877440Y-114210000D01*
X171877440Y-112410000D01*
X171833162Y-112174683D01*
X171694090Y-111958559D01*
X171481890Y-111813569D01*
X171230000Y-111762560D01*
X171056650Y-111762560D01*
X171166431Y-111601890D01*
X171217440Y-111350000D01*
X171217440Y-110850000D01*
X171173162Y-110614683D01*
X171034090Y-110398559D01*
X170821890Y-110253569D01*
X170570000Y-110202560D01*
X169970000Y-110202560D01*
X169734683Y-110246838D01*
X169710594Y-110262339D01*
X169596309Y-110215000D01*
X169455750Y-110215000D01*
X169297000Y-110373750D01*
X169297000Y-110975000D01*
X169317000Y-110975000D01*
X169317000Y-111225000D01*
X169297000Y-111225000D01*
X169297000Y-111247000D01*
X169043000Y-111247000D01*
X169043000Y-111225000D01*
X169023000Y-111225000D01*
X169023000Y-110975000D01*
X169043000Y-110975000D01*
X169043000Y-110373750D01*
X168884250Y-110215000D01*
X168743691Y-110215000D01*
X168510302Y-110311673D01*
X168445867Y-110376108D01*
X168251890Y-110243569D01*
X168000000Y-110192560D01*
X167400000Y-110192560D01*
X167164683Y-110236838D01*
X167140594Y-110252339D01*
X167026309Y-110205000D01*
X166885750Y-110205000D01*
X166727000Y-110363750D01*
X166727000Y-110965000D01*
X166747000Y-110965000D01*
X166747000Y-111215000D01*
X166727000Y-111215000D01*
X166727000Y-111816250D01*
X166885750Y-111975000D01*
X166965000Y-111975000D01*
X166965000Y-112780000D01*
X166998045Y-112946125D01*
X167020949Y-113061272D01*
X167082560Y-113153479D01*
X167082560Y-114210000D01*
X167120091Y-114409458D01*
X166796756Y-114275197D01*
X166345225Y-114274803D01*
X165927914Y-114447233D01*
X165655000Y-114719671D01*
X165655000Y-111373750D01*
X165665000Y-111373750D01*
X165665000Y-111466310D01*
X165761673Y-111699699D01*
X165940302Y-111878327D01*
X166173691Y-111975000D01*
X166314250Y-111975000D01*
X166473000Y-111816250D01*
X166473000Y-111215000D01*
X165823750Y-111215000D01*
X165665000Y-111373750D01*
X165655000Y-111373750D01*
X165655000Y-110713690D01*
X165665000Y-110713690D01*
X165665000Y-110806250D01*
X165823750Y-110965000D01*
X166473000Y-110965000D01*
X166473000Y-110363750D01*
X166314250Y-110205000D01*
X166173691Y-110205000D01*
X165940302Y-110301673D01*
X165761673Y-110480301D01*
X165665000Y-110713690D01*
X165655000Y-110713690D01*
X165655000Y-110200000D01*
X165599051Y-109918728D01*
X165439724Y-109680277D01*
X165086446Y-109327000D01*
X185941958Y-109327000D01*
X185887621Y-109515000D01*
X185887621Y-109515000D01*
G37*
X185887621Y-109515000D02*
X185885222Y-109523302D01*
X185736143Y-111272773D01*
X185765840Y-111538392D01*
X186297603Y-113211744D01*
X186426687Y-113445779D01*
X187558335Y-114788258D01*
X187742418Y-114935317D01*
X187767155Y-114955079D01*
X189326407Y-115762305D01*
X189583171Y-115836516D01*
X190705804Y-115932180D01*
X190705804Y-127349399D01*
X187870047Y-127349399D01*
X188106374Y-127113073D01*
X188335255Y-127158600D01*
X188704745Y-127158600D01*
X189278234Y-127044526D01*
X189764415Y-126719670D01*
X190089271Y-126233489D01*
X190203345Y-125660000D01*
X190089271Y-125086511D01*
X189764415Y-124600330D01*
X189449634Y-124390000D01*
X189764415Y-124179670D01*
X190089271Y-123693489D01*
X190203345Y-123120000D01*
X190089271Y-122546511D01*
X189764415Y-122060330D01*
X189449634Y-121850000D01*
X189764415Y-121639670D01*
X190089271Y-121153489D01*
X190203345Y-120580000D01*
X190089271Y-120006511D01*
X189764415Y-119520330D01*
X189742220Y-119505500D01*
X189895698Y-119441927D01*
X190074327Y-119263299D01*
X190171000Y-119029910D01*
X190171000Y-118325750D01*
X190012250Y-118167000D01*
X188647000Y-118167000D01*
X188647000Y-118187000D01*
X188393000Y-118187000D01*
X188393000Y-118167000D01*
X187027750Y-118167000D01*
X186869000Y-118325750D01*
X186869000Y-119029910D01*
X186965673Y-119263299D01*
X187144302Y-119441927D01*
X187297780Y-119505500D01*
X187275585Y-119520330D01*
X186950729Y-120006511D01*
X186836655Y-120580000D01*
X186920257Y-121000296D01*
X185880277Y-122040277D01*
X185720949Y-122278728D01*
X185665000Y-122560000D01*
X185665000Y-124695553D01*
X184925554Y-125435000D01*
X172326560Y-125435000D01*
X172329051Y-125431272D01*
X172335356Y-125399572D01*
X172611645Y-125123765D01*
X172662308Y-125001755D01*
X172780277Y-125119724D01*
X173005633Y-125270301D01*
X173018728Y-125279051D01*
X173300000Y-125335000D01*
X175100000Y-125335000D01*
X175381272Y-125279051D01*
X175619723Y-125119723D01*
X176434447Y-124305000D01*
X181930000Y-124305000D01*
X182211272Y-124249051D01*
X182449723Y-124089723D01*
X183809723Y-122729724D01*
X183969051Y-122491273D01*
X183983481Y-122418728D01*
X184025000Y-122210000D01*
X184025000Y-117930015D01*
X184251645Y-117703765D01*
X184424803Y-117286756D01*
X184425009Y-117050090D01*
X186869000Y-117050090D01*
X186869000Y-117754250D01*
X187027750Y-117913000D01*
X188393000Y-117913000D01*
X188393000Y-116700150D01*
X188647000Y-116700150D01*
X188647000Y-117913000D01*
X190012250Y-117913000D01*
X190171000Y-117754250D01*
X190171000Y-117050090D01*
X190074327Y-116816701D01*
X189895698Y-116638073D01*
X189662309Y-116541400D01*
X188805750Y-116541400D01*
X188647000Y-116700150D01*
X188393000Y-116700150D01*
X188234250Y-116541400D01*
X187377691Y-116541400D01*
X187144302Y-116638073D01*
X186965673Y-116816701D01*
X186869000Y-117050090D01*
X184425009Y-117050090D01*
X184425197Y-116835225D01*
X184252767Y-116417914D01*
X183933765Y-116098355D01*
X183516756Y-115925197D01*
X183065225Y-115924803D01*
X182647914Y-116097233D01*
X182328355Y-116416235D01*
X182155197Y-116833244D01*
X182154803Y-117284775D01*
X182327233Y-117702086D01*
X182555000Y-117930251D01*
X182555000Y-121905553D01*
X181625554Y-122835000D01*
X176130000Y-122835000D01*
X175858270Y-122889051D01*
X175848728Y-122890949D01*
X175834826Y-122900238D01*
X175835197Y-122475225D01*
X175662767Y-122057914D01*
X175441985Y-121836746D01*
X175479051Y-121781272D01*
X175485822Y-121747233D01*
X175492803Y-121712139D01*
X175761645Y-121443765D01*
X175934803Y-121026756D01*
X175935197Y-120575225D01*
X175762767Y-120157914D01*
X175443765Y-119838355D01*
X175026756Y-119665197D01*
X174575225Y-119664803D01*
X174413059Y-119731809D01*
X174396250Y-119715000D01*
X173747000Y-119715000D01*
X173747000Y-120376241D01*
X173665197Y-120573244D01*
X173664803Y-121024775D01*
X173702083Y-121115000D01*
X173473000Y-121115000D01*
X173473000Y-120865000D01*
X173493000Y-120865000D01*
X173493000Y-119715000D01*
X173473000Y-119715000D01*
X173473000Y-119465000D01*
X173493000Y-119465000D01*
X173493000Y-118315000D01*
X173747000Y-118315000D01*
X173747000Y-119465000D01*
X174396250Y-119465000D01*
X174555000Y-119306250D01*
X174555000Y-119213690D01*
X174458327Y-118980301D01*
X174368025Y-118890000D01*
X174458327Y-118799699D01*
X174555000Y-118566310D01*
X174555000Y-118473750D01*
X174396250Y-118315000D01*
X173747000Y-118315000D01*
X173493000Y-118315000D01*
X173473000Y-118315000D01*
X173473000Y-118065000D01*
X173493000Y-118065000D01*
X173493000Y-116915000D01*
X173747000Y-116915000D01*
X173747000Y-118065000D01*
X174396250Y-118065000D01*
X174555000Y-117906250D01*
X174555000Y-117813690D01*
X174458327Y-117580301D01*
X174368025Y-117490000D01*
X174458327Y-117399699D01*
X174555000Y-117166310D01*
X174555000Y-117073750D01*
X174396250Y-116915000D01*
X173747000Y-116915000D01*
X173493000Y-116915000D01*
X173473000Y-116915000D01*
X173473000Y-116665000D01*
X173493000Y-116665000D01*
X173493000Y-115515000D01*
X173747000Y-115515000D01*
X173747000Y-116665000D01*
X174396250Y-116665000D01*
X174555000Y-116506250D01*
X174555000Y-116413690D01*
X174458327Y-116180301D01*
X174368025Y-116090000D01*
X174458327Y-115999699D01*
X174555000Y-115766310D01*
X174555000Y-115673750D01*
X174396250Y-115515000D01*
X173747000Y-115515000D01*
X173493000Y-115515000D01*
X173473000Y-115515000D01*
X173473000Y-115491758D01*
X175705804Y-115491758D01*
X175872127Y-116327921D01*
X176345776Y-117036786D01*
X177054641Y-117510435D01*
X177890804Y-117676758D01*
X178726967Y-117510435D01*
X179435832Y-117036786D01*
X179909481Y-116327921D01*
X180075804Y-115491758D01*
X179909481Y-114655595D01*
X179435832Y-113946730D01*
X178726967Y-113473081D01*
X177890804Y-113306758D01*
X177054641Y-113473081D01*
X176345776Y-113946730D01*
X175872127Y-114655595D01*
X175705804Y-115491758D01*
X173473000Y-115491758D01*
X173473000Y-115265000D01*
X173493000Y-115265000D01*
X173493000Y-114663750D01*
X173747000Y-114663750D01*
X173747000Y-115265000D01*
X174396250Y-115265000D01*
X174555000Y-115106250D01*
X174555000Y-115013690D01*
X174458327Y-114780301D01*
X174279698Y-114601673D01*
X174046309Y-114505000D01*
X173905750Y-114505000D01*
X173747000Y-114663750D01*
X173493000Y-114663750D01*
X173334250Y-114505000D01*
X173193691Y-114505000D01*
X173082717Y-114550967D01*
X173071890Y-114543569D01*
X172820000Y-114492560D01*
X172220000Y-114492560D01*
X171984683Y-114536838D01*
X171768559Y-114675910D01*
X171623569Y-114888110D01*
X171572560Y-115140000D01*
X171572560Y-115640000D01*
X171616838Y-115875317D01*
X171755910Y-116091441D01*
X171757299Y-116092390D01*
X171690760Y-116189772D01*
X171570277Y-116270276D01*
X171195000Y-116645553D01*
X171195000Y-114857440D01*
X171230000Y-114857440D01*
X171465317Y-114813162D01*
X171681441Y-114674090D01*
X171826431Y-114461890D01*
X171877440Y-114210000D01*
X171877440Y-112410000D01*
X171833162Y-112174683D01*
X171694090Y-111958559D01*
X171481890Y-111813569D01*
X171230000Y-111762560D01*
X171056650Y-111762560D01*
X171166431Y-111601890D01*
X171217440Y-111350000D01*
X171217440Y-110850000D01*
X171173162Y-110614683D01*
X171034090Y-110398559D01*
X170821890Y-110253569D01*
X170570000Y-110202560D01*
X169970000Y-110202560D01*
X169734683Y-110246838D01*
X169710594Y-110262339D01*
X169596309Y-110215000D01*
X169455750Y-110215000D01*
X169297000Y-110373750D01*
X169297000Y-110975000D01*
X169317000Y-110975000D01*
X169317000Y-111225000D01*
X169297000Y-111225000D01*
X169297000Y-111247000D01*
X169043000Y-111247000D01*
X169043000Y-111225000D01*
X169023000Y-111225000D01*
X169023000Y-110975000D01*
X169043000Y-110975000D01*
X169043000Y-110373750D01*
X168884250Y-110215000D01*
X168743691Y-110215000D01*
X168510302Y-110311673D01*
X168445867Y-110376108D01*
X168251890Y-110243569D01*
X168000000Y-110192560D01*
X167400000Y-110192560D01*
X167164683Y-110236838D01*
X167140594Y-110252339D01*
X167026309Y-110205000D01*
X166885750Y-110205000D01*
X166727000Y-110363750D01*
X166727000Y-110965000D01*
X166747000Y-110965000D01*
X166747000Y-111215000D01*
X166727000Y-111215000D01*
X166727000Y-111816250D01*
X166885750Y-111975000D01*
X166965000Y-111975000D01*
X166965000Y-112780000D01*
X166998045Y-112946125D01*
X167020949Y-113061272D01*
X167082560Y-113153479D01*
X167082560Y-114210000D01*
X167120091Y-114409458D01*
X166796756Y-114275197D01*
X166345225Y-114274803D01*
X165927914Y-114447233D01*
X165655000Y-114719671D01*
X165655000Y-111373750D01*
X165665000Y-111373750D01*
X165665000Y-111466310D01*
X165761673Y-111699699D01*
X165940302Y-111878327D01*
X166173691Y-111975000D01*
X166314250Y-111975000D01*
X166473000Y-111816250D01*
X166473000Y-111215000D01*
X165823750Y-111215000D01*
X165665000Y-111373750D01*
X165655000Y-111373750D01*
X165655000Y-110713690D01*
X165665000Y-110713690D01*
X165665000Y-110806250D01*
X165823750Y-110965000D01*
X166473000Y-110965000D01*
X166473000Y-110363750D01*
X166314250Y-110205000D01*
X166173691Y-110205000D01*
X165940302Y-110301673D01*
X165761673Y-110480301D01*
X165665000Y-110713690D01*
X165655000Y-110713690D01*
X165655000Y-110200000D01*
X165599051Y-109918728D01*
X165439724Y-109680277D01*
X165086446Y-109327000D01*
X185941958Y-109327000D01*
X185887621Y-109515000D01*
G36*
X141810000Y-110305000D02*
X141709975Y-110305000D01*
X141546890Y-110193569D01*
X141295000Y-110142560D01*
X140695000Y-110142560D01*
X140459683Y-110186838D01*
X140435594Y-110202339D01*
X140321309Y-110155000D01*
X140180750Y-110155000D01*
X140022000Y-110313750D01*
X140022000Y-110915000D01*
X140042000Y-110915000D01*
X140042000Y-111165000D01*
X140022000Y-111165000D01*
X140022000Y-111766250D01*
X140180750Y-111925000D01*
X140321309Y-111925000D01*
X140432283Y-111879033D01*
X140443110Y-111886431D01*
X140695000Y-111937440D01*
X141295000Y-111937440D01*
X141530317Y-111893162D01*
X141713946Y-111775000D01*
X141870331Y-111775000D01*
X141880910Y-111791441D01*
X142093110Y-111936431D01*
X142345000Y-111987440D01*
X142745000Y-111987440D01*
X142980317Y-111943162D01*
X142991979Y-111935658D01*
X142993110Y-111936431D01*
X143245000Y-111987440D01*
X143613113Y-111987440D01*
X143557993Y-112042560D01*
X143120000Y-112042560D01*
X142884683Y-112086838D01*
X142668559Y-112225910D01*
X142620866Y-112295711D01*
X142584090Y-112238559D01*
X142371890Y-112093569D01*
X142120000Y-112042560D01*
X141620000Y-112042560D01*
X141384683Y-112086838D01*
X141168559Y-112225910D01*
X141023569Y-112438110D01*
X140972560Y-112690000D01*
X140972560Y-113590000D01*
X141016838Y-113825317D01*
X141064519Y-113899415D01*
X141056123Y-113895334D01*
X140897000Y-114023002D01*
X140897000Y-114548234D01*
X140835000Y-114859928D01*
X140835000Y-115920072D01*
X140897000Y-116231766D01*
X140897000Y-116756998D01*
X141056123Y-116884666D01*
X141305240Y-116763577D01*
X141473923Y-116876287D01*
X141870000Y-116955072D01*
X142266077Y-116876287D01*
X142434760Y-116763577D01*
X142683877Y-116884666D01*
X142843000Y-116756998D01*
X142843000Y-116231766D01*
X142905000Y-115920072D01*
X142905000Y-115243000D01*
X143035000Y-115243000D01*
X143035000Y-115920072D01*
X143097000Y-116231766D01*
X143097000Y-116756998D01*
X143256123Y-116884666D01*
X143385119Y-116821964D01*
X143387363Y-116833244D01*
X143390949Y-116851272D01*
X143550277Y-117089723D01*
X143920277Y-117459723D01*
X144158728Y-117619051D01*
X144440000Y-117675000D01*
X150160000Y-117675000D01*
X150441272Y-117619051D01*
X150679723Y-117459723D01*
X150844529Y-117294918D01*
X151164775Y-117295197D01*
X151582086Y-117122767D01*
X151901645Y-116803765D01*
X152074803Y-116386756D01*
X152075197Y-115935225D01*
X151902767Y-115517914D01*
X151583765Y-115198355D01*
X151166756Y-115025197D01*
X150715225Y-115024803D01*
X150605000Y-115070347D01*
X150605000Y-114859928D01*
X150526215Y-114463851D01*
X150301856Y-114128072D01*
X149966077Y-113903713D01*
X149570000Y-113824928D01*
X149173923Y-113903713D01*
X149020000Y-114006560D01*
X148866077Y-113903713D01*
X148470000Y-113824928D01*
X148073923Y-113903713D01*
X147920000Y-114006560D01*
X147766077Y-113903713D01*
X147370000Y-113824928D01*
X147086664Y-113881287D01*
X147155000Y-113716310D01*
X147155000Y-113623750D01*
X146998252Y-113467002D01*
X147155000Y-113467002D01*
X147155000Y-113440181D01*
X147286235Y-113571645D01*
X147703244Y-113744803D01*
X148154775Y-113745197D01*
X148572086Y-113572767D01*
X148891645Y-113253765D01*
X149064803Y-112836756D01*
X149065197Y-112385225D01*
X148926684Y-112050000D01*
X148971309Y-112050000D01*
X149204698Y-111953327D01*
X149383327Y-111774699D01*
X149480000Y-111541310D01*
X149480000Y-111448750D01*
X149321250Y-111290000D01*
X148672000Y-111290000D01*
X148672000Y-111312000D01*
X148418000Y-111312000D01*
X148418000Y-111290000D01*
X148398000Y-111290000D01*
X148398000Y-111040000D01*
X148418000Y-111040000D01*
X148418000Y-110438750D01*
X148672000Y-110438750D01*
X148672000Y-111040000D01*
X149321250Y-111040000D01*
X149480000Y-110881250D01*
X149480000Y-110788690D01*
X149383327Y-110555301D01*
X149204698Y-110376673D01*
X148971309Y-110280000D01*
X148830750Y-110280000D01*
X148672000Y-110438750D01*
X148418000Y-110438750D01*
X148259250Y-110280000D01*
X148118691Y-110280000D01*
X148007717Y-110325967D01*
X147996890Y-110318569D01*
X147872909Y-110293462D01*
X147619723Y-110040277D01*
X147381272Y-109880949D01*
X147100000Y-109825000D01*
X145610000Y-109825000D01*
X145584864Y-109830000D01*
X143920000Y-109830000D01*
X143685394Y-109876667D01*
X143638727Y-109885949D01*
X143400276Y-110045277D01*
X143352993Y-110092560D01*
X143280000Y-110092560D01*
X143280000Y-109327000D01*
X154633553Y-109327000D01*
X152780277Y-111180277D01*
X152620949Y-111418728D01*
X152565000Y-111700000D01*
X152565000Y-116795553D01*
X151095554Y-118265000D01*
X141460000Y-118265000D01*
X141183499Y-118320000D01*
X141178728Y-118320949D01*
X140940277Y-118480277D01*
X139617956Y-119802598D01*
X139267914Y-119947233D01*
X138948355Y-120266235D01*
X138775197Y-120683244D01*
X138774803Y-121134775D01*
X138947233Y-121552086D01*
X139266235Y-121871645D01*
X139683244Y-122044803D01*
X140134775Y-122045197D01*
X140552086Y-121872767D01*
X140871645Y-121553765D01*
X141044803Y-121136756D01*
X141045197Y-120685225D01*
X140978268Y-120523245D01*
X141085000Y-120630163D01*
X141085000Y-121400000D01*
X141144755Y-121700407D01*
X141269226Y-121886691D01*
X141267914Y-121887233D01*
X140948355Y-122206235D01*
X140775197Y-122623244D01*
X140774803Y-123074775D01*
X140947233Y-123492086D01*
X140975000Y-123519901D01*
X140975000Y-123565705D01*
X140770000Y-123524928D01*
X140373923Y-123603713D01*
X140038144Y-123828072D01*
X139813785Y-124163851D01*
X139735000Y-124559928D01*
X139735000Y-125620072D01*
X139813785Y-126016149D01*
X140038144Y-126351928D01*
X140373923Y-126576287D01*
X140770000Y-126655072D01*
X141166077Y-126576287D01*
X141320000Y-126473440D01*
X141473923Y-126576287D01*
X141870000Y-126655072D01*
X142266077Y-126576287D01*
X142420000Y-126473440D01*
X142573923Y-126576287D01*
X142970000Y-126655072D01*
X143366077Y-126576287D01*
X143520000Y-126473440D01*
X143673923Y-126576287D01*
X144070000Y-126655072D01*
X144466077Y-126576287D01*
X144620000Y-126473440D01*
X144773923Y-126576287D01*
X145170000Y-126655072D01*
X145566077Y-126576287D01*
X145720000Y-126473440D01*
X145873923Y-126576287D01*
X146270000Y-126655072D01*
X146666077Y-126576287D01*
X146820000Y-126473440D01*
X146973923Y-126576287D01*
X147370000Y-126655072D01*
X147766077Y-126576287D01*
X147920000Y-126473440D01*
X148073923Y-126576287D01*
X148470000Y-126655072D01*
X148866077Y-126576287D01*
X149034760Y-126463577D01*
X149283877Y-126584666D01*
X149443000Y-126456998D01*
X149443000Y-125931766D01*
X149505000Y-125620072D01*
X149505000Y-124943000D01*
X149697000Y-124943000D01*
X149697000Y-124963000D01*
X149717000Y-124963000D01*
X149717000Y-125217000D01*
X149697000Y-125217000D01*
X149697000Y-126456998D01*
X149856123Y-126584666D01*
X150212053Y-126411658D01*
X150477615Y-126103410D01*
X150528928Y-125947756D01*
X150779594Y-126115245D01*
X151080000Y-126175001D01*
X151080005Y-126175000D01*
X152570029Y-126175000D01*
X152318355Y-126426235D01*
X152145197Y-126843244D01*
X152144803Y-127294775D01*
X152167373Y-127349399D01*
X121075804Y-127349399D01*
X121075804Y-123141131D01*
X121568771Y-123141131D01*
X121710432Y-123551049D01*
X121998179Y-123875552D01*
X122372062Y-124059268D01*
X122543000Y-123932734D01*
X122543000Y-122967000D01*
X121717437Y-122967000D01*
X121568771Y-123141131D01*
X121075804Y-123141131D01*
X121075804Y-122538869D01*
X121568771Y-122538869D01*
X121717437Y-122713000D01*
X122543000Y-122713000D01*
X122543000Y-121747266D01*
X122797000Y-121747266D01*
X122797000Y-122713000D01*
X122797560Y-122713000D01*
X122797560Y-122967000D01*
X122797000Y-122967000D01*
X122797000Y-123932734D01*
X122967938Y-124059268D01*
X123097075Y-123995813D01*
X123193110Y-124061431D01*
X123445000Y-124112440D01*
X124395000Y-124112440D01*
X124630317Y-124068162D01*
X124846441Y-123929090D01*
X124991431Y-123716890D01*
X125042440Y-123465000D01*
X125042440Y-122215000D01*
X124998162Y-121979683D01*
X124859090Y-121763559D01*
X124646890Y-121618569D01*
X124395000Y-121567560D01*
X123445000Y-121567560D01*
X123209683Y-121611838D01*
X123097174Y-121684235D01*
X122967938Y-121620732D01*
X122797000Y-121747266D01*
X122543000Y-121747266D01*
X122372062Y-121620732D01*
X121998179Y-121804448D01*
X121710432Y-122128951D01*
X121568771Y-122538869D01*
X121075804Y-122538869D01*
X121075804Y-115956314D01*
X121844816Y-115919797D01*
X121962262Y-115890582D01*
X122080711Y-115865801D01*
X122959053Y-115491758D01*
X131705804Y-115491758D01*
X131872127Y-116327921D01*
X132345776Y-117036786D01*
X133054641Y-117510435D01*
X133890804Y-117676758D01*
X134726967Y-117510435D01*
X135435832Y-117036786D01*
X135909481Y-116327921D01*
X136070783Y-115517000D01*
X139735000Y-115517000D01*
X139735000Y-116017000D01*
X139862385Y-116403410D01*
X140127947Y-116711658D01*
X140483877Y-116884666D01*
X140643000Y-116756998D01*
X140643000Y-115517000D01*
X139735000Y-115517000D01*
X136070783Y-115517000D01*
X136075804Y-115491758D01*
X135930846Y-114763000D01*
X139735000Y-114763000D01*
X139735000Y-115263000D01*
X140643000Y-115263000D01*
X140643000Y-114023002D01*
X140483877Y-113895334D01*
X140127947Y-114068342D01*
X139862385Y-114376590D01*
X139735000Y-114763000D01*
X135930846Y-114763000D01*
X135909481Y-114655595D01*
X135435832Y-113946730D01*
X134726967Y-113473081D01*
X133890804Y-113306758D01*
X133054641Y-113473081D01*
X132345776Y-113946730D01*
X131872127Y-114655595D01*
X131705804Y-115491758D01*
X122959053Y-115491758D01*
X123696143Y-115177868D01*
X123916893Y-115027187D01*
X125146100Y-113773420D01*
X125292383Y-113549732D01*
X125948225Y-111921006D01*
X125997772Y-111658364D01*
X125994462Y-111323750D01*
X138960000Y-111323750D01*
X138960000Y-111416310D01*
X139056673Y-111649699D01*
X139235302Y-111828327D01*
X139468691Y-111925000D01*
X139609250Y-111925000D01*
X139768000Y-111766250D01*
X139768000Y-111165000D01*
X139118750Y-111165000D01*
X138960000Y-111323750D01*
X125994462Y-111323750D01*
X125987933Y-110663690D01*
X138960000Y-110663690D01*
X138960000Y-110756250D01*
X139118750Y-110915000D01*
X139768000Y-110915000D01*
X139768000Y-110313750D01*
X139609250Y-110155000D01*
X139468691Y-110155000D01*
X139235302Y-110251673D01*
X139056673Y-110430301D01*
X138960000Y-110663690D01*
X125987933Y-110663690D01*
X125980404Y-109902637D01*
X125959711Y-109803728D01*
X125925671Y-109641027D01*
X125791942Y-109327000D01*
X141810000Y-109327000D01*
X141810000Y-110305000D01*
X141810000Y-110305000D01*
G37*
X141810000Y-110305000D02*
X141709975Y-110305000D01*
X141546890Y-110193569D01*
X141295000Y-110142560D01*
X140695000Y-110142560D01*
X140459683Y-110186838D01*
X140435594Y-110202339D01*
X140321309Y-110155000D01*
X140180750Y-110155000D01*
X140022000Y-110313750D01*
X140022000Y-110915000D01*
X140042000Y-110915000D01*
X140042000Y-111165000D01*
X140022000Y-111165000D01*
X140022000Y-111766250D01*
X140180750Y-111925000D01*
X140321309Y-111925000D01*
X140432283Y-111879033D01*
X140443110Y-111886431D01*
X140695000Y-111937440D01*
X141295000Y-111937440D01*
X141530317Y-111893162D01*
X141713946Y-111775000D01*
X141870331Y-111775000D01*
X141880910Y-111791441D01*
X142093110Y-111936431D01*
X142345000Y-111987440D01*
X142745000Y-111987440D01*
X142980317Y-111943162D01*
X142991979Y-111935658D01*
X142993110Y-111936431D01*
X143245000Y-111987440D01*
X143613113Y-111987440D01*
X143557993Y-112042560D01*
X143120000Y-112042560D01*
X142884683Y-112086838D01*
X142668559Y-112225910D01*
X142620866Y-112295711D01*
X142584090Y-112238559D01*
X142371890Y-112093569D01*
X142120000Y-112042560D01*
X141620000Y-112042560D01*
X141384683Y-112086838D01*
X141168559Y-112225910D01*
X141023569Y-112438110D01*
X140972560Y-112690000D01*
X140972560Y-113590000D01*
X141016838Y-113825317D01*
X141064519Y-113899415D01*
X141056123Y-113895334D01*
X140897000Y-114023002D01*
X140897000Y-114548234D01*
X140835000Y-114859928D01*
X140835000Y-115920072D01*
X140897000Y-116231766D01*
X140897000Y-116756998D01*
X141056123Y-116884666D01*
X141305240Y-116763577D01*
X141473923Y-116876287D01*
X141870000Y-116955072D01*
X142266077Y-116876287D01*
X142434760Y-116763577D01*
X142683877Y-116884666D01*
X142843000Y-116756998D01*
X142843000Y-116231766D01*
X142905000Y-115920072D01*
X142905000Y-115243000D01*
X143035000Y-115243000D01*
X143035000Y-115920072D01*
X143097000Y-116231766D01*
X143097000Y-116756998D01*
X143256123Y-116884666D01*
X143385119Y-116821964D01*
X143387363Y-116833244D01*
X143390949Y-116851272D01*
X143550277Y-117089723D01*
X143920277Y-117459723D01*
X144158728Y-117619051D01*
X144440000Y-117675000D01*
X150160000Y-117675000D01*
X150441272Y-117619051D01*
X150679723Y-117459723D01*
X150844529Y-117294918D01*
X151164775Y-117295197D01*
X151582086Y-117122767D01*
X151901645Y-116803765D01*
X152074803Y-116386756D01*
X152075197Y-115935225D01*
X151902767Y-115517914D01*
X151583765Y-115198355D01*
X151166756Y-115025197D01*
X150715225Y-115024803D01*
X150605000Y-115070347D01*
X150605000Y-114859928D01*
X150526215Y-114463851D01*
X150301856Y-114128072D01*
X149966077Y-113903713D01*
X149570000Y-113824928D01*
X149173923Y-113903713D01*
X149020000Y-114006560D01*
X148866077Y-113903713D01*
X148470000Y-113824928D01*
X148073923Y-113903713D01*
X147920000Y-114006560D01*
X147766077Y-113903713D01*
X147370000Y-113824928D01*
X147086664Y-113881287D01*
X147155000Y-113716310D01*
X147155000Y-113623750D01*
X146998252Y-113467002D01*
X147155000Y-113467002D01*
X147155000Y-113440181D01*
X147286235Y-113571645D01*
X147703244Y-113744803D01*
X148154775Y-113745197D01*
X148572086Y-113572767D01*
X148891645Y-113253765D01*
X149064803Y-112836756D01*
X149065197Y-112385225D01*
X148926684Y-112050000D01*
X148971309Y-112050000D01*
X149204698Y-111953327D01*
X149383327Y-111774699D01*
X149480000Y-111541310D01*
X149480000Y-111448750D01*
X149321250Y-111290000D01*
X148672000Y-111290000D01*
X148672000Y-111312000D01*
X148418000Y-111312000D01*
X148418000Y-111290000D01*
X148398000Y-111290000D01*
X148398000Y-111040000D01*
X148418000Y-111040000D01*
X148418000Y-110438750D01*
X148672000Y-110438750D01*
X148672000Y-111040000D01*
X149321250Y-111040000D01*
X149480000Y-110881250D01*
X149480000Y-110788690D01*
X149383327Y-110555301D01*
X149204698Y-110376673D01*
X148971309Y-110280000D01*
X148830750Y-110280000D01*
X148672000Y-110438750D01*
X148418000Y-110438750D01*
X148259250Y-110280000D01*
X148118691Y-110280000D01*
X148007717Y-110325967D01*
X147996890Y-110318569D01*
X147872909Y-110293462D01*
X147619723Y-110040277D01*
X147381272Y-109880949D01*
X147100000Y-109825000D01*
X145610000Y-109825000D01*
X145584864Y-109830000D01*
X143920000Y-109830000D01*
X143685394Y-109876667D01*
X143638727Y-109885949D01*
X143400276Y-110045277D01*
X143352993Y-110092560D01*
X143280000Y-110092560D01*
X143280000Y-109327000D01*
X154633553Y-109327000D01*
X152780277Y-111180277D01*
X152620949Y-111418728D01*
X152565000Y-111700000D01*
X152565000Y-116795553D01*
X151095554Y-118265000D01*
X141460000Y-118265000D01*
X141183499Y-118320000D01*
X141178728Y-118320949D01*
X140940277Y-118480277D01*
X139617956Y-119802598D01*
X139267914Y-119947233D01*
X138948355Y-120266235D01*
X138775197Y-120683244D01*
X138774803Y-121134775D01*
X138947233Y-121552086D01*
X139266235Y-121871645D01*
X139683244Y-122044803D01*
X140134775Y-122045197D01*
X140552086Y-121872767D01*
X140871645Y-121553765D01*
X141044803Y-121136756D01*
X141045197Y-120685225D01*
X140978268Y-120523245D01*
X141085000Y-120630163D01*
X141085000Y-121400000D01*
X141144755Y-121700407D01*
X141269226Y-121886691D01*
X141267914Y-121887233D01*
X140948355Y-122206235D01*
X140775197Y-122623244D01*
X140774803Y-123074775D01*
X140947233Y-123492086D01*
X140975000Y-123519901D01*
X140975000Y-123565705D01*
X140770000Y-123524928D01*
X140373923Y-123603713D01*
X140038144Y-123828072D01*
X139813785Y-124163851D01*
X139735000Y-124559928D01*
X139735000Y-125620072D01*
X139813785Y-126016149D01*
X140038144Y-126351928D01*
X140373923Y-126576287D01*
X140770000Y-126655072D01*
X141166077Y-126576287D01*
X141320000Y-126473440D01*
X141473923Y-126576287D01*
X141870000Y-126655072D01*
X142266077Y-126576287D01*
X142420000Y-126473440D01*
X142573923Y-126576287D01*
X142970000Y-126655072D01*
X143366077Y-126576287D01*
X143520000Y-126473440D01*
X143673923Y-126576287D01*
X144070000Y-126655072D01*
X144466077Y-126576287D01*
X144620000Y-126473440D01*
X144773923Y-126576287D01*
X145170000Y-126655072D01*
X145566077Y-126576287D01*
X145720000Y-126473440D01*
X145873923Y-126576287D01*
X146270000Y-126655072D01*
X146666077Y-126576287D01*
X146820000Y-126473440D01*
X146973923Y-126576287D01*
X147370000Y-126655072D01*
X147766077Y-126576287D01*
X147920000Y-126473440D01*
X148073923Y-126576287D01*
X148470000Y-126655072D01*
X148866077Y-126576287D01*
X149034760Y-126463577D01*
X149283877Y-126584666D01*
X149443000Y-126456998D01*
X149443000Y-125931766D01*
X149505000Y-125620072D01*
X149505000Y-124943000D01*
X149697000Y-124943000D01*
X149697000Y-124963000D01*
X149717000Y-124963000D01*
X149717000Y-125217000D01*
X149697000Y-125217000D01*
X149697000Y-126456998D01*
X149856123Y-126584666D01*
X150212053Y-126411658D01*
X150477615Y-126103410D01*
X150528928Y-125947756D01*
X150779594Y-126115245D01*
X151080000Y-126175001D01*
X151080005Y-126175000D01*
X152570029Y-126175000D01*
X152318355Y-126426235D01*
X152145197Y-126843244D01*
X152144803Y-127294775D01*
X152167373Y-127349399D01*
X121075804Y-127349399D01*
X121075804Y-123141131D01*
X121568771Y-123141131D01*
X121710432Y-123551049D01*
X121998179Y-123875552D01*
X122372062Y-124059268D01*
X122543000Y-123932734D01*
X122543000Y-122967000D01*
X121717437Y-122967000D01*
X121568771Y-123141131D01*
X121075804Y-123141131D01*
X121075804Y-122538869D01*
X121568771Y-122538869D01*
X121717437Y-122713000D01*
X122543000Y-122713000D01*
X122543000Y-121747266D01*
X122797000Y-121747266D01*
X122797000Y-122713000D01*
X122797560Y-122713000D01*
X122797560Y-122967000D01*
X122797000Y-122967000D01*
X122797000Y-123932734D01*
X122967938Y-124059268D01*
X123097075Y-123995813D01*
X123193110Y-124061431D01*
X123445000Y-124112440D01*
X124395000Y-124112440D01*
X124630317Y-124068162D01*
X124846441Y-123929090D01*
X124991431Y-123716890D01*
X125042440Y-123465000D01*
X125042440Y-122215000D01*
X124998162Y-121979683D01*
X124859090Y-121763559D01*
X124646890Y-121618569D01*
X124395000Y-121567560D01*
X123445000Y-121567560D01*
X123209683Y-121611838D01*
X123097174Y-121684235D01*
X122967938Y-121620732D01*
X122797000Y-121747266D01*
X122543000Y-121747266D01*
X122372062Y-121620732D01*
X121998179Y-121804448D01*
X121710432Y-122128951D01*
X121568771Y-122538869D01*
X121075804Y-122538869D01*
X121075804Y-115956314D01*
X121844816Y-115919797D01*
X121962262Y-115890582D01*
X122080711Y-115865801D01*
X122959053Y-115491758D01*
X131705804Y-115491758D01*
X131872127Y-116327921D01*
X132345776Y-117036786D01*
X133054641Y-117510435D01*
X133890804Y-117676758D01*
X134726967Y-117510435D01*
X135435832Y-117036786D01*
X135909481Y-116327921D01*
X136070783Y-115517000D01*
X139735000Y-115517000D01*
X139735000Y-116017000D01*
X139862385Y-116403410D01*
X140127947Y-116711658D01*
X140483877Y-116884666D01*
X140643000Y-116756998D01*
X140643000Y-115517000D01*
X139735000Y-115517000D01*
X136070783Y-115517000D01*
X136075804Y-115491758D01*
X135930846Y-114763000D01*
X139735000Y-114763000D01*
X139735000Y-115263000D01*
X140643000Y-115263000D01*
X140643000Y-114023002D01*
X140483877Y-113895334D01*
X140127947Y-114068342D01*
X139862385Y-114376590D01*
X139735000Y-114763000D01*
X135930846Y-114763000D01*
X135909481Y-114655595D01*
X135435832Y-113946730D01*
X134726967Y-113473081D01*
X133890804Y-113306758D01*
X133054641Y-113473081D01*
X132345776Y-113946730D01*
X131872127Y-114655595D01*
X131705804Y-115491758D01*
X122959053Y-115491758D01*
X123696143Y-115177868D01*
X123916893Y-115027187D01*
X125146100Y-113773420D01*
X125292383Y-113549732D01*
X125948225Y-111921006D01*
X125997772Y-111658364D01*
X125994462Y-111323750D01*
X138960000Y-111323750D01*
X138960000Y-111416310D01*
X139056673Y-111649699D01*
X139235302Y-111828327D01*
X139468691Y-111925000D01*
X139609250Y-111925000D01*
X139768000Y-111766250D01*
X139768000Y-111165000D01*
X139118750Y-111165000D01*
X138960000Y-111323750D01*
X125994462Y-111323750D01*
X125987933Y-110663690D01*
X138960000Y-110663690D01*
X138960000Y-110756250D01*
X139118750Y-110915000D01*
X139768000Y-110915000D01*
X139768000Y-110313750D01*
X139609250Y-110155000D01*
X139468691Y-110155000D01*
X139235302Y-110251673D01*
X139056673Y-110430301D01*
X138960000Y-110663690D01*
X125987933Y-110663690D01*
X125980404Y-109902637D01*
X125959711Y-109803728D01*
X125925671Y-109641027D01*
X125791942Y-109327000D01*
X141810000Y-109327000D01*
X141810000Y-110305000D01*
G36*
X159334921Y-125865079D02*
X159499430Y-125975000D01*
X157634447Y-125975000D01*
X156689723Y-125030277D01*
X156451272Y-124870949D01*
X156440106Y-124868728D01*
X156371092Y-124855000D01*
X158324842Y-124855000D01*
X159334921Y-125865079D01*
X159334921Y-125865079D01*
G37*
X159334921Y-125865079D02*
X159499430Y-125975000D01*
X157634447Y-125975000D01*
X156689723Y-125030277D01*
X156451272Y-124870949D01*
X156440106Y-124868728D01*
X156371092Y-124855000D01*
X158324842Y-124855000D01*
X159334921Y-125865079D01*
G36*
X163854500Y-121110500D02*
X165325500Y-121110500D01*
X165325500Y-121090500D01*
X165579500Y-121090500D01*
X165579500Y-121110500D01*
X165599500Y-121110500D01*
X165599500Y-121364500D01*
X165579500Y-121364500D01*
X165579500Y-122835500D01*
X165599500Y-122835500D01*
X165599500Y-123089500D01*
X165579500Y-123089500D01*
X165579500Y-123109500D01*
X165325500Y-123109500D01*
X165325500Y-123089500D01*
X163854500Y-123089500D01*
X163854500Y-123109500D01*
X163600500Y-123109500D01*
X163600500Y-123089500D01*
X163580500Y-123089500D01*
X163580500Y-122835500D01*
X163600500Y-122835500D01*
X163600500Y-121364500D01*
X163854500Y-121364500D01*
X163854500Y-122835500D01*
X165325500Y-122835500D01*
X165325500Y-121364500D01*
X163854500Y-121364500D01*
X163600500Y-121364500D01*
X163580500Y-121364500D01*
X163580500Y-121110500D01*
X163600500Y-121110500D01*
X163600500Y-121090500D01*
X163854500Y-121090500D01*
X163854500Y-121110500D01*
X163854500Y-121110500D01*
G37*
X163854500Y-121110500D02*
X165325500Y-121110500D01*
X165325500Y-121090500D01*
X165579500Y-121090500D01*
X165579500Y-121110500D01*
X165599500Y-121110500D01*
X165599500Y-121364500D01*
X165579500Y-121364500D01*
X165579500Y-122835500D01*
X165599500Y-122835500D01*
X165599500Y-123089500D01*
X165579500Y-123089500D01*
X165579500Y-123109500D01*
X165325500Y-123109500D01*
X165325500Y-123089500D01*
X163854500Y-123089500D01*
X163854500Y-123109500D01*
X163600500Y-123109500D01*
X163600500Y-123089500D01*
X163580500Y-123089500D01*
X163580500Y-122835500D01*
X163600500Y-122835500D01*
X163600500Y-121364500D01*
X163854500Y-121364500D01*
X163854500Y-122835500D01*
X165325500Y-122835500D01*
X165325500Y-121364500D01*
X163854500Y-121364500D01*
X163600500Y-121364500D01*
X163580500Y-121364500D01*
X163580500Y-121110500D01*
X163600500Y-121110500D01*
X163600500Y-121090500D01*
X163854500Y-121090500D01*
X163854500Y-121110500D01*
G36*
X169277000Y-115266447D02*
X169277000Y-115275000D01*
X169285553Y-115275000D01*
X169297000Y-115286447D01*
X169297000Y-115525000D01*
X169277000Y-115525000D01*
X169277000Y-116126250D01*
X169315750Y-116165000D01*
X169277000Y-116203750D01*
X169277000Y-116805000D01*
X169297000Y-116805000D01*
X169297000Y-117055000D01*
X169003000Y-117055000D01*
X169003000Y-116805000D01*
X169023000Y-116805000D01*
X169023000Y-116203750D01*
X168984250Y-116165000D01*
X169023000Y-116126250D01*
X169023000Y-115525000D01*
X169003000Y-115525000D01*
X169003000Y-115275000D01*
X169023000Y-115275000D01*
X169023000Y-115253000D01*
X169263553Y-115253000D01*
X169277000Y-115266447D01*
X169277000Y-115266447D01*
G37*
X169277000Y-115266447D02*
X169277000Y-115275000D01*
X169285553Y-115275000D01*
X169297000Y-115286447D01*
X169297000Y-115525000D01*
X169277000Y-115525000D01*
X169277000Y-116126250D01*
X169315750Y-116165000D01*
X169277000Y-116203750D01*
X169277000Y-116805000D01*
X169297000Y-116805000D01*
X169297000Y-117055000D01*
X169003000Y-117055000D01*
X169003000Y-116805000D01*
X169023000Y-116805000D01*
X169023000Y-116203750D01*
X168984250Y-116165000D01*
X169023000Y-116126250D01*
X169023000Y-115525000D01*
X169003000Y-115525000D01*
X169003000Y-115275000D01*
X169023000Y-115275000D01*
X169023000Y-115253000D01*
X169263553Y-115253000D01*
X169277000Y-115266447D01*
G36*
X162702560Y-113700000D02*
X162711744Y-113748809D01*
X162630554Y-113830000D01*
X162309446Y-113830000D01*
X162702560Y-113436887D01*
X162702560Y-113700000D01*
X162702560Y-113700000D01*
G37*
X162702560Y-113700000D02*
X162711744Y-113748809D01*
X162630554Y-113830000D01*
X162309446Y-113830000D01*
X162702560Y-113436887D01*
X162702560Y-113700000D01*
G36*
X155191673Y-111930301D02*
X155095000Y-112163690D01*
X155095000Y-112256250D01*
X155253750Y-112415000D01*
X155903000Y-112415000D01*
X155903000Y-112393000D01*
X156157000Y-112393000D01*
X156157000Y-112415000D01*
X156177000Y-112415000D01*
X156177000Y-112665000D01*
X156157000Y-112665000D01*
X156157000Y-113266250D01*
X156315750Y-113425000D01*
X156456309Y-113425000D01*
X156567283Y-113379033D01*
X156578110Y-113386431D01*
X156830000Y-113437440D01*
X157237994Y-113437440D01*
X157253904Y-113453351D01*
X157250000Y-113452560D01*
X156850000Y-113452560D01*
X156614683Y-113496838D01*
X156603021Y-113504342D01*
X156601890Y-113503569D01*
X156350000Y-113452560D01*
X155950000Y-113452560D01*
X155714683Y-113496838D01*
X155498559Y-113635910D01*
X155497610Y-113637299D01*
X155301890Y-113503569D01*
X155050000Y-113452560D01*
X154735000Y-113452560D01*
X154735000Y-112823750D01*
X155095000Y-112823750D01*
X155095000Y-112916310D01*
X155191673Y-113149699D01*
X155370302Y-113328327D01*
X155603691Y-113425000D01*
X155744250Y-113425000D01*
X155903000Y-113266250D01*
X155903000Y-112665000D01*
X155253750Y-112665000D01*
X155095000Y-112823750D01*
X154735000Y-112823750D01*
X154735000Y-112315158D01*
X155200158Y-111850000D01*
X155271974Y-111850000D01*
X155191673Y-111930301D01*
X155191673Y-111930301D01*
G37*
X155191673Y-111930301D02*
X155095000Y-112163690D01*
X155095000Y-112256250D01*
X155253750Y-112415000D01*
X155903000Y-112415000D01*
X155903000Y-112393000D01*
X156157000Y-112393000D01*
X156157000Y-112415000D01*
X156177000Y-112415000D01*
X156177000Y-112665000D01*
X156157000Y-112665000D01*
X156157000Y-113266250D01*
X156315750Y-113425000D01*
X156456309Y-113425000D01*
X156567283Y-113379033D01*
X156578110Y-113386431D01*
X156830000Y-113437440D01*
X157237994Y-113437440D01*
X157253904Y-113453351D01*
X157250000Y-113452560D01*
X156850000Y-113452560D01*
X156614683Y-113496838D01*
X156603021Y-113504342D01*
X156601890Y-113503569D01*
X156350000Y-113452560D01*
X155950000Y-113452560D01*
X155714683Y-113496838D01*
X155498559Y-113635910D01*
X155497610Y-113637299D01*
X155301890Y-113503569D01*
X155050000Y-113452560D01*
X154735000Y-113452560D01*
X154735000Y-112823750D01*
X155095000Y-112823750D01*
X155095000Y-112916310D01*
X155191673Y-113149699D01*
X155370302Y-113328327D01*
X155603691Y-113425000D01*
X155744250Y-113425000D01*
X155903000Y-113266250D01*
X155903000Y-112665000D01*
X155253750Y-112665000D01*
X155095000Y-112823750D01*
X154735000Y-112823750D01*
X154735000Y-112315158D01*
X155200158Y-111850000D01*
X155271974Y-111850000D01*
X155191673Y-111930301D01*
G36*
X146347000Y-113215000D02*
X146367000Y-113215000D01*
X146367000Y-113465000D01*
X146347000Y-113465000D01*
X146347000Y-113487000D01*
X146093000Y-113487000D01*
X146093000Y-113465000D01*
X146073000Y-113465000D01*
X146073000Y-113215000D01*
X146093000Y-113215000D01*
X146093000Y-113193000D01*
X146347000Y-113193000D01*
X146347000Y-113215000D01*
X146347000Y-113215000D01*
G37*
X146347000Y-113215000D02*
X146367000Y-113215000D01*
X146367000Y-113465000D01*
X146347000Y-113465000D01*
X146347000Y-113487000D01*
X146093000Y-113487000D01*
X146093000Y-113465000D01*
X146073000Y-113465000D01*
X146073000Y-113215000D01*
X146093000Y-113215000D01*
X146093000Y-113193000D01*
X146347000Y-113193000D01*
X146347000Y-113215000D01*
G36*
X158342560Y-111340000D02*
X158386838Y-111575317D01*
X158525910Y-111791441D01*
X158738110Y-111936431D01*
X158990000Y-111987440D01*
X159590000Y-111987440D01*
X159825317Y-111943162D01*
X159849406Y-111927661D01*
X159963691Y-111975000D01*
X160104250Y-111975000D01*
X160263000Y-111816250D01*
X160263000Y-111215000D01*
X160517000Y-111215000D01*
X160517000Y-111816250D01*
X160675750Y-111975000D01*
X160816309Y-111975000D01*
X161049698Y-111878327D01*
X161228327Y-111699699D01*
X161325000Y-111466310D01*
X161325000Y-111373750D01*
X161166250Y-111215000D01*
X160517000Y-111215000D01*
X160263000Y-111215000D01*
X160243000Y-111215000D01*
X160243000Y-110965000D01*
X160263000Y-110965000D01*
X160263000Y-110943000D01*
X160517000Y-110943000D01*
X160517000Y-110965000D01*
X161166250Y-110965000D01*
X161261250Y-110870000D01*
X161868750Y-110870000D01*
X161873750Y-110875000D01*
X162523000Y-110875000D01*
X162523000Y-110870000D01*
X162777000Y-110870000D01*
X162777000Y-110875000D01*
X162797000Y-110875000D01*
X162797000Y-111125000D01*
X162777000Y-111125000D01*
X162777000Y-111147000D01*
X162523000Y-111147000D01*
X162523000Y-111125000D01*
X161873750Y-111125000D01*
X161715000Y-111283750D01*
X161715000Y-111376310D01*
X161811673Y-111609699D01*
X161990302Y-111788327D01*
X162223691Y-111885000D01*
X162364250Y-111885000D01*
X162522998Y-111726252D01*
X162522998Y-111865000D01*
X162500000Y-111865000D01*
X162232739Y-111918162D01*
X162218728Y-111920949D01*
X161980277Y-112080276D01*
X161547071Y-112513482D01*
X161533327Y-112480301D01*
X161354698Y-112301673D01*
X161121309Y-112205000D01*
X160930750Y-112205000D01*
X160772000Y-112363750D01*
X160772000Y-112992560D01*
X160518000Y-112992560D01*
X160518000Y-112363750D01*
X160359250Y-112205000D01*
X160168691Y-112205000D01*
X159935302Y-112301673D01*
X159852748Y-112384226D01*
X159646890Y-112243569D01*
X159395000Y-112192560D01*
X158695000Y-112192560D01*
X158459683Y-112236838D01*
X158250737Y-112371291D01*
X158056115Y-112176669D01*
X158033162Y-112054683D01*
X157894090Y-111838559D01*
X157820053Y-111787972D01*
X157933327Y-111674699D01*
X158030000Y-111441310D01*
X158030000Y-111348750D01*
X157871250Y-111190000D01*
X157222000Y-111190000D01*
X157222000Y-111212000D01*
X156968000Y-111212000D01*
X156968000Y-111190000D01*
X156948000Y-111190000D01*
X156948000Y-110940000D01*
X156968000Y-110940000D01*
X156968000Y-110918000D01*
X157222000Y-110918000D01*
X157222000Y-110940000D01*
X157871250Y-110940000D01*
X157946250Y-110865000D01*
X158342560Y-110865000D01*
X158342560Y-111340000D01*
X158342560Y-111340000D01*
G37*
X158342560Y-111340000D02*
X158386838Y-111575317D01*
X158525910Y-111791441D01*
X158738110Y-111936431D01*
X158990000Y-111987440D01*
X159590000Y-111987440D01*
X159825317Y-111943162D01*
X159849406Y-111927661D01*
X159963691Y-111975000D01*
X160104250Y-111975000D01*
X160263000Y-111816250D01*
X160263000Y-111215000D01*
X160517000Y-111215000D01*
X160517000Y-111816250D01*
X160675750Y-111975000D01*
X160816309Y-111975000D01*
X161049698Y-111878327D01*
X161228327Y-111699699D01*
X161325000Y-111466310D01*
X161325000Y-111373750D01*
X161166250Y-111215000D01*
X160517000Y-111215000D01*
X160263000Y-111215000D01*
X160243000Y-111215000D01*
X160243000Y-110965000D01*
X160263000Y-110965000D01*
X160263000Y-110943000D01*
X160517000Y-110943000D01*
X160517000Y-110965000D01*
X161166250Y-110965000D01*
X161261250Y-110870000D01*
X161868750Y-110870000D01*
X161873750Y-110875000D01*
X162523000Y-110875000D01*
X162523000Y-110870000D01*
X162777000Y-110870000D01*
X162777000Y-110875000D01*
X162797000Y-110875000D01*
X162797000Y-111125000D01*
X162777000Y-111125000D01*
X162777000Y-111147000D01*
X162523000Y-111147000D01*
X162523000Y-111125000D01*
X161873750Y-111125000D01*
X161715000Y-111283750D01*
X161715000Y-111376310D01*
X161811673Y-111609699D01*
X161990302Y-111788327D01*
X162223691Y-111885000D01*
X162364250Y-111885000D01*
X162522998Y-111726252D01*
X162522998Y-111865000D01*
X162500000Y-111865000D01*
X162232739Y-111918162D01*
X162218728Y-111920949D01*
X161980277Y-112080276D01*
X161547071Y-112513482D01*
X161533327Y-112480301D01*
X161354698Y-112301673D01*
X161121309Y-112205000D01*
X160930750Y-112205000D01*
X160772000Y-112363750D01*
X160772000Y-112992560D01*
X160518000Y-112992560D01*
X160518000Y-112363750D01*
X160359250Y-112205000D01*
X160168691Y-112205000D01*
X159935302Y-112301673D01*
X159852748Y-112384226D01*
X159646890Y-112243569D01*
X159395000Y-112192560D01*
X158695000Y-112192560D01*
X158459683Y-112236838D01*
X158250737Y-112371291D01*
X158056115Y-112176669D01*
X158033162Y-112054683D01*
X157894090Y-111838559D01*
X157820053Y-111787972D01*
X157933327Y-111674699D01*
X158030000Y-111441310D01*
X158030000Y-111348750D01*
X157871250Y-111190000D01*
X157222000Y-111190000D01*
X157222000Y-111212000D01*
X156968000Y-111212000D01*
X156968000Y-111190000D01*
X156948000Y-111190000D01*
X156948000Y-110940000D01*
X156968000Y-110940000D01*
X156968000Y-110918000D01*
X157222000Y-110918000D01*
X157222000Y-110940000D01*
X157871250Y-110940000D01*
X157946250Y-110865000D01*
X158342560Y-110865000D01*
X158342560Y-111340000D01*
M02*
