G04 #@! TF.FileFunction,Soldermask,Bot*
%FSLAX46Y46*%
G04 Gerber Fmt 4.6, Leading zero omitted, Abs format (unit mm)*
G04 Created by KiCad (PCBNEW 4.0.5+dfsg1-4~bpo8+1) date Mon Dec 18 16:44:26 2017*
%MOMM*%
%LPD*%
G01*
G04 APERTURE LIST*
%ADD10C,0.100000*%
%ADD11O,1.200000X2.200000*%
%ADD12R,1.400000X2.400000*%
%ADD13R,1.350000X1.650000*%
%ADD14O,1.350000X1.650000*%
%ADD15R,1.000000X0.900000*%
%ADD16R,0.900000X1.300000*%
%ADD17R,0.800000X1.000000*%
%ADD18R,1.000000X0.800000*%
%ADD19R,0.650000X1.100000*%
%ADD20R,1.100000X0.650000*%
%ADD21R,2.125000X2.125000*%
%ADD22R,0.670000X0.725000*%
%ADD23R,1.400000X2.200000*%
%ADD24R,2.432000X2.127200*%
%ADD25O,2.432000X2.127200*%
G04 APERTURE END LIST*
D10*
D11*
X140770000Y-115390000D03*
X141870000Y-115390000D03*
X142970000Y-115390000D03*
X144070000Y-115390000D03*
X145170000Y-115390000D03*
X146270000Y-115390000D03*
X147370000Y-115390000D03*
X148470000Y-115390000D03*
X149570000Y-115390000D03*
X149570000Y-125090000D03*
X148470000Y-125090000D03*
X147370000Y-125090000D03*
X146270000Y-125090000D03*
X145170000Y-125090000D03*
X144070000Y-125090000D03*
X142970000Y-125090000D03*
X141870000Y-125090000D03*
X140770000Y-125090000D03*
D12*
X142920000Y-101440000D03*
X148920000Y-101440000D03*
D13*
X123920000Y-122840000D03*
D14*
X122670000Y-122840000D03*
D15*
X168050000Y-115400000D03*
X169150000Y-115400000D03*
X162440000Y-125880000D03*
X161340000Y-125880000D03*
X172520000Y-119590000D03*
X173620000Y-119590000D03*
X172520000Y-116790000D03*
X173620000Y-116790000D03*
X172520000Y-115390000D03*
X173620000Y-115390000D03*
X172520000Y-120990000D03*
X173620000Y-120990000D03*
X167700000Y-111090000D03*
X166600000Y-111090000D03*
X170270000Y-111100000D03*
X169170000Y-111100000D03*
X147445000Y-111165000D03*
X148545000Y-111165000D03*
X140995000Y-111040000D03*
X139895000Y-111040000D03*
X145120000Y-113340000D03*
X146220000Y-113340000D03*
X163750000Y-111000000D03*
X162650000Y-111000000D03*
X155995000Y-111065000D03*
X157095000Y-111065000D03*
X159290000Y-111090000D03*
X160390000Y-111090000D03*
X157130000Y-112540000D03*
X156030000Y-112540000D03*
D16*
X143370000Y-113140000D03*
X141870000Y-113140000D03*
D17*
X153950000Y-114400000D03*
X154850000Y-114400000D03*
X157050000Y-114400000D03*
X156150000Y-114400000D03*
X143445000Y-111040000D03*
X142545000Y-111040000D03*
D18*
X163650000Y-112600000D03*
X163650000Y-113500000D03*
X159810000Y-115940000D03*
X159810000Y-116840000D03*
D19*
X166340000Y-124500000D03*
X165840000Y-124500000D03*
X165340000Y-124500000D03*
X164840000Y-124500000D03*
X164340000Y-124500000D03*
X163840000Y-124500000D03*
X163340000Y-124500000D03*
X162840000Y-124500000D03*
D20*
X162190000Y-123850000D03*
X162190000Y-123350000D03*
X162190000Y-122850000D03*
X162190000Y-122350000D03*
X162190000Y-121850000D03*
X162190000Y-121350000D03*
X162190000Y-120850000D03*
X162190000Y-120350000D03*
D19*
X162840000Y-119700000D03*
X163340000Y-119700000D03*
X163840000Y-119700000D03*
X164340000Y-119700000D03*
X164840000Y-119700000D03*
X165340000Y-119700000D03*
X165840000Y-119700000D03*
X166340000Y-119700000D03*
D20*
X166990000Y-120350000D03*
X166990000Y-120850000D03*
X166990000Y-121350000D03*
X166990000Y-121850000D03*
X166990000Y-122350000D03*
X166990000Y-122850000D03*
X166990000Y-123350000D03*
X166990000Y-123850000D03*
D21*
X163727500Y-121237500D03*
X165452500Y-121237500D03*
X163727500Y-122962500D03*
X165452500Y-122962500D03*
D22*
X145520000Y-112065000D03*
X145120000Y-112065000D03*
X144720000Y-112065000D03*
X144720000Y-111615000D03*
X145120000Y-111615000D03*
X145520000Y-111615000D03*
D20*
X159045000Y-114565000D03*
X159045000Y-114165000D03*
X159045000Y-113765000D03*
X159045000Y-113365000D03*
X159045000Y-112965000D03*
X160645000Y-112965000D03*
X160645000Y-113365000D03*
X160645000Y-113765000D03*
X160645000Y-114165000D03*
X160645000Y-114565000D03*
D23*
X170730000Y-113310000D03*
X168230000Y-113310000D03*
D24*
X188520000Y-118040000D03*
D25*
X188520000Y-120580000D03*
X188520000Y-123120000D03*
X188520000Y-125660000D03*
D15*
X168050000Y-116930000D03*
X169150000Y-116930000D03*
X172520000Y-118190000D03*
X173620000Y-118190000D03*
M02*
