  0
SECTION
  2
HEADER
  9
$ANGBASE
  50
0.0
  9
$ANGDIR
  70
  1
  9
$MEASUREMENT
  70
0
  0
ENDSEC
  0
SECTION
  2
TABLES
  0
TABLE
  2
LTYPE
  70
1
  0
LTYPE
  2
CONTINUOUS
  70
0
  3
Solid line
  72
65
  73
0
  40
0.0
  0
ENDTAB
  0
TABLE
  2
STYLE
  70
4
  0
STYLE
  2
KICAD
  70
0
  40
0
  41
1
  42
1
  50
0
  71
0
  3
isocp.shx
  0
STYLE
  2
KICADB
  70
0
  40
0
  41
1
  42
1
  50
0
  71
0
  3
isocp.shx
  0
STYLE
  2
KICADI
  70
0
  40
0
  41
1
  42
1
  50
15
  71
0
  3
isocp.shx
  0
STYLE
  2
KICADBI
  70
0
  40
0
  41
1
  42
1
  50
15
  71
0
  3
isocp.shx
  0
ENDTAB
  0
TABLE
  2
LAYER
  70
30
  0
LAYER
  2
BLACK
  70
0
  62
7
  6
CONTINUOUS
  0
LAYER
  2
GRAY1
  70
0
  62
251
  6
CONTINUOUS
  0
LAYER
  2
GRAY2
  70
0
  62
8
  6
CONTINUOUS
  0
LAYER
  2
GRAY3
  70
0
  62
9
  6
CONTINUOUS
  0
LAYER
  2
WHITE
  70
0
  62
7
  6
CONTINUOUS
  0
LAYER
  2
LYELLOW
  70
0
  62
51
  6
CONTINUOUS
  0
LAYER
  2
BLUE1
  70
0
  62
178
  6
CONTINUOUS
  0
LAYER
  2
GREEN1
  70
0
  62
98
  6
CONTINUOUS
  0
LAYER
  2
CYAN1
  70
0
  62
138
  6
CONTINUOUS
  0
LAYER
  2
RED1
  70
0
  62
18
  6
CONTINUOUS
  0
LAYER
  2
MAGENTA1
  70
0
  62
228
  6
CONTINUOUS
  0
LAYER
  2
BROWN1
  70
0
  62
58
  6
CONTINUOUS
  0
LAYER
  2
BLUE2
  70
0
  62
5
  6
CONTINUOUS
  0
LAYER
  2
GREEN2
  70
0
  62
3
  6
CONTINUOUS
  0
LAYER
  2
CYAN2
  70
0
  62
4
  6
CONTINUOUS
  0
LAYER
  2
RED2
  70
0
  62
1
  6
CONTINUOUS
  0
LAYER
  2
MAGENTA2
  70
0
  62
6
  6
CONTINUOUS
  0
LAYER
  2
BROWN2
  70
0
  62
54
  6
CONTINUOUS
  0
LAYER
  2
BLUE3
  70
0
  62
171
  6
CONTINUOUS
  0
LAYER
  2
GREEN3
  70
0
  62
91
  6
CONTINUOUS
  0
LAYER
  2
CYAN3
  70
0
  62
131
  6
CONTINUOUS
  0
LAYER
  2
RED3
  70
0
  62
11
  6
CONTINUOUS
  0
LAYER
  2
MAGENTA3
  70
0
  62
221
  6
CONTINUOUS
  0
LAYER
  2
YELLOW3
  70
0
  62
2
  6
CONTINUOUS
  0
LAYER
  2
BLUE4
  70
0
  62
5
  6
CONTINUOUS
  0
LAYER
  2
GREEN4
  70
0
  62
3
  6
CONTINUOUS
  0
LAYER
  2
CYAN4
  70
0
  62
4
  6
CONTINUOUS
  0
LAYER
  2
RED4
  70
0
  62
1
  6
CONTINUOUS
  0
LAYER
  2
MAGENTA4
  70
0
  62
6
  6
CONTINUOUS
  0
LAYER
  2
YELLOW4
  70
0
  62
2
  6
CONTINUOUS
  0
ENDTAB
  0
ENDSEC
  0
SECTION
  2
ENTITIES
0
LINE
8
Black
10
82.9077
20
-6.77873
11
82.9155
21
-6.78034
0
LINE
8
Black
10
82.9155
20
-6.78034
11
82.9233
21
-6.78172
0
LINE
8
Black
10
82.9233
20
-6.78172
11
101.671
21
-13.6054
0
LINE
8
Black
10
101.671
20
-13.6054
11
101.672
21
-13.6056
0
LINE
8
Black
10
101.672
20
-13.6056
11
101.672
21
-13.6056
0
LINE
8
Black
10
101.672
20
-13.6056
11
101.679
21
-13.6099
0
LINE
8
Black
10
101.679
20
-13.6099
11
101.686
21
-13.6141
0
LINE
8
Black
10
101.686
20
-13.6141
11
101.687
21
-13.6143
0
LINE
8
Black
10
101.687
20
-13.6143
11
101.687
21
-13.6145
0
LINE
8
Black
10
101.687
20
-13.6145
11
101.692
21
-13.621
0
LINE
8
Black
10
101.692
20
-13.621
11
101.697
21
-13.6274
0
LINE
8
Black
10
101.697
20
-13.6274
11
101.698
21
-13.6277
0
LINE
8
Black
10
101.698
20
-13.6277
11
101.698
21
-13.6279
0
LINE
8
Black
10
101.698
20
-13.6279
11
101.701
21
-13.636
0
LINE
8
Black
10
101.701
20
-13.636
11
101.703
21
-13.6437
0
LINE
8
Black
10
101.703
20
-13.6437
11
101.703
21
-13.644
0
LINE
8
Black
10
101.703
20
-13.644
11
101.704
21
-13.6443
0
LINE
8
Black
10
101.704
20
-13.6443
11
101.703
21
-13.6529
0
LINE
8
Black
10
101.703
20
-13.6529
11
101.703
21
-13.6611
0
LINE
8
Black
10
101.703
20
-13.6611
11
101.703
21
-13.6614
0
LINE
8
Black
10
101.703
20
-13.6614
11
101.703
21
-13.6617
0
LINE
8
Black
10
101.703
20
-13.6617
11
101.671
21
-13.8323
0
LINE
8
Black
10
101.671
20
-13.8323
11
101.665
21
-13.8486
0
LINE
8
Black
10
101.665
20
-13.8486
11
101.576
21
-13.9979
0
LINE
8
Black
10
101.576
20
-13.9979
11
101.571
21
-14.0038
0
LINE
8
Black
10
101.571
20
-14.0038
11
101.566
21
-14.01
0
LINE
8
Black
10
101.566
20
-14.01
11
101.461
21
-14.1024
0
LINE
8
Black
10
101.461
20
-14.1024
11
101.46
21
-14.1027
0
LINE
8
Black
10
101.46
20
-14.1027
11
101.46
21
-14.1032
0
LINE
8
Black
10
101.46
20
-14.1032
11
100.671
21
-14.7602
0
LINE
8
Black
10
100.671
20
-14.7602
11
99.8143
21
-16.0482
0
LINE
8
Black
10
99.8143
20
-16.0482
11
99.4505
21
-17.55
0
LINE
8
Black
10
99.4505
20
-17.55
11
99.6221
21
-19.0856
0
LINE
8
Black
10
99.6221
20
-19.0856
11
100.309
21
-20.4699
0
LINE
8
Black
10
100.309
20
-20.4699
11
101.427
21
-21.5359
0
LINE
8
Black
10
101.427
20
-21.5359
11
102.843
21
-22.155
0
LINE
8
Black
10
102.843
20
-22.155
11
104.394
21
-22.2532
0
LINE
8
Black
10
104.394
20
-22.2532
11
104.397
21
-22.2538
0
LINE
8
Black
10
104.397
20
-22.2538
11
104.399
21
-22.2538
0
LINE
8
Black
10
104.399
20
-22.2538
11
104.405
21
-22.2559
0
LINE
8
Black
10
104.405
20
-22.2559
11
104.411
21
-22.2573
0
LINE
8
Black
10
104.411
20
-22.2573
11
104.413
21
-22.2588
0
LINE
8
Black
10
104.413
20
-22.2588
11
104.416
21
-22.2598
0
LINE
8
Black
10
104.416
20
-22.2598
11
104.42
21
-22.2636
0
LINE
8
Black
10
104.42
20
-22.2636
11
104.425
21
-22.2669
0
LINE
8
Black
10
104.425
20
-22.2669
11
104.427
21
-22.2691
0
LINE
8
Black
10
104.427
20
-22.2691
11
104.429
21
-22.2709
0
LINE
8
Black
10
104.429
20
-22.2709
11
104.432
21
-22.2761
0
LINE
8
Black
10
104.432
20
-22.2761
11
104.436
21
-22.2809
0
LINE
8
Black
10
104.436
20
-22.2809
11
104.436
21
-22.2835
0
LINE
8
Black
10
104.436
20
-22.2835
11
104.438
21
-22.286
0
LINE
8
Black
10
104.438
20
-22.286
11
104.439
21
-22.2918
0
LINE
8
Black
10
104.439
20
-22.2918
11
104.44
21
-22.2975
0
LINE
8
Black
10
104.44
20
-22.2975
11
104.44
21
-22.3003
0
LINE
8
Black
10
104.44
20
-22.3003
11
104.441
21
-22.3031
0
LINE
8
Black
10
104.441
20
-22.3031
11
104.441
21
-35.0344
0
LINE
8
Black
10
104.441
20
-35.0344
11
104.44
21
-35.0387
0
LINE
8
Black
10
104.44
20
-35.0387
11
104.44
21
-35.0431
0
LINE
8
Black
10
104.44
20
-35.0431
11
104.439
21
-35.0472
0
LINE
8
Black
10
104.439
20
-35.0472
11
104.438
21
-35.0515
0
LINE
8
Black
10
104.438
20
-35.0515
11
104.436
21
-35.0553
0
LINE
8
Black
10
104.436
20
-35.0553
11
104.434
21
-35.0594
0
LINE
8
Black
10
104.434
20
-35.0594
11
104.431
21
-35.0628
0
LINE
8
Black
10
104.431
20
-35.0628
11
104.429
21
-35.0665
0
LINE
8
Black
10
104.429
20
-35.0665
11
104.426
21
-35.0694
0
LINE
8
Black
10
104.426
20
-35.0694
11
104.423
21
-35.0727
0
LINE
8
Black
10
104.423
20
-35.0727
11
104.419
21
-35.0749
0
LINE
8
Black
10
104.419
20
-35.0749
11
104.416
21
-35.0777
0
LINE
8
Black
10
104.416
20
-35.0777
11
104.412
21
-35.0792
0
LINE
8
Black
10
104.412
20
-35.0792
11
104.408
21
-35.0814
0
LINE
8
Black
10
104.408
20
-35.0814
11
104.404
21
-35.0821
0
LINE
8
Black
10
104.404
20
-35.0821
11
104.399
21
-35.0836
0
LINE
8
Black
10
104.399
20
-35.0836
11
104.395
21
-35.0836
0
LINE
8
Black
10
104.395
20
-35.0836
11
104.391
21
-35.0844
0
LINE
8
Black
10
104.391
20
-35.0844
11
33.3908
21
-35.0844
0
LINE
8
Black
10
33.3908
20
-35.0844
11
33.3865
21
-35.0836
0
LINE
8
Black
10
33.3865
20
-35.0836
11
33.3821
21
-35.0836
0
LINE
8
Black
10
33.3821
20
-35.0836
11
33.378
21
-35.0821
0
LINE
8
Black
10
33.378
20
-35.0821
11
33.3737
21
-35.0814
0
LINE
8
Black
10
33.3737
20
-35.0814
11
33.3699
21
-35.0792
0
LINE
8
Black
10
33.3699
20
-35.0792
11
33.3658
21
-35.0777
0
LINE
8
Black
10
33.3658
20
-35.0777
11
33.3625
21
-35.0749
0
LINE
8
Black
10
33.3625
20
-35.0749
11
33.3587
21
-35.0727
0
LINE
8
Black
10
33.3587
20
-35.0727
11
33.3559
21
-35.0694
0
LINE
8
Black
10
33.3559
20
-35.0694
11
33.3525
21
-35.0665
0
LINE
8
Black
10
33.3525
20
-35.0665
11
33.3503
21
-35.0628
0
LINE
8
Black
10
33.3503
20
-35.0628
11
33.3475
21
-35.0594
0
LINE
8
Black
10
33.3475
20
-35.0594
11
33.346
21
-35.0553
0
LINE
8
Black
10
33.346
20
-35.0553
11
33.3438
21
-35.0515
0
LINE
8
Black
10
33.3438
20
-35.0515
11
33.3431
21
-35.0472
0
LINE
8
Black
10
33.3431
20
-35.0472
11
33.3416
21
-35.0431
0
LINE
8
Black
10
33.3416
20
-35.0431
11
33.3416
21
-35.0387
0
LINE
8
Black
10
33.3416
20
-35.0387
11
33.3408
21
-35.0344
0
LINE
8
Black
10
33.3408
20
-35.0344
11
33.3408
21
-22.3031
0
LINE
8
Black
10
33.3408
20
-22.3031
11
33.3415
21
-22.2989
0
LINE
8
Black
10
33.3415
20
-22.2989
11
33.3415
21
-22.2946
0
LINE
8
Black
10
33.3415
20
-22.2946
11
33.343
21
-22.2904
0
LINE
8
Black
10
33.343
20
-22.2904
11
33.3438
21
-22.286
0
LINE
8
Black
10
33.3438
20
-22.286
11
33.346
21
-22.2823
0
LINE
8
Black
10
33.346
20
-22.2823
11
33.3474
21
-22.2782
0
LINE
8
Black
10
33.3474
20
-22.2782
11
33.3503
21
-22.2748
0
LINE
8
Black
10
33.3503
20
-22.2748
11
33.3525
21
-22.2709
0
LINE
8
Black
10
33.3525
20
-22.2709
11
33.3558
21
-22.2682
0
LINE
8
Black
10
33.3558
20
-22.2682
11
33.3585
21
-22.2649
0
LINE
8
Black
10
33.3585
20
-22.2649
11
33.3624
21
-22.2626
0
LINE
8
Black
10
33.3624
20
-22.2626
11
33.3658
21
-22.2598
0
LINE
8
Black
10
33.3658
20
-22.2598
11
33.3698
21
-22.2583
0
LINE
8
Black
10
33.3698
20
-22.2583
11
33.3735
21
-22.2562
0
LINE
8
Black
10
33.3735
20
-22.2562
11
33.3779
21
-22.2554
0
LINE
8
Black
10
33.3779
20
-22.2554
11
33.3821
21
-22.2538
0
LINE
8
Black
10
33.3821
20
-22.2538
11
33.3864
21
-22.2538
0
LINE
8
Black
10
33.3864
20
-22.2538
11
33.3906
21
-22.2531
0
LINE
8
Black
10
33.3906
20
-22.2531
11
34.4174
21
-22.2492
0
LINE
8
Black
10
34.4174
20
-22.2492
11
35.898
21
-21.8017
0
LINE
8
Black
10
35.898
20
-21.8017
11
37.135
21
-20.8757
0
LINE
8
Black
10
37.135
20
-20.8757
11
37.9808
21
-19.5825
0
LINE
8
Black
10
37.9808
20
-19.5825
11
38.3332
21
-18.078
0
LINE
8
Black
10
38.3332
20
-18.078
11
38.1498
21
-16.5437
0
LINE
8
Black
10
38.1498
20
-16.5437
11
37.4527
21
-15.1647
0
LINE
8
Black
10
37.4527
20
-15.1647
11
36.3195
21
-14.1012
0
LINE
8
Black
10
36.3195
20
-14.1012
11
36.1929
21
-13.9824
0
LINE
8
Black
10
36.1929
20
-13.9824
11
36.1825
21
-13.9685
0
LINE
8
Black
10
36.1825
20
-13.9685
11
36.1042
21
-13.8135
0
LINE
8
Black
10
36.1042
20
-13.8135
11
36.1019
21
-13.806
0
LINE
8
Black
10
36.1019
20
-13.806
11
36.0994
21
-13.7986
0
LINE
8
Black
10
36.0994
20
-13.7986
11
36.078
21
-13.66
0
LINE
8
Black
10
36.078
20
-13.66
11
36.078
21
-13.6598
0
LINE
8
Black
10
36.078
20
-13.6598
11
36.078
21
-13.6596
0
LINE
8
Black
10
36.078
20
-13.6596
11
36.0782
21
-13.6512
0
LINE
8
Black
10
36.0782
20
-13.6512
11
36.0784
21
-13.6427
0
LINE
8
Black
10
36.0784
20
-13.6427
11
36.0785
21
-13.6425
0
LINE
8
Black
10
36.0785
20
-13.6425
11
36.0785
21
-13.6423
0
LINE
8
Black
10
36.0785
20
-13.6423
11
36.0816
21
-13.6344
0
LINE
8
Black
10
36.0816
20
-13.6344
11
36.0847
21
-13.6265
0
LINE
8
Black
10
36.0847
20
-13.6265
11
36.0848
21
-13.6263
0
LINE
8
Black
10
36.0848
20
-13.6263
11
36.0849
21
-13.6261
0
LINE
8
Black
10
36.0849
20
-13.6261
11
36.0906
21
-13.6197
0
LINE
8
Black
10
36.0906
20
-13.6197
11
36.0961
21
-13.6134
0
LINE
8
Black
10
36.0961
20
-13.6134
11
36.0963
21
-13.6133
0
LINE
8
Black
10
36.0963
20
-13.6133
11
36.0964
21
-13.6132
0
LINE
8
Black
10
36.0964
20
-13.6132
11
36.104
21
-13.6091
0
LINE
8
Black
10
36.104
20
-13.6091
11
36.1114
21
-13.6051
0
LINE
8
Black
10
36.1114
20
-13.6051
11
36.1116
21
-13.605
0
LINE
8
Black
10
36.1116
20
-13.605
11
36.1117
21
-13.6049
0
LINE
8
Black
10
36.1117
20
-13.6049
11
58.8995
21
-6.06891
0
LINE
8
Black
10
58.8995
20
-6.06891
11
58.9167
21
-6.0664
0
LINE
8
Black
10
58.9167
20
-6.0664
11
82.9077
21
-6.77873
0
LINE
8
Black
10
36.1833
20
-13.6866
11
36.197
21
-13.7755
0
LINE
8
Black
10
36.197
20
-13.7755
11
36.2678
21
-13.9155
0
LINE
8
Black
10
36.2678
20
-13.9155
11
36.388
21
-14.0283
0
LINE
8
Black
10
36.388
20
-14.0283
11
36.388
21
-14.0283
0
LINE
8
Black
10
36.388
20
-14.0283
11
37.5275
21
-15.0978
0
LINE
8
Black
10
37.5275
20
-15.0978
11
37.5275
21
-15.0978
0
LINE
8
Black
10
37.5275
20
-15.0978
11
37.5379
21
-15.1117
0
LINE
8
Black
10
37.5379
20
-15.1117
11
38.243
21
-16.5065
0
LINE
8
Black
10
38.243
20
-16.5065
11
38.248
21
-16.5231
0
LINE
8
Black
10
38.248
20
-16.5231
11
38.4335
21
-18.0749
0
LINE
8
Black
10
38.4335
20
-18.0749
11
38.4325
21
-18.0922
0
LINE
8
Black
10
38.4325
20
-18.0922
11
38.4325
21
-18.0922
0
LINE
8
Black
10
38.4325
20
-18.0922
11
38.0761
21
-19.6139
0
LINE
8
Black
10
38.0761
20
-19.6139
11
38.0761
21
-19.6139
0
LINE
8
Black
10
38.0761
20
-19.6139
11
38.0727
21
-19.6218
0
LINE
8
Black
10
38.0727
20
-19.6218
11
38.0693
21
-19.6298
0
LINE
8
Black
10
38.0693
20
-19.6298
11
38.0693
21
-19.6298
0
LINE
8
Black
10
38.0693
20
-19.6298
11
37.2139
21
-20.9378
0
LINE
8
Black
10
37.2139
20
-20.9378
11
37.202
21
-20.9505
0
LINE
8
Black
10
37.202
20
-20.9505
11
35.9509
21
-21.887
0
LINE
8
Black
10
35.9509
20
-21.887
11
35.9354
21
-21.8948
0
LINE
8
Black
10
35.9354
20
-21.8948
11
34.4394
21
-22.347
0
LINE
8
Black
10
34.4394
20
-22.347
11
34.4322
21
-22.3478
0
LINE
8
Black
10
34.4322
20
-22.3478
11
34.4251
21
-22.3491
0
LINE
8
Black
10
34.4251
20
-22.3491
11
33.4408
21
-22.3529
0
LINE
8
Black
10
33.4408
20
-22.3529
11
33.4408
21
-34.9844
0
LINE
8
Black
10
33.4408
20
-34.9844
11
104.341
21
-34.9844
0
LINE
8
Black
10
104.341
20
-34.9844
11
104.341
21
-22.35
0
LINE
8
Black
10
104.341
20
-22.35
11
102.828
21
-22.2543
0
LINE
8
Black
10
102.828
20
-22.2543
11
102.811
21
-22.2502
0
LINE
8
Black
10
102.811
20
-22.2502
11
101.379
21
-21.624
0
LINE
8
Black
10
101.379
20
-21.624
11
101.365
21
-21.6144
0
LINE
8
Black
10
101.365
20
-21.6144
11
101.365
21
-21.6144
0
LINE
8
Black
10
101.365
20
-21.6144
11
100.233
21
-20.5362
0
LINE
8
Black
10
100.233
20
-20.5362
11
100.233
21
-20.5362
0
LINE
8
Black
10
100.233
20
-20.5362
11
100.223
21
-20.5222
0
LINE
8
Black
10
100.223
20
-20.5222
11
99.5286
21
-19.1221
0
LINE
8
Black
10
99.5286
20
-19.1221
11
99.5237
21
-19.1055
0
LINE
8
Black
10
99.5237
20
-19.1055
11
99.5237
21
-19.1055
0
LINE
8
Black
10
99.5237
20
-19.1055
11
99.3501
21
-17.5523
0
LINE
8
Black
10
99.3501
20
-17.5523
11
99.3501
21
-17.5523
0
LINE
8
Black
10
99.3501
20
-17.5523
11
99.3512
21
-17.535
0
LINE
8
Black
10
99.3512
20
-17.535
11
99.7192
21
-16.0161
0
LINE
8
Black
10
99.7192
20
-16.0161
11
99.7262
21
-16.0002
0
LINE
8
Black
10
99.7262
20
-16.0002
11
99.7262
21
-16.0002
0
LINE
8
Black
10
99.7262
20
-16.0002
11
100.592
21
-14.6988
0
LINE
8
Black
10
100.592
20
-14.6988
11
100.596
21
-14.6936
0
LINE
8
Black
10
100.596
20
-14.6936
11
100.601
21
-14.688
0
LINE
8
Black
10
100.601
20
-14.688
11
101.395
21
-14.0268
0
LINE
8
Black
10
101.395
20
-14.0268
11
101.494
21
-13.94
0
LINE
8
Black
10
101.494
20
-13.94
11
101.574
21
-13.8051
0
LINE
8
Black
10
101.574
20
-13.8051
11
101.597
21
-13.6849
0
LINE
8
Black
10
101.597
20
-13.6849
11
82.8967
21
-6.87845
0
LINE
8
Black
10
82.8967
20
-6.87845
11
58.9225
21
-6.16662
0
LINE
8
Black
10
58.9225
20
-6.16662
11
36.1833
21
-13.6866
0
LINE
8
Black
10
92.0782
20
-23.4881
11
91.6658
21
-23.8341
0
LINE
8
Black
10
91.6658
20
-23.8341
11
91.16
21
-24.0182
0
LINE
8
Black
10
91.16
20
-24.0182
11
90.6216
21
-24.0182
0
LINE
8
Black
10
90.6216
20
-24.0182
11
90.1158
21
-23.8341
0
LINE
8
Black
10
90.1158
20
-23.8341
11
89.7034
21
-23.4881
0
LINE
8
Black
10
89.7034
20
-23.4881
11
89.4343
21
-23.0219
0
LINE
8
Black
10
89.4343
20
-23.0219
11
89.3408
21
-22.4918
0
LINE
8
Black
10
89.3408
20
-22.4918
11
89.4343
21
-21.9616
0
LINE
8
Black
10
89.4343
20
-21.9616
11
89.7034
21
-21.4954
0
LINE
8
Black
10
89.7034
20
-21.4954
11
90.1158
21
-21.1494
0
LINE
8
Black
10
90.1158
20
-21.1494
11
90.6216
21
-20.9653
0
LINE
8
Black
10
90.6216
20
-20.9653
11
91.16
21
-20.9653
0
LINE
8
Black
10
91.16
20
-20.9653
11
91.6658
21
-21.1494
0
LINE
8
Black
10
91.6658
20
-21.1494
11
92.0782
21
-21.4954
0
LINE
8
Black
10
92.0782
20
-21.4954
11
92.3473
21
-21.9616
0
LINE
8
Black
10
92.3473
20
-21.9616
11
92.4408
21
-22.4918
0
LINE
8
Black
10
92.4408
20
-22.4918
11
92.3473
21
-23.0219
0
LINE
8
Black
10
92.3473
20
-23.0219
11
92.0782
21
-23.4881
0
LINE
8
Black
10
92.0016
20
-21.5597
11
91.6158
21
-21.236
0
LINE
8
Black
10
91.6158
20
-21.236
11
91.1426
21
-21.0638
0
LINE
8
Black
10
91.1426
20
-21.0638
11
90.639
21
-21.0638
0
LINE
8
Black
10
90.639
20
-21.0638
11
90.1658
21
-21.236
0
LINE
8
Black
10
90.1658
20
-21.236
11
89.78
21
-21.5597
0
LINE
8
Black
10
89.78
20
-21.5597
11
89.5282
21
-21.9958
0
LINE
8
Black
10
89.5282
20
-21.9958
11
89.4408
21
-22.4918
0
LINE
8
Black
10
89.4408
20
-22.4918
11
89.5282
21
-22.9877
0
LINE
8
Black
10
89.5282
20
-22.9877
11
89.78
21
-23.4238
0
LINE
8
Black
10
89.78
20
-23.4238
11
90.1658
21
-23.7475
0
LINE
8
Black
10
90.1658
20
-23.7475
11
90.639
21
-23.9197
0
LINE
8
Black
10
90.639
20
-23.9197
11
91.1426
21
-23.9197
0
LINE
8
Black
10
91.1426
20
-23.9197
11
91.6158
21
-23.7475
0
LINE
8
Black
10
91.6158
20
-23.7475
11
92.0016
21
-23.4238
0
LINE
8
Black
10
92.0016
20
-23.4238
11
92.2534
21
-22.9877
0
LINE
8
Black
10
92.2534
20
-22.9877
11
92.3408
21
-22.4918
0
LINE
8
Black
10
92.3408
20
-22.4918
11
92.2534
21
-21.9958
0
LINE
8
Black
10
92.2534
20
-21.9958
11
92.0016
21
-21.5597
0
LINE
8
Black
10
48.0782
20
-23.4881
11
47.6658
21
-23.8341
0
LINE
8
Black
10
47.6658
20
-23.8341
11
47.16
21
-24.0182
0
LINE
8
Black
10
47.16
20
-24.0182
11
46.6216
21
-24.0182
0
LINE
8
Black
10
46.6216
20
-24.0182
11
46.1158
21
-23.8341
0
LINE
8
Black
10
46.1158
20
-23.8341
11
45.7034
21
-23.4881
0
LINE
8
Black
10
45.7034
20
-23.4881
11
45.4343
21
-23.0219
0
LINE
8
Black
10
45.4343
20
-23.0219
11
45.3408
21
-22.4918
0
LINE
8
Black
10
45.3408
20
-22.4918
11
45.4343
21
-21.9616
0
LINE
8
Black
10
45.4343
20
-21.9616
11
45.7034
21
-21.4954
0
LINE
8
Black
10
45.7034
20
-21.4954
11
46.1158
21
-21.1494
0
LINE
8
Black
10
46.1158
20
-21.1494
11
46.6216
21
-20.9653
0
LINE
8
Black
10
46.6216
20
-20.9653
11
47.16
21
-20.9653
0
LINE
8
Black
10
47.16
20
-20.9653
11
47.6658
21
-21.1494
0
LINE
8
Black
10
47.6658
20
-21.1494
11
48.0782
21
-21.4954
0
LINE
8
Black
10
48.0782
20
-21.4954
11
48.3473
21
-21.9616
0
LINE
8
Black
10
48.3473
20
-21.9616
11
48.4408
21
-22.4918
0
LINE
8
Black
10
48.4408
20
-22.4918
11
48.3473
21
-23.0219
0
LINE
8
Black
10
48.3473
20
-23.0219
11
48.0782
21
-23.4881
0
LINE
8
Black
10
48.0016
20
-21.5597
11
47.6158
21
-21.236
0
LINE
8
Black
10
47.6158
20
-21.236
11
47.1426
21
-21.0638
0
LINE
8
Black
10
47.1426
20
-21.0638
11
46.639
21
-21.0638
0
LINE
8
Black
10
46.639
20
-21.0638
11
46.1658
21
-21.236
0
LINE
8
Black
10
46.1658
20
-21.236
11
45.78
21
-21.5597
0
LINE
8
Black
10
45.78
20
-21.5597
11
45.5282
21
-21.9958
0
LINE
8
Black
10
45.5282
20
-21.9958
11
45.4408
21
-22.4918
0
LINE
8
Black
10
45.4408
20
-22.4918
11
45.5282
21
-22.9877
0
LINE
8
Black
10
45.5282
20
-22.9877
11
45.78
21
-23.4238
0
LINE
8
Black
10
45.78
20
-23.4238
11
46.1658
21
-23.7475
0
LINE
8
Black
10
46.1658
20
-23.7475
11
46.639
21
-23.9197
0
LINE
8
Black
10
46.639
20
-23.9197
11
47.1426
21
-23.9197
0
LINE
8
Black
10
47.1426
20
-23.9197
11
47.6158
21
-23.7475
0
LINE
8
Black
10
47.6158
20
-23.7475
11
48.0016
21
-23.4238
0
LINE
8
Black
10
48.0016
20
-23.4238
11
48.2534
21
-22.9877
0
LINE
8
Black
10
48.2534
20
-22.9877
11
48.3408
21
-22.4918
0
LINE
8
Black
10
48.3408
20
-22.4918
11
48.2534
21
-21.9958
0
LINE
8
Black
10
48.2534
20
-21.9958
11
48.0016
21
-21.5597
  0
ENDSEC
  0
EOF
