G04 #@! TF.FileFunction,Soldermask,Bot*
%FSLAX46Y46*%
G04 Gerber Fmt 4.6, Leading zero omitted, Abs format (unit mm)*
G04 Created by KiCad (PCBNEW 4.0.5+dfsg1-4~bpo8+1) date Wed Apr 18 10:30:05 2018*
%MOMM*%
%LPD*%
G01*
G04 APERTURE LIST*
%ADD10C,0.100000*%
%ADD11R,1.850000X0.850000*%
%ADD12O,1.200000X2.200000*%
%ADD13R,1.350000X1.650000*%
%ADD14O,1.350000X1.650000*%
%ADD15R,1.000000X0.900000*%
%ADD16R,0.800000X1.000000*%
%ADD17R,2.000000X2.400000*%
%ADD18R,0.650000X1.100000*%
%ADD19R,1.100000X0.650000*%
%ADD20R,2.125000X2.125000*%
%ADD21R,1.400000X2.200000*%
%ADD22R,2.432000X2.127200*%
%ADD23O,2.432000X2.127200*%
%ADD24R,2.650000X1.500000*%
%ADD25R,1.500000X1.450000*%
%ADD26R,1.000000X0.800000*%
%ADD27R,2.400000X1.400000*%
G04 APERTURE END LIST*
D10*
D11*
X153250000Y-116775000D03*
X153250000Y-116125000D03*
X153250000Y-115475000D03*
X153250000Y-114825000D03*
X159150000Y-114825000D03*
X159150000Y-115475000D03*
X159150000Y-116125000D03*
X159150000Y-116775000D03*
D12*
X140680000Y-116350000D03*
X141780000Y-116350000D03*
X142880000Y-116350000D03*
X143980000Y-116350000D03*
X145080000Y-116350000D03*
X146180000Y-116350000D03*
X147280000Y-116350000D03*
X148380000Y-116350000D03*
X149480000Y-116350000D03*
X149480000Y-126050000D03*
X148380000Y-126050000D03*
X147280000Y-126050000D03*
X146180000Y-126050000D03*
X145080000Y-126050000D03*
X143980000Y-126050000D03*
X142880000Y-126050000D03*
X141780000Y-126050000D03*
X140680000Y-126050000D03*
D13*
X122630000Y-122770000D03*
D14*
X123880000Y-122770000D03*
D15*
X165550000Y-111800000D03*
X166650000Y-111800000D03*
X162850000Y-122500000D03*
X161750000Y-122500000D03*
X170950000Y-115900000D03*
X172050000Y-115900000D03*
X170950000Y-114500000D03*
X172050000Y-114500000D03*
X168350000Y-114500000D03*
X169450000Y-114500000D03*
X168350000Y-115900000D03*
X169450000Y-115900000D03*
X168750000Y-108900000D03*
X167650000Y-108900000D03*
X171350000Y-108900000D03*
X170250000Y-108900000D03*
X152950000Y-111500000D03*
X151850000Y-111500000D03*
X159450000Y-111500000D03*
X158350000Y-111500000D03*
X159450000Y-110000000D03*
X158350000Y-110000000D03*
X152950000Y-110000000D03*
X151850000Y-110000000D03*
D16*
X160150000Y-122600000D03*
X159250000Y-122600000D03*
X159650000Y-113200000D03*
X158750000Y-113200000D03*
X152150000Y-113100000D03*
X153050000Y-113100000D03*
D17*
X184100000Y-118700000D03*
X184100000Y-124100000D03*
D18*
X165750000Y-120900000D03*
X165250000Y-120900000D03*
X164750000Y-120900000D03*
X164250000Y-120900000D03*
X163750000Y-120900000D03*
X163250000Y-120900000D03*
X162750000Y-120900000D03*
X162250000Y-120900000D03*
D19*
X161600000Y-120250000D03*
X161600000Y-119750000D03*
X161600000Y-119250000D03*
X161600000Y-118750000D03*
X161600000Y-118250000D03*
X161600000Y-117750000D03*
X161600000Y-117250000D03*
X161600000Y-116750000D03*
D18*
X162250000Y-116100000D03*
X162750000Y-116100000D03*
X163250000Y-116100000D03*
X163750000Y-116100000D03*
X164250000Y-116100000D03*
X164750000Y-116100000D03*
X165250000Y-116100000D03*
X165750000Y-116100000D03*
D19*
X166400000Y-116750000D03*
X166400000Y-117250000D03*
X166400000Y-117750000D03*
X166400000Y-118250000D03*
X166400000Y-118750000D03*
X166400000Y-119250000D03*
X166400000Y-119750000D03*
X166400000Y-120250000D03*
D20*
X163137500Y-117637500D03*
X164862500Y-117637500D03*
X163137500Y-119362500D03*
X164862500Y-119362500D03*
D19*
X154900000Y-112900000D03*
X154900000Y-112500000D03*
X154900000Y-112100000D03*
X154900000Y-111700000D03*
X154900000Y-111300000D03*
X156500000Y-111300000D03*
X156500000Y-111700000D03*
X156500000Y-112100000D03*
X156500000Y-112500000D03*
X156500000Y-112900000D03*
D21*
X170950000Y-111200000D03*
X168450000Y-111200000D03*
D22*
X188520000Y-118040000D03*
D23*
X188520000Y-120580000D03*
X188520000Y-123120000D03*
X188520000Y-125660000D03*
D15*
X165550000Y-110400000D03*
X166650000Y-110400000D03*
X168350000Y-117300000D03*
X169450000Y-117300000D03*
D24*
X133850000Y-109905000D03*
X133850000Y-112855000D03*
D25*
X135400000Y-111380000D03*
D15*
X142890000Y-112700000D03*
X141790000Y-112700000D03*
D26*
X145100000Y-113900000D03*
X145100000Y-114800000D03*
X141780000Y-113890000D03*
X141780000Y-114790000D03*
D27*
X141850000Y-109000000D03*
X141850000Y-103000000D03*
D16*
X138540000Y-111450000D03*
X139440000Y-111450000D03*
D26*
X141790000Y-110580000D03*
X141790000Y-111480000D03*
M02*
