G04 #@! TF.FileFunction,Soldermask,Top*
%FSLAX46Y46*%
G04 Gerber Fmt 4.6, Leading zero omitted, Abs format (unit mm)*
G04 Created by KiCad (PCBNEW 4.0.5+dfsg1-4~bpo8+1) date Wed Apr 18 10:30:05 2018*
%MOMM*%
%LPD*%
G01*
G04 APERTURE LIST*
%ADD10C,0.100000*%
%ADD11R,3.400000X1.700000*%
%ADD12R,1.350000X1.650000*%
%ADD13O,1.350000X1.650000*%
%ADD14R,0.900000X1.000000*%
%ADD15R,1.000000X0.900000*%
%ADD16R,1.197560X1.197560*%
%ADD17R,1.100000X1.700000*%
%ADD18R,0.910000X0.800000*%
%ADD19R,0.800000X1.000000*%
%ADD20R,2.432000X2.127200*%
%ADD21O,2.432000X2.127200*%
%ADD22O,0.900000X0.650000*%
%ADD23R,1.300000X2.400000*%
%ADD24R,0.800000X0.910000*%
%ADD25R,1.500000X2.650000*%
%ADD26R,1.450000X1.500000*%
G04 APERTURE END LIST*
D10*
D11*
X171310000Y-108060000D03*
X171310000Y-110060000D03*
X171310000Y-112060000D03*
X171310000Y-114060000D03*
X171310000Y-116060000D03*
X171310000Y-118060000D03*
X171310000Y-120060000D03*
X171310000Y-122060000D03*
X155310000Y-122060000D03*
X155310000Y-120060000D03*
X155310000Y-118060000D03*
X155310000Y-116060000D03*
X155310000Y-114060000D03*
X155310000Y-112060000D03*
X155310000Y-110060000D03*
X155310000Y-108060000D03*
D12*
X122630000Y-122770000D03*
D13*
X123880000Y-122770000D03*
D14*
X128020000Y-122540000D03*
X128020000Y-121440000D03*
X135670000Y-121940000D03*
X135670000Y-120840000D03*
X150900000Y-119350000D03*
X150900000Y-118250000D03*
X145600000Y-120650000D03*
X145600000Y-121750000D03*
X140100000Y-121950000D03*
X140100000Y-120850000D03*
D15*
X141050000Y-119300000D03*
X139950000Y-119300000D03*
X130070000Y-115530000D03*
X128970000Y-115530000D03*
D16*
X135019300Y-125840000D03*
X133520700Y-125840000D03*
X130420700Y-125840000D03*
X131919300Y-125840000D03*
D17*
X133710000Y-123740000D03*
X135610000Y-123740000D03*
D18*
X147750000Y-121000000D03*
X147750000Y-122000000D03*
X149050000Y-121500000D03*
X147850000Y-118400000D03*
X147850000Y-119400000D03*
X149150000Y-118900000D03*
D19*
X126170000Y-118540000D03*
X127070000Y-118540000D03*
X129870000Y-118540000D03*
X128970000Y-118540000D03*
X137420000Y-125740000D03*
X136520000Y-125740000D03*
X128020000Y-125740000D03*
X128920000Y-125740000D03*
X143350000Y-119300000D03*
X142450000Y-119300000D03*
D20*
X188520000Y-118040000D03*
D21*
X188520000Y-120580000D03*
X188520000Y-123120000D03*
X188520000Y-125660000D03*
D22*
X131820000Y-123590000D03*
X131820000Y-123090000D03*
X131820000Y-122590000D03*
X131820000Y-122090000D03*
X131820000Y-121590000D03*
X131820000Y-121090000D03*
X129920000Y-121090000D03*
X129920000Y-121590000D03*
X129920000Y-122090000D03*
X129920000Y-122590000D03*
X129920000Y-123090000D03*
X129920000Y-123590000D03*
D23*
X130870000Y-122340000D03*
D14*
X150900000Y-122050000D03*
X150900000Y-120950000D03*
D24*
X143100000Y-120750000D03*
X142100000Y-120750000D03*
X142600000Y-122050000D03*
D25*
X154325000Y-102900000D03*
X157275000Y-102900000D03*
D26*
X155800000Y-104450000D03*
D19*
X145650000Y-119300000D03*
X144750000Y-119300000D03*
M02*
