G04 #@! TF.FileFunction,Soldermask,Top*
%FSLAX46Y46*%
G04 Gerber Fmt 4.6, Leading zero omitted, Abs format (unit mm)*
G04 Created by KiCad (PCBNEW 4.0.5+dfsg1-4~bpo8+1) date Wed Feb  7 22:28:11 2018*
%MOMM*%
%LPD*%
G01*
G04 APERTURE LIST*
%ADD10C,0.100000*%
%ADD11R,3.400000X1.700000*%
%ADD12R,1.000000X0.800000*%
%ADD13R,1.350000X1.650000*%
%ADD14O,1.350000X1.650000*%
%ADD15R,0.900000X1.000000*%
%ADD16R,1.000000X0.900000*%
%ADD17R,1.197560X1.197560*%
%ADD18R,1.100000X1.700000*%
%ADD19R,0.800000X0.910000*%
%ADD20R,0.800000X1.000000*%
%ADD21R,2.000000X2.400000*%
%ADD22R,2.432000X2.127200*%
%ADD23O,2.432000X2.127200*%
%ADD24O,0.900000X0.650000*%
%ADD25R,1.300000X2.400000*%
%ADD26R,1.500000X2.650000*%
%ADD27R,1.450000X1.500000*%
G04 APERTURE END LIST*
D10*
D11*
X171640000Y-112480000D03*
X171640000Y-114480000D03*
X171640000Y-116480000D03*
X171640000Y-118480000D03*
X171640000Y-120480000D03*
X171640000Y-122480000D03*
X171640000Y-124480000D03*
X171640000Y-126480000D03*
X155640000Y-126480000D03*
X155640000Y-124480000D03*
X155640000Y-122480000D03*
X155640000Y-120480000D03*
X155640000Y-118480000D03*
X155640000Y-116480000D03*
X155640000Y-114480000D03*
X155640000Y-112480000D03*
D12*
X150480000Y-121030000D03*
X150480000Y-120130000D03*
D13*
X122630000Y-122770000D03*
D14*
X123880000Y-122770000D03*
D15*
X128040000Y-122330000D03*
X128040000Y-123430000D03*
X135660000Y-121650000D03*
X135660000Y-122750000D03*
X174370000Y-111090000D03*
X174370000Y-112190000D03*
X151020000Y-111140000D03*
X151020000Y-112240000D03*
X151910000Y-121340000D03*
X151910000Y-120240000D03*
D16*
X152150000Y-118520000D03*
X151050000Y-118520000D03*
D15*
X144030000Y-121340000D03*
X144030000Y-120240000D03*
D16*
X144620000Y-118530000D03*
X143520000Y-118530000D03*
X128970000Y-115540000D03*
X130070000Y-115540000D03*
D17*
X135019300Y-126640000D03*
X133520700Y-126640000D03*
X130420700Y-126640000D03*
X131919300Y-126640000D03*
D18*
X133710000Y-124540000D03*
X135610000Y-124540000D03*
D19*
X149020000Y-120170000D03*
X148020000Y-120170000D03*
X148520000Y-121470000D03*
X146520000Y-120190000D03*
X145520000Y-120190000D03*
X146020000Y-121490000D03*
D20*
X126170000Y-118540000D03*
X127070000Y-118540000D03*
X128970000Y-118540000D03*
X129870000Y-118540000D03*
X137420000Y-126540000D03*
X136520000Y-126540000D03*
X128020000Y-126540000D03*
X128920000Y-126540000D03*
D12*
X152770000Y-111940000D03*
X152770000Y-111040000D03*
D20*
X146770000Y-118570000D03*
X145870000Y-118570000D03*
D21*
X183300000Y-111700000D03*
X183300000Y-117100000D03*
D22*
X188440000Y-125430000D03*
D23*
X188440000Y-122890000D03*
X188440000Y-120350000D03*
X188440000Y-117810000D03*
D24*
X131820000Y-124390000D03*
X131820000Y-123890000D03*
X131820000Y-123390000D03*
X131820000Y-122890000D03*
X131820000Y-122390000D03*
X131820000Y-121890000D03*
X129920000Y-121890000D03*
X129920000Y-122390000D03*
X129920000Y-122890000D03*
X129920000Y-123390000D03*
X129920000Y-123890000D03*
X129920000Y-124390000D03*
D25*
X130870000Y-123140000D03*
D26*
X153535000Y-106310000D03*
X156485000Y-106310000D03*
D27*
X155010000Y-107860000D03*
D15*
X133650000Y-122770000D03*
X133650000Y-121670000D03*
D16*
X148020000Y-118520000D03*
X149120000Y-118520000D03*
M02*
