G04 #@! TF.FileFunction,Legend,Top*
%FSLAX46Y46*%
G04 Gerber Fmt 4.6, Leading zero omitted, Abs format (unit mm)*
G04 Created by KiCad (PCBNEW 4.0.5+dfsg1-4~bpo8+1) date Wed Feb  7 22:28:11 2018*
%MOMM*%
%LPD*%
G01*
G04 APERTURE LIST*
%ADD10C,0.100000*%
%ADD11C,0.200000*%
%ADD12C,0.150000*%
%ADD13C,0.127000*%
%ADD14C,0.050000*%
G04 APERTURE END LIST*
D10*
D11*
X156440000Y-110330000D02*
X155790000Y-110330000D01*
X155790000Y-110330000D02*
X155790000Y-109680000D01*
X155790000Y-109680000D02*
X156440000Y-109680000D01*
X156440000Y-109680000D02*
X156440000Y-110180000D01*
X156440000Y-110180000D02*
X155940000Y-110180000D01*
X155940000Y-110180000D02*
X155940000Y-109780000D01*
X155940000Y-109780000D02*
X156290000Y-109780000D01*
X156290000Y-109780000D02*
X156290000Y-110030000D01*
X156290000Y-110030000D02*
X156040000Y-110030000D01*
X156040000Y-110030000D02*
X156040000Y-109880000D01*
X156040000Y-109880000D02*
X156190000Y-109880000D01*
X155640000Y-110480000D02*
X155640000Y-109530000D01*
X155640000Y-109530000D02*
X156590000Y-109530000D01*
X156590000Y-109530000D02*
X156590000Y-110430000D01*
X171640000Y-110480000D02*
X171640000Y-111580000D01*
X155640000Y-110480000D02*
X155640000Y-111580000D01*
X155640000Y-110480000D02*
X171640000Y-110480000D01*
X171640000Y-127480000D02*
X155640000Y-127480000D01*
D12*
X149955000Y-120330000D02*
X149955000Y-120830000D01*
X151005000Y-120830000D02*
X151005000Y-120330000D01*
X128515000Y-123130000D02*
X128515000Y-122630000D01*
X127565000Y-122630000D02*
X127565000Y-123130000D01*
X136135000Y-122450000D02*
X136135000Y-121950000D01*
X135185000Y-121950000D02*
X135185000Y-122450000D01*
X174845000Y-111890000D02*
X174845000Y-111390000D01*
X173895000Y-111390000D02*
X173895000Y-111890000D01*
X151495000Y-111940000D02*
X151495000Y-111440000D01*
X150545000Y-111440000D02*
X150545000Y-111940000D01*
X151435000Y-120540000D02*
X151435000Y-121040000D01*
X152385000Y-121040000D02*
X152385000Y-120540000D01*
X151350000Y-118995000D02*
X151850000Y-118995000D01*
X151850000Y-118045000D02*
X151350000Y-118045000D01*
X143555000Y-120540000D02*
X143555000Y-121040000D01*
X144505000Y-121040000D02*
X144505000Y-120540000D01*
X143820000Y-119005000D02*
X144320000Y-119005000D01*
X144320000Y-118055000D02*
X143820000Y-118055000D01*
X129770000Y-115065000D02*
X129270000Y-115065000D01*
X129270000Y-116015000D02*
X129770000Y-116015000D01*
X133170000Y-127190000D02*
X135070000Y-127190000D01*
X133170000Y-126090000D02*
X135070000Y-126090000D01*
X134070000Y-126640000D02*
X134520000Y-126640000D01*
X134020000Y-126390000D02*
X134020000Y-126890000D01*
X134020000Y-126640000D02*
X134270000Y-126390000D01*
X134270000Y-126390000D02*
X134270000Y-126890000D01*
X134270000Y-126890000D02*
X134020000Y-126640000D01*
X132270000Y-126090000D02*
X130370000Y-126090000D01*
X132270000Y-127190000D02*
X130370000Y-127190000D01*
X131370000Y-126640000D02*
X130920000Y-126640000D01*
X131420000Y-126890000D02*
X131420000Y-126390000D01*
X131420000Y-126640000D02*
X131170000Y-126890000D01*
X131170000Y-126890000D02*
X131170000Y-126390000D01*
X131170000Y-126390000D02*
X131420000Y-126640000D01*
X135260000Y-125415000D02*
X134060000Y-125415000D01*
X134060000Y-123665000D02*
X135260000Y-123665000D01*
X149420000Y-120620000D02*
X147620000Y-120620000D01*
X147620000Y-120620000D02*
X147620000Y-121020000D01*
X147620000Y-121020000D02*
X149420000Y-121020000D01*
X149420000Y-121020000D02*
X149420000Y-120620000D01*
X146920000Y-120640000D02*
X145120000Y-120640000D01*
X145120000Y-120640000D02*
X145120000Y-121040000D01*
X145120000Y-121040000D02*
X146920000Y-121040000D01*
X146920000Y-121040000D02*
X146920000Y-120640000D01*
X126870000Y-118015000D02*
X126370000Y-118015000D01*
X126370000Y-119065000D02*
X126870000Y-119065000D01*
X129670000Y-118015000D02*
X129170000Y-118015000D01*
X129170000Y-119065000D02*
X129670000Y-119065000D01*
X136720000Y-127065000D02*
X137220000Y-127065000D01*
X137220000Y-126015000D02*
X136720000Y-126015000D01*
X128720000Y-126015000D02*
X128220000Y-126015000D01*
X128220000Y-127065000D02*
X128720000Y-127065000D01*
X152245000Y-111240000D02*
X152245000Y-111740000D01*
X153295000Y-111740000D02*
X153295000Y-111240000D01*
X146070000Y-119095000D02*
X146570000Y-119095000D01*
X146570000Y-118045000D02*
X146070000Y-118045000D01*
X182600000Y-115800000D02*
X182600000Y-113000000D01*
X182600000Y-113000000D02*
X184000000Y-113000000D01*
X184000000Y-113000000D02*
X184000000Y-115800000D01*
X184000000Y-115800000D02*
X182600000Y-115800000D01*
X181550000Y-111400000D02*
X182200000Y-111400000D01*
X185050000Y-111400000D02*
X184400000Y-111400000D01*
X184400000Y-117400000D02*
X185050000Y-117400000D01*
X181550000Y-117400000D02*
X182200000Y-117400000D01*
X181550000Y-111400000D02*
X181550000Y-117400000D01*
X185050000Y-117400000D02*
X185050000Y-111400000D01*
X189710000Y-124160000D02*
X189710000Y-116540000D01*
X187170000Y-124160000D02*
X187170000Y-116540000D01*
X186890000Y-126980000D02*
X186890000Y-125430000D01*
X189710000Y-116540000D02*
X187170000Y-116540000D01*
X187170000Y-124160000D02*
X189710000Y-124160000D01*
X189990000Y-125430000D02*
X189990000Y-126980000D01*
X189990000Y-126980000D02*
X186890000Y-126980000D01*
D10*
X131870000Y-124740000D02*
X131870000Y-124840000D01*
X131870000Y-124840000D02*
X131570000Y-124840000D01*
X131570000Y-124840000D02*
X131570000Y-124740000D01*
X131870000Y-124640000D02*
X131870000Y-124740000D01*
X131870000Y-124740000D02*
X131570000Y-124740000D01*
X131570000Y-124740000D02*
X131570000Y-124640000D01*
X131870000Y-121640000D02*
X129870000Y-121640000D01*
X131870000Y-124640000D02*
X129870000Y-124640000D01*
D13*
X156310000Y-105010000D02*
X153710000Y-105010000D01*
D12*
X133175000Y-121970000D02*
X133175000Y-122470000D01*
X134125000Y-122470000D02*
X134125000Y-121970000D01*
X148820000Y-118045000D02*
X148320000Y-118045000D01*
X148320000Y-118995000D02*
X148820000Y-118995000D01*
X164378095Y-109322381D02*
X164378095Y-110131905D01*
X164425714Y-110227143D01*
X164473333Y-110274762D01*
X164568571Y-110322381D01*
X164759048Y-110322381D01*
X164854286Y-110274762D01*
X164901905Y-110227143D01*
X164949524Y-110131905D01*
X164949524Y-109322381D01*
X165854286Y-109655714D02*
X165854286Y-110322381D01*
X165616190Y-109274762D02*
X165378095Y-109989048D01*
X165997143Y-109989048D01*
X152412381Y-120962857D02*
X151936190Y-121296191D01*
X152412381Y-121534286D02*
X151412381Y-121534286D01*
X151412381Y-121153333D01*
X151460000Y-121058095D01*
X151507619Y-121010476D01*
X151602857Y-120962857D01*
X151745714Y-120962857D01*
X151840952Y-121010476D01*
X151888571Y-121058095D01*
X151936190Y-121153333D01*
X151936190Y-121534286D01*
X152412381Y-120010476D02*
X152412381Y-120581905D01*
X152412381Y-120296191D02*
X151412381Y-120296191D01*
X151555238Y-120391429D01*
X151650476Y-120486667D01*
X151698095Y-120581905D01*
X152412381Y-119058095D02*
X152412381Y-119629524D01*
X152412381Y-119343810D02*
X151412381Y-119343810D01*
X151555238Y-119439048D01*
X151650476Y-119534286D01*
X151698095Y-119629524D01*
X129587143Y-123046666D02*
X129634762Y-123094285D01*
X129682381Y-123237142D01*
X129682381Y-123332380D01*
X129634762Y-123475238D01*
X129539524Y-123570476D01*
X129444286Y-123618095D01*
X129253810Y-123665714D01*
X129110952Y-123665714D01*
X128920476Y-123618095D01*
X128825238Y-123570476D01*
X128730000Y-123475238D01*
X128682381Y-123332380D01*
X128682381Y-123237142D01*
X128730000Y-123094285D01*
X128777619Y-123046666D01*
X129682381Y-122570476D02*
X129682381Y-122380000D01*
X129634762Y-122284761D01*
X129587143Y-122237142D01*
X129444286Y-122141904D01*
X129253810Y-122094285D01*
X128872857Y-122094285D01*
X128777619Y-122141904D01*
X128730000Y-122189523D01*
X128682381Y-122284761D01*
X128682381Y-122475238D01*
X128730000Y-122570476D01*
X128777619Y-122618095D01*
X128872857Y-122665714D01*
X129110952Y-122665714D01*
X129206190Y-122618095D01*
X129253810Y-122570476D01*
X129301429Y-122475238D01*
X129301429Y-122284761D01*
X129253810Y-122189523D01*
X129206190Y-122141904D01*
X129110952Y-122094285D01*
X137357143Y-122802857D02*
X137404762Y-122850476D01*
X137452381Y-122993333D01*
X137452381Y-123088571D01*
X137404762Y-123231429D01*
X137309524Y-123326667D01*
X137214286Y-123374286D01*
X137023810Y-123421905D01*
X136880952Y-123421905D01*
X136690476Y-123374286D01*
X136595238Y-123326667D01*
X136500000Y-123231429D01*
X136452381Y-123088571D01*
X136452381Y-122993333D01*
X136500000Y-122850476D01*
X136547619Y-122802857D01*
X137452381Y-121850476D02*
X137452381Y-122421905D01*
X137452381Y-122136191D02*
X136452381Y-122136191D01*
X136595238Y-122231429D01*
X136690476Y-122326667D01*
X136738095Y-122421905D01*
X136452381Y-121231429D02*
X136452381Y-121136190D01*
X136500000Y-121040952D01*
X136547619Y-120993333D01*
X136642857Y-120945714D01*
X136833333Y-120898095D01*
X137071429Y-120898095D01*
X137261905Y-120945714D01*
X137357143Y-120993333D01*
X137404762Y-121040952D01*
X137452381Y-121136190D01*
X137452381Y-121231429D01*
X137404762Y-121326667D01*
X137357143Y-121374286D01*
X137261905Y-121421905D01*
X137071429Y-121469524D01*
X136833333Y-121469524D01*
X136642857Y-121421905D01*
X136547619Y-121374286D01*
X136500000Y-121326667D01*
X136452381Y-121231429D01*
X173457143Y-110257143D02*
X173409524Y-110304762D01*
X173266667Y-110352381D01*
X173171429Y-110352381D01*
X173028571Y-110304762D01*
X172933333Y-110209524D01*
X172885714Y-110114286D01*
X172838095Y-109923810D01*
X172838095Y-109780952D01*
X172885714Y-109590476D01*
X172933333Y-109495238D01*
X173028571Y-109400000D01*
X173171429Y-109352381D01*
X173266667Y-109352381D01*
X173409524Y-109400000D01*
X173457143Y-109447619D01*
X174409524Y-110352381D02*
X173838095Y-110352381D01*
X174123809Y-110352381D02*
X174123809Y-109352381D01*
X174028571Y-109495238D01*
X173933333Y-109590476D01*
X173838095Y-109638095D01*
X175314286Y-109352381D02*
X174838095Y-109352381D01*
X174790476Y-109828571D01*
X174838095Y-109780952D01*
X174933333Y-109733333D01*
X175171429Y-109733333D01*
X175266667Y-109780952D01*
X175314286Y-109828571D01*
X175361905Y-109923810D01*
X175361905Y-110161905D01*
X175314286Y-110257143D01*
X175266667Y-110304762D01*
X175171429Y-110352381D01*
X174933333Y-110352381D01*
X174838095Y-110304762D01*
X174790476Y-110257143D01*
X150037143Y-111572857D02*
X150084762Y-111620476D01*
X150132381Y-111763333D01*
X150132381Y-111858571D01*
X150084762Y-112001429D01*
X149989524Y-112096667D01*
X149894286Y-112144286D01*
X149703810Y-112191905D01*
X149560952Y-112191905D01*
X149370476Y-112144286D01*
X149275238Y-112096667D01*
X149180000Y-112001429D01*
X149132381Y-111858571D01*
X149132381Y-111763333D01*
X149180000Y-111620476D01*
X149227619Y-111572857D01*
X150132381Y-110620476D02*
X150132381Y-111191905D01*
X150132381Y-110906191D02*
X149132381Y-110906191D01*
X149275238Y-111001429D01*
X149370476Y-111096667D01*
X149418095Y-111191905D01*
X149132381Y-110287143D02*
X149132381Y-109620476D01*
X150132381Y-110049048D01*
X153717143Y-121472857D02*
X153764762Y-121520476D01*
X153812381Y-121663333D01*
X153812381Y-121758571D01*
X153764762Y-121901429D01*
X153669524Y-121996667D01*
X153574286Y-122044286D01*
X153383810Y-122091905D01*
X153240952Y-122091905D01*
X153050476Y-122044286D01*
X152955238Y-121996667D01*
X152860000Y-121901429D01*
X152812381Y-121758571D01*
X152812381Y-121663333D01*
X152860000Y-121520476D01*
X152907619Y-121472857D01*
X153812381Y-120520476D02*
X153812381Y-121091905D01*
X153812381Y-120806191D02*
X152812381Y-120806191D01*
X152955238Y-120901429D01*
X153050476Y-120996667D01*
X153098095Y-121091905D01*
X153240952Y-119949048D02*
X153193333Y-120044286D01*
X153145714Y-120091905D01*
X153050476Y-120139524D01*
X153002857Y-120139524D01*
X152907619Y-120091905D01*
X152860000Y-120044286D01*
X152812381Y-119949048D01*
X152812381Y-119758571D01*
X152860000Y-119663333D01*
X152907619Y-119615714D01*
X153002857Y-119568095D01*
X153050476Y-119568095D01*
X153145714Y-119615714D01*
X153193333Y-119663333D01*
X153240952Y-119758571D01*
X153240952Y-119949048D01*
X153288571Y-120044286D01*
X153336190Y-120091905D01*
X153431429Y-120139524D01*
X153621905Y-120139524D01*
X153717143Y-120091905D01*
X153764762Y-120044286D01*
X153812381Y-119949048D01*
X153812381Y-119758571D01*
X153764762Y-119663333D01*
X153717143Y-119615714D01*
X153621905Y-119568095D01*
X153431429Y-119568095D01*
X153336190Y-119615714D01*
X153288571Y-119663333D01*
X153240952Y-119758571D01*
X150917143Y-120207143D02*
X150869524Y-120254762D01*
X150726667Y-120302381D01*
X150631429Y-120302381D01*
X150488571Y-120254762D01*
X150393333Y-120159524D01*
X150345714Y-120064286D01*
X150298095Y-119873810D01*
X150298095Y-119730952D01*
X150345714Y-119540476D01*
X150393333Y-119445238D01*
X150488571Y-119350000D01*
X150631429Y-119302381D01*
X150726667Y-119302381D01*
X150869524Y-119350000D01*
X150917143Y-119397619D01*
X151869524Y-120302381D02*
X151298095Y-120302381D01*
X151583809Y-120302381D02*
X151583809Y-119302381D01*
X151488571Y-119445238D01*
X151393333Y-119540476D01*
X151298095Y-119588095D01*
X152345714Y-120302381D02*
X152536190Y-120302381D01*
X152631429Y-120254762D01*
X152679048Y-120207143D01*
X152774286Y-120064286D01*
X152821905Y-119873810D01*
X152821905Y-119492857D01*
X152774286Y-119397619D01*
X152726667Y-119350000D01*
X152631429Y-119302381D01*
X152440952Y-119302381D01*
X152345714Y-119350000D01*
X152298095Y-119397619D01*
X152250476Y-119492857D01*
X152250476Y-119730952D01*
X152298095Y-119826190D01*
X152345714Y-119873810D01*
X152440952Y-119921429D01*
X152631429Y-119921429D01*
X152726667Y-119873810D01*
X152774286Y-119826190D01*
X152821905Y-119730952D01*
X143267143Y-122757143D02*
X143219524Y-122804762D01*
X143076667Y-122852381D01*
X142981429Y-122852381D01*
X142838571Y-122804762D01*
X142743333Y-122709524D01*
X142695714Y-122614286D01*
X142648095Y-122423810D01*
X142648095Y-122280952D01*
X142695714Y-122090476D01*
X142743333Y-121995238D01*
X142838571Y-121900000D01*
X142981429Y-121852381D01*
X143076667Y-121852381D01*
X143219524Y-121900000D01*
X143267143Y-121947619D01*
X143648095Y-121947619D02*
X143695714Y-121900000D01*
X143790952Y-121852381D01*
X144029048Y-121852381D01*
X144124286Y-121900000D01*
X144171905Y-121947619D01*
X144219524Y-122042857D01*
X144219524Y-122138095D01*
X144171905Y-122280952D01*
X143600476Y-122852381D01*
X144219524Y-122852381D01*
X144838571Y-121852381D02*
X144933810Y-121852381D01*
X145029048Y-121900000D01*
X145076667Y-121947619D01*
X145124286Y-122042857D01*
X145171905Y-122233333D01*
X145171905Y-122471429D01*
X145124286Y-122661905D01*
X145076667Y-122757143D01*
X145029048Y-122804762D01*
X144933810Y-122852381D01*
X144838571Y-122852381D01*
X144743333Y-122804762D01*
X144695714Y-122757143D01*
X144648095Y-122661905D01*
X144600476Y-122471429D01*
X144600476Y-122233333D01*
X144648095Y-122042857D01*
X144695714Y-121947619D01*
X144743333Y-121900000D01*
X144838571Y-121852381D01*
X142757143Y-117457143D02*
X142709524Y-117504762D01*
X142566667Y-117552381D01*
X142471429Y-117552381D01*
X142328571Y-117504762D01*
X142233333Y-117409524D01*
X142185714Y-117314286D01*
X142138095Y-117123810D01*
X142138095Y-116980952D01*
X142185714Y-116790476D01*
X142233333Y-116695238D01*
X142328571Y-116600000D01*
X142471429Y-116552381D01*
X142566667Y-116552381D01*
X142709524Y-116600000D01*
X142757143Y-116647619D01*
X143138095Y-116647619D02*
X143185714Y-116600000D01*
X143280952Y-116552381D01*
X143519048Y-116552381D01*
X143614286Y-116600000D01*
X143661905Y-116647619D01*
X143709524Y-116742857D01*
X143709524Y-116838095D01*
X143661905Y-116980952D01*
X143090476Y-117552381D01*
X143709524Y-117552381D01*
X144661905Y-117552381D02*
X144090476Y-117552381D01*
X144376190Y-117552381D02*
X144376190Y-116552381D01*
X144280952Y-116695238D01*
X144185714Y-116790476D01*
X144090476Y-116838095D01*
X128877143Y-114197143D02*
X128829524Y-114244762D01*
X128686667Y-114292381D01*
X128591429Y-114292381D01*
X128448571Y-114244762D01*
X128353333Y-114149524D01*
X128305714Y-114054286D01*
X128258095Y-113863810D01*
X128258095Y-113720952D01*
X128305714Y-113530476D01*
X128353333Y-113435238D01*
X128448571Y-113340000D01*
X128591429Y-113292381D01*
X128686667Y-113292381D01*
X128829524Y-113340000D01*
X128877143Y-113387619D01*
X129258095Y-113387619D02*
X129305714Y-113340000D01*
X129400952Y-113292381D01*
X129639048Y-113292381D01*
X129734286Y-113340000D01*
X129781905Y-113387619D01*
X129829524Y-113482857D01*
X129829524Y-113578095D01*
X129781905Y-113720952D01*
X129210476Y-114292381D01*
X129829524Y-114292381D01*
X130210476Y-113387619D02*
X130258095Y-113340000D01*
X130353333Y-113292381D01*
X130591429Y-113292381D01*
X130686667Y-113340000D01*
X130734286Y-113387619D01*
X130781905Y-113482857D01*
X130781905Y-113578095D01*
X130734286Y-113720952D01*
X130162857Y-114292381D01*
X130781905Y-114292381D01*
X133531905Y-125592381D02*
X133531905Y-124592381D01*
X133770000Y-124592381D01*
X133912858Y-124640000D01*
X134008096Y-124735238D01*
X134055715Y-124830476D01*
X134103334Y-125020952D01*
X134103334Y-125163810D01*
X134055715Y-125354286D01*
X134008096Y-125449524D01*
X133912858Y-125544762D01*
X133770000Y-125592381D01*
X133531905Y-125592381D01*
X135055715Y-125592381D02*
X134484286Y-125592381D01*
X134770000Y-125592381D02*
X134770000Y-124592381D01*
X134674762Y-124735238D01*
X134579524Y-124830476D01*
X134484286Y-124878095D01*
X130601905Y-125782381D02*
X130601905Y-124782381D01*
X130840000Y-124782381D01*
X130982858Y-124830000D01*
X131078096Y-124925238D01*
X131125715Y-125020476D01*
X131173334Y-125210952D01*
X131173334Y-125353810D01*
X131125715Y-125544286D01*
X131078096Y-125639524D01*
X130982858Y-125734762D01*
X130840000Y-125782381D01*
X130601905Y-125782381D01*
X131554286Y-124877619D02*
X131601905Y-124830000D01*
X131697143Y-124782381D01*
X131935239Y-124782381D01*
X132030477Y-124830000D01*
X132078096Y-124877619D01*
X132125715Y-124972857D01*
X132125715Y-125068095D01*
X132078096Y-125210952D01*
X131506667Y-125782381D01*
X132125715Y-125782381D01*
X137642381Y-124886666D02*
X137642381Y-125362857D01*
X136642381Y-125362857D01*
X137642381Y-124029523D02*
X137642381Y-124600952D01*
X137642381Y-124315238D02*
X136642381Y-124315238D01*
X136785238Y-124410476D01*
X136880476Y-124505714D01*
X136928095Y-124600952D01*
X148333810Y-123098095D02*
X148257619Y-123060000D01*
X148181429Y-122983810D01*
X148067143Y-122869524D01*
X147990952Y-122831429D01*
X147914762Y-122831429D01*
X147952857Y-123021905D02*
X147876667Y-122983810D01*
X147800476Y-122907619D01*
X147762381Y-122755238D01*
X147762381Y-122488571D01*
X147800476Y-122336190D01*
X147876667Y-122260000D01*
X147952857Y-122221905D01*
X148105238Y-122221905D01*
X148181429Y-122260000D01*
X148257619Y-122336190D01*
X148295714Y-122488571D01*
X148295714Y-122755238D01*
X148257619Y-122907619D01*
X148181429Y-122983810D01*
X148105238Y-123021905D01*
X147952857Y-123021905D01*
X149057619Y-123021905D02*
X148600476Y-123021905D01*
X148829047Y-123021905D02*
X148829047Y-122221905D01*
X148752857Y-122336190D01*
X148676666Y-122412381D01*
X148600476Y-122450476D01*
X146423810Y-123038095D02*
X146347619Y-123000000D01*
X146271429Y-122923810D01*
X146157143Y-122809524D01*
X146080952Y-122771429D01*
X146004762Y-122771429D01*
X146042857Y-122961905D02*
X145966667Y-122923810D01*
X145890476Y-122847619D01*
X145852381Y-122695238D01*
X145852381Y-122428571D01*
X145890476Y-122276190D01*
X145966667Y-122200000D01*
X146042857Y-122161905D01*
X146195238Y-122161905D01*
X146271429Y-122200000D01*
X146347619Y-122276190D01*
X146385714Y-122428571D01*
X146385714Y-122695238D01*
X146347619Y-122847619D01*
X146271429Y-122923810D01*
X146195238Y-122961905D01*
X146042857Y-122961905D01*
X146690476Y-122238095D02*
X146728571Y-122200000D01*
X146804762Y-122161905D01*
X146995238Y-122161905D01*
X147071428Y-122200000D01*
X147109524Y-122238095D01*
X147147619Y-122314286D01*
X147147619Y-122390476D01*
X147109524Y-122504762D01*
X146652381Y-122961905D01*
X147147619Y-122961905D01*
X126453334Y-117192381D02*
X126120000Y-116716190D01*
X125881905Y-117192381D02*
X125881905Y-116192381D01*
X126262858Y-116192381D01*
X126358096Y-116240000D01*
X126405715Y-116287619D01*
X126453334Y-116382857D01*
X126453334Y-116525714D01*
X126405715Y-116620952D01*
X126358096Y-116668571D01*
X126262858Y-116716190D01*
X125881905Y-116716190D01*
X127405715Y-117192381D02*
X126834286Y-117192381D01*
X127120000Y-117192381D02*
X127120000Y-116192381D01*
X127024762Y-116335238D01*
X126929524Y-116430476D01*
X126834286Y-116478095D01*
X129253334Y-117192381D02*
X128920000Y-116716190D01*
X128681905Y-117192381D02*
X128681905Y-116192381D01*
X129062858Y-116192381D01*
X129158096Y-116240000D01*
X129205715Y-116287619D01*
X129253334Y-116382857D01*
X129253334Y-116525714D01*
X129205715Y-116620952D01*
X129158096Y-116668571D01*
X129062858Y-116716190D01*
X128681905Y-116716190D01*
X129634286Y-116287619D02*
X129681905Y-116240000D01*
X129777143Y-116192381D01*
X130015239Y-116192381D01*
X130110477Y-116240000D01*
X130158096Y-116287619D01*
X130205715Y-116382857D01*
X130205715Y-116478095D01*
X130158096Y-116620952D01*
X129586667Y-117192381D01*
X130205715Y-117192381D01*
X138833334Y-127092381D02*
X138500000Y-126616190D01*
X138261905Y-127092381D02*
X138261905Y-126092381D01*
X138642858Y-126092381D01*
X138738096Y-126140000D01*
X138785715Y-126187619D01*
X138833334Y-126282857D01*
X138833334Y-126425714D01*
X138785715Y-126520952D01*
X138738096Y-126568571D01*
X138642858Y-126616190D01*
X138261905Y-126616190D01*
X139738096Y-126092381D02*
X139261905Y-126092381D01*
X139214286Y-126568571D01*
X139261905Y-126520952D01*
X139357143Y-126473333D01*
X139595239Y-126473333D01*
X139690477Y-126520952D01*
X139738096Y-126568571D01*
X139785715Y-126663810D01*
X139785715Y-126901905D01*
X139738096Y-126997143D01*
X139690477Y-127044762D01*
X139595239Y-127092381D01*
X139357143Y-127092381D01*
X139261905Y-127044762D01*
X139214286Y-126997143D01*
X128503334Y-125562381D02*
X128170000Y-125086190D01*
X127931905Y-125562381D02*
X127931905Y-124562381D01*
X128312858Y-124562381D01*
X128408096Y-124610000D01*
X128455715Y-124657619D01*
X128503334Y-124752857D01*
X128503334Y-124895714D01*
X128455715Y-124990952D01*
X128408096Y-125038571D01*
X128312858Y-125086190D01*
X127931905Y-125086190D01*
X129360477Y-124562381D02*
X129170000Y-124562381D01*
X129074762Y-124610000D01*
X129027143Y-124657619D01*
X128931905Y-124800476D01*
X128884286Y-124990952D01*
X128884286Y-125371905D01*
X128931905Y-125467143D01*
X128979524Y-125514762D01*
X129074762Y-125562381D01*
X129265239Y-125562381D01*
X129360477Y-125514762D01*
X129408096Y-125467143D01*
X129455715Y-125371905D01*
X129455715Y-125133810D01*
X129408096Y-125038571D01*
X129360477Y-124990952D01*
X129265239Y-124943333D01*
X129074762Y-124943333D01*
X128979524Y-124990952D01*
X128931905Y-125038571D01*
X128884286Y-125133810D01*
X152397143Y-110322381D02*
X152063809Y-109846190D01*
X151825714Y-110322381D02*
X151825714Y-109322381D01*
X152206667Y-109322381D01*
X152301905Y-109370000D01*
X152349524Y-109417619D01*
X152397143Y-109512857D01*
X152397143Y-109655714D01*
X152349524Y-109750952D01*
X152301905Y-109798571D01*
X152206667Y-109846190D01*
X151825714Y-109846190D01*
X153349524Y-110322381D02*
X152778095Y-110322381D01*
X153063809Y-110322381D02*
X153063809Y-109322381D01*
X152968571Y-109465238D01*
X152873333Y-109560476D01*
X152778095Y-109608095D01*
X153968571Y-109322381D02*
X154063810Y-109322381D01*
X154159048Y-109370000D01*
X154206667Y-109417619D01*
X154254286Y-109512857D01*
X154301905Y-109703333D01*
X154301905Y-109941429D01*
X154254286Y-110131905D01*
X154206667Y-110227143D01*
X154159048Y-110274762D01*
X154063810Y-110322381D01*
X153968571Y-110322381D01*
X153873333Y-110274762D01*
X153825714Y-110227143D01*
X153778095Y-110131905D01*
X153730476Y-109941429D01*
X153730476Y-109703333D01*
X153778095Y-109512857D01*
X153825714Y-109417619D01*
X153873333Y-109370000D01*
X153968571Y-109322381D01*
X145557143Y-117552381D02*
X145223809Y-117076190D01*
X144985714Y-117552381D02*
X144985714Y-116552381D01*
X145366667Y-116552381D01*
X145461905Y-116600000D01*
X145509524Y-116647619D01*
X145557143Y-116742857D01*
X145557143Y-116885714D01*
X145509524Y-116980952D01*
X145461905Y-117028571D01*
X145366667Y-117076190D01*
X144985714Y-117076190D01*
X146509524Y-117552381D02*
X145938095Y-117552381D01*
X146223809Y-117552381D02*
X146223809Y-116552381D01*
X146128571Y-116695238D01*
X146033333Y-116790476D01*
X145938095Y-116838095D01*
X146890476Y-116647619D02*
X146938095Y-116600000D01*
X147033333Y-116552381D01*
X147271429Y-116552381D01*
X147366667Y-116600000D01*
X147414286Y-116647619D01*
X147461905Y-116742857D01*
X147461905Y-116838095D01*
X147414286Y-116980952D01*
X146842857Y-117552381D01*
X147461905Y-117552381D01*
X182166667Y-119704762D02*
X182309524Y-119752381D01*
X182547620Y-119752381D01*
X182642858Y-119704762D01*
X182690477Y-119657143D01*
X182738096Y-119561905D01*
X182738096Y-119466667D01*
X182690477Y-119371429D01*
X182642858Y-119323810D01*
X182547620Y-119276190D01*
X182357143Y-119228571D01*
X182261905Y-119180952D01*
X182214286Y-119133333D01*
X182166667Y-119038095D01*
X182166667Y-118942857D01*
X182214286Y-118847619D01*
X182261905Y-118800000D01*
X182357143Y-118752381D01*
X182595239Y-118752381D01*
X182738096Y-118800000D01*
X183071429Y-118752381D02*
X183309524Y-119752381D01*
X183500001Y-119038095D01*
X183690477Y-119752381D01*
X183928572Y-118752381D01*
X184833334Y-119752381D02*
X184261905Y-119752381D01*
X184547619Y-119752381D02*
X184547619Y-118752381D01*
X184452381Y-118895238D01*
X184357143Y-118990476D01*
X184261905Y-119038095D01*
X191412381Y-122008095D02*
X190412381Y-122008095D01*
X190412381Y-121627142D01*
X190460000Y-121531904D01*
X190507619Y-121484285D01*
X190602857Y-121436666D01*
X190745714Y-121436666D01*
X190840952Y-121484285D01*
X190888571Y-121531904D01*
X190936190Y-121627142D01*
X190936190Y-122008095D01*
X191412381Y-120484285D02*
X191412381Y-121055714D01*
X191412381Y-120770000D02*
X190412381Y-120770000D01*
X190555238Y-120865238D01*
X190650476Y-120960476D01*
X190698095Y-121055714D01*
X129708095Y-120392381D02*
X129708095Y-121201905D01*
X129755714Y-121297143D01*
X129803333Y-121344762D01*
X129898571Y-121392381D01*
X130089048Y-121392381D01*
X130184286Y-121344762D01*
X130231905Y-121297143D01*
X130279524Y-121201905D01*
X130279524Y-120392381D01*
X131279524Y-121392381D02*
X130708095Y-121392381D01*
X130993809Y-121392381D02*
X130993809Y-120392381D01*
X130898571Y-120535238D01*
X130803333Y-120630476D01*
X130708095Y-120678095D01*
D14*
X153575174Y-104233432D02*
X154052722Y-104233432D01*
X153479665Y-104519960D02*
X153813948Y-103517110D01*
X154148231Y-104519960D01*
X154482515Y-103994658D02*
X154816798Y-103994658D01*
X154960062Y-104519960D02*
X154482515Y-104519960D01*
X154482515Y-103517110D01*
X154960062Y-103517110D01*
X155342100Y-103612620D02*
X155389855Y-103564865D01*
X155485364Y-103517110D01*
X155724138Y-103517110D01*
X155819648Y-103564865D01*
X155867402Y-103612620D01*
X155915157Y-103708129D01*
X155915157Y-103803639D01*
X155867402Y-103946903D01*
X155294345Y-104519960D01*
X155915157Y-104519960D01*
D12*
X132402381Y-122386666D02*
X132402381Y-122862857D01*
X131402381Y-122862857D01*
X131402381Y-122148571D02*
X131402381Y-121529523D01*
X131783333Y-121862857D01*
X131783333Y-121719999D01*
X131830952Y-121624761D01*
X131878571Y-121577142D01*
X131973810Y-121529523D01*
X132211905Y-121529523D01*
X132307143Y-121577142D01*
X132354762Y-121624761D01*
X132402381Y-121719999D01*
X132402381Y-122005714D01*
X132354762Y-122100952D01*
X132307143Y-122148571D01*
X148403334Y-117272381D02*
X147927143Y-117272381D01*
X147927143Y-116272381D01*
X149165239Y-116605714D02*
X149165239Y-117272381D01*
X148927143Y-116224762D02*
X148689048Y-116939048D01*
X149308096Y-116939048D01*
M02*
