M48
METRIC,TZ
T1C0.600
T2C1.016
%
G90
G05
T1
X122600Y-116600
X122600Y-118300
X122600Y-120100
X122630Y-122770
X123880Y-122770
X124500Y-116600
X125800Y-115000
X126800Y-113200
X126900Y-111600
X127000Y-110000
X127760Y-120520
X129300Y-110000
X131190Y-119490
X131500Y-110000
X133250Y-119490
X133700Y-110000
X135410Y-119490
X135700Y-110000
X137320Y-119500
X137420Y-123380
X137700Y-110000
X137780Y-121650
X138500Y-126590
X138730Y-124400
X138780Y-118120
X139650Y-123100
X141380Y-111250
X141820Y-119770
X142070Y-123170
X143900Y-113740
X145740Y-123190
X146400Y-111480
X149320Y-110400
X150100Y-113460
X150400Y-117210
X151020Y-125070
X151380Y-115730
X152660Y-125030
X153170Y-120640
X153760Y-113960
X155780Y-122420
X157220Y-118530
X158020Y-121630
X158680Y-125650
X159710Y-114930
X159970Y-125880
X159990Y-111010
X160720Y-109820
X161330Y-121810
X162020Y-119630
X162120Y-122820
X163250Y-121440
X163270Y-119610
X163740Y-118130
X164730Y-122870
X165020Y-118700
X165640Y-123820
X165820Y-120620
X166620Y-121630
X166790Y-119770
X168470Y-117330
X168480Y-125410
X170770Y-122450
X171070Y-112500
X171910Y-120460
X172150Y-124440
X172460Y-118550
X172500Y-110100
X174300Y-124880
X174350Y-114060
X176300Y-110100
X177230Y-125090
X178200Y-110100
X180000Y-110100
X183300Y-117100
T2
X188440Y-117810
X188440Y-120350
X188440Y-122890
X188440Y-125430
T0
M30
