G04 #@! TF.FileFunction,Copper,L2,Bot,Signal*
%FSLAX46Y46*%
G04 Gerber Fmt 4.6, Leading zero omitted, Abs format (unit mm)*
G04 Created by KiCad (PCBNEW 4.0.5+dfsg1-4~bpo8+1) date Wed Oct 25 14:31:00 2017*
%MOMM*%
%LPD*%
G01*
G04 APERTURE LIST*
%ADD10C,0.100000*%
%ADD11R,1.600000X1.600000*%
%ADD12O,1.600000X1.600000*%
%ADD13C,1.000000*%
%ADD14R,3.000000X1.300000*%
%ADD15R,2.000000X1.200000*%
%ADD16R,2.000000X1.100000*%
%ADD17R,0.750000X0.800000*%
%ADD18R,0.800000X0.750000*%
%ADD19R,1.727200X2.032000*%
%ADD20O,1.727200X2.032000*%
%ADD21R,0.900000X0.500000*%
%ADD22R,0.500000X0.900000*%
%ADD23C,0.500000*%
%ADD24O,0.800000X0.350000*%
%ADD25O,0.350000X0.800000*%
%ADD26R,4.400000X4.400000*%
%ADD27R,1.800000X1.000000*%
%ADD28C,0.600000*%
%ADD29C,0.200000*%
%ADD30C,0.400000*%
%ADD31C,0.300000*%
%ADD32C,0.350000*%
%ADD33C,0.254000*%
G04 APERTURE END LIST*
D10*
D11*
X93200000Y-89300000D03*
D12*
X91400000Y-89300000D03*
D13*
X109430000Y-77290000D03*
D14*
X113200000Y-74200000D03*
X113200000Y-76200000D03*
X113200000Y-78200000D03*
X113200000Y-80200000D03*
X113200000Y-82200000D03*
X113200000Y-84200000D03*
X113200000Y-86200000D03*
X113200000Y-88200000D03*
X129200000Y-88200000D03*
X129200000Y-86200000D03*
X129200000Y-84200000D03*
X129200000Y-82200000D03*
X129200000Y-80200000D03*
X129200000Y-78200000D03*
X129200000Y-76200000D03*
X129200000Y-74200000D03*
D13*
X93250000Y-82500000D03*
X133570000Y-76230000D03*
X133500000Y-78250000D03*
X133500000Y-79750000D03*
X109250000Y-64000000D03*
X109250000Y-62500000D03*
X109250000Y-61000000D03*
X107750000Y-64000000D03*
X107750000Y-62500000D03*
X107750000Y-61000000D03*
X106250000Y-64000000D03*
X106250000Y-62500000D03*
X106250000Y-61000000D03*
X138500000Y-91500000D03*
X138500000Y-90000000D03*
X138500000Y-88500000D03*
X137000000Y-91500000D03*
X137000000Y-90000000D03*
X137000000Y-88500000D03*
X135500000Y-91500000D03*
X135500000Y-90000000D03*
X135500000Y-88500000D03*
X116000000Y-67750000D03*
X116000000Y-66000000D03*
X116000000Y-64500000D03*
X116000000Y-63000000D03*
X116000000Y-61500000D03*
X116000000Y-60000000D03*
X89750000Y-90750000D03*
X89750000Y-89250000D03*
X101750000Y-79000000D03*
X101750000Y-76500000D03*
X99250000Y-79000000D03*
X99250000Y-76500000D03*
X133460000Y-69310000D03*
X133100000Y-72300000D03*
X135750000Y-82750000D03*
X135750000Y-81250000D03*
X135750000Y-79750000D03*
X135750000Y-78250000D03*
X135640000Y-76250000D03*
X133500000Y-81250000D03*
X135750000Y-84500000D03*
X131150000Y-69270000D03*
X135840000Y-71160000D03*
X135750000Y-69250000D03*
X135750000Y-86250000D03*
X141750000Y-86250000D03*
X140250000Y-86250000D03*
X138750000Y-86250000D03*
D15*
X143600000Y-74200000D03*
X143600000Y-79300000D03*
D16*
X143600000Y-76750000D03*
D17*
X99200000Y-68550000D03*
X99200000Y-67050000D03*
X101000000Y-68550000D03*
X101000000Y-67050000D03*
D18*
X91150000Y-80600000D03*
X89650000Y-80600000D03*
D17*
X97400000Y-68550000D03*
X97400000Y-67050000D03*
D18*
X107250000Y-75250000D03*
X108750000Y-75250000D03*
X106500000Y-77250000D03*
X108000000Y-77250000D03*
X91050000Y-84700000D03*
X89550000Y-84700000D03*
X91150000Y-82600000D03*
X89650000Y-82600000D03*
X91350000Y-71600000D03*
X89850000Y-71600000D03*
X89750000Y-78500000D03*
X91250000Y-78500000D03*
D17*
X143600000Y-84650000D03*
X143600000Y-86150000D03*
X135300000Y-74250000D03*
X135300000Y-72750000D03*
D19*
X117300000Y-92400000D03*
D20*
X114760000Y-92400000D03*
X112220000Y-92400000D03*
X109680000Y-92400000D03*
X107140000Y-92400000D03*
X104600000Y-92400000D03*
D21*
X103200000Y-66950000D03*
X103200000Y-68450000D03*
X105300000Y-68450000D03*
X105300000Y-66950000D03*
D22*
X132150000Y-74200000D03*
X133650000Y-74200000D03*
D23*
X99350000Y-89800000D03*
X100000000Y-89800000D03*
X100650000Y-89800000D03*
D24*
X97330000Y-80070000D03*
D25*
X98130000Y-74720000D03*
D24*
X103330000Y-80070000D03*
D25*
X98130000Y-80870000D03*
D24*
X97330000Y-79420000D03*
X97330000Y-78770000D03*
X97330000Y-78120000D03*
X97330000Y-77470000D03*
X97330000Y-76820000D03*
X97330000Y-76170000D03*
X97330000Y-75520000D03*
D25*
X102680000Y-80870000D03*
X102030000Y-80870000D03*
X101380000Y-80870000D03*
X100730000Y-80870000D03*
X100080000Y-80870000D03*
X99430000Y-80870000D03*
X98780000Y-80870000D03*
X98780000Y-74720000D03*
X99430000Y-74720000D03*
X100080000Y-74720000D03*
X100730000Y-74720000D03*
X101380000Y-74720000D03*
X102030000Y-74720000D03*
X102680000Y-74720000D03*
D24*
X103330000Y-75520000D03*
X103330000Y-76170000D03*
X103330000Y-76820000D03*
X103330000Y-77470000D03*
X103330000Y-78120000D03*
X103330000Y-78770000D03*
X103330000Y-79420000D03*
D26*
X100400000Y-77800000D03*
D27*
X90500000Y-76250000D03*
X90500000Y-73750000D03*
D13*
X137250000Y-86250000D03*
X103200000Y-66200000D03*
X111750000Y-74250000D03*
X88200000Y-73500000D03*
X107100000Y-67800000D03*
X122900000Y-72800000D03*
X95300000Y-84500000D03*
X95500000Y-89000000D03*
X89600000Y-72000000D03*
X94100000Y-60700000D03*
X103900000Y-73000000D03*
X131700000Y-86600000D03*
X132600000Y-92800000D03*
X100400000Y-77800000D03*
X119100000Y-89000000D03*
X131400000Y-72500000D03*
X110250000Y-72250000D03*
X98700000Y-72500000D03*
X131400000Y-89900000D03*
X124500000Y-88700000D03*
X95400000Y-73900000D03*
X92000000Y-84700000D03*
X116400000Y-86000000D03*
X104400000Y-85700000D03*
X133500000Y-85000000D03*
X109900000Y-84500000D03*
X95300000Y-69700000D03*
X103200000Y-89700000D03*
X104700000Y-89500000D03*
X92500000Y-72300000D03*
X125300000Y-79300000D03*
X124100000Y-72100000D03*
X97300000Y-83800000D03*
X116500000Y-84500000D03*
X115500000Y-83250000D03*
X115000000Y-72500000D03*
X123750000Y-85000000D03*
X105900000Y-88800000D03*
X120000000Y-74000000D03*
X99400000Y-70500000D03*
X122100000Y-88700000D03*
X118300000Y-74400000D03*
X100400000Y-71200000D03*
X120700000Y-88600000D03*
X125250000Y-84250000D03*
X106000000Y-87500000D03*
X125750000Y-83000000D03*
X107500000Y-87600000D03*
D28*
X143600000Y-74200000D02*
X135350000Y-74200000D01*
D29*
X135350000Y-74200000D02*
X135300000Y-74250000D01*
X133650000Y-74200000D02*
X135250000Y-74200000D01*
X135250000Y-74200000D02*
X135300000Y-74250000D01*
D28*
X143600000Y-84650000D02*
X143600000Y-79300000D01*
D29*
X103200000Y-66950000D02*
X103200000Y-66200000D01*
D30*
X108000000Y-77250000D02*
X109250000Y-77250000D01*
X109250000Y-77250000D02*
X109500000Y-77500000D01*
X108000000Y-77250000D02*
X108250000Y-77250000D01*
X108250000Y-77250000D02*
X108750000Y-76750000D01*
X108750000Y-76750000D02*
X108750000Y-75250000D01*
D29*
X113200000Y-74200000D02*
X111800000Y-74200000D01*
D30*
X111800000Y-74200000D02*
X111750000Y-74250000D01*
X129200000Y-76200000D02*
X131710000Y-76200000D01*
X131710000Y-76200000D02*
X135400000Y-79890000D01*
X95500000Y-90960000D02*
X96240000Y-91700000D01*
X96090000Y-91650000D02*
X96090000Y-91700000D01*
X96140000Y-91700000D02*
X96090000Y-91650000D01*
X96240000Y-91700000D02*
X96140000Y-91700000D01*
X95500000Y-89000000D02*
X95500000Y-90960000D01*
D31*
X114760000Y-92400000D02*
X114760000Y-93150000D01*
X114760000Y-93150000D02*
X115610000Y-94000000D01*
X131400000Y-94000000D02*
X132600000Y-92800000D01*
X115610000Y-94000000D02*
X131400000Y-94000000D01*
D30*
X89650000Y-82600000D02*
X89650000Y-80600000D01*
X89550000Y-84700000D02*
X89550000Y-82700000D01*
X89550000Y-82700000D02*
X89650000Y-82600000D01*
X89550000Y-84700000D02*
X89550000Y-86560000D01*
X89550000Y-86560000D02*
X89520000Y-86530000D01*
X88000000Y-83790000D02*
X88000000Y-85010000D01*
D29*
X88200000Y-73500000D02*
X88000000Y-73700000D01*
D30*
X88000000Y-73700000D02*
X88000000Y-83790000D01*
X88000000Y-85010000D02*
X89520000Y-86530000D01*
X91650000Y-88660000D02*
X91650000Y-89300000D01*
X89520000Y-86530000D02*
X91650000Y-88660000D01*
X129200000Y-76200000D02*
X127500000Y-76200000D01*
X127350000Y-72500000D02*
X131400000Y-72500000D01*
X126900000Y-72950000D02*
X127350000Y-72500000D01*
X126900000Y-75600000D02*
X126900000Y-72950000D01*
X127500000Y-76200000D02*
X126900000Y-75600000D01*
D29*
X107100000Y-67800000D02*
X106250000Y-66950000D01*
X106250000Y-66950000D02*
X105300000Y-66950000D01*
X131400000Y-72500000D02*
X131100000Y-72500000D01*
D30*
X131100000Y-72500000D02*
X128700000Y-70100000D01*
X128700000Y-70100000D02*
X124000000Y-70100000D01*
X124000000Y-70100000D02*
X122900000Y-71200000D01*
X122900000Y-71200000D02*
X122900000Y-72800000D01*
X136450000Y-86150000D02*
X143600000Y-86150000D01*
X135400000Y-85100000D02*
X136450000Y-86150000D01*
X135400000Y-79890000D02*
X135400000Y-85100000D01*
X135300000Y-72750000D02*
X131650000Y-72750000D01*
D29*
X131650000Y-72750000D02*
X131400000Y-72500000D01*
D30*
X95500000Y-84700000D02*
X95500000Y-89000000D01*
D29*
X95300000Y-84500000D02*
X95500000Y-84700000D01*
D30*
X99350000Y-89800000D02*
X98700000Y-89800000D01*
X97340000Y-91160000D02*
X96800000Y-91700000D01*
X96800000Y-91700000D02*
X96090000Y-91700000D01*
X98700000Y-89800000D02*
X97340000Y-91160000D01*
X91650000Y-91150000D02*
X91650000Y-89300000D01*
X95500000Y-91700000D02*
X92200000Y-91700000D01*
X92200000Y-91700000D02*
X91650000Y-91150000D01*
X96090000Y-91700000D02*
X95500000Y-91700000D01*
D29*
X89600000Y-72000000D02*
X89850000Y-71750000D01*
X89850000Y-71750000D02*
X89850000Y-71600000D01*
D30*
X97400000Y-67050000D02*
X97400000Y-62900000D01*
X95200000Y-60700000D02*
X94100000Y-60700000D01*
X97400000Y-62900000D02*
X95200000Y-60700000D01*
X105300000Y-66950000D02*
X105300000Y-65600000D01*
X101000000Y-65100000D02*
X101000000Y-67050000D01*
X101600000Y-64500000D02*
X101000000Y-65100000D01*
X104200000Y-64500000D02*
X101600000Y-64500000D01*
X105300000Y-65600000D02*
X104200000Y-64500000D01*
X105300000Y-66950000D02*
X106250000Y-66950000D01*
X106250000Y-66950000D02*
X107200000Y-67900000D01*
X107200000Y-67900000D02*
X107200000Y-69600000D01*
X107200000Y-69600000D02*
X103900000Y-72900000D01*
X103900000Y-72900000D02*
X103900000Y-73000000D01*
X128800000Y-90100000D02*
X130000000Y-90100000D01*
X131700000Y-88400000D02*
X131700000Y-86600000D01*
X130000000Y-90100000D02*
X131700000Y-88400000D01*
X119100000Y-89000000D02*
X120500000Y-90400000D01*
X127500000Y-90100000D02*
X128800000Y-90100000D01*
X124900000Y-87500000D02*
X127500000Y-90100000D01*
X123900000Y-87500000D02*
X124900000Y-87500000D01*
X123200000Y-88200000D02*
X123900000Y-87500000D01*
X123200000Y-89400000D02*
X123200000Y-88200000D01*
X122200000Y-90400000D02*
X123200000Y-89400000D01*
X120500000Y-90400000D02*
X122200000Y-90400000D01*
X131700000Y-86600000D02*
X132600000Y-87500000D01*
X132600000Y-87500000D02*
X132600000Y-92800000D01*
D29*
X91250000Y-78500000D02*
X91250000Y-78850000D01*
D31*
X91250000Y-78850000D02*
X89650000Y-80450000D01*
D29*
X89650000Y-80450000D02*
X89650000Y-80600000D01*
D30*
X99200000Y-67050000D02*
X97400000Y-67050000D01*
X101000000Y-67050000D02*
X99200000Y-67050000D01*
D29*
X89550000Y-82700000D02*
X89650000Y-82600000D01*
X113200000Y-88200000D02*
X113200000Y-88800000D01*
D30*
X113200000Y-88800000D02*
X114760000Y-90360000D01*
X114760000Y-90360000D02*
X114760000Y-92400000D01*
X107250000Y-75250000D02*
X110250000Y-72250000D01*
X107250000Y-75250000D02*
X107000000Y-75250000D01*
X107000000Y-75250000D02*
X104780000Y-77470000D01*
X104780000Y-77470000D02*
X103330000Y-77470000D01*
X106500000Y-77250000D02*
X106750000Y-77250000D01*
X106750000Y-77250000D02*
X107250000Y-76750000D01*
X107250000Y-76750000D02*
X107250000Y-75250000D01*
X103330000Y-78120000D02*
X106230000Y-78120000D01*
X106230000Y-78120000D02*
X106500000Y-77850000D01*
X106500000Y-77850000D02*
X106500000Y-77250000D01*
X106750000Y-77250000D02*
X107250000Y-76750000D01*
X107250000Y-76750000D02*
X107250000Y-75250000D01*
X106230000Y-78120000D02*
X106500000Y-77850000D01*
X106500000Y-77850000D02*
X106650000Y-77700000D01*
X124500000Y-88700000D02*
X124500000Y-91100000D01*
X124500000Y-91100000D02*
X123200000Y-92400000D01*
D29*
X99430000Y-73700000D02*
X99430000Y-73230000D01*
X99430000Y-74720000D02*
X99430000Y-73700000D01*
X99430000Y-73230000D02*
X98700000Y-72500000D01*
D31*
X97400000Y-71200000D02*
X97400000Y-68550000D01*
X98700000Y-72500000D02*
X97400000Y-71200000D01*
X106650000Y-77350000D02*
X106650000Y-77700000D01*
D30*
X117300000Y-92400000D02*
X123200000Y-92400000D01*
X123200000Y-92400000D02*
X130200000Y-92400000D01*
X130200000Y-92400000D02*
X131300000Y-91300000D01*
X131300000Y-91300000D02*
X131400000Y-89900000D01*
D29*
X95400000Y-74000000D02*
X95400000Y-73900000D01*
X92000000Y-84700000D02*
X91050000Y-84700000D01*
D30*
X91050000Y-84700000D02*
X91050000Y-82700000D01*
D29*
X91050000Y-82700000D02*
X91150000Y-82600000D01*
D30*
X91150000Y-82600000D02*
X91150000Y-80600000D01*
X117300000Y-92400000D02*
X117300000Y-86900000D01*
X117300000Y-86900000D02*
X116400000Y-86000000D01*
D29*
X101380000Y-74720000D02*
X101380000Y-70080000D01*
X100350000Y-69700000D02*
X99200000Y-68550000D01*
X101000000Y-69700000D02*
X100350000Y-69700000D01*
X101380000Y-70080000D02*
X101000000Y-69700000D01*
X102030000Y-74720000D02*
X102030000Y-69580000D01*
X102030000Y-69580000D02*
X101000000Y-68550000D01*
X99200000Y-68550000D02*
X101000000Y-68550000D01*
X97400000Y-68550000D02*
X99200000Y-68550000D01*
X104400000Y-85700000D02*
X103600000Y-85700000D01*
X103600000Y-85700000D02*
X103100000Y-85200000D01*
X100730000Y-80870000D02*
X100730000Y-82830000D01*
X100730000Y-82830000D02*
X103100000Y-85200000D01*
X106650000Y-77700000D02*
X106650000Y-77350000D01*
D30*
X97330000Y-78120000D02*
X95080000Y-78120000D01*
X92600000Y-80600000D02*
X91150000Y-80600000D01*
X95080000Y-78120000D02*
X92600000Y-80600000D01*
D29*
X91350000Y-71600000D02*
X91350000Y-72050000D01*
X90500000Y-72900000D02*
X90500000Y-73750000D01*
X91350000Y-72050000D02*
X90500000Y-72900000D01*
X97330000Y-75520000D02*
X95120000Y-75520000D01*
X93350000Y-73750000D02*
X90500000Y-73750000D01*
X95120000Y-75520000D02*
X93350000Y-73750000D01*
X90500000Y-76250000D02*
X90500000Y-76900000D01*
X89750000Y-77650000D02*
X89750000Y-78500000D01*
X90500000Y-76900000D02*
X89750000Y-77650000D01*
X97330000Y-76170000D02*
X90580000Y-76170000D01*
X90580000Y-76170000D02*
X90500000Y-76250000D01*
D30*
X129200000Y-78200000D02*
X130950000Y-78200000D01*
X131750000Y-83250000D02*
X133500000Y-85000000D01*
X131750000Y-79000000D02*
X131750000Y-83250000D01*
X130950000Y-78200000D02*
X131750000Y-79000000D01*
D29*
X98130000Y-74720000D02*
X98130000Y-73930000D01*
X95300000Y-71100000D02*
X95300000Y-69700000D01*
X98130000Y-73930000D02*
X95300000Y-71100000D01*
X110700000Y-90400000D02*
X110700000Y-85300000D01*
X110700000Y-85300000D02*
X109900000Y-84500000D01*
X112220000Y-92400000D02*
X112220000Y-91920000D01*
X112220000Y-91920000D02*
X110700000Y-90400000D01*
X98130000Y-74720000D02*
X98130000Y-74330000D01*
X112220000Y-91920000D02*
X111300000Y-91000000D01*
X111300000Y-91000000D02*
X110700000Y-90400000D01*
X112220000Y-93280000D02*
X112220000Y-92400000D01*
X102680000Y-80870000D02*
X102680000Y-82080000D01*
X109680000Y-85880000D02*
X109680000Y-92400000D01*
X107300000Y-83500000D02*
X109680000Y-85880000D01*
X104100000Y-83500000D02*
X107300000Y-83500000D01*
X102680000Y-82080000D02*
X104100000Y-83500000D01*
X107140000Y-92400000D02*
X107140000Y-91360000D01*
X102030000Y-82330000D02*
X102030000Y-80870000D01*
X103700000Y-84000000D02*
X102030000Y-82330000D01*
X106900000Y-84000000D02*
X103700000Y-84000000D01*
X109100000Y-86200000D02*
X106900000Y-84000000D01*
X109100000Y-89400000D02*
X109100000Y-86200000D01*
X107140000Y-91360000D02*
X109100000Y-89400000D01*
X104600000Y-92400000D02*
X108400000Y-88600000D01*
X101380000Y-82380000D02*
X101380000Y-80870000D01*
X103600000Y-84600000D02*
X101380000Y-82380000D01*
X106500000Y-84600000D02*
X103600000Y-84600000D01*
X108400000Y-86500000D02*
X106500000Y-84600000D01*
X108400000Y-88600000D02*
X108400000Y-86500000D01*
X102600000Y-89700000D02*
X103200000Y-89700000D01*
X97330000Y-79420000D02*
X96680000Y-79420000D01*
X101800000Y-89700000D02*
X102600000Y-89700000D01*
X96400000Y-84300000D02*
X101800000Y-89700000D01*
X96400000Y-79700000D02*
X96400000Y-84300000D01*
X96680000Y-79420000D02*
X96400000Y-79700000D01*
X103100000Y-88650000D02*
X103850000Y-88650000D01*
X103850000Y-88650000D02*
X104700000Y-89500000D01*
X102900000Y-88650000D02*
X103100000Y-88650000D01*
X101750000Y-88650000D02*
X102900000Y-88650000D01*
X98130000Y-85030000D02*
X98130000Y-84430000D01*
X101750000Y-88650000D02*
X98130000Y-85030000D01*
X98130000Y-80870000D02*
X98130000Y-84430000D01*
X102680000Y-74720000D02*
X102680000Y-71120000D01*
X103200000Y-70600000D02*
X103200000Y-68450000D01*
X102680000Y-71120000D02*
X103200000Y-70600000D01*
X103200000Y-68450000D02*
X105300000Y-68450000D01*
X95300000Y-68600000D02*
X95600000Y-68600000D01*
X95600000Y-68600000D02*
X96400000Y-69400000D01*
X92500000Y-72300000D02*
X92500000Y-69900000D01*
X92500000Y-69900000D02*
X92800000Y-69600000D01*
X93800000Y-68600000D02*
X95300000Y-68600000D01*
X92800000Y-69600000D02*
X93800000Y-68600000D01*
X98780000Y-73780000D02*
X96400000Y-71400000D01*
X96400000Y-71400000D02*
X96400000Y-69400000D01*
X98780000Y-74720000D02*
X98780000Y-73780000D01*
X125300000Y-73300000D02*
X125300000Y-79300000D01*
X124100000Y-72100000D02*
X125300000Y-73300000D01*
X97330000Y-80070000D02*
X97330000Y-83770000D01*
X97330000Y-83770000D02*
X97300000Y-83800000D01*
X113200000Y-86200000D02*
X114800000Y-86200000D01*
X114800000Y-86200000D02*
X116500000Y-84500000D01*
X113200000Y-86200000D02*
X114700000Y-86200000D01*
X103330000Y-80070000D02*
X106770000Y-80070000D01*
X108900000Y-82200000D02*
X113200000Y-82200000D01*
X106770000Y-80070000D02*
X108900000Y-82200000D01*
X123610000Y-79330000D02*
X123610000Y-83390000D01*
X127450000Y-88200000D02*
X129200000Y-88200000D01*
X126000000Y-86750000D02*
X127450000Y-88200000D01*
X123750000Y-86750000D02*
X126000000Y-86750000D01*
X122750000Y-85750000D02*
X123750000Y-86750000D01*
X122750000Y-84250000D02*
X122750000Y-85750000D01*
X123610000Y-83390000D02*
X122750000Y-84250000D01*
X123670000Y-79330000D02*
X123610000Y-79330000D01*
X123610000Y-79330000D02*
X123420000Y-79330000D01*
X123420000Y-79330000D02*
X123250000Y-79500000D01*
X123670000Y-79330000D02*
X123610000Y-79270000D01*
X123610000Y-79270000D02*
X123610000Y-76410000D01*
X118100000Y-70900000D02*
X117300000Y-70100000D01*
X117300000Y-70100000D02*
X109300000Y-70100000D01*
X118100000Y-70900000D02*
X123610000Y-76410000D01*
X108900000Y-70100000D02*
X108300000Y-70700000D01*
X103480000Y-75520000D02*
X108300000Y-70700000D01*
X109300000Y-70100000D02*
X108900000Y-70100000D01*
X103330000Y-75520000D02*
X103480000Y-75520000D01*
X110625000Y-73875000D02*
X110625000Y-77875000D01*
X110625000Y-73875000D02*
X112000000Y-72500000D01*
X110625000Y-77875000D02*
X109730000Y-78770000D01*
X109730000Y-78770000D02*
X109480000Y-78770000D01*
X112500000Y-72500000D02*
X115000000Y-72500000D01*
X115050000Y-84200000D02*
X113200000Y-84200000D01*
X115250000Y-84000000D02*
X115050000Y-84200000D01*
X115250000Y-83500000D02*
X115250000Y-84000000D01*
X115500000Y-83250000D02*
X115250000Y-83500000D01*
X112000000Y-72500000D02*
X112500000Y-72500000D01*
X103330000Y-78770000D02*
X109480000Y-78770000D01*
X124950000Y-86200000D02*
X129200000Y-86200000D01*
X123750000Y-85000000D02*
X124950000Y-86200000D01*
X129200000Y-86200000D02*
X127600000Y-86200000D01*
X127600000Y-86200000D02*
X127400000Y-86400000D01*
X127400000Y-86400000D02*
X127600000Y-86200000D01*
X103900000Y-88000000D02*
X105100000Y-88000000D01*
X105100000Y-88000000D02*
X105900000Y-88800000D01*
X98780000Y-84280000D02*
X102000000Y-87500000D01*
X98780000Y-80870000D02*
X98780000Y-84280000D01*
X102000000Y-87500000D02*
X102500000Y-88000000D01*
X102500000Y-88000000D02*
X103900000Y-88000000D01*
X121200000Y-87000000D02*
X121200000Y-75200000D01*
X121200000Y-75200000D02*
X120000000Y-74000000D01*
X100080000Y-74720000D02*
X100080000Y-72480000D01*
X99400000Y-71800000D02*
X99400000Y-70500000D01*
X100080000Y-72480000D02*
X99400000Y-71800000D01*
X122100000Y-88700000D02*
X122100000Y-87900000D01*
X122100000Y-87900000D02*
X121200000Y-87000000D01*
X118300000Y-74400000D02*
X118400000Y-74400000D01*
X118400000Y-74400000D02*
X120500000Y-76500000D01*
X120500000Y-86400000D02*
X120500000Y-76500000D01*
X120500000Y-76500000D02*
X119000000Y-75000000D01*
X119000000Y-75000000D02*
X118800000Y-74800000D01*
X100730000Y-74720000D02*
X100730000Y-71530000D01*
X100730000Y-71530000D02*
X100400000Y-71200000D01*
X120700000Y-88600000D02*
X120700000Y-86600000D01*
X120700000Y-86600000D02*
X120500000Y-86400000D01*
X117000000Y-73250000D02*
X117000000Y-72250000D01*
X109500000Y-70750000D02*
X109000000Y-71250000D01*
X115500000Y-70750000D02*
X109500000Y-70750000D01*
X117000000Y-72250000D02*
X115500000Y-70750000D01*
X103330000Y-76170000D02*
X104080000Y-76170000D01*
X104080000Y-76170000D02*
X109000000Y-71250000D01*
X116050000Y-80200000D02*
X113200000Y-80200000D01*
X117000000Y-79250000D02*
X116050000Y-80200000D01*
X117000000Y-73250000D02*
X117000000Y-79250000D01*
X108500000Y-72500000D02*
X109750000Y-71250000D01*
X116250000Y-72250000D02*
X116250000Y-74250000D01*
X115250000Y-71250000D02*
X116250000Y-72250000D01*
X109750000Y-71250000D02*
X115250000Y-71250000D01*
X103330000Y-76820000D02*
X104180000Y-76820000D01*
X115800000Y-78200000D02*
X113200000Y-78200000D01*
X116250000Y-77750000D02*
X115800000Y-78200000D01*
X116250000Y-74250000D02*
X116250000Y-77750000D01*
X104180000Y-76820000D02*
X108500000Y-72500000D01*
X111250000Y-77000000D02*
X111250000Y-78750000D01*
X111250000Y-78750000D02*
X110500000Y-79500000D01*
X110500000Y-79500000D02*
X110000000Y-79500000D01*
X108000000Y-79500000D02*
X103500000Y-79500000D01*
X110000000Y-79500000D02*
X108000000Y-79500000D01*
X113200000Y-76200000D02*
X112050000Y-76200000D01*
X112050000Y-76200000D02*
X111250000Y-77000000D01*
X103500000Y-79500000D02*
X103330000Y-79420000D01*
X113200000Y-76200000D02*
X111830000Y-76200000D01*
X129200000Y-84200000D02*
X125300000Y-84200000D01*
X125300000Y-84200000D02*
X125250000Y-84250000D01*
X105800000Y-87300000D02*
X106000000Y-87500000D01*
X102900000Y-87300000D02*
X105100000Y-87300000D01*
X99430000Y-80870000D02*
X99430000Y-83830000D01*
X99430000Y-83830000D02*
X102900000Y-87300000D01*
X105100000Y-87300000D02*
X105800000Y-87300000D01*
X126550000Y-82200000D02*
X129200000Y-82200000D01*
X125750000Y-83000000D02*
X126550000Y-82200000D01*
X106400000Y-86500000D02*
X107500000Y-87600000D01*
X103300000Y-86500000D02*
X106400000Y-86500000D01*
D32*
X129500000Y-82500000D02*
X129200000Y-82200000D01*
D29*
X103100000Y-86500000D02*
X103300000Y-86500000D01*
X100080000Y-80870000D02*
X100080000Y-83480000D01*
X100080000Y-83480000D02*
X103100000Y-86500000D01*
D33*
G36*
X115437233Y-86642086D02*
X115756235Y-86961645D01*
X116173244Y-87134803D01*
X116354093Y-87134961D01*
X116465000Y-87245868D01*
X116465000Y-90736560D01*
X116436400Y-90736560D01*
X116201083Y-90780838D01*
X115984959Y-90919910D01*
X115839969Y-91132110D01*
X115788960Y-91384000D01*
X115788960Y-93416000D01*
X115833238Y-93651317D01*
X115972310Y-93867441D01*
X116184510Y-94012431D01*
X116320650Y-94040000D01*
X112437910Y-94040000D01*
X112793489Y-93969271D01*
X113279670Y-93644415D01*
X113604526Y-93158234D01*
X113718600Y-92584745D01*
X113718600Y-92215255D01*
X113604526Y-91641766D01*
X113279670Y-91155585D01*
X112793489Y-90830729D01*
X112220000Y-90716655D01*
X112083294Y-90743847D01*
X111819724Y-90480278D01*
X111819723Y-90480276D01*
X111435000Y-90095554D01*
X111435000Y-87437473D01*
X111448110Y-87446431D01*
X111700000Y-87497440D01*
X114700000Y-87497440D01*
X114935317Y-87453162D01*
X115151441Y-87314090D01*
X115296431Y-87101890D01*
X115347440Y-86850000D01*
X115347440Y-86692006D01*
X115425575Y-86613871D01*
X115437233Y-86642086D01*
X115437233Y-86642086D01*
G37*
X115437233Y-86642086D02*
X115756235Y-86961645D01*
X116173244Y-87134803D01*
X116354093Y-87134961D01*
X116465000Y-87245868D01*
X116465000Y-90736560D01*
X116436400Y-90736560D01*
X116201083Y-90780838D01*
X115984959Y-90919910D01*
X115839969Y-91132110D01*
X115788960Y-91384000D01*
X115788960Y-93416000D01*
X115833238Y-93651317D01*
X115972310Y-93867441D01*
X116184510Y-94012431D01*
X116320650Y-94040000D01*
X112437910Y-94040000D01*
X112793489Y-93969271D01*
X113279670Y-93644415D01*
X113604526Y-93158234D01*
X113718600Y-92584745D01*
X113718600Y-92215255D01*
X113604526Y-91641766D01*
X113279670Y-91155585D01*
X112793489Y-90830729D01*
X112220000Y-90716655D01*
X112083294Y-90743847D01*
X111819724Y-90480278D01*
X111819723Y-90480276D01*
X111435000Y-90095554D01*
X111435000Y-87437473D01*
X111448110Y-87446431D01*
X111700000Y-87497440D01*
X114700000Y-87497440D01*
X114935317Y-87453162D01*
X115151441Y-87314090D01*
X115296431Y-87101890D01*
X115347440Y-86850000D01*
X115347440Y-86692006D01*
X115425575Y-86613871D01*
X115437233Y-86642086D01*
G36*
X116873000Y-68500000D02*
X116881685Y-68546159D01*
X116908965Y-68588553D01*
X116950590Y-68616994D01*
X117000000Y-68627000D01*
X136373000Y-68627000D01*
X136373000Y-73265000D01*
X135943620Y-73265000D01*
X135926890Y-73253569D01*
X135675000Y-73202560D01*
X134925000Y-73202560D01*
X134689683Y-73246838D01*
X134473559Y-73385910D01*
X134446130Y-73426053D01*
X134364090Y-73298559D01*
X134151890Y-73153569D01*
X133900000Y-73102560D01*
X133400000Y-73102560D01*
X133164683Y-73146838D01*
X132948559Y-73285910D01*
X132900866Y-73355711D01*
X132864090Y-73298559D01*
X132651890Y-73153569D01*
X132400000Y-73102560D01*
X131900000Y-73102560D01*
X131664683Y-73146838D01*
X131448559Y-73285910D01*
X131303569Y-73498110D01*
X131252560Y-73750000D01*
X131252560Y-74650000D01*
X131296838Y-74885317D01*
X131435910Y-75101441D01*
X131648110Y-75246431D01*
X131900000Y-75297440D01*
X132400000Y-75297440D01*
X132635317Y-75253162D01*
X132851441Y-75114090D01*
X132899134Y-75044289D01*
X132935910Y-75101441D01*
X133148110Y-75246431D01*
X133400000Y-75297440D01*
X133900000Y-75297440D01*
X134135317Y-75253162D01*
X134351441Y-75114090D01*
X134412009Y-75025446D01*
X134460910Y-75101441D01*
X134673110Y-75246431D01*
X134925000Y-75297440D01*
X135675000Y-75297440D01*
X135910317Y-75253162D01*
X136093946Y-75135000D01*
X136373000Y-75135000D01*
X136373000Y-85500000D01*
X136381685Y-85546159D01*
X136408965Y-85588553D01*
X136450590Y-85616994D01*
X136500000Y-85627000D01*
X142944672Y-85627000D01*
X142973110Y-85646431D01*
X143225000Y-85697440D01*
X143975000Y-85697440D01*
X144210317Y-85653162D01*
X144250974Y-85627000D01*
X144790000Y-85627000D01*
X144790000Y-92125654D01*
X144363148Y-91840440D01*
X143800000Y-91728423D01*
X143236852Y-91840440D01*
X142759438Y-92159438D01*
X142440440Y-92636852D01*
X142328423Y-93200000D01*
X142440440Y-93763148D01*
X142625427Y-94040000D01*
X118288173Y-94040000D01*
X118398917Y-94019162D01*
X118615041Y-93880090D01*
X118760031Y-93667890D01*
X118811040Y-93416000D01*
X118811040Y-93235000D01*
X130200000Y-93235000D01*
X130519541Y-93171439D01*
X130790434Y-92990434D01*
X131890434Y-91890434D01*
X131964706Y-91779278D01*
X132046712Y-91673692D01*
X132054687Y-91644611D01*
X132071439Y-91619540D01*
X132097520Y-91488421D01*
X132132878Y-91359491D01*
X132178053Y-90727037D01*
X132361645Y-90543765D01*
X132534803Y-90126756D01*
X132535197Y-89675225D01*
X132362767Y-89257914D01*
X132043765Y-88938355D01*
X131626756Y-88765197D01*
X131347440Y-88764953D01*
X131347440Y-87550000D01*
X131303162Y-87314683D01*
X131229380Y-87200022D01*
X131296431Y-87101890D01*
X131347440Y-86850000D01*
X131347440Y-85550000D01*
X131303162Y-85314683D01*
X131229380Y-85200022D01*
X131296431Y-85101890D01*
X131347440Y-84850000D01*
X131347440Y-84028308D01*
X132364959Y-85045827D01*
X132364803Y-85224775D01*
X132537233Y-85642086D01*
X132856235Y-85961645D01*
X133273244Y-86134803D01*
X133724775Y-86135197D01*
X134142086Y-85962767D01*
X134461645Y-85643765D01*
X134634803Y-85226756D01*
X134635197Y-84775225D01*
X134462767Y-84357914D01*
X134143765Y-84038355D01*
X133726756Y-83865197D01*
X133545907Y-83865039D01*
X132585000Y-82904132D01*
X132585000Y-79000000D01*
X132521439Y-78680459D01*
X132340434Y-78409566D01*
X131540434Y-77609566D01*
X131458770Y-77555000D01*
X131332506Y-77470633D01*
X131303162Y-77314683D01*
X131164090Y-77098559D01*
X130951890Y-76953569D01*
X130700000Y-76902560D01*
X127700000Y-76902560D01*
X127464683Y-76946838D01*
X127248559Y-77085910D01*
X127103569Y-77298110D01*
X127052560Y-77550000D01*
X127052560Y-78850000D01*
X127096838Y-79085317D01*
X127170620Y-79199978D01*
X127103569Y-79298110D01*
X127052560Y-79550000D01*
X127052560Y-80850000D01*
X127096838Y-81085317D01*
X127170620Y-81199978D01*
X127103569Y-81298110D01*
X127069773Y-81465000D01*
X126550000Y-81465000D01*
X126268728Y-81520949D01*
X126030277Y-81680276D01*
X125845471Y-81865082D01*
X125525225Y-81864803D01*
X125107914Y-82037233D01*
X124788355Y-82356235D01*
X124615197Y-82773244D01*
X124614803Y-83224775D01*
X124635842Y-83275693D01*
X124607914Y-83287233D01*
X124305366Y-83589254D01*
X124345000Y-83390000D01*
X124345000Y-79949867D01*
X124656235Y-80261645D01*
X125073244Y-80434803D01*
X125524775Y-80435197D01*
X125942086Y-80262767D01*
X126261645Y-79943765D01*
X126434803Y-79526756D01*
X126435197Y-79075225D01*
X126262767Y-78657914D01*
X126035000Y-78429749D01*
X126035000Y-73300000D01*
X125979051Y-73018728D01*
X125966352Y-72999723D01*
X125819723Y-72780276D01*
X125234918Y-72195471D01*
X125235197Y-71875225D01*
X125062767Y-71457914D01*
X124743765Y-71138355D01*
X124326756Y-70965197D01*
X123875225Y-70964803D01*
X123457914Y-71137233D01*
X123138355Y-71456235D01*
X122965197Y-71873244D01*
X122964803Y-72324775D01*
X123137233Y-72742086D01*
X123456235Y-73061645D01*
X123873244Y-73234803D01*
X124195638Y-73235084D01*
X124565000Y-73604447D01*
X124565000Y-78429985D01*
X124345000Y-78649602D01*
X124345000Y-76410000D01*
X124289051Y-76128728D01*
X124217363Y-76021439D01*
X124129724Y-75890277D01*
X118619726Y-70380280D01*
X118619724Y-70380277D01*
X117819723Y-69580277D01*
X117581272Y-69420949D01*
X117570106Y-69418728D01*
X117300000Y-69365000D01*
X108900000Y-69365000D01*
X108629894Y-69418728D01*
X108618728Y-69420949D01*
X108380276Y-69580277D01*
X107780279Y-70180275D01*
X107780276Y-70180277D01*
X103489308Y-74471246D01*
X103428342Y-74164749D01*
X103415000Y-74144781D01*
X103415000Y-71424446D01*
X103719723Y-71119724D01*
X103879051Y-70881272D01*
X103885083Y-70850949D01*
X103935000Y-70600000D01*
X103935000Y-69271192D01*
X104068946Y-69185000D01*
X104435025Y-69185000D01*
X104598110Y-69296431D01*
X104850000Y-69347440D01*
X105750000Y-69347440D01*
X105985317Y-69303162D01*
X106201441Y-69164090D01*
X106346431Y-68951890D01*
X106397440Y-68700000D01*
X106397440Y-68200000D01*
X106353162Y-67964683D01*
X106214090Y-67748559D01*
X106001890Y-67603569D01*
X105750000Y-67552560D01*
X104850000Y-67552560D01*
X104614683Y-67596838D01*
X104431054Y-67715000D01*
X104064975Y-67715000D01*
X104044289Y-67700866D01*
X104101441Y-67664090D01*
X104246431Y-67451890D01*
X104297440Y-67200000D01*
X104297440Y-66700000D01*
X104273710Y-66573884D01*
X104334803Y-66426756D01*
X104335197Y-65975225D01*
X104162767Y-65557914D01*
X103843765Y-65238355D01*
X103426756Y-65065197D01*
X102975225Y-65064803D01*
X102557914Y-65237233D01*
X102238355Y-65556235D01*
X102065197Y-65973244D01*
X102064803Y-66424775D01*
X102127545Y-66576621D01*
X102102560Y-66700000D01*
X102102560Y-67200000D01*
X102146838Y-67435317D01*
X102285910Y-67651441D01*
X102355711Y-67699134D01*
X102298559Y-67735910D01*
X102153569Y-67948110D01*
X102102560Y-68200000D01*
X102102560Y-68613113D01*
X102022440Y-68532994D01*
X102022440Y-68150000D01*
X101978162Y-67914683D01*
X101839090Y-67698559D01*
X101626890Y-67553569D01*
X101375000Y-67502560D01*
X100625000Y-67502560D01*
X100389683Y-67546838D01*
X100173559Y-67685910D01*
X100100116Y-67793397D01*
X100039090Y-67698559D01*
X99826890Y-67553569D01*
X99575000Y-67502560D01*
X98825000Y-67502560D01*
X98589683Y-67546838D01*
X98373559Y-67685910D01*
X98300116Y-67793397D01*
X98239090Y-67698559D01*
X98026890Y-67553569D01*
X97775000Y-67502560D01*
X97025000Y-67502560D01*
X96789683Y-67546838D01*
X96573559Y-67685910D01*
X96428569Y-67898110D01*
X96377560Y-68150000D01*
X96377560Y-68338114D01*
X96119723Y-68080277D01*
X95881272Y-67920949D01*
X95600000Y-67865000D01*
X93800000Y-67865000D01*
X93518728Y-67920949D01*
X93280277Y-68080276D01*
X92280279Y-69080275D01*
X92280276Y-69080277D01*
X91980277Y-69380277D01*
X91820949Y-69618728D01*
X91765000Y-69900000D01*
X91765000Y-70580598D01*
X91750000Y-70577560D01*
X90950000Y-70577560D01*
X90714683Y-70621838D01*
X90498559Y-70760910D01*
X90353569Y-70973110D01*
X90302560Y-71225000D01*
X90302560Y-71975000D01*
X90315703Y-72044850D01*
X89980277Y-72380277D01*
X89831752Y-72602560D01*
X89600000Y-72602560D01*
X89364683Y-72646838D01*
X89148559Y-72785910D01*
X89003569Y-72998110D01*
X88952560Y-73250000D01*
X88952560Y-74250000D01*
X88996838Y-74485317D01*
X89135910Y-74701441D01*
X89348110Y-74846431D01*
X89600000Y-74897440D01*
X91400000Y-74897440D01*
X91635317Y-74853162D01*
X91851441Y-74714090D01*
X91996431Y-74501890D01*
X91999851Y-74485000D01*
X93045554Y-74485000D01*
X93995554Y-75435000D01*
X91951887Y-75435000D01*
X91864090Y-75298559D01*
X91651890Y-75153569D01*
X91400000Y-75102560D01*
X89600000Y-75102560D01*
X89364683Y-75146838D01*
X89148559Y-75285910D01*
X89003569Y-75498110D01*
X88952560Y-75750000D01*
X88952560Y-76750000D01*
X88996838Y-76985317D01*
X89135910Y-77201441D01*
X89168052Y-77223403D01*
X89070949Y-77368728D01*
X89029603Y-77576585D01*
X88898559Y-77660910D01*
X88753569Y-77873110D01*
X88702560Y-78125000D01*
X88702560Y-78875000D01*
X88746838Y-79110317D01*
X88885910Y-79326441D01*
X89098110Y-79471431D01*
X89350000Y-79522440D01*
X90150000Y-79522440D01*
X90385317Y-79478162D01*
X90601441Y-79339090D01*
X90746431Y-79126890D01*
X90797440Y-78875000D01*
X90797440Y-78125000D01*
X90753162Y-77889683D01*
X90673524Y-77765922D01*
X91019723Y-77419724D01*
X91034613Y-77397440D01*
X91400000Y-77397440D01*
X91635317Y-77353162D01*
X91851441Y-77214090D01*
X91996431Y-77001890D01*
X92016052Y-76905000D01*
X96291631Y-76905000D01*
X96336381Y-77129974D01*
X96346421Y-77145000D01*
X96336381Y-77160026D01*
X96311522Y-77285000D01*
X95080000Y-77285000D01*
X94760460Y-77348560D01*
X94489566Y-77529566D01*
X92254132Y-79765000D01*
X92001563Y-79765000D01*
X91801890Y-79628569D01*
X91550000Y-79577560D01*
X90750000Y-79577560D01*
X90514683Y-79621838D01*
X90298559Y-79760910D01*
X90153569Y-79973110D01*
X90102560Y-80225000D01*
X90102560Y-80975000D01*
X90146838Y-81210317D01*
X90285910Y-81426441D01*
X90315000Y-81446317D01*
X90315000Y-81750331D01*
X90298559Y-81760910D01*
X90153569Y-81973110D01*
X90102560Y-82225000D01*
X90102560Y-82975000D01*
X90146838Y-83210317D01*
X90215000Y-83316244D01*
X90215000Y-83850331D01*
X90198559Y-83860910D01*
X90053569Y-84073110D01*
X90002560Y-84325000D01*
X90002560Y-85075000D01*
X90046838Y-85310317D01*
X90185910Y-85526441D01*
X90398110Y-85671431D01*
X90650000Y-85722440D01*
X91450000Y-85722440D01*
X91486228Y-85715623D01*
X91773244Y-85834803D01*
X92224775Y-85835197D01*
X92642086Y-85662767D01*
X92961645Y-85343765D01*
X93134803Y-84926756D01*
X93135197Y-84475225D01*
X92962767Y-84057914D01*
X92643765Y-83738355D01*
X92226756Y-83565197D01*
X91885000Y-83564899D01*
X91885000Y-83514018D01*
X92001441Y-83439090D01*
X92146431Y-83226890D01*
X92197440Y-82975000D01*
X92197440Y-82225000D01*
X92153162Y-81989683D01*
X92014090Y-81773559D01*
X91985000Y-81753683D01*
X91985000Y-81449669D01*
X92001441Y-81439090D01*
X92004236Y-81435000D01*
X92600000Y-81435000D01*
X92919541Y-81371439D01*
X93190434Y-81190434D01*
X95425868Y-78955000D01*
X96105553Y-78955000D01*
X95880277Y-79180277D01*
X95720949Y-79418728D01*
X95665000Y-79700000D01*
X95665000Y-84300000D01*
X95720949Y-84581272D01*
X95880277Y-84819723D01*
X101280276Y-90219723D01*
X101348040Y-90265001D01*
X101518728Y-90379051D01*
X101800000Y-90435000D01*
X102329985Y-90435000D01*
X102556235Y-90661645D01*
X102973244Y-90834803D01*
X103424775Y-90835197D01*
X103842086Y-90662767D01*
X104049908Y-90455307D01*
X104056235Y-90461645D01*
X104473244Y-90634803D01*
X104924775Y-90635197D01*
X105342086Y-90462767D01*
X105661645Y-90143765D01*
X105748387Y-89934869D01*
X106025443Y-89935110D01*
X105137069Y-90823485D01*
X104600000Y-90716655D01*
X104026511Y-90830729D01*
X103540330Y-91155585D01*
X103215474Y-91641766D01*
X103101400Y-92215255D01*
X103101400Y-92584745D01*
X103215474Y-93158234D01*
X103540330Y-93644415D01*
X104026511Y-93969271D01*
X104382090Y-94040000D01*
X89460423Y-94040000D01*
X89700810Y-93680235D01*
X89816226Y-93100000D01*
X89700810Y-92519765D01*
X89372134Y-92027866D01*
X88880235Y-91699190D01*
X88300000Y-91583774D01*
X87719765Y-91699190D01*
X87710000Y-91705715D01*
X87710000Y-88500000D01*
X91752560Y-88500000D01*
X91752560Y-90100000D01*
X91796838Y-90335317D01*
X91935910Y-90551441D01*
X92148110Y-90696431D01*
X92400000Y-90747440D01*
X94000000Y-90747440D01*
X94235317Y-90703162D01*
X94451441Y-90564090D01*
X94596431Y-90351890D01*
X94647440Y-90100000D01*
X94647440Y-88500000D01*
X94603162Y-88264683D01*
X94464090Y-88048559D01*
X94251890Y-87903569D01*
X94000000Y-87852560D01*
X92400000Y-87852560D01*
X92164683Y-87896838D01*
X91948559Y-88035910D01*
X91803569Y-88248110D01*
X91752560Y-88500000D01*
X87710000Y-88500000D01*
X87710000Y-61543730D01*
X87957697Y-61709236D01*
X88500000Y-61817107D01*
X89042303Y-61709236D01*
X89502046Y-61402046D01*
X89809236Y-60942303D01*
X89917107Y-60400000D01*
X89809236Y-59857697D01*
X89502046Y-59397954D01*
X89220753Y-59210000D01*
X116873000Y-59210000D01*
X116873000Y-68500000D01*
X116873000Y-68500000D01*
G37*
X116873000Y-68500000D02*
X116881685Y-68546159D01*
X116908965Y-68588553D01*
X116950590Y-68616994D01*
X117000000Y-68627000D01*
X136373000Y-68627000D01*
X136373000Y-73265000D01*
X135943620Y-73265000D01*
X135926890Y-73253569D01*
X135675000Y-73202560D01*
X134925000Y-73202560D01*
X134689683Y-73246838D01*
X134473559Y-73385910D01*
X134446130Y-73426053D01*
X134364090Y-73298559D01*
X134151890Y-73153569D01*
X133900000Y-73102560D01*
X133400000Y-73102560D01*
X133164683Y-73146838D01*
X132948559Y-73285910D01*
X132900866Y-73355711D01*
X132864090Y-73298559D01*
X132651890Y-73153569D01*
X132400000Y-73102560D01*
X131900000Y-73102560D01*
X131664683Y-73146838D01*
X131448559Y-73285910D01*
X131303569Y-73498110D01*
X131252560Y-73750000D01*
X131252560Y-74650000D01*
X131296838Y-74885317D01*
X131435910Y-75101441D01*
X131648110Y-75246431D01*
X131900000Y-75297440D01*
X132400000Y-75297440D01*
X132635317Y-75253162D01*
X132851441Y-75114090D01*
X132899134Y-75044289D01*
X132935910Y-75101441D01*
X133148110Y-75246431D01*
X133400000Y-75297440D01*
X133900000Y-75297440D01*
X134135317Y-75253162D01*
X134351441Y-75114090D01*
X134412009Y-75025446D01*
X134460910Y-75101441D01*
X134673110Y-75246431D01*
X134925000Y-75297440D01*
X135675000Y-75297440D01*
X135910317Y-75253162D01*
X136093946Y-75135000D01*
X136373000Y-75135000D01*
X136373000Y-85500000D01*
X136381685Y-85546159D01*
X136408965Y-85588553D01*
X136450590Y-85616994D01*
X136500000Y-85627000D01*
X142944672Y-85627000D01*
X142973110Y-85646431D01*
X143225000Y-85697440D01*
X143975000Y-85697440D01*
X144210317Y-85653162D01*
X144250974Y-85627000D01*
X144790000Y-85627000D01*
X144790000Y-92125654D01*
X144363148Y-91840440D01*
X143800000Y-91728423D01*
X143236852Y-91840440D01*
X142759438Y-92159438D01*
X142440440Y-92636852D01*
X142328423Y-93200000D01*
X142440440Y-93763148D01*
X142625427Y-94040000D01*
X118288173Y-94040000D01*
X118398917Y-94019162D01*
X118615041Y-93880090D01*
X118760031Y-93667890D01*
X118811040Y-93416000D01*
X118811040Y-93235000D01*
X130200000Y-93235000D01*
X130519541Y-93171439D01*
X130790434Y-92990434D01*
X131890434Y-91890434D01*
X131964706Y-91779278D01*
X132046712Y-91673692D01*
X132054687Y-91644611D01*
X132071439Y-91619540D01*
X132097520Y-91488421D01*
X132132878Y-91359491D01*
X132178053Y-90727037D01*
X132361645Y-90543765D01*
X132534803Y-90126756D01*
X132535197Y-89675225D01*
X132362767Y-89257914D01*
X132043765Y-88938355D01*
X131626756Y-88765197D01*
X131347440Y-88764953D01*
X131347440Y-87550000D01*
X131303162Y-87314683D01*
X131229380Y-87200022D01*
X131296431Y-87101890D01*
X131347440Y-86850000D01*
X131347440Y-85550000D01*
X131303162Y-85314683D01*
X131229380Y-85200022D01*
X131296431Y-85101890D01*
X131347440Y-84850000D01*
X131347440Y-84028308D01*
X132364959Y-85045827D01*
X132364803Y-85224775D01*
X132537233Y-85642086D01*
X132856235Y-85961645D01*
X133273244Y-86134803D01*
X133724775Y-86135197D01*
X134142086Y-85962767D01*
X134461645Y-85643765D01*
X134634803Y-85226756D01*
X134635197Y-84775225D01*
X134462767Y-84357914D01*
X134143765Y-84038355D01*
X133726756Y-83865197D01*
X133545907Y-83865039D01*
X132585000Y-82904132D01*
X132585000Y-79000000D01*
X132521439Y-78680459D01*
X132340434Y-78409566D01*
X131540434Y-77609566D01*
X131458770Y-77555000D01*
X131332506Y-77470633D01*
X131303162Y-77314683D01*
X131164090Y-77098559D01*
X130951890Y-76953569D01*
X130700000Y-76902560D01*
X127700000Y-76902560D01*
X127464683Y-76946838D01*
X127248559Y-77085910D01*
X127103569Y-77298110D01*
X127052560Y-77550000D01*
X127052560Y-78850000D01*
X127096838Y-79085317D01*
X127170620Y-79199978D01*
X127103569Y-79298110D01*
X127052560Y-79550000D01*
X127052560Y-80850000D01*
X127096838Y-81085317D01*
X127170620Y-81199978D01*
X127103569Y-81298110D01*
X127069773Y-81465000D01*
X126550000Y-81465000D01*
X126268728Y-81520949D01*
X126030277Y-81680276D01*
X125845471Y-81865082D01*
X125525225Y-81864803D01*
X125107914Y-82037233D01*
X124788355Y-82356235D01*
X124615197Y-82773244D01*
X124614803Y-83224775D01*
X124635842Y-83275693D01*
X124607914Y-83287233D01*
X124305366Y-83589254D01*
X124345000Y-83390000D01*
X124345000Y-79949867D01*
X124656235Y-80261645D01*
X125073244Y-80434803D01*
X125524775Y-80435197D01*
X125942086Y-80262767D01*
X126261645Y-79943765D01*
X126434803Y-79526756D01*
X126435197Y-79075225D01*
X126262767Y-78657914D01*
X126035000Y-78429749D01*
X126035000Y-73300000D01*
X125979051Y-73018728D01*
X125966352Y-72999723D01*
X125819723Y-72780276D01*
X125234918Y-72195471D01*
X125235197Y-71875225D01*
X125062767Y-71457914D01*
X124743765Y-71138355D01*
X124326756Y-70965197D01*
X123875225Y-70964803D01*
X123457914Y-71137233D01*
X123138355Y-71456235D01*
X122965197Y-71873244D01*
X122964803Y-72324775D01*
X123137233Y-72742086D01*
X123456235Y-73061645D01*
X123873244Y-73234803D01*
X124195638Y-73235084D01*
X124565000Y-73604447D01*
X124565000Y-78429985D01*
X124345000Y-78649602D01*
X124345000Y-76410000D01*
X124289051Y-76128728D01*
X124217363Y-76021439D01*
X124129724Y-75890277D01*
X118619726Y-70380280D01*
X118619724Y-70380277D01*
X117819723Y-69580277D01*
X117581272Y-69420949D01*
X117570106Y-69418728D01*
X117300000Y-69365000D01*
X108900000Y-69365000D01*
X108629894Y-69418728D01*
X108618728Y-69420949D01*
X108380276Y-69580277D01*
X107780279Y-70180275D01*
X107780276Y-70180277D01*
X103489308Y-74471246D01*
X103428342Y-74164749D01*
X103415000Y-74144781D01*
X103415000Y-71424446D01*
X103719723Y-71119724D01*
X103879051Y-70881272D01*
X103885083Y-70850949D01*
X103935000Y-70600000D01*
X103935000Y-69271192D01*
X104068946Y-69185000D01*
X104435025Y-69185000D01*
X104598110Y-69296431D01*
X104850000Y-69347440D01*
X105750000Y-69347440D01*
X105985317Y-69303162D01*
X106201441Y-69164090D01*
X106346431Y-68951890D01*
X106397440Y-68700000D01*
X106397440Y-68200000D01*
X106353162Y-67964683D01*
X106214090Y-67748559D01*
X106001890Y-67603569D01*
X105750000Y-67552560D01*
X104850000Y-67552560D01*
X104614683Y-67596838D01*
X104431054Y-67715000D01*
X104064975Y-67715000D01*
X104044289Y-67700866D01*
X104101441Y-67664090D01*
X104246431Y-67451890D01*
X104297440Y-67200000D01*
X104297440Y-66700000D01*
X104273710Y-66573884D01*
X104334803Y-66426756D01*
X104335197Y-65975225D01*
X104162767Y-65557914D01*
X103843765Y-65238355D01*
X103426756Y-65065197D01*
X102975225Y-65064803D01*
X102557914Y-65237233D01*
X102238355Y-65556235D01*
X102065197Y-65973244D01*
X102064803Y-66424775D01*
X102127545Y-66576621D01*
X102102560Y-66700000D01*
X102102560Y-67200000D01*
X102146838Y-67435317D01*
X102285910Y-67651441D01*
X102355711Y-67699134D01*
X102298559Y-67735910D01*
X102153569Y-67948110D01*
X102102560Y-68200000D01*
X102102560Y-68613113D01*
X102022440Y-68532994D01*
X102022440Y-68150000D01*
X101978162Y-67914683D01*
X101839090Y-67698559D01*
X101626890Y-67553569D01*
X101375000Y-67502560D01*
X100625000Y-67502560D01*
X100389683Y-67546838D01*
X100173559Y-67685910D01*
X100100116Y-67793397D01*
X100039090Y-67698559D01*
X99826890Y-67553569D01*
X99575000Y-67502560D01*
X98825000Y-67502560D01*
X98589683Y-67546838D01*
X98373559Y-67685910D01*
X98300116Y-67793397D01*
X98239090Y-67698559D01*
X98026890Y-67553569D01*
X97775000Y-67502560D01*
X97025000Y-67502560D01*
X96789683Y-67546838D01*
X96573559Y-67685910D01*
X96428569Y-67898110D01*
X96377560Y-68150000D01*
X96377560Y-68338114D01*
X96119723Y-68080277D01*
X95881272Y-67920949D01*
X95600000Y-67865000D01*
X93800000Y-67865000D01*
X93518728Y-67920949D01*
X93280277Y-68080276D01*
X92280279Y-69080275D01*
X92280276Y-69080277D01*
X91980277Y-69380277D01*
X91820949Y-69618728D01*
X91765000Y-69900000D01*
X91765000Y-70580598D01*
X91750000Y-70577560D01*
X90950000Y-70577560D01*
X90714683Y-70621838D01*
X90498559Y-70760910D01*
X90353569Y-70973110D01*
X90302560Y-71225000D01*
X90302560Y-71975000D01*
X90315703Y-72044850D01*
X89980277Y-72380277D01*
X89831752Y-72602560D01*
X89600000Y-72602560D01*
X89364683Y-72646838D01*
X89148559Y-72785910D01*
X89003569Y-72998110D01*
X88952560Y-73250000D01*
X88952560Y-74250000D01*
X88996838Y-74485317D01*
X89135910Y-74701441D01*
X89348110Y-74846431D01*
X89600000Y-74897440D01*
X91400000Y-74897440D01*
X91635317Y-74853162D01*
X91851441Y-74714090D01*
X91996431Y-74501890D01*
X91999851Y-74485000D01*
X93045554Y-74485000D01*
X93995554Y-75435000D01*
X91951887Y-75435000D01*
X91864090Y-75298559D01*
X91651890Y-75153569D01*
X91400000Y-75102560D01*
X89600000Y-75102560D01*
X89364683Y-75146838D01*
X89148559Y-75285910D01*
X89003569Y-75498110D01*
X88952560Y-75750000D01*
X88952560Y-76750000D01*
X88996838Y-76985317D01*
X89135910Y-77201441D01*
X89168052Y-77223403D01*
X89070949Y-77368728D01*
X89029603Y-77576585D01*
X88898559Y-77660910D01*
X88753569Y-77873110D01*
X88702560Y-78125000D01*
X88702560Y-78875000D01*
X88746838Y-79110317D01*
X88885910Y-79326441D01*
X89098110Y-79471431D01*
X89350000Y-79522440D01*
X90150000Y-79522440D01*
X90385317Y-79478162D01*
X90601441Y-79339090D01*
X90746431Y-79126890D01*
X90797440Y-78875000D01*
X90797440Y-78125000D01*
X90753162Y-77889683D01*
X90673524Y-77765922D01*
X91019723Y-77419724D01*
X91034613Y-77397440D01*
X91400000Y-77397440D01*
X91635317Y-77353162D01*
X91851441Y-77214090D01*
X91996431Y-77001890D01*
X92016052Y-76905000D01*
X96291631Y-76905000D01*
X96336381Y-77129974D01*
X96346421Y-77145000D01*
X96336381Y-77160026D01*
X96311522Y-77285000D01*
X95080000Y-77285000D01*
X94760460Y-77348560D01*
X94489566Y-77529566D01*
X92254132Y-79765000D01*
X92001563Y-79765000D01*
X91801890Y-79628569D01*
X91550000Y-79577560D01*
X90750000Y-79577560D01*
X90514683Y-79621838D01*
X90298559Y-79760910D01*
X90153569Y-79973110D01*
X90102560Y-80225000D01*
X90102560Y-80975000D01*
X90146838Y-81210317D01*
X90285910Y-81426441D01*
X90315000Y-81446317D01*
X90315000Y-81750331D01*
X90298559Y-81760910D01*
X90153569Y-81973110D01*
X90102560Y-82225000D01*
X90102560Y-82975000D01*
X90146838Y-83210317D01*
X90215000Y-83316244D01*
X90215000Y-83850331D01*
X90198559Y-83860910D01*
X90053569Y-84073110D01*
X90002560Y-84325000D01*
X90002560Y-85075000D01*
X90046838Y-85310317D01*
X90185910Y-85526441D01*
X90398110Y-85671431D01*
X90650000Y-85722440D01*
X91450000Y-85722440D01*
X91486228Y-85715623D01*
X91773244Y-85834803D01*
X92224775Y-85835197D01*
X92642086Y-85662767D01*
X92961645Y-85343765D01*
X93134803Y-84926756D01*
X93135197Y-84475225D01*
X92962767Y-84057914D01*
X92643765Y-83738355D01*
X92226756Y-83565197D01*
X91885000Y-83564899D01*
X91885000Y-83514018D01*
X92001441Y-83439090D01*
X92146431Y-83226890D01*
X92197440Y-82975000D01*
X92197440Y-82225000D01*
X92153162Y-81989683D01*
X92014090Y-81773559D01*
X91985000Y-81753683D01*
X91985000Y-81449669D01*
X92001441Y-81439090D01*
X92004236Y-81435000D01*
X92600000Y-81435000D01*
X92919541Y-81371439D01*
X93190434Y-81190434D01*
X95425868Y-78955000D01*
X96105553Y-78955000D01*
X95880277Y-79180277D01*
X95720949Y-79418728D01*
X95665000Y-79700000D01*
X95665000Y-84300000D01*
X95720949Y-84581272D01*
X95880277Y-84819723D01*
X101280276Y-90219723D01*
X101348040Y-90265001D01*
X101518728Y-90379051D01*
X101800000Y-90435000D01*
X102329985Y-90435000D01*
X102556235Y-90661645D01*
X102973244Y-90834803D01*
X103424775Y-90835197D01*
X103842086Y-90662767D01*
X104049908Y-90455307D01*
X104056235Y-90461645D01*
X104473244Y-90634803D01*
X104924775Y-90635197D01*
X105342086Y-90462767D01*
X105661645Y-90143765D01*
X105748387Y-89934869D01*
X106025443Y-89935110D01*
X105137069Y-90823485D01*
X104600000Y-90716655D01*
X104026511Y-90830729D01*
X103540330Y-91155585D01*
X103215474Y-91641766D01*
X103101400Y-92215255D01*
X103101400Y-92584745D01*
X103215474Y-93158234D01*
X103540330Y-93644415D01*
X104026511Y-93969271D01*
X104382090Y-94040000D01*
X89460423Y-94040000D01*
X89700810Y-93680235D01*
X89816226Y-93100000D01*
X89700810Y-92519765D01*
X89372134Y-92027866D01*
X88880235Y-91699190D01*
X88300000Y-91583774D01*
X87719765Y-91699190D01*
X87710000Y-91705715D01*
X87710000Y-88500000D01*
X91752560Y-88500000D01*
X91752560Y-90100000D01*
X91796838Y-90335317D01*
X91935910Y-90551441D01*
X92148110Y-90696431D01*
X92400000Y-90747440D01*
X94000000Y-90747440D01*
X94235317Y-90703162D01*
X94451441Y-90564090D01*
X94596431Y-90351890D01*
X94647440Y-90100000D01*
X94647440Y-88500000D01*
X94603162Y-88264683D01*
X94464090Y-88048559D01*
X94251890Y-87903569D01*
X94000000Y-87852560D01*
X92400000Y-87852560D01*
X92164683Y-87896838D01*
X91948559Y-88035910D01*
X91803569Y-88248110D01*
X91752560Y-88500000D01*
X87710000Y-88500000D01*
X87710000Y-61543730D01*
X87957697Y-61709236D01*
X88500000Y-61817107D01*
X89042303Y-61709236D01*
X89502046Y-61402046D01*
X89809236Y-60942303D01*
X89917107Y-60400000D01*
X89809236Y-59857697D01*
X89502046Y-59397954D01*
X89220753Y-59210000D01*
X116873000Y-59210000D01*
X116873000Y-68500000D01*
G36*
X118073244Y-75534803D02*
X118495725Y-75535172D01*
X119765000Y-76804447D01*
X119765000Y-86400000D01*
X119808950Y-86620949D01*
X119820949Y-86681272D01*
X119965000Y-86896859D01*
X119965000Y-87729985D01*
X119738355Y-87956235D01*
X119565197Y-88373244D01*
X119564803Y-88824775D01*
X119737233Y-89242086D01*
X120056235Y-89561645D01*
X120473244Y-89734803D01*
X120924775Y-89735197D01*
X121342086Y-89562767D01*
X121349821Y-89555045D01*
X121456235Y-89661645D01*
X121873244Y-89834803D01*
X122324775Y-89835197D01*
X122742086Y-89662767D01*
X123061645Y-89343765D01*
X123234803Y-88926756D01*
X123235197Y-88475225D01*
X123062767Y-88057914D01*
X122817549Y-87812268D01*
X122779051Y-87618728D01*
X122743283Y-87565197D01*
X122619723Y-87380276D01*
X121935000Y-86695554D01*
X121935000Y-75774447D01*
X122875000Y-76714447D01*
X122875000Y-78835553D01*
X122730277Y-78980277D01*
X122570949Y-79218728D01*
X122515001Y-79500000D01*
X122570949Y-79781272D01*
X122730277Y-80019723D01*
X122875000Y-80116424D01*
X122875000Y-83085553D01*
X122230277Y-83730277D01*
X122070949Y-83968728D01*
X122015000Y-84250000D01*
X122015000Y-85750000D01*
X122070949Y-86031272D01*
X122230277Y-86269723D01*
X123230277Y-87269724D01*
X123468728Y-87429051D01*
X123750000Y-87485000D01*
X125695554Y-87485000D01*
X126930277Y-88719724D01*
X127052560Y-88801430D01*
X127052560Y-88850000D01*
X127096838Y-89085317D01*
X127235910Y-89301441D01*
X127448110Y-89446431D01*
X127700000Y-89497440D01*
X130338198Y-89497440D01*
X130265197Y-89673244D01*
X130264803Y-90124775D01*
X130437233Y-90542086D01*
X130511682Y-90616665D01*
X130489314Y-90929818D01*
X129854132Y-91565000D01*
X125174247Y-91565000D01*
X125271440Y-91419540D01*
X125335000Y-91100000D01*
X125335000Y-89470189D01*
X125461645Y-89343765D01*
X125634803Y-88926756D01*
X125635197Y-88475225D01*
X125462767Y-88057914D01*
X125143765Y-87738355D01*
X124726756Y-87565197D01*
X124275225Y-87564803D01*
X123857914Y-87737233D01*
X123538355Y-88056235D01*
X123365197Y-88473244D01*
X123364803Y-88924775D01*
X123537233Y-89342086D01*
X123665000Y-89470076D01*
X123665000Y-90754132D01*
X122854132Y-91565000D01*
X118811040Y-91565000D01*
X118811040Y-91384000D01*
X118766762Y-91148683D01*
X118627690Y-90932559D01*
X118415490Y-90787569D01*
X118163600Y-90736560D01*
X118135000Y-90736560D01*
X118135000Y-86900000D01*
X118071439Y-86580459D01*
X117890434Y-86309566D01*
X117535041Y-85954173D01*
X117535197Y-85775225D01*
X117362767Y-85357914D01*
X117305045Y-85300092D01*
X117461645Y-85143765D01*
X117634803Y-84726756D01*
X117635197Y-84275225D01*
X117462767Y-83857914D01*
X117143765Y-83538355D01*
X116726756Y-83365197D01*
X116634900Y-83365117D01*
X116635197Y-83025225D01*
X116462767Y-82607914D01*
X116143765Y-82288355D01*
X115726756Y-82115197D01*
X115347440Y-82114866D01*
X115347440Y-81550000D01*
X115303162Y-81314683D01*
X115229380Y-81200022D01*
X115296431Y-81101890D01*
X115330227Y-80935000D01*
X116050000Y-80935000D01*
X116331272Y-80879051D01*
X116569723Y-80719723D01*
X117519724Y-79769723D01*
X117679051Y-79531272D01*
X117699384Y-79429051D01*
X117735000Y-79250000D01*
X117735000Y-75394351D01*
X118073244Y-75534803D01*
X118073244Y-75534803D01*
G37*
X118073244Y-75534803D02*
X118495725Y-75535172D01*
X119765000Y-76804447D01*
X119765000Y-86400000D01*
X119808950Y-86620949D01*
X119820949Y-86681272D01*
X119965000Y-86896859D01*
X119965000Y-87729985D01*
X119738355Y-87956235D01*
X119565197Y-88373244D01*
X119564803Y-88824775D01*
X119737233Y-89242086D01*
X120056235Y-89561645D01*
X120473244Y-89734803D01*
X120924775Y-89735197D01*
X121342086Y-89562767D01*
X121349821Y-89555045D01*
X121456235Y-89661645D01*
X121873244Y-89834803D01*
X122324775Y-89835197D01*
X122742086Y-89662767D01*
X123061645Y-89343765D01*
X123234803Y-88926756D01*
X123235197Y-88475225D01*
X123062767Y-88057914D01*
X122817549Y-87812268D01*
X122779051Y-87618728D01*
X122743283Y-87565197D01*
X122619723Y-87380276D01*
X121935000Y-86695554D01*
X121935000Y-75774447D01*
X122875000Y-76714447D01*
X122875000Y-78835553D01*
X122730277Y-78980277D01*
X122570949Y-79218728D01*
X122515001Y-79500000D01*
X122570949Y-79781272D01*
X122730277Y-80019723D01*
X122875000Y-80116424D01*
X122875000Y-83085553D01*
X122230277Y-83730277D01*
X122070949Y-83968728D01*
X122015000Y-84250000D01*
X122015000Y-85750000D01*
X122070949Y-86031272D01*
X122230277Y-86269723D01*
X123230277Y-87269724D01*
X123468728Y-87429051D01*
X123750000Y-87485000D01*
X125695554Y-87485000D01*
X126930277Y-88719724D01*
X127052560Y-88801430D01*
X127052560Y-88850000D01*
X127096838Y-89085317D01*
X127235910Y-89301441D01*
X127448110Y-89446431D01*
X127700000Y-89497440D01*
X130338198Y-89497440D01*
X130265197Y-89673244D01*
X130264803Y-90124775D01*
X130437233Y-90542086D01*
X130511682Y-90616665D01*
X130489314Y-90929818D01*
X129854132Y-91565000D01*
X125174247Y-91565000D01*
X125271440Y-91419540D01*
X125335000Y-91100000D01*
X125335000Y-89470189D01*
X125461645Y-89343765D01*
X125634803Y-88926756D01*
X125635197Y-88475225D01*
X125462767Y-88057914D01*
X125143765Y-87738355D01*
X124726756Y-87565197D01*
X124275225Y-87564803D01*
X123857914Y-87737233D01*
X123538355Y-88056235D01*
X123365197Y-88473244D01*
X123364803Y-88924775D01*
X123537233Y-89342086D01*
X123665000Y-89470076D01*
X123665000Y-90754132D01*
X122854132Y-91565000D01*
X118811040Y-91565000D01*
X118811040Y-91384000D01*
X118766762Y-91148683D01*
X118627690Y-90932559D01*
X118415490Y-90787569D01*
X118163600Y-90736560D01*
X118135000Y-90736560D01*
X118135000Y-86900000D01*
X118071439Y-86580459D01*
X117890434Y-86309566D01*
X117535041Y-85954173D01*
X117535197Y-85775225D01*
X117362767Y-85357914D01*
X117305045Y-85300092D01*
X117461645Y-85143765D01*
X117634803Y-84726756D01*
X117635197Y-84275225D01*
X117462767Y-83857914D01*
X117143765Y-83538355D01*
X116726756Y-83365197D01*
X116634900Y-83365117D01*
X116635197Y-83025225D01*
X116462767Y-82607914D01*
X116143765Y-82288355D01*
X115726756Y-82115197D01*
X115347440Y-82114866D01*
X115347440Y-81550000D01*
X115303162Y-81314683D01*
X115229380Y-81200022D01*
X115296431Y-81101890D01*
X115330227Y-80935000D01*
X116050000Y-80935000D01*
X116331272Y-80879051D01*
X116569723Y-80719723D01*
X117519724Y-79769723D01*
X117679051Y-79531272D01*
X117699384Y-79429051D01*
X117735000Y-79250000D01*
X117735000Y-75394351D01*
X118073244Y-75534803D01*
G36*
X101720026Y-75713619D02*
X102030000Y-75775277D01*
X102314254Y-75718735D01*
X102336381Y-75829974D01*
X102346421Y-75845000D01*
X102336381Y-75860026D01*
X102274723Y-76170000D01*
X102336381Y-76479974D01*
X102346421Y-76495000D01*
X102336381Y-76510026D01*
X102274723Y-76820000D01*
X102336381Y-77129974D01*
X102346421Y-77145000D01*
X102336381Y-77160026D01*
X102274723Y-77470000D01*
X102336381Y-77779974D01*
X102346421Y-77795000D01*
X102336381Y-77810026D01*
X102274723Y-78120000D01*
X102336381Y-78429974D01*
X102346421Y-78445000D01*
X102336381Y-78460026D01*
X102274723Y-78770000D01*
X102336381Y-79079974D01*
X102346421Y-79095000D01*
X102336381Y-79110026D01*
X102274723Y-79420000D01*
X102336381Y-79729974D01*
X102346421Y-79745000D01*
X102336381Y-79760026D01*
X102314254Y-79871265D01*
X102030000Y-79814723D01*
X101720026Y-79876381D01*
X101705000Y-79886421D01*
X101689974Y-79876381D01*
X101380000Y-79814723D01*
X101070026Y-79876381D01*
X101055000Y-79886421D01*
X101039974Y-79876381D01*
X100730000Y-79814723D01*
X100420026Y-79876381D01*
X100405000Y-79886421D01*
X100389974Y-79876381D01*
X100080000Y-79814723D01*
X99770026Y-79876381D01*
X99755000Y-79886421D01*
X99739974Y-79876381D01*
X99430000Y-79814723D01*
X99120026Y-79876381D01*
X99105000Y-79886421D01*
X99089974Y-79876381D01*
X98780000Y-79814723D01*
X98470026Y-79876381D01*
X98455000Y-79886421D01*
X98439974Y-79876381D01*
X98342924Y-79857076D01*
X98323619Y-79760026D01*
X98313579Y-79745000D01*
X98323619Y-79729974D01*
X98385277Y-79420000D01*
X98323619Y-79110026D01*
X98313579Y-79095000D01*
X98323619Y-79079974D01*
X98385277Y-78770000D01*
X98323619Y-78460026D01*
X98313579Y-78445000D01*
X98323619Y-78429974D01*
X98385277Y-78120000D01*
X98323619Y-77810026D01*
X98313579Y-77795000D01*
X98323619Y-77779974D01*
X98385277Y-77470000D01*
X98323619Y-77160026D01*
X98313579Y-77145000D01*
X98323619Y-77129974D01*
X98385277Y-76820000D01*
X98323619Y-76510026D01*
X98313579Y-76495000D01*
X98323619Y-76479974D01*
X98385277Y-76170000D01*
X98323619Y-75860026D01*
X98313579Y-75845000D01*
X98323619Y-75829974D01*
X98342924Y-75732924D01*
X98439974Y-75713619D01*
X98455000Y-75703579D01*
X98470026Y-75713619D01*
X98780000Y-75775277D01*
X99089974Y-75713619D01*
X99105000Y-75703579D01*
X99120026Y-75713619D01*
X99430000Y-75775277D01*
X99739974Y-75713619D01*
X99755000Y-75703579D01*
X99770026Y-75713619D01*
X100080000Y-75775277D01*
X100389974Y-75713619D01*
X100405000Y-75703579D01*
X100420026Y-75713619D01*
X100730000Y-75775277D01*
X101039974Y-75713619D01*
X101055000Y-75703579D01*
X101070026Y-75713619D01*
X101380000Y-75775277D01*
X101689974Y-75713619D01*
X101705000Y-75703579D01*
X101720026Y-75713619D01*
X101720026Y-75713619D01*
G37*
X101720026Y-75713619D02*
X102030000Y-75775277D01*
X102314254Y-75718735D01*
X102336381Y-75829974D01*
X102346421Y-75845000D01*
X102336381Y-75860026D01*
X102274723Y-76170000D01*
X102336381Y-76479974D01*
X102346421Y-76495000D01*
X102336381Y-76510026D01*
X102274723Y-76820000D01*
X102336381Y-77129974D01*
X102346421Y-77145000D01*
X102336381Y-77160026D01*
X102274723Y-77470000D01*
X102336381Y-77779974D01*
X102346421Y-77795000D01*
X102336381Y-77810026D01*
X102274723Y-78120000D01*
X102336381Y-78429974D01*
X102346421Y-78445000D01*
X102336381Y-78460026D01*
X102274723Y-78770000D01*
X102336381Y-79079974D01*
X102346421Y-79095000D01*
X102336381Y-79110026D01*
X102274723Y-79420000D01*
X102336381Y-79729974D01*
X102346421Y-79745000D01*
X102336381Y-79760026D01*
X102314254Y-79871265D01*
X102030000Y-79814723D01*
X101720026Y-79876381D01*
X101705000Y-79886421D01*
X101689974Y-79876381D01*
X101380000Y-79814723D01*
X101070026Y-79876381D01*
X101055000Y-79886421D01*
X101039974Y-79876381D01*
X100730000Y-79814723D01*
X100420026Y-79876381D01*
X100405000Y-79886421D01*
X100389974Y-79876381D01*
X100080000Y-79814723D01*
X99770026Y-79876381D01*
X99755000Y-79886421D01*
X99739974Y-79876381D01*
X99430000Y-79814723D01*
X99120026Y-79876381D01*
X99105000Y-79886421D01*
X99089974Y-79876381D01*
X98780000Y-79814723D01*
X98470026Y-79876381D01*
X98455000Y-79886421D01*
X98439974Y-79876381D01*
X98342924Y-79857076D01*
X98323619Y-79760026D01*
X98313579Y-79745000D01*
X98323619Y-79729974D01*
X98385277Y-79420000D01*
X98323619Y-79110026D01*
X98313579Y-79095000D01*
X98323619Y-79079974D01*
X98385277Y-78770000D01*
X98323619Y-78460026D01*
X98313579Y-78445000D01*
X98323619Y-78429974D01*
X98385277Y-78120000D01*
X98323619Y-77810026D01*
X98313579Y-77795000D01*
X98323619Y-77779974D01*
X98385277Y-77470000D01*
X98323619Y-77160026D01*
X98313579Y-77145000D01*
X98323619Y-77129974D01*
X98385277Y-76820000D01*
X98323619Y-76510026D01*
X98313579Y-76495000D01*
X98323619Y-76479974D01*
X98385277Y-76170000D01*
X98323619Y-75860026D01*
X98313579Y-75845000D01*
X98323619Y-75829974D01*
X98342924Y-75732924D01*
X98439974Y-75713619D01*
X98455000Y-75703579D01*
X98470026Y-75713619D01*
X98780000Y-75775277D01*
X99089974Y-75713619D01*
X99105000Y-75703579D01*
X99120026Y-75713619D01*
X99430000Y-75775277D01*
X99739974Y-75713619D01*
X99755000Y-75703579D01*
X99770026Y-75713619D01*
X100080000Y-75775277D01*
X100389974Y-75713619D01*
X100405000Y-75703579D01*
X100420026Y-75713619D01*
X100730000Y-75775277D01*
X101039974Y-75713619D01*
X101055000Y-75703579D01*
X101070026Y-75713619D01*
X101380000Y-75775277D01*
X101689974Y-75713619D01*
X101705000Y-75703579D01*
X101720026Y-75713619D01*
G36*
X109890000Y-73875000D02*
X109890000Y-77570553D01*
X109425554Y-78035000D01*
X107411109Y-78035000D01*
X107421439Y-78019540D01*
X107430670Y-77973135D01*
X107496431Y-77876890D01*
X107545300Y-77635568D01*
X107840434Y-77340434D01*
X108021440Y-77069540D01*
X108085000Y-76750000D01*
X108085000Y-76099669D01*
X108101441Y-76089090D01*
X108246431Y-75876890D01*
X108297440Y-75625000D01*
X108297440Y-75383428D01*
X109910890Y-73769978D01*
X109890000Y-73875000D01*
X109890000Y-73875000D01*
G37*
X109890000Y-73875000D02*
X109890000Y-77570553D01*
X109425554Y-78035000D01*
X107411109Y-78035000D01*
X107421439Y-78019540D01*
X107430670Y-77973135D01*
X107496431Y-77876890D01*
X107545300Y-77635568D01*
X107840434Y-77340434D01*
X108021440Y-77069540D01*
X108085000Y-76750000D01*
X108085000Y-76099669D01*
X108101441Y-76089090D01*
X108246431Y-75876890D01*
X108297440Y-75625000D01*
X108297440Y-75383428D01*
X109910890Y-73769978D01*
X109890000Y-73875000D01*
G36*
X114356235Y-73461645D02*
X114773244Y-73634803D01*
X115224775Y-73635197D01*
X115515000Y-73515278D01*
X115515000Y-77445553D01*
X115495554Y-77465000D01*
X115331446Y-77465000D01*
X115303162Y-77314683D01*
X115229380Y-77200022D01*
X115296431Y-77101890D01*
X115347440Y-76850000D01*
X115347440Y-75550000D01*
X115303162Y-75314683D01*
X115164090Y-75098559D01*
X114951890Y-74953569D01*
X114700000Y-74902560D01*
X111700000Y-74902560D01*
X111464683Y-74946838D01*
X111360000Y-75014200D01*
X111360000Y-74179446D01*
X112304447Y-73235000D01*
X114129985Y-73235000D01*
X114356235Y-73461645D01*
X114356235Y-73461645D01*
G37*
X114356235Y-73461645D02*
X114773244Y-73634803D01*
X115224775Y-73635197D01*
X115515000Y-73515278D01*
X115515000Y-77445553D01*
X115495554Y-77465000D01*
X115331446Y-77465000D01*
X115303162Y-77314683D01*
X115229380Y-77200022D01*
X115296431Y-77101890D01*
X115347440Y-76850000D01*
X115347440Y-75550000D01*
X115303162Y-75314683D01*
X115164090Y-75098559D01*
X114951890Y-74953569D01*
X114700000Y-74902560D01*
X111700000Y-74902560D01*
X111464683Y-74946838D01*
X111360000Y-75014200D01*
X111360000Y-74179446D01*
X112304447Y-73235000D01*
X114129985Y-73235000D01*
X114356235Y-73461645D01*
M02*
