G04 #@! TF.FileFunction,Copper,L1,Top,Signal*
%FSLAX46Y46*%
G04 Gerber Fmt 4.6, Leading zero omitted, Abs format (unit mm)*
G04 Created by KiCad (PCBNEW 4.0.5+dfsg1-4~bpo8+1) date Wed Oct 25 14:31:00 2017*
%MOMM*%
%LPD*%
G01*
G04 APERTURE LIST*
%ADD10C,0.100000*%
%ADD11R,1.600000X1.600000*%
%ADD12O,1.600000X1.600000*%
%ADD13C,1.000000*%
%ADD14O,0.800000X1.800000*%
%ADD15R,2.540000X5.080000*%
%ADD16C,12.000000*%
%ADD17R,2.000000X1.000000*%
%ADD18R,0.750000X0.800000*%
%ADD19R,0.800000X0.750000*%
%ADD20R,0.797560X0.797560*%
%ADD21R,0.700000X1.300000*%
%ADD22R,1.727200X2.032000*%
%ADD23O,1.727200X2.032000*%
%ADD24R,0.400000X0.510000*%
%ADD25R,0.500000X0.900000*%
%ADD26R,0.900000X0.500000*%
%ADD27R,1.600000X2.000000*%
%ADD28O,0.250000X0.500000*%
%ADD29R,2.000000X0.900000*%
%ADD30C,0.500000*%
%ADD31R,0.270000X0.325000*%
%ADD32C,0.600000*%
%ADD33C,0.200000*%
%ADD34C,0.400000*%
%ADD35C,0.250000*%
%ADD36C,0.350000*%
%ADD37C,0.300000*%
%ADD38C,0.254000*%
G04 APERTURE END LIST*
D10*
D11*
X93200000Y-89300000D03*
D12*
X91400000Y-89300000D03*
D13*
X109430000Y-77290000D03*
D14*
X128650000Y-77250000D03*
X127550000Y-77250000D03*
X126450000Y-77250000D03*
X125350000Y-77250000D03*
X124250000Y-77250000D03*
X123150000Y-77250000D03*
X122050000Y-77250000D03*
X120950000Y-77250000D03*
X119850000Y-77250000D03*
X119850000Y-86950000D03*
X120950000Y-86950000D03*
X122050000Y-86950000D03*
X123150000Y-86950000D03*
X124250000Y-86950000D03*
X125350000Y-86950000D03*
X126450000Y-86950000D03*
X127550000Y-86950000D03*
X128650000Y-86950000D03*
D13*
X93250000Y-82500000D03*
X133570000Y-76230000D03*
X133500000Y-78250000D03*
X133500000Y-79750000D03*
X109250000Y-64000000D03*
X109250000Y-62500000D03*
X109250000Y-61000000D03*
X107750000Y-64000000D03*
X107750000Y-62500000D03*
X107750000Y-61000000D03*
X106250000Y-64000000D03*
X106250000Y-62500000D03*
X106250000Y-61000000D03*
X138500000Y-91500000D03*
X138500000Y-90000000D03*
X138500000Y-88500000D03*
X137000000Y-91500000D03*
X137000000Y-90000000D03*
X137000000Y-88500000D03*
X135500000Y-91500000D03*
X135500000Y-90000000D03*
X135500000Y-88500000D03*
X116000000Y-67750000D03*
X116000000Y-66000000D03*
X116000000Y-64500000D03*
X116000000Y-63000000D03*
X116000000Y-61500000D03*
X116000000Y-60000000D03*
X89750000Y-90750000D03*
X89750000Y-89250000D03*
X101750000Y-79000000D03*
X101750000Y-76500000D03*
X99250000Y-79000000D03*
X99250000Y-76500000D03*
X133460000Y-69310000D03*
X133100000Y-72300000D03*
X135750000Y-82750000D03*
X135750000Y-81250000D03*
X135750000Y-79750000D03*
X135750000Y-78250000D03*
X135640000Y-76250000D03*
X133500000Y-81250000D03*
X135750000Y-84500000D03*
X131150000Y-69270000D03*
X135840000Y-71160000D03*
X135750000Y-69250000D03*
X135750000Y-86250000D03*
X141750000Y-86250000D03*
X140250000Y-86250000D03*
X138750000Y-86250000D03*
D15*
X117230000Y-78300000D03*
X94370000Y-78300000D03*
D16*
X105800000Y-78300000D03*
D17*
X128670000Y-66190000D03*
X128670000Y-60190000D03*
D18*
X96600000Y-90550000D03*
X96600000Y-89050000D03*
D19*
X97750000Y-92900000D03*
X96250000Y-92900000D03*
D18*
X128730000Y-73560000D03*
X128730000Y-75060000D03*
D19*
X126500000Y-69950000D03*
X125000000Y-69950000D03*
X124550000Y-74200000D03*
X123050000Y-74200000D03*
D18*
X132500000Y-90250000D03*
X132500000Y-91750000D03*
X120500000Y-71050000D03*
X120500000Y-69550000D03*
X125700000Y-89950000D03*
X125700000Y-91450000D03*
X118600000Y-71050000D03*
X118600000Y-69550000D03*
D20*
X88600000Y-70650700D03*
X88600000Y-72149300D03*
X88600000Y-76049300D03*
X88600000Y-74550700D03*
D21*
X99550000Y-92600000D03*
X101450000Y-92600000D03*
D22*
X117300000Y-92400000D03*
D23*
X114760000Y-92400000D03*
X112220000Y-92400000D03*
X109680000Y-92400000D03*
X107140000Y-92400000D03*
X104600000Y-92400000D03*
D24*
X129700000Y-91250000D03*
X130700000Y-91250000D03*
X130200000Y-89950000D03*
X122800000Y-91650000D03*
X123800000Y-91650000D03*
X123300000Y-90350000D03*
D25*
X91950000Y-68600000D03*
X93450000Y-68600000D03*
D26*
X90900000Y-72250000D03*
X90900000Y-70750000D03*
X91000000Y-76050000D03*
X91000000Y-74550000D03*
X128670000Y-71270000D03*
X128670000Y-69770000D03*
X127800000Y-91450000D03*
X127800000Y-89950000D03*
X120900000Y-91750000D03*
X120900000Y-90250000D03*
D27*
X92300000Y-60800000D03*
X92300000Y-66200000D03*
D28*
X98750000Y-90750000D03*
X99250000Y-90750000D03*
X99750000Y-90750000D03*
X100250000Y-90750000D03*
X100750000Y-90750000D03*
X101250000Y-90750000D03*
X101250000Y-88850000D03*
X100750000Y-88850000D03*
X100250000Y-88850000D03*
X99750000Y-88850000D03*
X99250000Y-88850000D03*
X98750000Y-88850000D03*
D29*
X100000000Y-89800000D03*
D30*
X99350000Y-89800000D03*
X100000000Y-89800000D03*
X100650000Y-89800000D03*
D26*
X126600000Y-73950000D03*
X126600000Y-75450000D03*
D31*
X125100000Y-72525000D03*
X125500000Y-72525000D03*
X125900000Y-72525000D03*
X125900000Y-72075000D03*
X125500000Y-72075000D03*
X125100000Y-72075000D03*
D13*
X137250000Y-86250000D03*
X103200000Y-66200000D03*
X111750000Y-74250000D03*
X88200000Y-73500000D03*
X107100000Y-67800000D03*
X122900000Y-72800000D03*
X95300000Y-84500000D03*
X95500000Y-89000000D03*
X89600000Y-72000000D03*
X94100000Y-60700000D03*
X103900000Y-73000000D03*
X131700000Y-86600000D03*
X132600000Y-92800000D03*
X100400000Y-77800000D03*
X119100000Y-89000000D03*
X131400000Y-72500000D03*
X110250000Y-72250000D03*
X98700000Y-72500000D03*
X131400000Y-89900000D03*
X124500000Y-88700000D03*
X95400000Y-73900000D03*
X92000000Y-84700000D03*
X116400000Y-86000000D03*
X104400000Y-85700000D03*
X133500000Y-85000000D03*
X109900000Y-84500000D03*
X95300000Y-69700000D03*
X103200000Y-89700000D03*
X104700000Y-89500000D03*
X92500000Y-72300000D03*
X125300000Y-79300000D03*
X124100000Y-72100000D03*
X97300000Y-83800000D03*
X116500000Y-84500000D03*
X115500000Y-83250000D03*
X115000000Y-72500000D03*
X123750000Y-85000000D03*
X105900000Y-88800000D03*
X120000000Y-74000000D03*
X99400000Y-70500000D03*
X122100000Y-88700000D03*
X118300000Y-74400000D03*
X100400000Y-71200000D03*
X120700000Y-88600000D03*
X125250000Y-84250000D03*
X106000000Y-87500000D03*
X125750000Y-83000000D03*
X107500000Y-87600000D03*
D32*
X128670000Y-69770000D02*
X128670000Y-66190000D01*
D33*
X128670000Y-69770000D02*
X126680000Y-69770000D01*
X126680000Y-69770000D02*
X126500000Y-69950000D01*
D34*
X89630000Y-68530000D02*
X89630000Y-65170000D01*
X89630000Y-65170000D02*
X90700000Y-64100000D01*
X97800000Y-90750000D02*
X97800000Y-89100000D01*
X98050000Y-88850000D02*
X98750000Y-88850000D01*
X97800000Y-89100000D02*
X98050000Y-88850000D01*
D33*
X100250000Y-88850000D02*
X100250000Y-88350000D01*
X100250000Y-88350000D02*
X100000000Y-88100000D01*
X100000000Y-88100000D02*
X99100000Y-88100000D01*
X99100000Y-88100000D02*
X98750000Y-88450000D01*
X98750000Y-88450000D02*
X98750000Y-88850000D01*
X100750000Y-88850000D02*
X100250000Y-88850000D01*
D34*
X92050000Y-76050000D02*
X91000000Y-76050000D01*
X94100000Y-74000000D02*
X92050000Y-76050000D01*
X94100000Y-72200000D02*
X94100000Y-74000000D01*
X91700000Y-69800000D02*
X94100000Y-72200000D01*
X90900000Y-69800000D02*
X91700000Y-69800000D01*
X89630000Y-68530000D02*
X90900000Y-69800000D01*
X93600000Y-64100000D02*
X90700000Y-64100000D01*
X95600000Y-66100000D02*
X93600000Y-64100000D01*
X103100000Y-66100000D02*
X95600000Y-66100000D01*
D33*
X103200000Y-66200000D02*
X103100000Y-66100000D01*
X91000000Y-76050000D02*
X91000000Y-76700000D01*
D34*
X92900000Y-88200000D02*
X92900000Y-89300000D01*
X91900000Y-87200000D02*
X92900000Y-88200000D01*
X89600000Y-87200000D02*
X91900000Y-87200000D01*
X88200000Y-85800000D02*
X89600000Y-87200000D01*
X88200000Y-78300000D02*
X88200000Y-85800000D01*
X88900000Y-77600000D02*
X88200000Y-78300000D01*
X90100000Y-77600000D02*
X88900000Y-77600000D01*
X91000000Y-76700000D02*
X90100000Y-77600000D01*
X96600000Y-90550000D02*
X95350000Y-90550000D01*
X94100000Y-89300000D02*
X92900000Y-89300000D01*
X95350000Y-90550000D02*
X94100000Y-89300000D01*
X98750000Y-90750000D02*
X97800000Y-90750000D01*
X97800000Y-90750000D02*
X97450000Y-90750000D01*
X97250000Y-90550000D02*
X96600000Y-90550000D01*
X97450000Y-90750000D02*
X97250000Y-90550000D01*
D33*
X98750000Y-90750000D02*
X97900000Y-90750000D01*
X97900000Y-90750000D02*
X96800000Y-90750000D01*
X96800000Y-90750000D02*
X96600000Y-90550000D01*
D34*
X105800000Y-76700000D02*
X105800000Y-78300000D01*
D33*
X111750000Y-74250000D02*
X107700000Y-78300000D01*
X107700000Y-78300000D02*
X111750000Y-74250000D01*
D34*
X131700000Y-86520000D02*
X131700000Y-85210000D01*
X131700000Y-85210000D02*
X126450000Y-79960000D01*
X131700000Y-86600000D02*
X131700000Y-86520000D01*
X88600000Y-73500000D02*
X88200000Y-73500000D01*
X125000000Y-69950000D02*
X122210000Y-69950000D01*
D33*
X121940000Y-69680000D02*
X121940000Y-69740000D01*
D34*
X122210000Y-69950000D02*
X121940000Y-69680000D01*
X128730000Y-75060000D02*
X128730000Y-77170000D01*
D33*
X128730000Y-77170000D02*
X128650000Y-77250000D01*
D34*
X128730000Y-75060000D02*
X130940000Y-75060000D01*
X131400000Y-72500000D02*
X131400000Y-74600000D01*
X130940000Y-75060000D02*
X131400000Y-74600000D01*
D33*
X125900000Y-72075000D02*
X126795000Y-72075000D01*
X128050000Y-75060000D02*
X128730000Y-75060000D01*
X127740000Y-74750000D02*
X128050000Y-75060000D01*
X127740000Y-73020000D02*
X127740000Y-74750000D01*
X126795000Y-72075000D02*
X127740000Y-73020000D01*
D35*
X131400000Y-72500000D02*
X131400000Y-72500000D01*
D34*
X118600000Y-69550000D02*
X116750000Y-69550000D01*
X115000000Y-67800000D02*
X107100000Y-67800000D01*
X116750000Y-69550000D02*
X115000000Y-67800000D01*
D33*
X125100000Y-72525000D02*
X125100000Y-72700000D01*
X123300000Y-73200000D02*
X122900000Y-72800000D01*
X124600000Y-73200000D02*
X123300000Y-73200000D01*
X125100000Y-72700000D02*
X124600000Y-73200000D01*
D34*
X123050000Y-74200000D02*
X123050000Y-70850000D01*
X121750000Y-69550000D02*
X120500000Y-69550000D01*
X123050000Y-70850000D02*
X121940000Y-69740000D01*
D33*
X121940000Y-69740000D02*
X121750000Y-69550000D01*
X123050000Y-72950000D02*
X123050000Y-74200000D01*
X122900000Y-72800000D02*
X123050000Y-72950000D01*
D34*
X126450000Y-79100000D02*
X128100000Y-79100000D01*
X128650000Y-78550000D02*
X128650000Y-77250000D01*
X128100000Y-79100000D02*
X128650000Y-78550000D01*
X118600000Y-69550000D02*
X120500000Y-69550000D01*
D33*
X105800000Y-78300000D02*
X101000000Y-78300000D01*
D34*
X101000000Y-78300000D02*
X95300000Y-84000000D01*
D33*
X95300000Y-84000000D02*
X95300000Y-84500000D01*
D34*
X96600000Y-89050000D02*
X95550000Y-89050000D01*
X95550000Y-89050000D02*
X95500000Y-89000000D01*
X96250000Y-92900000D02*
X93500000Y-92900000D01*
X93500000Y-92900000D02*
X91650000Y-91050000D01*
X91650000Y-91050000D02*
X91650000Y-89300000D01*
D33*
X99750000Y-88850000D02*
X99750000Y-89550000D01*
X99750000Y-89550000D02*
X100000000Y-89800000D01*
X99750000Y-88850000D02*
X99250000Y-88850000D01*
D34*
X88600000Y-72149300D02*
X89450700Y-72149300D01*
D33*
X89450700Y-72149300D02*
X89600000Y-72000000D01*
D34*
X94000000Y-60800000D02*
X92300000Y-60800000D01*
X94100000Y-60700000D02*
X94000000Y-60800000D01*
X103900000Y-73000000D02*
X105800000Y-74900000D01*
X105800000Y-74900000D02*
X105800000Y-78300000D01*
X126450000Y-77250000D02*
X126450000Y-79100000D01*
X126450000Y-79100000D02*
X126450000Y-79960000D01*
D33*
X127800000Y-89950000D02*
X128550000Y-89950000D01*
X131200000Y-88700000D02*
X131700000Y-88200000D01*
X129800000Y-88700000D02*
X131200000Y-88700000D01*
X128550000Y-89950000D02*
X129800000Y-88700000D01*
X131700000Y-88200000D02*
X131700000Y-86600000D01*
X131700000Y-88200000D02*
X131700000Y-86600000D01*
X132500000Y-92700000D02*
X132500000Y-91450000D01*
X132600000Y-92800000D02*
X132500000Y-92700000D01*
X125700000Y-91450000D02*
X125950000Y-91450000D01*
X125950000Y-91450000D02*
X127450000Y-89950000D01*
X127450000Y-89950000D02*
X127800000Y-89950000D01*
X88600000Y-74100000D02*
X88600000Y-74550700D01*
D34*
X88600000Y-74550700D02*
X88600000Y-73500000D01*
X88600000Y-73500000D02*
X88600000Y-72149300D01*
D33*
X100400000Y-77800000D02*
X100900000Y-78300000D01*
X100900000Y-78300000D02*
X105800000Y-78300000D01*
X119850000Y-86950000D02*
X119850000Y-88250000D01*
X119850000Y-88250000D02*
X119100000Y-89000000D01*
X120350000Y-90250000D02*
X120900000Y-90250000D01*
X119100000Y-89000000D02*
X120350000Y-90250000D01*
X109900000Y-74700000D02*
X106300000Y-78300000D01*
X106300000Y-78300000D02*
X105800000Y-78300000D01*
X99750000Y-90750000D02*
X99750000Y-90050000D01*
X99750000Y-90050000D02*
X100000000Y-89800000D01*
D34*
X99350000Y-73150000D02*
X99350000Y-73400000D01*
X99350000Y-73400000D02*
X98150000Y-74600000D01*
X99450000Y-73250000D02*
X99350000Y-73150000D01*
X99350000Y-73150000D02*
X98700000Y-72500000D01*
X101500000Y-73250000D02*
X99450000Y-73250000D01*
X103000000Y-71750000D02*
X101500000Y-73250000D01*
X109750000Y-71750000D02*
X103000000Y-71750000D01*
X110250000Y-72250000D02*
X109750000Y-71750000D01*
X95400000Y-72180000D02*
X95400000Y-72050000D01*
X95400000Y-72050000D02*
X91950000Y-68600000D01*
X95400000Y-73900000D02*
X95400000Y-72180000D01*
X96100000Y-74600000D02*
X95400000Y-73900000D01*
X98150000Y-74600000D02*
X96100000Y-74600000D01*
X96800000Y-81000000D02*
X96800000Y-81200000D01*
X96800000Y-81200000D02*
X94100000Y-83900000D01*
X94100000Y-85100000D02*
X94100000Y-83900000D01*
X94100000Y-85200000D02*
X94100000Y-85100000D01*
X96800000Y-81000000D02*
X96800000Y-80300000D01*
X131400000Y-89900000D02*
X131350000Y-89950000D01*
X131350000Y-89950000D02*
X130200000Y-89950000D01*
X123300000Y-89600000D02*
X123300000Y-90350000D01*
X124500000Y-88700000D02*
X123300000Y-89600000D01*
X96800000Y-75300000D02*
X95400000Y-73900000D01*
X96800000Y-80300000D02*
X96800000Y-75300000D01*
X104400000Y-85700000D02*
X94600000Y-85700000D01*
X93600000Y-84700000D02*
X92000000Y-84700000D01*
X94600000Y-85700000D02*
X94100000Y-85200000D01*
X94100000Y-85200000D02*
X93600000Y-84700000D01*
X115550000Y-86850000D02*
X116400000Y-86000000D01*
X104400000Y-85700000D02*
X105900000Y-85700000D01*
X115500000Y-86900000D02*
X115550000Y-86850000D01*
X115550000Y-86850000D02*
X116000000Y-86400000D01*
X116000000Y-86400000D02*
X116300000Y-86100000D01*
X109300000Y-86900000D02*
X115500000Y-86900000D01*
X108800000Y-86400000D02*
X109300000Y-86900000D01*
X106600000Y-86400000D02*
X108800000Y-86400000D01*
X105900000Y-85700000D02*
X106600000Y-86400000D01*
X101450000Y-92600000D02*
X101450000Y-91750000D01*
X101450000Y-91750000D02*
X102100000Y-91100000D01*
X102100000Y-88000000D02*
X104400000Y-85700000D01*
X102100000Y-91100000D02*
X102100000Y-88000000D01*
D33*
X104100000Y-85700000D02*
X104400000Y-85700000D01*
X100750000Y-90750000D02*
X100750000Y-91050000D01*
X100750000Y-91050000D02*
X101450000Y-91750000D01*
D34*
X97750000Y-92900000D02*
X97750000Y-93450000D01*
X101450000Y-93550000D02*
X101450000Y-92600000D01*
X101100000Y-93900000D02*
X101450000Y-93550000D01*
X98200000Y-93900000D02*
X101100000Y-93900000D01*
X97750000Y-93450000D02*
X98200000Y-93900000D01*
D33*
X125500000Y-72075000D02*
X125500000Y-71460000D01*
X125690000Y-71270000D02*
X128670000Y-71270000D01*
X125500000Y-71460000D02*
X125690000Y-71270000D01*
X128730000Y-73560000D02*
X128730000Y-71330000D01*
X128730000Y-71330000D02*
X128670000Y-71270000D01*
D34*
X133500000Y-89500000D02*
X132750000Y-90250000D01*
X133500000Y-85000000D02*
X133500000Y-89500000D01*
X132750000Y-90250000D02*
X132500000Y-90250000D01*
D36*
X132500000Y-90250000D02*
X132500000Y-90200000D01*
X130700000Y-91250000D02*
X131500000Y-91250000D01*
X131500000Y-91250000D02*
X132500000Y-90250000D01*
D33*
X132500000Y-90250000D02*
X132500000Y-89600000D01*
X131500000Y-91250000D02*
X132500000Y-90250000D01*
X132500000Y-89950000D02*
X132500000Y-89600000D01*
X132500000Y-89950000D02*
X132500000Y-89700000D01*
D36*
X125700000Y-89950000D02*
X125850000Y-89950000D01*
X125850000Y-89950000D02*
X127550000Y-88250000D01*
X127550000Y-88250000D02*
X127550000Y-86950000D01*
X123800000Y-91650000D02*
X123800000Y-91500000D01*
X123800000Y-91500000D02*
X125350000Y-89950000D01*
X125350000Y-89950000D02*
X125700000Y-89950000D01*
D33*
X127550000Y-86950000D02*
X127550000Y-88100000D01*
X127550000Y-88100000D02*
X125700000Y-89950000D01*
X125700000Y-90000000D02*
X125700000Y-89950000D01*
X90900000Y-70750000D02*
X88699300Y-70750000D01*
X88699300Y-70750000D02*
X88600000Y-70650700D01*
X88600000Y-76049300D02*
X88950700Y-76049300D01*
X88950700Y-76049300D02*
X90450000Y-74550000D01*
X90450000Y-74550000D02*
X91000000Y-74550000D01*
X99250000Y-90750000D02*
X99250000Y-91450000D01*
X99550000Y-91750000D02*
X99550000Y-92600000D01*
X99250000Y-91450000D02*
X99550000Y-91750000D01*
X111000000Y-70900000D02*
X111400000Y-70900000D01*
X113000000Y-84000000D02*
X112500000Y-84500000D01*
X113000000Y-72500000D02*
X113000000Y-84000000D01*
X111400000Y-70900000D02*
X113000000Y-72500000D01*
X95300000Y-69700000D02*
X97200000Y-69700000D01*
X101200000Y-72100000D02*
X102400000Y-70900000D01*
X102400000Y-70900000D02*
X111000000Y-70900000D01*
X97200000Y-69700000D02*
X99600000Y-72100000D01*
X99600000Y-72100000D02*
X101200000Y-72100000D01*
X93450000Y-68600000D02*
X94800000Y-68600000D01*
X94800000Y-68600000D02*
X95300000Y-69100000D01*
X95300000Y-69100000D02*
X95300000Y-69700000D01*
X112500000Y-84500000D02*
X109900000Y-84500000D01*
X92300000Y-66200000D02*
X92300000Y-66500000D01*
X92300000Y-66500000D02*
X93450000Y-67650000D01*
X93450000Y-67650000D02*
X93450000Y-68600000D01*
X103900000Y-90400000D02*
X105500000Y-90400000D01*
X103200000Y-89700000D02*
X103900000Y-90400000D01*
X106700000Y-90400000D02*
X105500000Y-90400000D01*
X106700000Y-90400000D02*
X118100000Y-90400000D01*
X118100000Y-90400000D02*
X119300000Y-91600000D01*
X119300000Y-91600000D02*
X119300000Y-92300000D01*
X119300000Y-92300000D02*
X120200000Y-93200000D01*
X120200000Y-93200000D02*
X127200000Y-93200000D01*
X127200000Y-93200000D02*
X127800000Y-92600000D01*
X127800000Y-92600000D02*
X127800000Y-91450000D01*
X127800000Y-91450000D02*
X128950000Y-91450000D01*
X129150000Y-91250000D02*
X129700000Y-91250000D01*
X128950000Y-91450000D02*
X129150000Y-91250000D01*
X105000000Y-89800000D02*
X107000000Y-89800000D01*
X104700000Y-89500000D02*
X105000000Y-89800000D01*
X120350000Y-91750000D02*
X120900000Y-91750000D01*
X118400000Y-89800000D02*
X120350000Y-91750000D01*
X107000000Y-89800000D02*
X118400000Y-89800000D01*
X120900000Y-91750000D02*
X122700000Y-91750000D01*
X122700000Y-91750000D02*
X122800000Y-91650000D01*
X120900000Y-91750000D02*
X120650000Y-91750000D01*
X90900000Y-72250000D02*
X92450000Y-72250000D01*
X92450000Y-72250000D02*
X92500000Y-72300000D01*
X125100000Y-72075000D02*
X124125000Y-72075000D01*
X125350000Y-79250000D02*
X125350000Y-77250000D01*
X125300000Y-79300000D02*
X125350000Y-79250000D01*
X124125000Y-72075000D02*
X124100000Y-72100000D01*
X125500000Y-72525000D02*
X125500000Y-73200000D01*
X125500000Y-73200000D02*
X124550000Y-74150000D01*
X124550000Y-74150000D02*
X124550000Y-74200000D01*
X124250000Y-77250000D02*
X124250000Y-75750000D01*
X124550000Y-75450000D02*
X124550000Y-74200000D01*
X124250000Y-75750000D02*
X124550000Y-75450000D01*
X111500000Y-85500000D02*
X115500000Y-85500000D01*
X115500000Y-85500000D02*
X116500000Y-84500000D01*
X100100000Y-84800000D02*
X98000000Y-84800000D01*
X97300000Y-84100000D02*
X97300000Y-83800000D01*
X98000000Y-84800000D02*
X97300000Y-84100000D01*
X107000000Y-85500000D02*
X106500000Y-85000000D01*
X111500000Y-85500000D02*
X107000000Y-85500000D01*
X105500000Y-84800000D02*
X103100000Y-84800000D01*
X106300000Y-84800000D02*
X105500000Y-84800000D01*
X106500000Y-85000000D02*
X106300000Y-84800000D01*
X100100000Y-84800000D02*
X103100000Y-84800000D01*
X115500000Y-73000000D02*
X115500000Y-83250000D01*
X115000000Y-72500000D02*
X115500000Y-73000000D01*
X122250000Y-84800000D02*
X123550000Y-84800000D01*
X123550000Y-84800000D02*
X123750000Y-85000000D01*
X109100000Y-89300000D02*
X107700000Y-89300000D01*
X106400000Y-89300000D02*
X107700000Y-89300000D01*
X122300000Y-84800000D02*
X122250000Y-84800000D01*
X122250000Y-84800000D02*
X119900000Y-84800000D01*
X119900000Y-84800000D02*
X119450000Y-85250000D01*
X119450000Y-85250000D02*
X118800000Y-85900000D01*
X122400000Y-84800000D02*
X122300000Y-84800000D01*
X109100000Y-89300000D02*
X116800000Y-89300000D01*
X116800000Y-89300000D02*
X118800000Y-87300000D01*
X118800000Y-87300000D02*
X118800000Y-85900000D01*
X105900000Y-88800000D02*
X106400000Y-89300000D01*
X115700000Y-69700000D02*
X118500000Y-72500000D01*
X100100000Y-69700000D02*
X115700000Y-69700000D01*
X120000000Y-74000000D02*
X118500000Y-72500000D01*
X99400000Y-70500000D02*
X99400000Y-70400000D01*
X99400000Y-70400000D02*
X100100000Y-69700000D01*
X122050000Y-86950000D02*
X122050000Y-88650000D01*
X122050000Y-88650000D02*
X122100000Y-88700000D01*
X118300000Y-74400000D02*
X118300000Y-74240000D01*
X118300000Y-74240000D02*
X114360000Y-70300000D01*
X114360000Y-70300000D02*
X100800000Y-70300000D01*
X100800000Y-70300000D02*
X100400000Y-70700000D01*
X100400000Y-70700000D02*
X100400000Y-71200000D01*
X120950000Y-86950000D02*
X120950000Y-88350000D01*
X120950000Y-88350000D02*
X120700000Y-88600000D01*
X122750000Y-83800000D02*
X124800000Y-83800000D01*
X124800000Y-83800000D02*
X125250000Y-84250000D01*
X125250000Y-84250000D02*
X124800000Y-83800000D01*
X118200000Y-85400000D02*
X118400000Y-85200000D01*
X123400000Y-83800000D02*
X123250000Y-83800000D01*
X123250000Y-83800000D02*
X122750000Y-83800000D01*
X122750000Y-83800000D02*
X119800000Y-83800000D01*
X119800000Y-83800000D02*
X118400000Y-85200000D01*
X118200000Y-86900000D02*
X118200000Y-85400000D01*
X116400000Y-88700000D02*
X118200000Y-86900000D01*
X107200000Y-88700000D02*
X116400000Y-88700000D01*
X106000000Y-87500000D02*
X107200000Y-88700000D01*
X124500000Y-83000000D02*
X125750000Y-83000000D01*
X119550000Y-83000000D02*
X119480000Y-83000000D01*
X124500000Y-83000000D02*
X124000000Y-83000000D01*
X124000000Y-83000000D02*
X119550000Y-83000000D01*
X119480000Y-83000000D02*
X117430000Y-85050000D01*
X117430000Y-85050000D02*
X117430000Y-86670000D01*
X117430000Y-85050000D02*
X117430000Y-86670000D01*
X116100000Y-88000000D02*
X117430000Y-86670000D01*
X107900000Y-88000000D02*
X116100000Y-88000000D01*
X107500000Y-87600000D02*
X107900000Y-88000000D01*
X118600000Y-71050000D02*
X120500000Y-71050000D01*
X120500000Y-71050000D02*
X121400000Y-71950000D01*
X121400000Y-71950000D02*
X121400000Y-74600000D01*
X121400000Y-74600000D02*
X120500000Y-75500000D01*
X120500000Y-75500000D02*
X119000000Y-75500000D01*
X119000000Y-75500000D02*
X117230000Y-77270000D01*
X117230000Y-77270000D02*
X117230000Y-78300000D01*
X117230000Y-78300000D02*
X117230000Y-78330000D01*
X117230000Y-78330000D02*
X119100000Y-80200000D01*
X125300000Y-80200000D02*
X126300000Y-81200000D01*
X119100000Y-80200000D02*
X125300000Y-80200000D01*
X125350000Y-86950000D02*
X125350000Y-85650000D01*
X126700000Y-81600000D02*
X126300000Y-81200000D01*
X126700000Y-84300000D02*
X126700000Y-81600000D01*
X125350000Y-85650000D02*
X126700000Y-84300000D01*
D37*
X126600000Y-73950000D02*
X126600000Y-73180000D01*
X126600000Y-73180000D02*
X125945000Y-72525000D01*
X125945000Y-72525000D02*
X125900000Y-72525000D01*
D33*
X126600000Y-73800000D02*
X126600000Y-73950000D01*
X127550000Y-77250000D02*
X127550000Y-76400000D01*
X127550000Y-76400000D02*
X126600000Y-75450000D01*
D38*
G36*
X136373000Y-85500000D02*
X136381685Y-85546159D01*
X136408965Y-85588553D01*
X136450590Y-85616994D01*
X136500000Y-85627000D01*
X144790000Y-85627000D01*
X144790000Y-92125654D01*
X144363148Y-91840440D01*
X143800000Y-91728423D01*
X143236852Y-91840440D01*
X142759438Y-92159438D01*
X142440440Y-92636852D01*
X142328423Y-93200000D01*
X142440440Y-93763148D01*
X142625427Y-94040000D01*
X118288173Y-94040000D01*
X118398917Y-94019162D01*
X118615041Y-93880090D01*
X118760031Y-93667890D01*
X118811040Y-93416000D01*
X118811040Y-92850486D01*
X119680276Y-93719723D01*
X119869909Y-93846431D01*
X119918728Y-93879051D01*
X120200000Y-93935000D01*
X127200000Y-93935000D01*
X127481272Y-93879051D01*
X127719723Y-93719723D01*
X128319723Y-93119724D01*
X128479051Y-92881272D01*
X128499482Y-92778560D01*
X128535000Y-92600000D01*
X128535000Y-92271192D01*
X128668946Y-92185000D01*
X128950000Y-92185000D01*
X129231272Y-92129051D01*
X129266910Y-92105238D01*
X129500000Y-92152440D01*
X129900000Y-92152440D01*
X130135317Y-92108162D01*
X130198478Y-92067519D01*
X130248110Y-92101431D01*
X130500000Y-92152440D01*
X130900000Y-92152440D01*
X131135317Y-92108162D01*
X131210163Y-92060000D01*
X131500000Y-92060000D01*
X131809974Y-91998342D01*
X132072756Y-91822756D01*
X132598073Y-91297440D01*
X132875000Y-91297440D01*
X133110317Y-91253162D01*
X133326441Y-91114090D01*
X133471431Y-90901890D01*
X133520300Y-90660568D01*
X134090434Y-90090434D01*
X134127474Y-90035000D01*
X134271439Y-89819541D01*
X134335000Y-89500000D01*
X134335000Y-85770189D01*
X134461645Y-85643765D01*
X134634803Y-85226756D01*
X134635197Y-84775225D01*
X134462767Y-84357914D01*
X134143765Y-84038355D01*
X133726756Y-83865197D01*
X133275225Y-83864803D01*
X132857914Y-84037233D01*
X132538355Y-84356235D01*
X132365197Y-84773244D01*
X132364803Y-85224775D01*
X132537233Y-85642086D01*
X132665000Y-85770076D01*
X132665000Y-88897821D01*
X132500000Y-88865000D01*
X132218728Y-88920949D01*
X132103349Y-88998043D01*
X132043765Y-88938355D01*
X131626756Y-88765197D01*
X131175225Y-88764803D01*
X130757914Y-88937233D01*
X130605672Y-89089210D01*
X130400000Y-89047560D01*
X130000000Y-89047560D01*
X129764683Y-89091838D01*
X129548559Y-89230910D01*
X129403569Y-89443110D01*
X129352560Y-89695000D01*
X129352560Y-90205000D01*
X129383509Y-90369479D01*
X129264683Y-90391838D01*
X129048559Y-90530910D01*
X129045184Y-90535849D01*
X128868728Y-90570949D01*
X128659123Y-90711002D01*
X128501890Y-90603569D01*
X128250000Y-90552560D01*
X127350000Y-90552560D01*
X127114683Y-90596838D01*
X126898559Y-90735910D01*
X126753569Y-90948110D01*
X126702560Y-91200000D01*
X126702560Y-91700000D01*
X126746838Y-91935317D01*
X126885910Y-92151441D01*
X127065000Y-92273808D01*
X127065000Y-92295553D01*
X126895554Y-92465000D01*
X124302393Y-92465000D01*
X124451441Y-92369090D01*
X124596431Y-92156890D01*
X124647440Y-91905000D01*
X124647440Y-91798072D01*
X125448073Y-90997440D01*
X126075000Y-90997440D01*
X126310317Y-90953162D01*
X126526441Y-90814090D01*
X126671431Y-90601890D01*
X126722440Y-90350000D01*
X126722440Y-90223072D01*
X128122756Y-88822757D01*
X128218777Y-88679051D01*
X128298342Y-88559974D01*
X128320318Y-88449494D01*
X128650000Y-88515072D01*
X129046077Y-88436287D01*
X129381856Y-88211928D01*
X129606215Y-87876149D01*
X129685000Y-87480072D01*
X129685000Y-86419928D01*
X129606215Y-86023851D01*
X129381856Y-85688072D01*
X129046077Y-85463713D01*
X128650000Y-85384928D01*
X128253923Y-85463713D01*
X128100000Y-85566560D01*
X127946077Y-85463713D01*
X127550000Y-85384928D01*
X127153923Y-85463713D01*
X127000000Y-85566560D01*
X126846077Y-85463713D01*
X126620587Y-85418860D01*
X127219723Y-84819724D01*
X127379051Y-84581272D01*
X127381104Y-84570949D01*
X127435000Y-84300000D01*
X127435000Y-81600000D01*
X127379051Y-81318728D01*
X127379051Y-81318727D01*
X127219723Y-81080276D01*
X126819726Y-80680280D01*
X126819724Y-80680277D01*
X126172350Y-80032904D01*
X126261645Y-79943765D01*
X126434803Y-79526756D01*
X126435197Y-79075225D01*
X126262767Y-78657914D01*
X126095962Y-78490817D01*
X126306215Y-78176149D01*
X126385000Y-77780072D01*
X126385000Y-76719928D01*
X126310907Y-76347440D01*
X126457994Y-76347440D01*
X126567342Y-76456788D01*
X126515000Y-76719928D01*
X126515000Y-77780072D01*
X126593785Y-78176149D01*
X126818144Y-78511928D01*
X127153923Y-78736287D01*
X127550000Y-78815072D01*
X127946077Y-78736287D01*
X128281856Y-78511928D01*
X128506215Y-78176149D01*
X128585000Y-77780072D01*
X128585000Y-76719928D01*
X128506215Y-76323851D01*
X128281856Y-75988072D01*
X127967422Y-75777975D01*
X127697440Y-75507993D01*
X127697440Y-75200000D01*
X127653162Y-74964683D01*
X127514090Y-74748559D01*
X127444289Y-74700866D01*
X127501441Y-74664090D01*
X127646431Y-74451890D01*
X127697440Y-74200000D01*
X127697440Y-73700000D01*
X127653162Y-73464683D01*
X127514090Y-73248559D01*
X127380478Y-73157266D01*
X127325245Y-72879594D01*
X127155079Y-72624921D01*
X126603546Y-72073388D01*
X126559539Y-72005000D01*
X127805025Y-72005000D01*
X127968110Y-72116431D01*
X127995000Y-72121876D01*
X127995000Y-72637069D01*
X127903559Y-72695910D01*
X127758569Y-72908110D01*
X127707560Y-73160000D01*
X127707560Y-73960000D01*
X127751838Y-74195317D01*
X127890910Y-74411441D01*
X128103110Y-74556431D01*
X128355000Y-74607440D01*
X129105000Y-74607440D01*
X129340317Y-74563162D01*
X129556441Y-74424090D01*
X129701431Y-74211890D01*
X129752440Y-73960000D01*
X129752440Y-73160000D01*
X129708162Y-72924683D01*
X129569090Y-72708559D01*
X129465000Y-72637437D01*
X129465000Y-72052583D01*
X129571441Y-71984090D01*
X129716431Y-71771890D01*
X129767440Y-71520000D01*
X129767440Y-71020000D01*
X129723162Y-70784683D01*
X129584090Y-70568559D01*
X129514289Y-70520866D01*
X129571441Y-70484090D01*
X129716431Y-70271890D01*
X129767440Y-70020000D01*
X129767440Y-69520000D01*
X129723162Y-69284683D01*
X129605000Y-69101054D01*
X129605000Y-68627000D01*
X136373000Y-68627000D01*
X136373000Y-85500000D01*
X136373000Y-85500000D01*
G37*
X136373000Y-85500000D02*
X136381685Y-85546159D01*
X136408965Y-85588553D01*
X136450590Y-85616994D01*
X136500000Y-85627000D01*
X144790000Y-85627000D01*
X144790000Y-92125654D01*
X144363148Y-91840440D01*
X143800000Y-91728423D01*
X143236852Y-91840440D01*
X142759438Y-92159438D01*
X142440440Y-92636852D01*
X142328423Y-93200000D01*
X142440440Y-93763148D01*
X142625427Y-94040000D01*
X118288173Y-94040000D01*
X118398917Y-94019162D01*
X118615041Y-93880090D01*
X118760031Y-93667890D01*
X118811040Y-93416000D01*
X118811040Y-92850486D01*
X119680276Y-93719723D01*
X119869909Y-93846431D01*
X119918728Y-93879051D01*
X120200000Y-93935000D01*
X127200000Y-93935000D01*
X127481272Y-93879051D01*
X127719723Y-93719723D01*
X128319723Y-93119724D01*
X128479051Y-92881272D01*
X128499482Y-92778560D01*
X128535000Y-92600000D01*
X128535000Y-92271192D01*
X128668946Y-92185000D01*
X128950000Y-92185000D01*
X129231272Y-92129051D01*
X129266910Y-92105238D01*
X129500000Y-92152440D01*
X129900000Y-92152440D01*
X130135317Y-92108162D01*
X130198478Y-92067519D01*
X130248110Y-92101431D01*
X130500000Y-92152440D01*
X130900000Y-92152440D01*
X131135317Y-92108162D01*
X131210163Y-92060000D01*
X131500000Y-92060000D01*
X131809974Y-91998342D01*
X132072756Y-91822756D01*
X132598073Y-91297440D01*
X132875000Y-91297440D01*
X133110317Y-91253162D01*
X133326441Y-91114090D01*
X133471431Y-90901890D01*
X133520300Y-90660568D01*
X134090434Y-90090434D01*
X134127474Y-90035000D01*
X134271439Y-89819541D01*
X134335000Y-89500000D01*
X134335000Y-85770189D01*
X134461645Y-85643765D01*
X134634803Y-85226756D01*
X134635197Y-84775225D01*
X134462767Y-84357914D01*
X134143765Y-84038355D01*
X133726756Y-83865197D01*
X133275225Y-83864803D01*
X132857914Y-84037233D01*
X132538355Y-84356235D01*
X132365197Y-84773244D01*
X132364803Y-85224775D01*
X132537233Y-85642086D01*
X132665000Y-85770076D01*
X132665000Y-88897821D01*
X132500000Y-88865000D01*
X132218728Y-88920949D01*
X132103349Y-88998043D01*
X132043765Y-88938355D01*
X131626756Y-88765197D01*
X131175225Y-88764803D01*
X130757914Y-88937233D01*
X130605672Y-89089210D01*
X130400000Y-89047560D01*
X130000000Y-89047560D01*
X129764683Y-89091838D01*
X129548559Y-89230910D01*
X129403569Y-89443110D01*
X129352560Y-89695000D01*
X129352560Y-90205000D01*
X129383509Y-90369479D01*
X129264683Y-90391838D01*
X129048559Y-90530910D01*
X129045184Y-90535849D01*
X128868728Y-90570949D01*
X128659123Y-90711002D01*
X128501890Y-90603569D01*
X128250000Y-90552560D01*
X127350000Y-90552560D01*
X127114683Y-90596838D01*
X126898559Y-90735910D01*
X126753569Y-90948110D01*
X126702560Y-91200000D01*
X126702560Y-91700000D01*
X126746838Y-91935317D01*
X126885910Y-92151441D01*
X127065000Y-92273808D01*
X127065000Y-92295553D01*
X126895554Y-92465000D01*
X124302393Y-92465000D01*
X124451441Y-92369090D01*
X124596431Y-92156890D01*
X124647440Y-91905000D01*
X124647440Y-91798072D01*
X125448073Y-90997440D01*
X126075000Y-90997440D01*
X126310317Y-90953162D01*
X126526441Y-90814090D01*
X126671431Y-90601890D01*
X126722440Y-90350000D01*
X126722440Y-90223072D01*
X128122756Y-88822757D01*
X128218777Y-88679051D01*
X128298342Y-88559974D01*
X128320318Y-88449494D01*
X128650000Y-88515072D01*
X129046077Y-88436287D01*
X129381856Y-88211928D01*
X129606215Y-87876149D01*
X129685000Y-87480072D01*
X129685000Y-86419928D01*
X129606215Y-86023851D01*
X129381856Y-85688072D01*
X129046077Y-85463713D01*
X128650000Y-85384928D01*
X128253923Y-85463713D01*
X128100000Y-85566560D01*
X127946077Y-85463713D01*
X127550000Y-85384928D01*
X127153923Y-85463713D01*
X127000000Y-85566560D01*
X126846077Y-85463713D01*
X126620587Y-85418860D01*
X127219723Y-84819724D01*
X127379051Y-84581272D01*
X127381104Y-84570949D01*
X127435000Y-84300000D01*
X127435000Y-81600000D01*
X127379051Y-81318728D01*
X127379051Y-81318727D01*
X127219723Y-81080276D01*
X126819726Y-80680280D01*
X126819724Y-80680277D01*
X126172350Y-80032904D01*
X126261645Y-79943765D01*
X126434803Y-79526756D01*
X126435197Y-79075225D01*
X126262767Y-78657914D01*
X126095962Y-78490817D01*
X126306215Y-78176149D01*
X126385000Y-77780072D01*
X126385000Y-76719928D01*
X126310907Y-76347440D01*
X126457994Y-76347440D01*
X126567342Y-76456788D01*
X126515000Y-76719928D01*
X126515000Y-77780072D01*
X126593785Y-78176149D01*
X126818144Y-78511928D01*
X127153923Y-78736287D01*
X127550000Y-78815072D01*
X127946077Y-78736287D01*
X128281856Y-78511928D01*
X128506215Y-78176149D01*
X128585000Y-77780072D01*
X128585000Y-76719928D01*
X128506215Y-76323851D01*
X128281856Y-75988072D01*
X127967422Y-75777975D01*
X127697440Y-75507993D01*
X127697440Y-75200000D01*
X127653162Y-74964683D01*
X127514090Y-74748559D01*
X127444289Y-74700866D01*
X127501441Y-74664090D01*
X127646431Y-74451890D01*
X127697440Y-74200000D01*
X127697440Y-73700000D01*
X127653162Y-73464683D01*
X127514090Y-73248559D01*
X127380478Y-73157266D01*
X127325245Y-72879594D01*
X127155079Y-72624921D01*
X126603546Y-72073388D01*
X126559539Y-72005000D01*
X127805025Y-72005000D01*
X127968110Y-72116431D01*
X127995000Y-72121876D01*
X127995000Y-72637069D01*
X127903559Y-72695910D01*
X127758569Y-72908110D01*
X127707560Y-73160000D01*
X127707560Y-73960000D01*
X127751838Y-74195317D01*
X127890910Y-74411441D01*
X128103110Y-74556431D01*
X128355000Y-74607440D01*
X129105000Y-74607440D01*
X129340317Y-74563162D01*
X129556441Y-74424090D01*
X129701431Y-74211890D01*
X129752440Y-73960000D01*
X129752440Y-73160000D01*
X129708162Y-72924683D01*
X129569090Y-72708559D01*
X129465000Y-72637437D01*
X129465000Y-72052583D01*
X129571441Y-71984090D01*
X129716431Y-71771890D01*
X129767440Y-71520000D01*
X129767440Y-71020000D01*
X129723162Y-70784683D01*
X129584090Y-70568559D01*
X129514289Y-70520866D01*
X129571441Y-70484090D01*
X129716431Y-70271890D01*
X129767440Y-70020000D01*
X129767440Y-69520000D01*
X129723162Y-69284683D01*
X129605000Y-69101054D01*
X129605000Y-68627000D01*
X136373000Y-68627000D01*
X136373000Y-85500000D01*
G36*
X115788960Y-91384000D02*
X115788960Y-93416000D01*
X115833238Y-93651317D01*
X115972310Y-93867441D01*
X116184510Y-94012431D01*
X116320650Y-94040000D01*
X112437910Y-94040000D01*
X112793489Y-93969271D01*
X113279670Y-93644415D01*
X113604526Y-93158234D01*
X113718600Y-92584745D01*
X113718600Y-92215255D01*
X113604526Y-91641766D01*
X113279670Y-91155585D01*
X113248862Y-91135000D01*
X115839384Y-91135000D01*
X115788960Y-91384000D01*
X115788960Y-91384000D01*
G37*
X115788960Y-91384000D02*
X115788960Y-93416000D01*
X115833238Y-93651317D01*
X115972310Y-93867441D01*
X116184510Y-94012431D01*
X116320650Y-94040000D01*
X112437910Y-94040000D01*
X112793489Y-93969271D01*
X113279670Y-93644415D01*
X113604526Y-93158234D01*
X113718600Y-92584745D01*
X113718600Y-92215255D01*
X113604526Y-91641766D01*
X113279670Y-91155585D01*
X113248862Y-91135000D01*
X115839384Y-91135000D01*
X115788960Y-91384000D01*
G36*
X89009566Y-87790434D02*
X89280459Y-87971439D01*
X89600000Y-88035000D01*
X91554132Y-88035000D01*
X91797451Y-88278319D01*
X91752560Y-88500000D01*
X91752560Y-90100000D01*
X91796838Y-90335317D01*
X91935910Y-90551441D01*
X92148110Y-90696431D01*
X92400000Y-90747440D01*
X94000000Y-90747440D01*
X94235317Y-90703162D01*
X94288239Y-90669107D01*
X94759566Y-91140434D01*
X95030459Y-91321439D01*
X95350000Y-91385000D01*
X95750331Y-91385000D01*
X95760910Y-91401441D01*
X95973110Y-91546431D01*
X96225000Y-91597440D01*
X96975000Y-91597440D01*
X97210317Y-91553162D01*
X97229118Y-91541064D01*
X97450000Y-91585000D01*
X98444964Y-91585000D01*
X98459161Y-91594486D01*
X98547225Y-91612003D01*
X98564729Y-91700000D01*
X98570949Y-91731272D01*
X98590829Y-91761024D01*
X98552560Y-91950000D01*
X98552560Y-92031517D01*
X98401890Y-91928569D01*
X98150000Y-91877560D01*
X97350000Y-91877560D01*
X97114683Y-91921838D01*
X96898559Y-92060910D01*
X96753569Y-92273110D01*
X96702560Y-92525000D01*
X96702560Y-93275000D01*
X96746838Y-93510317D01*
X96885910Y-93726441D01*
X97003404Y-93806721D01*
X97159276Y-94040000D01*
X89460423Y-94040000D01*
X89700810Y-93680235D01*
X89816226Y-93100000D01*
X89700810Y-92519765D01*
X89372134Y-92027866D01*
X88880235Y-91699190D01*
X88300000Y-91583774D01*
X87719765Y-91699190D01*
X87710000Y-91705715D01*
X87710000Y-86490868D01*
X89009566Y-87790434D01*
X89009566Y-87790434D01*
G37*
X89009566Y-87790434D02*
X89280459Y-87971439D01*
X89600000Y-88035000D01*
X91554132Y-88035000D01*
X91797451Y-88278319D01*
X91752560Y-88500000D01*
X91752560Y-90100000D01*
X91796838Y-90335317D01*
X91935910Y-90551441D01*
X92148110Y-90696431D01*
X92400000Y-90747440D01*
X94000000Y-90747440D01*
X94235317Y-90703162D01*
X94288239Y-90669107D01*
X94759566Y-91140434D01*
X95030459Y-91321439D01*
X95350000Y-91385000D01*
X95750331Y-91385000D01*
X95760910Y-91401441D01*
X95973110Y-91546431D01*
X96225000Y-91597440D01*
X96975000Y-91597440D01*
X97210317Y-91553162D01*
X97229118Y-91541064D01*
X97450000Y-91585000D01*
X98444964Y-91585000D01*
X98459161Y-91594486D01*
X98547225Y-91612003D01*
X98564729Y-91700000D01*
X98570949Y-91731272D01*
X98590829Y-91761024D01*
X98552560Y-91950000D01*
X98552560Y-92031517D01*
X98401890Y-91928569D01*
X98150000Y-91877560D01*
X97350000Y-91877560D01*
X97114683Y-91921838D01*
X96898559Y-92060910D01*
X96753569Y-92273110D01*
X96702560Y-92525000D01*
X96702560Y-93275000D01*
X96746838Y-93510317D01*
X96885910Y-93726441D01*
X97003404Y-93806721D01*
X97159276Y-94040000D01*
X89460423Y-94040000D01*
X89700810Y-93680235D01*
X89816226Y-93100000D01*
X89700810Y-92519765D01*
X89372134Y-92027866D01*
X88880235Y-91699190D01*
X88300000Y-91583774D01*
X87719765Y-91699190D01*
X87710000Y-91705715D01*
X87710000Y-86490868D01*
X89009566Y-87790434D01*
G36*
X120218144Y-85688072D02*
X119993785Y-86023851D01*
X119915000Y-86419928D01*
X119915000Y-87480072D01*
X119964759Y-87730226D01*
X119738355Y-87956235D01*
X119565197Y-88373244D01*
X119564803Y-88824775D01*
X119737233Y-89242086D01*
X120056235Y-89561645D01*
X120473244Y-89734803D01*
X120924775Y-89735197D01*
X121342086Y-89562767D01*
X121349821Y-89555045D01*
X121456235Y-89661645D01*
X121873244Y-89834803D01*
X122324775Y-89835197D01*
X122465000Y-89777257D01*
X122465000Y-90033569D01*
X122452560Y-90095000D01*
X122452560Y-90605000D01*
X122483509Y-90769479D01*
X122364683Y-90791838D01*
X122148559Y-90930910D01*
X122091103Y-91015000D01*
X121764975Y-91015000D01*
X121601890Y-90903569D01*
X121350000Y-90852560D01*
X120492007Y-90852560D01*
X118919723Y-89280277D01*
X118681272Y-89120949D01*
X118400000Y-89065000D01*
X118074446Y-89065000D01*
X119319723Y-87819724D01*
X119479051Y-87581272D01*
X119479493Y-87579051D01*
X119535000Y-87300000D01*
X119535000Y-86204446D01*
X119969724Y-85769723D01*
X119969726Y-85769720D01*
X120204447Y-85535000D01*
X120447234Y-85535000D01*
X120218144Y-85688072D01*
X120218144Y-85688072D01*
G37*
X120218144Y-85688072D02*
X119993785Y-86023851D01*
X119915000Y-86419928D01*
X119915000Y-87480072D01*
X119964759Y-87730226D01*
X119738355Y-87956235D01*
X119565197Y-88373244D01*
X119564803Y-88824775D01*
X119737233Y-89242086D01*
X120056235Y-89561645D01*
X120473244Y-89734803D01*
X120924775Y-89735197D01*
X121342086Y-89562767D01*
X121349821Y-89555045D01*
X121456235Y-89661645D01*
X121873244Y-89834803D01*
X122324775Y-89835197D01*
X122465000Y-89777257D01*
X122465000Y-90033569D01*
X122452560Y-90095000D01*
X122452560Y-90605000D01*
X122483509Y-90769479D01*
X122364683Y-90791838D01*
X122148559Y-90930910D01*
X122091103Y-91015000D01*
X121764975Y-91015000D01*
X121601890Y-90903569D01*
X121350000Y-90852560D01*
X120492007Y-90852560D01*
X118919723Y-89280277D01*
X118681272Y-89120949D01*
X118400000Y-89065000D01*
X118074446Y-89065000D01*
X119319723Y-87819724D01*
X119479051Y-87581272D01*
X119479493Y-87579051D01*
X119535000Y-87300000D01*
X119535000Y-86204446D01*
X119969724Y-85769723D01*
X119969726Y-85769720D01*
X120204447Y-85535000D01*
X120447234Y-85535000D01*
X120218144Y-85688072D01*
G36*
X99547852Y-89283177D02*
X99712599Y-89529739D01*
X99959161Y-89694486D01*
X100250000Y-89752338D01*
X100500000Y-89702609D01*
X100750000Y-89752338D01*
X101000000Y-89702609D01*
X101250000Y-89752338D01*
X101265000Y-89749354D01*
X101265000Y-89850646D01*
X101250000Y-89847662D01*
X101000000Y-89897391D01*
X100750000Y-89847662D01*
X100500000Y-89897391D01*
X100250000Y-89847662D01*
X99959161Y-89905514D01*
X99750000Y-90045271D01*
X99540839Y-89905514D01*
X99250000Y-89847662D01*
X99000000Y-89897391D01*
X98750000Y-89847662D01*
X98635000Y-89870537D01*
X98635000Y-89729463D01*
X98750000Y-89752338D01*
X99040839Y-89694486D01*
X99287401Y-89529739D01*
X99452148Y-89283177D01*
X99454962Y-89269031D01*
X99521439Y-89169541D01*
X99523344Y-89159966D01*
X99547852Y-89283177D01*
X99547852Y-89283177D01*
G37*
X99547852Y-89283177D02*
X99712599Y-89529739D01*
X99959161Y-89694486D01*
X100250000Y-89752338D01*
X100500000Y-89702609D01*
X100750000Y-89752338D01*
X101000000Y-89702609D01*
X101250000Y-89752338D01*
X101265000Y-89749354D01*
X101265000Y-89850646D01*
X101250000Y-89847662D01*
X101000000Y-89897391D01*
X100750000Y-89847662D01*
X100500000Y-89897391D01*
X100250000Y-89847662D01*
X99959161Y-89905514D01*
X99750000Y-90045271D01*
X99540839Y-89905514D01*
X99250000Y-89847662D01*
X99000000Y-89897391D01*
X98750000Y-89847662D01*
X98635000Y-89870537D01*
X98635000Y-89729463D01*
X98750000Y-89752338D01*
X99040839Y-89694486D01*
X99287401Y-89529739D01*
X99452148Y-89283177D01*
X99454962Y-89269031D01*
X99521439Y-89169541D01*
X99523344Y-89159966D01*
X99547852Y-89283177D01*
G36*
X92452560Y-80840000D02*
X92496838Y-81075317D01*
X92635910Y-81291441D01*
X92848110Y-81436431D01*
X93100000Y-81487440D01*
X95331692Y-81487440D01*
X93509566Y-83309566D01*
X93328561Y-83580459D01*
X93271962Y-83865000D01*
X92770189Y-83865000D01*
X92643765Y-83738355D01*
X92226756Y-83565197D01*
X91775225Y-83564803D01*
X91357914Y-83737233D01*
X91038355Y-84056235D01*
X90865197Y-84473244D01*
X90864803Y-84924775D01*
X91037233Y-85342086D01*
X91356235Y-85661645D01*
X91773244Y-85834803D01*
X92224775Y-85835197D01*
X92642086Y-85662767D01*
X92770076Y-85535000D01*
X93254132Y-85535000D01*
X94009566Y-86290434D01*
X94280460Y-86471440D01*
X94600000Y-86535000D01*
X102384132Y-86535000D01*
X101509566Y-87409566D01*
X101328561Y-87680459D01*
X101274444Y-87952524D01*
X101250000Y-87947662D01*
X101000000Y-87997391D01*
X100863204Y-87970180D01*
X100769723Y-87830276D01*
X100519723Y-87580277D01*
X100281272Y-87420949D01*
X100000000Y-87365000D01*
X99100000Y-87365000D01*
X98818728Y-87420949D01*
X98580277Y-87580276D01*
X98230277Y-87930277D01*
X98173667Y-88015000D01*
X98050000Y-88015000D01*
X97730459Y-88078561D01*
X97485727Y-88242086D01*
X97459566Y-88259566D01*
X97209566Y-88509566D01*
X97028561Y-88780459D01*
X96965000Y-89100000D01*
X96965000Y-89502560D01*
X96225000Y-89502560D01*
X95989683Y-89546838D01*
X95773559Y-89685910D01*
X95753683Y-89715000D01*
X95695868Y-89715000D01*
X94690434Y-88709566D01*
X94647440Y-88680838D01*
X94647440Y-88500000D01*
X94603162Y-88264683D01*
X94464090Y-88048559D01*
X94251890Y-87903569D01*
X94000000Y-87852560D01*
X93652798Y-87852560D01*
X93490434Y-87609566D01*
X92490434Y-86609566D01*
X92378838Y-86535000D01*
X92219541Y-86428561D01*
X91900000Y-86365000D01*
X89945868Y-86365000D01*
X89035000Y-85454132D01*
X89035000Y-78645868D01*
X89245869Y-78435000D01*
X90100000Y-78435000D01*
X90419541Y-78371439D01*
X90690434Y-78190434D01*
X91590434Y-77290434D01*
X91771439Y-77019540D01*
X91798201Y-76885000D01*
X92050000Y-76885000D01*
X92369541Y-76821439D01*
X92452560Y-76765967D01*
X92452560Y-80840000D01*
X92452560Y-80840000D01*
G37*
X92452560Y-80840000D02*
X92496838Y-81075317D01*
X92635910Y-81291441D01*
X92848110Y-81436431D01*
X93100000Y-81487440D01*
X95331692Y-81487440D01*
X93509566Y-83309566D01*
X93328561Y-83580459D01*
X93271962Y-83865000D01*
X92770189Y-83865000D01*
X92643765Y-83738355D01*
X92226756Y-83565197D01*
X91775225Y-83564803D01*
X91357914Y-83737233D01*
X91038355Y-84056235D01*
X90865197Y-84473244D01*
X90864803Y-84924775D01*
X91037233Y-85342086D01*
X91356235Y-85661645D01*
X91773244Y-85834803D01*
X92224775Y-85835197D01*
X92642086Y-85662767D01*
X92770076Y-85535000D01*
X93254132Y-85535000D01*
X94009566Y-86290434D01*
X94280460Y-86471440D01*
X94600000Y-86535000D01*
X102384132Y-86535000D01*
X101509566Y-87409566D01*
X101328561Y-87680459D01*
X101274444Y-87952524D01*
X101250000Y-87947662D01*
X101000000Y-87997391D01*
X100863204Y-87970180D01*
X100769723Y-87830276D01*
X100519723Y-87580277D01*
X100281272Y-87420949D01*
X100000000Y-87365000D01*
X99100000Y-87365000D01*
X98818728Y-87420949D01*
X98580277Y-87580276D01*
X98230277Y-87930277D01*
X98173667Y-88015000D01*
X98050000Y-88015000D01*
X97730459Y-88078561D01*
X97485727Y-88242086D01*
X97459566Y-88259566D01*
X97209566Y-88509566D01*
X97028561Y-88780459D01*
X96965000Y-89100000D01*
X96965000Y-89502560D01*
X96225000Y-89502560D01*
X95989683Y-89546838D01*
X95773559Y-89685910D01*
X95753683Y-89715000D01*
X95695868Y-89715000D01*
X94690434Y-88709566D01*
X94647440Y-88680838D01*
X94647440Y-88500000D01*
X94603162Y-88264683D01*
X94464090Y-88048559D01*
X94251890Y-87903569D01*
X94000000Y-87852560D01*
X93652798Y-87852560D01*
X93490434Y-87609566D01*
X92490434Y-86609566D01*
X92378838Y-86535000D01*
X92219541Y-86428561D01*
X91900000Y-86365000D01*
X89945868Y-86365000D01*
X89035000Y-85454132D01*
X89035000Y-78645868D01*
X89245869Y-78435000D01*
X90100000Y-78435000D01*
X90419541Y-78371439D01*
X90690434Y-78190434D01*
X91590434Y-77290434D01*
X91771439Y-77019540D01*
X91798201Y-76885000D01*
X92050000Y-76885000D01*
X92369541Y-76821439D01*
X92452560Y-76765967D01*
X92452560Y-80840000D01*
G36*
X112265000Y-72804447D02*
X112265000Y-83695553D01*
X112195554Y-83765000D01*
X110770015Y-83765000D01*
X110543765Y-83538355D01*
X110126756Y-83365197D01*
X109675225Y-83364803D01*
X109257914Y-83537233D01*
X108938355Y-83856235D01*
X108765197Y-84273244D01*
X108764803Y-84724775D01*
X108781424Y-84765000D01*
X107304447Y-84765000D01*
X107019726Y-84480280D01*
X107019724Y-84480277D01*
X106819723Y-84280277D01*
X106581272Y-84120949D01*
X106300000Y-84065000D01*
X98418923Y-84065000D01*
X98434803Y-84026756D01*
X98435197Y-83575225D01*
X98262767Y-83157914D01*
X97943765Y-82838355D01*
X97526756Y-82665197D01*
X97075225Y-82664803D01*
X96657914Y-82837233D01*
X96338355Y-83156235D01*
X96165197Y-83573244D01*
X96164803Y-84024775D01*
X96337233Y-84442086D01*
X96656235Y-84761645D01*
X96905140Y-84865000D01*
X94945868Y-84865000D01*
X94935000Y-84854132D01*
X94935000Y-84245868D01*
X97390434Y-81790434D01*
X97571440Y-81519540D01*
X97635000Y-81200000D01*
X97635000Y-75435000D01*
X98150000Y-75435000D01*
X98469541Y-75371439D01*
X98740434Y-75190434D01*
X99845868Y-74085000D01*
X101500000Y-74085000D01*
X101819541Y-74021439D01*
X102090434Y-73840434D01*
X103345868Y-72585000D01*
X109160347Y-72585000D01*
X109287233Y-72892086D01*
X109606235Y-73211645D01*
X110023244Y-73384803D01*
X110474775Y-73385197D01*
X110892086Y-73212767D01*
X111211645Y-72893765D01*
X111384803Y-72476756D01*
X111385197Y-72025225D01*
X111314374Y-71853820D01*
X112265000Y-72804447D01*
X112265000Y-72804447D01*
G37*
X112265000Y-72804447D02*
X112265000Y-83695553D01*
X112195554Y-83765000D01*
X110770015Y-83765000D01*
X110543765Y-83538355D01*
X110126756Y-83365197D01*
X109675225Y-83364803D01*
X109257914Y-83537233D01*
X108938355Y-83856235D01*
X108765197Y-84273244D01*
X108764803Y-84724775D01*
X108781424Y-84765000D01*
X107304447Y-84765000D01*
X107019726Y-84480280D01*
X107019724Y-84480277D01*
X106819723Y-84280277D01*
X106581272Y-84120949D01*
X106300000Y-84065000D01*
X98418923Y-84065000D01*
X98434803Y-84026756D01*
X98435197Y-83575225D01*
X98262767Y-83157914D01*
X97943765Y-82838355D01*
X97526756Y-82665197D01*
X97075225Y-82664803D01*
X96657914Y-82837233D01*
X96338355Y-83156235D01*
X96165197Y-83573244D01*
X96164803Y-84024775D01*
X96337233Y-84442086D01*
X96656235Y-84761645D01*
X96905140Y-84865000D01*
X94945868Y-84865000D01*
X94935000Y-84854132D01*
X94935000Y-84245868D01*
X97390434Y-81790434D01*
X97571440Y-81519540D01*
X97635000Y-81200000D01*
X97635000Y-75435000D01*
X98150000Y-75435000D01*
X98469541Y-75371439D01*
X98740434Y-75190434D01*
X99845868Y-74085000D01*
X101500000Y-74085000D01*
X101819541Y-74021439D01*
X102090434Y-73840434D01*
X103345868Y-72585000D01*
X109160347Y-72585000D01*
X109287233Y-72892086D01*
X109606235Y-73211645D01*
X110023244Y-73384803D01*
X110474775Y-73385197D01*
X110892086Y-73212767D01*
X111211645Y-72893765D01*
X111384803Y-72476756D01*
X111385197Y-72025225D01*
X111314374Y-71853820D01*
X112265000Y-72804447D01*
G36*
X116873000Y-68500000D02*
X116881685Y-68546159D01*
X116908965Y-68588553D01*
X116950590Y-68616994D01*
X117000000Y-68627000D01*
X127735000Y-68627000D01*
X127735000Y-69035000D01*
X127234480Y-69035000D01*
X127151890Y-68978569D01*
X126900000Y-68927560D01*
X126100000Y-68927560D01*
X125864683Y-68971838D01*
X125648559Y-69110910D01*
X125503569Y-69323110D01*
X125452560Y-69575000D01*
X125452560Y-70325000D01*
X125496838Y-70560317D01*
X125504314Y-70571936D01*
X125408728Y-70590949D01*
X125170277Y-70750276D01*
X124980277Y-70940277D01*
X124820949Y-71178728D01*
X124814821Y-71209535D01*
X124743765Y-71138355D01*
X124326756Y-70965197D01*
X123875225Y-70964803D01*
X123457914Y-71137233D01*
X123138355Y-71456235D01*
X122965197Y-71873244D01*
X122964803Y-72324775D01*
X123137233Y-72742086D01*
X123456235Y-73061645D01*
X123873244Y-73234803D01*
X123894506Y-73234822D01*
X123698559Y-73360910D01*
X123553569Y-73573110D01*
X123502560Y-73825000D01*
X123502560Y-74575000D01*
X123546838Y-74810317D01*
X123685910Y-75026441D01*
X123815000Y-75114644D01*
X123815000Y-75145554D01*
X123730277Y-75230277D01*
X123570949Y-75468728D01*
X123515000Y-75750000D01*
X123515000Y-75757531D01*
X123150000Y-75684928D01*
X122753923Y-75763713D01*
X122600000Y-75866560D01*
X122446077Y-75763713D01*
X122050000Y-75684928D01*
X121653923Y-75763713D01*
X121500000Y-75866560D01*
X121346077Y-75763713D01*
X121287404Y-75752042D01*
X121919723Y-75119724D01*
X122079051Y-74881272D01*
X122088255Y-74835000D01*
X122135000Y-74600000D01*
X122135000Y-71950000D01*
X122079051Y-71668728D01*
X122039520Y-71609566D01*
X121919723Y-71430276D01*
X121522440Y-71032993D01*
X121522440Y-70650000D01*
X121478162Y-70414683D01*
X121339090Y-70198559D01*
X121126890Y-70053569D01*
X120875000Y-70002560D01*
X120125000Y-70002560D01*
X119889683Y-70046838D01*
X119673559Y-70185910D01*
X119585356Y-70315000D01*
X119514018Y-70315000D01*
X119439090Y-70198559D01*
X119226890Y-70053569D01*
X118975000Y-70002560D01*
X118225000Y-70002560D01*
X117989683Y-70046838D01*
X117773559Y-70185910D01*
X117628569Y-70398110D01*
X117596402Y-70556955D01*
X116219723Y-69180277D01*
X115981272Y-69020949D01*
X115700000Y-68965000D01*
X100100000Y-68965000D01*
X99865394Y-69011667D01*
X99818727Y-69020949D01*
X99580276Y-69180277D01*
X99395558Y-69364995D01*
X99175225Y-69364803D01*
X98757914Y-69537233D01*
X98438355Y-69856235D01*
X98425834Y-69886388D01*
X97719723Y-69180277D01*
X97481272Y-69020949D01*
X97200000Y-68965000D01*
X96170015Y-68965000D01*
X95943765Y-68738355D01*
X95918276Y-68727771D01*
X95819724Y-68580277D01*
X95319723Y-68080277D01*
X95081272Y-67920949D01*
X94800000Y-67865000D01*
X94271192Y-67865000D01*
X94185000Y-67731054D01*
X94185000Y-67650000D01*
X94129051Y-67368728D01*
X94106383Y-67334803D01*
X93969724Y-67130277D01*
X93747440Y-66907993D01*
X93747440Y-65428308D01*
X95009566Y-66690434D01*
X95280459Y-66871439D01*
X95600000Y-66935000D01*
X102329985Y-66935000D01*
X102556235Y-67161645D01*
X102973244Y-67334803D01*
X103424775Y-67335197D01*
X103842086Y-67162767D01*
X104161645Y-66843765D01*
X104334803Y-66426756D01*
X104335197Y-65975225D01*
X104162767Y-65557914D01*
X103843765Y-65238355D01*
X103426756Y-65065197D01*
X102975225Y-65064803D01*
X102557914Y-65237233D01*
X102530099Y-65265000D01*
X95945868Y-65265000D01*
X94190433Y-63509565D01*
X93919541Y-63328561D01*
X93600000Y-63265000D01*
X90700000Y-63265000D01*
X90380460Y-63328560D01*
X90109566Y-63509565D01*
X89039566Y-64579566D01*
X88858561Y-64850459D01*
X88795000Y-65170000D01*
X88795000Y-68530000D01*
X88858561Y-68849541D01*
X89004904Y-69068559D01*
X89039566Y-69120434D01*
X89934132Y-70015000D01*
X89600910Y-70015000D01*
X89462870Y-69800479D01*
X89250670Y-69655489D01*
X88998780Y-69604480D01*
X88201220Y-69604480D01*
X87965903Y-69648758D01*
X87749779Y-69787830D01*
X87710000Y-69846049D01*
X87710000Y-61543730D01*
X87957697Y-61709236D01*
X88500000Y-61817107D01*
X89042303Y-61709236D01*
X89502046Y-61402046D01*
X89809236Y-60942303D01*
X89917107Y-60400000D01*
X89809236Y-59857697D01*
X89502046Y-59397954D01*
X89220753Y-59210000D01*
X116873000Y-59210000D01*
X116873000Y-68500000D01*
X116873000Y-68500000D01*
G37*
X116873000Y-68500000D02*
X116881685Y-68546159D01*
X116908965Y-68588553D01*
X116950590Y-68616994D01*
X117000000Y-68627000D01*
X127735000Y-68627000D01*
X127735000Y-69035000D01*
X127234480Y-69035000D01*
X127151890Y-68978569D01*
X126900000Y-68927560D01*
X126100000Y-68927560D01*
X125864683Y-68971838D01*
X125648559Y-69110910D01*
X125503569Y-69323110D01*
X125452560Y-69575000D01*
X125452560Y-70325000D01*
X125496838Y-70560317D01*
X125504314Y-70571936D01*
X125408728Y-70590949D01*
X125170277Y-70750276D01*
X124980277Y-70940277D01*
X124820949Y-71178728D01*
X124814821Y-71209535D01*
X124743765Y-71138355D01*
X124326756Y-70965197D01*
X123875225Y-70964803D01*
X123457914Y-71137233D01*
X123138355Y-71456235D01*
X122965197Y-71873244D01*
X122964803Y-72324775D01*
X123137233Y-72742086D01*
X123456235Y-73061645D01*
X123873244Y-73234803D01*
X123894506Y-73234822D01*
X123698559Y-73360910D01*
X123553569Y-73573110D01*
X123502560Y-73825000D01*
X123502560Y-74575000D01*
X123546838Y-74810317D01*
X123685910Y-75026441D01*
X123815000Y-75114644D01*
X123815000Y-75145554D01*
X123730277Y-75230277D01*
X123570949Y-75468728D01*
X123515000Y-75750000D01*
X123515000Y-75757531D01*
X123150000Y-75684928D01*
X122753923Y-75763713D01*
X122600000Y-75866560D01*
X122446077Y-75763713D01*
X122050000Y-75684928D01*
X121653923Y-75763713D01*
X121500000Y-75866560D01*
X121346077Y-75763713D01*
X121287404Y-75752042D01*
X121919723Y-75119724D01*
X122079051Y-74881272D01*
X122088255Y-74835000D01*
X122135000Y-74600000D01*
X122135000Y-71950000D01*
X122079051Y-71668728D01*
X122039520Y-71609566D01*
X121919723Y-71430276D01*
X121522440Y-71032993D01*
X121522440Y-70650000D01*
X121478162Y-70414683D01*
X121339090Y-70198559D01*
X121126890Y-70053569D01*
X120875000Y-70002560D01*
X120125000Y-70002560D01*
X119889683Y-70046838D01*
X119673559Y-70185910D01*
X119585356Y-70315000D01*
X119514018Y-70315000D01*
X119439090Y-70198559D01*
X119226890Y-70053569D01*
X118975000Y-70002560D01*
X118225000Y-70002560D01*
X117989683Y-70046838D01*
X117773559Y-70185910D01*
X117628569Y-70398110D01*
X117596402Y-70556955D01*
X116219723Y-69180277D01*
X115981272Y-69020949D01*
X115700000Y-68965000D01*
X100100000Y-68965000D01*
X99865394Y-69011667D01*
X99818727Y-69020949D01*
X99580276Y-69180277D01*
X99395558Y-69364995D01*
X99175225Y-69364803D01*
X98757914Y-69537233D01*
X98438355Y-69856235D01*
X98425834Y-69886388D01*
X97719723Y-69180277D01*
X97481272Y-69020949D01*
X97200000Y-68965000D01*
X96170015Y-68965000D01*
X95943765Y-68738355D01*
X95918276Y-68727771D01*
X95819724Y-68580277D01*
X95319723Y-68080277D01*
X95081272Y-67920949D01*
X94800000Y-67865000D01*
X94271192Y-67865000D01*
X94185000Y-67731054D01*
X94185000Y-67650000D01*
X94129051Y-67368728D01*
X94106383Y-67334803D01*
X93969724Y-67130277D01*
X93747440Y-66907993D01*
X93747440Y-65428308D01*
X95009566Y-66690434D01*
X95280459Y-66871439D01*
X95600000Y-66935000D01*
X102329985Y-66935000D01*
X102556235Y-67161645D01*
X102973244Y-67334803D01*
X103424775Y-67335197D01*
X103842086Y-67162767D01*
X104161645Y-66843765D01*
X104334803Y-66426756D01*
X104335197Y-65975225D01*
X104162767Y-65557914D01*
X103843765Y-65238355D01*
X103426756Y-65065197D01*
X102975225Y-65064803D01*
X102557914Y-65237233D01*
X102530099Y-65265000D01*
X95945868Y-65265000D01*
X94190433Y-63509565D01*
X93919541Y-63328561D01*
X93600000Y-63265000D01*
X90700000Y-63265000D01*
X90380460Y-63328560D01*
X90109566Y-63509565D01*
X89039566Y-64579566D01*
X88858561Y-64850459D01*
X88795000Y-65170000D01*
X88795000Y-68530000D01*
X88858561Y-68849541D01*
X89004904Y-69068559D01*
X89039566Y-69120434D01*
X89934132Y-70015000D01*
X89600910Y-70015000D01*
X89462870Y-69800479D01*
X89250670Y-69655489D01*
X88998780Y-69604480D01*
X88201220Y-69604480D01*
X87965903Y-69648758D01*
X87749779Y-69787830D01*
X87710000Y-69846049D01*
X87710000Y-61543730D01*
X87957697Y-61709236D01*
X88500000Y-61817107D01*
X89042303Y-61709236D01*
X89502046Y-61402046D01*
X89809236Y-60942303D01*
X89917107Y-60400000D01*
X89809236Y-59857697D01*
X89502046Y-59397954D01*
X89220753Y-59210000D01*
X116873000Y-59210000D01*
X116873000Y-68500000D01*
G36*
X87737130Y-71500921D02*
X87949330Y-71645911D01*
X88201220Y-71696920D01*
X88998780Y-71696920D01*
X89234097Y-71652642D01*
X89450221Y-71513570D01*
X89469742Y-71485000D01*
X90035025Y-71485000D01*
X90055711Y-71499134D01*
X89998559Y-71535910D01*
X89853569Y-71748110D01*
X89802560Y-72000000D01*
X89802560Y-72500000D01*
X89846838Y-72735317D01*
X89985910Y-72951441D01*
X90198110Y-73096431D01*
X90450000Y-73147440D01*
X91350000Y-73147440D01*
X91585317Y-73103162D01*
X91653945Y-73059001D01*
X91856235Y-73261645D01*
X92273244Y-73434803D01*
X92724775Y-73435197D01*
X93142086Y-73262767D01*
X93265000Y-73140067D01*
X93265000Y-73654132D01*
X92091932Y-74827200D01*
X92097440Y-74800000D01*
X92097440Y-74300000D01*
X92053162Y-74064683D01*
X91914090Y-73848559D01*
X91701890Y-73703569D01*
X91450000Y-73652560D01*
X90550000Y-73652560D01*
X90314683Y-73696838D01*
X90098559Y-73835910D01*
X89995558Y-73986657D01*
X89930276Y-74030277D01*
X88957474Y-75003080D01*
X88201220Y-75003080D01*
X87965903Y-75047358D01*
X87749779Y-75186430D01*
X87710000Y-75244649D01*
X87710000Y-71458760D01*
X87737130Y-71500921D01*
X87737130Y-71500921D01*
G37*
X87737130Y-71500921D02*
X87949330Y-71645911D01*
X88201220Y-71696920D01*
X88998780Y-71696920D01*
X89234097Y-71652642D01*
X89450221Y-71513570D01*
X89469742Y-71485000D01*
X90035025Y-71485000D01*
X90055711Y-71499134D01*
X89998559Y-71535910D01*
X89853569Y-71748110D01*
X89802560Y-72000000D01*
X89802560Y-72500000D01*
X89846838Y-72735317D01*
X89985910Y-72951441D01*
X90198110Y-73096431D01*
X90450000Y-73147440D01*
X91350000Y-73147440D01*
X91585317Y-73103162D01*
X91653945Y-73059001D01*
X91856235Y-73261645D01*
X92273244Y-73434803D01*
X92724775Y-73435197D01*
X93142086Y-73262767D01*
X93265000Y-73140067D01*
X93265000Y-73654132D01*
X92091932Y-74827200D01*
X92097440Y-74800000D01*
X92097440Y-74300000D01*
X92053162Y-74064683D01*
X91914090Y-73848559D01*
X91701890Y-73703569D01*
X91450000Y-73652560D01*
X90550000Y-73652560D01*
X90314683Y-73696838D01*
X90098559Y-73835910D01*
X89995558Y-73986657D01*
X89930276Y-74030277D01*
X88957474Y-75003080D01*
X88201220Y-75003080D01*
X87965903Y-75047358D01*
X87749779Y-75186430D01*
X87710000Y-75244649D01*
X87710000Y-71458760D01*
X87737130Y-71500921D01*
M02*
