M48
METRIC,TZ
T1C0.200
T2C0.600
T3C1.000
T4C1.016
%
G90
G05
T1
X99350Y-89800
X100000Y-89800
X100650Y-89800
T2
X88200Y-73500
X89600Y-72000
X89750Y-89250
X89750Y-90750
X92000Y-84700
X92500Y-72300
X93250Y-82500
X94100Y-60700
X95300Y-69700
X95300Y-84500
X95400Y-73900
X95500Y-89000
X97300Y-83800
X98700Y-72500
X99250Y-76500
X99250Y-79000
X99400Y-70500
X100400Y-71200
X100400Y-77800
X101750Y-76500
X101750Y-79000
X103200Y-66200
X103200Y-89700
X103900Y-73000
X104400Y-85700
X104700Y-89500
X105900Y-88800
X106000Y-87500
X106250Y-61000
X106250Y-62500
X106250Y-64000
X107100Y-67800
X107500Y-87600
X107750Y-61000
X107750Y-62500
X107750Y-64000
X109250Y-61000
X109250Y-62500
X109250Y-64000
X109430Y-77290
X109900Y-84500
X110250Y-72250
X111750Y-74250
X115000Y-72500
X115500Y-83250
X116000Y-60000
X116000Y-61500
X116000Y-63000
X116000Y-64500
X116000Y-66000
X116000Y-67750
X116400Y-86000
X116500Y-84500
X118300Y-74400
X119100Y-89000
X120000Y-74000
X120700Y-88600
X122100Y-88700
X122900Y-72800
X123750Y-85000
X124100Y-72100
X124500Y-88700
X125250Y-84250
X125300Y-79300
X125750Y-83000
X131150Y-69270
X131400Y-72500
X131400Y-89900
X131700Y-86600
X132600Y-92800
X133100Y-72300
X133460Y-69310
X133500Y-78250
X133500Y-79750
X133500Y-81250
X133500Y-85000
X133570Y-76230
X135500Y-88500
X135500Y-90000
X135500Y-91500
X135640Y-76250
X135750Y-69250
X135750Y-78250
X135750Y-79750
X135750Y-81250
X135750Y-82750
X135750Y-84500
X135750Y-86250
X135840Y-71160
X137000Y-88500
X137000Y-90000
X137000Y-91500
X137250Y-86250
X138500Y-88500
X138500Y-90000
X138500Y-91500
X138750Y-86250
X140250Y-86250
X141750Y-86250
T3
X91400Y-89300
X93200Y-89300
T4
X104600Y-92400
X107140Y-92400
X109680Y-92400
X112220Y-92400
X114760Y-92400
X117300Y-92400
T0
M30
