G04 #@! TF.FileFunction,Soldermask,Bot*
%FSLAX46Y46*%
G04 Gerber Fmt 4.6, Leading zero omitted, Abs format (unit mm)*
G04 Created by KiCad (PCBNEW 4.0.5+dfsg1-4~bpo8+1) date Wed Oct 25 14:31:00 2017*
%MOMM*%
%LPD*%
G01*
G04 APERTURE LIST*
%ADD10C,0.100000*%
%ADD11R,2.000000X2.000000*%
%ADD12O,2.000000X2.000000*%
%ADD13R,3.400000X1.700000*%
%ADD14R,2.400000X1.600000*%
%ADD15R,2.400000X1.500000*%
%ADD16R,1.150000X1.200000*%
%ADD17R,1.200000X1.150000*%
%ADD18R,2.127200X2.432000*%
%ADD19O,2.127200X2.432000*%
%ADD20R,1.300000X0.900000*%
%ADD21R,0.900000X1.300000*%
%ADD22C,0.900000*%
%ADD23O,1.200000X0.750000*%
%ADD24O,0.750000X1.200000*%
%ADD25R,4.800000X4.800000*%
%ADD26R,2.200000X1.400000*%
G04 APERTURE END LIST*
D10*
D11*
X93200000Y-89300000D03*
D12*
X91400000Y-89300000D03*
D13*
X113200000Y-74200000D03*
X113200000Y-76200000D03*
X113200000Y-78200000D03*
X113200000Y-80200000D03*
X113200000Y-82200000D03*
X113200000Y-84200000D03*
X113200000Y-86200000D03*
X113200000Y-88200000D03*
X129200000Y-88200000D03*
X129200000Y-86200000D03*
X129200000Y-84200000D03*
X129200000Y-82200000D03*
X129200000Y-80200000D03*
X129200000Y-78200000D03*
X129200000Y-76200000D03*
X129200000Y-74200000D03*
D14*
X143600000Y-74200000D03*
X143600000Y-79300000D03*
D15*
X143600000Y-76750000D03*
D16*
X99200000Y-68550000D03*
X99200000Y-67050000D03*
X101000000Y-68550000D03*
X101000000Y-67050000D03*
D17*
X91150000Y-80600000D03*
X89650000Y-80600000D03*
D16*
X97400000Y-68550000D03*
X97400000Y-67050000D03*
D17*
X107250000Y-75250000D03*
X108750000Y-75250000D03*
X106500000Y-77250000D03*
X108000000Y-77250000D03*
X91050000Y-84700000D03*
X89550000Y-84700000D03*
X91150000Y-82600000D03*
X89650000Y-82600000D03*
X91350000Y-71600000D03*
X89850000Y-71600000D03*
X89750000Y-78500000D03*
X91250000Y-78500000D03*
D16*
X143600000Y-84650000D03*
X143600000Y-86150000D03*
X135300000Y-74250000D03*
X135300000Y-72750000D03*
D18*
X117300000Y-92400000D03*
D19*
X114760000Y-92400000D03*
X112220000Y-92400000D03*
X109680000Y-92400000D03*
X107140000Y-92400000D03*
X104600000Y-92400000D03*
D20*
X103200000Y-66950000D03*
X103200000Y-68450000D03*
X105300000Y-68450000D03*
X105300000Y-66950000D03*
D21*
X132150000Y-74200000D03*
X133650000Y-74200000D03*
D22*
X99350000Y-89800000D03*
X100000000Y-89800000D03*
X100650000Y-89800000D03*
D23*
X97330000Y-80070000D03*
D24*
X98130000Y-74720000D03*
D23*
X103330000Y-80070000D03*
D24*
X98130000Y-80870000D03*
D23*
X97330000Y-79420000D03*
X97330000Y-78770000D03*
X97330000Y-78120000D03*
X97330000Y-77470000D03*
X97330000Y-76820000D03*
X97330000Y-76170000D03*
X97330000Y-75520000D03*
D24*
X102680000Y-80870000D03*
X102030000Y-80870000D03*
X101380000Y-80870000D03*
X100730000Y-80870000D03*
X100080000Y-80870000D03*
X99430000Y-80870000D03*
X98780000Y-80870000D03*
X98780000Y-74720000D03*
X99430000Y-74720000D03*
X100080000Y-74720000D03*
X100730000Y-74720000D03*
X101380000Y-74720000D03*
X102030000Y-74720000D03*
X102680000Y-74720000D03*
D23*
X103330000Y-75520000D03*
X103330000Y-76170000D03*
X103330000Y-76820000D03*
X103330000Y-77470000D03*
X103330000Y-78120000D03*
X103330000Y-78770000D03*
X103330000Y-79420000D03*
D25*
X100400000Y-77800000D03*
D26*
X90500000Y-76250000D03*
X90500000Y-73750000D03*
M02*
